<svg xmlns="http://www.w3.org/2000/svg" xmlns:xlink="http://www.w3.org/1999/xlink" viewBox="0 0 327.59 289.89"><defs><style>.cls-1{isolation:isolate;}.cls-121,.cls-2,.cls-3{opacity:0.2;}.cls-2{fill:url(#linear-gradient);}.cls-110,.cls-4,.cls-50,.cls-69,.cls-81{opacity:0;}.cls-5,.cls-51,.cls-82{opacity:0.09;}.cls-52,.cls-6,.cls-83{opacity:0.18;}.cls-53,.cls-7,.cls-84{opacity:0.27;}.cls-54,.cls-8,.cls-85{opacity:0.36;}.cls-55,.cls-86,.cls-9{opacity:0.45;}.cls-10,.cls-56,.cls-87{opacity:0.55;}.cls-11,.cls-57,.cls-88{opacity:0.64;}.cls-12,.cls-58,.cls-89{opacity:0.73;}.cls-13,.cls-59,.cls-90{opacity:0.82;}.cls-14,.cls-60,.cls-91{opacity:0.91;}.cls-15{fill:url(#linear-gradient-2);}.cls-16{fill:url(#linear-gradient-3);}.cls-17,.cls-20,.cls-49,.cls-64,.cls-68,.cls-69,.cls-97,.cls-98{mix-blend-mode:multiply;}.cls-17{opacity:0.82;fill:url(#linear-gradient-4);}.cls-104,.cls-106,.cls-107,.cls-122,.cls-18,.cls-22,.cls-28,.cls-40,.cls-44{mix-blend-mode:screen;}.cls-18,.cls-22,.cls-28,.cls-39{opacity:0.6;}.cls-18{fill:url(#radial-gradient);}.cls-19{fill:url(#linear-gradient-5);}.cls-20{fill:#c9cac8;}.cls-21{fill:url(#linear-gradient-6);}.cls-22{fill:url(#radial-gradient-2);}.cls-100,.cls-101,.cls-126,.cls-131,.cls-134,.cls-23,.cls-27,.cls-35,.cls-36,.cls-37,.cls-38,.cls-39,.cls-41,.cls-42,.cls-43,.cls-63,.cls-67,.cls-94,.cls-96{mix-blend-mode:color-dodge;}.cls-23{fill:url(#radial-gradient-3);}.cls-24{fill:url(#linear-gradient-7);}.cls-25{fill:url(#New_Gradient_Swatch_copy_11);}.cls-26{fill:url(#linear-gradient-8);}.cls-27{fill:url(#radial-gradient-4);}.cls-28{fill:url(#radial-gradient-5);}.cls-29{fill:url(#linear-gradient-9);}.cls-30{fill:url(#linear-gradient-10);}.cls-31{fill:url(#linear-gradient-11);}.cls-32{fill:url(#linear-gradient-12);}.cls-33{fill:#fff;}.cls-34{fill:#56c0d4;}.cls-35{opacity:0.4;}.cls-36,.cls-41{opacity:0.15;}.cls-37{opacity:0.25;}.cls-38,.cls-44,.cls-47,.cls-62{opacity:0.8;}.cls-104,.cls-40,.cls-43{opacity:0.5;}.cls-41,.cls-42,.cls-43{fill:#1c3a44;}.cls-42,.cls-46,.cls-49,.cls-64{opacity:0.3;}.cls-45{fill:#c9edf8;}.cls-46{fill:#4ca5a1;}.cls-48{fill:#44938f;}.cls-50{fill:url(#linear-gradient-13);}.cls-51{fill:url(#linear-gradient-14);}.cls-52{fill:url(#linear-gradient-15);}.cls-53{fill:url(#linear-gradient-16);}.cls-54{fill:url(#linear-gradient-17);}.cls-55{fill:url(#linear-gradient-18);}.cls-56{fill:url(#linear-gradient-19);}.cls-57{fill:url(#linear-gradient-20);}.cls-58{fill:url(#linear-gradient-21);}.cls-59{fill:url(#linear-gradient-22);}.cls-60{fill:url(#linear-gradient-23);}.cls-61{fill:url(#linear-gradient-24);}.cls-62{fill:url(#New_Gradient_Swatch_copy_5);}.cls-63{fill:url(#radial-gradient-6);}.cls-64{fill:url(#radial-gradient-7);}.cls-65{fill:url(#linear-gradient-25);}.cls-66{fill:url(#New_Gradient_Swatch_copy_22);}.cls-67{fill:url(#Radial_Gradient_1);}.cls-69{fill:url(#linear-gradient-26);}.cls-70{opacity:0.05;fill:url(#linear-gradient-27);}.cls-71{opacity:0.1;fill:url(#linear-gradient-28);}.cls-72{opacity:0.15;fill:url(#linear-gradient-29);}.cls-73{opacity:0.2;fill:url(#linear-gradient-30);}.cls-74{opacity:0.25;fill:url(#linear-gradient-31);}.cls-75{opacity:0.3;fill:url(#linear-gradient-32);}.cls-76{opacity:0.35;fill:url(#linear-gradient-33);}.cls-77{opacity:0.4;fill:url(#linear-gradient-34);}.cls-78{opacity:0.45;fill:url(#linear-gradient-35);}.cls-79{opacity:0.5;fill:url(#linear-gradient-36);}.cls-80{opacity:0.55;fill:url(#linear-gradient-37);}.cls-81{fill:url(#linear-gradient-38);}.cls-82{fill:url(#linear-gradient-39);}.cls-83{fill:url(#linear-gradient-40);}.cls-84{fill:url(#linear-gradient-41);}.cls-85{fill:url(#linear-gradient-42);}.cls-86{fill:url(#linear-gradient-43);}.cls-87{fill:url(#linear-gradient-44);}.cls-88{fill:url(#linear-gradient-45);}.cls-89{fill:url(#linear-gradient-46);}.cls-90{fill:url(#linear-gradient-47);}.cls-91{fill:url(#linear-gradient-48);}.cls-92{fill:url(#linear-gradient-49);}.cls-93{fill:url(#linear-gradient-50);}.cls-94{fill:url(#radial-gradient-8);}.cls-95{fill:url(#linear-gradient-51);}.cls-96{fill:url(#radial-gradient-9);}.cls-97{fill:url(#New_Gradient_Swatch_1);}.cls-98{fill:#2d837c;opacity:0.7;}.cls-99{fill:url(#New_Gradient_Swatch_copy_4);}.cls-100{fill:url(#radial-gradient-10);}.cls-101{fill:url(#radial-gradient-11);}.cls-102{fill:url(#New_Gradient_Swatch_copy_4-2);}.cls-103{fill:url(#New_Gradient_Swatch_copy_4-3);}.cls-104{fill:url(#linear-gradient-52);}.cls-105{fill:url(#linear-gradient-53);}.cls-106{fill:url(#linear-gradient-54);}.cls-107{fill:url(#linear-gradient-55);}.cls-108{fill:#235553;}.cls-109{fill:url(#linear-gradient-56);}.cls-110{fill:url(#linear-gradient-57);}.cls-111{opacity:0.02;fill:url(#linear-gradient-58);}.cls-112{opacity:0.04;fill:url(#linear-gradient-59);}.cls-113{opacity:0.05;fill:url(#linear-gradient-60);}.cls-114{opacity:0.07;fill:url(#linear-gradient-61);}.cls-115{opacity:0.09;fill:url(#linear-gradient-62);}.cls-116{opacity:0.11;fill:url(#linear-gradient-63);}.cls-117{opacity:0.13;fill:url(#linear-gradient-64);}.cls-118{opacity:0.15;fill:url(#linear-gradient-65);}.cls-119{opacity:0.16;fill:url(#linear-gradient-66);}.cls-120{opacity:0.18;fill:url(#linear-gradient-67);}.cls-122{fill:url(#linear-gradient-68);}.cls-123{fill:url(#New_Gradient_Swatch_copy_4-4);}.cls-124{fill:url(#New_Gradient_Swatch_copy_4-5);}.cls-125{fill:url(#New_Gradient_Swatch_copy_4-6);}.cls-127{fill:url(#radial-gradient-12);}.cls-128{fill:url(#radial-gradient-13);}.cls-129{fill:url(#radial-gradient-14);}.cls-130{fill:url(#radial-gradient-15);}.cls-131{fill:url(#radial-gradient-16);}.cls-132{fill:url(#linear-gradient-69);}.cls-133{fill:url(#New_Gradient_Swatch_copy_22-2);}.cls-134{fill:url(#Radial_Gradient_1-2);}</style><linearGradient id="linear-gradient" x1="10512.29" y1="1800.21" x2="10642.72" y2="1800.21" gradientTransform="matrix(-1, 0, 0, 1, 7914.77, 0)" gradientUnits="userSpaceOnUse"><stop offset="0.06" stop-color="#194648"/><stop offset="0.25" stop-color="#1b4849"/><stop offset="0.35" stop-color="#23504e"/><stop offset="0.43" stop-color="#305d56"/><stop offset="0.47" stop-color="#3c695d"/><stop offset="0.48" stop-color="#406d61"/><stop offset="0.5" stop-color="#4e7b6f"/><stop offset="0.51" stop-color="#639084"/><stop offset="0.52" stop-color="#82afa3"/><stop offset="0.53" stop-color="#95c2b6"/><stop offset="0.54" stop-color="#89b6aa"/><stop offset="0.56" stop-color="#689589"/><stop offset="0.59" stop-color="#507d71"/><stop offset="0.61" stop-color="#416e62"/><stop offset="0.63" stop-color="#3c695d"/><stop offset="0.68" stop-color="#2d5a54"/><stop offset="0.75" stop-color="#1e4b4b"/><stop offset="0.81" stop-color="#194648"/><stop offset="1" stop-color="#194648"/></linearGradient><linearGradient id="linear-gradient-2" x1="10512.29" y1="1780.32" x2="10642.72" y2="1780.32" gradientTransform="matrix(-1, 0, 0, 1, 7914.77, 0)" gradientUnits="userSpaceOnUse"><stop offset="0.06" stop-color="#194648"/><stop offset="0.25" stop-color="#1b4849"/><stop offset="0.35" stop-color="#23504e"/><stop offset="0.43" stop-color="#305d56"/><stop offset="0.47" stop-color="#3c695d"/><stop offset="0.48" stop-color="#3f6d61"/><stop offset="0.5" stop-color="#477b6d"/><stop offset="0.51" stop-color="#569081"/><stop offset="0.52" stop-color="#69af9c"/><stop offset="0.53" stop-color="#76c2ae"/><stop offset="0.54" stop-color="#6eb6a3"/><stop offset="0.56" stop-color="#569584"/><stop offset="0.59" stop-color="#447d6e"/><stop offset="0.61" stop-color="#3a6e61"/><stop offset="0.63" stop-color="#36695c"/><stop offset="0.68" stop-color="#295a53"/><stop offset="0.75" stop-color="#1d4b4b"/><stop offset="0.81" stop-color="#194648"/><stop offset="1" stop-color="#194648"/></linearGradient><linearGradient id="linear-gradient-3" x1="10547.19" y1="1788.71" x2="10606.32" y2="1756" gradientTransform="matrix(-1, 0, 0, 1, 7914.77, 0)" gradientUnits="userSpaceOnUse"><stop offset="0" stop-color="#3c695d"/><stop offset="0.22" stop-color="#2a5752"/><stop offset="0.49" stop-color="#194648"/><stop offset="1" stop-color="#0d2525"/></linearGradient><linearGradient id="linear-gradient-4" x1="10578.55" y1="1773.24" x2="10590.16" y2="1753.78" gradientTransform="matrix(-1, 0, 0, 1, 7914.77, 0)" xlink:href="#Radial_Gradient_1"/><radialGradient id="radial-gradient" cx="10578.94" cy="1799.69" r="46.4" gradientTransform="matrix(-1, 0, 0, 1, 7914.77, 0)" gradientUnits="userSpaceOnUse"><stop offset="0" stop-color="#baffee"/><stop offset="1" stop-color="#235539"/></radialGradient><linearGradient id="linear-gradient-5" x1="10674.27" y1="1811.68" x2="10474.67" y2="1535.48" xlink:href="#linear-gradient-3"/><linearGradient id="linear-gradient-6" x1="10716.68" y1="1817.68" x2="10559.57" y2="1566.64" xlink:href="#linear-gradient"/><radialGradient id="radial-gradient-2" cx="10672.11" cy="1674.72" r="26.74" xlink:href="#radial-gradient"/><radialGradient id="radial-gradient-3" cx="17005.39" cy="6588.02" r="25.78" gradientTransform="matrix(-0.48, -0.2, -0.25, 0.61, 7065.49, 969.23)" gradientUnits="userSpaceOnUse"><stop offset="0" stop-color="#5b82a0"/><stop offset="0.07" stop-color="#4f708a"/><stop offset="0.22" stop-color="#374e60"/><stop offset="0.37" stop-color="#23323e"/><stop offset="0.52" stop-color="#141c23"/><stop offset="0.68" stop-color="#090c0f"/><stop offset="0.83" stop-color="#020304"/><stop offset="1"/></radialGradient><linearGradient id="linear-gradient-7" x1="10514.55" y1="1554.41" x2="10684.37" y2="1809.77" gradientTransform="matrix(-1, 0, 0, 1, 7914.77, 0)" gradientUnits="userSpaceOnUse"><stop offset="0.01" stop-color="#5d93b5"/><stop offset="0.43" stop-color="#68c7b8"/><stop offset="0.9" stop-color="#2b5867"/></linearGradient><linearGradient id="New_Gradient_Swatch_copy_11" x1="-2735.53" y1="1797.77" x2="-2558.54" y2="1583.28" gradientUnits="userSpaceOnUse"><stop offset="0.04" stop-color="#71e1d4"/><stop offset="0.29" stop-color="#6bd2d1"/><stop offset="0.79" stop-color="#5ba9ca"/><stop offset="0.98" stop-color="#5498c7"/></linearGradient><linearGradient id="linear-gradient-8" x1="-2540.77" y1="1598" x2="-2473.62" y2="1714.3" gradientTransform="matrix(1, 0, 0, 1, 0, 0)" xlink:href="#linear-gradient"/><radialGradient id="radial-gradient-4" cx="-2436.42" cy="1645.25" r="126.01" gradientUnits="userSpaceOnUse"><stop offset="0" stop-color="#416079"/><stop offset="0.15" stop-color="#3e5c74"/><stop offset="0.35" stop-color="#365064"/><stop offset="0.56" stop-color="#283b4b"/><stop offset="0.79" stop-color="#152028"/><stop offset="1"/></radialGradient><radialGradient id="radial-gradient-5" cx="-2457.5" cy="1636.25" r="74.24" gradientTransform="matrix(1, 0, 0, 1, 0, 0)" xlink:href="#radial-gradient"/><linearGradient id="linear-gradient-9" x1="-2451.51" y1="1705.25" x2="-2656.74" y2="1641.01" gradientUnits="userSpaceOnUse"><stop offset="0.19" stop-color="#2b5867"/><stop offset="0.93" stop-color="#2b5867"/></linearGradient><linearGradient id="linear-gradient-10" x1="-2448.84" y1="1784.68" x2="-2553.06" y2="1564.46" gradientTransform="matrix(1, 0, 0, 1, 0, 0)" xlink:href="#linear-gradient-3"/><linearGradient id="linear-gradient-11" x1="-2525.22" y1="1692.42" x2="-2459.77" y2="1692.42" gradientTransform="matrix(1, 0, 0, 1, 0, 0)" xlink:href="#linear-gradient-3"/><linearGradient id="linear-gradient-12" x1="-2532.62" y1="1615.92" x2="-2433.04" y2="1805.8" gradientTransform="matrix(1, 0, 0, 1, 0, 0)" xlink:href="#linear-gradient-7"/><linearGradient id="linear-gradient-13" x1="3920.73" y1="1682.21" x2="3956.13" y2="1749.72" gradientTransform="matrix(-1, 0, 0, 1, 1261.88, 0)" xlink:href="#linear-gradient-7"/><linearGradient id="linear-gradient-14" x1="3920.68" y1="1682.8" x2="3955.68" y2="1749.54" gradientTransform="matrix(-1, 0, 0, 1, 1261.88, 0)" xlink:href="#linear-gradient-7"/><linearGradient id="linear-gradient-15" x1="3920.63" y1="1683.38" x2="3955.23" y2="1749.35" gradientTransform="matrix(-1, 0, 0, 1, 1261.88, 0)" xlink:href="#linear-gradient-7"/><linearGradient id="linear-gradient-16" x1="3920.58" y1="1683.97" x2="3954.78" y2="1749.17" gradientTransform="matrix(-1, 0, 0, 1, 1261.88, 0)" xlink:href="#linear-gradient-7"/><linearGradient id="linear-gradient-17" x1="3920.54" y1="1684.55" x2="3954.33" y2="1748.98" gradientTransform="matrix(-1, 0, 0, 1, 1261.88, 0)" xlink:href="#linear-gradient-7"/><linearGradient id="linear-gradient-18" x1="3920.49" y1="1685.14" x2="3953.88" y2="1748.8" gradientTransform="matrix(-1, 0, 0, 1, 1261.88, 0)" xlink:href="#linear-gradient-7"/><linearGradient id="linear-gradient-19" x1="3920.45" y1="1685.72" x2="3953.43" y2="1748.61" gradientTransform="matrix(-1, 0, 0, 1, 1261.88, 0)" xlink:href="#linear-gradient-7"/><linearGradient id="linear-gradient-20" x1="3920.4" y1="1686.31" x2="3952.98" y2="1748.43" gradientTransform="matrix(-1, 0, 0, 1, 1261.88, 0)" xlink:href="#linear-gradient-7"/><linearGradient id="linear-gradient-21" x1="3920.36" y1="1686.89" x2="3952.54" y2="1748.24" gradientTransform="matrix(-1, 0, 0, 1, 1261.88, 0)" xlink:href="#linear-gradient-7"/><linearGradient id="linear-gradient-22" x1="3920.32" y1="1687.47" x2="3952.09" y2="1748.05" gradientTransform="matrix(-1, 0, 0, 1, 1261.88, 0)" xlink:href="#linear-gradient-7"/><linearGradient id="linear-gradient-23" x1="3920.28" y1="1688.06" x2="3951.65" y2="1747.87" gradientTransform="matrix(-1, 0, 0, 1, 1261.88, 0)" xlink:href="#linear-gradient-7"/><linearGradient id="linear-gradient-24" x1="3920.24" y1="1688.64" x2="3951.21" y2="1747.68" gradientTransform="matrix(-1, 0, 0, 1, 1261.88, 0)" xlink:href="#linear-gradient-7"/><linearGradient id="New_Gradient_Swatch_copy_5" x1="-2698.52" y1="1787.07" x2="-2671.97" y2="1694" gradientUnits="userSpaceOnUse"><stop offset="0.03" stop-color="#56c0d4"/><stop offset="0.3" stop-color="#7ad0bd"/><stop offset="0.91" stop-color="#d5f984"/><stop offset="1" stop-color="#e3ff7b"/></linearGradient><radialGradient id="radial-gradient-6" cx="3945.73" cy="1727.43" r="52.29" gradientTransform="matrix(-1, 0, 0, 1, 1261.88, 0)" xlink:href="#radial-gradient-4"/><radialGradient id="radial-gradient-7" cx="3845.69" cy="1713.37" r="16.16" gradientTransform="matrix(0.87, 0.5, -0.86, 0.5, -4458.78, -1060.39)" gradientUnits="userSpaceOnUse"><stop offset="0" stop-color="#fefffd"/><stop offset="0.15" stop-color="#fafbf8"/><stop offset="0.32" stop-color="#eef0eb"/><stop offset="0.49" stop-color="#d9ded4"/><stop offset="0.67" stop-color="#bdc5b5"/><stop offset="0.71" stop-color="#b6bfad"/><stop offset="0.77" stop-color="#bfc7b7"/><stop offset="0.87" stop-color="#d8ddd3"/><stop offset="1" stop-color="#fff"/></radialGradient><linearGradient id="linear-gradient-25" x1="1794.24" y1="1687.14" x2="1813.58" y2="1720.64" gradientTransform="matrix(-1, 0, 0, 1, -782.89, 0)" gradientUnits="userSpaceOnUse"><stop offset="0" stop-color="#579bcc"/><stop offset="0.04" stop-color="#5e9fce"/><stop offset="0.1" stop-color="#73a8d5"/><stop offset="0.14" stop-color="#83b0da"/><stop offset="0.23" stop-color="#acdcff"/><stop offset="0.28" stop-color="#91c8ef"/><stop offset="0.38" stop-color="#579bcc"/><stop offset="0.82" stop-color="#83b1e7"/><stop offset="0.93" stop-color="#6aa4d8"/><stop offset="1" stop-color="#579bcc"/></linearGradient><linearGradient id="New_Gradient_Swatch_copy_22" x1="1761.95" y1="1714.83" x2="1839.21" y2="1697.51" gradientTransform="matrix(-0.5, -0.86, -0.86, 0.5, -201.22, 2398.9)" gradientUnits="userSpaceOnUse"><stop offset="0.04" stop-color="#5d93b5"/><stop offset="0.28" stop-color="#6ca1c3"/><stop offset="0.75" stop-color="#95c6e9"/><stop offset="1" stop-color="#acdcff"/></linearGradient><radialGradient cx="1802.55" cy="1705.9" r="14.74"/><linearGradient id="linear-gradient-26" x1="3840.39" y1="1612.51" x2="3752.86" y2="1559.18" gradientTransform="matrix(-1, 0, 0, 1, 1210.77, 0)" xlink:href="#linear-gradient-7"/><linearGradient id="linear-gradient-27" x1="3839.62" y1="1611.96" x2="3753.61" y2="1559.55" gradientTransform="matrix(-1, 0, 0, 1, 1210.77, 0)" xlink:href="#linear-gradient-7"/><linearGradient id="linear-gradient-28" x1="3838.87" y1="1611.38" x2="3754.38" y2="1559.9" gradientTransform="matrix(-1, 0, 0, 1, 1210.77, 0)" xlink:href="#linear-gradient-7"/><linearGradient id="linear-gradient-29" x1="3838.13" y1="1610.8" x2="3755.14" y2="1560.24" gradientTransform="matrix(-1, 0, 0, 1, 1210.77, 0)" xlink:href="#linear-gradient-7"/><linearGradient id="linear-gradient-30" x1="3837.42" y1="1610.22" x2="3755.9" y2="1560.56" gradientTransform="matrix(-1, 0, 0, 1, 1210.77, 0)" xlink:href="#linear-gradient-7"/><linearGradient id="linear-gradient-31" x1="3836.75" y1="1609.66" x2="3756.66" y2="1560.86" gradientTransform="matrix(-1, 0, 0, 1, 1210.77, 0)" xlink:href="#linear-gradient-7"/><linearGradient id="linear-gradient-32" x1="3836.13" y1="1609.13" x2="3757.38" y2="1561.15" gradientTransform="matrix(-1, 0, 0, 1, 1210.77, 0)" xlink:href="#linear-gradient-7"/><linearGradient id="linear-gradient-33" x1="3835.61" y1="1608.66" x2="3758.08" y2="1561.42" gradientTransform="matrix(-1, 0, 0, 1, 1210.77, 0)" xlink:href="#linear-gradient-7"/><linearGradient id="linear-gradient-34" x1="3835.19" y1="1608.25" x2="3758.73" y2="1561.67" gradientTransform="matrix(-1, 0, 0, 1, 1210.77, 0)" xlink:href="#linear-gradient-7"/><linearGradient id="linear-gradient-35" x1="3834.85" y1="1607.91" x2="3759.34" y2="1561.9" gradientTransform="matrix(-1, 0, 0, 1, 1210.77, 0)" xlink:href="#linear-gradient-7"/><linearGradient id="linear-gradient-36" x1="3834.6" y1="1607.61" x2="3759.91" y2="1562.11" gradientTransform="matrix(-1, 0, 0, 1, 1210.77, 0)" xlink:href="#linear-gradient-7"/><linearGradient id="linear-gradient-37" x1="3834.4" y1="1607.37" x2="3760.45" y2="1562.32" gradientTransform="matrix(-1, 0, 0, 1, 1210.77, 0)" xlink:href="#linear-gradient-7"/><linearGradient id="linear-gradient-38" x1="4216.04" y1="1561.24" x2="4270.46" y2="1665.02" gradientTransform="matrix(-1, 0, 0, 1, 1656.97, 0)" xlink:href="#linear-gradient-7"/><linearGradient id="linear-gradient-39" x1="4215.07" y1="1561.19" x2="4269.75" y2="1665.46" gradientTransform="matrix(-1, 0, 0, 1, 1656.97, 0)" xlink:href="#linear-gradient-7"/><linearGradient id="linear-gradient-40" x1="4214.1" y1="1561.13" x2="4269.03" y2="1665.89" gradientTransform="matrix(-1, 0, 0, 1, 1656.97, 0)" xlink:href="#linear-gradient-7"/><linearGradient id="linear-gradient-41" x1="4213.13" y1="1561.08" x2="4268.32" y2="1666.32" gradientTransform="matrix(-1, 0, 0, 1, 1656.97, 0)" xlink:href="#linear-gradient-7"/><linearGradient id="linear-gradient-42" x1="4212.16" y1="1561.03" x2="4267.61" y2="1666.76" gradientTransform="matrix(-1, 0, 0, 1, 1656.97, 0)" xlink:href="#linear-gradient-7"/><linearGradient id="linear-gradient-43" x1="4211.2" y1="1560.97" x2="4266.9" y2="1667.19" gradientTransform="matrix(-1, 0, 0, 1, 1656.97, 0)" xlink:href="#linear-gradient-7"/><linearGradient id="linear-gradient-44" x1="4210.23" y1="1560.92" x2="4266.19" y2="1667.62" gradientTransform="matrix(-1, 0, 0, 1, 1656.97, 0)" xlink:href="#linear-gradient-7"/><linearGradient id="linear-gradient-45" x1="4209.27" y1="1560.86" x2="4265.48" y2="1668.05" gradientTransform="matrix(-1, 0, 0, 1, 1656.97, 0)" xlink:href="#linear-gradient-7"/><linearGradient id="linear-gradient-46" x1="4208.31" y1="1560.8" x2="4264.78" y2="1668.48" gradientTransform="matrix(-1, 0, 0, 1, 1656.97, 0)" xlink:href="#linear-gradient-7"/><linearGradient id="linear-gradient-47" x1="4207.34" y1="1560.75" x2="4264.07" y2="1668.91" gradientTransform="matrix(-1, 0, 0, 1, 1656.97, 0)" xlink:href="#linear-gradient-7"/><linearGradient id="linear-gradient-48" x1="4206.38" y1="1560.69" x2="4263.37" y2="1669.34" gradientTransform="matrix(-1, 0, 0, 1, 1656.97, 0)" xlink:href="#linear-gradient-7"/><linearGradient id="linear-gradient-49" x1="4205.43" y1="1560.63" x2="4262.66" y2="1669.77" gradientTransform="matrix(-1, 0, 0, 1, 1656.97, 0)" xlink:href="#linear-gradient-7"/><linearGradient id="linear-gradient-50" x1="3839.03" y1="1651.86" x2="3765.98" y2="1651.86" gradientTransform="matrix(-1, 0, 0, 1, 1210.77, 0)" gradientUnits="userSpaceOnUse"><stop offset="0" stop-color="#bfdfff"/><stop offset="0.23" stop-color="#dfeeff"/><stop offset="0.54" stop-color="#c0e5ff"/><stop offset="0.73" stop-color="#bbe2ff"/><stop offset="0.95" stop-color="#acd8ff"/></linearGradient><radialGradient id="radial-gradient-8" cx="7391.14" cy="1569.24" r="22.41" gradientTransform="matrix(-0.29, 0, 0, 1.16, 2334.85, -1707.31)" gradientUnits="userSpaceOnUse"><stop offset="0" stop-color="#b2dfff"/><stop offset="0.02" stop-color="#acd8f7"/><stop offset="0.13" stop-color="#85a6be"/><stop offset="0.25" stop-color="#617a8b"/><stop offset="0.37" stop-color="#435460"/><stop offset="0.49" stop-color="#2b363e"/><stop offset="0.62" stop-color="#181e23"/><stop offset="0.74" stop-color="#0b0d0f"/><stop offset="0.87" stop-color="#030304"/><stop offset="1"/></radialGradient><linearGradient id="linear-gradient-51" x1="3766.43" y1="1621.37" x2="3838.32" y2="1621.37" gradientTransform="matrix(-1, 0, 0, 1, 1210.77, 0)" gradientUnits="userSpaceOnUse"><stop offset="0.04" stop-color="#bed9ff"/><stop offset="0.56" stop-color="#c4e8ff"/><stop offset="1" stop-color="#cbf9ff"/></linearGradient><radialGradient id="radial-gradient-9" cx="3802.28" cy="1625.01" r="28.34" gradientTransform="matrix(-1, 0, 0, 1, 1210.77, 0)" xlink:href="#radial-gradient-8"/><linearGradient id="New_Gradient_Swatch_1" x1="3789.21" y1="1605.04" x2="3778.18" y2="1614.85" gradientTransform="matrix(-1, 0, 0, 1, 1210.77, 0)" xlink:href="#Radial_Gradient_1"/><linearGradient id="New_Gradient_Swatch_copy_4" x1="3835.05" y1="1609.79" x2="3751.56" y2="1558.92" gradientTransform="matrix(-1, 0, 0, 1, 1210.77, 0)" gradientUnits="userSpaceOnUse"><stop offset="0" stop-color="#a1d1d3"/><stop offset="0.16" stop-color="#a5d3d5"/><stop offset="0.3" stop-color="#b0d8db"/><stop offset="0.44" stop-color="#c3e1e6"/><stop offset="0.52" stop-color="#d1e7ee"/><stop offset="0.71" stop-color="#e1eff4"/><stop offset="1" stop-color="#fff"/></linearGradient><radialGradient id="radial-gradient-10" cx="3771.45" cy="1615.46" r="41.29" gradientTransform="matrix(-1, 0, 0, 1, 1210.77, 0)" xlink:href="#radial-gradient-8"/><radialGradient id="radial-gradient-11" cx="3804.09" cy="1610.95" r="47.35" gradientTransform="matrix(-1, 0, 0, 1, 1210.77, 0)" xlink:href="#radial-gradient-8"/><linearGradient id="New_Gradient_Swatch_copy_4-2" x1="3790" y1="1588.92" x2="3756.87" y2="1568.74" xlink:href="#New_Gradient_Swatch_copy_4"/><linearGradient id="New_Gradient_Swatch_copy_4-3" x1="3821.29" y1="1586.23" x2="3759.87" y2="1566.57" xlink:href="#New_Gradient_Swatch_copy_4"/><linearGradient id="linear-gradient-52" x1="3801.41" y1="1595.95" x2="3773.96" y2="1579.23" gradientTransform="matrix(-1, 0, 0, 1, 1210.77, 0)" gradientUnits="userSpaceOnUse"><stop offset="0" stop-color="#cae9ff"/><stop offset="1"/></linearGradient><linearGradient id="linear-gradient-53" x1="3839.42" y1="1597.18" x2="3778.36" y2="1559.98" xlink:href="#linear-gradient-52"/><linearGradient id="linear-gradient-54" x1="3789.26" y1="1558.87" x2="3793.86" y2="1566.45" xlink:href="#linear-gradient-52"/><linearGradient id="linear-gradient-55" x1="3817.28" y1="1572.48" x2="3768.24" y2="1589.49" xlink:href="#linear-gradient-52"/><linearGradient id="linear-gradient-56" x1="3785.01" y1="1639.08" x2="3798.42" y2="1661.82" gradientTransform="matrix(-1, 0, 0, 1, 1210.77, 0)" gradientUnits="userSpaceOnUse"><stop offset="0.06" stop-color="#a2d8ff"/><stop offset="0.07" stop-color="#a5daff"/><stop offset="0.19" stop-color="#bceffb"/><stop offset="0.31" stop-color="#c9fbf9"/><stop offset="0.41" stop-color="#cefff8"/><stop offset="0.5" stop-color="#a5fff8"/><stop offset="0.58" stop-color="#84fff8"/><stop offset="0.67" stop-color="#6cfff8"/><stop offset="0.74" stop-color="#5dfff8"/><stop offset="0.81" stop-color="#58fff8"/></linearGradient><linearGradient id="linear-gradient-57" x1="-2545.72" y1="1700.7" x2="-2408.8" y2="1646.11" gradientTransform="matrix(1, 0, 0, 1, 0, 0)" xlink:href="#linear-gradient-7"/><linearGradient id="linear-gradient-58" x1="-2545.57" y1="1700.75" x2="-2410.31" y2="1646.82" gradientUnits="userSpaceOnUse"><stop offset="0.01" stop-color="#5586a5"/><stop offset="0.43" stop-color="#5fb5a7"/><stop offset="0.9" stop-color="#27505e"/></linearGradient><linearGradient id="linear-gradient-59" x1="-2545.41" y1="1700.83" x2="-2411.77" y2="1647.55" gradientUnits="userSpaceOnUse"><stop offset="0.01" stop-color="#4c7894"/><stop offset="0.43" stop-color="#55a397"/><stop offset="0.9" stop-color="#234854"/></linearGradient><linearGradient id="linear-gradient-60" x1="-2545.27" y1="1700.87" x2="-2413.26" y2="1648.24" gradientUnits="userSpaceOnUse"><stop offset="0.01" stop-color="#446b84"/><stop offset="0.43" stop-color="#4c9186"/><stop offset="0.9" stop-color="#1f404b"/></linearGradient><linearGradient id="linear-gradient-61" x1="-2545.16" y1="1700.82" x2="-2414.77" y2="1648.83" gradientUnits="userSpaceOnUse"><stop offset="0.01" stop-color="#3b5e73"/><stop offset="0.43" stop-color="#427f75"/><stop offset="0.9" stop-color="#1b3842"/></linearGradient><linearGradient id="linear-gradient-62" x1="-2545.04" y1="1700.8" x2="-2416.26" y2="1649.45" gradientUnits="userSpaceOnUse"><stop offset="0.01" stop-color="#335063"/><stop offset="0.43" stop-color="#396d64"/><stop offset="0.9" stop-color="#173038"/></linearGradient><linearGradient id="linear-gradient-63" x1="-2544.9" y1="1700.81" x2="-2417.72" y2="1650.1" gradientUnits="userSpaceOnUse"><stop offset="0.01" stop-color="#2a4352"/><stop offset="0.43" stop-color="#2f5a54"/><stop offset="0.9" stop-color="#14282f"/></linearGradient><linearGradient id="linear-gradient-64" x1="-2544.75" y1="1700.86" x2="-2419.15" y2="1650.78" gradientUnits="userSpaceOnUse"><stop offset="0.01" stop-color="#223542"/><stop offset="0.43" stop-color="#264843"/><stop offset="0.9" stop-color="#102025"/></linearGradient><linearGradient id="linear-gradient-65" x1="-2544.59" y1="1700.93" x2="-2420.55" y2="1651.48" gradientUnits="userSpaceOnUse"><stop offset="0.01" stop-color="#192831"/><stop offset="0.43" stop-color="#1c3632"/><stop offset="0.9" stop-color="#0c181c"/></linearGradient><linearGradient id="linear-gradient-66" x1="-2544.42" y1="1701.02" x2="-2421.91" y2="1652.18" gradientUnits="userSpaceOnUse"><stop offset="0.01" stop-color="#111b21"/><stop offset="0.43" stop-color="#132421"/><stop offset="0.9" stop-color="#081013"/></linearGradient><linearGradient id="linear-gradient-67" x1="-2544.24" y1="1701.13" x2="-2423.24" y2="1652.89" gradientUnits="userSpaceOnUse"><stop offset="0.01" stop-color="#080d10"/><stop offset="0.43" stop-color="#091211"/><stop offset="0.9" stop-color="#040809"/></linearGradient><linearGradient id="linear-gradient-68" x1="-2580.12" y1="1659.87" x2="-2539.48" y2="1643.67" gradientUnits="userSpaceOnUse"><stop offset="0" stop-color="#5d93b5"/><stop offset="0.12" stop-color="#47708a"/><stop offset="0.26" stop-color="#324e60"/><stop offset="0.4" stop-color="#20323e"/><stop offset="0.55" stop-color="#121c23"/><stop offset="0.69" stop-color="#080c0f"/><stop offset="0.84" stop-color="#020304"/><stop offset="1"/></linearGradient><linearGradient id="New_Gradient_Swatch_copy_4-4" x1="-2520.54" y1="1690.11" x2="-2502.43" y2="1658.33" gradientTransform="matrix(1, 0, 0, 1, 0, 0)" xlink:href="#New_Gradient_Swatch_copy_4"/><linearGradient id="New_Gradient_Swatch_copy_4-5" x1="242.53" y1="134.89" x2="255.83" y2="115.3" gradientTransform="matrix(1, 0, 0, 1, 0, 0)" xlink:href="#New_Gradient_Swatch_copy_4"/><linearGradient id="New_Gradient_Swatch_copy_4-6" x1="-2548.75" y1="1702.54" x2="-2423.19" y2="1652.48" gradientTransform="matrix(1, 0, 0, 1, 0, 0)" xlink:href="#New_Gradient_Swatch_copy_4"/><radialGradient id="radial-gradient-12" cx="-2484.12" cy="1688.01" r="25.43" gradientTransform="matrix(1, 0, 0, 1, 0, 0)" xlink:href="#radial-gradient-8"/><radialGradient id="radial-gradient-13" cx="-2486.84" cy="1709.63" r="12.99" gradientTransform="matrix(1, 0, 0, 1, 0, 0)" xlink:href="#radial-gradient-8"/><radialGradient id="radial-gradient-14" cx="-2521.69" cy="1671.24" r="10.53" gradientTransform="matrix(1, 0, 0, 1, 0, 0)" xlink:href="#radial-gradient-8"/><radialGradient id="radial-gradient-15" cx="220.12" cy="107.62" r="30.98" gradientTransform="matrix(1, 0, 0, 1, 0, 0)" xlink:href="#radial-gradient-8"/><radialGradient id="radial-gradient-16" cx="3495.73" cy="429.45" r="21.21" gradientTransform="matrix(0.46, 0, 0, -0.66, -4082.76, 1966.6)" xlink:href="#radial-gradient-3"/><linearGradient id="linear-gradient-69" x1="1962.17" y1="1643.24" x2="1981.51" y2="1676.74" xlink:href="#linear-gradient-25"/><linearGradient id="New_Gradient_Swatch_copy_22-2" x1="1929.88" y1="1670.93" x2="2007.14" y2="1653.61" gradientTransform="matrix(-0.5, -0.86, -0.86, 0.5, -322.3, 2522.14)" xlink:href="#New_Gradient_Swatch_copy_22"/><radialGradient id="Radial_Gradient_1-2" cx="1970.48" cy="1662" r="14.74"/></defs><g class="cls-1"><g id="Layer_4" data-name="Layer 4"><path class="cls-2" d="M-2716.21,1778c0,1.75,1.27,3.6,3.77,5l36.1,34.46c4.57,2.64,11.47,2.92,15.43.64l65.68-38.15c1.91-1.1,2.77-2.6,2.65-4.16a1.87,1.87,0,0,1,0,.27v5a4.61,4.61,0,0,1-2.67,3.8l-65.68,38.15c-4,2.28-10.86,2-15.43-.64l-36.1-34.46c-2.54-1.46-3.82-3.34-3.78-5.11C-2716.22,1782.52-2716.27,1779.25-2716.21,1778Z" transform="translate(2767.09 -1550.16)"/><g class="cls-3"><path class="cls-4" d="M-2667.61,1822.4a19,19,0,0,0,9.46-2.28l65.68-38.15a10,10,0,0,0,5.42-8.64c0-3.84-2.38-7.42-6.53-9.81l-57.64-22.18a23.32,23.32,0,0,0-11.49-2.92,19,19,0,0,0-9.46,2.28l-44.14,25.86c-3.45,2-5.43,5.15-5.43,8.65,0,3.84,2.39,7.41,6.54,9.81l36.1,34.46A23.32,23.32,0,0,0-2667.61,1822.4Z" transform="translate(2767.09 -1550.16)"/><path class="cls-5" d="M-2671.92,1741.14l-43.65,25.57-.54.32a9.12,9.12,0,0,0-4.78,8.64c.2,3.48,2.82,7.36,6.59,9.54l35.45,33.84a22.09,22.09,0,0,0,11.85,2.71,20.2,20.2,0,0,0,9.28-2.47l65-37.75c3.31-1.91,5.19-4.92,5.17-8.25,0-3.64-2.3-7-6.28-9.34l-57.28-22a24.26,24.26,0,0,0-4.16-1.79,24.45,24.45,0,0,0-7.24-1.18A18.48,18.48,0,0,0-2671.92,1741.14Z" transform="translate(2767.09 -1550.16)"/><path class="cls-6" d="M-2671.67,1741.57l-43.7,25.6-.54.32a8.34,8.34,0,0,0-4.14,8.63c.37,3.12,3.26,7.32,6.65,9.28l34.8,33.21a21.16,21.16,0,0,0,12.21,2.51,21.54,21.54,0,0,0,9.1-2.66l64.32-37.35c3.17-1.84,4.95-4.7,4.92-7.85,0-3.44-2.22-6.67-6-8.88l-56.92-21.89a27.42,27.42,0,0,0-4.14-1.77,24.64,24.64,0,0,0-7.17-1.27A18.2,18.2,0,0,0-2671.67,1741.57Z" transform="translate(2767.09 -1550.16)"/><path class="cls-7" d="M-2671.42,1742l-43.74,25.64-.55.32c-3.42,2.08-4.68,5.39-3.49,8.62,0,2.79,3.69,7.26,6.71,9l34.14,32.59a20.29,20.29,0,0,0,12.57,2.3c2.62,0,7-1.77,8.92-2.85l63.64-37c3-1.76,4.71-4.47,4.66-7.45-.05-3.24-2.12-6.3-5.77-8.4l-56.56-21.76a31.62,31.62,0,0,0-4.12-1.74,24.17,24.17,0,0,0-7.1-1.36A17.9,17.9,0,0,0-2671.42,1742Z" transform="translate(2767.09 -1550.16)"/><path class="cls-8" d="M-2671.16,1742.44l-43.8,25.66-.54.32c-3.42,2.12-4.44,5.48-2.86,8.62,0,2.44,4.13,7.21,6.77,8.74l33.49,32a19.59,19.59,0,0,0,12.93,2.09c2.29,0,7.1-2.08,8.74-3l62.95-36.56c2.91-1.68,4.49-4.25,4.42-7.06-.06-3-2-5.92-5.52-7.93l-56.2-21.62a37.7,37.7,0,0,0-4.11-1.71,24.23,24.23,0,0,0-7-1.45A17.38,17.38,0,0,0-2671.16,1742.44Z" transform="translate(2767.09 -1550.16)"/><path class="cls-9" d="M-2670.91,1742.87l-43.85,25.69-.54.33c-3.41,2.14-4.19,5.56-2.21,8.61,0,2.09,4.56,7.16,6.82,8.46l32.85,31.35a19,19,0,0,0,13.27,1.88c2,0,7.17-2.41,8.58-3.22l62.26-36.17c2.77-1.6,4.25-4,4.17-6.65-.08-2.84-2-5.55-5.27-7.46l-55.84-21.48a43.81,43.81,0,0,0-4.09-1.69,23.76,23.76,0,0,0-6.95-1.53A16.93,16.93,0,0,0-2670.91,1742.87Z" transform="translate(2767.09 -1550.16)"/><path class="cls-10" d="M-2670.66,1743.31l-43.9,25.71-.54.33c-3.4,2.18-3.94,5.65-1.57,8.61,0,1.74,5,7.1,6.88,8.19l32.2,30.73a18.5,18.5,0,0,0,13.63,1.67c1.64,0,7.22-2.74,8.4-3.41l61.58-35.77c2.64-1.52,4-3.8,3.91-6.26-.09-2.63-1.87-5.17-5-7l-55.48-21.34c-.58-.34-3.4-1.41-4.07-1.66a23.7,23.7,0,0,0-6.88-1.62A16.57,16.57,0,0,0-2670.66,1743.31Z" transform="translate(2767.09 -1550.16)"/><path class="cls-11" d="M-2670.41,1743.74l-44,25.75-.54.33c-3.39,2.2-3.69,5.72-.92,8.6,0,1.39,5.43,7,6.94,7.92l31.54,30.1a18.14,18.14,0,0,0,14,1.47c1.31,0,7.28-3.06,8.22-3.6l60.9-35.37c2.5-1.45,3.77-3.58,3.66-5.87s-1.79-4.8-4.77-6.52l-55.11-21.2c-.47-.27-3.52-1.42-4.05-1.63a23.49,23.49,0,0,0-6.81-1.71A16.32,16.32,0,0,0-2670.41,1743.74Z" transform="translate(2767.09 -1550.16)"/><path class="cls-12" d="M-2670.16,1744.17l-44,25.78-.54.33c-3.38,2.24-3.44,5.81-.28,8.59,0,1.05,5.87,7,7,7.66l30.89,29.48c4.21,2.43,10.35,2.92,14.35,1.26,1,0,7.34-3.39,8-3.79l60.22-35c2.37-1.36,3.54-3.35,3.41-5.46s-1.7-4.43-4.52-6l-54.75-21.07c-.35-.2-3.63-1.44-4-1.6a23.44,23.44,0,0,0-6.74-1.8A16.06,16.06,0,0,0-2670.16,1744.17Z" transform="translate(2767.09 -1550.16)"/><path class="cls-13" d="M-2669.91,1744.61l-44.05,25.8c-.15.09-.4.24-.54.34-3.37,2.26-3.19,5.89.37,8.58,0,.7,6.3,7,7.05,7.39l30.24,28.85c4.33,2.5,10.72,2.93,14.71,1.06.66,0,7.39-3.71,7.86-4l59.54-34.58c2.23-1.29,3.3-3.13,3.15-5.07s-1.61-4-4.26-5.58l-54.39-20.92c-.23-.14-3.75-1.47-4-1.58a23.31,23.31,0,0,0-6.67-1.88A15.65,15.65,0,0,0-2669.91,1744.61Z" transform="translate(2767.09 -1550.16)"/><path class="cls-14" d="M-2669.66,1745l-44.09,25.84a5.55,5.55,0,0,0-.54.34c-3.37,2.29-2.95,6,1,8.57,0,.35,6.74,6.9,7.11,7.12l29.59,28.23c4.45,2.57,11.1,2.92,15.07.85.33,0,7.45-4,7.68-4.17l58.86-34.19c2.09-1.21,3.06-2.9,2.9-4.67s-1.53-3.68-4-5.1l-54-20.79c-.12-.07-3.86-1.5-4-1.55a23,23,0,0,0-6.6-2A15.32,15.32,0,0,0-2669.66,1745Z" transform="translate(2767.09 -1550.16)"/><path d="M-2660.91,1815.34l65.68-38.14c4-2.28,3.46-6.27-1.11-8.91l-57.64-22.17c-4.57-2.64-11.48-2.93-15.43-.64l-44.14,25.86c-4,2.28-3.46,6.27,1.11,8.91l36.1,34.45C-2671.77,1817.34-2664.87,1817.63-2660.91,1815.34Z" transform="translate(2767.09 -1550.16)"/></g><path class="cls-15" d="M-2660.91,1815.25l65.68-38.14a4.63,4.63,0,0,0,2.67-3.8v-5c0-1.73-1.31,1.27-3.78-.15L-2654,1746c-4.57-2.63-11.48-2.92-15.43-.63l-44.14,25.86c-1.32.76-2.28-2.48-2.62-1.45-.12.35,0,4.88,0,5.24,0,1.77,1.24,3.65,3.78,5.12l36.1,34.45C-2671.77,1817.25-2664.87,1817.54-2660.91,1815.25Z" transform="translate(2767.09 -1550.16)"/><path class="cls-16" d="M-2660.91,1810.38l65.68-38.14c4-2.29,3.46-6.28-1.11-8.91l-57.64-22.18c-4.57-2.63-11.48-2.92-15.43-.63l-44.14,25.86c-4,2.28-3.46,6.27,1.11,8.91l36.1,34.45C-2671.77,1812.38-2664.87,1812.67-2660.91,1810.38Z" transform="translate(2767.09 -1550.16)"/><path class="cls-17" d="M-2713.55,1766.38l44.14-25.86c3.95-2.29,10.86-2,15.43.63l29,11.18a8.3,8.3,0,0,1-.9.62l-65.68,38.14a11.05,11.05,0,0,1-3.14,1.17l-17.78-17C-2717,1772.65-2717.51,1768.66-2713.55,1766.38Z" transform="translate(2767.09 -1550.16)"/><path class="cls-18" d="M-2712.44,1774.46l36.1,34.46c4.57,2.63,11.47,2.92,15.43.64l65.68-38.15a4.75,4.75,0,0,0,2.64-3.51c.21,1.62-.66,3.19-2.64,4.34l-65.68,38.14c-4,2.29-10.86,2-15.43-.64l-36.1-34.45c-2.68-1.55-3.94-3.55-3.75-5.41C-2716,1771.49-2714.72,1773.14-2712.44,1774.46Z" transform="translate(2767.09 -1550.16)"/><path class="cls-19" d="M-2746.72,1810.59l161.31-93.2c8.24-4.76,14.93-17.54,14.93-28.53V1565.49c0-11-6.69-16-14.93-11.29l-161.31,93.21c-8.25,4.76-14.93,17.53-14.93,28.53v123.37C-2761.65,1810.3-2755,1815.36-2746.72,1810.59Z" transform="translate(2767.09 -1550.16)"/><path class="cls-20" d="M-2753.27,1675.94v123.79a2.86,2.86,0,0,0,4.28,2.48l.35-.2,159-91.88c6.64-4.22,10.74-12.65,10.74-21.27V1564.68a2.65,2.65,0,0,0-4-2.28l-.47.27-159.2,92C-2750.43,1659.22-2753.27,1667.32-2753.27,1675.94Zm1.68,0c0-6.44,1.72-15.1,9.91-19.82l159.67-92.27a1,1,0,0,1,.49-.14,1,1,0,0,1,1,1v124.18c0,8.21-3.92,16-9.91,19.81l-159.37,92.08a1.24,1.24,0,0,1-.58.16,1.19,1.19,0,0,1-1.19-1.18Z" transform="translate(2767.09 -1550.16)"/><path class="cls-21" d="M-2750.95,1645.16l161.3-93.21c3.27-1.88,6.29-2.23,8.74-1.28.31.12,4.48,2.33,4.77,2.5h0c-2.55-1.24-5.78-1-9.29,1l-161.31,93.21c-8.25,4.76-14.93,17.53-14.93,28.53v123.37c0,6.86,2.6,11.4,6.56,12.7a2.52,2.52,0,0,1-1.3-.45c-.19-.11-4.71-2.66-4.89-2.78-2.84-2-4.6-6.07-4.6-11.72V1673.69C-2765.88,1662.69-2759.2,1649.92-2750.95,1645.16Z" transform="translate(2767.09 -1550.16)"/><path class="cls-22" d="M-2747.44,1647.05l161.31-93.21c3.38-1.95,6.49-2.23,9-1.15a11.07,11.07,0,0,0-7.2,1.69l-161.31,93.21c-8.24,4.76-14.93,17.53-14.93,28.53v123.36c0,6.49,2.34,10.89,5.94,12.44-4.61-.73-7.73-5.46-7.73-13V1675.58C-2762.37,1664.58-2755.68,1651.81-2747.44,1647.05Z" transform="translate(2767.09 -1550.16)"/><path class="cls-23" d="M-2766.79,1679.31c8.63,3.55,19.31-2.53,23.86-13.59s1.22-22.89-7.41-26.44" transform="translate(2767.09 -1550.16)"/><path class="cls-24" d="M-2742.52,1654.67c-7.91,4.55-10.75,12.65-10.75,21.27v123.79a2.86,2.86,0,0,0,4.28,2.48l.35-.2,102.09-59V1599.21Z" transform="translate(2767.09 -1550.16)"/><path class="cls-25" d="M-2578.87,1688.86V1564.68a2.65,2.65,0,0,0-4-2.28l-.47.27-63.23,36.54V1743l56.94-32.9C-2583,1705.91-2578.87,1697.48-2578.87,1688.86Z" transform="translate(2767.09 -1550.16)"/><g class="cls-3"><path d="M-2465.58,1789.46l-57.31-33.09c-2.26-1.3-2-3.59.64-5.1l4.26-2.08c2.61-1.51,6.56-1.67,8.83-.36l57.3,33.08c2.27,1.31,2,3.59-.63,5.1l-4.26,2.08C-2459.36,1790.6-2463.32,1790.77-2465.58,1789.46Z" transform="translate(2767.09 -1550.16)"/></g><path class="cls-26" d="M-2461.89,1787.39l-51.4-29.68c-5.8-3.35-10.5-12.33-10.5-20.06v-136.9c0-3.93-3.23-4.8-1.28-6.21.08,0,4.59-2.11,4.68-2.14a7.58,7.58,0,0,1,7.1.42l51.4,29.67c5.8,3.35,10.5,12.33,10.5,20.06v136.9c0,4.11-1.33,7-3.44,8.38-.13.08-5.56,2.66-5.7,2.71C-2462.41,1791.17-2459.35,1788.85-2461.89,1787.39Z" transform="translate(2767.09 -1550.16)"/><path class="cls-27" d="M-2462.36,1622.65l-51.41-29.68c-2.73-1.58,48.57,30.63,48.57,30.63,5.79,3.35,10.5,12.33,10.5,20.06,0,0,2.84,140.06,2.84,135.95v-136.9C-2451.86,1635-2456.56,1626-2462.36,1622.65Z" transform="translate(2767.09 -1550.16)"/><path class="cls-28" d="M-2465.88,1789.21l-51.41-29.67c-5.79-3.35-10.5-12.33-10.5-20.06v-136.9c0-7.73,4.71-11.29,10.5-7.94l51.41,29.68c5.8,3.35,10.5,12.33,10.5,20.06v136.9C-2455.38,1789-2460.08,1792.56-2465.88,1789.21Z" transform="translate(2767.09 -1550.16)"/><path class="cls-29" d="M-2466.8,1789.71l-51.4-29.68c-5.8-3.35-10.5-12.33-10.5-20.06v-136.9c0-7.73,4.7-11.28,10.5-7.93l51.4,29.67c5.8,3.35,10.5,12.33,10.5,20.06v136.9C-2456.3,1789.5-2461,1793.06-2466.8,1789.71Z" transform="translate(2767.09 -1550.16)"/><path class="cls-30" d="M-2527.27,1740.88V1603.81c0-6.77,4.12-9.89,9.21-7l51.13,29.52c5.08,2.93,9.2,10.81,9.2,17.58V1781c0,6.78-4.12,9.89-9.2,7l-51.13-29.52C-2523.15,1755.53-2527.27,1747.66-2527.27,1740.88Z" transform="translate(2767.09 -1550.16)"/><path class="cls-31" d="M-2525.22,1741.71V1605.34c0-5.67,3.45-8.28,7.7-5.82l50,28.89c4.26,2.46,7.71,9,7.71,14.72V1779.5c0,5.67-3.45,8.28-7.71,5.83l-50-28.9C-2521.77,1754-2525.22,1747.39-2525.22,1741.71Z" transform="translate(2767.09 -1550.16)"/><path class="cls-32" d="M-2516.94,1601c-4-2.32-7.26-.46-7.26,4.14v137.9a16,16,0,0,0,7.26,12.53l48.88,28.22c4,2.31,7.26.46,7.26-4.14V1641.77a16,16,0,0,0-7.26-12.52Z" transform="translate(2767.09 -1550.16)"/><path class="cls-33" d="M-2471.95,1635.81l6.35,3.66c.24.14.44,0,.44-.25a1,1,0,0,0-.44-.75l-6.35-3.67c-.24-.14-.43,0-.43.25A1,1,0,0,0-2471.95,1635.81Zm6.35,4.92-6.35-3.67c-.24-.14-.43,0-.43.25a1,1,0,0,0,.43.76l6.35,3.66c.24.14.44,0,.44-.25A1,1,0,0,0-2465.6,1640.73Zm0,2.26-6.35-3.67c-.24-.13-.43,0-.43.25a1,1,0,0,0,.43.76l6.35,3.66c.24.14.44,0,.44-.25A1,1,0,0,0-2465.6,1643Z" transform="translate(2767.09 -1550.16)"/><path class="cls-33" d="M-2510.84,1613.88c0,.67-.47.94-1.06.61a2.35,2.35,0,0,1-1-1.83c0-.67.47-.94,1-.6A2.33,2.33,0,0,1-2510.84,1613.88Z" transform="translate(2767.09 -1550.16)"/><path class="cls-33" d="M-2514,1612c0,.67-.47.94-1.06.6a2.32,2.32,0,0,1-1-1.82c0-.67.47-.94,1-.6A2.31,2.31,0,0,1-2514,1612Z" transform="translate(2767.09 -1550.16)"/><path class="cls-33" d="M-2517.22,1610.18c0,.67-.47.94-1.05.6a2.3,2.3,0,0,1-1.06-1.82c0-.67.47-.94,1.06-.6A2.32,2.32,0,0,1-2517.22,1610.18Z" transform="translate(2767.09 -1550.16)"/><path class="cls-20" d="M-2468.06,1629.25l-48.88-28.22c-4-2.32-7.26-.46-7.26,4.14v137.9a16,16,0,0,0,7.26,12.53l48.88,28.22c4,2.31,7.26.46,7.26-4.14V1641.77A16,16,0,0,0-2468.06,1629.25Zm6.63,150.43a5.34,5.34,0,0,1-1,3.39,3,3,0,0,1-2.4,1.11h0a6,6,0,0,1-2.94-.91l-48.88-28.22a15.32,15.32,0,0,1-7-12v-137.9c0-2.78,1.29-4.51,3.37-4.51a6.18,6.18,0,0,1,2.95.91l48.88,28.23a15.31,15.31,0,0,1,6.94,12Z" transform="translate(2767.09 -1550.16)"/><path class="cls-34" d="M-2511.46,1732.68c-3.85-2.22-7-.44-7,4a15.45,15.45,0,0,0,6.45,11.68v3.92l3-2.7c2.6.35,4.45-1.47,4.45-4.87A15.33,15.33,0,0,0-2511.46,1732.68Zm-2.75,7.22c-.43.25-1.11-.15-1.53-.88s-.43-1.51,0-1.75,1.1.15,1.53.88S-2513.79,1739.66-2514.21,1739.9Zm3.51,2c-.42.24-1.11-.15-1.53-.88s-.42-1.51,0-1.75,1.11.15,1.53.88S-2510.28,1741.69-2510.7,1741.93Zm3.52,2c-.43.24-1.11-.15-1.53-.88s-.43-1.51,0-1.75,1.1.15,1.53.88S-2506.76,1743.72-2507.18,1744Z" transform="translate(2767.09 -1550.16)"/><g class="cls-35"><path class="cls-34" d="M-2683.79,1641.52l-11.31,17v-5.85l6.17-9.29-6.17-2.16v-3.66Zm-3.42,1.29L-2694,1653v1.84l8.49-12.76-8.49-3v1.32Z" transform="translate(2767.09 -1550.16)"/></g><g class="cls-36"><path class="cls-34" d="M-2710.76,1656.94l-11.31,17v-5.85l6.18-9.29-6.18-2.15V1653Zm-3.42,1.3-6.78,10.2v1.84l8.49-12.76-8.49-3v1.31Z" transform="translate(2767.09 -1550.16)"/></g><g class="cls-37"><path class="cls-34" d="M-2697.28,1649.23l-11.31,17v-5.85l6.18-9.29-6.18-2.15v-3.66Zm-3.41,1.29-6.79,10.21v1.84l8.49-12.76-8.49-3v1.31Z" transform="translate(2767.09 -1550.16)"/></g><g class="cls-38"><path class="cls-34" d="M-2656.83,1626.1l-11.31,17v-5.84l6.18-9.29-6.18-2.16v-3.66Zm-3.42,1.29-6.78,10.2v1.85l8.49-12.77-8.49-3V1625Z" transform="translate(2767.09 -1550.16)"/></g><g class="cls-39"><path class="cls-34" d="M-2670.31,1633.81l-11.31,17V1645l6.18-9.29-6.18-2.16v-3.66Zm-3.42,1.29-6.78,10.2v1.85l8.48-12.77-8.48-3v1.31Z" transform="translate(2767.09 -1550.16)"/></g><g class="cls-40"><polygon class="cls-41" points="120.7 281.99 134.38 289.89 137.04 288.57 123.36 280.67 120.7 281.99"/></g><g class="cls-40"><polygon class="cls-42" points="320.66 277.94 306.98 285.84 301.81 282.86 315.49 274.96 320.66 277.94"/><polygon class="cls-41" points="327.59 281.99 313.91 289.89 311.25 288.57 324.93 280.67 327.59 281.99"/><polygon class="cls-43" points="310.45 272.05 296.77 279.94 290.88 276.54 304.56 268.65 310.45 272.05"/></g><g class="cls-44"><path class="cls-45" d="M-2510.76,1651.26a11.2,11.2,0,0,1-1.28-5.41v-1.43l3.25,1.87V1648a3.66,3.66,0,0,0,1.77,3.46c.59.34,1,.4,1.33.18s.45-.77.45-1.65a8.48,8.48,0,0,0-.62-3.14,28.65,28.65,0,0,0-2.31-4.22,33.82,33.82,0,0,1-3-5.59,12.43,12.43,0,0,1-.84-4.41c0-2,.44-3.26,1.31-3.85s2.15-.39,3.81.57a9.5,9.5,0,0,1,3.73,3.79,11.27,11.27,0,0,1,1.26,5.4v1l-3.24-1.88v-1.29a4.61,4.61,0,0,0-.44-2.13,3.27,3.27,0,0,0-1.28-1.33c-1.14-.66-1.72-.19-1.72,1.41a7.75,7.75,0,0,0,.64,2.91,30.18,30.18,0,0,0,2.33,4.21,30.59,30.59,0,0,1,3,5.61,13.11,13.11,0,0,1,.82,4.59c0,2-.45,3.37-1.33,4s-2.17.4-3.85-.58A9.61,9.61,0,0,1-2510.76,1651.26Z" transform="translate(2767.09 -1550.16)"/><path class="cls-45" d="M-2499.84,1633.77l4.9,2.83,2.19,19.21.06,0,2.18-16.68,4.9,2.83v25.07l-3.24-1.88v-19l-.07,0-2.49,17.54-2.87-1.66-2.5-20.42-.06,0v19l-3-1.73Z" transform="translate(2767.09 -1550.16)"/><path class="cls-45" d="M-2482.36,1667.66a11.12,11.12,0,0,1-1.28-5.41v-1.43l3.24,1.87v1.72a3.68,3.68,0,0,0,1.78,3.46c.58.34,1,.39,1.33.18s.45-.78.45-1.66a8.47,8.47,0,0,0-.62-3.13,28.15,28.15,0,0,0-2.31-4.22,33.1,33.1,0,0,1-3-5.6,12.39,12.39,0,0,1-.84-4.41c0-2,.44-3.26,1.31-3.84s2.14-.39,3.81.57a9.61,9.61,0,0,1,3.73,3.78,11.27,11.27,0,0,1,1.26,5.4v1l-3.24-1.87v-1.29a4.61,4.61,0,0,0-.44-2.13,3.16,3.16,0,0,0-1.28-1.33c-1.14-.66-1.72-.19-1.72,1.41a7.83,7.83,0,0,0,.64,2.91,29.71,29.71,0,0,0,2.33,4.2,31.6,31.6,0,0,1,3,5.62,13.29,13.29,0,0,1,.81,4.59q0,3.08-1.32,4c-.89.58-2.17.39-3.86-.58A9.65,9.65,0,0,1-2482.36,1667.66Z" transform="translate(2767.09 -1550.16)"/></g><polygon class="cls-33" points="110.55 118.26 37.75 160.3 37.75 142.62 110.55 100.58 110.55 118.26"/><polygon class="cls-33" points="110.55 146.3 37.75 188.35 37.75 170.67 110.55 128.63 110.55 146.3"/><polygon class="cls-46" points="108.45 145.25 108.45 129.84 110.55 128.63 110.55 146.3 37.75 188.35 37.75 186.08 108.45 145.25"/><polygon class="cls-46" points="37.75 158.04 108.45 117.21 108.45 101.79 110.55 100.58 110.55 118.26 37.75 160.3 37.75 158.04"/><path class="cls-34" d="M-2735.92,1730.71l-.1,0v-2.88c0-1.84-1.31-2.59-2.92-1.66l-2,1.16a6.43,6.43,0,0,0-2.92,5v2.88l-.1.06a3,3,0,0,0-1.35,2.33v6.82c0,.86.6,1.21,1.35.77l8-4.64a3,3,0,0,0,1.35-2.33v-6.82C-2734.57,1730.62-2735.17,1730.27-2735.92,1730.71Zm-3.52,7.46v2.23l-1,.58v-2.24c-.4,0-.68-.29-.68-.83a2.58,2.58,0,0,1,1.18-2c.65-.38,1.18-.08,1.18.67A2.62,2.62,0,0,1-2739.44,1738.17Zm1.73-6.43-4.46,2.57V1732a3.65,3.65,0,0,1,1.66-2.86l1.14-.66c.92-.53,1.66-.11,1.66.94Z" transform="translate(2767.09 -1550.16)"/><path class="cls-34" d="M-2735.52,1706.8a3,3,0,0,1-2.26-.1c-.37-.19-.36-.88,0-1.52a12.67,12.67,0,0,0,1.16-2.61,2.64,2.64,0,0,0,.88-1.61c0-.55-.24-.87-.57-.8-.09-2.26-.9-3.76-3.63-2.18a7.16,7.16,0,0,0-3.63,6.38,2.11,2.11,0,0,0-.57,1.46.63.63,0,0,0,.88.58,2.91,2.91,0,0,0,1.16,1.28c.36.21.37.89,0,1.52a11,11,0,0,1-2.26,2.7,5.84,5.84,0,0,0-2,4.06v2.44c0,.48.33.67.74.43l11.34-6.54a1.67,1.67,0,0,0,.75-1.29v-2.45C-2733.52,1707.14-2734.38,1706.45-2735.52,1706.8Z" transform="translate(2767.09 -1550.16)"/><g class="cls-47"><path class="cls-48" d="M-2724,1729.74l2.68-4.81-3.87,1.28.71-2.88,3.62-.12-.51-4.3,2.28-1.31-.51,4.88,3.63-4.06.71,2.06-3.88,3.19,2.69,1.71-1.83,2.59-1.95-2.8-1.95,5Z" transform="translate(2767.09 -1550.16)"/><path class="cls-48" d="M-2713.29,1723.56l2.68-4.8-3.87,1.28.71-2.88,3.62-.12-.51-4.3,2.28-1.31-.51,4.88,3.63-4.07.71,2.06-3.88,3.2,2.69,1.71-1.83,2.59-1.95-2.8-1.95,5Z" transform="translate(2767.09 -1550.16)"/><path class="cls-48" d="M-2702.6,1717.39l2.68-4.8-3.87,1.28.71-2.88,3.62-.12-.51-4.3,2.28-1.32-.51,4.89,3.63-4.07.71,2.06-3.88,3.2,2.69,1.7-1.83,2.6-1.95-2.8-2,5.05Z" transform="translate(2767.09 -1550.16)"/><path class="cls-48" d="M-2691.91,1711.22l2.68-4.8-3.87,1.27.71-2.88,3.62-.11-.51-4.3,2.28-1.32-.51,4.89,3.63-4.07.71,2.06-3.88,3.2,2.69,1.7-1.83,2.6-1.95-2.8-2,5Z" transform="translate(2767.09 -1550.16)"/><path class="cls-48" d="M-2681.22,1705.05l2.68-4.81-3.87,1.28.7-2.88,3.63-.11-.51-4.3,2.28-1.32-.51,4.89,3.63-4.07.71,2.06-3.88,3.2,2.68,1.7-1.82,2.6-1.95-2.8-2,5Z" transform="translate(2767.09 -1550.16)"/><path class="cls-48" d="M-2670.53,1698.88l2.68-4.81-3.87,1.28.7-2.88,3.63-.11-.51-4.3,2.28-1.32-.51,4.88,3.63-4.06.71,2.06-3.88,3.19,2.68,1.71-1.82,2.59-2-2.79-1.95,5Z" transform="translate(2767.09 -1550.16)"/></g><g class="cls-49"><path class="cls-50" d="M-2666.48,1711.54c3.83-2.21,6.93-.44,6.93,4v10.15a15.28,15.28,0,0,1-6.93,12l-40.05,22.89c-3.83,2.22-8.47.2-8.47-4.19v-10.15c0-4.4,4.64-9.51,8.47-11.72Z" transform="translate(2767.09 -1550.16)"/><path class="cls-51" d="M-2666.28,1711.85c3.81-2.2,6.9-.44,6.9,3.94v9.66a15.21,15.21,0,0,1-6.9,11.9l-39.82,22.77c-3.81,2.2-8.3.21-8.3-4.16v-9.66c0-4.37,4.49-9.48,8.3-11.68Z" transform="translate(2767.09 -1550.16)"/><path class="cls-52" d="M-2666.07,1712.16c3.79-2.19,6.87-.43,6.87,3.92v9.17a15.15,15.15,0,0,1-6.87,11.85l-39.6,22.63c-3.79,2.19-8.12.24-8.12-4.11v-9.18c0-4.35,4.33-9.45,8.12-11.64Z" transform="translate(2767.09 -1550.16)"/><path class="cls-53" d="M-2665.87,1712.47c3.78-2.18,6.84-.43,6.84,3.9v8.68a15.06,15.06,0,0,1-6.84,11.79l-39.36,22.5c-3.78,2.18-7.95.26-7.95-4.07v-8.69c0-4.33,4.17-9.43,7.95-11.61Z" transform="translate(2767.09 -1550.16)"/><path class="cls-54" d="M-2665.66,1712.78c3.76-2.17,6.8-.43,6.8,3.88v8.2a14.94,14.94,0,0,1-6.8,11.72L-2704.8,1759c-3.76,2.17-7.78.28-7.78-4v-8.2c0-4.31,4-9.4,7.78-11.57Z" transform="translate(2767.09 -1550.16)"/><path class="cls-55" d="M-2665.45,1713.09c3.73-2.16,6.76-.43,6.76,3.86v7.71a14.92,14.92,0,0,1-6.76,11.67l-38.92,22.24c-3.73,2.15-7.6.3-7.6-4v-7.71c0-4.29,3.87-9.38,7.6-11.54Z" transform="translate(2767.09 -1550.16)"/><path class="cls-56" d="M-2665.25,1713.4c3.72-2.15,6.73-.43,6.73,3.84v7.22a14.81,14.81,0,0,1-6.73,11.61l-38.68,22.11c-3.72,2.15-7.43.32-7.43-4V1747c0-4.27,3.71-9.36,7.43-11.5Z" transform="translate(2767.09 -1550.16)"/><path class="cls-57" d="M-2665,1713.71c3.7-2.14,6.7-.43,6.7,3.82v6.73a14.77,14.77,0,0,1-6.7,11.56l-38.46,22c-3.7,2.14-7.26.34-7.26-3.9v-6.74c0-4.25,3.56-9.33,7.26-11.47Z" transform="translate(2767.09 -1550.16)"/><path class="cls-58" d="M-2664.84,1714c3.68-2.13,6.67-.43,6.67,3.8v6.25a14.68,14.68,0,0,1-6.67,11.49l-38.23,21.85c-3.68,2.12-7.08.35-7.08-3.87v-6.25c0-4.22,3.4-9.3,7.08-11.43Z" transform="translate(2767.09 -1550.16)"/><path class="cls-59" d="M-2664.63,1714.33c3.66-2.12,6.63-.43,6.63,3.78v5.76a14.63,14.63,0,0,1-6.63,11.44l-38,21.71c-3.66,2.11-6.91.38-6.91-3.83v-5.76c0-4.2,3.25-9.28,6.91-11.39Z" transform="translate(2767.09 -1550.16)"/><path class="cls-60" d="M-2664.43,1714.63c3.65-2.1,6.6-.41,6.6,3.77v5.27a14.52,14.52,0,0,1-6.6,11.38l-37.77,21.58c-3.64,2.1-6.73.4-6.73-3.78v-5.28c0-4.18,3.09-9.25,6.73-11.35Z" transform="translate(2767.09 -1550.16)"/><path class="cls-61" d="M-2664.22,1714.94c3.63-2.09,6.56-.41,6.56,3.75v4.78a14.44,14.44,0,0,1-6.56,11.32l-37.55,21.45c-3.62,2.1-6.56.42-6.56-3.74v-4.79a14.48,14.48,0,0,1,6.56-11.32Z" transform="translate(2767.09 -1550.16)"/></g><path class="cls-62" d="M-2706.16,1760.19l43.87-25.09c3.13-1.81,5.69-6.71,5.69-10.89v-6.16c0-4.18-2.56-6.12-5.69-4.31l-43.87,25.1c-3.13,1.81-5.7,6.7-5.7,10.88v6.17C-2711.86,1760.06-2709.29,1762-2706.16,1760.19Z" transform="translate(2767.09 -1550.16)"/><path class="cls-63" d="M-2706.16,1738.84l43.87-25.1c3.13-1.81,5.69.13,5.69,4.31v.64c0-4.18-2.56-6.12-5.69-4.31l-43.87,25.1c-3.13,1.8-5.7,6.7-5.7,10.88v-.64C-2711.86,1745.54-2709.29,1740.65-2706.16,1738.84Z" transform="translate(2767.09 -1550.16)"/><path class="cls-33" d="M-2698.43,1738.23l2-1.14v12.41l3.26-1.89v2.07l-5.24,3Z" transform="translate(2767.09 -1550.16)"/><path class="cls-33" d="M-2691.67,1748.06c-.52-.33-.78-1.08-.78-2.24v-7.61a6.29,6.29,0,0,1,.78-3.13,5.72,5.72,0,0,1,2.23-2.24c1-.57,1.72-.68,2.24-.34s.77,1.08.77,2.24v7.61a6.39,6.39,0,0,1-.77,3.13,5.9,5.9,0,0,1-2.24,2.25C-2690.41,1748.29-2691.16,1748.4-2691.67,1748.06Zm3.26-4.42v-7.9c0-1-.34-1.23-1-.84a2.16,2.16,0,0,0-1,2v7.9c0,1,.35,1.23,1,.84A2.14,2.14,0,0,0-2688.41,1743.64Z" transform="translate(2767.09 -1550.16)"/><path class="cls-33" d="M-2684.48,1743.92c-.51-.33-.76-1.09-.76-2.26v-7.61a6.37,6.37,0,0,1,.76-3.14,5.69,5.69,0,0,1,2.2-2.21c1-.55,1.69-.66,2.19-.32s.76,1.09.76,2.26v1.24l-1.87,1.08v-1.39c0-1-.34-1.22-1-.83a2.16,2.16,0,0,0-1,2v7.92c0,.94.35,1.21,1,.82a2.13,2.13,0,0,0,1-2v-2.84l-1,.57v-2.06l2.86-1.66v4.74a6.31,6.31,0,0,1-.76,3.13,5.6,5.6,0,0,1-2.19,2.21C-2683.25,1744.15-2684,1744.26-2684.48,1743.92Z" transform="translate(2767.09 -1550.16)"/><path class="cls-33" d="M-2678,1726.47l2-1.15v14.48l-2,1.14Z" transform="translate(2767.09 -1550.16)"/><path class="cls-33" d="M-2674.59,1724.47l2.49-1.44,1.93,7.55,0,0v-8.66l1.77-1v14.47l-2,1.18-2.38-9.19,0,0v10.57l-1.77,1Z" transform="translate(2767.09 -1550.16)"/><ellipse class="cls-64" cx="-2587.96" cy="1703.63" rx="26.02" ry="15.02" transform="translate(14.49 -2940.53) rotate(-59.69)"/><path class="cls-65" d="M-2599.16,1712.54c0,4.23,1.46,7.22,3.83,8.67l2.54,1.58c2.46,1.38.89-1.75,4.63-3.91,7.54-4.35,13.64-14.88,13.64-23.53,0-4.28,4-4.31,1.54-5.74l-3-1.65c-2.46-1.33-5.82-1.09-9.53,1C-2593,1693.36-2599.16,1703.9-2599.16,1712.54Z" transform="translate(2767.09 -1550.16)"/><ellipse class="cls-66" cx="-2582.63" cy="1706.36" rx="19.23" ry="11.1" transform="translate(14.78 -2934.57) rotate(-59.69)"/><path class="cls-67" d="M-2583.29,1690.38c3.62-2.09,6.9-2.37,9.34-1.15-2.28-.63-5.1-.16-8.16,1.61-7.53,4.35-13.64,14.88-13.64,23.53,0,4.5,1.66,7.6,4.31,8.92-3.33-.93-5.49-4.24-5.49-9.38C-2596.93,1705.27-2590.82,1694.73-2583.29,1690.38Z" transform="translate(2767.09 -1550.16)"/><path class="cls-33" d="M-2587.13,1717.9a15.51,15.51,0,0,1,.69-4.69,30.77,30.77,0,0,1,2.51-5.41,37.57,37.57,0,0,0,2.46-5.12,11,11,0,0,0,.68-3.61c0-1-.14-1.61-.42-1.84s-.69-.18-1.24.13a3.47,3.47,0,0,0-1.66,3.26v2.51l-3,1.75v-2.28a10.27,10.27,0,0,1,1.22-5.06,9.22,9.22,0,0,1,3.55-3.57c1.55-.9,2.74-1.07,3.55-.53s1.22,1.76,1.22,3.65a14.37,14.37,0,0,1-.88,4.69,43.26,43.26,0,0,1-3.08,6.45,30.12,30.12,0,0,0-1.92,3.93,7.68,7.68,0,0,0-.49,2.61v.5l6.08-3.51v3.34l-9.25,5.34Z" transform="translate(2767.09 -1550.16)"/><g class="cls-68"><path class="cls-69" d="M-2600.41,1556.33h0a21.35,21.35,0,0,1,32,18.5v37.1h0v0c0,2.26-3.14,4.08-7,4.08s-7-1.82-7-4.08c0,0,0,0,0-.08h-.07v-34.08A9.05,9.05,0,0,0-2596,1570h0a22.58,22.58,0,0,0-11.32,19.56v17.22h-.07c-.08,2.22-3.18,4-7,4s-7-1.8-7-4h0v-14A42,42,0,0,1-2600.41,1556.33Z" transform="translate(2767.09 -1550.16)"/><path class="cls-70" d="M-2599.42,1556.39a20.79,20.79,0,0,1,30.63,18.35v33.41l0,.22,0,3.28h0v0c0,1.19-1.06,2.28-2.65,3a11.08,11.08,0,0,1-4.29.75,9.54,9.54,0,0,1-3.78-1l-.11,0a3.93,3.93,0,0,1-2.48-3.25V1611h-.07v-33.32a9.27,9.27,0,0,0-12.41-8.73,11.29,11.29,0,0,0-1.14.5h0a21.82,21.82,0,0,0-3.83,2.59,22.75,22.75,0,0,0-8,16.8c0,.16-.06,5.14-.06,5.32v12h-.07a3,3,0,0,1-.64,1.73,4.24,4.24,0,0,1-.49.57,6.89,6.89,0,0,1-2.76,1.3,11.49,11.49,0,0,1-3,.3c-3.5,0-6.33-2.1-6.37-4.13h0v-13.43a41.35,41.35,0,0,1,14.72-31.63A36.86,36.86,0,0,1-2599.42,1556.39Z" transform="translate(2767.09 -1550.16)"/><path class="cls-71" d="M-2598.44,1556.45c13.12-6.71,29.25,2.87,29.25,18.2v33.26l0,.19,0,3.28h0v0c-.08,1.1-1.1,2.12-2.7,2.73a10.91,10.91,0,0,1-4.17.6c-1.27,0-2.45-.82-3.4-1.23l-.11,0a4,4,0,0,1-2.23-3.25v-.07h-.06v-32.55a9.52,9.52,0,0,0-12.38-9.08,10.51,10.51,0,0,0-1.17.46h0a19.21,19.21,0,0,0-3.91,2.49,22.88,22.88,0,0,0-8.37,16.72c-.08.33-.12,5-.12,5.35v12.12h-.06a3.39,3.39,0,0,1-.58,1.77,4.75,4.75,0,0,1-.44.59,6.51,6.51,0,0,1-2.8,1.26,11.92,11.92,0,0,1-3.06.18c-3.15,0-5.7-2.38-5.74-4.21h0v-12.88a40.72,40.72,0,0,1,15.08-31.63A32.43,32.43,0,0,1-2598.44,1556.45Z" transform="translate(2767.09 -1550.16)"/><path class="cls-72" d="M-2597.46,1556.51c12.56-6,27.88,3.26,27.88,18v33.1l-.08.17.07,3.27h0s0,0,0,0c-.12,1-1.15,2-2.75,2.52a11.49,11.49,0,0,1-4.06.45c-1.13,0-2.18-1.09-3-1.45a.36.36,0,0,0-.09,0,4.11,4.11,0,0,1-2-3.26v-.06h0v-31.77a9.77,9.77,0,0,0-12.36-9.43,11.79,11.79,0,0,0-1.18.42h0a17.87,17.87,0,0,0-4,2.39,23.09,23.09,0,0,0-8.76,16.64c-.12.5-.18,4.86-.18,5.39v12.21h-.06a3.77,3.77,0,0,1-.51,1.81,5.4,5.4,0,0,1-.4.62,6.16,6.16,0,0,1-2.84,1.2,11.48,11.48,0,0,1-3.07.08c-2.8,0-5.07-2.67-5.09-4.29h0v-12.33a40.17,40.17,0,0,1,15.44-31.64A29.12,29.12,0,0,1-2597.46,1556.51Z" transform="translate(2767.09 -1550.16)"/><path class="cls-73" d="M-2596.48,1556.57c12-5.22,26.5,3.66,26.5,17.9v32.94l-.09.16.08,3.25h0v0c-.16.93-1.2,1.82-2.79,2.3a11.45,11.45,0,0,1-3.94.29c-1,0-1.91-1.35-2.66-1.67l-.09,0c-1.06-.47-1.74-2.43-1.74-3.27v0h0v-31a10,10,0,0,0-12.34-9.77,9.8,9.8,0,0,0-1.2.37h0a17.17,17.17,0,0,0-4.1,2.28,23.33,23.33,0,0,0-9.15,16.57c-.16.67-.24,4.73-.24,5.43v12.3l0,0a4.33,4.33,0,0,1-.45,1.83c-.1.12-.23.54-.36.65a5.84,5.84,0,0,1-2.88,1.16,11.55,11.55,0,0,1-3.08,0c-2.44,0-4.43-3-4.45-4.38h0v-11.78a39.58,39.58,0,0,1,15.8-31.63A26,26,0,0,1-2596.48,1556.57Z" transform="translate(2767.09 -1550.16)"/><path class="cls-74" d="M-2595.49,1556.63c11.44-4.47,25.12,4.06,25.12,17.75v32.79l-.12.13.1,3.24h0v0c-.2.84-1.24,1.67-2.84,2.08a11.41,11.41,0,0,1-3.82.14c-.85,0-1.64-1.62-2.28-1.89l-.09,0c-.9-.41-1.49-2.57-1.49-3.29a.43.43,0,0,0,0,0h0V1577.3a10.3,10.3,0,0,0-12.31-10.11,10.47,10.47,0,0,0-1.22.33h0a16.08,16.08,0,0,0-4.19,2.18,23.53,23.53,0,0,0-9.54,16.49,49.59,49.59,0,0,0-.3,5.47v12.39l0,0a5.43,5.43,0,0,1-.39,1.87c-.08.1-.2.58-.31.68a5.79,5.79,0,0,1-2.92,1.1,10.17,10.17,0,0,1-3.09-.14c-2.1,0-3.8-3.24-3.82-4.46h0V1591.9a39.07,39.07,0,0,1,16.15-31.64A23.8,23.8,0,0,1-2595.49,1556.63Z" transform="translate(2767.09 -1550.16)"/><path class="cls-75" d="M-2594.51,1556.69c10.89-3.73,23.74,4.46,23.74,17.6v32.63l-.14.11.12,3.23h0v0c-.24.74-1.28,1.52-2.88,1.86a11.1,11.1,0,0,1-3.71,0c-.71,0-1.37-1.87-1.9-2.1l-.08,0c-.76-.34-1.25-2.7-1.25-3.29a.43.43,0,0,1,0,0h0V1577.2a10.59,10.59,0,0,0-12.29-10.46,9,9,0,0,0-1.24.3h0a14.81,14.81,0,0,0-4.27,2.07,23.8,23.8,0,0,0-9.95,16.41,43.71,43.71,0,0,0-.35,5.51v12.48l0,0a6.35,6.35,0,0,1-.32,1.89c-.07.09-.18.63-.27.71a5.74,5.74,0,0,1-3,1.06,9.72,9.72,0,0,1-3.1-.25c-1.75,0-3.16-3.53-3.18-4.55h0v-10.67a38.6,38.6,0,0,1,16.5-31.63A22.09,22.09,0,0,1-2594.51,1556.69Z" transform="translate(2767.09 -1550.16)"/><path class="cls-76" d="M-2593.53,1556.75c10.34-3,22.37,4.85,22.37,17.45v32.48l-.17.08.14,3.23h0c-.27.66-1.32,1.37-2.92,1.64a10,10,0,0,1-3.6-.17c-.57,0-1.09-2.13-1.52-2.31l-.08,0c-.61-.27-1-2.82-1-3.3v0h0V1577.1a10.88,10.88,0,0,0-12.27-10.8,9.36,9.36,0,0,0-1.26.25h0a14.26,14.26,0,0,0-4.36,2,24,24,0,0,0-10.34,16.34,37.74,37.74,0,0,0-.42,5.54V1603l0,0a8.31,8.31,0,0,1-.26,1.93c-.06.07-.15.67-.22.74a5.72,5.72,0,0,1-3,1,8.79,8.79,0,0,1-3.1-.35c-1.4,0-2.54-3.83-2.55-4.64h0v-10.11a38.15,38.15,0,0,1,16.86-31.64A20.52,20.52,0,0,1-2593.53,1556.75Z" transform="translate(2767.09 -1550.16)"/><path class="cls-77" d="M-2592.54,1556.81a17.51,17.51,0,0,1,21,17.3v32.32l-.19.07.16,3.21h0a4,4,0,0,1-3,1.42,9.11,9.11,0,0,1-3.48-.32c-.43,0-.82-2.4-1.14-2.54h-.08c-.45-.2-.74-3-.74-3.31v0h0V1577a11.19,11.19,0,0,0-12.25-11.15,9.23,9.23,0,0,0-1.28.21h0a13.55,13.55,0,0,0-4.45,1.86,24.29,24.29,0,0,0-10.73,16.27,33.24,33.24,0,0,0-.48,5.57v12.67l0,0a10.7,10.7,0,0,1-.19,2s-.12.71-.18.76a5.5,5.5,0,0,1-3,1,7.62,7.62,0,0,1-3.12-.46c-1,0-1.9-4.11-1.91-4.72h0v-9.56a37.72,37.72,0,0,1,17.22-31.64A19.25,19.25,0,0,1-2592.54,1556.81Z" transform="translate(2767.09 -1550.16)"/><path class="cls-78" d="M-2591.56,1556.87a17.23,17.23,0,0,1,19.61,17.15v32.17l-.22,0,.19,3.2h0a4.46,4.46,0,0,1-3,1.2,7.88,7.88,0,0,1-3.37-.48c-.28,0-.55-2.66-.76-2.75h-.08c-.3-.13-.49-3.08-.49-3.32v0h0V1576.9a11.52,11.52,0,0,0-12.23-11.5,11.27,11.27,0,0,0-1.3.17h0a13,13,0,0,0-4.53,1.76,24.55,24.55,0,0,0-11.13,16.19,29.88,29.88,0,0,0-.54,5.61v12.8a18.64,18.64,0,0,1-.13,2s-.1.76-.14.8a5.54,5.54,0,0,1-3.08.9,7,7,0,0,1-3.13-.57c-.69,0-1.26-4.4-1.27-4.81h0v-9a37.34,37.34,0,0,1,17.58-31.64A18.18,18.18,0,0,1-2591.56,1556.87Z" transform="translate(2767.09 -1550.16)"/><path class="cls-79" d="M-2590.58,1556.93a17,17,0,0,1,18.23,17v32l-.23,0,.2,3.19h0a5,5,0,0,1-3.06,1,6.83,6.83,0,0,1-3.26-.63c-.14,0-.27-2.93-.38-3h-.07a24.15,24.15,0,0,1-.25-3.33h0v-26.39a11.84,11.84,0,0,0-12.2-11.83,9.81,9.81,0,0,0-1.32.12h0a12.69,12.69,0,0,0-4.62,1.65,24.81,24.81,0,0,0-11.52,16.12,27.23,27.23,0,0,0-.6,5.65v12.89c0,.06,0,2-.06,2s-.07.8-.09.82a5.51,5.51,0,0,1-3.13.85,6.18,6.18,0,0,1-3.13-.68c-.35,0-.63-4.68-.64-4.88h0v-8.45a37,37,0,0,1,17.94-31.65A17.22,17.22,0,0,1-2590.58,1556.93Z" transform="translate(2767.09 -1550.16)"/><path class="cls-80" d="M-2575.89,1609.63a5.63,5.63,0,0,1-3.14-.78v-3.19h-.07v-29a12.19,12.19,0,0,0-12.18-12.18,12.15,12.15,0,0,0-6,1.63,25.13,25.13,0,0,0-12.57,21.73v15.05l0,.85a5.59,5.59,0,0,1-3.16.8,5.63,5.63,0,0,1-3.15-.79v-12.87a36.63,36.63,0,0,1,18.29-31.65,16.61,16.61,0,0,1,8.37-2.27,16.89,16.89,0,0,1,16.86,16.85v31.85h-.26l.22,3.18A5.75,5.75,0,0,1-2575.89,1609.63Z" transform="translate(2767.09 -1550.16)"/></g><g class="cls-49"><path class="cls-81" d="M-2579,1600.21c3.61-2.08,6.54-.41,6.54,3.73v45.86a14.43,14.43,0,0,1-6.54,11.29l-45.78,26.49c-3.61,2.08-8,.18-8-4v-45.86c0-4.15,4.38-9,8-11.06Z" transform="translate(2767.09 -1550.16)"/><path class="cls-82" d="M-2578.18,1600.32c3.64-2.11,6.59-.42,6.59,3.76v46.07a14.52,14.52,0,0,1-6.59,11.37l-46,26.6c-3.64,2.1-7.91.21-7.91-4v-46.07c0-4.18,4.27-9.07,7.91-11.17Z" transform="translate(2767.09 -1550.16)"/><path class="cls-83" d="M-2577.38,1600.42c3.67-2.12,6.65-.42,6.65,3.79v46.28a14.65,14.65,0,0,1-6.65,11.47l-46.13,26.7c-3.67,2.12-7.83.23-7.83-4V1638.4c0-4.22,4.16-9.16,7.83-11.28Z" transform="translate(2767.09 -1550.16)"/><path class="cls-84" d="M-2576.57,1600.53c3.7-2.14,6.7-.43,6.7,3.82v46.49a14.77,14.77,0,0,1-6.7,11.56l-46.31,26.8c-3.7,2.13-7.76.26-7.76-4v-46.49c0-4.25,4.06-9.26,7.76-11.4Z" transform="translate(2767.09 -1550.16)"/><path class="cls-85" d="M-2575.76,1600.63c3.73-2.15,6.75-.43,6.75,3.85v46.7a14.91,14.91,0,0,1-6.75,11.66l-46.49,26.9c-3.73,2.15-7.68.28-7.68-4V1639c0-4.29,3.95-9.36,7.68-11.51Z" transform="translate(2767.09 -1550.16)"/><path class="cls-86" d="M-2575,1600.73c3.76-2.17,6.81-.43,6.81,3.89v46.91a15,15,0,0,1-6.81,11.75l-46.66,27c-3.76,2.18-7.6.31-7.6-4v-46.91c0-4.32,3.84-9.45,7.6-11.63Z" transform="translate(2767.09 -1550.16)"/><path class="cls-87" d="M-2574.15,1600.84c3.79-2.19,6.86-.44,6.86,3.91v47.12a15.13,15.13,0,0,1-6.86,11.84l-46.84,27.1c-3.79,2.19-7.52.34-7.52-4v-47.12c0-4.35,3.73-9.55,7.52-11.74Z" transform="translate(2767.09 -1550.16)"/><path class="cls-88" d="M-2573.34,1600.94c3.82-2.2,6.92-.44,6.92,4v47.32a15.26,15.26,0,0,1-6.92,11.94l-47,27.2c-3.82,2.21-7.45.36-7.45-4V1640c0-4.39,3.63-9.65,7.45-11.86Z" transform="translate(2767.09 -1550.16)"/><path class="cls-89" d="M-2572.54,1601.05c3.85-2.23,7-.45,7,4v47.54a15.37,15.37,0,0,1-7,12l-47.19,27.3c-3.85,2.23-7.37.38-7.37-4v-47.53c0-4.42,3.52-9.75,7.37-12Z" transform="translate(2767.09 -1550.16)"/><path class="cls-90" d="M-2571.73,1601.15c3.88-2.24,7-.45,7,4v47.74a15.5,15.5,0,0,1-7,12.13l-47.37,27.4c-3.88,2.24-7.29.41-7.29-4v-47.74c0-4.46,3.41-9.84,7.29-12.08Z" transform="translate(2767.09 -1550.16)"/><path class="cls-91" d="M-2570.92,1601.26c3.91-2.26,7.08-.45,7.08,4v48a15.61,15.61,0,0,1-7.08,12.22l-47.55,27.5c-3.91,2.26-7.22.43-7.22-4.06v-48c0-4.49,3.31-9.94,7.22-12.2Z" transform="translate(2767.09 -1550.16)"/><path class="cls-92" d="M-2570.12,1601.36c3.94-2.28,7.14-.45,7.14,4.07v48.16a15.71,15.71,0,0,1-7.14,12.31l-47.72,27.61c-3.94,2.28-7.14.46-7.14-4.07v-48.16a15.73,15.73,0,0,1,7.14-12.31Z" transform="translate(2767.09 -1550.16)"/></g><path class="cls-93" d="M-2627.57,1634.79l71.88-26.8v53.31c.24,1.73-.68,3.42-2.8,4.64l-48.61,28.15c-4.21,2.43-11.57,2.13-16.43-.68h0c-2.57-1.48-3.93-3.37-4-5.18h0Z" transform="translate(2767.09 -1550.16)"/><ellipse class="cls-94" cx="155.21" cy="116.78" rx="6.61" ry="26.05"/><path class="cls-95" d="M-2607.1,1640.53l48.61-28.15c4.21-2.43,3.68-6.67-1.18-9.48h0c-4.87-2.81-12.22-3.11-16.43-.68l-48.61,28.15c-4.21,2.43-3.68,6.67,1.18,9.48h0C-2618.67,1642.66-2611.31,1643-2607.1,1640.53Z" transform="translate(2767.09 -1550.16)"/><path class="cls-96" d="M-2623.76,1639.39h0c4.86,2.81,12.22,3.11,16.43.68l48.61-28.15c2.14-1.24,3-3,2.79-4.7.89,2.11.1,4.28-2.49,5.78l-48.6,28.15c-4.21,2.43-11.57,2.12-16.43-.69h0c-2.39-1.37-3.73-3.1-4-4.78A8.27,8.27,0,0,0-2623.76,1639.39Z" transform="translate(2767.09 -1550.16)"/><path class="cls-97" d="M-2581.44,1609.28c0,2.5,3.48,4.53,7.77,4.53s7.78-2,7.78-4.53-3.48-4.53-7.78-4.53S-2581.44,1606.78-2581.44,1609.28Z" transform="translate(2767.09 -1550.16)"/><path class="cls-98" d="M-2618.22,1631.46c0,2.43,3.38,4.4,7.55,4.4s7.56-2,7.56-4.4-3.39-4.4-7.56-4.4S-2618.22,1629-2618.22,1631.46Z" transform="translate(2767.09 -1550.16)"/><path class="cls-99" d="M-2596.42,1556.2h0a20.36,20.36,0,0,1,30.53,17.64v35.39h0v0c0,2.15-3,3.89-6.68,3.89s-6.69-1.74-6.69-3.89c0,0,0,0,0-.08h-.07v-32.51a8.63,8.63,0,0,0-12.93-7.48h0a21.52,21.52,0,0,0-10.8,18.66v16.42h-.07c-.07,2.12-3,3.82-6.68,3.82s-6.64-1.73-6.68-3.86h0v-13.34A40.05,40.05,0,0,1-2596.42,1556.2Z" transform="translate(2767.09 -1550.16)"/><path class="cls-100" d="M-2570,1611.07h0v-34a19,19,0,0,0-19-19,18.74,18.74,0,0,0-9.45,2.56,38.28,38.28,0,0,0-5.38,3.75,38.33,38.33,0,0,1,8.14-6.28,18.74,18.74,0,0,1,9.45-2.56,19,19,0,0,1,19,19v34h0V1610c0,.81-1.12,1.68-2.76,2.14Z" transform="translate(2767.09 -1550.16)"/><path class="cls-101" d="M-2607.21,1606.58h0v-15a23,23,0,0,1,8.93-18.14,23,23,0,0,0-6.17,15.62v15h0l-.05,1.34c0,.81-1.11,1.68-2.74,2.14Z" transform="translate(2767.09 -1550.16)"/><path class="cls-102" d="M-2582.45,1562.85a11,11,0,0,1,10.94,10.94v36.37l.07,2.39c.05.21-3.74-.1-3.83-.45l-.07-2.4v-36.37a11,11,0,0,0-7.73-10.46Z" transform="translate(2767.09 -1550.16)"/><path class="cls-103" d="M-2594.12,1559.45a17.81,17.81,0,0,1,9-2.44,17.57,17.57,0,0,1,3.93.46h-.1a17.81,17.81,0,0,0-9,2.44,37.85,37.85,0,0,0-18.91,32.72v15.15c0,.18-3.82-.15-3.83-.46v-15.15A37.85,37.85,0,0,1-2594.12,1559.45Z" transform="translate(2767.09 -1550.16)"/><path class="cls-104" d="M-2575.88,1577.76V1612c-1.51-.47-2.49-1.29-2.53-2v0l-.07-1.49V1577.3a10,10,0,0,0-7-9.55A10,10,0,0,1-2575.88,1577.76Z" transform="translate(2767.09 -1550.16)"/><g class="cls-40"><path class="cls-105" d="M-2596.59,1558.15a19.71,19.71,0,0,1,4.33-1.84,42.45,42.45,0,0,0-20.6,36.32v14.45c-1.82-.44-3-1.37-3-2.23v-13.26A38.7,38.7,0,0,1-2596.59,1558.15Z" transform="translate(2767.09 -1550.16)"/></g><path class="cls-106" d="M-2589,1558.12a21.12,21.12,0,0,0-9.94,2.5,36.57,36.57,0,0,1,3.68-2.43,17.81,17.81,0,0,1,9-2.44c8.7,0,18.09,6.91,18.09,18.09v.05A21.85,21.85,0,0,0-2589,1558.12Z" transform="translate(2767.09 -1550.16)"/><path class="cls-107" d="M-2605.35,1588.42a23.48,23.48,0,0,1,6.28-19.38c5.83-6.14,12.84-7.74,16.53-1.84a10.84,10.84,0,0,0-5.42-1.45,10.94,10.94,0,0,0-5.44,1.47,23.86,23.86,0,0,0-11.95,20.65Z" transform="translate(2767.09 -1550.16)"/><path class="cls-108" d="M-2589.52,1650.87a12,12,0,0,1,5.45-9.41c3-1.74,5.45-.35,5.45,3.11a11.9,11.9,0,0,1-2.75,7v10.94l-5.4,3.12v-11C-2588.41,1654.58-2589.52,1653.2-2589.52,1650.87Z" transform="translate(2767.09 -1550.16)"/><path class="cls-109" d="M-2583.93,1661.39v-10.94a11.85,11.85,0,0,0,2.76-7,4.62,4.62,0,0,0-.73-2.69c1.93-.16,3.28,1.27,3.28,3.84a11.9,11.9,0,0,1-2.75,7v10.94l-5.4,3.12V1663Z" transform="translate(2767.09 -1550.16)"/><path class="cls-98" d="M-2583.93,1661.39v-10.94a11.85,11.85,0,0,0,2.76-7,4.62,4.62,0,0,0-.73-2.69c1.93-.16,3.28,1.27,3.28,3.84a11.9,11.9,0,0,1-2.75,7v10.94l-5.4,3.12V1663Z" transform="translate(2767.09 -1550.16)"/><path class="cls-110" d="M-2477.23,1734.11a24.82,24.82,0,0,1-12.33-3.71c-9.2-5.31-17.57-15.72-22.07-27.36l-9-5.17v-2.08l-10.66-6.15-4.52-6-5.18.78-5.18-6.76-5.18.78-5.17-6.75-5.68.91-10.42-19.41,12.78-8.89,39.21,22.63v-2.07l10.81,6.24a15,15,0,0,1,11.24-4.72,24.76,24.76,0,0,1,12.31,3.7c14.25,8.23,25.41,27.49,25.41,43.85,0,5.91-1.51,10.92-4.36,14.48a15.15,15.15,0,0,1-12.05,5.65Z" transform="translate(2767.09 -1550.16)"/><path class="cls-111" d="M-2572.18,1653.67l8.76-6.1,4-2.31,39,22.5v-2.06l9.4,5.42s1.19.6,1.21.58a14.64,14.64,0,0,1,11.05-4.7,24.39,24.39,0,0,1,12.12,3.64c13.82,8,24.71,26.54,25,42.46.1,5.7-1.28,10.53-3.82,14.11a14.63,14.63,0,0,1-11.37,6.32h0a22.71,22.71,0,0,1-12.35-3.16,37.86,37.86,0,0,1-4.83-3.18c-7.34-5.66-13.75-14.44-17.48-24,0-.06-1.73-1.09-1.75-1.16l-7.13-4.12-.06-.66v-1.38l-.43-.3-10.22-5.9-.44-.53-4.11-5.41-1.3.08-3.84.58-.62-.68-4.61-6-.29,0-4.89.74-5.08-6.63-1.5.14-4,.64-1.1-1.73Z" transform="translate(2767.09 -1550.16)"/><path class="cls-112" d="M-2571.79,1654.1l8.71-6.06,3.93-1.86,38.72,22.36v-2.06l9.25,5.35c0-.07,1.12.47,1.16.41a14.31,14.31,0,0,1,10.85-4.68,24.07,24.07,0,0,1,11.94,3.6c13.39,7.73,24.05,25.58,24.61,41.06a24.09,24.09,0,0,1-3.28,13.75,14.3,14.3,0,0,1-10.69,7h0c-3.77.52-8-.34-12.37-2.62a37,37,0,0,1-4.9-3.1c-7.41-5.57-13.89-14.37-17.65-24,0-.12-1.61-1.12-1.65-1.25l-7.16-4.13-.11-.63v-1.38l-.38-.33-10.26-5.92-.46-.51-4.12-5.42-1.25,0-3.85.58-.66-.6-4.62-6h-.28l-4.9.73-5-6.5-1.44,0-3.95.63-1.17-1.53Z" transform="translate(2767.09 -1550.16)"/><path class="cls-113" d="M-2571.39,1654.53l8.65-6,3.92-1.4,38.47,22.21v-2l9.11,5.26c.06-.1,1,.34,1.1.25a13.93,13.93,0,0,1,10.65-4.65,23.57,23.57,0,0,1,11.75,3.54c13,7.49,23.38,24.63,24.22,39.68a24.84,24.84,0,0,1-2.74,13.38c-2.28,4.17-5.71,6.92-10,7.66h0c-3.69.78-7.91.12-12.39-2.08a34.48,34.48,0,0,1-5-3c-7.5-5.47-14.05-14.3-17.83-23.92-.08-.19-1.49-1.15-1.56-1.34l-7.18-4.14-.16-.6v-1.38l-.34-.36-10.29-5.93-.48-.5-4.13-5.44-1.2-.15-3.87.58-.69-.51-4.64-6.06-.27,0-4.9.74-4.89-6.38-1.36-.1-3.88.62-1.23-1.33Z" transform="translate(2767.09 -1550.16)"/><path class="cls-114" d="M-2571,1655l8.59-6,3.92-1,38.22,22.07v-2l9,5.17c.08-.13,1,.21,1,.1a13.59,13.59,0,0,1,10.45-4.63,23.21,23.21,0,0,1,11.57,3.48c12.55,7.25,22.69,23.69,23.83,38.29a25.78,25.78,0,0,1-2.21,13c-2.05,4.38-5.2,7.35-9.33,8.33h0c-3.6,1-7.85.59-12.41-1.53a33.3,33.3,0,0,1-5-3c-7.57-5.37-14.19-14.22-18-23.85-.1-.25-1.37-1.18-1.46-1.43l-7.2-4.15-.22-.57V1696l-.3-.38-10.31-6-.51-.49-4.14-5.44-1.16-.28-3.87.58-.73-.42-4.65-6.07-.26-.07-4.9.74-4.8-6.26-1.29-.22-3.81.61-1.3-1.13Z" transform="translate(2767.09 -1550.16)"/><path class="cls-115" d="M-2570.61,1655.38l8.54-5.94,3.91-.5,38,21.93v-2l8.82,5.09c.09-.16.89.09,1-.06a13.23,13.23,0,0,1,10.25-4.6,22.69,22.69,0,0,1,11.39,3.43c12.12,7,22,22.73,23.43,36.9a26.94,26.94,0,0,1-1.67,12.64c-1.81,4.58-4.7,7.77-8.65,9h0c-3.53,1.31-7.8,1-12.43-1a31.17,31.17,0,0,1-5.08-2.87c-7.66-5.27-14.35-14.16-18.18-23.79-.13-.31-1.26-1.2-1.37-1.52l-7.22-4.16-.27-.54V1696l-.25-.41-10.35-6-.53-.47-4.15-5.46-1.11-.39-3.88.58-.77-.34-4.66-6.09-.26-.09-4.9.74-4.71-6.15-1.22-.32-3.73.59-1.36-.92Z" transform="translate(2767.09 -1550.16)"/><path class="cls-116" d="M-2570.21,1655.81l8.48-5.91,3.89,0,37.73,21.78v-2l8.67,5c.12-.19.81,0,1-.21a12.81,12.81,0,0,1,10-4.58,22.46,22.46,0,0,1,11.21,3.37c11.69,6.75,21.3,21.78,23,35.51a28.2,28.2,0,0,1-1.13,12.28c-1.55,4.8-4.2,8.2-8,9.67h0c-3.45,1.56-7.74,1.49-12.45-.45a30.79,30.79,0,0,1-5.15-2.79c-7.73-5.18-14.5-14.09-18.35-23.73-.16-.37-1.14-1.23-1.28-1.6l-7.23-4.18-.33-.51V1696l-.21-.45-10.38-6-.54-.46-4.17-5.47-1.07-.51-3.88.58-.81-.26-4.68-6.1-.24-.12-4.91.74-4.62-6-1.14-.44-3.66.59-1.43-.73Z" transform="translate(2767.09 -1550.16)"/><path class="cls-117" d="M-2569.82,1656.24l8.42-5.87,3.89.41,37.48,21.64v-2l8.52,4.92c.14-.22.74-.17.9-.37a12.47,12.47,0,0,1,9.84-4.55,22,22,0,0,1,11,3.31c11.26,6.51,20.6,20.83,22.63,34.12a29.77,29.77,0,0,1-.59,11.91c-1.28,5-3.7,8.63-7.29,10.34h0c-3.37,1.83-7.69,2-12.47.1a28.59,28.59,0,0,1-5.21-2.71c-7.82-5.08-14.65-14-18.53-23.67-.18-.44-1-1.26-1.18-1.69l-7.26-4.2-.38-.47v-1.37l-.17-.48-10.41-6-.56-.44-4.17-5.48-1-.64-3.9.59-.84-.18-4.69-6.12-.23-.15-4.92.74-4.52-5.9-1.07-.56-3.59.58-1.49-.53Z" transform="translate(2767.09 -1550.16)"/><path class="cls-118" d="M-2569.43,1656.66l8.37-5.82,3.88.86,37.23,21.5v-2l8.38,4.83c.15-.25.66-.29.84-.52a12.16,12.16,0,0,1,9.64-4.54,21.67,21.67,0,0,1,10.85,3.27c10.83,6.25,19.89,19.87,22.23,32.73a31.39,31.39,0,0,1,0,11.54c-1,5.24-3.2,9-6.61,11h0c-3.3,2.09-7.64,2.4-12.49.64a27.6,27.6,0,0,1-5.28-2.63c-7.89-5-14.8-14-18.71-23.61-.2-.5-.9-1.29-1.08-1.78l-7.27-4.21-.44-.44v-1.37l-.13-.51-10.45-6-.58-.42-4.18-5.5-1-.75-3.91.59-.88-.1-4.7-6.13-.23-.18-4.92.74-4.43-5.78-1-.67-3.51.56-1.56-.33Z" transform="translate(2767.09 -1550.16)"/><path class="cls-119" d="M-2569,1657.09l8.31-5.79,3.86,1.32,37,21.35v-2l8.23,4.75c.18-.28.59-.42.79-.68a11.81,11.81,0,0,1,9.45-4.51,21.23,21.23,0,0,1,10.66,3.21c10.41,6,19.17,18.93,21.83,31.34a33.45,33.45,0,0,1,.49,11.18c-.68,5.46-2.7,9.47-5.93,11.67h0c-3.22,2.35-7.58,2.84-12.51,1.18a27.5,27.5,0,0,1-5.35-2.55c-8-4.89-14.94-13.88-18.88-23.55-.23-.56-.78-1.31-1-1.87l-7.3-4.22-.48-.41v-1.37l-.09-.54-10.47-6-.61-.4-4.19-5.51-.94-.87-3.91.59-.93,0-4.71-6.15-.21-.2-4.93.74-4.33-5.66-.93-.79-3.44.55-1.62-.12Z" transform="translate(2767.09 -1550.16)"/><path class="cls-120" d="M-2568.64,1657.52l8.26-5.75,3.85,1.77,36.75,21.21v-2l8.07,4.66c.2-.31.52-.55.74-.84a11.5,11.5,0,0,1,9.25-4.48,20.73,20.73,0,0,1,10.47,3.16c10,5.76,18.46,18,21.44,29.94a36.32,36.32,0,0,1,1,10.82c-.36,5.67-2.21,9.89-5.26,12.34h0c-3.14,2.62-7.53,3.3-12.54,1.73a26.14,26.14,0,0,1-5.4-2.47c-8.05-4.8-15.1-13.81-19.06-23.49-.25-.62-.66-1.34-.89-2l-7.32-4.23-.53-.37v-1.38l0-.57-10.5-6.06-.63-.39-4.2-5.53-.89-1-3.93.59-1,.07-4.72-6.16-.21-.23-4.93.74-4.24-5.54-.85-.91-3.37.54-1.69.08Z" transform="translate(2767.09 -1550.16)"/><path class="cls-121" d="M-2469.13,1714.78c0-14.33-10.13-31.79-22.62-39-8.7-5-16.24-3.73-20,2.36l-7.93-4.58v2l-40.35-23.29-8.19,5.71,7.52,14,5-.8,4.94,6.43,4.93-.74,4.93,6.44,4.94-.74,5.05,6.65,11.19,6.45v2l7.93,4.58c3.78,10.45,11.32,20.45,20,25.47C-2479.26,1734.88-2469.13,1729.11-2469.13,1714.78Z" transform="translate(2767.09 -1550.16)"/><path class="cls-122" d="M-2558.37,1652.72l-21-11.32.67,4.53-2.35,5-.42,11.36,16.63,9.7Z" transform="translate(2767.09 -1550.16)"/><path class="cls-123" d="M-2467.47,1715c0-15-10.63-33.39-23.75-41-6.36-3.68-12.14-4.13-16.4-1.92a17.33,17.33,0,0,0-5.37,4l-7.6-4.4v2.07L-2563,1649.3l-8.61,6,7.9,14.71,5.3-.85,5.18,6.76,5.18-.78,5.18,6.77,5.19-.78,5.3,7,11.75,6.78V1697l8.34,4.81c4,11,11.89,21.49,21,26.76,5.19,3,10,3.86,13.9,2.87l.28.61,3.82-2.54h0C-2469.65,1726.76-2467.47,1721.8-2467.47,1715Zm-13.93.51a16.42,16.42,0,0,1-7.45-12.85c0-4.72,3.34-6.62,7.45-4.25a16.41,16.41,0,0,1,7.45,12.85C-2473.95,1716-2477.28,1717.88-2481.4,1715.5Z" transform="translate(2767.09 -1550.16)"/><polygon class="cls-124" points="246.5 121.53 243.91 123.28 252.25 128.09 254.83 126.34 246.5 121.53"/><path class="cls-125" d="M-2470.06,1716.75c0-15-10.63-33.39-23.75-41-9.14-5.28-17.06-3.92-21,2.48l-8.33-4.81v2.07l-42.38-24.47-8.61,6,7.9,14.71,5.3-.84,5.18,6.76,5.18-.78,5.19,6.76,5.18-.78,5.31,7,11.75,6.79v2.07l8.33,4.81c4,11,11.89,21.48,21,26.76C-2480.69,1737.86-2470.06,1731.8-2470.06,1716.75Zm-13.92.51a16.41,16.41,0,0,1-7.45-12.85c0-4.72,3.33-6.62,7.45-4.25a16.43,16.43,0,0,1,7.44,12.85C-2476.54,1717.73-2479.87,1719.63-2484,1717.26Z" transform="translate(2767.09 -1550.16)"/><g class="cls-126"><path class="cls-127" d="M-2494.29,1676.41c13.11,7.57,23.75,25.91,23.75,41,0,5-1.2,9.06-3.27,11.9,2.37-2.87,3.75-7.11,3.75-12.52,0-15-10.63-33.39-23.75-41-8.72-5-16.33-4-20.46,1.65C-2510,1672.32-2502.69,1671.56-2494.29,1676.41Z" transform="translate(2767.09 -1550.16)"/><path class="cls-128" d="M-2491.92,1705a16.44,16.44,0,0,0,7.45,12.85c2.86,1.65,5.33,1.23,6.58-.75-1.34,1.43-3.57,1.58-6.09.13a16.41,16.41,0,0,1-7.45-12.85,6.51,6.51,0,0,1,.86-3.5A5.87,5.87,0,0,0-2491.92,1705Z" transform="translate(2767.09 -1550.16)"/><path class="cls-129" d="M-2515.33,1678.88c.14-.23.3-.43.45-.64l-8.29-4.79v.9Z" transform="translate(2767.09 -1550.16)"/><polygon class="cls-130" points="201.06 101.52 243.43 125.98 243.43 125.08 201.54 100.89 192.93 106.89 193.04 107.1 201.06 101.52"/></g><path class="cls-33" d="M-2566.72,1662.28v-4.77c0-2,1.2-2.9,2.69-2l58,33.7a6.45,6.45,0,0,1,2.7,5.15v4.77c0,2-1.21,2.89-2.7,2l-58-33.7A6.44,6.44,0,0,1-2566.72,1662.28Z" transform="translate(2767.09 -1550.16)"/><ellipse class="cls-48" cx="-2559.44" cy="1664.54" rx="2.58" ry="4.47" transform="translate(1577.11 -2614.36) rotate(-30.31)"/><path class="cls-48" d="M-2546.31,1672.12c0,2-1.42,2.82-3.17,1.81a7,7,0,0,1-3.17-5.47c0-2,1.42-2.82,3.17-1.81A7,7,0,0,1-2546.31,1672.12Z" transform="translate(2767.09 -1550.16)"/><path class="cls-48" d="M-2536.36,1677.87c0,2-1.42,2.82-3.17,1.81a7,7,0,0,1-3.17-5.47c0-2,1.42-2.82,3.17-1.81A7,7,0,0,1-2536.36,1677.87Z" transform="translate(2767.09 -1550.16)"/><path class="cls-48" d="M-2526.4,1683.61c0,2-1.42,2.82-3.17,1.81a7,7,0,0,1-3.17-5.47c0-2,1.42-2.82,3.17-1.8A7,7,0,0,1-2526.4,1683.61Z" transform="translate(2767.09 -1550.16)"/><path class="cls-48" d="M-2516.45,1689.36c0,2-1.42,2.82-3.17,1.81a7,7,0,0,1-3.17-5.47c0-2,1.42-2.82,3.17-1.81A7,7,0,0,1-2516.45,1689.36Z" transform="translate(2767.09 -1550.16)"/><path class="cls-48" d="M-2506.49,1695.11c0,2-1.42,2.82-3.17,1.81a7,7,0,0,1-3.17-5.47c0-2,1.42-2.82,3.17-1.81A7,7,0,0,1-2506.49,1695.11Z" transform="translate(2767.09 -1550.16)"/><ellipse class="cls-131" cx="-2484.58" cy="1681.48" rx="9.7" ry="14.08" transform="translate(658.8 -2845.07) rotate(-48.71)"/><path class="cls-132" d="M-2767.09,1668.64c0,4.23,1.46,7.22,3.83,8.66l2.54,1.59c2.47,1.38.89-1.75,4.63-3.91,7.54-4.35,13.65-14.89,13.65-23.53,0-4.28,4-4.31,1.53-5.74l-3-1.65c-2.46-1.33-5.82-1.09-9.52,1C-2761,1649.46-2767.09,1660-2767.09,1668.64Z" transform="translate(2767.09 -1550.16)"/><ellipse class="cls-133" cx="-2750.56" cy="1662.46" rx="19.23" ry="11.1" transform="translate(-30.52 -3101.29) rotate(-59.69)"/><path class="cls-134" d="M-2751.22,1646.48c3.62-2.09,6.9-2.37,9.34-1.15-2.28-.63-5.1-.16-8.16,1.61-7.53,4.35-13.64,14.88-13.64,23.53,0,4.5,1.66,7.6,4.31,8.92-3.33-.93-5.49-4.24-5.49-9.38C-2764.86,1661.36-2758.75,1650.83-2751.22,1646.48Z" transform="translate(2767.09 -1550.16)"/><path class="cls-33" d="M-2751.77,1656.71l-3.35,1.93V1656a12.6,12.6,0,0,0,2.2-1.53,6.39,6.39,0,0,0,1.32-1.65,11.09,11.09,0,0,0,.88-2.29l2.15-1.25v23.38l-3.2,1.85Z" transform="translate(2767.09 -1550.16)"/></g></g></svg>