<svg xmlns="http://www.w3.org/2000/svg" xmlns:xlink="http://www.w3.org/1999/xlink" viewBox="0 0 351.64 320">
  <defs>
    <style>
      .cls-1 {
        fill: url(#linear-gradient);
      }

      .cls-2 {
        isolation: isolate;
      }

      .cls-3 {
        fill: #001210;
      }

      .cls-4 {
        fill: url(#linear-gradient-2);
      }

      .cls-5 {
        fill: url(#linear-gradient-3);
      }

      .cls-6 {
        fill: url(#linear-gradient-4);
      }

      .cls-7 {
        fill: url(#linear-gradient-5);
      }

      .cls-8 {
        fill: #007e89;
      }

      .cls-9 {
        fill: url(#linear-gradient-6);
      }

      .cls-10 {
        fill: url(#linear-gradient-7);
      }

      .cls-11 {
        fill: url(#linear-gradient-8);
      }

      .cls-12 {
        fill: url(#linear-gradient-9);
      }

      .cls-13 {
        fill: url(#linear-gradient-10);
      }

      .cls-14 {
        fill: url(#linear-gradient-11);
      }

      .cls-15 {
        fill: url(#linear-gradient-12);
      }

      .cls-16 {
        fill: url(#linear-gradient-13);
      }

      .cls-17 {
        fill: url(#linear-gradient-14);
      }

      .cls-18 {
        fill: url(#linear-gradient-15);
      }

      .cls-19 {
        fill: url(#linear-gradient-16);
      }

      .cls-20 {
        fill: url(#linear-gradient-17);
      }

      .cls-21 {
        fill: url(#linear-gradient-18);
      }

      .cls-22 {
        fill: url(#linear-gradient-19);
      }

      .cls-23 {
        fill: url(#linear-gradient-20);
      }

      .cls-24 {
        fill: url(#linear-gradient-21);
      }

      .cls-25 {
        fill: url(#linear-gradient-22);
      }

      .cls-26 {
        fill: url(#linear-gradient-23);
      }

      .cls-27 {
        fill: url(#linear-gradient-24);
      }

      .cls-28 {
        fill: url(#linear-gradient-25);
      }

      .cls-29 {
        fill: url(#radial-gradient);
      }

      .cls-30 {
        fill: url(#radial-gradient-2);
      }

      .cls-31, .cls-49, .cls-88 {
        opacity: 0.2;
      }

      .cls-32 {
        opacity: 0;
      }

      .cls-33 {
        opacity: 0.09;
      }

      .cls-34 {
        opacity: 0.18;
      }

      .cls-35 {
        opacity: 0.27;
      }

      .cls-36 {
        opacity: 0.36;
      }

      .cls-37 {
        opacity: 0.45;
      }

      .cls-38 {
        opacity: 0.55;
      }

      .cls-39 {
        opacity: 0.64;
      }

      .cls-40 {
        opacity: 0.73;
      }

      .cls-41 {
        opacity: 0.82;
      }

      .cls-42 {
        opacity: 0.91;
      }

      .cls-43 {
        fill: url(#linear-gradient-26);
      }

      .cls-44 {
        fill: url(#linear-gradient-27);
      }

      .cls-45 {
        fill: url(#linear-gradient-28);
      }

      .cls-46 {
        fill: #fff;
      }

      .cls-47 {
        opacity: 0.8;
        fill: url(#linear-gradient-29);
      }

      .cls-48 {
        fill: url(#linear-gradient-30);
      }

      .cls-49 {
        fill: url(#linear-gradient-31);
      }

      .cls-50 {
        opacity: 0.27;
        fill: url(#linear-gradient-32);
      }

      .cls-51 {
        opacity: 0.35;
        fill: url(#linear-gradient-33);
      }

      .cls-52 {
        opacity: 0.42;
        fill: url(#linear-gradient-34);
      }

      .cls-53 {
        opacity: 0.49;
        fill: url(#linear-gradient-35);
      }

      .cls-54 {
        opacity: 0.56;
        fill: url(#linear-gradient-36);
      }

      .cls-55 {
        opacity: 0.64;
        fill: url(#linear-gradient-37);
      }

      .cls-56 {
        opacity: 0.71;
        fill: url(#linear-gradient-38);
      }

      .cls-57 {
        opacity: 0.78;
        fill: url(#linear-gradient-39);
      }

      .cls-58 {
        opacity: 0.85;
        fill: url(#linear-gradient-40);
      }

      .cls-59 {
        opacity: 0.93;
        fill: url(#linear-gradient-41);
      }

      .cls-60 {
        fill: url(#linear-gradient-42);
      }

      .cls-101, .cls-107, .cls-113, .cls-114, .cls-115, .cls-61, .cls-62, .cls-69, .cls-91, .cls-99 {
        mix-blend-mode: color-dodge;
      }

      .cls-61 {
        fill: url(#New_Gradient_Swatch_copy_16);
      }

      .cls-62 {
        fill: url(#New_Gradient_Swatch_copy_16-2);
      }

      .cls-63 {
        fill: url(#linear-gradient-43);
      }

      .cls-112, .cls-64, .cls-77, .cls-96 {
        mix-blend-mode: screen;
      }

      .cls-64 {
        opacity: 0.3;
        fill: url(#linear-gradient-44);
      }

      .cls-65 {
        mask: url(#mask);
      }

      .cls-66 {
        fill: url(#linear-gradient-45);
      }

      .cls-108, .cls-67, .cls-95 {
        mix-blend-mode: multiply;
      }

      .cls-67 {
        fill: url(#radial-gradient-3);
      }

      .cls-68 {
        fill: url(#New_Gradient_Swatch_copy_19);
      }

      .cls-69 {
        fill: url(#Radial_Gradient_1);
      }

      .cls-70 {
        fill: url(#radial-gradient-4);
      }

      .cls-71 {
        fill: url(#linear-gradient-46);
      }

      .cls-72 {
        fill: url(#New_Gradient_Swatch_copy_19-2);
      }

      .cls-73 {
        fill: url(#linear-gradient-47);
      }

      .cls-74 {
        fill: url(#linear-gradient-48);
      }

      .cls-75 {
        fill: url(#linear-gradient-49);
      }

      .cls-76 {
        fill: url(#linear-gradient-50);
      }

      .cls-77 {
        fill: url(#Radial_Gradient_1-2);
      }

      .cls-78 {
        fill: url(#linear-gradient-51);
      }

      .cls-79 {
        fill: url(#linear-gradient-52);
      }

      .cls-80 {
        fill: url(#New_Gradient_Swatch_copy_19-3);
      }

      .cls-81 {
        fill: url(#New_Gradient_Swatch_copy_19-4);
      }

      .cls-82 {
        fill: url(#New_Gradient_Swatch_copy_19-5);
      }

      .cls-83 {
        opacity: 0.03;
      }

      .cls-84 {
        opacity: 0.07;
      }

      .cls-85 {
        opacity: 0.1;
      }

      .cls-86 {
        opacity: 0.13;
      }

      .cls-87 {
        opacity: 0.17;
      }

      .cls-89 {
        fill: url(#linear-gradient-53);
      }

      .cls-90 {
        fill: url(#linear-gradient-54);
      }

      .cls-91 {
        fill: url(#Radial_Gradient_1-3);
      }

      .cls-92 {
        fill: url(#New_Gradient_Swatch_copy_19-6);
      }

      .cls-93 {
        fill: url(#New_Gradient_Swatch_copy_19-7);
      }

      .cls-94 {
        fill: url(#New_Gradient_Swatch_copy_19-8);
      }

      .cls-95 {
        fill: url(#radial-gradient-5);
      }

      .cls-96 {
        fill: url(#linear-gradient-55);
      }

      .cls-97 {
        fill: url(#linear-gradient-56);
      }

      .cls-98 {
        fill: url(#New_Gradient_Swatch_copy_19-9);
      }

      .cls-99 {
        fill: url(#Radial_Gradient_1-4);
      }

      .cls-100 {
        fill: url(#linear-gradient-57);
      }

      .cls-101 {
        opacity: 0.7;
      }

      .cls-102 {
        fill: url(#radial-gradient-6);
      }

      .cls-103 {
        fill: url(#linear-gradient-58);
      }

      .cls-104 {
        fill: url(#New_Gradient_Swatch_copy_19-10);
      }

      .cls-105 {
        fill: url(#linear-gradient-59);
      }

      .cls-106 {
        fill: url(#linear-gradient-60);
      }

      .cls-107 {
        fill: url(#Radial_Gradient_1-5);
      }

      .cls-108 {
        fill: url(#radial-gradient-7);
      }

      .cls-109 {
        fill: url(#linear-gradient-61);
      }

      .cls-110 {
        fill: url(#linear-gradient-62);
      }

      .cls-111 {
        fill: url(#linear-gradient-63);
      }

      .cls-112 {
        fill: url(#Radial_Gradient_1-6);
      }

      .cls-113 {
        fill: url(#radial-gradient-8);
      }

      .cls-114 {
        fill: url(#radial-gradient-9);
      }

      .cls-116 {
        fill: url(#New_Gradient_Swatch_copy_16-3);
      }

      .cls-117 {
        fill: url(#radial-gradient-10);
      }
    </style>
    <linearGradient id="linear-gradient" x1="-3556.53" y1="244.73" x2="-3525.87" y2="366.39" gradientUnits="userSpaceOnUse">
      <stop offset="0.52" stop-color="#fff"/>
      <stop offset="0.58" stop-color="#d5d5d5"/>
      <stop offset="0.72" stop-color="#6b6b6b"/>
      <stop offset="0.86"/>
    </linearGradient>
    <linearGradient id="linear-gradient-2" x1="-3584.65" y1="421.65" x2="-3552.47" y2="361.11" gradientUnits="userSpaceOnUse">
      <stop offset="0" stop-color="#007e89"/>
      <stop offset="0.54" stop-color="#10bcc7"/>
      <stop offset="0.68" stop-color="#34c3cb"/>
      <stop offset="1" stop-color="#8ed3d4"/>
    </linearGradient>
    <linearGradient id="linear-gradient-3" x1="-3506.31" y1="408.2" x2="-3526.42" y2="360.93" xlink:href="#linear-gradient-2"/>
    <linearGradient id="linear-gradient-4" x1="-3465.69" y1="405.79" x2="-3519.37" y2="361.93" xlink:href="#linear-gradient-2"/>
    <linearGradient id="linear-gradient-5" x1="-3429.51" y1="414.54" x2="-3507.44" y2="358.27" xlink:href="#linear-gradient-2"/>
    <linearGradient id="linear-gradient-6" x1="-3688.6" y1="349.78" x2="-3578.22" y2="349.78" xlink:href="#linear-gradient-2"/>
    <linearGradient id="linear-gradient-7" x1="-3580.46" y1="389.36" x2="-3554.08" y2="363.37" xlink:href="#linear-gradient-2"/>
    <linearGradient id="linear-gradient-8" x1="-3452.71" y1="307.13" x2="-3477.64" y2="334.51" xlink:href="#linear-gradient-2"/>
    <linearGradient id="linear-gradient-9" x1="-3425.99" y1="371.39" x2="-3499.9" y2="352.14" xlink:href="#linear-gradient-2"/>
    <linearGradient id="linear-gradient-10" x1="-3533.69" y1="427.31" x2="-3548.88" y2="351.4" xlink:href="#linear-gradient-2"/>
    <linearGradient id="linear-gradient-11" x1="-3608.66" y1="373.99" x2="-3563.97" y2="373.99" xlink:href="#linear-gradient-2"/>
    <linearGradient id="linear-gradient-12" x1="-3479.86" y1="383.94" x2="-3515.74" y2="357.92" xlink:href="#linear-gradient-2"/>
    <linearGradient id="linear-gradient-13" x1="-3643.2" y1="345.18" x2="-3585.34" y2="345.18" xlink:href="#linear-gradient-2"/>
    <linearGradient id="linear-gradient-14" x1="-3482.33" y1="240.02" x2="-3501.32" y2="283.33" xlink:href="#linear-gradient-2"/>
    <linearGradient id="linear-gradient-15" x1="-3662.2" y1="375.03" x2="-3571.09" y2="375.03" xlink:href="#linear-gradient-2"/>
    <linearGradient id="linear-gradient-16" x1="-3441.63" y1="339.2" x2="-3480.25" y2="343.29" xlink:href="#linear-gradient-2"/>
    <linearGradient id="linear-gradient-17" x1="-3444.08" y1="266.71" x2="-3491.37" y2="301.24" xlink:href="#linear-gradient-2"/>
    <linearGradient id="linear-gradient-18" x1="-3541.74" y1="234.26" x2="-3524.95" y2="285.97" xlink:href="#linear-gradient-2"/>
    <linearGradient id="linear-gradient-19" x1="-3675.46" y1="321.02" x2="-3592.46" y2="321.02" xlink:href="#linear-gradient-2"/>
    <linearGradient id="linear-gradient-20" x1="-3646.88" y1="319.11" x2="-3599.58" y2="319.11" xlink:href="#linear-gradient-2"/>
    <linearGradient id="linear-gradient-21" x1="-3599.08" y1="260.84" x2="-3540.51" y2="260.84" xlink:href="#linear-gradient-2"/>
    <linearGradient id="linear-gradient-22" x1="-3653.1" y1="296.43" x2="-3586.06" y2="296.43" xlink:href="#linear-gradient-2"/>
    <linearGradient id="linear-gradient-23" x1="-3419.94" y1="371.45" x2="-3487.25" y2="337.94" xlink:href="#linear-gradient-2"/>
    <linearGradient id="linear-gradient-24" x1="-3623.58" y1="284.94" x2="-3560.2" y2="284.94" xlink:href="#linear-gradient-2"/>
    <linearGradient id="linear-gradient-25" x1="-3417.86" y1="269.33" x2="-3484.46" y2="308.99" xlink:href="#linear-gradient-2"/>
    <radialGradient id="radial-gradient" cx="-3560.42" cy="324.67" r="198.38" gradientTransform="translate(3195.21 -69.09) scale(0.85 0.74)" gradientUnits="userSpaceOnUse">
      <stop offset="0" stop-color="#00a89a" stop-opacity="0.8"/>
      <stop offset="0.15" stop-color="#00a89a" stop-opacity="0.57"/>
      <stop offset="0.31" stop-color="#00a89a" stop-opacity="0.37"/>
      <stop offset="0.48" stop-color="#00a89a" stop-opacity="0.21"/>
      <stop offset="0.65" stop-color="#00a89a" stop-opacity="0.09"/>
      <stop offset="0.82" stop-color="#00a89a" stop-opacity="0.02"/>
      <stop offset="1" stop-color="#00a89a" stop-opacity="0"/>
    </radialGradient>
    <radialGradient id="radial-gradient-2" cx="-3537.38" cy="285.28" r="128.11" gradientTransform="translate(3624.9 -98.59) scale(0.97 0.87)" gradientUnits="userSpaceOnUse">
      <stop offset="0" stop-color="#00a89a" stop-opacity="0.61"/>
      <stop offset="0.07" stop-color="#00a89a" stop-opacity="0.54"/>
      <stop offset="0.35" stop-color="#00a89a" stop-opacity="0.31"/>
      <stop offset="0.61" stop-color="#00a89a" stop-opacity="0.14"/>
      <stop offset="0.83" stop-color="#00a89a" stop-opacity="0.04"/>
      <stop offset="1" stop-color="#00a89a" stop-opacity="0"/>
    </radialGradient>
    <linearGradient id="linear-gradient-26" x1="-3640.23" y1="339.06" x2="-3452.66" y2="339.06" gradientUnits="userSpaceOnUse">
      <stop offset="0.06" stop-color="#5b9392"/>
      <stop offset="0.26" stop-color="#5d9492"/>
      <stop offset="0.36" stop-color="#659994"/>
      <stop offset="0.44" stop-color="#72a196"/>
      <stop offset="0.49" stop-color="#81ab98"/>
      <stop offset="0.51" stop-color="#85ae9c"/>
      <stop offset="0.52" stop-color="#93b7a6"/>
      <stop offset="0.53" stop-color="#a8c5b8"/>
      <stop offset="0.54" stop-color="#c7dad1"/>
      <stop offset="0.55" stop-color="#eef4f1"/>
      <stop offset="0.56" stop-color="#fff"/>
      <stop offset="0.56" stop-color="#e0ebe6"/>
      <stop offset="0.57" stop-color="#bfd5cb"/>
      <stop offset="0.58" stop-color="#a7c6b7"/>
      <stop offset="0.59" stop-color="#98bcab"/>
      <stop offset="0.6" stop-color="#93b9a7"/>
      <stop offset="0.63" stop-color="#84b2a0"/>
      <stop offset="0.7" stop-color="#6ca695"/>
      <stop offset="0.76" stop-color="#5d9f8e"/>
      <stop offset="0.81" stop-color="#589d8c"/>
      <stop offset="1" stop-color="#6ca38a"/>
    </linearGradient>
    <linearGradient id="linear-gradient-27" x1="-3644.22" y1="334" x2="-3463.77" y2="334" gradientUnits="userSpaceOnUse">
      <stop offset="0" stop-color="#083432"/>
      <stop offset="1" stop-color="#218c6d"/>
    </linearGradient>
    <linearGradient id="linear-gradient-28" x1="-3642.2" y1="334" x2="-3465.79" y2="334" gradientUnits="userSpaceOnUse">
      <stop offset="0" stop-color="#064646"/>
      <stop offset="1" stop-color="#0f977e"/>
    </linearGradient>
    <linearGradient id="linear-gradient-29" x1="-4116.15" y1="2199.78" x2="-5630.14" y2="3008.05" gradientTransform="matrix(0.87, 0.5, 0, 1.15, 40.89, -214.97)" gradientUnits="userSpaceOnUse">
      <stop offset="0.06" stop-color="#5b9392"/>
      <stop offset="0.27" stop-color="#5d9593"/>
      <stop offset="0.37" stop-color="#659a96"/>
      <stop offset="0.45" stop-color="#72a39b"/>
      <stop offset="0.52" stop-color="#84afa2"/>
      <stop offset="0.56" stop-color="#93b9a7"/>
      <stop offset="0.62" stop-color="#84b2a0"/>
      <stop offset="0.73" stop-color="#6ca695"/>
      <stop offset="0.83" stop-color="#5d9f8e"/>
      <stop offset="0.92" stop-color="#589d8c"/>
    </linearGradient>
    <linearGradient id="linear-gradient-30" x1="-4117.76" y1="2200.48" x2="-5631.75" y2="3008.75" gradientTransform="matrix(0.87, 0.5, 0, 1.15, 40.89, -214.97)" xlink:href="#linear-gradient-28"/>
    <linearGradient id="linear-gradient-31" x1="-3437.73" y1="244.75" x2="-3581.01" y2="286.89" gradientUnits="userSpaceOnUse">
      <stop offset="0" stop-color="#1a8068"/>
      <stop offset="0.52" stop-color="#0f977e"/>
      <stop offset="1" stop-color="#22808f"/>
    </linearGradient>
    <linearGradient id="linear-gradient-32" x1="-3437.91" y1="244.86" x2="-3580.7" y2="286.85" gradientUnits="userSpaceOnUse">
      <stop offset="0" stop-color="#197865"/>
      <stop offset="0.52" stop-color="#0f957d"/>
      <stop offset="0.69" stop-color="#159083"/>
      <stop offset="1" stop-color="#22808f"/>
    </linearGradient>
    <linearGradient id="linear-gradient-33" x1="-3438.09" y1="244.97" x2="-3580.4" y2="286.82" gradientUnits="userSpaceOnUse">
      <stop offset="0" stop-color="#177161"/>
      <stop offset="0.52" stop-color="#0f927b"/>
      <stop offset="0.69" stop-color="#159083"/>
      <stop offset="1" stop-color="#22808f"/>
    </linearGradient>
    <linearGradient id="linear-gradient-34" x1="-3438.28" y1="245.08" x2="-3580.09" y2="286.79" gradientUnits="userSpaceOnUse">
      <stop offset="0" stop-color="#16695e"/>
      <stop offset="0.52" stop-color="#0f907a"/>
      <stop offset="0.69" stop-color="#149182"/>
      <stop offset="1" stop-color="#22808f"/>
    </linearGradient>
    <linearGradient id="linear-gradient-35" x1="-3438.46" y1="245.19" x2="-3579.79" y2="286.75" gradientUnits="userSpaceOnUse">
      <stop offset="0" stop-color="#14625a"/>
      <stop offset="0.52" stop-color="#0f8e79"/>
      <stop offset="0.69" stop-color="#139282"/>
      <stop offset="1" stop-color="#22808f"/>
    </linearGradient>
    <linearGradient id="linear-gradient-36" x1="-3438.64" y1="245.3" x2="-3579.48" y2="286.72" gradientUnits="userSpaceOnUse">
      <stop offset="0" stop-color="#135a57"/>
      <stop offset="0.52" stop-color="#0f8b77"/>
      <stop offset="0.69" stop-color="#139381"/>
      <stop offset="1" stop-color="#22808f"/>
    </linearGradient>
    <linearGradient id="linear-gradient-37" x1="-3438.83" y1="245.41" x2="-3579.18" y2="286.68" gradientUnits="userSpaceOnUse">
      <stop offset="0" stop-color="#115353"/>
      <stop offset="0.52" stop-color="#0e8976"/>
      <stop offset="0.69" stop-color="#129381"/>
      <stop offset="1" stop-color="#22808f"/>
    </linearGradient>
    <linearGradient id="linear-gradient-38" x1="-3439.01" y1="245.51" x2="-3578.87" y2="286.65" gradientUnits="userSpaceOnUse">
      <stop offset="0" stop-color="#104b50"/>
      <stop offset="0.52" stop-color="#0e8674"/>
      <stop offset="0.69" stop-color="#129480"/>
      <stop offset="1" stop-color="#22808f"/>
    </linearGradient>
    <linearGradient id="linear-gradient-39" x1="-3439.2" y1="245.62" x2="-3578.57" y2="286.62" gradientUnits="userSpaceOnUse">
      <stop offset="0" stop-color="#0e444c"/>
      <stop offset="0.52" stop-color="#0e8473"/>
      <stop offset="0.69" stop-color="#119580"/>
      <stop offset="1" stop-color="#22808f"/>
    </linearGradient>
    <linearGradient id="linear-gradient-40" x1="-3439.38" y1="245.73" x2="-3578.27" y2="286.58" gradientUnits="userSpaceOnUse">
      <stop offset="0" stop-color="#0d3c49"/>
      <stop offset="0.52" stop-color="#0e8272"/>
      <stop offset="0.69" stop-color="#10967f"/>
      <stop offset="1" stop-color="#22808f"/>
    </linearGradient>
    <linearGradient id="linear-gradient-41" x1="-3439.56" y1="245.84" x2="-3577.96" y2="286.55" gradientUnits="userSpaceOnUse">
      <stop offset="0" stop-color="#0b3545"/>
      <stop offset="0.52" stop-color="#0e7f70"/>
      <stop offset="0.69" stop-color="#10967f"/>
      <stop offset="1" stop-color="#22808f"/>
    </linearGradient>
    <linearGradient id="linear-gradient-42" x1="-3439.75" y1="245.95" x2="-3577.66" y2="286.52" gradientUnits="userSpaceOnUse">
      <stop offset="0" stop-color="#0a2d42"/>
      <stop offset="0.69" stop-color="#0f977e"/>
      <stop offset="1" stop-color="#22808f"/>
    </linearGradient>
    <radialGradient id="New_Gradient_Swatch_copy_16" data-name="New Gradient Swatch copy 16" cx="-2003.71" cy="-3512.67" r="33.88" gradientTransform="matrix(0.97, 0.02, -0.03, 0.66, -1644.62, 2733.57)" gradientUnits="userSpaceOnUse">
      <stop offset="0" stop-color="#225e77"/>
      <stop offset="0.1" stop-color="#1b4c60"/>
      <stop offset="0.27" stop-color="#12313d"/>
      <stop offset="0.45" stop-color="#0a1b22"/>
      <stop offset="0.63" stop-color="#040c0f"/>
      <stop offset="0.81" stop-color="#010304"/>
      <stop offset="1"/>
    </radialGradient>
    <radialGradient id="New_Gradient_Swatch_copy_16-2" cx="-2349.74" cy="-4126.72" r="25.98" gradientTransform="matrix(0.97, 0.01, -0.02, 0.59, -1366.34, 2756.56)" xlink:href="#New_Gradient_Swatch_copy_16"/>
    <linearGradient id="linear-gradient-43" x1="-1719.65" y1="2511.83" x2="-1804.44" y2="2447.73" gradientTransform="matrix(0.87, 0.5, -1.5, 0.29, 1701.99, 490.47)" gradientUnits="userSpaceOnUse">
      <stop offset="0" stop-color="#064646"/>
      <stop offset="1" stop-color="#113730"/>
      <stop offset="1" stop-color="#133632"/>
    </linearGradient>
    <linearGradient id="linear-gradient-44" x1="-3567.79" y1="292.04" x2="-3521.29" y2="365.01" gradientUnits="userSpaceOnUse">
      <stop offset="0.06" stop-color="#5b9392"/>
      <stop offset="0.25" stop-color="#5d9593"/>
      <stop offset="0.35" stop-color="#659b97"/>
      <stop offset="0.43" stop-color="#72a69f"/>
      <stop offset="0.49" stop-color="#85b5a9"/>
      <stop offset="0.55" stop-color="#9dc9b6"/>
      <stop offset="0.56" stop-color="#a2cdb9"/>
      <stop offset="0.65" stop-color="#84b9a7"/>
      <stop offset="0.75" stop-color="#6caa98"/>
      <stop offset="0.84" stop-color="#5da08f"/>
      <stop offset="0.92" stop-color="#589d8c"/>
    </linearGradient>
    <mask id="mask" x="119.63" y="163.12" width="166.82" height="140.36" maskUnits="userSpaceOnUse">
      <g transform="translate(3723.61 -153.19)">
        <rect class="cls-1" x="-3603.98" y="318.15" width="166.82" height="138.53"/>
      </g>
    </mask>
    <linearGradient id="linear-gradient-45" x1="-4464.2" y1="1581.03" x2="-4437.57" y2="1627.16" gradientTransform="translate(1185.16 -438.03) rotate(10.15)" gradientUnits="userSpaceOnUse">
      <stop offset="0" stop-color="#10879c"/>
      <stop offset="0.07" stop-color="#178ca0"/>
      <stop offset="0.14" stop-color="#2695a8"/>
      <stop offset="0.23" stop-color="#51aed2"/>
      <stop offset="0.3" stop-color="#369ebc"/>
      <stop offset="0.38" stop-color="#10879c"/>
      <stop offset="0.54" stop-color="#1b8880"/>
      <stop offset="0.63" stop-color="#1d8883"/>
      <stop offset="0.7" stop-color="#218a8e"/>
      <stop offset="0.77" stop-color="#298ca0"/>
      <stop offset="0.82" stop-color="#318eb2"/>
      <stop offset="0.96" stop-color="#1889a1"/>
      <stop offset="1" stop-color="#10879c"/>
    </linearGradient>
    <radialGradient id="radial-gradient-3" cx="-4465.18" cy="1612.24" r="42.08" gradientTransform="matrix(0.96, 0.18, -0.17, 0.98, 1051.92, -438.03)" gradientUnits="userSpaceOnUse">
      <stop offset="0.58" stop-color="#fff"/>
      <stop offset="0.64" stop-color="#fafcfb"/>
      <stop offset="0.7" stop-color="#ebf2f1"/>
      <stop offset="0.78" stop-color="#d3e2e0"/>
      <stop offset="0.85" stop-color="#b1ccc7"/>
      <stop offset="0.93" stop-color="#86b0a8"/>
      <stop offset="1" stop-color="#5a9389"/>
    </radialGradient>
    <linearGradient id="New_Gradient_Swatch_copy_19" data-name="New Gradient Swatch copy 19" x1="-4481.45" y1="1611.32" x2="-4444.79" y2="1611.32" gradientTransform="translate(1189.26 1136.86) rotate(29.25)" gradientUnits="userSpaceOnUse">
      <stop offset="0.04" stop-color="#168979"/>
      <stop offset="0.26" stop-color="#208f88"/>
      <stop offset="0.69" stop-color="#3ba0b1"/>
      <stop offset="1" stop-color="#51aed2"/>
    </linearGradient>
    <radialGradient id="Radial_Gradient_1" data-name="Radial Gradient 1" cx="-4462.3" cy="1611.23" r="20.32" gradientTransform="matrix(0.96, 0.18, -0.17, 0.98, 1051.92, -438.03)" gradientUnits="userSpaceOnUse">
      <stop offset="0" stop-color="#fff"/>
      <stop offset="1"/>
    </radialGradient>
    <radialGradient id="radial-gradient-4" cx="-4499.1" cy="1628.98" r="44.21" gradientTransform="matrix(0.96, 0.18, -0.17, 0.98, 1051.92, -438.03)" gradientUnits="userSpaceOnUse">
      <stop offset="0" stop-color="#00a89a"/>
      <stop offset="0.09" stop-color="#00a89a" stop-opacity="0.82"/>
      <stop offset="0.23" stop-color="#00a89a" stop-opacity="0.57"/>
      <stop offset="0.38" stop-color="#00a89a" stop-opacity="0.37"/>
      <stop offset="0.53" stop-color="#00a89a" stop-opacity="0.21"/>
      <stop offset="0.68" stop-color="#00a89a" stop-opacity="0.09"/>
      <stop offset="0.84" stop-color="#00a89a" stop-opacity="0.02"/>
      <stop offset="1" stop-color="#00a89a" stop-opacity="0"/>
    </radialGradient>
    <linearGradient id="linear-gradient-46" x1="-3580.56" y1="345.46" x2="-3540.55" y2="414.75" gradientTransform="matrix(1, 0, 0, 1, 0, 0)" xlink:href="#linear-gradient-45"/>
    <linearGradient id="New_Gradient_Swatch_copy_19-2" x1="-3595.84" y1="377.67" x2="-3538.28" y2="377.67" gradientTransform="matrix(1, 0, 0, 1, 0, 0)" xlink:href="#New_Gradient_Swatch_copy_19"/>
    <linearGradient id="linear-gradient-47" x1="-3552.94" y1="415.11" x2="-3588.64" y2="353.27" gradientUnits="userSpaceOnUse">
      <stop offset="0.01" stop-color="#81ab98"/>
      <stop offset="0.04" stop-color="#8bb2a0"/>
      <stop offset="0.09" stop-color="#a6c4b7"/>
      <stop offset="0.16" stop-color="#d2e1da"/>
      <stop offset="0.22" stop-color="#fff"/>
      <stop offset="0.24" stop-color="#f5f9f7"/>
      <stop offset="0.28" stop-color="#dbe8e2"/>
      <stop offset="0.33" stop-color="#b1cdc0"/>
      <stop offset="0.36" stop-color="#93b9a7"/>
      <stop offset="0.4" stop-color="#84b2a0"/>
      <stop offset="0.48" stop-color="#6ca695"/>
      <stop offset="0.55" stop-color="#5d9f8e"/>
      <stop offset="0.61" stop-color="#589d8c"/>
      <stop offset="0.85" stop-color="#63a08b"/>
      <stop offset="1" stop-color="#6ca38a"/>
    </linearGradient>
    <linearGradient id="linear-gradient-48" x1="-3567.59" y1="402.37" x2="-3593.54" y2="357.43" gradientTransform="matrix(1, 0, 0, 1, 0, 0)" xlink:href="#linear-gradient-45"/>
    <linearGradient id="linear-gradient-49" x1="-4511.86" y1="1657.1" x2="-4524.26" y2="1640.49" gradientTransform="translate(1185.16 -438.03) rotate(10.15)" gradientUnits="userSpaceOnUse">
      <stop offset="0.04" stop-color="#1e1f21"/>
      <stop offset="0.25" stop-color="#101112"/>
      <stop offset="0.27" stop-color="#0f1010"/>
      <stop offset="0.36" stop-color="#151615"/>
      <stop offset="0.49" stop-color="#262624"/>
      <stop offset="0.64" stop-color="#41413b"/>
      <stop offset="0.69" stop-color="#4c4c45"/>
      <stop offset="1" stop-color="#262724"/>
    </linearGradient>
    <linearGradient id="linear-gradient-50" x1="-4531.4" y1="1652.68" x2="-4521.26" y2="1652.68" gradientTransform="translate(1185.16 -438.03) rotate(10.15)" gradientUnits="userSpaceOnUse">
      <stop offset="0.04" stop-color="#1e1f21"/>
      <stop offset="0.42" stop-color="#2d2e2d"/>
      <stop offset="1" stop-color="#4c4c45"/>
    </linearGradient>
    <radialGradient id="Radial_Gradient_1-2" cx="-4530.36" cy="1653.42" r="5.62" xlink:href="#Radial_Gradient_1"/>
    <linearGradient id="linear-gradient-51" x1="-3508.23" y1="371.1" x2="-3526.33" y2="332.21" gradientUnits="userSpaceOnUse">
      <stop offset="0.05" stop-color="#589794"/>
      <stop offset="0.61" stop-color="#589d8c"/>
      <stop offset="0.75" stop-color="#5c9e8c"/>
      <stop offset="0.88" stop-color="#68a28a"/>
      <stop offset="0.92" stop-color="#6ca38a"/>
      <stop offset="0.96" stop-color="#6aa28d"/>
      <stop offset="0.99" stop-color="#649e95"/>
      <stop offset="1" stop-color="#5e9a9d"/>
    </linearGradient>
    <linearGradient id="linear-gradient-52" x1="9765.86" y1="12637.48" x2="9748.9" y2="12609.79" gradientTransform="translate(6228.49 12965.73) rotate(180)" gradientUnits="userSpaceOnUse">
      <stop offset="0.06" stop-color="#93b9a7"/>
      <stop offset="0.37" stop-color="#80ae99"/>
      <stop offset="0.71" stop-color="#71a68e"/>
      <stop offset="1" stop-color="#6ca38a"/>
    </linearGradient>
    <linearGradient id="New_Gradient_Swatch_copy_19-3" x1="-3576.29" y1="650.33" x2="-3565.97" y2="647.23" gradientTransform="translate(3772.58 -453.09)" xlink:href="#New_Gradient_Swatch_copy_19"/>
    <linearGradient id="New_Gradient_Swatch_copy_19-4" x1="-3590.03" y1="651.49" x2="-3565.47" y2="645.98" gradientTransform="translate(3772.58 -453.09)" xlink:href="#New_Gradient_Swatch_copy_19"/>
    <linearGradient id="New_Gradient_Swatch_copy_19-5" x1="-3575.09" y1="640.27" x2="-3576.95" y2="643.81" gradientTransform="translate(3772.58 -453.09)" xlink:href="#New_Gradient_Swatch_copy_19"/>
    <linearGradient id="linear-gradient-53" x1="-3531.65" y1="280.96" x2="-3508.42" y2="321.21" xlink:href="#linear-gradient-51"/>
    <linearGradient id="linear-gradient-54" x1="-3517.11" y1="323.15" x2="-3536.54" y2="291.44" gradientTransform="matrix(1, 0, 0, 1, 0, 0)" xlink:href="#linear-gradient-52"/>
    <radialGradient id="Radial_Gradient_1-3" cx="-3510.76" cy="313.85" r="17.99" gradientTransform="translate(-98.71) scale(0.97 1)" xlink:href="#Radial_Gradient_1"/>
    <linearGradient id="New_Gradient_Swatch_copy_19-6" x1="196.77" y1="150.75" x2="207.09" y2="147.66" gradientTransform="matrix(1, 0, 0, 1, 0, 0)" xlink:href="#New_Gradient_Swatch_copy_19"/>
    <linearGradient id="New_Gradient_Swatch_copy_19-7" x1="183.03" y1="151.91" x2="207.58" y2="146.41" gradientTransform="matrix(1, 0, 0, 1, 0, 0)" xlink:href="#New_Gradient_Swatch_copy_19"/>
    <linearGradient id="New_Gradient_Swatch_copy_19-8" x1="197.97" y1="140.69" x2="196.11" y2="144.23" gradientTransform="matrix(1, 0, 0, 1, 0, 0)" xlink:href="#New_Gradient_Swatch_copy_19"/>
    <radialGradient id="radial-gradient-5" cx="-3533.51" cy="289.33" r="18.22" gradientTransform="translate(-98.71) scale(0.97 1)" gradientUnits="userSpaceOnUse">
      <stop offset="0" stop-color="#5a9389"/>
      <stop offset="1" stop-color="#fff"/>
    </radialGradient>
    <linearGradient id="linear-gradient-55" x1="-3510.48" y1="254.81" x2="-3481.85" y2="236.31" gradientUnits="userSpaceOnUse">
      <stop offset="0" stop-color="#10879c"/>
      <stop offset="0.06" stop-color="#0e788a"/>
      <stop offset="0.21" stop-color="#0a5360"/>
      <stop offset="0.36" stop-color="#06353d"/>
      <stop offset="0.52" stop-color="#041e23"/>
      <stop offset="0.67" stop-color="#020d0f"/>
      <stop offset="0.83" stop-color="#000304"/>
      <stop offset="1"/>
    </linearGradient>
    <linearGradient id="linear-gradient-56" x1="-3523.7" y1="231.6" x2="-3497.14" y2="277.61" gradientTransform="matrix(1, 0, 0, 1, 0, 0)" xlink:href="#linear-gradient-45"/>
    <linearGradient id="New_Gradient_Swatch_copy_19-9" x1="-3573.18" y1="273.2" x2="-3469.95" y2="250.06" gradientTransform="translate(-311.42 1733.51) rotate(28.87)" xlink:href="#New_Gradient_Swatch_copy_19"/>
    <radialGradient id="Radial_Gradient_1-4" cx="-3522.84" cy="261.25" r="20.32" gradientTransform="translate(-98.71) scale(0.97 1)" xlink:href="#Radial_Gradient_1"/>
    <linearGradient id="linear-gradient-57" x1="-3563.82" y1="250.26" x2="-3531.63" y2="306.02" xlink:href="#linear-gradient-47"/>
    <radialGradient id="radial-gradient-6" cx="-36236.82" cy="-14877.42" r="59.94" gradientTransform="matrix(0.48, -0.18, -0.59, 0.62, 5106.72, 2931.39)" gradientUnits="userSpaceOnUse">
      <stop offset="0" stop-color="#194558"/>
      <stop offset="0.16" stop-color="#11303d"/>
      <stop offset="0.36" stop-color="#0a1b22"/>
      <stop offset="0.57" stop-color="#040c0f"/>
      <stop offset="0.78" stop-color="#010304"/>
      <stop offset="1"/>
    </radialGradient>
    <linearGradient id="linear-gradient-58" x1="-3605.4" y1="258.36" x2="-3558.8" y2="339.06" gradientTransform="matrix(1, 0, 0, 1, 0, 0)" xlink:href="#linear-gradient-45"/>
    <linearGradient id="New_Gradient_Swatch_copy_19-10" x1="-3679.68" y1="323.89" x2="-3499.99" y2="283.61" gradientTransform="translate(-299.58 1772.13) rotate(28.87)" xlink:href="#New_Gradient_Swatch_copy_19"/>
    <linearGradient id="linear-gradient-59" x1="-3571.09" y1="340.03" x2="-3613.63" y2="266.35" gradientTransform="translate(-299.58 1772.13) rotate(28.87)" xlink:href="#linear-gradient-47"/>
    <linearGradient id="linear-gradient-60" x1="-3578.78" y1="345.76" x2="-3621.1" y2="272.45" gradientTransform="matrix(1, 0, 0, 1, 0, 0)" xlink:href="#linear-gradient-45"/>
    <radialGradient id="Radial_Gradient_1-5" cx="-3591.45" cy="303.29" r="35.13" gradientTransform="translate(-98.71) scale(0.97 1)" xlink:href="#Radial_Gradient_1"/>
    <radialGradient id="radial-gradient-7" cx="-3566.89" cy="288.69" r="50.65" gradientTransform="translate(-386.02 1724.47) rotate(28.87) scale(0.97 1)" xlink:href="#radial-gradient-5"/>
    <linearGradient id="linear-gradient-61" x1="-3571.59" y1="307.92" x2="-3583.93" y2="291.39" gradientTransform="matrix(1, 0, 0, 1, 0, 0)" xlink:href="#linear-gradient-49"/>
    <linearGradient id="linear-gradient-62" x1="-3591.09" y1="303.61" x2="-3580.99" y2="303.61" gradientTransform="matrix(1, 0, 0, 1, 0, 0)" xlink:href="#linear-gradient-50"/>
    <linearGradient id="linear-gradient-63" x1="-3589.51" y1="303.61" x2="-3582.57" y2="303.61" gradientTransform="translate(-299.15 1769.28) rotate(28.87)" xlink:href="#linear-gradient-52"/>
    <radialGradient id="Radial_Gradient_1-6" cx="-3590.9" cy="303.44" r="5.62" gradientTransform="translate(-98.71) scale(0.97 1)" xlink:href="#Radial_Gradient_1"/>
    <radialGradient id="radial-gradient-8" cx="21701.75" cy="1415.58" r="16.43" gradientTransform="matrix(-0.13, -0.26, 0.79, -0.4, -1900.48, 6540.62)" xlink:href="#New_Gradient_Swatch_copy_16"/>
    <radialGradient id="radial-gradient-9" cx="-5312.96" cy="-4800.69" r="23.02" gradientTransform="matrix(0.38, -0.01, 0.01, 0.88, -1519.52, 4504.79)" xlink:href="#New_Gradient_Swatch_copy_16"/>
    <radialGradient id="New_Gradient_Swatch_copy_16-3" cx="-20273.68" cy="-3132.62" r="41.58" gradientTransform="matrix(0.56, 0.05, -0.7, 0.51, 5528.27, 2934.07)" xlink:href="#New_Gradient_Swatch_copy_16"/>
    <radialGradient id="radial-gradient-10" cx="-3634.39" cy="333.07" r="67.65" gradientTransform="translate(-98.71) scale(0.97 1)" xlink:href="#radial-gradient-2"/>
  </defs>
  <g class="cls-2">
    <g id="Layer_1" data-name="Layer 1">
      <rect class="cls-3" x="1.64" width="350" height="320"/>
      <g>
        <g>
          <path class="cls-4" d="M-3538.69,383.89l-23.6-14.31,6.57-3.84a6.23,6.23,0,0,0,1.81.27,5.6,5.6,0,0,0,2.81-.7,2.5,2.5,0,0,0,1.37-2.09,2.45,2.45,0,0,0-1.35-2.07,5.55,5.55,0,0,0-2.79-.7,5.5,5.5,0,0,0-2.81.71,2.5,2.5,0,0,0-1.37,2.09,2.22,2.22,0,0,0,.85,1.7l-7.87,4.6,23.57,14.3L-3577,404l18.08,11.36-21.22,12.16L-3599,416.34a2.27,2.27,0,0,0,.75-1.62,2.45,2.45,0,0,0-1.35-2.08,5.62,5.62,0,0,0-2.79-.69,5.6,5.6,0,0,0-2.81.7,2.5,2.5,0,0,0-1.37,2.09,2.44,2.44,0,0,0,1.35,2.07,5.55,5.55,0,0,0,2.79.7,6.11,6.11,0,0,0,2.13-.38l0,.06,20.17,12,24-13.78-18.06-11.35ZM-3556,362.4a4.34,4.34,0,0,1,2.12-.51,4.22,4.22,0,0,1,2.09.5c.42.25.66.55.66.83s-.25.59-.67.85a4.82,4.82,0,0,1-4.21,0c-.42-.25-.66-.56-.66-.83S-3556.42,362.66-3556,362.4Zm-48.55,53.17c-.42-.25-.66-.55-.66-.83s.25-.59.67-.84a4.24,4.24,0,0,1,2.12-.52,4.22,4.22,0,0,1,2.09.51c.42.25.66.55.66.83s-.24.59-.67.84A4.82,4.82,0,0,1-3604.54,415.57Z" transform="translate(3723.61 -153.19)"/>
          <path class="cls-5" d="M-3520.4,364.93a2.23,2.23,0,0,0,.82-1.68,2.5,2.5,0,0,0-1.37-2.09,5.5,5.5,0,0,0-2.81-.71,5.52,5.52,0,0,0-2.79.7,2.45,2.45,0,0,0-1.35,2.07,2.5,2.5,0,0,0,1.37,2.09,5.6,5.6,0,0,0,2.81.7,6.19,6.19,0,0,0,1.86-.29l19.47,11.44-35.89,21,24.91,15.53,23.61-14.44a6.06,6.06,0,0,0,2,.34,5.49,5.49,0,0,0,2.78-.7,2.43,2.43,0,0,0,1.36-2.07,2.5,2.5,0,0,0-1.37-2.09,5.67,5.67,0,0,0-2.82-.7,5.59,5.59,0,0,0-2.78.69,2.44,2.44,0,0,0-1.36,2.07,2.27,2.27,0,0,0,.77,1.64l-22.16,13.6-22.17-13.83,35.95-21Zm-5.44-.86c-.43-.26-.67-.57-.67-.85s.24-.58.66-.83a4.22,4.22,0,0,1,2.09-.5,4.34,4.34,0,0,1,2.12.51c.42.26.67.56.67.85s-.24.58-.66.83A4.86,4.86,0,0,1-3525.84,364.07Zm35.93,31.9a4.22,4.22,0,0,1,2.09-.51,4.24,4.24,0,0,1,2.12.52c.43.25.68.56.68.84s-.25.58-.67.83a4.8,4.8,0,0,1-4.2,0c-.43-.26-.68-.56-.68-.85S-3490.33,396.22-3489.91,396Z" transform="translate(3723.61 -153.19)"/>
          <path class="cls-6" d="M-3483.64,412.48a2.25,2.25,0,0,0-.79-1.65l33.94-21.78-55.42-32.67a2.11,2.11,0,0,0,.58-1.44,2.5,2.5,0,0,0-1.37-2.09,5.67,5.67,0,0,0-2.82-.7,5.59,5.59,0,0,0-2.78.69,2.44,2.44,0,0,0-1.36,2.07,2.5,2.5,0,0,0,1.37,2.09,5.54,5.54,0,0,0,2.82.71,5.87,5.87,0,0,0,2.26-.44l54,31.83-32.6,20.93a5.87,5.87,0,0,0-2-.34,5.65,5.65,0,0,0-2.79.69,2.47,2.47,0,0,0-1.35,2.08,2.5,2.5,0,0,0,1.37,2.08,5.5,5.5,0,0,0,2.81.71,5.5,5.5,0,0,0,2.79-.7A2.45,2.45,0,0,0-3483.64,412.48Zm-28-56.72c-.43-.25-.68-.56-.68-.85s.24-.57.66-.82a4.22,4.22,0,0,1,2.09-.51,4.34,4.34,0,0,1,2.12.51c.43.26.68.57.68.85s-.25.58-.66.83A4.82,4.82,0,0,1-3511.59,355.76Zm25.89,57.55a4.8,4.8,0,0,1-4.2,0c-.43-.25-.68-.56-.68-.84s.24-.58.66-.83a4.22,4.22,0,0,1,2.09-.51,4.43,4.43,0,0,1,1.79.36l.16.26.17-.1c.43.25.67.56.67.84S-3485.28,413.06-3485.7,413.31Z" transform="translate(3723.61 -153.19)"/>
          <path class="cls-7" d="M-3426.34,407.39a5.6,5.6,0,0,0-2.81-.7,5.52,5.52,0,0,0-2.79.69,2.46,2.46,0,0,0-1.36,2.07,2.22,2.22,0,0,0,.55,1.4l-13.63,8.07-17-10.27,28.78-18.36-64.11-38.12a2.1,2.1,0,0,0,.53-1.38,2.5,2.5,0,0,0-1.37-2.09,5.64,5.64,0,0,0-2.82-.7,5.48,5.48,0,0,0-2.78.69,2.44,2.44,0,0,0-1.36,2.07,2.5,2.5,0,0,0,1.37,2.09,5.67,5.67,0,0,0,2.82.7,5.77,5.77,0,0,0,2.35-.48l62.66,37.26-28.77,18.35,19.73,11.9,14.9-8.82a5.83,5.83,0,0,0,2.37.49,5.55,5.55,0,0,0,2.79-.7,2.45,2.45,0,0,0,1.35-2.07A2.5,2.5,0,0,0-3426.34,407.39Zm-78.13-55.78c-.43-.26-.68-.57-.68-.85s.25-.58.66-.83a4.22,4.22,0,0,1,2.09-.5,4.32,4.32,0,0,1,2.12.51c.43.26.68.57.68.85s-.24.58-.66.83A4.82,4.82,0,0,1-3504.47,351.61Zm77.45,58.7a4.22,4.22,0,0,1-2.09.5,4.34,4.34,0,0,1-2.12-.51c-.43-.26-.67-.56-.67-.85s.24-.58.66-.83a4.22,4.22,0,0,1,2.09-.5,4.3,4.3,0,0,1,2.11.51c.43.26.68.57.68.85S-3426.6,410.06-3427,410.31Z" transform="translate(3723.61 -153.19)"/>
          <path class="cls-8" d="M-3397.78,306.09a5.57,5.57,0,0,0-2.82-.71,5.59,5.59,0,0,0-2.78.69l-25.07-14.34,7.46-4.43a5.59,5.59,0,0,0,2.7.65,5.49,5.49,0,0,0,2.78-.7,2.43,2.43,0,0,0,1.36-2.07,2.5,2.5,0,0,0-1.37-2.09,5.67,5.67,0,0,0-2.82-.7,5.49,5.49,0,0,0-2.78.7,2.43,2.43,0,0,0-1.36,2.07,2.1,2.1,0,0,0,.37,1.16l-9.16,5.44,26.82,15.35a2,2,0,0,0-.29,1,2.49,2.49,0,0,0,1.37,2.08,5.57,5.57,0,0,0,2.82.71,5.49,5.49,0,0,0,2.78-.7,2.43,2.43,0,0,0,1.36-2.07A2.48,2.48,0,0,0-3397.78,306.09Zm-22.65-21.76a4.22,4.22,0,0,1,2.09-.51,4.24,4.24,0,0,1,2.12.52c.43.25.68.56.68.84s-.24.58-.66.83a4.82,4.82,0,0,1-4.21,0c-.43-.25-.68-.56-.68-.84S-3420.85,284.58-3420.43,284.33Zm22,24.67a4.22,4.22,0,0,1-2.09.5,4.24,4.24,0,0,1-2.12-.51c-.43-.25-.68-.56-.68-.84a.64.64,0,0,1,.12-.34l.25.14.36-.66a4.22,4.22,0,0,1,2-.48,4.24,4.24,0,0,1,2.12.52c.43.25.68.56.68.84S-3398,308.75-3398.46,309Z" transform="translate(3723.61 -153.19)"/>
          <path class="cls-9" d="M-3579.59,348.7a2.5,2.5,0,0,0,1.37-2.09,2.44,2.44,0,0,0-1.35-2.07,5.55,5.55,0,0,0-2.79-.7,5.5,5.5,0,0,0-2.81.71,2.5,2.5,0,0,0-1.37,2.08,2.13,2.13,0,0,0,.45,1.29l-25.6,14.87-14.75-8-15.91,8.67-38.53-24.88a2.17,2.17,0,0,0,.61-1.47,2.5,2.5,0,0,0-1.38-2.09,5.6,5.6,0,0,0-2.81-.7,5.55,5.55,0,0,0-2.79.69,2.45,2.45,0,0,0-1.35,2.07,2.5,2.5,0,0,0,1.37,2.09,5.6,5.6,0,0,0,2.81.7,5.63,5.63,0,0,0,2.67-.63l-.2.35,39.61,25.55,16-8.7,14.71,7.93,26.78-15.55v0a5.71,5.71,0,0,0,2.5.55A5.6,5.6,0,0,0-3579.59,348.7ZM-3682.33,338a4.8,4.8,0,0,1-4.2,0c-.43-.26-.68-.57-.68-.85s.24-.58.66-.83a4.22,4.22,0,0,1,2.09-.5,4.34,4.34,0,0,1,2.12.51c.43.26.67.57.67.85S-3681.91,337.74-3682.33,338Zm97.18,8.64c0-.28.24-.59.67-.84a4.24,4.24,0,0,1,2.12-.51,4.22,4.22,0,0,1,2.09.5c.42.25.66.55.66.83s-.24.59-.67.84a4.79,4.79,0,0,1-4.21,0C-3584.91,347.21-3585.15,346.91-3585.15,346.63Z" transform="translate(3723.61 -153.19)"/>
          <path class="cls-10" d="M-3558.22,361.16a2.5,2.5,0,0,0,1.37-2.09,2.43,2.43,0,0,0-1.36-2.07,5.49,5.49,0,0,0-2.78-.7,5.5,5.5,0,0,0-2.81.71,2.48,2.48,0,0,0-1.38,2.08,2.25,2.25,0,0,0,.9,1.74l-15.49,9,22.1,13.12-9.11,5.49-8.82-5.41a2.15,2.15,0,0,0,.61-1.48,2.48,2.48,0,0,0-1.37-2.08,5.5,5.5,0,0,0-2.81-.71,5.52,5.52,0,0,0-2.79.7,2.44,2.44,0,0,0-1.35,2.07,2.47,2.47,0,0,0,1.37,2.08,5.5,5.5,0,0,0,2.81.71,5.85,5.85,0,0,0,2.22-.42l10.13,6.21,11.88-7.17-22.06-13.1,13.94-8.14-.14-.26a6,6,0,0,0,2.13.38A5.6,5.6,0,0,0-3558.22,361.16Zm-23,21.25c-.43-.25-.67-.56-.67-.84s.24-.58.66-.83a4.2,4.2,0,0,1,2.09-.51,4.17,4.17,0,0,1,2.11.52c.43.25.68.56.68.84s-.24.58-.66.83A4.82,4.82,0,0,1-3581.25,382.41Zm17.47-23.32c0-.28.24-.59.67-.84a4.24,4.24,0,0,1,2.12-.51,4.22,4.22,0,0,1,2.09.5c.42.25.66.55.66.83s-.25.59-.68.84a4.77,4.77,0,0,1-4.2,0C-3563.54,359.67-3563.78,359.37-3563.78,359.09Z" transform="translate(3723.61 -153.19)"/>
          <path class="cls-11" d="M-3473.91,331.38a5.49,5.49,0,0,0-2.78.7,2.43,2.43,0,0,0-1.36,2.07,2.5,2.5,0,0,0,1.37,2.09,5.67,5.67,0,0,0,2.82.7,5.59,5.59,0,0,0,2.78-.69,2.44,2.44,0,0,0,1.36-2.07,2.15,2.15,0,0,0-.51-1.36l13.69-8.88-13.13-7.81,11.83-7.38a6,6,0,0,0,2.32.46,5.55,5.55,0,0,0,2.79-.7,2.44,2.44,0,0,0,1.35-2.07,2.49,2.49,0,0,0-1.37-2.08,5.5,5.5,0,0,0-2.81-.71,5.55,5.55,0,0,0-2.79.7,2.44,2.44,0,0,0-1.35,2.07,2.19,2.19,0,0,0,.59,1.45l-13.29,8.28,13.16,7.84-12.21,7.92A5.85,5.85,0,0,0-3473.91,331.38Zm16.26-25.79a4.22,4.22,0,0,1,2.09-.5,4.24,4.24,0,0,1,2.12.51c.43.25.67.56.67.84s-.24.58-.66.83a4.79,4.79,0,0,1-4.21,0c-.43-.25-.67-.56-.67-.84S-3458.07,305.84-3457.65,305.59ZM-3471.77,335a4.82,4.82,0,0,1-4.21,0c-.43-.26-.68-.57-.68-.85s.24-.58.66-.83a4.22,4.22,0,0,1,2.09-.5,4.24,4.24,0,0,1,2.12.51c.43.26.68.56.68.85S-3471.35,334.75-3471.77,335Z" transform="translate(3723.61 -153.19)"/>
          <path class="cls-12" d="M-3492.46,344.55a5.5,5.5,0,0,0-2.81-.71,5.52,5.52,0,0,0-2.79.7,2.45,2.45,0,0,0-1.36,2.07,2.5,2.5,0,0,0,1.38,2.09,5.6,5.6,0,0,0,2.81.7,5.64,5.64,0,0,0,2.72-.66l47.08,27.85.37.21,16.45-10.62a5.65,5.65,0,0,0,2.51.56,5.55,5.55,0,0,0,2.79-.7A2.44,2.44,0,0,0-3422,364a2.5,2.5,0,0,0-1.37-2.09,5.6,5.6,0,0,0-2.81-.7,5.5,5.5,0,0,0-2.79.7,2.45,2.45,0,0,0-1.36,2.07,2.2,2.2,0,0,0,.48,1.31l-15.29,9.87-46.31-27.39a2.08,2.08,0,0,0,.32-1.11A2.5,2.5,0,0,0-3492.46,344.55Zm64.23,18.57a4.2,4.2,0,0,1,2.09-.51,4.2,4.2,0,0,1,2.11.52c.43.25.68.56.68.84s-.24.58-.66.83a4.79,4.79,0,0,1-4.21,0c-.43-.25-.67-.56-.67-.84S-3428.65,363.37-3428.23,363.12Zm-69.12-15.67c-.43-.25-.67-.56-.67-.84s.24-.58.66-.83a4.2,4.2,0,0,1,2.09-.5,4.24,4.24,0,0,1,2.12.51c.42.25.67.56.67.84s-.24.58-.66.83A4.79,4.79,0,0,1-3497.35,347.45Z" transform="translate(3723.61 -153.19)"/>
          <path class="cls-8" d="M-3502.48,394.73a5.59,5.59,0,0,0,2.78-.69,2.44,2.44,0,0,0,1.36-2.08,2.5,2.5,0,0,0-1.37-2.08,5.57,5.57,0,0,0-2.82-.71,5.49,5.49,0,0,0-2.78.7,2.43,2.43,0,0,0-1.36,2.07,2.1,2.1,0,0,0,.34,1.12l-6.14,3.8.12.2a5.52,5.52,0,0,0-2.75-.68,5.55,5.55,0,0,0-2.79.7,2.44,2.44,0,0,0-1.35,2.07,2.5,2.5,0,0,0,1.37,2.09,5.6,5.6,0,0,0,2.81.7,5.65,5.65,0,0,0,2.79-.69,2.45,2.45,0,0,0,1.35-2.07,2.14,2.14,0,0,0-.47-1.31l6.15-3.81A5.66,5.66,0,0,0-3502.48,394.73Zm-2.14-3.62a4.22,4.22,0,0,1,2.09-.5,4.24,4.24,0,0,1,2.12.51c.43.25.68.56.68.84s-.24.58-.66.83a4.79,4.79,0,0,1-4.21,0c-.43-.25-.68-.56-.68-.84S-3505,391.36-3504.62,391.11ZM-3513,400a4.79,4.79,0,0,1-4.21,0c-.43-.25-.67-.56-.67-.84s.24-.58.66-.83a4.22,4.22,0,0,1,2.09-.5,4.24,4.24,0,0,1,2.12.51c.42.26.67.56.67.85S-3512.55,399.75-3513,400Z" transform="translate(3723.61 -153.19)"/>
          <path class="cls-13" d="M-3527.17,421.12a5.6,5.6,0,0,0-2.81-.7,5.85,5.85,0,0,0-2.38.49l-26.19-15.62,39.14-22.86-16-9.82a2.1,2.1,0,0,0,.49-1.33,2.5,2.5,0,0,0-1.37-2.09,5.64,5.64,0,0,0-2.82-.7,5.59,5.59,0,0,0-2.78.69,2.44,2.44,0,0,0-1.36,2.07,2.5,2.5,0,0,0,1.37,2.09,5.57,5.57,0,0,0,2.82.71,5.6,5.6,0,0,0,2.43-.53l14.48,8.88-39.18,22.88,27.75,16.54a2.15,2.15,0,0,0-.51,1.36,2.5,2.5,0,0,0,1.37,2.09,5.5,5.5,0,0,0,2.81.71,5.55,5.55,0,0,0,2.79-.7,2.45,2.45,0,0,0,1.35-2.07A2.5,2.5,0,0,0-3527.17,421.12Zm-14-49c-.43-.26-.68-.56-.68-.85s.25-.57.66-.82a4.22,4.22,0,0,1,2.09-.51,4.34,4.34,0,0,1,2.12.51c.43.26.68.57.68.85s-.24.58-.66.83A4.82,4.82,0,0,1-3541.21,372.1Zm13.36,51.94a4.82,4.82,0,0,1-4.21,0c-.43-.26-.67-.56-.67-.85s.24-.58.66-.83a4.22,4.22,0,0,1,2.09-.5,4.34,4.34,0,0,1,2.12.51c.43.26.67.57.67.85S-3527.43,423.79-3527.85,424Z" transform="translate(3723.61 -153.19)"/>
          <path class="cls-14" d="M-3587.77,393a2.5,2.5,0,0,0,1.37,2.09,5.67,5.67,0,0,0,2.82.7,5.59,5.59,0,0,0,2.78-.69,2.46,2.46,0,0,0,1.36-2.08,2.5,2.5,0,0,0-1.37-2.08,5.57,5.57,0,0,0-2.82-.71,5.66,5.66,0,0,0-2.69.65l-19.57-11.52,35.49-21.74-.3-.53a5.62,5.62,0,0,0,2.54.58,5.57,5.57,0,0,0,2.82-.71,2.5,2.5,0,0,0,1.37-2.08,2.44,2.44,0,0,0-1.36-2.08,5.59,5.59,0,0,0-2.78-.69,5.67,5.67,0,0,0-2.82.7,2.5,2.5,0,0,0-1.37,2.09,2.26,2.26,0,0,0,.84,1.7l-37.2,22.78,21.23,12.49A2.1,2.1,0,0,0-3587.77,393Zm17.54-38.94a4.24,4.24,0,0,1,2.12-.52,4.22,4.22,0,0,1,2.09.51c.42.25.66.55.66.83s-.25.59-.68.84a4.82,4.82,0,0,1-4.21,0c-.42-.25-.66-.55-.66-.83S-3570.66,354.35-3570.23,354.1Zm-13.4,37.61a4.24,4.24,0,0,1,2.12.51c.43.25.68.56.68.84s-.25.58-.66.83a4.79,4.79,0,0,1-4.21,0c-.43-.25-.68-.56-.68-.84s.24-.58.66-.83A4.22,4.22,0,0,1-3583.63,391.71Z" transform="translate(3723.61 -153.19)"/>
          <path class="cls-15" d="M-3479.87,378a5.57,5.57,0,0,0-2.82-.71,5.57,5.57,0,0,0-2.6.61l-27.7-17.45a2.13,2.13,0,0,0,.53-1.4,2.47,2.47,0,0,0-1.37-2.08,5.5,5.5,0,0,0-2.81-.71,5.55,5.55,0,0,0-2.79.7,2.44,2.44,0,0,0-1.35,2.07,2.5,2.5,0,0,0,1.37,2.09,5.6,5.6,0,0,0,2.81.7,5.7,5.7,0,0,0,2.35-.48l27.81,17.52a2.09,2.09,0,0,0-.39,1.2,2.48,2.48,0,0,0,1.37,2.08,5.57,5.57,0,0,0,2.82.71,5.49,5.49,0,0,0,2.78-.7,2.43,2.43,0,0,0,1.36-2.07A2.49,2.49,0,0,0-3479.87,378Zm-38.84-18.13c-.43-.25-.68-.56-.68-.84s.24-.58.66-.83a4.22,4.22,0,0,1,2.09-.5,4.24,4.24,0,0,1,2.12.51c.43.25.67.56.67.84s-.24.58-.66.83A4.77,4.77,0,0,1-3518.71,359.91Zm38.16,21a4.79,4.79,0,0,1-4.21,0c-.43-.25-.68-.56-.68-.84s.24-.58.66-.83a4.22,4.22,0,0,1,2.09-.5,4.24,4.24,0,0,1,2.12.51c.43.25.68.56.68.84S-3480.13,380.7-3480.55,381Z" transform="translate(3723.61 -153.19)"/>
          <path class="cls-16" d="M-3636.24,335.51a5.57,5.57,0,0,0-2.82-.71,5.49,5.49,0,0,0-2.78.7,2.43,2.43,0,0,0-1.36,2.07,2.48,2.48,0,0,0,1.37,2.08,5.5,5.5,0,0,0,2.81.71,5.8,5.8,0,0,0,2.37-.49l27.48,15.7,17.79-10.53-.06-.11a6,6,0,0,0,1.92.32,5.5,5.5,0,0,0,2.81-.71,2.5,2.5,0,0,0,1.37-2.08,2.44,2.44,0,0,0-1.35-2.07,5.55,5.55,0,0,0-2.79-.7,5.6,5.6,0,0,0-2.81.7,2.5,2.5,0,0,0-1.38,2.09,2.3,2.3,0,0,0,.89,1.74l-16.4,9.7-26.2-15a2.11,2.11,0,0,0,.51-1.36A2.48,2.48,0,0,0-3636.24,335.51Zm44.64,6.13a4.24,4.24,0,0,1,2.12-.52,4.22,4.22,0,0,1,2.09.51c.42.25.66.55.66.83s-.25.59-.68.84a4.8,4.8,0,0,1-4.2,0c-.42-.25-.66-.55-.66-.83S-3592,341.89-3591.6,341.64Zm-49.53-3.23c-.43-.25-.68-.56-.68-.84s.24-.58.66-.83a4.22,4.22,0,0,1,2.09-.5,4.24,4.24,0,0,1,2.12.51c.43.25.67.56.67.84a.87.87,0,0,1-.38.64h0l0,0-.24.16A4.77,4.77,0,0,1-3641.13,338.41Z" transform="translate(3723.61 -153.19)"/>
          <path class="cls-8" d="M-3550,248.67a2.5,2.5,0,0,0,1.37,2.08,5.5,5.5,0,0,0,2.81.71,5.55,5.55,0,0,0,2.79-.7,2.44,2.44,0,0,0,1.35-2.07,2.5,2.5,0,0,0-1.37-2.09,5.6,5.6,0,0,0-2.81-.7,5.53,5.53,0,0,0-2.76.68L-3572,233.3l20.06-12.46,44.65,25.4-17.93,11.49c-.06,0-.11-.08-.18-.11a5.5,5.5,0,0,0-2.81-.71,5.55,5.55,0,0,0-2.79.7,2.44,2.44,0,0,0-1.35,2.07,2.5,2.5,0,0,0,1.37,2.09,5.6,5.6,0,0,0,2.81.7,5.6,5.6,0,0,0,2.79-.69,2.48,2.48,0,0,0,1.36-2.08,2.06,2.06,0,0,0-.22-.9l19.7-12.63-47.08-26.79-.35-.2-22.81,14.18,25.06,14.25A2,2,0,0,0-3550,248.67Zm23.94,11.86a4.2,4.2,0,0,1-2.09.51,4.2,4.2,0,0,1-2.11-.52c-.43-.25-.68-.56-.68-.84s.24-.58.66-.83a4.22,4.22,0,0,1,2.09-.5,4.24,4.24,0,0,1,2.12.51c.43.25.67.56.67.84S-3525.68,260.28-3526.1,260.53Zm-17.68-12.68c.43.25.67.56.67.84s-.24.58-.66.83a4.82,4.82,0,0,1-4.21,0c-.42-.25-.67-.56-.67-.84a.69.69,0,0,1,.13-.37l.11.06.19-.37.23-.15a4.22,4.22,0,0,1,2.09-.51A4.24,4.24,0,0,1-3543.78,247.85Z" transform="translate(3723.61 -153.19)"/>
          <path class="cls-17" d="M-3480.8,244.54l-27.81,17.78,24.19,13.69-24.14,14.48.7,1.24,26.27-15.75-24.26-13.73,26.42-16.9v0a6,6,0,0,0,2,.35,5.6,5.6,0,0,0,2.79-.69,2.46,2.46,0,0,0,1.36-2.08,2.5,2.5,0,0,0-1.37-2.08,5.57,5.57,0,0,0-2.82-.71,5.49,5.49,0,0,0-2.78.7,2.43,2.43,0,0,0-1.36,2.07A2.26,2.26,0,0,0-3480.8,244.54Zm1.26-2.49a4.22,4.22,0,0,1,2.09-.5,4.24,4.24,0,0,1,2.12.51c.43.25.68.56.68.84s-.25.58-.67.83a4.77,4.77,0,0,1-4.2,0c-.43-.25-.68-.56-.68-.84S-3480,242.3-3479.54,242.05Z" transform="translate(3723.61 -153.19)"/>
          <path class="cls-8" d="M-3658,387.24l27.94-16.83a5.71,5.71,0,0,0,2.53.56,5.55,5.55,0,0,0,2.79-.69,2.45,2.45,0,0,0,1.35-2.07,2.5,2.5,0,0,0-1.37-2.09,5.6,5.6,0,0,0-2.81-.7,5.55,5.55,0,0,0-2.79.69,2.45,2.45,0,0,0-1.35,2.07,2.1,2.1,0,0,0,.46,1.29l-26.77,16.1-14.9-8.88a2,2,0,0,0,.16-.76,2.5,2.5,0,0,0-1.38-2.09,5.6,5.6,0,0,0-2.81-.7,5.55,5.55,0,0,0-2.79.69,2.45,2.45,0,0,0-1.35,2.07,2.5,2.5,0,0,0,1.37,2.09,5.6,5.6,0,0,0,2.81.7,5.52,5.52,0,0,0,2.79-.69l.29-.19Zm27.68-19.06c0-.27.24-.58.66-.83a4.22,4.22,0,0,1,2.09-.5,4.34,4.34,0,0,1,2.12.51c.42.26.67.57.67.85s-.24.58-.66.83a4.82,4.82,0,0,1-4.21,0l-.18-.13-.14-.23-.08.05A.82.82,0,0,1-3630.37,368.18Zm-48.71,8.57c-.42-.26-.67-.57-.67-.85s.24-.58.66-.83a4.22,4.22,0,0,1,2.09-.5,4.34,4.34,0,0,1,2.12.51c.43.26.67.57.67.85s-.24.58-.66.83A4.82,4.82,0,0,1-3679.08,376.75Z" transform="translate(3723.61 -153.19)"/>
          <path class="cls-18" d="M-3577.62,353.28l-.16-.28a5.71,5.71,0,0,0,2.5.55,5.6,5.6,0,0,0,2.81-.7,2.5,2.5,0,0,0,1.38-2.09,2.46,2.46,0,0,0-1.36-2.07,5.49,5.49,0,0,0-2.79-.69,5.6,5.6,0,0,0-2.81.7,2.5,2.5,0,0,0-1.37,2.09,2.18,2.18,0,0,0,.65,1.51l-76.33,45-.15-.1a5.5,5.5,0,0,0-2.81-.71,5.55,5.55,0,0,0-2.79.7,2.44,2.44,0,0,0-1.35,2.07,2.5,2.5,0,0,0,1.37,2.09,5.6,5.6,0,0,0,2.81.7,5.55,5.55,0,0,0,2.79-.7,2.44,2.44,0,0,0,1.35-2.07,2.14,2.14,0,0,0-.22-.92Zm.27-3.34a4.3,4.3,0,0,1,2.11-.51,4.2,4.2,0,0,1,2.09.5c.42.25.66.55.66.83s-.24.59-.67.85a4.82,4.82,0,0,1-4.21,0c-.42-.25-.66-.56-.66-.83S-3577.78,350.2-3577.35,349.94Zm-78.58,50.19a4.79,4.79,0,0,1-4.21,0c-.43-.25-.67-.56-.67-.84s.24-.58.66-.83a4.22,4.22,0,0,1,2.09-.5,4.24,4.24,0,0,1,2.12.51c.43.25.67.56.67.84S-3655.51,399.88-3655.93,400.13Z" transform="translate(3723.61 -153.19)"/>
          <path class="cls-19" d="M-3464.2,349.46l17.71-10.87a5.74,5.74,0,0,0,2.11.38,5.49,5.49,0,0,0,2.78-.7,2.43,2.43,0,0,0,1.36-2.07,2.5,2.5,0,0,0-1.37-2.09,5.63,5.63,0,0,0-2.81-.7,5.5,5.5,0,0,0-2.79.7,2.43,2.43,0,0,0-1.36,2.07,2.25,2.25,0,0,0,.72,1.58l-16.35,10-13.11-8.16a2.12,2.12,0,0,0,.47-1.3,2.5,2.5,0,0,0-1.37-2.09,5.67,5.67,0,0,0-2.82-.7,5.48,5.48,0,0,0-2.78.69,2.44,2.44,0,0,0-1.36,2.07,2.5,2.5,0,0,0,1.37,2.09,5.64,5.64,0,0,0,2.82.7,5.48,5.48,0,0,0,2.78-.69l.09-.06-.2.34Zm17.69-14.11a4.2,4.2,0,0,1,2.09-.51,4.2,4.2,0,0,1,2.11.52c.43.25.68.56.68.84s-.24.58-.66.83a4.82,4.82,0,0,1-4.21,0c-.43-.25-.67-.56-.67-.84S-3446.93,335.6-3446.51,335.35Zm-32.38,3.81a4.82,4.82,0,0,1-4.21,0c-.43-.26-.68-.57-.68-.85s.24-.58.66-.83a4.22,4.22,0,0,1,2.09-.5,4.34,4.34,0,0,1,2.12.51c.43.26.67.57.67.85S-3478.48,338.91-3478.89,339.16Z" transform="translate(3723.61 -153.19)"/>
          <path class="cls-8" d="M-3478.9,260a2.13,2.13,0,0,0,.52-1.37,2.5,2.5,0,0,0-1.37-2.09,5.51,5.51,0,0,0-2.82-.71,5.49,5.49,0,0,0-2.78.7,2.45,2.45,0,0,0-1.36,2.07,2.5,2.5,0,0,0,1.37,2.09,5.67,5.67,0,0,0,2.82.7,5.75,5.75,0,0,0,2.36-.49l12.47,7.6,22.77-14.19.09.06a5.63,5.63,0,0,0,2.81.7,5.49,5.49,0,0,0,2.79-.69,2.44,2.44,0,0,0,1.36-2.07,2.5,2.5,0,0,0-1.37-2.09,5.67,5.67,0,0,0-2.82-.71,5.49,5.49,0,0,0-2.78.7,2.44,2.44,0,0,0-1.36,2.07,2.07,2.07,0,0,0,.27,1l-21.77,13.56Zm-5.74-.55c-.43-.26-.67-.57-.67-.85s.24-.58.66-.83a4.16,4.16,0,0,1,2.08-.5,4.21,4.21,0,0,1,2.12.51c.43.25.68.56.68.85a.87.87,0,0,1-.37.62l-.11-.07-.13.24,0,0A4.82,4.82,0,0,1-3484.64,259.43Zm40.49-8a4.22,4.22,0,0,1,2.09-.5,4.34,4.34,0,0,1,2.12.51c.43.26.68.56.68.85s-.25.58-.66.83a4.82,4.82,0,0,1-4.21,0c-.43-.26-.68-.57-.68-.85S-3444.57,251.68-3444.15,251.43Z" transform="translate(3723.61 -153.19)"/>
          <path class="cls-20" d="M-3475.4,285.2l25.08-15.71a6,6,0,0,0,2.07.36,5.65,5.65,0,0,0,2.79-.69,2.45,2.45,0,0,0,1.35-2.07,2.5,2.5,0,0,0-1.37-2.09,5.5,5.5,0,0,0-2.81-.71,5.55,5.55,0,0,0-2.79.7,2.44,2.44,0,0,0-1.35,2.07,2.24,2.24,0,0,0,.74,1.61l-26.49,16.59,8.62,4.87-24.13,14.47.7,1.24,26.26-15.74Zm25-19a4.22,4.22,0,0,1,2.09-.5,4.24,4.24,0,0,1,2.12.51c.43.26.67.56.67.85s-.24.57-.66.82a4.79,4.79,0,0,1-4.21,0c-.43-.25-.67-.56-.67-.84S-3450.8,266.48-3450.38,266.23Z" transform="translate(3723.61 -153.19)"/>
          <path class="cls-21" d="M-3533.8,300l26.27-15.75-40.55-22.76,23.35-15-17.94-9.82a2,2,0,0,0,.25-1,2.5,2.5,0,0,0-1.37-2.09,5.67,5.67,0,0,0-2.82-.7,5.48,5.48,0,0,0-2.78.69,2.44,2.44,0,0,0-1.36,2.07,2.5,2.5,0,0,0,1.37,2.09,5.57,5.57,0,0,0,2.82.71,5.49,5.49,0,0,0,2.78-.7l.08-.05,16.18,8.86-23.32,15,40.47,22.72-24.13,14.47Zm-14.88-63.47c-.43-.26-.68-.56-.68-.85s.24-.58.66-.83a4.22,4.22,0,0,1,2.09-.5,4.34,4.34,0,0,1,2.12.51c.43.26.68.57.68.85s-.24.58-.66.83A4.82,4.82,0,0,1-3548.68,236.53Z" transform="translate(3723.61 -153.19)"/>
          <path class="cls-22" d="M-3674.11,300.1a5.55,5.55,0,0,0,2.79.7,5.84,5.84,0,0,0,2.33-.47l36,21.72-8.54,5.16,32.1,19.58,10.51-6.15a5.81,5.81,0,0,0,2.29.45,5.67,5.67,0,0,0,2.82-.7,2.5,2.5,0,0,0,1.37-2.09,2.44,2.44,0,0,0-1.36-2.07,5.48,5.48,0,0,0-2.78-.69,5.67,5.67,0,0,0-2.82.7,2.5,2.5,0,0,0-1.37,2.09,2.18,2.18,0,0,0,.56,1.42l-9.21,5.38-29.37-17.91,8.55-5.17-37.45-22.61a2.19,2.19,0,0,0,.57-1.44,2.45,2.45,0,0,0-1.35-2.07,5.6,5.6,0,0,0-2.79-.69,5.6,5.6,0,0,0-2.81.7,2.5,2.5,0,0,0-1.37,2.09A2.44,2.44,0,0,0-3674.11,300.1Zm75.39,37.38a4.34,4.34,0,0,1,2.12-.51,4.22,4.22,0,0,1,2.09.5c.42.25.66.56.66.83s-.25.59-.68.85a4.82,4.82,0,0,1-4.21,0c-.42-.25-.66-.55-.66-.83S-3599.15,337.74-3598.72,337.48Zm-74.67-40.3a4.28,4.28,0,0,1,2.11-.51,4.2,4.2,0,0,1,2.09.51c.42.25.66.55.66.82a.94.94,0,0,1-.43.68h0l-.22.16a4.82,4.82,0,0,1-4.21,0c-.42-.25-.66-.55-.66-.83S-3673.82,297.44-3673.39,297.18Z" transform="translate(3723.61 -153.19)"/>
          <path class="cls-23" d="M-3645.52,304.5a5.49,5.49,0,0,0,2.79.69,5.57,5.57,0,0,0,2.73-.66l30.22,19-12.46,7.67,12.25,7.34,3.62-2.24a5.7,5.7,0,0,0,2.6.6,5.67,5.67,0,0,0,2.82-.7,2.5,2.5,0,0,0,1.37-2.09,2.43,2.43,0,0,0-1.36-2.07,5.49,5.49,0,0,0-2.78-.7,5.51,5.51,0,0,0-2.82.71,2.5,2.5,0,0,0-1.37,2.09,2.09,2.09,0,0,0,.39,1.19l-2.49,1.54-9.49-5.69,12.41-7.63-31.81-20a2.06,2.06,0,0,0,.35-1.14,2.45,2.45,0,0,0-1.35-2.07,5.55,5.55,0,0,0-2.79-.69,5.6,5.6,0,0,0-2.81.7,2.5,2.5,0,0,0-1.38,2.09A2.46,2.46,0,0,0-3645.52,304.5Zm39.68,28.83a4.21,4.21,0,0,1,2.12-.51,4.16,4.16,0,0,1,2.08.5c.42.25.66.55.66.83s-.24.59-.67.84a4.79,4.79,0,0,1-4.21,0c-.42-.25-.66-.55-.66-.82S-3606.27,333.59-3605.84,333.33Zm-39-31.75a4.34,4.34,0,0,1,2.12-.51,4.22,4.22,0,0,1,2.09.5c.42.25.66.55.66.83s-.25.59-.68.85a4.8,4.8,0,0,1-4.2,0c-.42-.25-.66-.55-.66-.83S-3645.24,301.84-3644.81,301.58Z" transform="translate(3723.61 -153.19)"/>
          <path class="cls-24" d="M-3597.72,235a5.49,5.49,0,0,0,2.78.7,6.17,6.17,0,0,0,1.8-.27l23.56,13.73-21.33,12.2,49.69,30.1.71-1.23-47.59-28.83,21.37-12.23-24.92-14.52a2.29,2.29,0,0,0,.9-1.74,2.44,2.44,0,0,0-1.36-2.08,5.59,5.59,0,0,0-2.78-.69,5.67,5.67,0,0,0-2.82.7,2.5,2.5,0,0,0-1.37,2.09A2.43,2.43,0,0,0-3597.72,235Zm.71-2.91a4.24,4.24,0,0,1,2.12-.52,4.22,4.22,0,0,1,2.09.51c.42.25.66.55.66.83s-.25.59-.68.84a4.82,4.82,0,0,1-4.21,0c-.42-.25-.66-.55-.66-.83S-3597.44,232.38-3597,232.13Z" transform="translate(3723.61 -153.19)"/>
          <path class="cls-25" d="M-3651.74,276a5.49,5.49,0,0,0,2.79.69,6,6,0,0,0,2.19-.4l21.16,12.81-7.8,4.59,46.64,28.12.7-1.24-44.56-26.87,7.8-4.58-22.62-13.69a2.19,2.19,0,0,0,.67-1.53,2.45,2.45,0,0,0-1.35-2.07,5.55,5.55,0,0,0-2.79-.69,5.6,5.6,0,0,0-2.81.7,2.5,2.5,0,0,0-1.38,2.09A2.46,2.46,0,0,0-3651.74,276Zm.71-2.92a4.34,4.34,0,0,1,2.12-.51,4.22,4.22,0,0,1,2.09.5c.42.25.66.55.66.83s-.25.59-.68.85a4.8,4.8,0,0,1-4.2,0c-.42-.25-.66-.56-.66-.83S-3651.46,273.3-3651,273Z" transform="translate(3723.61 -153.19)"/>
          <path class="cls-8" d="M-3622.23,247a5.65,5.65,0,0,0,2.79.69,5.63,5.63,0,0,0,2.81-.7l12.29,7.43.35-.62.34.62,9.25-5.34a6.13,6.13,0,0,0,2,.32,5.64,5.64,0,0,0,2.82-.7,2.5,2.5,0,0,0,1.37-2.09,2.43,2.43,0,0,0-1.36-2.07,5.49,5.49,0,0,0-2.78-.7,5.57,5.57,0,0,0-2.82.71,2.5,2.5,0,0,0-1.37,2.09,2.21,2.21,0,0,0,.76,1.62l-8.15,4.71-11.59-7a2.09,2.09,0,0,0,.32-1.07,2.45,2.45,0,0,0-1.36-2.07,5.5,5.5,0,0,0-2.79-.7,5.5,5.5,0,0,0-2.81.71,2.5,2.5,0,0,0-1.37,2.08A2.45,2.45,0,0,0-3622.23,247Zm27.71-1.21a4.24,4.24,0,0,1,2.12-.51,4.22,4.22,0,0,1,2.09.5c.42.25.66.55.66.83s-.25.59-.68.85a4.82,4.82,0,0,1-4.21,0c-.41-.24-.66-.55-.66-.82S-3594.95,246-3594.52,245.76Zm-27-1.71a4.2,4.2,0,0,1,2.11-.51,4.2,4.2,0,0,1,2.09.5c.42.25.66.55.66.83s-.24.59-.67.84a4.79,4.79,0,0,1-4.21,0c-.42-.25-.66-.55-.66-.83S-3621.94,244.3-3621.51,244.05Z" transform="translate(3723.61 -153.19)"/>
          <path class="cls-26" d="M-3449.92,363.67l-34.79-19.58a2.21,2.21,0,0,0,.74-1.61,2.5,2.5,0,0,0-1.37-2.09,5.6,5.6,0,0,0-2.81-.7,5.65,5.65,0,0,0-2.79.69,2.47,2.47,0,0,0-1.35,2.08,2.5,2.5,0,0,0,1.37,2.08,5.5,5.5,0,0,0,2.81.71,5.52,5.52,0,0,0,2.79-.7h0l-.35.65,35.75,20.13,24.46-14.56,20.93,12L-3430.17,379a5.66,5.66,0,0,0-2.76-.67,5.55,5.55,0,0,0-2.79.69,2.45,2.45,0,0,0-1.35,2.07,2.5,2.5,0,0,0,1.37,2.09,5.6,5.6,0,0,0,2.81.7,5.55,5.55,0,0,0,2.79-.69,2.45,2.45,0,0,0,1.35-2.07,2.18,2.18,0,0,0-.33-1.12l27.33-17.26-23.7-13.64Zm-36.1-20.36a4.8,4.8,0,0,1-4.2,0c-.43-.25-.68-.56-.68-.84s.24-.58.66-.83a4.22,4.22,0,0,1,2.09-.51,4.24,4.24,0,0,1,2.12.52c.43.25.67.56.67.84S-3485.6,343.06-3486,343.31Zm55.88,37.82c0,.28-.24.58-.66.83a4.22,4.22,0,0,1-2.09.5A4.34,4.34,0,0,1-3435,382c-.43-.26-.67-.57-.67-.85s.24-.58.66-.83a4.22,4.22,0,0,1,2.09-.5,4.34,4.34,0,0,1,2.12.51l.06.05.32.53.16-.1A.72.72,0,0,1-3430.14,381.13Z" transform="translate(3723.61 -153.19)"/>
          <path class="cls-8" d="M-3605.28,397.23a5.65,5.65,0,0,0-2.79-.69,5.6,5.6,0,0,0-2.81.7,2.5,2.5,0,0,0-1.38,2.09,2.45,2.45,0,0,0,1.36,2.07,5.5,5.5,0,0,0,2.79.7h0a5.66,5.66,0,0,0,2.75-.68l17.09,10.82a2.14,2.14,0,0,0-.47,1.31,2.45,2.45,0,0,0,1.35,2.07,5.65,5.65,0,0,0,2.79.69,5.6,5.6,0,0,0,2.81-.7,2.5,2.5,0,0,0,1.37-2.09,2.45,2.45,0,0,0-1.35-2.07,5.55,5.55,0,0,0-2.79-.7,5.63,5.63,0,0,0-2.75.68l.11-.2-17.07-10.81a2,2,0,0,0,.34-1.12A2.45,2.45,0,0,0-3605.28,397.23Zm-2.83,3.43h0a4.2,4.2,0,0,1-2.09-.5c-.42-.25-.66-.55-.66-.83s.24-.59.67-.85a4.34,4.34,0,0,1,2.12-.51,4.22,4.22,0,0,1,2.09.51c.42.25.66.55.66.82s-.25.59-.68.85A4.2,4.2,0,0,1-3608.11,400.66Zm21.43,12a4.24,4.24,0,0,1,2.12-.51,4.22,4.22,0,0,1,2.09.5c.42.25.66.55.66.83s-.24.59-.67.85a4.82,4.82,0,0,1-4.21,0c-.42-.24-.66-.55-.66-.82S-3587.11,413-3586.68,412.7Z" transform="translate(3723.61 -153.19)"/>
          <path class="cls-8" d="M-3658.78,334.63a5.55,5.55,0,0,0-2.79-.7,5.5,5.5,0,0,0-2.81.71,2.5,2.5,0,0,0-1.37,2.08,2.47,2.47,0,0,0,1.35,2.08,5.65,5.65,0,0,0,2.79.69h0a5.62,5.62,0,0,0,2.75-.67l17.1,10.81a2.12,2.12,0,0,0-.48,1.31,2.45,2.45,0,0,0,1.35,2.07,5.55,5.55,0,0,0,2.79.7,5.5,5.5,0,0,0,2.81-.71,2.5,2.5,0,0,0,1.38-2.09,2.46,2.46,0,0,0-1.36-2.07,5.49,5.49,0,0,0-2.79-.69,5.65,5.65,0,0,0-2.75.67l.12-.2-17.08-10.8a2.1,2.1,0,0,0,.34-1.12A2.44,2.44,0,0,0-3658.78,334.63Zm-2.83,3.43h0a4.22,4.22,0,0,1-2.09-.51c-.42-.25-.66-.55-.66-.83s.24-.59.67-.84a4.24,4.24,0,0,1,2.12-.51,4.22,4.22,0,0,1,2.09.5c.42.25.66.55.66.83s-.24.59-.67.84A4.24,4.24,0,0,1-3661.61,338.06Zm21.44,12a4.3,4.3,0,0,1,2.11-.51,4.2,4.2,0,0,1,2.09.51c.42.24.66.55.66.82s-.24.59-.67.85a4.82,4.82,0,0,1-4.21,0c-.42-.25-.66-.55-.66-.83S-3640.6,350.35-3640.17,350.09Z" transform="translate(3723.61 -153.19)"/>
          <path class="cls-8" d="M-3622.8,279.64a5.55,5.55,0,0,0,2.79.69,5.62,5.62,0,0,0,2.75-.67l6.16,3.81a2.12,2.12,0,0,0-.48,1.31,2.44,2.44,0,0,0,1.36,2.07,5.59,5.59,0,0,0,2.78.7,5.54,5.54,0,0,0,2.82-.71,2.5,2.5,0,0,0,1.37-2.09,2.44,2.44,0,0,0-1.36-2.07,5.48,5.48,0,0,0-2.78-.69,5.66,5.66,0,0,0-2.76.67l.12-.2-6.14-3.8a2.07,2.07,0,0,0,.34-1.12,2.45,2.45,0,0,0-1.35-2.07,5.55,5.55,0,0,0-2.79-.69,5.6,5.6,0,0,0-2.81.7,2.5,2.5,0,0,0-1.37,2.09A2.45,2.45,0,0,0-3622.8,279.64Zm13.29,4.29a4.34,4.34,0,0,1,2.12-.51,4.22,4.22,0,0,1,2.09.5c.42.25.66.56.66.83s-.25.59-.68.85a4.32,4.32,0,0,1-2.12.51,4.16,4.16,0,0,1-2.08-.5c-.42-.25-.66-.55-.66-.83S-3609.94,284.19-3609.51,283.93Zm-12.58-7.21a4.34,4.34,0,0,1,2.12-.51,4.22,4.22,0,0,1,2.09.5c.42.25.66.56.66.83s-.24.59-.67.85a4.82,4.82,0,0,1-4.21,0c-.42-.25-.66-.55-.66-.83S-3622.51,277-3622.09,276.72Z" transform="translate(3723.61 -153.19)"/>
          <path class="cls-8" d="M-3406.88,329.31a5.48,5.48,0,0,0,2.78-.69,2.44,2.44,0,0,0,1.36-2.07,2.5,2.5,0,0,0-1.37-2.09,5.57,5.57,0,0,0-2.82-.71,5.49,5.49,0,0,0-2.78.7,2.43,2.43,0,0,0-1.36,2.07,2.1,2.1,0,0,0,.34,1.12l-31.2,18.44.12.2a5.66,5.66,0,0,0-2.76-.67,5.48,5.48,0,0,0-2.78.69,2.44,2.44,0,0,0-1.36,2.07,2.5,2.5,0,0,0,1.37,2.09,5.6,5.6,0,0,0,2.81.7,5.49,5.49,0,0,0,2.79-.69,2.44,2.44,0,0,0,1.36-2.07,2.12,2.12,0,0,0-.48-1.31l31.22-18.45A5.66,5.66,0,0,0-3406.88,329.31Zm-2.14-3.62a4.22,4.22,0,0,1,2.09-.5,4.34,4.34,0,0,1,2.12.51c.43.26.68.56.68.85s-.25.58-.66.83a4.86,4.86,0,0,1-4.21,0c-.43-.26-.68-.57-.68-.85S-3409.44,325.94-3409,325.69Zm-33.42,23.54a4.8,4.8,0,0,1-4.2,0c-.43-.26-.68-.57-.68-.85s.24-.58.66-.83a4.22,4.22,0,0,1,2.09-.5,4.34,4.34,0,0,1,2.12.51c.43.26.67.57.67.85S-3442,349-3442.44,349.23Z" transform="translate(3723.61 -153.19)"/>
          <path class="cls-8" d="M-3422.81,313.76a5.55,5.55,0,0,0,2.79-.7,2.44,2.44,0,0,0,1.35-2.07,2.5,2.5,0,0,0-1.37-2.09,5.6,5.6,0,0,0-2.81-.7,5.6,5.6,0,0,0-2.79.69A2.46,2.46,0,0,0-3427,311a2,2,0,0,0,.34,1.12l-15.41,9.27.11.21a5.49,5.49,0,0,0-2.75-.68,5.65,5.65,0,0,0-2.79.69,2.47,2.47,0,0,0-1.35,2.08,2.5,2.5,0,0,0,1.37,2.08,5.5,5.5,0,0,0,2.81.71,5.5,5.5,0,0,0,2.79-.7,2.45,2.45,0,0,0,1.36-2.07,2.14,2.14,0,0,0-.48-1.31l15.44-9.28A5.49,5.49,0,0,0-3422.81,313.76Zm-2.13-3.62a4.2,4.2,0,0,1,2.09-.51,4.3,4.3,0,0,1,2.11.51c.43.26.68.57.68.85s-.24.58-.66.83a4.82,4.82,0,0,1-4.21,0c-.43-.26-.67-.56-.67-.85S-3425.36,310.39-3424.94,310.14Zm-17.64,14.36a4.8,4.8,0,0,1-4.2,0c-.43-.25-.68-.56-.68-.84s.24-.58.66-.83a4.22,4.22,0,0,1,2.09-.51,4.24,4.24,0,0,1,2.12.52c.43.25.67.56.67.84S-3442.16,324.25-3442.58,324.5Z" transform="translate(3723.61 -153.19)"/>
          <path class="cls-27" d="M-3560.9,312.9l.7-1.24L-3598,289l13.9-8.85-31.65-19a2.1,2.1,0,0,0,.49-1.32,2.44,2.44,0,0,0-1.36-2.07,5.48,5.48,0,0,0-2.78-.69,5.67,5.67,0,0,0-2.82.7,2.5,2.5,0,0,0-1.37,2.09,2.44,2.44,0,0,0,1.36,2.07,5.48,5.48,0,0,0,2.78.69,5.73,5.73,0,0,0,2.49-.54l30.16,18.15-13.9,8.85Zm-60.63-52.3c-.42-.25-.66-.55-.66-.83s.25-.59.68-.85a4.34,4.34,0,0,1,2.12-.51,4.22,4.22,0,0,1,2.09.5c.42.25.66.56.66.83s-.25.59-.68.85A4.82,4.82,0,0,1-3621.53,260.6Z" transform="translate(3723.61 -153.19)"/>
          <path class="cls-8" d="M-3613.61,385.94a5.6,5.6,0,0,0-2.81-.7,5.49,5.49,0,0,0-2.79.69,2.46,2.46,0,0,0-1.36,2.07,2.14,2.14,0,0,0,.36,1.16l-22.37,13,15.31,8.61a2.12,2.12,0,0,0-.3,1.06,2.5,2.5,0,0,0,1.37,2.09,5.5,5.5,0,0,0,2.81.71,5.5,5.5,0,0,0,2.79-.7,2.43,2.43,0,0,0,1.36-2.07,2.5,2.5,0,0,0-1.38-2.09,5.6,5.6,0,0,0-2.81-.7,5.49,5.49,0,0,0-2.75.68l-13.53-7.61,20.63-12a5.7,5.7,0,0,0,2.7.64,5.55,5.55,0,0,0,2.79-.69,2.45,2.45,0,0,0,1.35-2.07A2.5,2.5,0,0,0-3613.61,385.94Zm-7.7,25.07c.43.26.67.57.67.85s-.24.58-.66.83a4.2,4.2,0,0,1-2.09.5,4.2,4.2,0,0,1-2.11-.51c-.43-.26-.68-.56-.68-.85a.74.74,0,0,1,.14-.37h0l0-.07a1.89,1.89,0,0,1,.47-.38,4.22,4.22,0,0,1,2.09-.51A4.34,4.34,0,0,1-3621.31,411Zm7-22.15a4.82,4.82,0,0,1-4.21,0c-.43-.26-.67-.57-.67-.85s.24-.58.66-.83a4.2,4.2,0,0,1,2.09-.5,4.3,4.3,0,0,1,2.11.51c.43.26.68.57.68.85S-3613.87,388.61-3614.29,388.86Z" transform="translate(3723.61 -153.19)"/>
          <path class="cls-28" d="M-3488.87,312.26l.71,1.23,66-40.62-.16-.28a5.71,5.71,0,0,0,2.64.61,5.48,5.48,0,0,0,2.78-.69,2.44,2.44,0,0,0,1.36-2.07,2.5,2.5,0,0,0-1.37-2.09,5.57,5.57,0,0,0-2.82-.71,5.49,5.49,0,0,0-2.78.7,2.44,2.44,0,0,0-1.36,2.07,2.19,2.19,0,0,0,.61,1.47Zm67.06-42.68a4.22,4.22,0,0,1,2.09-.5,4.34,4.34,0,0,1,2.12.51c.43.26.68.56.68.85s-.25.58-.66.83a4.86,4.86,0,0,1-4.21,0c-.43-.26-.68-.57-.68-.85S-3422.23,269.83-3421.81,269.58Z" transform="translate(3723.61 -153.19)"/>
        </g>
        <ellipse class="cls-29" cx="168.64" cy="171" rx="168.64" ry="146.7"/>
        <ellipse class="cls-30" cx="190.57" cy="149.73" rx="124.38" ry="111.52"/>
        <g class="cls-31">
          <path class="cls-32" d="M-3533.73,398.54a18.69,18.69,0,0,1-9.54-2.37l-101-60.09a10.42,10.42,0,0,1-5.47-9c0-4,2.4-7.7,6.59-10.19l57.34-34.1a22.94,22.94,0,0,1,11.59-3,18.67,18.67,0,0,1,9.54,2.37l101,60.09a10.43,10.43,0,0,1,5.47,9c0,4-2.4,7.7-6.59,10.2l-57.34,34.09A22.92,22.92,0,0,1-3533.73,398.54Z" transform="translate(3723.61 -153.19)"/>
          <path class="cls-33" d="M-3585.59,283.26a22.42,22.42,0,0,1,11.55-2.95,21.56,21.56,0,0,1,4.73.59,18.91,18.91,0,0,1,4.72,1.92l100.66,59.86a9.57,9.57,0,0,1,5.06,8.86,10.73,10.73,0,0,1-.6,2.85c-.88,2.54-3.38,5.25-6.22,6.94L-3522.21,395a22.11,22.11,0,0,1-2.43,1.23,23.32,23.32,0,0,1-9,1.83,18.28,18.28,0,0,1-9.41-2.29l-101-60.09a9.55,9.55,0,0,1-5-8.88,11.29,11.29,0,0,1,.49-2.5c.82-2.67,3.4-5.54,6.36-7.3Z" transform="translate(3723.61 -153.19)"/>
          <path class="cls-34" d="M-3585.34,283.71a22,22,0,0,1,11.52-2.87,21.82,21.82,0,0,1,4.7.68,21.43,21.43,0,0,1,4.66,2l100.27,59.63c3.45,2.05,5.07,5.3,4.65,8.75a11.36,11.36,0,0,1-.74,2.71c-.86,2.27-3.74,5.15-6.3,6.67l-55.7,33.13a26.87,26.87,0,0,1-2.39,1.23,23.08,23.08,0,0,1-8.81,1.87,17.82,17.82,0,0,1-9.28-2.22l-101-60.09c-3.46-2.05-5.07-5.32-4.61-8.78a12.19,12.19,0,0,1,.62-2.39c.81-2.38,3.81-5.43,6.47-7Z" transform="translate(3723.61 -153.19)"/>
          <path class="cls-35" d="M-3585.09,284.16a21.53,21.53,0,0,1,11.49-2.78,21.21,21.21,0,0,1,4.66.76,24.68,24.68,0,0,1,4.61,2l99.89,59.4c3.43,2,4.87,5.27,4.23,8.64a13.56,13.56,0,0,1-.88,2.58c-.83,2-4.1,5-6.38,6.39l-54.88,32.64c-.57.33-1.72.95-2.35,1.23a22.71,22.71,0,0,1-8.66,1.9,17.47,17.47,0,0,1-9.15-2.14l-101-60.09c-3.45-2.05-4.87-5.31-4.18-8.68a15.24,15.24,0,0,1,.76-2.28c.8-2.09,4.22-5.32,6.59-6.73Z" transform="translate(3723.61 -153.19)"/>
          <path class="cls-36" d="M-3584.84,284.61a20.92,20.92,0,0,1,11.46-2.69,20.59,20.59,0,0,1,4.62.84,29.25,29.25,0,0,1,4.56,2.1l99.51,59.17c3.41,2,4.68,5.24,3.81,8.52a16,16,0,0,1-1,2.46c-.78,1.71-4.47,4.92-6.46,6.11l-54.06,32.15c-.5.29-1.76,1-2.3,1.22a22.46,22.46,0,0,1-8.52,1.95,17.07,17.07,0,0,1-9-2.07l-101-60.09c-3.44-2-4.69-5.29-3.76-8.58a19.79,19.79,0,0,1,.9-2.16c.76-1.81,4.63-5.22,6.71-6.45Z" transform="translate(3723.61 -153.19)"/>
          <path class="cls-37" d="M-3584.58,285.06a20.54,20.54,0,0,1,11.42-2.61,20.76,20.76,0,0,1,4.58.93,38.28,38.28,0,0,1,4.51,2.15l99.13,59c3.39,2,4.5,5.21,3.4,8.41a22.09,22.09,0,0,1-1.18,2.32c-.71,1.45-4.82,4.82-6.52,5.83l-53.25,31.67c-.43.25-1.8,1-2.26,1.22a22.11,22.11,0,0,1-8.37,2,16.56,16.56,0,0,1-8.88-2l-101-60.08c-3.43-2-4.5-5.27-3.32-8.48.25-.7.7-1.33,1-2.05.71-1.53,5-5.11,6.82-6.17Z" transform="translate(3723.61 -153.19)"/>
          <path class="cls-38" d="M-3584.33,285.51a20.13,20.13,0,0,1,11.39-2.52,20.69,20.69,0,0,1,4.54,1,46.26,46.26,0,0,1,4.46,2.21l98.74,58.72c3.38,2,4.33,5.19,3,8.29a8.86,8.86,0,0,1-1.32,2.2c-.4,1.28-5.18,4.71-6.6,5.55l-52.43,31.18c-.36.21-1.83,1-2.22,1.21a21.77,21.77,0,0,1-8.22,2,16.12,16.12,0,0,1-8.75-1.93l-101-60.08c-3.42-2-4.32-5.26-2.89-8.39a9.13,9.13,0,0,1,1.17-1.93c.37-1.35,5.46-5,6.94-5.89Z" transform="translate(3723.61 -153.19)"/>
          <path class="cls-39" d="M-3584.08,286a19.73,19.73,0,0,1,11.36-2.44,20.17,20.17,0,0,1,4.5,1.1c.62.21,3.9,2,4.41,2.27l98.36,58.49c3.36,2,4.15,5.16,2.57,8.18a9.16,9.16,0,0,1-1.46,2.06c-.32,1-5.55,4.6-6.68,5.28l-51.61,30.69c-.29.17-1.87,1.06-2.18,1.21a21.37,21.37,0,0,1-8.06,2.06,15.79,15.79,0,0,1-8.63-1.85l-101-60.08c-3.4-2-4.15-5.25-2.45-8.29a9,9,0,0,1,1.3-1.82c.3-1.08,5.87-4.9,7.05-5.6Z" transform="translate(3723.61 -153.19)"/>
          <path class="cls-40" d="M-3583.82,286.41a19.29,19.29,0,0,1,11.32-2.35,19.67,19.67,0,0,1,4.46,1.18c.46.16,4,2.1,4.36,2.33l98,58.26c3.34,2,4,5.15,2.16,8.06a9.22,9.22,0,0,1-1.61,1.94c-.24.77-5.91,4.49-6.76,5L-3522.7,391c-.22.13-1.91,1.1-2.14,1.21a21.22,21.22,0,0,1-7.91,2.1,15.48,15.48,0,0,1-8.49-1.78l-101-60.08c-3.4-2-4-5.24-2-8.19a9.76,9.76,0,0,1,1.44-1.71c.22-.81,6.28-4.79,7.17-5.32Z" transform="translate(3723.61 -153.19)"/>
          <path class="cls-41" d="M-3583.57,286.87a18.68,18.68,0,0,1,11.29-2.27,19.18,19.18,0,0,1,4.42,1.26c.31.11,4.06,2.24,4.31,2.39l97.59,58c3.33,2,3.84,5.12,1.75,7.94A9.53,9.53,0,0,1-3466,356c-.16.52-6.27,4.39-6.84,4.72l-50,29.72c-.15.08-1.94,1.13-2.09,1.2a20.61,20.61,0,0,1-7.77,2.14,15,15,0,0,1-8.36-1.7L-3642,332c-3.39-2-3.84-5.25-1.6-8.09a10.34,10.34,0,0,1,1.58-1.6c.15-.54,6.69-4.68,7.28-5Z" transform="translate(3723.61 -153.19)"/>
          <path class="cls-42" d="M-3583.32,287.32a18.4,18.4,0,0,1,11.26-2.19,19.21,19.21,0,0,1,4.38,1.35c.15.06,4.13,2.37,4.26,2.45l97.21,57.81c3.31,2,3.68,5.12,1.33,7.82a9.78,9.78,0,0,1-1.89,1.68c-.08.26-6.64,4.27-6.92,4.44l-49.15,29.23-2,1.2a20.65,20.65,0,0,1-7.62,2.18,14.71,14.71,0,0,1-8.23-1.63l-101-60.09c-3.38-2-3.68-5.25-1.16-8a9.69,9.69,0,0,1,1.71-1.48c.08-.27,7.1-4.58,7.4-4.76Z" transform="translate(3723.61 -153.19)"/>
          <path d="M-3540.49,391.21l-101-60.09c-4-2.37-3.48-6.51,1.12-9.25l57.34-34.1c4.61-2.74,11.58-3,15.57-.67l101,60.09c4,2.37,3.49,6.51-1.12,9.25l-57.34,34.1C-3529.53,393.28-3536.5,393.58-3540.49,391.21Z" transform="translate(3723.61 -153.19)"/>
        </g>
        <path class="cls-43" d="M-3540.49,391.11l-101-60.08a4.82,4.82,0,0,1-2.69-3.95v-5.15c0-1.8,1.32,1.32,3.81-.16l57.34-34.1c4.61-2.74,11.58-3,15.57-.66l101,60.08c1.33.79,2.3-2.57,2.64-1.5.12.36,0,5.07.05,5.44,0,1.85-1.25,3.8-3.81,5.32l-57.34,34.1C-3529.53,393.19-3536.5,393.49-3540.49,391.11Z" transform="translate(3723.61 -153.19)"/>
        <path class="cls-44" d="M-3540.49,386.05l-101-60.08c-4-2.37-3.48-6.52,1.12-9.26l57.34-34.1c4.61-2.74,11.58-3,15.57-.66l101,60.08c4,2.37,3.49,6.52-1.12,9.26l-57.34,34.1C-3529.53,388.13-3536.5,388.43-3540.49,386.05Z" transform="translate(3723.61 -153.19)"/>
        <path class="cls-45" d="M-3533.73,385.58a11.45,11.45,0,0,1-5.75-1.33l-101-60.08c-.63-.38-1.68-1.16-1.68-2.22s1-2.4,2.8-3.44l57.34-34.1a15.74,15.74,0,0,1,7.8-2,11.43,11.43,0,0,1,5.75,1.33l101,60.08c.63.38,1.68,1.16,1.68,2.22s-1,2.4-2.8,3.44l-57.34,34.1A15.71,15.71,0,0,1-3533.73,385.58Z" transform="translate(3723.61 -153.19)"/>
        <path class="cls-46" d="M-3467.58,350.43l-57.34,34.1c-4.61,2.74-11.58,3-15.57.66l-101-60.08a4.94,4.94,0,0,1-2.66-3.64c-.21,1.68.67,3.31,2.66,4.5l101,60.08c4,2.38,11,2.08,15.57-.66l57.34-34.1c2.7-1.6,4-3.69,3.78-5.62C-3464,347.35-3465.28,349.06-3467.58,350.43Z" transform="translate(3723.61 -153.19)"/>
        <path class="cls-47" d="M-3467.71,339.72l-99.37-59.1a8.68,8.68,0,0,1-3.84-9.79l21.65-77.14a8.25,8.25,0,0,1,12.15-5.05l99.38,59.1a8.69,8.69,0,0,1,3.84,9.79l-21.65,77.14A8.26,8.26,0,0,1-3467.71,339.72Z" transform="translate(3723.61 -153.19)"/>
        <path class="cls-48" d="M-3469.1,339.72l-99.37-59.1a8.67,8.67,0,0,1-3.84-9.79l21.65-77.14a8.25,8.25,0,0,1,12.15-5.05l99.38,59.1a8.69,8.69,0,0,1,3.84,9.79l-21.65,77.14A8.26,8.26,0,0,1-3469.1,339.72Z" transform="translate(3723.61 -153.19)"/>
        <g>
          <path class="cls-49" d="M-3464.95,338a5.35,5.35,0,0,1-2.76-.77l-99.37-59.1a5.78,5.78,0,0,1-2.56-6.52l21.65-77.14a5.6,5.6,0,0,1,5.34-4.13,5.29,5.29,0,0,1,2.75.77l99.38,59.1a5.76,5.76,0,0,1,2.55,6.52l-21.64,77.13A5.61,5.61,0,0,1-3464.95,338Z" transform="translate(3723.61 -153.19)"/>
          <path class="cls-50" d="M-3465.06,337.81a5.28,5.28,0,0,1-2.74-.77l-99-58.88a5.76,5.76,0,0,1-2.55-6.5l21.59-76.9a5.57,5.57,0,0,1,5.31-4.12,5.29,5.29,0,0,1,2.75.77l99,58.88a5.73,5.73,0,0,1,2.54,6.49l-21.58,76.91A5.59,5.59,0,0,1-3465.06,337.81Z" transform="translate(3723.61 -153.19)"/>
          <path class="cls-51" d="M-3465.16,337.61a5.37,5.37,0,0,1-2.74-.76l-98.66-58.68a5.72,5.72,0,0,1-2.53-6.47l21.51-76.67a5.56,5.56,0,0,1,5.3-4.1,5.25,5.25,0,0,1,2.74.76l98.66,58.67a5.73,5.73,0,0,1,2.54,6.47l-21.52,76.68A5.58,5.58,0,0,1-3465.16,337.61Z" transform="translate(3723.61 -153.19)"/>
          <path class="cls-52" d="M-3465.27,337.41a5.3,5.3,0,0,1-2.72-.76l-98.31-58.46a5.71,5.71,0,0,1-2.52-6.45l21.45-76.44a5.53,5.53,0,0,1,5.28-4.09,5.33,5.33,0,0,1,2.73.76l98.3,58.46a5.7,5.7,0,0,1,2.53,6.45L-3460,333.32A5.53,5.53,0,0,1-3465.27,337.41Z" transform="translate(3723.61 -153.19)"/>
          <path class="cls-53" d="M-3465.37,337.21a5.2,5.2,0,0,1-2.72-.76L-3566,278.21a5.69,5.69,0,0,1-2.52-6.43l21.39-76.21a5.51,5.51,0,0,1,5.26-4.07,5.2,5.2,0,0,1,2.72.76l97.94,58.24a5.7,5.7,0,0,1,2.52,6.43l-21.39,76.21A5.51,5.51,0,0,1-3465.37,337.21Z" transform="translate(3723.61 -153.19)"/>
          <path class="cls-54" d="M-3465.47,337a5.22,5.22,0,0,1-2.71-.75l-97.59-58a5.67,5.67,0,0,1-2.51-6.4l21.33-76a5.49,5.49,0,0,1,5.24-4.06,5.23,5.23,0,0,1,2.7.76l97.59,58a5.67,5.67,0,0,1,2.51,6.4l-21.32,76A5.51,5.51,0,0,1-3465.47,337Z" transform="translate(3723.61 -153.19)"/>
          <path class="cls-55" d="M-3465.58,336.81a5.22,5.22,0,0,1-2.7-.75l-97.23-57.82a5.65,5.65,0,0,1-2.5-6.38l21.26-75.75a5.49,5.49,0,0,1,5.22-4,5.22,5.22,0,0,1,2.7.75l97.23,57.82a5.65,5.65,0,0,1,2.5,6.38l-21.26,75.75A5.47,5.47,0,0,1-3465.58,336.81Z" transform="translate(3723.61 -153.19)"/>
          <path class="cls-56" d="M-3465.68,336.61a5.16,5.16,0,0,1-2.69-.75l-96.87-57.6a5.62,5.62,0,0,1-2.49-6.36l21.19-75.51a5.45,5.45,0,0,1,5.2-4,5.18,5.18,0,0,1,2.69.75l96.87,57.6a5.63,5.63,0,0,1,2.49,6.36l-21.19,75.52A5.46,5.46,0,0,1-3465.68,336.61Z" transform="translate(3723.61 -153.19)"/>
          <path class="cls-57" d="M-3465.79,336.41a5.26,5.26,0,0,1-2.68-.74l-96.51-57.4a5.59,5.59,0,0,1-2.48-6.33l21.13-75.28a5.44,5.44,0,0,1,5.18-4,5.27,5.27,0,0,1,2.68.75l96.51,57.4a5.58,5.58,0,0,1,2.48,6.33l-21.13,75.28A5.44,5.44,0,0,1-3465.79,336.41Z" transform="translate(3723.61 -153.19)"/>
          <path class="cls-58" d="M-3465.89,336.21a5.2,5.2,0,0,1-2.67-.74l-96.16-57.18a5.59,5.59,0,0,1-2.47-6.31l21.06-75.05a5.43,5.43,0,0,1,5.17-4,5.2,5.2,0,0,1,2.67.74l96.15,57.19a5.56,5.56,0,0,1,2.47,6.3l-21.06,75.06A5.42,5.42,0,0,1-3465.89,336.21Z" transform="translate(3723.61 -153.19)"/>
          <path class="cls-59" d="M-3466,336a5.08,5.08,0,0,1-2.66-.75l-95.8-57a5.55,5.55,0,0,1-2.46-6.28l21-74.82a5.4,5.4,0,0,1,5.15-4,5.13,5.13,0,0,1,2.65.74l95.8,57a5.56,5.56,0,0,1,2.47,6.28l-21,74.82A5.39,5.39,0,0,1-3466,336Z" transform="translate(3723.61 -153.19)"/>
          <path class="cls-60" d="M-3466.1,335.82a5.1,5.1,0,0,1-2.65-.74l-95.44-56.76a5.54,5.54,0,0,1-2.46-6.26l20.94-74.59a5.38,5.38,0,0,1,5.12-4,5.1,5.1,0,0,1,2.65.74L-3442.5,251a5.54,5.54,0,0,1,2.46,6.26L-3461,331.85A5.38,5.38,0,0,1-3466.1,335.82Z" transform="translate(3723.61 -153.19)"/>
        </g>
        <path class="cls-46" d="M-3439.13,247.74l-99.38-59.1a8,8,0,0,0-5.69-1,8,8,0,0,1,5,1.09l99.37,59.09a8.69,8.69,0,0,1,3.84,9.79l-21.65,77.14a8.4,8.4,0,0,1-6.46,6.05,8.39,8.39,0,0,0,7.11-6.14l21.65-77.14A8.69,8.69,0,0,0-3439.13,247.74Z" transform="translate(3723.61 -153.19)"/>
        <ellipse class="cls-61" cx="-3508.79" cy="378.74" rx="33.04" ry="22.38" transform="translate(3267.65 -1545.14) rotate(-23.95)"/>
        <ellipse class="cls-62" cx="-3585.34" cy="304.22" rx="25.31" ry="15.29" transform="translate(3400.48 -1367.26) rotate(-20.11)"/>
        <path class="cls-63" d="M-3522.53,363.92l-82-48.79c-1.64-1-1.44-2.69.46-3.81l30.81-18.32a7,7,0,0,1,6.41-.28l82,48.8c1.65,1,1.44,2.68-.46,3.81l-30.8,18.32A7,7,0,0,1-3522.53,363.92Z" transform="translate(3723.61 -153.19)"/>
        <path class="cls-64" d="M-3571.52,296.56l5.26,3.13a2.57,2.57,0,0,0,2.41,0,.76.76,0,0,0,0-1.43l-5.26-3.13a2.59,2.59,0,0,0-2.42,0A.76.76,0,0,0-3571.52,296.56Zm9,5.36,2.49,1.48a2.59,2.59,0,0,0,2.42,0,.76.76,0,0,0,0-1.43l-2.49-1.48a2.6,2.6,0,0,0-2.41,0A.77.77,0,0,0-3562.52,301.92Zm6.24,3.7,2.49,1.49a2.63,2.63,0,0,0,2.41,0,.77.77,0,0,0,0-1.44l-2.5-1.48a2.6,2.6,0,0,0-2.41,0A.76.76,0,0,0-3556.28,305.62Zm6.23,3.71,2.49,1.48a2.62,2.62,0,0,0,2.42,0,.77.77,0,0,0,0-1.44l-2.49-1.48a2.57,2.57,0,0,0-2.41,0A.76.76,0,0,0-3550,309.33Zm6.24,3.71,2.49,1.48a2.6,2.6,0,0,0,2.41,0,.77.77,0,0,0,0-1.44l-2.5-1.48a2.6,2.6,0,0,0-2.41,0A.77.77,0,0,0-3543.81,313Zm6.23,3.71,2.49,1.48a2.59,2.59,0,0,0,2.42,0,.76.76,0,0,0,0-1.43l-2.49-1.48a2.6,2.6,0,0,0-2.41,0A.77.77,0,0,0-3537.58,316.75Zm6.24,3.71,2.49,1.48a2.6,2.6,0,0,0,2.41,0,.76.76,0,0,0,0-1.43l-2.5-1.49a2.6,2.6,0,0,0-2.41,0A.77.77,0,0,0-3531.34,320.46Zm6.23,3.7,2.49,1.48a2.62,2.62,0,0,0,2.42,0,.77.77,0,0,0,0-1.44l-2.49-1.48a2.57,2.57,0,0,0-2.41,0A.76.76,0,0,0-3525.11,324.16Zm6.24,3.71,2.49,1.48a2.6,2.6,0,0,0,2.41,0,.77.77,0,0,0,0-1.44l-2.49-1.48a2.57,2.57,0,0,0-2.41,0A.76.76,0,0,0-3518.87,327.87Zm6.23,3.71,2.49,1.48a2.59,2.59,0,0,0,2.42,0,.76.76,0,0,0,0-1.43l-2.49-1.48a2.6,2.6,0,0,0-2.41,0A.77.77,0,0,0-3512.64,331.58Zm6.24,3.71,2.49,1.48a2.6,2.6,0,0,0,2.41,0,.76.76,0,0,0,0-1.43l-2.49-1.48a2.6,2.6,0,0,0-2.41,0A.77.77,0,0,0-3506.4,335.29Zm6.23,3.7,2.49,1.48a2.62,2.62,0,0,0,2.42,0,.77.77,0,0,0,0-1.44l-2.49-1.48a2.6,2.6,0,0,0-2.41,0A.76.76,0,0,0-3500.17,339Zm6.37,3.79,2.49,1.48a2.57,2.57,0,0,0,2.41,0,.76.76,0,0,0,0-1.43l-2.49-1.48a2.6,2.6,0,0,0-2.41,0A.77.77,0,0,0-3493.8,342.78Zm-83.33-42.68,2.16,1.28a3,3,0,0,0,2.75,0l2.14-1.27a.87.87,0,0,0,0-1.63l-2.15-1.29a3,3,0,0,0-2.75,0l-2.14,1.27A.87.87,0,0,0-3577.13,300.1Zm11.14,5,2.14-1.27a.87.87,0,0,0,0-1.64l-2.16-1.28a3,3,0,0,0-2.75,0l-2.14,1.27a.87.87,0,0,0,0,1.63l2.16,1.29A3,3,0,0,0-3566,305.09Zm1.33,2.42,2.16,1.28a2.94,2.94,0,0,0,2.75,0l2.14-1.27a.87.87,0,0,0,0-1.64l-2.16-1.28a3,3,0,0,0-2.74,0l-2.14,1.28A.87.87,0,0,0-3564.66,307.51Zm6.24,3.71,2.15,1.28a3,3,0,0,0,2.75,0l2.14-1.28a.87.87,0,0,0,0-1.63l-2.16-1.28a2.94,2.94,0,0,0-2.75,0l-2.14,1.28A.87.87,0,0,0-3558.42,311.22Zm13.27,2.09-2.16-1.29a3,3,0,0,0-2.74,0l-2.14,1.27a.87.87,0,0,0,0,1.64l2.16,1.28a3,3,0,0,0,2.75,0l2.14-1.27A.87.87,0,0,0-3545.15,313.31Zm6.24,3.7-2.16-1.28a3,3,0,0,0-2.75,0L-3546,317a.87.87,0,0,0,0,1.64l2.15,1.28a3,3,0,0,0,2.75,0l2.14-1.27A.87.87,0,0,0-3538.91,317Zm6.23,3.71-2.16-1.28a3,3,0,0,0-2.74,0l-2.15,1.27a.87.87,0,0,0,0,1.63l2.16,1.29a3,3,0,0,0,2.75,0l2.14-1.27A.87.87,0,0,0-3532.68,320.72Zm6.24,3.71-2.16-1.28a3,3,0,0,0-2.75,0l-2.14,1.28a.87.87,0,0,0,0,1.63l2.15,1.28a2.94,2.94,0,0,0,2.75,0l2.14-1.28A.87.87,0,0,0-3526.44,324.43Zm6.23,3.71-2.16-1.28a2.92,2.92,0,0,0-2.74,0l-2.15,1.27a.88.88,0,0,0,0,1.64l2.16,1.28a3,3,0,0,0,2.75,0l2.14-1.28A.87.87,0,0,0-3520.21,328.14Zm6.24,3.71-2.16-1.29a3,3,0,0,0-2.75,0l-2.14,1.27a.87.87,0,0,0,0,1.64l2.15,1.28a3,3,0,0,0,2.75,0l2.14-1.27A.87.87,0,0,0-3514,331.85Zm-.81,5.32,2.16,1.29a3,3,0,0,0,2.75,0l2.14-1.27a.87.87,0,0,0,0-1.64l-2.16-1.28a3,3,0,0,0-2.74,0l-2.15,1.27A.87.87,0,0,0-3514.78,337.17Zm13.28,2.09-2.16-1.28a3,3,0,0,0-2.75,0l-2.14,1.28a.87.87,0,0,0,0,1.63l2.15,1.28a2.94,2.94,0,0,0,2.75,0l2.14-1.28A.87.87,0,0,0-3501.5,339.26Zm9.13,5.43-4.93-2.93a3,3,0,0,0-2.74,0l-2.15,1.27a.88.88,0,0,0,0,1.64l4.93,2.92a2.92,2.92,0,0,0,2.74,0l2.15-1.27A.88.88,0,0,0-3492.37,344.69Zm-90.53-41.16,4.92,2.93a3,3,0,0,0,2.75,0l2.14-1.27a.87.87,0,0,0,0-1.63l-4.92-2.93a3,3,0,0,0-2.75,0l-2.14,1.28A.87.87,0,0,0-3582.9,303.53Zm9,5.35,2.16,1.29a3,3,0,0,0,2.74,0l2.15-1.27a.88.88,0,0,0,0-1.64L-3569,306a3,3,0,0,0-2.74,0l-2.15,1.27A.87.87,0,0,0-3573.9,308.88Zm8.39,5a2.94,2.94,0,0,0,2.75,0l2.14-1.27a.87.87,0,0,0,0-1.64l-2.15-1.28a3,3,0,0,0-2.75,0l-2.14,1.28a.87.87,0,0,0,0,1.63Zm6.24,3.71a3,3,0,0,0,2.74,0l2.15-1.28a.87.87,0,0,0,0-1.63l-2.16-1.28a2.92,2.92,0,0,0-2.74,0l-2.15,1.28a.87.87,0,0,0,0,1.63Zm6.21-.48-2.14,1.27a.87.87,0,0,0,0,1.64l2.15,1.28a3,3,0,0,0,2.75,0l2.14-1.27a.87.87,0,0,0,0-1.63l-2.15-1.29A3,3,0,0,0-3553.06,317.1Zm6.37,3.63-2.41,1.43a.79.79,0,0,0,0,1.48l2.42,1.44a2.65,2.65,0,0,0,2.48,0l2.41-1.43a.79.79,0,0,0,0-1.48l-2.42-1.44A2.65,2.65,0,0,0-3546.69,320.73Zm6.23,3.71-2.4,1.43a.78.78,0,0,0,0,1.47l2.42,1.44a2.7,2.7,0,0,0,2.49,0l2.4-1.43a.79.79,0,0,0,0-1.48l-2.43-1.44A2.65,2.65,0,0,0-3540.46,324.44Zm6.24,3.7-2.41,1.44a.78.78,0,0,0,0,1.47l2.42,1.44a2.68,2.68,0,0,0,2.48,0l2.41-1.43a.79.79,0,0,0,0-1.48l-2.42-1.44A2.68,2.68,0,0,0-3534.22,328.14Zm6.23,3.71-2.4,1.43a.79.79,0,0,0,0,1.48l2.42,1.44a2.67,2.67,0,0,0,2.49,0l2.4-1.43a.78.78,0,0,0,0-1.47l-2.43-1.44A2.68,2.68,0,0,0-3528,331.85Zm6.24,3.71-2.41,1.43a.79.79,0,0,0,0,1.48l2.42,1.44a2.65,2.65,0,0,0,2.48,0l2.41-1.43a.79.79,0,0,0,0-1.48l-2.42-1.44A2.68,2.68,0,0,0-3521.75,335.56Zm8.74,8.06,2.4-1.43a.79.79,0,0,0,0-1.48l-2.43-1.44a2.65,2.65,0,0,0-2.48,0l-2.41,1.43a.78.78,0,0,0,0,1.47l2.42,1.44A2.67,2.67,0,0,0-3513,343.62Zm6.23,3.71,2.41-1.43a.79.79,0,0,0,0-1.48l-2.42-1.44a2.65,2.65,0,0,0-2.48,0l-2.41,1.43a.78.78,0,0,0,0,1.47l2.42,1.44A2.68,2.68,0,0,0-3506.78,347.33Zm8.76.87-2.42-1.44a2.68,2.68,0,0,0-2.48,0l-2.41,1.43a.79.79,0,0,0,0,1.48l2.42,1.44a2.67,2.67,0,0,0,2.49,0l2.4-1.43A.79.79,0,0,0-3498,348.2Zm-90.79-41.31,7.82,4.65a2.68,2.68,0,0,0,2.48,0l2.41-1.43a.79.79,0,0,0,0-1.48l-7.82-4.65a2.65,2.65,0,0,0-2.48,0l-2.41,1.43A.79.79,0,0,0-3588.81,306.89Zm11.63,6.91,2.42,1.44a2.7,2.7,0,0,0,2.49,0l2.4-1.43a.79.79,0,0,0,0-1.48l-2.43-1.44a2.65,2.65,0,0,0-2.48,0l-2.41,1.43A.78.78,0,0,0-3577.18,313.8Zm6.24,3.71,2.42,1.44a2.68,2.68,0,0,0,2.48,0l2.41-1.44a.78.78,0,0,0,0-1.47l-2.42-1.44a2.68,2.68,0,0,0-2.48,0l-2.41,1.43A.79.79,0,0,0-3570.94,317.51Zm6.23,3.71,2.42,1.44a2.67,2.67,0,0,0,2.49,0l2.4-1.43a.78.78,0,0,0,0-1.47l-2.42-1.44a2.65,2.65,0,0,0-2.48,0l-2.41,1.43A.79.79,0,0,0-3564.71,321.22Zm11.14,5.15,2.41-1.43a.79.79,0,0,0,0-1.48l-2.42-1.44a2.65,2.65,0,0,0-2.48,0l-2.41,1.43a.79.79,0,0,0,0,1.48l2.42,1.44A2.68,2.68,0,0,0-3553.57,326.37Zm6.24,3.71,2.4-1.43a.79.79,0,0,0,0-1.48l-2.42-1.44a2.65,2.65,0,0,0-2.48,0l-2.41,1.43a.78.78,0,0,0,0,1.47l2.42,1.44A2.7,2.7,0,0,0-3547.33,330.08Zm6.23,3.71,2.41-1.43a.79.79,0,0,0,0-1.48l-2.42-1.44a2.68,2.68,0,0,0-2.48,0l-2.41,1.44a.78.78,0,0,0,0,1.47l2.42,1.44A2.68,2.68,0,0,0-3541.1,333.79Zm6.24,3.7,2.4-1.43a.78.78,0,0,0,0-1.47l-2.42-1.44a2.68,2.68,0,0,0-2.48,0l-2.41,1.43a.79.79,0,0,0,0,1.48l2.42,1.44A2.67,2.67,0,0,0-3534.86,337.49Zm6.23,3.71,2.41-1.43a.79.79,0,0,0,0-1.48l-2.42-1.44a2.68,2.68,0,0,0-2.48,0l-2.41,1.43a.79.79,0,0,0,0,1.48l2.42,1.44A2.65,2.65,0,0,0-3528.63,341.2Zm6.24,3.71,2.4-1.43a.79.79,0,0,0,0-1.48l-2.42-1.44a2.65,2.65,0,0,0-2.48,0l-2.41,1.43a.78.78,0,0,0,0,1.47l2.42,1.44A2.67,2.67,0,0,0-3522.39,344.91Zm1.33,2.26,2.42,1.44a2.68,2.68,0,0,0,2.48,0l2.41-1.43a.79.79,0,0,0,0-1.48l-2.42-1.44a2.65,2.65,0,0,0-2.48,0l-2.41,1.43A.78.78,0,0,0-3521.06,347.17Zm17.27,4.47-6.16-3.66a2.68,2.68,0,0,0-2.48,0l-2.41,1.43a.79.79,0,0,0,0,1.48l6.16,3.66a2.68,2.68,0,0,0,2.48,0l2.41-1.43A.79.79,0,0,0-3503.79,351.64Zm-90.77-41.14,11.09,6.59a3,3,0,0,0,2.81,0l2.08-1.24a.89.89,0,0,0,0-1.67l-11.09-6.59a3,3,0,0,0-2.8,0l-2.09,1.24A.89.89,0,0,0-3594.56,310.5Zm15.23,9.05,2.1,1.25a3,3,0,0,0,2.8,0l2.09-1.24a.89.89,0,0,0,0-1.67l-2.1-1.25a3,3,0,0,0-2.8,0l-2.09,1.24A.88.88,0,0,0-3579.33,319.55Zm6.23,3.71,2.1,1.25a3,3,0,0,0,2.81,0l2.08-1.24a.88.88,0,0,0,0-1.66l-2.09-1.25a3,3,0,0,0-2.81,0l-2.08,1.24A.89.89,0,0,0-3573.1,323.26Zm6.24,3.71,2.1,1.25a3,3,0,0,0,2.8,0l2.09-1.24a.89.89,0,0,0,0-1.67l-2.1-1.24a3,3,0,0,0-2.8,0l-2.09,1.24A.89.89,0,0,0-3566.86,327Zm6.23,3.71,2.1,1.25a3,3,0,0,0,2.81,0l2.08-1.24a.89.89,0,0,0,0-1.67l-2.1-1.25a3,3,0,0,0-2.8,0l-2.09,1.24A.89.89,0,0,0-3560.63,330.68Zm6.24,3.7,2.1,1.25a3,3,0,0,0,2.8,0l2.09-1.24a.89.89,0,0,0,0-1.67l-2.1-1.25a3,3,0,0,0-2.8,0l-2.09,1.24A.88.88,0,0,0-3554.39,334.38Zm6.23,3.71,2.1,1.25a3.06,3.06,0,0,0,2.81,0l2.08-1.24a.89.89,0,0,0,0-1.67l-2.1-1.25a3,3,0,0,0-2.8,0l-2.09,1.24A.89.89,0,0,0-3548.16,338.09Zm6.24,3.71,2.1,1.25a3,3,0,0,0,2.8,0l2.09-1.24a.89.89,0,0,0,0-1.66l-2.1-1.25a3,3,0,0,0-2.8,0l-2.09,1.24A.89.89,0,0,0-3541.92,341.8Zm6.23,3.71,2.1,1.25a3,3,0,0,0,2.81,0l2.08-1.24a.89.89,0,0,0,0-1.67l-2.1-1.24a3,3,0,0,0-2.8,0l-2.09,1.24A.89.89,0,0,0-3535.69,345.51Zm6.24,3.71,2.1,1.24a3,3,0,0,0,2.8,0l2.09-1.24a.89.89,0,0,0,0-1.67l-2.1-1.25a3,3,0,0,0-2.81,0l-2.08,1.24A.89.89,0,0,0-3529.45,349.22Zm6.23,3.7,2.1,1.25a3,3,0,0,0,2.81,0l2.08-1.24a.89.89,0,0,0,0-1.67l-2.1-1.25a3,3,0,0,0-2.8,0l-2.09,1.24A.89.89,0,0,0-3523.22,352.92Zm13.36,2.14-2.1-1.25a3,3,0,0,0-2.81,0l-2.08,1.24a.88.88,0,0,0,0,1.66l2.09,1.25a3,3,0,0,0,2.81,0l2.08-1.24A.89.89,0,0,0-3509.86,355.06Zm-80.73-41.14-4.86-2.89a3.06,3.06,0,0,0-2.81,0l-2.08,1.24a.89.89,0,0,0,0,1.67l4.86,2.9a3,3,0,0,0,2.81,0l2.08-1.24A.89.89,0,0,0-3590.59,313.92Zm6.24,3.71-2.1-1.25a3,3,0,0,0-2.81,0l-2.08,1.24a.89.89,0,0,0,0,1.67l2.1,1.24a3,3,0,0,0,2.8,0l2.09-1.24A.89.89,0,0,0-3584.35,317.63Zm6.23,3.71-2.1-1.25a3,3,0,0,0-2.8,0l-2.09,1.24a.89.89,0,0,0,0,1.66l2.1,1.25a3,3,0,0,0,2.81,0l2.08-1.24A.89.89,0,0,0-3578.12,321.34Zm43.65,26L-3574,323.8a3,3,0,0,0-2.81,0l-2.08,1.24a.89.89,0,0,0,0,1.67l39.51,23.5a3,3,0,0,0,2.8,0l2.09-1.24A.89.89,0,0,0-3534.47,347.29Zm6.23,3.71-2.1-1.25a3,3,0,0,0-2.8,0l-2.09,1.24a.89.89,0,0,0,0,1.67l2.1,1.24a3,3,0,0,0,2.81,0l2.08-1.24A.89.89,0,0,0-3528.24,351Zm6.24,3.71-2.1-1.25a3,3,0,0,0-2.81,0l-2.08,1.24a.88.88,0,0,0,0,1.66l2.1,1.25a3,3,0,0,0,2.8,0l2.09-1.24A.89.89,0,0,0-3522,354.71Zm6.36,3.78-2.1-1.24a3,3,0,0,0-2.8,0l-2.09,1.24a.89.89,0,0,0,0,1.67l2.1,1.25a3,3,0,0,0,2.8,0l2.09-1.24A.89.89,0,0,0-3515.64,358.49Z" transform="translate(3723.61 -153.19)"/>
        <g class="cls-65">
          <g>
            <g>
              <path class="cls-66" d="M-3457.08,368.61c-1,5.73-3.62,9.43-7.08,10.82l-18.13,6.92c-3.57,1.28-.76-2.58-5.18-6.43-8.9-7.73-14.46-23.51-12.42-35.24,1-5.8-4.19-6.81-.67-8.16l18.76-6.9c3.55-1.21,7.92-.06,12.3,3.74C-3460.6,341.1-3455,356.87-3457.08,368.61Z" transform="translate(3723.61 -153.19)"/>
              <path class="cls-67" d="M-3457.08,368.61c-1,5.73-3.62,9.43-7.08,10.82l-18.13,6.92c-3.57,1.28-.76-2.58-5.18-6.43-8.9-7.73-14.46-23.51-12.42-35.24,1-5.8-4.19-6.81-.67-8.16l18.76-6.9c3.55-1.21,7.92-.06,12.3,3.74C-3460.6,341.1-3455,356.87-3457.08,368.61Z" transform="translate(3723.61 -153.19)"/>
              <ellipse class="cls-68" cx="-3491.8" cy="361.59" rx="14.91" ry="26.43" transform="translate(3412.91 -1276.19) rotate(-19.11)"/>
              <path class="cls-69" d="M-3487.17,340.07c-4.26-3.71-8.52-4.89-12-3.83,3.14-.31,6.75,1,10.36,4.16,8.9,7.73,14.46,23.51,12.42,35.25-1.06,6.1-4,9.9-7.78,11.06,4.61-.46,8.23-4.43,9.44-11.4C-3472.71,363.58-3478.27,347.8-3487.17,340.07Z" transform="translate(3723.61 -153.19)"/>
            </g>
            <path class="cls-70" d="M-3478.68,376.28c-1,5.56-3.52,9.16-6.88,10.51l-7.62,2.86c-18.57,7-53.77,18.71-53.77,18.71-5.86,2.09-27.7-61.63-21.91-63.85h0a92.24,92.24,0,0,0,55.89-2.34l10.25-3.78c3.45-1.17,7.69-.06,11.94,3.64C-3482.1,349.55-3476.7,364.88-3478.68,376.28Z" transform="translate(3723.61 -153.19)"/>
            <g>
              <path class="cls-71" d="M-3581.15,361.25c-2.58,14.87,1.85,33.47,10.43,47.69h39c2-20-7.47-45.14-22.09-57.84-7.62-6.62-15.23-8.62-21.41-6.52l-7.1,2.47C-3588.44,349.4-3579.39,351.15-3581.15,361.25Z" transform="translate(3723.61 -153.19)"/>
              <path class="cls-72" d="M-3538.35,408.94c.95-19.5-8.29-43.07-22.28-55.22-15.49-13.46-30.93-7.82-34.48,12.6-2.29,13.16.92,29.24,7.64,42.62Z" transform="translate(3723.61 -153.19)"/>
              <path class="cls-73" d="M-3540.31,409.22c1.44-18.49-7.31-41.42-20.74-53.09-14.48-12.59-28.91-7.31-32.23,11.78-2.23,12.79,1.11,28.53,7.9,41.31Z" transform="translate(3723.61 -153.19)"/>
              <path class="cls-74" d="M-3578.58,408.94c-7.21-13-10.81-29.29-8.52-42.46,1.53-8.8,5.43-14.65,10.59-17.18-8.16,0-14.68,6.56-16.77,18.61-2.21,12.69,1.06,28.29,7.75,41Z" transform="translate(3723.61 -153.19)"/>
            </g>
            <g>
              <path class="cls-75" d="M-3547.38,374.85l-16.35,9.38c-1,.38.46.65.18,2.26a11.69,11.69,0,0,0,3.44,9.75c1.22,1.06.44,2.13,1.43,1.78l17.59-3.45A75.46,75.46,0,0,0-3547.38,374.85Z" transform="translate(3723.61 -153.19)"/>
              <path class="cls-76" d="M-3556.85,395c-.57,3.25-3,4.14-5.48,2a11.68,11.68,0,0,1-3.44-9.75c.57-3.24,3-4.14,5.48-2A11.69,11.69,0,0,1-3556.85,395Z" transform="translate(3723.61 -153.19)"/>
              <path class="cls-77" d="M-3560,385.21a3.56,3.56,0,0,0-3.32-1,3.87,3.87,0,0,1,2.86,1.15,11.67,11.67,0,0,1,3.44,9.74c-.29,1.69-1.1,2.74-2.15,3.06,1.27-.12,2.27-1.22,2.61-3.15A11.69,11.69,0,0,0-3560,385.21Z" transform="translate(3723.61 -153.19)"/>
            </g>
            <g>
              <path class="cls-78" d="M-3513.08,322l-8.46-5c-1.64-1-3.07-.78-3.85.31l0-.18-9.87,5.87c-1,.37-1.66,1.46-1.66,3.13l.06.41c1.11,9,5.06,15.87,5.06,24.31l-3.25,4.79,14,8.32,10.77-6.51v-2.9a167.92,167.92,0,0,1,1.73-24.55A10.25,10.25,0,0,0-3513.08,322Z" transform="translate(3723.61 -153.19)"/>
              <path class="cls-79" d="M-3532.31,323.46l8.46,5a10.25,10.25,0,0,1,4.48,8h0a168.15,168.15,0,0,0-1.72,24.55v2.91l-14-8.32v-2.9a214.1,214.1,0,0,0-1.67-26.18l-.06-.42C-3536.8,323.16-3534.79,322-3532.31,323.46Z" transform="translate(3723.61 -153.19)"/>
              <g>
                <polygon class="cls-80" points="197.72 192.23 196.52 202.22 199.13 200.66 199.13 191.35 197.72 192.23"/>
                <polygon class="cls-81" points="197.72 192.23 196.53 202.22 191.42 199.24 192.62 189.2 197.72 192.23"/>
                <polygon class="cls-82" points="192.62 189.2 197.72 192.23 199.13 191.35 194.01 188.35 192.62 189.2"/>
              </g>
            </g>
          </g>
        </g>
        <g>
          <path class="cls-32" d="M-3591.63,342l73.16-33.91a20.91,20.91,0,0,1,16.26-.59l9.72,3.67a3.5,3.5,0,0,1,.26,6.39l-68.83,33a20.93,20.93,0,0,1-13.62,1.57L-3591,348.5A3.49,3.49,0,0,1-3591.63,342Z" transform="translate(3723.61 -153.19)"/>
          <path class="cls-83" d="M-3588.4,348.24a3.55,3.55,0,0,1-.68-6.65l70.08-32.44a18,18,0,0,1,14-.51l9.11,3.44a3.57,3.57,0,0,1,.27,6.5l-64.66,31a22.46,22.46,0,0,1-14.56,1.69Z" transform="translate(3723.61 -153.19)"/>
          <path class="cls-84" d="M-3585.84,348a3.6,3.6,0,0,1-.69-6.75l67-31a15.13,15.13,0,0,1,11.77-.43l8.5,3.22a3.61,3.61,0,0,1,.27,6.59l-60.49,29a23.84,23.84,0,0,1-15.5,1.79Z" transform="translate(3723.61 -153.19)"/>
          <path class="cls-85" d="M-3583.28,347.71a3.66,3.66,0,0,1-.71-6.86l63.92-29.5a12.25,12.25,0,0,1,9.52-.35l7.9,3a3.67,3.67,0,0,1,.27,6.69l-56.32,26.93a25.29,25.29,0,0,1-16.44,1.9Z" transform="translate(3723.61 -153.19)"/>
          <path class="cls-86" d="M-3580.72,347.44a3.72,3.72,0,0,1-.72-7l60.84-28a9.39,9.39,0,0,1,7.28-.27l7.28,2.76a3.72,3.72,0,0,1,.27,6.79l-52.15,24.9a26.65,26.65,0,0,1-17.37,2Z" transform="translate(3723.61 -153.19)"/>
          <path class="cls-87" d="M-3578.16,347.18a3.78,3.78,0,0,1-.73-7.07l57.76-26.56a6.46,6.46,0,0,1,5-.19l6.67,2.53a3.78,3.78,0,0,1,.28,6.9l-48,22.87a28.2,28.2,0,0,1-18.32,2.12Z" transform="translate(3723.61 -153.19)"/>
          <path class="cls-88" d="M-3575.6,346.91h0a29.56,29.56,0,0,0,19.25-2.23l43.81-20.84a3.83,3.83,0,0,0-.28-7l-6.06-2.3a3.58,3.58,0,0,0-2.78.11l-54.68,25.09A3.83,3.83,0,0,0-3575.6,346.91Z" transform="translate(3723.61 -153.19)"/>
        </g>
        <g>
          <g>
            <path class="cls-89" d="M-3508.12,320.22l-.05-.42c-1.12-9-5.07-15.86-5.07-24.3V285.39l-14-8.31-7.52,4.61s10.34,20.39,9.19,28.17a10.25,10.25,0,0,0,4.48,8l.13.07,1.29,11.33,9.87-5.87C-3508.77,323-3508.12,321.88-3508.12,320.22Z" transform="translate(3723.61 -153.19)"/>
            <path class="cls-90" d="M-3523.52,329.35l-8.46-5a10.2,10.2,0,0,1-4.48-8h0a169.35,169.35,0,0,0,1.72-24.55V281.69l14,8.31v10.11a214.26,214.26,0,0,0,1.67,26.19l.05.41C-3519,329.64-3521,330.82-3523.52,329.35Z" transform="translate(3723.61 -153.19)"/>
            <path class="cls-91" d="M-3518.72,326.1a214,214,0,0,1-1.67-26.18V289.81l-14-8.32v.73l13.24,7.88v10.11a214.1,214.1,0,0,0,1.67,26.18l.05.42a3.23,3.23,0,0,1-1.27,2.93c1.21-.22,2-1.37,2-3.22Z" transform="translate(3723.61 -153.19)"/>
            <g>
              <polygon class="cls-92" points="198.19 145.74 196.99 155.72 199.6 154.17 199.6 144.86 198.19 145.74"/>
              <polygon class="cls-93" points="198.19 145.74 197 155.72 191.89 152.75 193.09 142.71 198.19 145.74"/>
              <polygon class="cls-94" points="193.09 142.71 198.19 145.74 199.6 144.86 194.48 141.85 193.09 142.71"/>
            </g>
            <path class="cls-95" d="M-3523.52,329.35l-8.46-5a10.2,10.2,0,0,1-4.48-8h0a169.35,169.35,0,0,0,1.72-24.55V281.69l14,8.31v10.11a214.26,214.26,0,0,0,1.67,26.19l.05.41C-3519,329.64-3521,330.82-3523.52,329.35Z" transform="translate(3723.61 -153.19)"/>
          </g>
          <g>
            <path class="cls-96" d="M-3476,255.63c0,5.82-1.95,9.95-5.12,11.94l-16.66,10.11c-3.3,1.9-1.19-2.41-6.2-5.39-10.09-6-18.26-20.52-18.26-32.44,0-5.89-5.29-5.94-2.05-7.91l17.28-10.2c3.29-1.83,7.79-1.49,12.75,1.46C-3484.14,229.19-3476,243.71-3476,255.63Z" transform="translate(3723.61 -153.19)"/>
            <path class="cls-97" d="M-3487.31,262.48c0,5.83-2,9.95-5.12,11.95-.09.06-16.56,10.05-16.66,10.1-3.29,1.9-1.18-2.41-6.19-5.39-10.09-6-18.26-20.52-18.26-32.44,0-5.89-5.29-5.94-2.05-7.91l17.28-10.19c3.29-1.84,7.79-1.5,12.75,1.45C-3495.48,236-3487.31,250.57-3487.31,262.48Z" transform="translate(3723.61 -153.19)"/>
            <ellipse class="cls-98" cx="-3522.68" cy="261.88" rx="14.97" ry="26.32" transform="translate(3159.29 -1821.6) rotate(-28.87)"/>
            <path class="cls-99" d="M-3521.81,239.85c-4.83-2.87-9.22-3.26-12.49-1.58,3.05-.87,6.83-.22,10.92,2.21,10.08,6,18.26,20.52,18.26,32.44,0,6.21-2.22,10.48-5.77,12.3,4.46-1.28,7.34-5.85,7.34-12.93C-3503.55,260.37-3511.72,245.85-3521.81,239.85Z" transform="translate(3723.61 -153.19)"/>
          </g>
          <path class="cls-100" d="M-3507.25,274c0,5.65-1.9,9.66-5,11.6l-7,4.19a95.09,95.09,0,0,0-38.66,44.32l0,.08c-5.42,3.12-48.84-71.86-43.52-75.09h0a92.65,92.65,0,0,0,54.61-12.44l9.45-5.59c3.19-1.78,7.56-1.45,12.38,1.41C-3515.19,248.27-3507.25,262.38-3507.25,274Z" transform="translate(3723.61 -153.19)"/>
          <g class="cls-101">
            <path class="cls-102" d="M-3495.54,270.78a58.33,58.33,0,0,1-9.31,8.18l-6,4c-14.5,9.61-28.3,17.35-41.65,43.57,0,0-7.62-8.11-7.62-8.11-4.53,3-10-19.45,22.77-38.65,0,0,1,.63,1,.62,8.54-2.65,12.85-5.42,26.83-14.66,4.53-3,8-5.26,8-5.28,2.64-1.71,9-.93,9.71-.06C-3490.41,262.13-3488.7,263.55-3495.54,270.78Z" transform="translate(3723.61 -153.19)"/>
          </g>
          <g>
            <path class="cls-103" d="M-3553.73,319.27c0,10.13-3.4,17.31-8.92,20.78-.16.11-5.3,3.47-5.47,3.56-5.74,3.31-2.07-4.19-10.79-9.38-17.55-10.44-31.78-35.72-31.78-56.46,0-10.26-9.21-10.34-3.57-13.77l6.56-3.72c5.73-3.2,13.56-2.61,22.19,2.53C-3568,273.24-3553.73,298.52-3553.73,319.27Z" transform="translate(3723.61 -153.19)"/>
            <ellipse class="cls-104" cx="-3591.78" cy="304.19" rx="26.06" ry="45.82" transform="translate(3130.27 -1849.71) rotate(-28.87)"/>
            <ellipse class="cls-105" cx="-3591.78" cy="304.19" rx="24.36" ry="42.84" transform="translate(3130.27 -1849.7) rotate(-28.87)"/>
            <path class="cls-106" d="M-3585.94,336.78c-16.41-9.75-29.71-33.39-29.71-52.78,0-8.94,2.83-15.41,7.48-18.84-8,1.51-13.33,9.12-13.33,21.36,0,19.4,13.31,43,29.72,52.79,8.84,5.26,16.78,5.4,22.22,1.39C-3574.26,341.59-3579.88,340.38-3585.94,336.78Z" transform="translate(3723.61 -153.19)"/>
            <path class="cls-107" d="M-3590.85,265.8c-8.41-5-17.12-4.67-21.15-2.71,5.3-1.52,12.79-.6,19.91,3.63,17.55,10.44,31.78,35.72,31.78,56.47,0,10.8-4.78,18.45-11,21.63,6.48-2.47,12.19-10.23,12.19-22.56C-3559.07,301.51-3573.3,276.24-3590.85,265.8Z" transform="translate(3723.61 -153.19)"/>
            <ellipse class="cls-108" cx="-3591.78" cy="304.19" rx="24.36" ry="42.84" transform="translate(3130.27 -1849.7) rotate(-28.87)"/>
          </g>
          <g>
            <path class="cls-109" d="M-3575.12,285c-1.87,1.56-14.47,12.19-14.49,12.21-.9.54.56.55.56,2.18a11.54,11.54,0,0,0,5.05,9c1.39.82.81,2,1.72,1.49,0,0,13.15-5.18,16.72-6.59A74.59,74.59,0,0,0-3575.12,285Z" transform="translate(3723.61 -153.19)"/>
            <path class="cls-110" d="M-3581,306.62c0,3.29-2.26,4.62-5.05,3a11.52,11.52,0,0,1-5.05-9c0-3.3,2.26-4.62,5.05-3A11.54,11.54,0,0,1-3581,306.62Z" transform="translate(3723.61 -153.19)"/>
            <ellipse class="cls-111" cx="-3586.04" cy="303.61" rx="2.84" ry="5" transform="translate(3131.26 -1847) rotate(-28.87)"/>
            <path class="cls-112" d="M-3585.8,297.52a3.55,3.55,0,0,0-3.45-.44,3.88,3.88,0,0,1,3,.61,11.54,11.54,0,0,1,5,9c0,1.71-.61,2.89-1.59,3.4,1.23-.36,2-1.62,2-3.58A11.52,11.52,0,0,0-3585.8,297.52Z" transform="translate(3723.61 -153.19)"/>
          </g>
          <path class="cls-113" d="M-3519.08,235.45c7.13-3.59,13.83-4.56,15-2.16s-3.71,7.26-10.83,10.85-13.83,4.56-15,2.16S-3526.2,239-3519.08,235.45Z" transform="translate(3723.61 -153.19)"/>
          <ellipse class="cls-114" cx="-3592.99" cy="329.39" rx="8.86" ry="20.37" transform="translate(2166.18 -2802.83) rotate(-50.42)"/>
          <g class="cls-115">
            <path class="cls-116" d="M-3537.66,266a34.77,34.77,0,0,1-11,5.61l-6.95,1.74c-17,4.25-21.46,10.49-31.21,2.74s-7-15-1.68-16.36l10-1.72c11.42-3.73,20.6-6.55,36.93-10.6l9.32-2.31c3.08-.73,5.65,2.21,6.4,3.93C-3524.24,252.48-3529.56,260.08-3537.66,266Z" transform="translate(3723.61 -153.19)"/>
          </g>
        </g>
        <path class="cls-117" d="M-3562,321.44c0,9.71-3.33,16.51-8.71,19.67s-67.24,60.07-67.24,60.07l-54.52-125.58s74.21-7.47,79.71-9.18c5.93-1.86,12.82-2.68,21,2.2C-3575.3,278.39-3562,302-3562,321.44Z" transform="translate(3723.61 -153.19)"/>
      </g>
    </g>
  </g>
</svg>
