<svg xmlns="http://www.w3.org/2000/svg" xmlns:xlink="http://www.w3.org/1999/xlink" viewBox="0 0 526.22 526.22"><defs><style>.cls-1{fill:url(#linear-gradient);}.cls-2{isolation:isolate;}.cls-3{fill:url(#linear-gradient-2);}.cls-4{fill:url(#linear-gradient-3);}.cls-5{fill:url(#linear-gradient-4);}.cls-6{fill:url(#linear-gradient-5);}.cls-7{fill:#007e8a;}.cls-8{fill:url(#linear-gradient-6);}.cls-9{fill:url(#linear-gradient-7);}.cls-10{fill:url(#linear-gradient-8);}.cls-11{fill:url(#linear-gradient-9);}.cls-12{fill:url(#linear-gradient-10);}.cls-13{fill:url(#linear-gradient-11);}.cls-14{fill:url(#linear-gradient-12);}.cls-15{fill:url(#linear-gradient-13);}.cls-16{fill:url(#linear-gradient-14);}.cls-17{fill:url(#linear-gradient-15);}.cls-18{fill:url(#linear-gradient-16);}.cls-19{fill:url(#linear-gradient-17);}.cls-20{fill:url(#linear-gradient-18);}.cls-21{fill:url(#linear-gradient-19);}.cls-22{fill:url(#linear-gradient-20);}.cls-23{fill:url(#linear-gradient-21);}.cls-24{fill:url(#linear-gradient-22);}.cls-25{fill:url(#linear-gradient-23);}.cls-26{fill:url(#linear-gradient-24);}.cls-27{fill:url(#linear-gradient-25);}.cls-28{fill:url(#radial-gradient);}.cls-29{fill:url(#radial-gradient-2);}.cls-30,.cls-48,.cls-87{opacity:0.2;}.cls-31{opacity:0;}.cls-32{opacity:0.09;}.cls-33{opacity:0.18;}.cls-34{opacity:0.27;}.cls-35{opacity:0.36;}.cls-36{opacity:0.45;}.cls-37{opacity:0.55;}.cls-38{opacity:0.64;}.cls-39{opacity:0.73;}.cls-40{opacity:0.82;}.cls-41{opacity:0.91;}.cls-42{fill:url(#linear-gradient-26);}.cls-43{fill:url(#linear-gradient-27);}.cls-44{fill:url(#linear-gradient-28);}.cls-45{fill:#fff;}.cls-46{opacity:0.8;fill:url(#linear-gradient-29);}.cls-47{fill:url(#linear-gradient-30);}.cls-48{fill:url(#linear-gradient-31);}.cls-49{opacity:0.27;fill:url(#linear-gradient-32);}.cls-50{opacity:0.35;fill:url(#linear-gradient-33);}.cls-51{opacity:0.42;fill:url(#linear-gradient-34);}.cls-52{opacity:0.49;fill:url(#linear-gradient-35);}.cls-53{opacity:0.56;fill:url(#linear-gradient-36);}.cls-54{opacity:0.64;fill:url(#linear-gradient-37);}.cls-55{opacity:0.71;fill:url(#linear-gradient-38);}.cls-56{opacity:0.78;fill:url(#linear-gradient-39);}.cls-57{opacity:0.85;fill:url(#linear-gradient-40);}.cls-58{opacity:0.93;fill:url(#linear-gradient-41);}.cls-59{fill:url(#linear-gradient-42);}.cls-100,.cls-106,.cls-112,.cls-113,.cls-114,.cls-60,.cls-61,.cls-68,.cls-90,.cls-98{mix-blend-mode:color-dodge;}.cls-60{fill:url(#New_Gradient_Swatch_copy_16);}.cls-61{fill:url(#New_Gradient_Swatch_copy_16-2);}.cls-62{fill:url(#linear-gradient-43);}.cls-111,.cls-63,.cls-76,.cls-95{mix-blend-mode:screen;}.cls-63{opacity:0.3;fill:url(#linear-gradient-44);}.cls-64{mask:url(#mask);}.cls-65{fill:url(#linear-gradient-45);}.cls-107,.cls-66,.cls-94{mix-blend-mode:multiply;}.cls-66{fill:url(#radial-gradient-3);}.cls-67{fill:url(#New_Gradient_Swatch_copy_19);}.cls-68{fill:url(#Radial_Gradient_1);}.cls-69{fill:url(#radial-gradient-4);}.cls-70{fill:url(#linear-gradient-46);}.cls-71{fill:url(#New_Gradient_Swatch_copy_19-2);}.cls-72{fill:url(#linear-gradient-47);}.cls-73{fill:url(#linear-gradient-48);}.cls-74{fill:url(#linear-gradient-49);}.cls-75{fill:url(#linear-gradient-50);}.cls-76{fill:url(#Radial_Gradient_1-2);}.cls-77{fill:url(#linear-gradient-51);}.cls-78{fill:url(#linear-gradient-52);}.cls-79{fill:url(#New_Gradient_Swatch_copy_19-3);}.cls-80{fill:url(#New_Gradient_Swatch_copy_19-4);}.cls-81{fill:url(#New_Gradient_Swatch_copy_19-5);}.cls-82{opacity:0.03;}.cls-83{opacity:0.07;}.cls-84{opacity:0.1;}.cls-85{opacity:0.13;}.cls-86{opacity:0.17;}.cls-88{fill:url(#linear-gradient-53);}.cls-89{fill:url(#linear-gradient-54);}.cls-90{fill:url(#Radial_Gradient_1-3);}.cls-91{fill:url(#New_Gradient_Swatch_copy_19-6);}.cls-92{fill:url(#New_Gradient_Swatch_copy_19-7);}.cls-93{fill:url(#New_Gradient_Swatch_copy_19-8);}.cls-94{fill:url(#radial-gradient-5);}.cls-95{fill:url(#linear-gradient-55);}.cls-96{fill:url(#linear-gradient-56);}.cls-97{fill:url(#New_Gradient_Swatch_copy_19-9);}.cls-98{fill:url(#Radial_Gradient_1-4);}.cls-99{fill:url(#linear-gradient-57);}.cls-100{opacity:0.7;}.cls-101{fill:url(#radial-gradient-6);}.cls-102{fill:url(#linear-gradient-58);}.cls-103{fill:url(#New_Gradient_Swatch_copy_19-10);}.cls-104{fill:url(#linear-gradient-59);}.cls-105{fill:url(#linear-gradient-60);}.cls-106{fill:url(#Radial_Gradient_1-5);}.cls-107{fill:url(#radial-gradient-7);}.cls-108{fill:url(#linear-gradient-61);}.cls-109{fill:url(#linear-gradient-62);}.cls-110{fill:url(#linear-gradient-63);}.cls-111{fill:url(#Radial_Gradient_1-6);}.cls-112{fill:url(#radial-gradient-8);}.cls-113{fill:url(#radial-gradient-9);}.cls-115{fill:url(#New_Gradient_Swatch_copy_16-3);}.cls-116{fill:url(#radial-gradient-10);}</style><linearGradient id="linear-gradient" x1="-1424.48" y1="1645.61" x2="-1383.53" y2="1808.09" gradientUnits="userSpaceOnUse"><stop offset="0.52" stop-color="#fff"/><stop offset="0.58" stop-color="#d5d5d5"/><stop offset="0.72" stop-color="#6b6b6b"/><stop offset="0.86"/></linearGradient><linearGradient id="linear-gradient-2" x1="-1463.76" y1="1882.05" x2="-1420.65" y2="1800.94" gradientUnits="userSpaceOnUse"><stop offset="0" stop-color="#007e8a"/><stop offset="0.54" stop-color="#00bec9"/><stop offset="0.7" stop-color="#24d3d5"/><stop offset="1" stop-color="#6effef"/></linearGradient><linearGradient id="linear-gradient-3" x1="-1357.19" y1="1863.7" x2="-1383.92" y2="1800.83" xlink:href="#linear-gradient-2"/><linearGradient id="linear-gradient-4" x1="-1301.23" y1="1860.92" x2="-1373.88" y2="1801.55" xlink:href="#linear-gradient-2"/><linearGradient id="linear-gradient-5" x1="-1252.26" y1="1872.61" x2="-1357.62" y2="1796.53" xlink:href="#linear-gradient-2"/><linearGradient id="linear-gradient-6" x1="-1606" y1="1786.26" x2="-1455.21" y2="1786.26" xlink:href="#linear-gradient-2"/><linearGradient id="linear-gradient-7" x1="-1458.09" y1="1839.1" x2="-1422.59" y2="1804.1" xlink:href="#linear-gradient-2"/><linearGradient id="linear-gradient-8" x1="-1284.03" y1="1729.47" x2="-1317.5" y2="1766.24" xlink:href="#linear-gradient-2"/><linearGradient id="linear-gradient-9" x1="-1247.2" y1="1815.02" x2="-1348" y2="1788.77" xlink:href="#linear-gradient-2"/><linearGradient id="linear-gradient-10" x1="-1394.63" y1="1889.18" x2="-1414.8" y2="1788.37" xlink:href="#linear-gradient-2"/><linearGradient id="linear-gradient-11" x1="-1496.79" y1="1818.36" x2="-1435.75" y2="1818.36" xlink:href="#linear-gradient-2"/><linearGradient id="linear-gradient-12" x1="-1321.07" y1="1831.96" x2="-1369.68" y2="1796.72" xlink:href="#linear-gradient-2"/><linearGradient id="linear-gradient-13" x1="-1543.98" y1="1780.16" x2="-1464.94" y2="1780.16" xlink:href="#linear-gradient-2"/><linearGradient id="linear-gradient-14" x1="-1324.6" y1="1640.41" x2="-1349.96" y2="1698.23" xlink:href="#linear-gradient-2"/><linearGradient id="linear-gradient-15" x1="-1569.94" y1="1819.75" x2="-1445.48" y2="1819.75" xlink:href="#linear-gradient-2"/><linearGradient id="linear-gradient-16" x1="-1268.64" y1="1772.1" x2="-1321.39" y2="1777.68" xlink:href="#linear-gradient-2"/><linearGradient id="linear-gradient-17" x1="-1272.21" y1="1675.77" x2="-1336.11" y2="1722.43" xlink:href="#linear-gradient-2"/><linearGradient id="linear-gradient-18" x1="-1404.95" y1="1632.82" x2="-1382.63" y2="1701.54" xlink:href="#linear-gradient-2"/><linearGradient id="linear-gradient-19" x1="-1588.05" y1="1748.11" x2="-1474.67" y2="1748.11" xlink:href="#linear-gradient-2"/><linearGradient id="linear-gradient-20" x1="-1549" y1="1745.57" x2="-1484.4" y2="1745.57" xlink:href="#linear-gradient-2"/><linearGradient id="linear-gradient-21" x1="-1483.71" y1="1668.3" x2="-1403.7" y2="1668.3" xlink:href="#linear-gradient-2"/><linearGradient id="linear-gradient-22" x1="-1557.5" y1="1715.5" x2="-1465.92" y2="1715.5" xlink:href="#linear-gradient-2"/><linearGradient id="linear-gradient-23" x1="-1238.89" y1="1815.26" x2="-1330.56" y2="1769.61" xlink:href="#linear-gradient-2"/><linearGradient id="linear-gradient-24" x1="-1517.18" y1="1700.26" x2="-1430.6" y2="1700.26" xlink:href="#linear-gradient-2"/><linearGradient id="linear-gradient-25" x1="-1236.14" y1="1679.51" x2="-1326.42" y2="1733.27" xlink:href="#linear-gradient-2"/><radialGradient id="radial-gradient" cx="263.11" cy="263.11" r="263.11" gradientUnits="userSpaceOnUse"><stop offset="0" stop-color="#00a99b" stop-opacity="0.8"/><stop offset="0.15" stop-color="#00a99b" stop-opacity="0.57"/><stop offset="0.31" stop-color="#00a99b" stop-opacity="0.36"/><stop offset="0.48" stop-color="#00a99b" stop-opacity="0.2"/><stop offset="0.65" stop-color="#00a99b" stop-opacity="0.09"/><stop offset="0.82" stop-color="#00a99b" stop-opacity="0.02"/><stop offset="1" stop-color="#00a99b" stop-opacity="0"/></radialGradient><radialGradient id="radial-gradient-2" cx="293.07" cy="212.88" r="169.92" gradientUnits="userSpaceOnUse"><stop offset="0" stop-color="#00a99b" stop-opacity="0.61"/><stop offset="0.07" stop-color="#00a99b" stop-opacity="0.54"/><stop offset="0.35" stop-color="#00a99b" stop-opacity="0.31"/><stop offset="0.61" stop-color="#00a99b" stop-opacity="0.14"/><stop offset="0.84" stop-color="#00a99b" stop-opacity="0.04"/><stop offset="1" stop-color="#00a99b" stop-opacity="0"/></radialGradient><linearGradient id="linear-gradient-26" x1="-1539.92" y1="1772.04" x2="-1283.68" y2="1772.04" gradientUnits="userSpaceOnUse"><stop offset="0.06" stop-color="#5b9493"/><stop offset="0.26" stop-color="#5d9593"/><stop offset="0.36" stop-color="#659a95"/><stop offset="0.43" stop-color="#72a297"/><stop offset="0.49" stop-color="#83ad9a"/><stop offset="0.51" stop-color="#87b09e"/><stop offset="0.52" stop-color="#95b9a8"/><stop offset="0.53" stop-color="#aac7ba"/><stop offset="0.54" stop-color="#c9dbd3"/><stop offset="0.55" stop-color="#f0f5f3"/><stop offset="0.56" stop-color="#fff"/><stop offset="0.56" stop-color="#e0ebe6"/><stop offset="0.57" stop-color="#bfd6cb"/><stop offset="0.58" stop-color="#a7c7b8"/><stop offset="0.59" stop-color="#98bdac"/><stop offset="0.6" stop-color="#93baa8"/><stop offset="0.63" stop-color="#85b3a1"/><stop offset="0.7" stop-color="#6da796"/><stop offset="0.76" stop-color="#5ea08f"/><stop offset="0.81" stop-color="#599e8d"/><stop offset="1" stop-color="#6da58b"/></linearGradient><linearGradient id="linear-gradient-27" x1="-1545.37" y1="1765.33" x2="-1298.86" y2="1765.33" gradientUnits="userSpaceOnUse"><stop offset="0" stop-color="#063432"/><stop offset="1" stop-color="#218d6d"/></linearGradient><linearGradient id="linear-gradient-28" x1="-1542.62" y1="1765.33" x2="-1301.62" y2="1765.33" gradientUnits="userSpaceOnUse"><stop offset="0" stop-color="#044646"/><stop offset="1" stop-color="#12987e"/></linearGradient><linearGradient id="linear-gradient-29" x1="-1616.47" y1="2234.22" x2="-3681.56" y2="3336.69" gradientTransform="matrix(0.87, 0.5, 0, 1.15, 19.18, -94.99)" gradientUnits="userSpaceOnUse"><stop offset="0.06" stop-color="#5b9493"/><stop offset="0.27" stop-color="#5d9694"/><stop offset="0.37" stop-color="#659b97"/><stop offset="0.45" stop-color="#72a49c"/><stop offset="0.52" stop-color="#84b0a3"/><stop offset="0.56" stop-color="#93baa8"/><stop offset="0.61" stop-color="#85b3a1"/><stop offset="0.73" stop-color="#6da796"/><stop offset="0.83" stop-color="#5ea08f"/><stop offset="0.92" stop-color="#599e8d"/></linearGradient><linearGradient id="linear-gradient-30" x1="-1618.67" y1="2235.17" x2="-3683.75" y2="3337.64" gradientTransform="matrix(0.87, 0.5, 0, 1.15, 19.18, -94.99)" xlink:href="#linear-gradient-28"/><linearGradient id="linear-gradient-31" x1="-1263.41" y1="1646.21" x2="-1458.88" y2="1703.7" gradientUnits="userSpaceOnUse"><stop offset="0" stop-color="#198068"/><stop offset="0.52" stop-color="#12987e"/><stop offset="1" stop-color="#218090"/></linearGradient><linearGradient id="linear-gradient-32" x1="-1263.66" y1="1646.36" x2="-1458.46" y2="1703.65" gradientUnits="userSpaceOnUse"><stop offset="0" stop-color="#187865"/><stop offset="0.52" stop-color="#12967d"/><stop offset="0.69" stop-color="#179183"/><stop offset="1" stop-color="#218090"/></linearGradient><linearGradient id="linear-gradient-33" x1="-1263.91" y1="1646.51" x2="-1458.05" y2="1703.61" gradientUnits="userSpaceOnUse"><stop offset="0" stop-color="#177161"/><stop offset="0.52" stop-color="#12937b"/><stop offset="0.69" stop-color="#169183"/><stop offset="1" stop-color="#218090"/></linearGradient><linearGradient id="linear-gradient-34" x1="-1264.16" y1="1646.66" x2="-1457.63" y2="1703.56" gradientUnits="userSpaceOnUse"><stop offset="0" stop-color="#15695e"/><stop offset="0.52" stop-color="#12917a"/><stop offset="0.69" stop-color="#169282"/><stop offset="1" stop-color="#218090"/></linearGradient><linearGradient id="linear-gradient-35" x1="-1264.41" y1="1646.8" x2="-1457.22" y2="1703.51" gradientUnits="userSpaceOnUse"><stop offset="0" stop-color="#14625b"/><stop offset="0.52" stop-color="#128e79"/><stop offset="0.69" stop-color="#159382"/><stop offset="1" stop-color="#218090"/></linearGradient><linearGradient id="linear-gradient-36" x1="-1264.66" y1="1646.95" x2="-1456.8" y2="1703.46" gradientUnits="userSpaceOnUse"><stop offset="0" stop-color="#135a57"/><stop offset="0.52" stop-color="#128c77"/><stop offset="0.69" stop-color="#159481"/><stop offset="1" stop-color="#218090"/></linearGradient><linearGradient id="linear-gradient-37" x1="-1264.91" y1="1647.1" x2="-1456.38" y2="1703.42" gradientUnits="userSpaceOnUse"><stop offset="0" stop-color="#125354"/><stop offset="0.52" stop-color="#118976"/><stop offset="0.69" stop-color="#149481"/><stop offset="1" stop-color="#218090"/></linearGradient><linearGradient id="linear-gradient-38" x1="-1265.16" y1="1647.25" x2="-1455.97" y2="1703.37" gradientUnits="userSpaceOnUse"><stop offset="0" stop-color="#114b50"/><stop offset="0.52" stop-color="#118774"/><stop offset="0.69" stop-color="#149580"/><stop offset="1" stop-color="#218090"/></linearGradient><linearGradient id="linear-gradient-39" x1="-1265.41" y1="1647.4" x2="-1455.55" y2="1703.32" gradientUnits="userSpaceOnUse"><stop offset="0" stop-color="#10444d"/><stop offset="0.52" stop-color="#118473"/><stop offset="0.69" stop-color="#139680"/><stop offset="1" stop-color="#218090"/></linearGradient><linearGradient id="linear-gradient-40" x1="-1265.66" y1="1647.55" x2="-1455.14" y2="1703.27" gradientUnits="userSpaceOnUse"><stop offset="0" stop-color="#0e3c4a"/><stop offset="0.52" stop-color="#118272"/><stop offset="0.69" stop-color="#13977f"/><stop offset="1" stop-color="#218090"/></linearGradient><linearGradient id="linear-gradient-41" x1="-1265.91" y1="1647.69" x2="-1454.72" y2="1703.23" gradientUnits="userSpaceOnUse"><stop offset="0" stop-color="#0d3546"/><stop offset="0.52" stop-color="#117f70"/><stop offset="0.69" stop-color="#12977f"/><stop offset="1" stop-color="#218090"/></linearGradient><linearGradient id="linear-gradient-42" x1="-1266.16" y1="1647.84" x2="-1454.3" y2="1703.18" gradientUnits="userSpaceOnUse"><stop offset="0" stop-color="#0c2d43"/><stop offset="0.69" stop-color="#12987e"/><stop offset="1" stop-color="#218090"/></linearGradient><radialGradient id="New_Gradient_Swatch_copy_16" cx="-670.61" cy="-73.77" r="44.93" gradientTransform="matrix(1, 0, 0, 0.66, -689.78, 1873.63)" gradientUnits="userSpaceOnUse"><stop offset="0" stop-color="#215e77"/><stop offset="0.1" stop-color="#1b4c60"/><stop offset="0.27" stop-color="#11313d"/><stop offset="0.45" stop-color="#0a1b22"/><stop offset="0.63" stop-color="#040c0f"/><stop offset="0.81" stop-color="#010304"/><stop offset="1"/></radialGradient><radialGradient id="New_Gradient_Swatch_copy_16-2" cx="-892.32" cy="-438.16" r="34.46" gradientTransform="matrix(1, 0, 0, 0.59, -572.62, 1984.54)" xlink:href="#New_Gradient_Swatch_copy_16"/><linearGradient id="linear-gradient-43" x1="1316.18" y1="2576.75" x2="1203.82" y2="2491.81" gradientTransform="matrix(0.87, 0.5, -1.5, 0.29, 1302.28, 392.22)" gradientUnits="userSpaceOnUse"><stop offset="0" stop-color="#044646"/><stop offset="1" stop-color="#103730"/><stop offset="1" stop-color="#133631"/></linearGradient><linearGradient id="linear-gradient-44" x1="-1440.68" y1="1708.68" x2="-1377.73" y2="1807.46" gradientUnits="userSpaceOnUse"><stop offset="0.06" stop-color="#5b9493"/><stop offset="0.25" stop-color="#5d9694"/><stop offset="0.35" stop-color="#659c98"/><stop offset="0.43" stop-color="#72a69f"/><stop offset="0.49" stop-color="#85b6aa"/><stop offset="0.55" stop-color="#9dc9b6"/><stop offset="0.56" stop-color="#a3ceba"/><stop offset="0.65" stop-color="#85baa8"/><stop offset="0.75" stop-color="#6dab99"/><stop offset="0.84" stop-color="#5ea190"/><stop offset="0.92" stop-color="#599e8d"/></linearGradient><mask id="mask" x="196.17" y="252.67" width="227.89" height="186.15" maskUnits="userSpaceOnUse"><g transform="translate(1686.57 -1489.21)"><rect class="cls-1" x="-1490.4" y="1744.3" width="227.89" height="183.73"/></g></mask><linearGradient id="linear-gradient-45" x1="-2047.37" y1="2576.64" x2="-2012" y2="2637.9" gradientTransform="translate(1138.22 -413.44) rotate(10.15)" gradientUnits="userSpaceOnUse"><stop offset="0" stop-color="#0e889d"/><stop offset="0.06" stop-color="#158ca0"/><stop offset="0.14" stop-color="#2795a8"/><stop offset="0.23" stop-color="#52afd3"/><stop offset="0.29" stop-color="#37a0be"/><stop offset="0.38" stop-color="#0e889d"/><stop offset="0.54" stop-color="#1b8981"/><stop offset="0.63" stop-color="#1d8984"/><stop offset="0.7" stop-color="#218b8f"/><stop offset="0.77" stop-color="#2a8da1"/><stop offset="0.82" stop-color="#328fb3"/><stop offset="0.95" stop-color="#198aa4"/><stop offset="1" stop-color="#0e889d"/></linearGradient><radialGradient id="radial-gradient-3" cx="-2045.07" cy="2617.52" r="55.81" gradientTransform="translate(1138.22 -413.44) rotate(10.15)" gradientUnits="userSpaceOnUse"><stop offset="0.58" stop-color="#fff"/><stop offset="0.64" stop-color="#fafcfb"/><stop offset="0.7" stop-color="#ebf2f1"/><stop offset="0.78" stop-color="#d3e2e0"/><stop offset="0.85" stop-color="#b1ccc8"/><stop offset="0.93" stop-color="#86b1a9"/><stop offset="1" stop-color="#5a948a"/></radialGradient><linearGradient id="New_Gradient_Swatch_copy_19" x1="-2071.32" y1="2617.02" x2="-2021.44" y2="2617.02" gradientTransform="matrix(0.86, 0.5, -0.5, 0.86, 1750.07, 575.4)" gradientUnits="userSpaceOnUse"><stop offset="0.04" stop-color="#148979"/><stop offset="0.26" stop-color="#1f9088"/><stop offset="0.68" stop-color="#3aa0b1"/><stop offset="1" stop-color="#52afd3"/></linearGradient><radialGradient id="Radial_Gradient_1" cx="-2041.24" cy="2616.18" r="26.95" gradientTransform="translate(1138.22 -413.44) rotate(10.15)" gradientUnits="userSpaceOnUse"><stop offset="0" stop-color="#fff"/><stop offset="1"/></radialGradient><radialGradient id="radial-gradient-4" cx="-2090.05" cy="2639.71" r="58.64" gradientTransform="translate(1138.22 -413.44) rotate(10.15)" gradientUnits="userSpaceOnUse"><stop offset="0" stop-color="#00a99b"/><stop offset="0.09" stop-color="#00a99b" stop-opacity="0.82"/><stop offset="0.24" stop-color="#00a99b" stop-opacity="0.57"/><stop offset="0.38" stop-color="#00a99b" stop-opacity="0.36"/><stop offset="0.53" stop-color="#00a99b" stop-opacity="0.2"/><stop offset="0.68" stop-color="#00a99b" stop-opacity="0.09"/><stop offset="0.84" stop-color="#00a99b" stop-opacity="0.02"/><stop offset="1" stop-color="#00a99b" stop-opacity="0"/></radialGradient><linearGradient id="linear-gradient-46" x1="-1457.72" y1="1780.06" x2="-1404.14" y2="1872.86" gradientTransform="matrix(1, 0, 0, 1, 0, 0)" xlink:href="#linear-gradient-45"/><linearGradient id="New_Gradient_Swatch_copy_19-2" x1="-1479.29" y1="1823.25" x2="-1400.65" y2="1823.25" gradientTransform="matrix(1, 0, 0, 1, 0, 0)" xlink:href="#New_Gradient_Swatch_copy_19"/><linearGradient id="linear-gradient-47" x1="-1420.99" y1="1873.36" x2="-1468.77" y2="1790.59" gradientUnits="userSpaceOnUse"><stop offset="0.01" stop-color="#83ad9a"/><stop offset="0.04" stop-color="#8db4a2"/><stop offset="0.09" stop-color="#a8c6b8"/><stop offset="0.16" stop-color="#d4e3dc"/><stop offset="0.22" stop-color="#fff"/><stop offset="0.24" stop-color="#f5f9f7"/><stop offset="0.28" stop-color="#dbe8e2"/><stop offset="0.33" stop-color="#b1cdc0"/><stop offset="0.36" stop-color="#93baa8"/><stop offset="0.4" stop-color="#85b3a1"/><stop offset="0.48" stop-color="#6da796"/><stop offset="0.55" stop-color="#5ea08f"/><stop offset="0.61" stop-color="#599e8d"/><stop offset="0.85" stop-color="#64a28c"/><stop offset="1" stop-color="#6da58b"/></linearGradient><linearGradient id="linear-gradient-48" x1="-1441.21" y1="1856.04" x2="-1475.67" y2="1796.35" gradientTransform="matrix(1, 0, 0, 1, 0, 0)" xlink:href="#linear-gradient-45"/><linearGradient id="linear-gradient-49" x1="-2113.36" y1="2678.38" x2="-2129.86" y2="2656.26" gradientTransform="translate(1138.22 -413.44) rotate(10.15)" gradientUnits="userSpaceOnUse"><stop offset="0.04" stop-color="#1e1f21"/><stop offset="0.24" stop-color="#101012"/><stop offset="0.27" stop-color="#0e0e0f"/><stop offset="0.36" stop-color="#141414"/><stop offset="0.49" stop-color="#242523"/><stop offset="0.63" stop-color="#3f403b"/><stop offset="0.69" stop-color="#4b4c45"/><stop offset="1" stop-color="#262724"/></linearGradient><linearGradient id="linear-gradient-50" x1="-2139.84" y1="2672.37" x2="-2126.04" y2="2672.37" gradientTransform="translate(1138.22 -413.44) rotate(10.15)" gradientUnits="userSpaceOnUse"><stop offset="0.04" stop-color="#1e1f21"/><stop offset="0.43" stop-color="#2d2e2d"/><stop offset="1" stop-color="#4b4c45"/></linearGradient><radialGradient id="Radial_Gradient_1-2" cx="-2131.52" cy="2672.14" r="7.45" xlink:href="#Radial_Gradient_1"/><linearGradient id="linear-gradient-51" x1="-1360.14" y1="1814.56" x2="-1384.18" y2="1762.93" gradientUnits="userSpaceOnUse"><stop offset="0.05" stop-color="#589895"/><stop offset="0.61" stop-color="#599e8d"/><stop offset="0.75" stop-color="#5d9f8d"/><stop offset="0.88" stop-color="#69a38b"/><stop offset="0.92" stop-color="#6da58b"/><stop offset="0.96" stop-color="#6ba48e"/><stop offset="0.99" stop-color="#649f96"/><stop offset="1" stop-color="#5e9b9e"/></linearGradient><linearGradient id="linear-gradient-52" x1="7303.59" y1="10704.14" x2="7280.98" y2="10667.23" gradientTransform="translate(5904.49 12461.73) rotate(180)" gradientUnits="userSpaceOnUse"><stop offset="0.06" stop-color="#93baa8"/><stop offset="0.36" stop-color="#81b09a"/><stop offset="0.71" stop-color="#72a88f"/><stop offset="1" stop-color="#6da58b"/></linearGradient><linearGradient id="New_Gradient_Swatch_copy_19-3" x1="-1434.61" y1="2087.02" x2="-1420.74" y2="2082.87" gradientTransform="translate(1735.54 -1789.1)" xlink:href="#New_Gradient_Swatch_copy_19"/><linearGradient id="New_Gradient_Swatch_copy_19-4" x1="-1453.32" y1="2088.64" x2="-1419.97" y2="2081.17" gradientTransform="translate(1735.54 -1789.1)" xlink:href="#New_Gradient_Swatch_copy_19"/><linearGradient id="New_Gradient_Swatch_copy_19-5" x1="-1433.14" y1="2073.8" x2="-1435.53" y2="2078.36" gradientTransform="translate(1735.54 -1789.1)" xlink:href="#New_Gradient_Swatch_copy_19"/><linearGradient id="linear-gradient-53" x1="-1391.09" y1="1694.8" x2="-1360.18" y2="1748.34" xlink:href="#linear-gradient-51"/><linearGradient id="linear-gradient-54" x1="-1372.09" y1="1751.05" x2="-1397.97" y2="1708.8" gradientTransform="matrix(1, 0, 0, 1, 0, 0)" xlink:href="#linear-gradient-52"/><radialGradient id="Radial_Gradient_1-3" cx="-1358.19" cy="1738.6" r="23.86" gradientTransform="matrix(1, 0, 0, 1, 0, 0)" xlink:href="#Radial_Gradient_1"/><linearGradient id="New_Gradient_Swatch_copy_19-6" x1="301.58" y1="236.26" x2="315.45" y2="232.11" gradientTransform="matrix(1, 0, 0, 1, 0, 0)" xlink:href="#New_Gradient_Swatch_copy_19"/><linearGradient id="New_Gradient_Swatch_copy_19-7" x1="282.87" y1="237.88" x2="316.22" y2="230.41" gradientTransform="matrix(1, 0, 0, 1, 0, 0)" xlink:href="#New_Gradient_Swatch_copy_19"/><linearGradient id="New_Gradient_Swatch_copy_19-8" x1="303.05" y1="223.04" x2="300.66" y2="227.6" gradientTransform="matrix(1, 0, 0, 1, 0, 0)" xlink:href="#New_Gradient_Swatch_copy_19"/><radialGradient id="radial-gradient-5" cx="-1388.36" cy="1706.08" r="24.16" gradientUnits="userSpaceOnUse"><stop offset="0" stop-color="#5a948a"/><stop offset="1" stop-color="#fff"/></radialGradient><linearGradient id="linear-gradient-55" x1="-1362.56" y1="1660.42" x2="-1323.83" y2="1635.39" gradientUnits="userSpaceOnUse"><stop offset="0" stop-color="#0e889d"/><stop offset="0.06" stop-color="#0c788a"/><stop offset="0.21" stop-color="#095360"/><stop offset="0.36" stop-color="#05353d"/><stop offset="0.52" stop-color="#031e23"/><stop offset="0.67" stop-color="#010d0f"/><stop offset="0.83" stop-color="#000304"/><stop offset="1"/></linearGradient><linearGradient id="linear-gradient-56" x1="-1380.33" y1="1629.3" x2="-1344.96" y2="1690.55" gradientTransform="matrix(1, 0, 0, 1, 0, 0)" xlink:href="#linear-gradient-45"/><linearGradient id="New_Gradient_Swatch_copy_19-9" x1="-1448.43" y1="1685.17" x2="-1307.18" y2="1653.5" gradientTransform="translate(654.11 924.38) rotate(30.31)" xlink:href="#New_Gradient_Swatch_copy_19"/><radialGradient id="Radial_Gradient_1-4" cx="-1374.21" cy="1668.84" r="26.95" gradientTransform="matrix(1, 0, 0, 1, 0, 0)" xlink:href="#Radial_Gradient_1"/><linearGradient id="linear-gradient-57" x1="-1435.41" y1="1653.45" x2="-1392.4" y2="1727.96" xlink:href="#linear-gradient-47"/><radialGradient id="radial-gradient-6" cx="-23978.91" cy="-8798.03" r="79.5" gradientTransform="matrix(0.5, -0.18, -0.61, 0.62, 5126.63, 2806.98)" gradientUnits="userSpaceOnUse"><stop offset="0" stop-color="#184558"/><stop offset="0.16" stop-color="#11303d"/><stop offset="0.36" stop-color="#091b22"/><stop offset="0.57" stop-color="#040c0f"/><stop offset="0.78" stop-color="#010304"/><stop offset="1"/></radialGradient><linearGradient id="linear-gradient-58" x1="-1491.74" y1="1664.45" x2="-1429.47" y2="1772.29" gradientTransform="matrix(1, 0, 0, 1, 0, 0)" xlink:href="#linear-gradient-45"/><linearGradient id="New_Gradient_Swatch_copy_19-10" x1="-1594.01" y1="1752.75" x2="-1348.14" y2="1697.63" gradientTransform="translate(669.53 979.69) rotate(30.31)" xlink:href="#New_Gradient_Swatch_copy_19"/><linearGradient id="linear-gradient-59" x1="-1446.1" y1="1773.67" x2="-1502.93" y2="1675.23" gradientTransform="translate(669.53 979.69) rotate(30.31)" xlink:href="#linear-gradient-47"/><linearGradient id="linear-gradient-60" x1="-1456.84" y1="1781.6" x2="-1513.38" y2="1683.66" gradientTransform="matrix(1, 0, 0, 1, 0, 0)" xlink:href="#linear-gradient-45"/><radialGradient id="Radial_Gradient_1-5" cx="-1465.21" cy="1724.59" r="46.59" gradientTransform="matrix(1, 0, 0, 1, 0, 0)" xlink:href="#Radial_Gradient_1"/><radialGradient id="radial-gradient-7" cx="-1432.63" cy="1705.24" r="67.18" gradientTransform="translate(669.53 979.69) rotate(30.31)" xlink:href="#radial-gradient-5"/><linearGradient id="linear-gradient-61" x1="-1446.31" y1="1731.03" x2="-1462.82" y2="1708.92" gradientTransform="matrix(1, 0, 0, 1, 0, 0)" xlink:href="#linear-gradient-49"/><linearGradient id="linear-gradient-62" x1="-1472.8" y1="1725.02" x2="-1459" y2="1725.02" gradientTransform="matrix(1, 0, 0, 1, 0, 0)" xlink:href="#linear-gradient-50"/><linearGradient id="linear-gradient-63" x1="-1470.64" y1="1725.02" x2="-1461.16" y2="1725.02" gradientTransform="translate(670.21 975.63) rotate(30.31)" xlink:href="#linear-gradient-52"/><radialGradient id="Radial_Gradient_1-6" cx="-1464.48" cy="1724.79" r="7.45" gradientTransform="matrix(1, 0, 0, 1, 0, 0)" xlink:href="#Radial_Gradient_1"/><radialGradient id="radial-gradient-8" cx="13049.03" cy="2661.2" r="21.79" gradientTransform="matrix(-0.13, -0.26, 0.81, -0.4, -1834.92, 6145.95)" xlink:href="#New_Gradient_Swatch_copy_16"/><radialGradient id="radial-gradient-9" cx="-5217.55" cy="-1904.6" r="30.53" gradientTransform="matrix(0.39, 0, 0, 0.9, 556.64, 3475.32)" xlink:href="#New_Gradient_Swatch_copy_16"/><radialGradient id="New_Gradient_Swatch_copy_16-3" cx="-13265.92" cy="-868.65" r="55.15" gradientTransform="matrix(0.57, 0.05, -0.72, 0.51, 5545.04, 2818.61)" xlink:href="#New_Gradient_Swatch_copy_16"/><radialGradient id="radial-gradient-10" cx="-1522.16" cy="1764.1" r="89.72" xlink:href="#radial-gradient-2"/></defs><g class="cls-2"><g id="Layer_4" data-name="Layer 4"><path class="cls-3" d="M-1401.21,1831.49l-32.24-19,9-5.09a8.52,8.52,0,0,0,2.47.36,7.82,7.82,0,0,0,3.84-.93,3.31,3.31,0,0,0,1.87-2.77,3.23,3.23,0,0,0-1.85-2.74,7.68,7.68,0,0,0-3.81-.93,7.82,7.82,0,0,0-3.84.94,3.29,3.29,0,0,0-1.87,2.77,2.94,2.94,0,0,0,1.16,2.26l-10.75,6.1,32.2,19-48.54,26.77,24.7,15.07-29,16.12-25.75-14.87a3,3,0,0,0,1-2.15,3.23,3.23,0,0,0-1.85-2.75,7.77,7.77,0,0,0-3.8-.92,7.86,7.86,0,0,0-3.85.93,3.31,3.31,0,0,0-1.87,2.77,3.25,3.25,0,0,0,1.85,2.75,7.78,7.78,0,0,0,3.81.92,8.5,8.5,0,0,0,2.91-.5l0,.08,27.54,15.94,32.81-18.27-24.67-15Zm-23.63-28.49a5.88,5.88,0,0,1,2.89-.69,6,6,0,0,1,2.86.67c.57.33.9.73.9,1.1s-.34.79-.92,1.12a6.77,6.77,0,0,1-5.75,0c-.57-.34-.9-.74-.9-1.1S-1425.43,1803.33-1424.84,1803Zm-66.33,70.51c-.57-.33-.9-.73-.9-1.1s.34-.78.92-1.12a6,6,0,0,1,2.9-.68,5.8,5.8,0,0,1,2.85.67c.57.33.9.73.9,1.1s-.33.78-.92,1.12A6.73,6.73,0,0,1-1491.17,1873.51Z" transform="translate(1686.57 -1489.21)"/><path class="cls-4" d="M-1376.22,1806.34a2.93,2.93,0,0,0,1.12-2.22,3.3,3.3,0,0,0-1.87-2.77,7.86,7.86,0,0,0-3.85-.94,7.66,7.66,0,0,0-3.8.93,3.23,3.23,0,0,0-1.86,2.74,3.33,3.33,0,0,0,1.88,2.77,7.82,7.82,0,0,0,3.84.93,8.34,8.34,0,0,0,2.54-.39l26.6,15.18-49,27.85,34,20.6,32.26-19.15a8.52,8.52,0,0,0,2.72.44,7.66,7.66,0,0,0,3.8-.92,3.23,3.23,0,0,0,1.85-2.74,3.29,3.29,0,0,0-1.87-2.77,7.73,7.73,0,0,0-3.85-.94,7.77,7.77,0,0,0-3.8.92,3.23,3.23,0,0,0-1.85,2.75,3,3,0,0,0,1,2.18l-30.28,18-30.28-18.34,49.11-27.89Zm-7.43-1.14c-.59-.33-.92-.74-.92-1.12s.32-.77.9-1.1a5.91,5.91,0,0,1,2.85-.67,6,6,0,0,1,2.9.68c.58.34.92.75.92,1.13s-.33.76-.9,1.1A6.77,6.77,0,0,1-1383.65,1805.2Zm49.08,42.31a6,6,0,0,1,2.85-.67,6,6,0,0,1,2.9.68c.58.34.92.75.92,1.13s-.33.76-.9,1.09a6.73,6.73,0,0,1-5.75,0c-.58-.34-.92-.74-.92-1.12S-1335.14,1847.84-1334.57,1847.51Z" transform="translate(1686.57 -1489.21)"/><path class="cls-5" d="M-1326,1869.42a3,3,0,0,0-1.08-2.19l46.37-28.89-75.71-43.33a2.81,2.81,0,0,0,.79-1.91,3.31,3.31,0,0,0-1.87-2.77,7.86,7.86,0,0,0-3.85-.93,7.66,7.66,0,0,0-3.8.92,3.23,3.23,0,0,0-1.86,2.75,3.3,3.3,0,0,0,1.88,2.76,7.72,7.72,0,0,0,3.84.94,8.11,8.11,0,0,0,3.1-.59l73.74,42.22-44.53,27.76a8.65,8.65,0,0,0-2.74-.45,7.7,7.7,0,0,0-3.81.93,3.23,3.23,0,0,0-1.85,2.74,3.31,3.31,0,0,0,1.87,2.77,7.86,7.86,0,0,0,3.85.94,7.66,7.66,0,0,0,3.8-.93A3.23,3.23,0,0,0-1326,1869.42Zm-38.18-75.23c-.59-.34-.92-.75-.92-1.12s.32-.77.9-1.1a5.8,5.8,0,0,1,2.85-.67,6,6,0,0,1,2.9.68c.58.34.92.75.92,1.12s-.33.77-.9,1.1A6.77,6.77,0,0,1-1364.19,1794.19Zm35.37,76.33a6.77,6.77,0,0,1-5.75,0c-.58-.34-.92-.74-.92-1.12s.33-.77.9-1.1a6,6,0,0,1,2.86-.66,6.33,6.33,0,0,1,2.45.47l.21.35.23-.14c.59.34.92.74.92,1.12S-1328.24,1870.18-1328.82,1870.52Z" transform="translate(1686.57 -1489.21)"/><path class="cls-6" d="M-1247.73,1862.67a7.72,7.72,0,0,0-3.84-.94,7.78,7.78,0,0,0-3.81.92,3.25,3.25,0,0,0-1.85,2.75,2.85,2.85,0,0,0,.74,1.86l-18.61,10.7-23.27-13.63L-1259,1840l-87.58-50.56a2.75,2.75,0,0,0,.72-1.83,3.31,3.31,0,0,0-1.87-2.77,7.86,7.86,0,0,0-3.85-.93,7.77,7.77,0,0,0-3.8.92,3.24,3.24,0,0,0-1.86,2.75,3.33,3.33,0,0,0,1.88,2.77,7.82,7.82,0,0,0,3.84.93,8,8,0,0,0,3.21-.64l85.6,49.42-39.29,24.33,26.94,15.79,20.35-11.7a8.26,8.26,0,0,0,3.25.64,7.66,7.66,0,0,0,3.8-.92,3.24,3.24,0,0,0,1.86-2.75A3.32,3.32,0,0,0-1247.73,1862.67Zm-106.73-74c-.59-.34-.92-.75-.92-1.12s.32-.77.9-1.1a5.8,5.8,0,0,1,2.85-.67,6,6,0,0,1,2.89.68c.59.34.93.75.93,1.12s-.33.77-.9,1.1A6.73,6.73,0,0,1-1354.46,1788.68Zm105.8,77.85a5.8,5.8,0,0,1-2.85.67,6,6,0,0,1-2.9-.68c-.58-.34-.92-.75-.92-1.12s.33-.77.9-1.1a6,6,0,0,1,2.86-.67,6,6,0,0,1,2.89.68c.59.34.92.75.92,1.12S-1248.09,1866.2-1248.66,1866.53Z" transform="translate(1686.57 -1489.21)"/><path class="cls-7" d="M-1208.72,1728.3a7.82,7.82,0,0,0-3.84-.93,7.78,7.78,0,0,0-3.81.92l-34.24-19,10.19-5.88a7.9,7.9,0,0,0,3.68.86,7.78,7.78,0,0,0,3.81-.92,3.25,3.25,0,0,0,1.85-2.75,3.31,3.31,0,0,0-1.87-2.77,7.86,7.86,0,0,0-3.85-.93,7.66,7.66,0,0,0-3.8.92,3.23,3.23,0,0,0-1.86,2.74,2.72,2.72,0,0,0,.5,1.54l-12.51,7.22,36.65,20.36a2.61,2.61,0,0,0-.4,1.38,3.31,3.31,0,0,0,1.87,2.77,7.86,7.86,0,0,0,3.85.93,7.77,7.77,0,0,0,3.8-.92,3.23,3.23,0,0,0,1.85-2.75A3.31,3.31,0,0,0-1208.72,1728.3Zm-30.93-28.85a5.8,5.8,0,0,1,2.85-.67,6,6,0,0,1,2.9.68c.58.34.92.74.92,1.12s-.33.77-.9,1.1a6.77,6.77,0,0,1-5.75,0c-.59-.34-.92-.75-.92-1.13S-1240.22,1699.78-1239.65,1699.45Zm30,32.72a5.91,5.91,0,0,1-2.85.67,6,6,0,0,1-2.9-.68c-.58-.34-.92-.75-.92-1.12a.9.9,0,0,1,.17-.46l.33.19.49-.87a5.93,5.93,0,0,1,2.77-.63,6,6,0,0,1,2.89.68c.59.34.92.75.92,1.12S-1209.08,1731.84-1209.65,1732.17Z" transform="translate(1686.57 -1489.21)"/><path class="cls-8" d="M-1457.08,1784.82a3.31,3.31,0,0,0,1.87-2.77,3.23,3.23,0,0,0-1.85-2.75,7.77,7.77,0,0,0-3.8-.92,7.83,7.83,0,0,0-3.85.93,3.31,3.31,0,0,0-1.87,2.77,2.77,2.77,0,0,0,.62,1.71l-35,19.72-20.15-10.55-21.73,11.5-52.64-33a2.82,2.82,0,0,0,.83-2,3.29,3.29,0,0,0-1.87-2.76,7.73,7.73,0,0,0-3.85-.94,7.77,7.77,0,0,0-3.8.92,3.23,3.23,0,0,0-1.85,2.75,3.31,3.31,0,0,0,1.87,2.77,7.82,7.82,0,0,0,3.84.93,7.83,7.83,0,0,0,3.65-.84l-.28.46,54.11,33.9,21.81-11.54,20.1,10.51,36.58-20.62,0,0a8.07,8.07,0,0,0,3.42.73A7.82,7.82,0,0,0-1457.08,1784.82Zm-140.35-14.21a6.73,6.73,0,0,1-5.75,0c-.58-.34-.92-.75-.92-1.12s.33-.77.9-1.1a6,6,0,0,1,2.85-.67,6,6,0,0,1,2.9.68c.58.34.92.75.92,1.12S-1596.86,1770.28-1597.43,1770.61Zm132.75,11.47c0-.37.34-.78.92-1.12a6,6,0,0,1,2.9-.68,6,6,0,0,1,2.85.67c.57.33.9.73.9,1.1s-.33.78-.92,1.12a6.73,6.73,0,0,1-5.75,0C-1464.35,1782.85-1464.68,1782.45-1464.68,1782.08Z" transform="translate(1686.57 -1489.21)"/><path class="cls-9" d="M-1427.89,1801.34a3.3,3.3,0,0,0,1.87-2.77,3.23,3.23,0,0,0-1.85-2.74,7.68,7.68,0,0,0-3.81-.93,7.82,7.82,0,0,0-3.84.94,3.31,3.31,0,0,0-1.87,2.77,3,3,0,0,0,1.22,2.31l-21.16,12,30.19,17.4-12.44,7.29-12.06-7.18a2.79,2.79,0,0,0,.84-2,3.31,3.31,0,0,0-1.87-2.77,7.82,7.82,0,0,0-3.84-.93,7.67,7.67,0,0,0-3.81.92,3.23,3.23,0,0,0-1.85,2.74,3.3,3.3,0,0,0,1.87,2.77,7.73,7.73,0,0,0,3.85.94,8.17,8.17,0,0,0,3-.56l13.83,8.24,16.24-9.51-30.14-17.37,19-10.8-.2-.35a8.19,8.19,0,0,0,2.91.51A7.72,7.72,0,0,0-1427.89,1801.34Zm-31.46,28.2c-.58-.34-.92-.75-.92-1.13s.33-.76.9-1.09a5.87,5.87,0,0,1,2.86-.67,6,6,0,0,1,2.89.68c.59.34.92.74.92,1.12s-.33.77-.9,1.1A6.8,6.8,0,0,1-1459.35,1829.54Zm23.86-30.93c0-.38.33-.78.92-1.12a5.88,5.88,0,0,1,2.89-.68,5.87,5.87,0,0,1,2.86.67c.57.33.9.73.9,1.09s-.34.79-.92,1.13a6.77,6.77,0,0,1-5.75,0C-1435.16,1799.38-1435.49,1799-1435.49,1798.61Z" transform="translate(1686.57 -1489.21)"/><path class="cls-10" d="M-1312.71,1761.86a7.73,7.73,0,0,0-3.81.92,3.23,3.23,0,0,0-1.85,2.74,3.3,3.3,0,0,0,1.88,2.77,7.69,7.69,0,0,0,3.84.94,7.81,7.81,0,0,0,3.81-.92,3.25,3.25,0,0,0,1.85-2.75,2.81,2.81,0,0,0-.7-1.8L-1289,1752l-17.93-10.36,16.16-9.79a8.07,8.07,0,0,0,3.17.62,7.7,7.7,0,0,0,3.81-.93,3.23,3.23,0,0,0,1.85-2.74,3.31,3.31,0,0,0-1.88-2.77,7.8,7.8,0,0,0-3.84-.94,7.66,7.66,0,0,0-3.8.93,3.23,3.23,0,0,0-1.86,2.74,2.87,2.87,0,0,0,.81,1.93l-18.16,11,18,10.39-16.68,10.51A8,8,0,0,0-1312.71,1761.86Zm22.21-34.22a5.91,5.91,0,0,1,2.85-.66,5.85,5.85,0,0,1,2.89.68c.59.34.93.74.93,1.12s-.33.77-.9,1.1a6.8,6.8,0,0,1-5.75,0c-.59-.34-.93-.75-.93-1.13S-1291.08,1728-1290.5,1727.64Zm-19.29,39a6.77,6.77,0,0,1-5.75,0c-.59-.34-.93-.75-.93-1.13s.33-.76.91-1.09a5.8,5.8,0,0,1,2.85-.67,6,6,0,0,1,2.89.68c.59.34.93.74.93,1.12S-1309.22,1766.33-1309.79,1766.66Z" transform="translate(1686.57 -1489.21)"/><path class="cls-11" d="M-1338,1779.31a7.86,7.86,0,0,0-3.85-.93,7.84,7.84,0,0,0-3.81.92,3.25,3.25,0,0,0-1.85,2.75,3.33,3.33,0,0,0,1.88,2.77,7.82,7.82,0,0,0,3.84.93,7.82,7.82,0,0,0,3.71-.87l64.33,36.93.49.29,22.48-14.09a8,8,0,0,0,3.43.74,7.77,7.77,0,0,0,3.8-.92,3.25,3.25,0,0,0,1.86-2.75,3.33,3.33,0,0,0-1.88-2.77,7.82,7.82,0,0,0-3.84-.94,7.68,7.68,0,0,0-3.81.93,3.23,3.23,0,0,0-1.85,2.74,2.72,2.72,0,0,0,.66,1.74l-20.89,13.1-63.28-36.33a2.7,2.7,0,0,0,.45-1.47A3.31,3.31,0,0,0-1338,1779.31Zm87.73,24.63a6,6,0,0,1,2.86-.66,5.88,5.88,0,0,1,2.89.68c.59.34.92.74.92,1.12s-.32.77-.9,1.1a6.73,6.73,0,0,1-5.75,0c-.58-.33-.92-.74-.92-1.12S-1250.89,1804.28-1250.32,1803.94Zm-94.41-20.77c-.59-.34-.93-.75-.93-1.12s.33-.77.91-1.1a5.91,5.91,0,0,1,2.85-.67,6,6,0,0,1,2.89.68c.59.34.93.75.93,1.12s-.33.77-.9,1.1A6.73,6.73,0,0,1-1344.73,1783.17Z" transform="translate(1686.57 -1489.21)"/><path class="cls-7" d="M-1351.75,1845.87a7.67,7.67,0,0,0,3.81-.92,3.24,3.24,0,0,0,1.85-2.75,3.29,3.29,0,0,0-1.87-2.76,7.76,7.76,0,0,0-3.85-.94,7.77,7.77,0,0,0-3.8.92,3.24,3.24,0,0,0-1.86,2.75,2.76,2.76,0,0,0,.47,1.49l-8.39,5,.16.27a7.88,7.88,0,0,0-3.76-.9,7.66,7.66,0,0,0-3.8.93,3.23,3.23,0,0,0-1.86,2.74,3.3,3.3,0,0,0,1.88,2.77,7.82,7.82,0,0,0,3.84.94,7.68,7.68,0,0,0,3.81-.93,3.23,3.23,0,0,0,1.85-2.74,2.78,2.78,0,0,0-.65-1.74l8.41-5A7.88,7.88,0,0,0-1351.75,1845.87Zm-2.91-4.8a5.91,5.91,0,0,1,2.85-.67,6,6,0,0,1,2.9.68c.58.34.92.75.92,1.12s-.33.77-.9,1.1a6.73,6.73,0,0,1-5.75,0c-.59-.34-.92-.75-.92-1.12S-1355.23,1841.4-1354.66,1841.07Zm-11.41,11.8a6.73,6.73,0,0,1-5.75,0c-.59-.33-.92-.74-.92-1.12s.32-.76.9-1.1a5.91,5.91,0,0,1,2.85-.66,5.92,5.92,0,0,1,2.9.68c.58.34.92.74.92,1.12S-1365.5,1852.54-1366.07,1852.87Z" transform="translate(1686.57 -1489.21)"/><path class="cls-12" d="M-1385.47,1880.88a7.72,7.72,0,0,0-3.84-.94,8,8,0,0,0-3.25.66l-35.78-20.73,53.47-30.31-21.89-13a2.75,2.75,0,0,0,.66-1.76A3.31,3.31,0,0,0-1398,1812a7.86,7.86,0,0,0-3.85-.93,7.77,7.77,0,0,0-3.8.92,3.24,3.24,0,0,0-1.86,2.75,3.33,3.33,0,0,0,1.88,2.77,7.79,7.79,0,0,0,3.84.93,8,8,0,0,0,3.32-.69l19.78,11.77-53.52,30.34,37.91,21.94a2.76,2.76,0,0,0-.7,1.81,3.31,3.31,0,0,0,1.87,2.77,7.82,7.82,0,0,0,3.84.93,7.67,7.67,0,0,0,3.81-.92,3.22,3.22,0,0,0,1.85-2.75A3.29,3.29,0,0,0-1385.47,1880.88Zm-19.18-65c-.59-.34-.93-.75-.93-1.12s.33-.77.91-1.1a5.8,5.8,0,0,1,2.85-.67,6,6,0,0,1,2.89.68c.59.34.93.75.93,1.12s-.33.77-.9,1.1A6.77,6.77,0,0,1-1404.65,1815.86Zm18.25,68.88a6.73,6.73,0,0,1-5.75,0c-.58-.34-.92-.75-.92-1.12s.33-.77.9-1.1a6,6,0,0,1,2.86-.67,6,6,0,0,1,2.89.68c.59.34.92.75.92,1.12S-1385.83,1884.41-1386.4,1884.74Z" transform="translate(1686.57 -1489.21)"/><path class="cls-13" d="M-1468.26,1843.63a3.31,3.31,0,0,0,1.87,2.77,7.86,7.86,0,0,0,3.85.93,7.81,7.81,0,0,0,3.81-.92,3.25,3.25,0,0,0,1.85-2.75,3.3,3.3,0,0,0-1.88-2.76,7.69,7.69,0,0,0-3.84-.94,7.77,7.77,0,0,0-3.67.86l-26.74-15.28,48.49-28.84-.42-.69a8,8,0,0,0,3.48.76,7.72,7.72,0,0,0,3.84-.94,3.29,3.29,0,0,0,1.87-2.76,3.22,3.22,0,0,0-1.85-2.75,7.66,7.66,0,0,0-3.8-.92,7.83,7.83,0,0,0-3.85.93,3.31,3.31,0,0,0-1.87,2.77,2.93,2.93,0,0,0,1.15,2.25l-50.82,30.22,29,16.57A2.7,2.7,0,0,0-1468.26,1843.63Zm24-51.65a6,6,0,0,1,2.9-.68,5.86,5.86,0,0,1,2.85.67c.57.33.9.73.9,1.1s-.34.78-.92,1.12a6.77,6.77,0,0,1-5.75,0c-.57-.33-.9-.73-.9-1.1S-1444.88,1792.32-1444.3,1792Zm-18.3,49.88a6,6,0,0,1,2.89.68c.59.34.93.75.93,1.12s-.33.77-.91,1.1a6.71,6.71,0,0,1-5.74,0c-.59-.34-.93-.75-.93-1.12s.33-.77.9-1.1A6,6,0,0,1-1462.6,1841.86Z" transform="translate(1686.57 -1489.21)"/><path class="cls-14" d="M-1320.86,1823.73a7.83,7.83,0,0,0-3.85-.93,7.87,7.87,0,0,0-3.55.8l-37.84-23.14a2.83,2.83,0,0,0,.73-1.85,3.31,3.31,0,0,0-1.87-2.77,7.86,7.86,0,0,0-3.85-.94,7.66,7.66,0,0,0-3.8.93,3.23,3.23,0,0,0-1.86,2.74,3.31,3.31,0,0,0,1.88,2.77,7.82,7.82,0,0,0,3.84.94,8,8,0,0,0,3.2-.64l38,23.24a2.66,2.66,0,0,0-.53,1.58,3.29,3.29,0,0,0,1.87,2.77,7.72,7.72,0,0,0,3.84.94,7.78,7.78,0,0,0,3.81-.92,3.25,3.25,0,0,0,1.85-2.75A3.31,3.31,0,0,0-1320.86,1823.73Zm-53.06-24c-.59-.34-.92-.75-.92-1.13s.32-.76.9-1.1a5.91,5.91,0,0,1,2.85-.66,5.92,5.92,0,0,1,2.9.68c.58.34.92.74.92,1.12s-.33.77-.9,1.1A6.8,6.8,0,0,1-1373.92,1799.7Zm52.13,27.9a6.77,6.77,0,0,1-5.75,0c-.59-.34-.92-.75-.92-1.13s.33-.76.9-1.09a5.8,5.8,0,0,1,2.85-.67,6,6,0,0,1,2.9.68c.58.34.92.75.92,1.12S-1321.22,1827.27-1321.79,1827.6Z" transform="translate(1686.57 -1489.21)"/><path class="cls-15" d="M-1534.48,1767.32a7.82,7.82,0,0,0-3.84-.93,7.78,7.78,0,0,0-3.81.92,3.25,3.25,0,0,0-1.85,2.75,3.31,3.31,0,0,0,1.87,2.77,7.86,7.86,0,0,0,3.85.93,8,8,0,0,0,3.23-.65l37.54,20.82,24.3-14-.08-.14a8.51,8.51,0,0,0,2.62.41,7.82,7.82,0,0,0,3.84-.93,3.31,3.31,0,0,0,1.87-2.77,3.2,3.2,0,0,0-1.85-2.74,7.66,7.66,0,0,0-3.8-.93,7.73,7.73,0,0,0-3.85.94,3.29,3.29,0,0,0-1.87,2.77,3,3,0,0,0,1.21,2.3l-22.41,12.87-35.79-19.85a2.79,2.79,0,0,0,.69-1.81A3.31,3.31,0,0,0-1534.48,1767.32Zm61,8.13a6,6,0,0,1,2.9-.68,6,6,0,0,1,2.85.67c.57.33.9.73.9,1.1s-.33.78-.92,1.12a6.73,6.73,0,0,1-5.75,0c-.57-.33-.9-.73-.9-1.09S-1474.07,1775.79-1473.49,1775.45Zm-67.67-4.27c-.58-.34-.92-.75-.92-1.12s.33-.77.9-1.1a5.87,5.87,0,0,1,2.86-.67,6,6,0,0,1,2.89.68c.59.34.92.75.92,1.12a1.18,1.18,0,0,1-.53.85l0,0,0,0a2,2,0,0,1-.32.22A6.73,6.73,0,0,1-1541.16,1771.18Z" transform="translate(1686.57 -1489.21)"/><path class="cls-7" d="M-1416.72,1652.15a3.31,3.31,0,0,0,1.87,2.77,7.86,7.86,0,0,0,3.85.93,7.77,7.77,0,0,0,3.8-.92,3.24,3.24,0,0,0,1.86-2.75,3.33,3.33,0,0,0-1.88-2.77,7.82,7.82,0,0,0-3.84-.93,7.75,7.75,0,0,0-3.77.9l-31.91-17.61,27.4-16.53,61,33.69-24.48,15.25-.25-.16a7.79,7.79,0,0,0-3.84-.93,7.7,7.7,0,0,0-3.81.92,3.23,3.23,0,0,0-1.85,2.74,3.3,3.3,0,0,0,1.87,2.77,7.76,7.76,0,0,0,3.85.94,7.64,7.64,0,0,0,3.8-.93,3.23,3.23,0,0,0,1.86-2.74,2.66,2.66,0,0,0-.3-1.2l26.91-16.76-64.31-35.52-.48-.27-31.16,18.8,34.23,18.9A2.75,2.75,0,0,0-1416.72,1652.15Zm32.71,15.74a5.91,5.91,0,0,1-2.85.67,6,6,0,0,1-2.89-.68c-.59-.34-.93-.75-.93-1.13s.33-.76.9-1.09a5.87,5.87,0,0,1,2.86-.67,5.88,5.88,0,0,1,2.89.68c.59.34.93.74.93,1.12S-1383.43,1667.56-1384,1667.89Zm-24.16-16.83c.59.34.92.75.92,1.12s-.32.77-.9,1.1a6.73,6.73,0,0,1-5.75,0c-.58-.34-.92-.75-.92-1.12a.81.81,0,0,1,.19-.48l.14.07.26-.48.31-.21a5.87,5.87,0,0,1,2.86-.67A6,6,0,0,1-1408.17,1651.06Z" transform="translate(1686.57 -1489.21)"/><path class="cls-16" d="M-1322.13,1646.67l-38,23.59,33,18.16-33,19.2,1,1.64,35.88-20.89-33.14-18.21,36.1-22.42,0,0a8.31,8.31,0,0,0,2.78.46,7.7,7.7,0,0,0,3.81-.92,3.23,3.23,0,0,0,1.85-2.74,3.3,3.3,0,0,0-1.87-2.77,7.76,7.76,0,0,0-3.85-.94,7.66,7.66,0,0,0-3.8.93,3.23,3.23,0,0,0-1.86,2.74A3,3,0,0,0-1322.13,1646.67Zm1.73-3.3a5.91,5.91,0,0,1,2.85-.66,5.85,5.85,0,0,1,2.89.68c.59.33.93.74.93,1.12s-.33.76-.9,1.09a6.73,6.73,0,0,1-5.75,0c-.59-.34-.93-.74-.93-1.12S-1321,1643.7-1320.4,1643.37Z" transform="translate(1686.57 -1489.21)"/><path class="cls-7" d="M-1564.27,1835.93l38.17-22.32a8,8,0,0,0,3.46.76,7.7,7.7,0,0,0,3.81-.93,3.23,3.23,0,0,0,1.85-2.74,3.33,3.33,0,0,0-1.88-2.77,7.8,7.8,0,0,0-3.84-.94,7.7,7.7,0,0,0-3.81.93,3.23,3.23,0,0,0-1.85,2.74,2.78,2.78,0,0,0,.64,1.72l-36.57,21.34-20.36-11.77a2.52,2.52,0,0,0,.21-1,3.29,3.29,0,0,0-1.87-2.76,7.76,7.76,0,0,0-3.85-.94,7.77,7.77,0,0,0-3.8.92,3.23,3.23,0,0,0-1.85,2.75,3.31,3.31,0,0,0,1.87,2.77,7.82,7.82,0,0,0,3.84.93,7.67,7.67,0,0,0,3.81-.92,3.73,3.73,0,0,0,.39-.25Zm37.81-25.27c0-.36.33-.77.9-1.1a6,6,0,0,1,2.86-.66,5.88,5.88,0,0,1,2.89.68c.59.33.93.74.93,1.12s-.33.77-.91,1.1a6.74,6.74,0,0,1-5.74,0,2.72,2.72,0,0,1-.25-.16l-.19-.31-.11.06A1.09,1.09,0,0,1-1526.46,1810.66ZM-1593,1822c-.59-.34-.92-.75-.92-1.12s.33-.77.9-1.1a5.94,5.94,0,0,1,2.85-.67,6,6,0,0,1,2.9.68c.58.34.92.75.92,1.12s-.33.77-.9,1.1A6.73,6.73,0,0,1-1593,1822Z" transform="translate(1686.57 -1489.21)"/><path class="cls-17" d="M-1454.4,1790.89l-.21-.36a8.1,8.1,0,0,0,3.42.73,7.82,7.82,0,0,0,3.84-.93,3.31,3.31,0,0,0,1.87-2.77,3.23,3.23,0,0,0-1.85-2.75,7.77,7.77,0,0,0-3.8-.92,7.83,7.83,0,0,0-3.85.93,3.31,3.31,0,0,0-1.87,2.77,2.85,2.85,0,0,0,.88,2l-104.26,59.7-.21-.13a7.82,7.82,0,0,0-3.84-.93,7.67,7.67,0,0,0-3.81.92,3.23,3.23,0,0,0-1.85,2.74,3.29,3.29,0,0,0,1.87,2.77,7.76,7.76,0,0,0,3.85.94,7.77,7.77,0,0,0,3.8-.92,3.23,3.23,0,0,0,1.85-2.75,2.63,2.63,0,0,0-.31-1.22Zm.37-4.42a6,6,0,0,1,2.9-.68,5.86,5.86,0,0,1,2.85.67c.57.33.9.73.9,1.1s-.34.78-.92,1.12a6.73,6.73,0,0,1-5.75,0c-.57-.33-.9-.73-.9-1.1S-1454.61,1786.81-1454,1786.47ZM-1561.37,1853a6.77,6.77,0,0,1-5.75,0c-.58-.34-.92-.75-.92-1.13s.33-.76.9-1.09a5.87,5.87,0,0,1,2.86-.67,6,6,0,0,1,2.89.68c.59.34.92.74.92,1.12S-1560.8,1852.71-1561.37,1853Z" transform="translate(1686.57 -1489.21)"/><path class="cls-18" d="M-1299.45,1785.84l24.19-14.42a8.37,8.37,0,0,0,2.88.5,7.68,7.68,0,0,0,3.81-.93,3.23,3.23,0,0,0,1.85-2.74,3.3,3.3,0,0,0-1.87-2.77,7.86,7.86,0,0,0-3.85-.94,7.66,7.66,0,0,0-3.8.93,3.22,3.22,0,0,0-1.85,2.74,2.92,2.92,0,0,0,1,2.1l-22.34,13.31-17.9-10.83a2.74,2.74,0,0,0,.63-1.72,3.31,3.31,0,0,0-1.87-2.77,7.86,7.86,0,0,0-3.85-.94,7.73,7.73,0,0,0-3.81.93,3.23,3.23,0,0,0-1.85,2.74,3.33,3.33,0,0,0,1.88,2.77,7.8,7.8,0,0,0,3.84.94,7.7,7.7,0,0,0,3.81-.93l.11-.07-.26.44Zm24.16-18.73a5.94,5.94,0,0,1,2.85-.66,5.89,5.89,0,0,1,2.9.68c.58.33.92.74.92,1.12s-.33.77-.9,1.1a6.77,6.77,0,0,1-5.75,0c-.59-.33-.92-.74-.92-1.12S-1275.86,1767.44-1275.29,1767.11Zm-44.23,5.06a6.77,6.77,0,0,1-5.75,0c-.59-.33-.93-.74-.93-1.12s.33-.77.91-1.1a5.91,5.91,0,0,1,2.85-.66,5.85,5.85,0,0,1,2.89.68c.59.33.93.74.93,1.12S-1318.95,1771.84-1319.52,1772.17Z" transform="translate(1686.57 -1489.21)"/><path class="cls-7" d="M-1319.53,1667.15a2.78,2.78,0,0,0,.71-1.82,3.31,3.31,0,0,0-1.87-2.77,7.86,7.86,0,0,0-3.85-.93,7.66,7.66,0,0,0-3.8.92,3.23,3.23,0,0,0-1.86,2.75,3.33,3.33,0,0,0,1.88,2.77,7.82,7.82,0,0,0,3.84.93,8.13,8.13,0,0,0,3.23-.65l17,10.08,31.11-18.82.12.08a7.86,7.86,0,0,0,3.85.93,7.77,7.77,0,0,0,3.8-.92,3.24,3.24,0,0,0,1.86-2.75,3.33,3.33,0,0,0-1.88-2.77,7.82,7.82,0,0,0-3.84-.93,7.78,7.78,0,0,0-3.81.92,3.25,3.25,0,0,0-1.85,2.75,2.72,2.72,0,0,0,.36,1.31l-29.73,18Zm-7.84-.73c-.59-.34-.92-.75-.92-1.12s.32-.77.9-1.1a5.8,5.8,0,0,1,2.85-.67,6,6,0,0,1,2.9.68c.58.34.92.75.92,1.12a1.13,1.13,0,0,1-.51.82l-.14-.08-.19.31-.06,0A6.77,6.77,0,0,1-1327.37,1666.42Zm55.31-10.6a5.87,5.87,0,0,1,2.86-.67,6,6,0,0,1,2.89.68c.59.34.92.75.92,1.12s-.32.77-.9,1.1a6.77,6.77,0,0,1-5.75,0c-.58-.34-.92-.75-.92-1.12S-1272.63,1656.15-1272.06,1655.82Z" transform="translate(1686.57 -1489.21)"/><path class="cls-19" d="M-1314.75,1700.6l34.26-20.84a8.32,8.32,0,0,0,2.83.49,7.68,7.68,0,0,0,3.81-.93,3.23,3.23,0,0,0,1.85-2.74,3.31,3.31,0,0,0-1.87-2.77,7.86,7.86,0,0,0-3.85-.94,7.66,7.66,0,0,0-3.8.93,3.23,3.23,0,0,0-1.86,2.74,2.94,2.94,0,0,0,1,2.13l-36.19,22,11.78,6.46-33,19.2,1,1.64,35.88-20.88Zm34.18-25.16a5.91,5.91,0,0,1,2.85-.66,5.92,5.92,0,0,1,2.9.68c.58.33.92.74.92,1.12s-.33.77-.9,1.1a6.73,6.73,0,0,1-5.75,0c-.59-.33-.92-.74-.92-1.12S-1281.15,1675.78-1280.57,1675.44Z" transform="translate(1686.57 -1489.21)"/><path class="cls-20" d="M-1394.53,1720.23l35.89-20.89-55.4-30.19,31.89-19.89-24.49-13a2.67,2.67,0,0,0,.33-1.27,3.31,3.31,0,0,0-1.87-2.77,7.83,7.83,0,0,0-3.85-.93,7.77,7.77,0,0,0-3.8.92,3.23,3.23,0,0,0-1.85,2.75,3.31,3.31,0,0,0,1.87,2.77,7.82,7.82,0,0,0,3.84.93,7.78,7.78,0,0,0,3.81-.92l.11-.07,22.1,11.75-31.86,19.88,55.29,30.12-33,19.19Zm-20.33-84.18c-.59-.34-.92-.75-.92-1.12s.33-.77.9-1.1a5.94,5.94,0,0,1,2.85-.67,6,6,0,0,1,2.9.68c.58.34.92.75.92,1.12s-.33.77-.9,1.1A6.73,6.73,0,0,1-1414.86,1636.05Z" transform="translate(1686.57 -1489.21)"/><path class="cls-21" d="M-1586.2,1720.37a7.77,7.77,0,0,0,3.8.92,8.14,8.14,0,0,0,3.19-.62l49.14,28.81-11.65,6.84,43.85,26,14.35-8.16a8.1,8.1,0,0,0,3.14.61,7.82,7.82,0,0,0,3.84-.94,3.31,3.31,0,0,0,1.87-2.77,3.22,3.22,0,0,0-1.85-2.74,7.66,7.66,0,0,0-3.8-.93,7.84,7.84,0,0,0-3.85.94,3.31,3.31,0,0,0-1.87,2.77,2.79,2.79,0,0,0,.76,1.88l-12.57,7.14-40.13-23.76,11.67-6.85-51.15-30a2.88,2.88,0,0,0,.78-1.9,3.24,3.24,0,0,0-1.85-2.75,7.67,7.67,0,0,0-3.81-.92,7.82,7.82,0,0,0-3.84.93,3.31,3.31,0,0,0-1.87,2.77A3.23,3.23,0,0,0-1586.2,1720.37Zm103,49.58a5.92,5.92,0,0,1,2.9-.68,5.91,5.91,0,0,1,2.85.66c.57.33.9.74.9,1.1s-.33.79-.92,1.12a6.73,6.73,0,0,1-5.75,0c-.57-.33-.9-.74-.9-1.1S-1483.8,1770.28-1483.22,1770Zm-102-53.45a6,6,0,0,1,2.89-.68,5.87,5.87,0,0,1,2.86.67c.57.33.9.73.9,1.1a1.28,1.28,0,0,1-.59.9h0v0l-.31.21a6.77,6.77,0,0,1-5.75,0c-.57-.33-.9-.73-.9-1.1S-1585.82,1716.84-1585.23,1716.5Z" transform="translate(1686.57 -1489.21)"/><path class="cls-22" d="M-1547.15,1726.2a7.78,7.78,0,0,0,3.81.92,7.93,7.93,0,0,0,3.73-.88l41.28,25.26-17,10.16,16.73,9.73,4.95-3a7.75,7.75,0,0,0,3.56.81,7.72,7.72,0,0,0,3.84-.94,3.29,3.29,0,0,0,1.87-2.77,3.22,3.22,0,0,0-1.85-2.74,7.66,7.66,0,0,0-3.8-.92,7.86,7.86,0,0,0-3.85.93,3.31,3.31,0,0,0-1.87,2.77,2.69,2.69,0,0,0,.53,1.59l-3.39,2-13-7.55,17-10.12-43.46-26.59a2.65,2.65,0,0,0,.48-1.51,3.23,3.23,0,0,0-1.85-2.75,7.77,7.77,0,0,0-3.8-.92,7.86,7.86,0,0,0-3.85.93,3.31,3.31,0,0,0-1.87,2.77A3.25,3.25,0,0,0-1547.15,1726.2Zm54.2,38.24a6,6,0,0,1,2.9-.68,5.8,5.8,0,0,1,2.85.67c.57.33.9.73.9,1.09s-.33.79-.92,1.13a6.77,6.77,0,0,1-5.75,0c-.57-.33-.9-.73-.9-1.1S-1493.53,1764.78-1492.95,1764.44Zm-53.23-42.11a6,6,0,0,1,2.9-.68,5.8,5.8,0,0,1,2.85.67c.57.33.9.73.9,1.1s-.33.78-.92,1.12a6.73,6.73,0,0,1-5.75,0c-.57-.33-.9-.73-.9-1.1S-1546.76,1722.67-1546.18,1722.33Z" transform="translate(1686.57 -1489.21)"/><path class="cls-23" d="M-1481.85,1634.08a7.77,7.77,0,0,0,3.8.92,8.49,8.49,0,0,0,2.45-.36l32.2,18.21-29.15,16.19,67.89,39.92,1-1.64-65-38.23,29.2-16.22-34-19.26a3,3,0,0,0,1.23-2.31,3.25,3.25,0,0,0-1.85-2.75,7.78,7.78,0,0,0-3.81-.92,7.82,7.82,0,0,0-3.84.93,3.33,3.33,0,0,0-1.88,2.77A3.24,3.24,0,0,0-1481.85,1634.08Zm1-3.87a6,6,0,0,1,2.89-.68,5.87,5.87,0,0,1,2.86.67c.57.33.9.73.9,1.1s-.34.78-.92,1.12a6.73,6.73,0,0,1-5.75,0c-.58-.33-.9-.73-.9-1.1S-1481.47,1630.55-1480.88,1630.21Z" transform="translate(1686.57 -1489.21)"/><path class="cls-24" d="M-1555.65,1688.35a7.78,7.78,0,0,0,3.81.92,8.46,8.46,0,0,0,3-.53l28.91,17-10.65,6.09,63.71,37.3,1-1.64-60.87-35.64,10.64-6.09L-1547,1687.6a2.91,2.91,0,0,0,.92-2,3.23,3.23,0,0,0-1.86-2.74,7.66,7.66,0,0,0-3.8-.92,7.86,7.86,0,0,0-3.85.93,3.31,3.31,0,0,0-1.87,2.77A3.25,3.25,0,0,0-1555.65,1688.35Zm1-3.87a6,6,0,0,1,2.9-.68,5.8,5.8,0,0,1,2.85.67c.58.33.9.73.9,1.09s-.33.79-.92,1.13a6.77,6.77,0,0,1-5.75,0c-.57-.33-.9-.73-.9-1.1S-1555.26,1684.82-1554.68,1684.48Z" transform="translate(1686.57 -1489.21)"/><path class="cls-7" d="M-1515.33,1649.89a7.68,7.68,0,0,0,3.81.93,7.89,7.89,0,0,0,3.83-.93l16.79,9.85.48-.82.47.83,12.63-7.1a8.26,8.26,0,0,0,2.67.43,7.83,7.83,0,0,0,3.85-.93,3.31,3.31,0,0,0,1.87-2.77,3.23,3.23,0,0,0-1.85-2.74,7.68,7.68,0,0,0-3.81-.93,7.72,7.72,0,0,0-3.84.94,3.29,3.29,0,0,0-1.87,2.77,2.89,2.89,0,0,0,1,2.15l-11.14,6.25-15.82-9.29a2.71,2.71,0,0,0,.43-1.42,3.25,3.25,0,0,0-1.86-2.75,7.77,7.77,0,0,0-3.8-.92,7.76,7.76,0,0,0-3.85.94,3.3,3.3,0,0,0-1.87,2.77A3.23,3.23,0,0,0-1515.33,1649.89Zm37.85-1.59a5.88,5.88,0,0,1,2.89-.68,6,6,0,0,1,2.86.66c.57.33.9.73.9,1.1s-.34.78-.92,1.12a6.73,6.73,0,0,1-5.75,0c-.57-.33-.9-.73-.9-1.09S-1478.07,1648.63-1477.48,1648.3Zm-36.88-2.28a6,6,0,0,1,2.9-.68,5.91,5.91,0,0,1,2.85.67c.58.33.9.73.9,1.1s-.33.78-.92,1.12a6.77,6.77,0,0,1-5.75,0c-.57-.34-.9-.74-.9-1.1S-1514.94,1646.36-1514.36,1646Z" transform="translate(1686.57 -1489.21)"/><path class="cls-25" d="M-1279.94,1804.68l-47.52-26a2.91,2.91,0,0,0,1-2.13,3.29,3.29,0,0,0-1.87-2.77,7.76,7.76,0,0,0-3.85-.94,7.77,7.77,0,0,0-3.8.92,3.24,3.24,0,0,0-1.86,2.75,3.33,3.33,0,0,0,1.88,2.77,7.82,7.82,0,0,0,3.84.93,7.7,7.7,0,0,0,3.81-.92h0l-.47.86,48.84,26.69,33.41-19.3,28.6,16L-1253,1825a7.81,7.81,0,0,0-3.77-.9,7.78,7.78,0,0,0-3.81.92,3.25,3.25,0,0,0-1.85,2.75,3.31,3.31,0,0,0,1.87,2.77,7.83,7.83,0,0,0,3.85.93,7.77,7.77,0,0,0,3.8-.92,3.23,3.23,0,0,0,1.85-2.75,2.69,2.69,0,0,0-.46-1.48l37.34-22.9-32.37-18.08Zm-49.31-27a6.73,6.73,0,0,1-5.75,0c-.59-.34-.93-.75-.93-1.12s.33-.77.91-1.1a5.91,5.91,0,0,1,2.85-.67,6,6,0,0,1,2.89.68c.59.34.93.75.93,1.13S-1328.68,1777.34-1329.25,1777.67Zm76.33,50.16c0,.37-.33.77-.9,1.1a5.86,5.86,0,0,1-2.85.67,6,6,0,0,1-2.9-.68c-.58-.34-.92-.75-.92-1.12s.33-.77.9-1.1a5.87,5.87,0,0,1,2.86-.67,6,6,0,0,1,2.89.68l.09.06.43.71.22-.13A.87.87,0,0,1-1252.92,1827.83Z" transform="translate(1686.57 -1489.21)"/><path class="cls-7" d="M-1492.18,1849.19a7.84,7.84,0,0,0-3.81-.92,7.69,7.69,0,0,0-3.84.94,3.28,3.28,0,0,0-1.88,2.76,3.24,3.24,0,0,0,1.85,2.75,7.7,7.7,0,0,0,3.81.92h0a7.88,7.88,0,0,0,3.76-.89l23.35,14.34a2.78,2.78,0,0,0-.65,1.74,3.23,3.23,0,0,0,1.85,2.74,7.7,7.7,0,0,0,3.81.93,7.69,7.69,0,0,0,3.84-.94,3.3,3.3,0,0,0,1.88-2.77,3.23,3.23,0,0,0-1.86-2.74,7.64,7.64,0,0,0-3.8-.93,7.77,7.77,0,0,0-3.76.9l.16-.27-23.33-14.33a2.7,2.7,0,0,0,.47-1.48A3.25,3.25,0,0,0-1492.18,1849.19Zm-3.87,4.55h0a5.8,5.8,0,0,1-2.85-.67c-.58-.33-.91-.73-.91-1.1s.34-.78.93-1.12a6,6,0,0,1,2.89-.68,5.91,5.91,0,0,1,2.85.67c.58.33.91.73.91,1.1s-.34.78-.93,1.12A6,6,0,0,1-1496,1853.74Zm29.29,16a5.85,5.85,0,0,1,2.89-.68,5.91,5.91,0,0,1,2.85.66c.58.34.91.74.91,1.1s-.34.79-.93,1.12a6.73,6.73,0,0,1-5.75,0c-.57-.33-.9-.73-.9-1.1S-1467.35,1870-1466.76,1869.71Z" transform="translate(1686.57 -1489.21)"/><path class="cls-7" d="M-1565.27,1766.16a7.66,7.66,0,0,0-3.8-.92,7.86,7.86,0,0,0-3.85.93,3.31,3.31,0,0,0-1.87,2.77,3.25,3.25,0,0,0,1.85,2.75,7.78,7.78,0,0,0,3.81.92h0a7.77,7.77,0,0,0,3.76-.9l23.35,14.35a2.76,2.76,0,0,0-.65,1.73,3.25,3.25,0,0,0,1.85,2.75,7.78,7.78,0,0,0,3.81.92,7.82,7.82,0,0,0,3.84-.93,3.31,3.31,0,0,0,1.87-2.77,3.23,3.23,0,0,0-1.85-2.75,7.77,7.77,0,0,0-3.8-.92,7.84,7.84,0,0,0-3.77.9l.16-.27-23.32-14.33a2.73,2.73,0,0,0,.47-1.49A3.23,3.23,0,0,0-1565.27,1766.16Zm-3.86,4.55h0a6,6,0,0,1-2.86-.67c-.57-.33-.9-.73-.9-1.1s.34-.78.92-1.12a6,6,0,0,1,2.9-.68,5.8,5.8,0,0,1,2.85.67c.57.33.9.73.9,1.09s-.33.79-.92,1.13A6,6,0,0,1-1569.13,1770.71Zm29.28,16a6,6,0,0,1,2.9-.68,5.91,5.91,0,0,1,2.85.67c.57.33.9.73.9,1.1s-.33.78-.92,1.12a6.73,6.73,0,0,1-5.75,0c-.57-.33-.9-.73-.9-1.1S-1540.43,1787-1539.85,1786.67Z" transform="translate(1686.57 -1489.21)"/><path class="cls-7" d="M-1516.11,1693.23a7.78,7.78,0,0,0,3.81.92,7.88,7.88,0,0,0,3.76-.89l8.41,5a2.76,2.76,0,0,0-.65,1.73,3.24,3.24,0,0,0,1.85,2.75,7.67,7.67,0,0,0,3.81.92,7.82,7.82,0,0,0,3.84-.93,3.33,3.33,0,0,0,1.88-2.77,3.24,3.24,0,0,0-1.86-2.75,7.77,7.77,0,0,0-3.8-.92,7.77,7.77,0,0,0-3.76.9l.16-.27-8.39-5a2.69,2.69,0,0,0,.46-1.48,3.23,3.23,0,0,0-1.85-2.75,7.77,7.77,0,0,0-3.8-.92,7.86,7.86,0,0,0-3.85.93,3.31,3.31,0,0,0-1.87,2.77A3.25,3.25,0,0,0-1516.11,1693.23Zm18.15,5.69a6,6,0,0,1,2.9-.68,5.91,5.91,0,0,1,2.85.67c.57.33.9.73.9,1.1s-.33.78-.92,1.12a6,6,0,0,1-2.89.68,5.87,5.87,0,0,1-2.86-.67c-.57-.33-.9-.73-.9-1.1S-1498.54,1699.26-1498,1698.92Zm-17.18-9.56a6,6,0,0,1,2.9-.68,5.8,5.8,0,0,1,2.85.67c.57.33.9.73.9,1.1s-.33.78-.92,1.12a6.73,6.73,0,0,1-5.75,0c-.57-.33-.9-.73-.9-1.1S-1515.72,1689.7-1515.14,1689.36Z" transform="translate(1686.57 -1489.21)"/><path class="cls-7" d="M-1221.15,1759.11a7.77,7.77,0,0,0,3.8-.92,3.24,3.24,0,0,0,1.86-2.75,3.33,3.33,0,0,0-1.88-2.77,7.82,7.82,0,0,0-3.84-.93,7.78,7.78,0,0,0-3.81.92,3.24,3.24,0,0,0-1.85,2.75,2.62,2.62,0,0,0,.47,1.48l-42.63,24.46.16.27a7.77,7.77,0,0,0-3.76-.9,7.78,7.78,0,0,0-3.81.92,3.25,3.25,0,0,0-1.85,2.75,3.31,3.31,0,0,0,1.87,2.77,7.86,7.86,0,0,0,3.85.93,7.77,7.77,0,0,0,3.8-.92,3.24,3.24,0,0,0,1.86-2.75,2.77,2.77,0,0,0-.66-1.73l42.66-24.48A7.77,7.77,0,0,0-1221.15,1759.11Zm-2.92-4.8a5.87,5.87,0,0,1,2.86-.67,6,6,0,0,1,2.89.68c.59.34.92.75.92,1.12s-.32.77-.9,1.1a6.71,6.71,0,0,1-5.74,0c-.59-.34-.93-.75-.93-1.12S-1224.64,1754.64-1224.07,1754.31Zm-45.65,31.21a6.73,6.73,0,0,1-5.75,0c-.58-.34-.92-.75-.92-1.12s.33-.77.9-1.1a5.87,5.87,0,0,1,2.86-.67,6,6,0,0,1,2.89.68c.59.34.92.75.92,1.12S-1269.14,1785.19-1269.72,1785.52Z" transform="translate(1686.57 -1489.21)"/><path class="cls-7" d="M-1242.91,1738.48a7.78,7.78,0,0,0,3.81-.92,3.25,3.25,0,0,0,1.85-2.75,3.31,3.31,0,0,0-1.87-2.77,7.86,7.86,0,0,0-3.85-.93,7.66,7.66,0,0,0-3.8.92,3.23,3.23,0,0,0-1.86,2.74,2.73,2.73,0,0,0,.47,1.49l-21.06,12.29.16.27a7.88,7.88,0,0,0-3.76-.89,7.67,7.67,0,0,0-3.81.92,3.23,3.23,0,0,0-1.85,2.74,3.3,3.3,0,0,0,1.87,2.77,7.72,7.72,0,0,0,3.84.94,7.68,7.68,0,0,0,3.81-.93,3.22,3.22,0,0,0,1.85-2.74,2.78,2.78,0,0,0-.65-1.74l21.09-12.31A7.77,7.77,0,0,0-1242.91,1738.48Zm-2.91-4.8a5.8,5.8,0,0,1,2.85-.67,6,6,0,0,1,2.9.68c.58.34.92.74.92,1.12s-.33.77-.9,1.1a6.77,6.77,0,0,1-5.75,0c-.59-.34-.92-.75-.92-1.13S-1246.4,1734-1245.82,1733.68Zm-24.09,19a6.77,6.77,0,0,1-5.75,0c-.58-.34-.92-.75-.92-1.13s.33-.76.9-1.1a6,6,0,0,1,2.86-.66,5.88,5.88,0,0,1,2.89.68c.59.33.92.74.92,1.12S-1269.34,1752.4-1269.91,1752.73Z" transform="translate(1686.57 -1489.21)"/><path class="cls-26" d="M-1431.56,1737.34l1-1.64-51.62-30.12,19-11.74-43.22-25.25a2.82,2.82,0,0,0,.66-1.75,3.25,3.25,0,0,0-1.85-2.75,7.78,7.78,0,0,0-3.81-.92,7.82,7.82,0,0,0-3.84.93,3.35,3.35,0,0,0-1.88,2.77,3.24,3.24,0,0,0,1.86,2.75,7.77,7.77,0,0,0,3.8.92,8,8,0,0,0,3.4-.72l41.19,24.07-19,11.74Zm-82.81-69.37c-.57-.33-.9-.73-.9-1.1s.33-.78.92-1.12a6,6,0,0,1,2.89-.68,5.87,5.87,0,0,1,2.86.67c.57.33.9.73.9,1.1s-.34.78-.92,1.12A6.73,6.73,0,0,1-1514.37,1668Z" transform="translate(1686.57 -1489.21)"/><path class="cls-7" d="M-1503.56,1834.21a7.82,7.82,0,0,0-3.84-.93,7.78,7.78,0,0,0-3.81.92,3.25,3.25,0,0,0-1.85,2.75,2.7,2.7,0,0,0,.49,1.53l-30.57,17.25,20.93,11.41a2.7,2.7,0,0,0-.42,1.42,3.31,3.31,0,0,0,1.87,2.77,7.86,7.86,0,0,0,3.85.93,7.77,7.77,0,0,0,3.8-.92,3.24,3.24,0,0,0,1.86-2.75,3.33,3.33,0,0,0-1.88-2.77,7.82,7.82,0,0,0-3.84-.93,7.74,7.74,0,0,0-3.76.9l-18.49-10.09,28.19-15.9a8,8,0,0,0,3.69.85,7.77,7.77,0,0,0,3.8-.92,3.23,3.23,0,0,0,1.86-2.75A3.33,3.33,0,0,0-1503.56,1834.21Zm-10.52,33.26c.59.34.92.75.92,1.12s-.32.77-.9,1.1a5.8,5.8,0,0,1-2.85.67,6,6,0,0,1-2.9-.68c-.58-.34-.92-.75-.92-1.12a.91.91,0,0,1,.2-.5h0l0-.09a2.3,2.3,0,0,1,.64-.52,5.87,5.87,0,0,1,2.86-.67A6,6,0,0,1-1514.08,1867.47Zm9.59-29.39a6.73,6.73,0,0,1-5.75,0c-.58-.34-.92-.75-.92-1.12s.33-.77.9-1.1a6,6,0,0,1,2.86-.67,6,6,0,0,1,2.89.68c.59.34.92.75.92,1.12S-1503.92,1837.75-1504.49,1838.08Z" transform="translate(1686.57 -1489.21)"/><path class="cls-27" d="M-1333.16,1736.49l1,1.63,90.18-53.87-.22-.38a7.83,7.83,0,0,0,3.6.82,7.77,7.77,0,0,0,3.8-.92A3.24,3.24,0,0,0-1233,1681a3.35,3.35,0,0,0-1.88-2.77,7.82,7.82,0,0,0-3.84-.93,7.78,7.78,0,0,0-3.81.92,3.25,3.25,0,0,0-1.85,2.75,2.81,2.81,0,0,0,.83,1.94Zm91.62-56.6a5.87,5.87,0,0,1,2.86-.67,6,6,0,0,1,2.89.68c.59.34.92.75.92,1.12s-.33.77-.9,1.1a6.73,6.73,0,0,1-5.75,0c-.58-.34-.92-.75-.92-1.12S-1242.11,1680.22-1241.54,1679.89Z" transform="translate(1686.57 -1489.21)"/><circle class="cls-28" cx="263.11" cy="263.11" r="263.11"/><circle class="cls-29" cx="293.07" cy="212.88" r="169.92"/><g class="cls-30"><path class="cls-31" d="M-1394.43,1850.92a26,26,0,0,1-13-3.14l-138-79.69c-4.75-2.74-7.48-7.09-7.48-11.91,0-5.29,3.28-10.22,9-13.53l78.33-45.22a32,32,0,0,1,15.83-4,26.07,26.07,0,0,1,13,3.15l138,79.69c4.75,2.74,7.48,7.08,7.48,11.91,0,5.29-3.28,10.22-9,13.52l-78.33,45.23A32.17,32.17,0,0,1-1394.43,1850.92Z" transform="translate(1686.57 -1489.21)"/><path class="cls-32" d="M-1465.29,1698a31.35,31.35,0,0,1,15.79-3.91,29.52,29.52,0,0,1,6.46.79,25.45,25.45,0,0,1,6.45,2.54l137.5,79.39c4.74,2.73,7.2,7.05,6.92,11.76a13.9,13.9,0,0,1-.83,3.8c-1.2,3.36-4.61,6.94-8.47,9.17l-77.22,44.59a30.8,30.8,0,0,1-3.36,1.65,33,33,0,0,1-12.21,2.42,25.62,25.62,0,0,1-12.86-3l-138-79.69c-4.74-2.73-7.19-7.08-6.88-11.78a14.31,14.31,0,0,1,.65-3.29c1.11-3.55,4.63-7.36,8.69-9.7Z" transform="translate(1686.57 -1489.21)"/><path class="cls-33" d="M-1464.94,1698.62a30.69,30.69,0,0,1,15.74-3.79,29.49,29.49,0,0,1,6.41.9,29.34,29.34,0,0,1,6.38,2.62l137,79.08c4.71,2.72,6.92,7,6.34,11.61a14.92,14.92,0,0,1-1,3.63c-1.17,3-5.09,6.79-8.57,8.8l-76.11,43.94a31.73,31.73,0,0,1-3.3,1.65,32.31,32.31,0,0,1-12,2.47,25,25,0,0,1-12.68-2.94l-138-79.7c-4.73-2.73-6.92-7.06-6.29-11.65a15.9,15.9,0,0,1,.83-3.13c1.1-3.17,5.19-7.22,8.84-9.33Z" transform="translate(1686.57 -1489.21)"/><path class="cls-34" d="M-1464.59,1699.22a30,30,0,0,1,15.69-3.68,29.47,29.47,0,0,1,6.36,1,34.45,34.45,0,0,1,6.31,2.7l136.45,78.78c4.69,2.71,6.66,7,5.78,11.46a17.13,17.13,0,0,1-1.22,3.45c-1.12,2.62-5.57,6.64-8.66,8.43l-75,43.3c-.78.45-2.38,1.28-3.24,1.64a31.55,31.55,0,0,1-11.81,2.52,24.4,24.4,0,0,1-12.5-2.84l-138-79.69c-4.71-2.73-6.64-7-5.69-11.53a19.74,19.74,0,0,1,1-3c1.08-2.79,5.75-7.07,9-9Z" transform="translate(1686.57 -1489.21)"/><path class="cls-35" d="M-1464.25,1699.82a29.32,29.32,0,0,1,15.65-3.57,29,29,0,0,1,6.3,1.12,41.8,41.8,0,0,1,6.25,2.78l135.93,78.48c4.66,2.69,6.39,6.95,5.21,11.31a21.37,21.37,0,0,1-1.41,3.27c-1.06,2.26-6.06,6.49-8.77,8.06l-73.88,42.65c-.69.4-2.43,1.32-3.19,1.65a31.49,31.49,0,0,1-11.6,2.57,23.83,23.83,0,0,1-12.32-2.75l-138-79.69c-4.71-2.72-6.39-7-5.1-11.41a25.08,25.08,0,0,1,1.2-2.82c1-2.4,6.3-6.93,9.14-8.56Z" transform="translate(1686.57 -1489.21)"/><path class="cls-36" d="M-1463.9,1700.42a28.71,28.71,0,0,1,15.6-3.46,29,29,0,0,1,6.25,1.23,51.49,51.49,0,0,1,6.18,2.86l135.4,78.18c4.64,2.68,6.14,6.91,4.64,11.15a26.17,26.17,0,0,1-1.6,3.1c-1,1.9-6.54,6.35-8.86,7.68l-72.78,42c-.58.34-2.48,1.35-3.12,1.64a30.89,30.89,0,0,1-11.4,2.62,23.34,23.34,0,0,1-12.15-2.65l-138-79.69c-4.7-2.71-6.14-7-4.51-11.28.34-.9.93-1.72,1.38-2.67,1-2,6.85-6.78,9.29-8.18Z" transform="translate(1686.57 -1489.21)"/><path class="cls-37" d="M-1463.56,1701a28.08,28.08,0,0,1,15.55-3.35,28.15,28.15,0,0,1,6.21,1.35,62.65,62.65,0,0,1,6.11,2.93l134.88,77.88c4.62,2.66,5.9,6.87,4.07,11a12.22,12.22,0,0,1-1.79,2.92c-.56,1.69-7,6.2-9,7.31l-71.66,41.38c-.49.28-2.53,1.39-3.07,1.63a30.24,30.24,0,0,1-11.2,2.67,22.65,22.65,0,0,1-12-2.55l-138-79.69c-4.68-2.7-5.9-7-3.91-11.15a12.13,12.13,0,0,1,1.56-2.52c.5-1.8,7.41-6.63,9.44-7.8Z" transform="translate(1686.57 -1489.21)"/><path class="cls-38" d="M-1463.21,1701.62a27.5,27.5,0,0,1,15.5-3.24,28.21,28.21,0,0,1,6.16,1.46c.84.27,5.34,2.61,6,3l134.35,77.56c4.6,2.66,5.67,6.85,3.51,10.85a12.18,12.18,0,0,1-2,2.75c-.44,1.35-7.52,6-9.06,6.94l-70.55,40.73c-.39.23-2.58,1.43-3,1.63a30.09,30.09,0,0,1-11,2.73,22.17,22.17,0,0,1-11.79-2.46l-138-79.69c-4.68-2.69-5.67-7-3.33-11a12.9,12.9,0,0,1,1.75-2.37c.4-1.44,8-6.48,9.59-7.42Z" transform="translate(1686.57 -1489.21)"/><path class="cls-39" d="M-1462.87,1702.21a26.89,26.89,0,0,1,15.46-3.12,27.35,27.35,0,0,1,6.1,1.57c.64.21,5.46,2.79,6,3.1L-1301.5,1781c4.57,2.64,5.44,6.82,2.94,10.7a12.53,12.53,0,0,1-2.19,2.57c-.33,1-8,5.9-9.16,6.57l-69.43,40.09c-.3.17-2.64,1.47-3,1.62a29.55,29.55,0,0,1-10.8,2.78,21.59,21.59,0,0,1-11.61-2.35l-138-79.69c-4.66-2.69-5.45-7-2.73-10.9a13.45,13.45,0,0,1,1.93-2.22c.3-1.08,8.53-6.33,9.75-7Z" transform="translate(1686.57 -1489.21)"/><path class="cls-40" d="M-1462.52,1702.81a26.36,26.36,0,0,1,15.41-3,26.6,26.6,0,0,1,6,1.68c.42.15,5.56,3,5.91,3.18l133.3,77c4.55,2.63,5.23,6.81,2.37,10.55a13.35,13.35,0,0,1-2.37,2.39c-.22.67-8.49,5.75-9.26,6.2l-68.33,39.44c-.19.12-2.68,1.52-2.89,1.62a28.91,28.91,0,0,1-10.6,2.83,21.1,21.1,0,0,1-11.43-2.25l-138-79.69c-4.65-2.69-5.24-7-2.14-10.77a13.39,13.39,0,0,1,2.11-2.07c.2-.72,9.09-6.18,9.9-6.65Z" transform="translate(1686.57 -1489.21)"/><path class="cls-41" d="M-1462.18,1703.41a25.79,25.79,0,0,1,15.37-2.9,26.68,26.68,0,0,1,6,1.79c.21.08,5.66,3.16,5.84,3.26l132.78,76.66c4.53,2.61,5,6.8,1.8,10.39a13.62,13.62,0,0,1-2.57,2.22c-.11.33-9,5.6-9.36,5.83l-67.21,38.8-2.83,1.61a28.78,28.78,0,0,1-10.4,2.89,20.54,20.54,0,0,1-11.25-2.16l-138-79.69c-4.63-2.68-5-7-1.54-10.64a15,15,0,0,1,2.29-1.92c.1-.36,9.64-6,10-6.27Z" transform="translate(1686.57 -1489.21)"/><path d="M-1403.66,1841.2l-138-79.69c-5.45-3.15-4.77-8.64,1.52-12.28l78.34-45.22c6.29-3.64,15.81-4,21.26-.88l138,79.69c5.45,3.14,4.77,8.64-1.53,12.27l-78.33,45.23C-1388.69,1844-1398.21,1844.35-1403.66,1841.2Z" transform="translate(1686.57 -1489.21)"/></g><path class="cls-42" d="M-1403.66,1841.08l-138-79.7c-2.43-1.4-3.64-3.27-3.68-5.23v-6.84c0-2.38,1.8,1.76,5.2-.2l78.34-45.23c6.29-3.63,15.81-4,21.26-.88l138,79.69c1.82,1,3.14-3.41,3.61-2,.16.47.06,6.73.07,7.22,0,2.44-1.71,5-5.21,7l-78.33,45.22C-1388.69,1843.83-1398.21,1844.22-1403.66,1841.08Z" transform="translate(1686.57 -1489.21)"/><path class="cls-43" d="M-1403.66,1834.36l-138-79.69c-5.45-3.14-4.77-8.64,1.52-12.27l78.34-45.23c6.29-3.63,15.81-4,21.26-.88l138,79.69c5.45,3.15,4.77,8.64-1.53,12.28l-78.33,45.22C-1388.69,1837.12-1398.21,1837.51-1403.66,1834.36Z" transform="translate(1686.57 -1489.21)"/><path class="cls-44" d="M-1394.43,1833.73a16.13,16.13,0,0,1-7.86-1.75l-138-79.69c-.86-.5-2.31-1.54-2.31-3s1.43-3.17,3.83-4.56l78.34-45.22a21.85,21.85,0,0,1,10.65-2.64,16.07,16.07,0,0,1,7.86,1.76l138,79.69c.86.49,2.3,1.54,2.3,2.94s-1.43,3.18-3.82,4.56l-78.34,45.23A22,22,0,0,1-1394.43,1833.73Z" transform="translate(1686.57 -1489.21)"/><path class="cls-45" d="M-1304.07,1787.12l-78.33,45.22c-6.29,3.64-15.81,4-21.26.88l-138-79.69c-2.26-1.3-3.45-3-3.64-4.83-.28,2.23.91,4.4,3.64,6l138,79.69c5.45,3.15,15,2.76,21.26-.88l78.33-45.22c3.69-2.13,5.43-4.89,5.17-7.45C-1299.18,1783-1300.93,1785.3-1304.07,1787.12Z" transform="translate(1686.57 -1489.21)"/><path class="cls-46" d="M-1304.24,1772.91-1440,1694.53a11.38,11.38,0,0,1-5.24-13l29.57-102.3a11.37,11.37,0,0,1,16.61-6.7l135.76,78.38a11.36,11.36,0,0,1,5.24,13l-29.58,102.31A11.36,11.36,0,0,1-1304.24,1772.91Z" transform="translate(1686.57 -1489.21)"/><path class="cls-47" d="M-1306.14,1772.91l-135.76-78.38a11.38,11.38,0,0,1-5.24-13l29.58-102.3a11.36,11.36,0,0,1,16.6-6.7l135.76,78.38a11.36,11.36,0,0,1,5.24,13l-29.58,102.31A11.36,11.36,0,0,1-1306.14,1772.91Z" transform="translate(1686.57 -1489.21)"/><path class="cls-48" d="M-1300.48,1770.64a7.4,7.4,0,0,1-3.76-1L-1440,1691.24a7.56,7.56,0,0,1-3.49-8.65l29.58-102.3a7.6,7.6,0,0,1,7.28-5.48,7.41,7.41,0,0,1,3.77,1l135.76,78.38a7.55,7.55,0,0,1,3.49,8.64l-29.58,102.31A7.6,7.6,0,0,1-1300.48,1770.64Z" transform="translate(1686.57 -1489.21)"/><path class="cls-49" d="M-1300.62,1770.38a7.47,7.47,0,0,1-3.75-1l-135.27-78.1a7.52,7.52,0,0,1-3.48-8.61l29.49-102a7.57,7.57,0,0,1,7.26-5.46,7.43,7.43,0,0,1,3.75,1l135.27,78.1a7.53,7.53,0,0,1,3.48,8.62l-29.49,102A7.59,7.59,0,0,1-1300.62,1770.38Z" transform="translate(1686.57 -1489.21)"/><path class="cls-50" d="M-1300.76,1770.11a7.39,7.39,0,0,1-3.74-1l-134.78-77.82a7.49,7.49,0,0,1-3.46-8.58l29.39-101.69a7.55,7.55,0,0,1,7.24-5.44,7.42,7.42,0,0,1,3.74,1l134.78,77.81a7.51,7.51,0,0,1,3.46,8.59l-29.39,101.69A7.58,7.58,0,0,1-1300.76,1770.11Z" transform="translate(1686.57 -1489.21)"/><path class="cls-51" d="M-1300.91,1769.85a7.35,7.35,0,0,1-3.72-1l-134.29-77.53a7.47,7.47,0,0,1-3.45-8.56l29.3-101.38a7.55,7.55,0,0,1,7.22-5.42,7.35,7.35,0,0,1,3.72,1l134.29,77.53a7.45,7.45,0,0,1,3.45,8.55l-29.3,101.39A7.55,7.55,0,0,1-1300.91,1769.85Z" transform="translate(1686.57 -1489.21)"/><path class="cls-52" d="M-1301,1769.58a7.28,7.28,0,0,1-3.71-1l-133.8-77.25a7.44,7.44,0,0,1-3.44-8.52l29.22-101.08a7.5,7.5,0,0,1,7.18-5.4,7.28,7.28,0,0,1,3.71,1l133.81,77.25a7.45,7.45,0,0,1,3.44,8.52l-29.22,101.08A7.51,7.51,0,0,1-1301,1769.58Z" transform="translate(1686.57 -1489.21)"/><path class="cls-53" d="M-1301.19,1769.32a7.37,7.37,0,0,1-3.7-1l-133.31-77a7.41,7.41,0,0,1-3.43-8.49l29.13-100.77a7.48,7.48,0,0,1,7.16-5.38,7.27,7.27,0,0,1,3.7,1l133.31,77a7.42,7.42,0,0,1,3.43,8.49L-1294,1763.94A7.49,7.49,0,0,1-1301.19,1769.32Z" transform="translate(1686.57 -1489.21)"/><path class="cls-54" d="M-1301.33,1769.06a7.33,7.33,0,0,1-3.69-1l-132.83-76.69a7.39,7.39,0,0,1-3.41-8.46l29-100.46a7.45,7.45,0,0,1,7.14-5.36,7.31,7.31,0,0,1,3.68,1l132.83,76.69a7.4,7.4,0,0,1,3.41,8.46l-29,100.46A7.46,7.46,0,0,1-1301.33,1769.06Z" transform="translate(1686.57 -1489.21)"/><path class="cls-55" d="M-1301.48,1768.79a7.25,7.25,0,0,1-3.67-1l-132.34-76.41a7.36,7.36,0,0,1-3.4-8.43l29-100.15a7.4,7.4,0,0,1,7.1-5.34,7.22,7.22,0,0,1,3.67,1l132.34,76.4a7.37,7.37,0,0,1,3.4,8.43l-28.95,100.16A7.43,7.43,0,0,1-1301.48,1768.79Z" transform="translate(1686.57 -1489.21)"/><path class="cls-56" d="M-1301.62,1768.53a7.31,7.31,0,0,1-3.66-1l-131.85-76.13a7.34,7.34,0,0,1-3.39-8.39l28.87-99.85a7.38,7.38,0,0,1,7.08-5.32,7.21,7.21,0,0,1,3.66,1l131.85,76.12a7.33,7.33,0,0,1,3.38,8.4l-28.86,99.85A7.4,7.4,0,0,1-1301.62,1768.53Z" transform="translate(1686.57 -1489.21)"/><path class="cls-57" d="M-1301.76,1768.26a7.27,7.27,0,0,1-3.65-1l-131.36-75.84a7.3,7.3,0,0,1-3.37-8.37l28.77-99.54a7.37,7.37,0,0,1,7.06-5.3,7.23,7.23,0,0,1,3.64,1l131.36,75.84a7.32,7.32,0,0,1,3.38,8.37l-28.78,99.54A7.37,7.37,0,0,1-1301.76,1768.26Z" transform="translate(1686.57 -1489.21)"/><path class="cls-58" d="M-1301.91,1768a7.19,7.19,0,0,1-3.63-1l-130.87-75.56a7.28,7.28,0,0,1-3.36-8.34l28.69-99.23a7.33,7.33,0,0,1,7-5.28,7.19,7.19,0,0,1,3.63,1l130.87,75.56a7.28,7.28,0,0,1,3.37,8.33l-28.69,99.24A7.35,7.35,0,0,1-1301.91,1768Z" transform="translate(1686.57 -1489.21)"/><path class="cls-59" d="M-1302,1767.74a7.16,7.16,0,0,1-3.62-1L-1436,1691.48a7.24,7.24,0,0,1-3.35-8.3l28.6-98.93a7.31,7.31,0,0,1,7-5.26,7.18,7.18,0,0,1,3.62,1l130.38,75.27a7.25,7.25,0,0,1,3.35,8.31l-28.6,98.92A7.32,7.32,0,0,1-1302,1767.74Z" transform="translate(1686.57 -1489.21)"/><path class="cls-45" d="M-1265.2,1650.92-1401,1572.54a11.19,11.19,0,0,0-7.78-1.32,11.23,11.23,0,0,1,6.89,1.44l135.76,78.38a11.37,11.37,0,0,1,5.24,13l-29.57,102.31a11.33,11.33,0,0,1-8.82,8,11.33,11.33,0,0,0,9.7-8.14L-1260,1663.9A11.36,11.36,0,0,0-1265.2,1650.92Z" transform="translate(1686.57 -1489.21)"/><ellipse class="cls-60" cx="-1360.36" cy="1824.67" rx="44.93" ry="29.82" transform="translate(890.89 -1869.34) rotate(-22.34)"/><ellipse class="cls-61" cx="-1464.94" cy="1725.83" rx="34.46" ry="20.35" transform="translate(1045.56 -1871.86) rotate(-18.98)"/><path class="cls-62" d="M-1379.14,1805l-112.08-64.71c-2.25-1.3-2-3.56.63-5.06l42.08-24.29c2.59-1.5,6.51-1.66,8.76-.37l112.08,64.72c2.25,1.29,2,3.55-.63,5l-42.08,24.3C-1373,1806.14-1376.89,1806.31-1379.14,1805Z" transform="translate(1686.57 -1489.21)"/><path class="cls-63" d="M-1446.06,1715.67l7.19,4.15a3.63,3.63,0,0,0,3.29,0,1,1,0,0,0,0-1.91l-7.18-4.14a3.65,3.65,0,0,0-3.3,0A1,1,0,0,0-1446.06,1715.67Zm12.3,7.1,3.4,2a3.62,3.62,0,0,0,3.3,0c.91-.52.9-1.37,0-1.9l-3.4-2a3.65,3.65,0,0,0-3.3,0A1,1,0,0,0-1433.76,1722.77Zm8.52,4.92,3.4,2a3.65,3.65,0,0,0,3.3,0c.91-.52.9-1.37,0-1.9l-3.4-2a3.65,3.65,0,0,0-3.3,0C-1426.16,1726.31-1426.16,1727.16-1425.24,1727.69Zm8.52,4.92,3.4,2a3.65,3.65,0,0,0,3.3,0,1,1,0,0,0,0-1.9l-3.41-2a3.6,3.6,0,0,0-3.29,0C-1417.64,1731.23-1417.64,1732.08-1416.72,1732.61Zm8.51,4.92,3.41,2a3.63,3.63,0,0,0,3.29,0,1,1,0,0,0,0-1.91l-3.4-2a3.65,3.65,0,0,0-3.3,0A1,1,0,0,0-1408.21,1737.53Zm8.52,4.91,3.4,2a3.62,3.62,0,0,0,3.3,0c.91-.52.9-1.37,0-1.9l-3.4-2a3.65,3.65,0,0,0-3.3,0A1,1,0,0,0-1399.69,1742.44Zm8.52,4.92,3.4,2a3.65,3.65,0,0,0,3.3,0c.91-.52.9-1.37,0-1.9l-3.4-2a3.65,3.65,0,0,0-3.3,0C-1392.09,1746-1392.09,1746.83-1391.17,1747.36Zm8.52,4.92,3.4,2a3.65,3.65,0,0,0,3.3,0,1,1,0,0,0,0-1.9l-3.41-2a3.6,3.6,0,0,0-3.29,0C-1383.57,1750.9-1383.57,1751.75-1382.65,1752.28Zm8.51,4.92,3.41,2a3.63,3.63,0,0,0,3.29,0,1,1,0,0,0,0-1.91l-3.4-2a3.65,3.65,0,0,0-3.3,0A1,1,0,0,0-1374.14,1757.2Zm8.52,4.91,3.4,2a3.62,3.62,0,0,0,3.3,0c.91-.52.9-1.37,0-1.9l-3.4-2a3.65,3.65,0,0,0-3.3,0A1,1,0,0,0-1365.62,1762.11Zm8.52,4.92,3.4,2a3.65,3.65,0,0,0,3.3,0c.91-.52.9-1.37,0-1.9l-3.4-2a3.65,3.65,0,0,0-3.3,0C-1358,1765.65-1358,1766.5-1357.1,1767Zm8.52,4.92,3.4,2a3.65,3.65,0,0,0,3.3,0,1,1,0,0,0,0-1.9l-3.4-2a3.6,3.6,0,0,0-3.29,0C-1349.5,1770.57-1349.5,1771.42-1348.58,1772Zm8.69,5,3.4,2a3.65,3.65,0,0,0,3.3,0,1,1,0,0,0,0-1.9l-3.4-2a3.62,3.62,0,0,0-3.3,0C-1340.81,1775.59-1340.8,1776.44-1339.89,1777Zm-113.83-56.61,3,1.7a4.16,4.16,0,0,0,3.75,0l2.93-1.69a1.15,1.15,0,0,0,0-2.17l-3-1.7a4.16,4.16,0,0,0-3.75,0l-2.93,1.69A1.15,1.15,0,0,0-1453.72,1720.36Zm15.22,6.63,2.93-1.69c1-.6,1-1.57,0-2.17l-2.94-1.7a4.13,4.13,0,0,0-3.75,0l-2.93,1.69a1.15,1.15,0,0,0,0,2.17l3,1.7A4.16,4.16,0,0,0-1438.5,1727Zm1.82,3.21,2.94,1.7a4.15,4.15,0,0,0,3.76,0l2.92-1.69c1-.59,1-1.56,0-2.16l-2.94-1.7a4.15,4.15,0,0,0-3.76,0l-2.92,1.69A1.14,1.14,0,0,0-1436.68,1730.2Zm8.51,4.91,3,1.7a4.13,4.13,0,0,0,3.75,0l2.93-1.69a1.15,1.15,0,0,0,0-2.17l-3-1.7a4.13,4.13,0,0,0-3.75,0l-2.93,1.69C-1429.21,1733.54-1429.2,1734.51-1428.17,1735.11Zm18.14,2.77-3-1.7a4.16,4.16,0,0,0-3.75,0l-2.93,1.69a1.15,1.15,0,0,0,0,2.17l3,1.7a4.16,4.16,0,0,0,3.75,0l2.93-1.69A1.15,1.15,0,0,0-1410,1737.88Zm8.51,4.92-2.94-1.7a4.16,4.16,0,0,0-3.75,0l-2.93,1.69a1.15,1.15,0,0,0,0,2.17l3,1.7a4.16,4.16,0,0,0,3.75,0l2.93-1.69C-1400.47,1744.37-1400.48,1743.4-1401.52,1742.8Zm8.52,4.92-2.94-1.7a4.15,4.15,0,0,0-3.76,0l-2.92,1.69a1.14,1.14,0,0,0,0,2.17l2.94,1.7a4.15,4.15,0,0,0,3.76,0l2.92-1.69C-1391.95,1749.29-1392,1748.32-1393,1747.72Zm8.52,4.91-3-1.7a4.13,4.13,0,0,0-3.75,0l-2.93,1.69c-1,.59-1,1.56,0,2.16l2.95,1.7a4.13,4.13,0,0,0,3.75,0l2.93-1.69A1.15,1.15,0,0,0-1384.48,1752.63Zm8.52,4.92-3-1.7a4.16,4.16,0,0,0-3.75,0l-2.93,1.69a1.15,1.15,0,0,0,0,2.17l2.95,1.7a4.16,4.16,0,0,0,3.75,0l2.93-1.69A1.15,1.15,0,0,0-1376,1757.55Zm8.51,4.92-2.94-1.7a4.16,4.16,0,0,0-3.75,0l-2.93,1.69a1.14,1.14,0,0,0,0,2.17l3,1.7a4.16,4.16,0,0,0,3.75,0l2.93-1.69C-1366.4,1764-1366.41,1763.07-1367.45,1762.47Zm-1.09,7.07,2.94,1.7a4.15,4.15,0,0,0,3.76,0l2.92-1.69c1-.59,1-1.56,0-2.16l-2.94-1.7a4.15,4.15,0,0,0-3.76,0l-2.92,1.69A1.14,1.14,0,0,0-1368.54,1769.54Zm18.13,2.76-2.95-1.7a4.13,4.13,0,0,0-3.75,0l-2.93,1.69a1.14,1.14,0,0,0,0,2.16l3,1.7a4.13,4.13,0,0,0,3.75,0l2.93-1.69A1.15,1.15,0,0,0-1350.41,1772.3Zm12.47,7.21-6.72-3.89a4.15,4.15,0,0,0-3.76,0l-2.92,1.69c-1,.59-1,1.56,0,2.16l6.72,3.89a4.15,4.15,0,0,0,3.76,0l2.92-1.69C-1336.89,1781.08-1336.9,1780.11-1337.94,1779.51Zm-123.67-54.59,6.73,3.88a4.16,4.16,0,0,0,3.75,0l2.93-1.69a1.15,1.15,0,0,0,0-2.17l-6.73-3.88a4.13,4.13,0,0,0-3.75,0l-2.93,1.69C-1462.65,1723.34-1462.65,1724.31-1461.61,1724.92Zm12.3,7.1,3,1.7a4.13,4.13,0,0,0,3.75,0l2.93-1.69c1-.59,1-1.56,0-2.16l-2.94-1.7a4.13,4.13,0,0,0-3.75,0l-2.93,1.69A1.15,1.15,0,0,0-1449.31,1732Zm11.46,6.61a4.15,4.15,0,0,0,3.76,0l2.92-1.69a1.14,1.14,0,0,0,0-2.17l-2.94-1.7a4.15,4.15,0,0,0-3.76,0l-2.92,1.69c-1,.59-1,1.56,0,2.16Zm8.52,4.92a4.16,4.16,0,0,0,3.75,0l2.93-1.69a1.15,1.15,0,0,0,0-2.17l-2.95-1.7a4.16,4.16,0,0,0-3.75,0l-2.93,1.69c-1,.6-1,1.57,0,2.17Zm8.49-.64-2.93,1.69a1.15,1.15,0,0,0,0,2.17l3,1.7a4.16,4.16,0,0,0,3.75,0l2.93-1.69a1.15,1.15,0,0,0,0-2.17l-2.95-1.7A4.13,4.13,0,0,0-1420.84,1742.91Zm8.7,4.81-3.29,1.9a1,1,0,0,0,0,2l3.31,1.91a3.75,3.75,0,0,0,3.39,0l3.29-1.9a1,1,0,0,0,0-2l-3.31-1.91A3.78,3.78,0,0,0-1412.14,1747.72Zm8.51,4.92-3.28,1.9a1,1,0,0,0,0,2l3.31,1.91a3.75,3.75,0,0,0,3.39,0l3.28-1.89a1,1,0,0,0,0-2l-3.3-1.91A3.77,3.77,0,0,0-1403.63,1752.64Zm8.52,4.92-3.29,1.9c-.93.54-.92,1.41,0,2l3.31,1.91a3.75,3.75,0,0,0,3.39,0l3.29-1.9a1,1,0,0,0,0-2l-3.31-1.91A3.72,3.72,0,0,0-1395.11,1757.56Zm8.52,4.92-3.29,1.9a1,1,0,0,0,0,1.95l3.31,1.91a3.72,3.72,0,0,0,3.39,0l3.29-1.9c.93-.54.93-1.41,0-2l-3.31-1.91A3.75,3.75,0,0,0-1386.59,1762.48Zm8.52,4.92-3.29,1.89a1,1,0,0,0,0,2l3.31,1.91a3.75,3.75,0,0,0,3.39,0l3.29-1.9a1,1,0,0,0,0-2l-3.31-1.91A3.75,3.75,0,0,0-1378.07,1767.4Zm11.94,10.68,3.28-1.89a1,1,0,0,0,0-2l-3.3-1.91a3.77,3.77,0,0,0-3.4,0l-3.28,1.9a1,1,0,0,0,0,2l3.3,1.91A3.77,3.77,0,0,0-1366.13,1778.08Zm8.51,4.92,3.29-1.9a1,1,0,0,0,0-1.95l-3.31-1.91a3.72,3.72,0,0,0-3.39,0l-3.29,1.9c-.93.54-.92,1.41,0,2l3.31,1.91A3.75,3.75,0,0,0-1357.62,1783Zm12,1.17-3.31-1.91a3.72,3.72,0,0,0-3.39,0l-3.29,1.9c-.93.54-.93,1.41,0,2l3.31,1.91a3.75,3.75,0,0,0,3.39,0l3.29-1.9C-1344.7,1785.59-1344.71,1784.71-1345.64,1784.17Zm-124-54.8,10.68,6.16a3.75,3.75,0,0,0,3.39,0l3.29-1.9a1,1,0,0,0,0-2l-10.68-6.16a3.72,3.72,0,0,0-3.39,0l-3.29,1.9C-1470.62,1728-1470.62,1728.82-1469.68,1729.37Zm15.89,9.17,3.31,1.91a3.75,3.75,0,0,0,3.39,0l3.29-1.89a1,1,0,0,0,0-2l-3.31-1.91a3.75,3.75,0,0,0-3.39,0l-3.29,1.9A1,1,0,0,0-1453.79,1738.54Zm8.52,4.92,3.31,1.91a3.75,3.75,0,0,0,3.39,0l3.29-1.9a1,1,0,0,0,0-2l-3.31-1.91a3.72,3.72,0,0,0-3.39,0l-3.29,1.9C-1446.21,1742-1446.21,1742.91-1445.27,1743.46Zm8.52,4.91,3.3,1.91a3.74,3.74,0,0,0,3.4,0l3.28-1.9c.94-.54.93-1.41,0-2l-3.3-1.91a3.77,3.77,0,0,0-3.4,0l-3.28,1.9C-1437.7,1747-1437.69,1747.83-1436.75,1748.37Zm15.21,6.84,3.29-1.9a1,1,0,0,0,0-2l-3.31-1.91a3.75,3.75,0,0,0-3.39,0l-3.29,1.89a1,1,0,0,0,0,2l3.31,1.91A3.75,3.75,0,0,0-1421.54,1755.21Zm8.52,4.91,3.29-1.89a1,1,0,0,0,0-2l-3.31-1.91a3.75,3.75,0,0,0-3.39,0l-3.29,1.9a1,1,0,0,0,0,2l3.31,1.91A3.75,3.75,0,0,0-1413,1760.12Zm8.52,4.92,3.29-1.9c.93-.53.92-1.41,0-2l-3.31-1.91a3.72,3.72,0,0,0-3.39,0l-3.29,1.9c-.93.54-.93,1.41,0,2l3.31,1.91A3.75,3.75,0,0,0-1404.5,1765Zm8.52,4.92,3.28-1.9c.94-.54.93-1.41,0-2l-3.3-1.91a3.77,3.77,0,0,0-3.4,0l-3.28,1.9c-.94.54-.93,1.41,0,2l3.3,1.91A3.74,3.74,0,0,0-1396,1770Zm8.51,4.92,3.29-1.9a1,1,0,0,0,0-2l-3.31-1.91a3.75,3.75,0,0,0-3.39,0l-3.29,1.89a1,1,0,0,0,0,2l3.31,1.91A3.75,3.75,0,0,0-1387.47,1774.88Zm8.52,4.92,3.29-1.9a1,1,0,0,0,0-2L-1379,1774a3.75,3.75,0,0,0-3.39,0l-3.29,1.9a1,1,0,0,0,0,2l3.31,1.91A3.78,3.78,0,0,0-1378.95,1779.8Zm1.82,3,3.31,1.91a3.75,3.75,0,0,0,3.39,0l3.29-1.9c.93-.53.92-1.41,0-2l-3.31-1.91a3.72,3.72,0,0,0-3.39,0l-3.29,1.9C-1378.07,1781.38-1378.07,1782.25-1377.13,1782.8Zm23.6,5.92-8.42-4.86a3.75,3.75,0,0,0-3.39,0l-3.28,1.9c-.94.54-.93,1.41,0,2l8.41,4.86a3.75,3.75,0,0,0,3.39,0l3.29-1.9A1,1,0,0,0-1353.53,1788.72Zm-124-54.56,15.15,8.74a4.21,4.21,0,0,0,3.83,0l2.85-1.64a1.17,1.17,0,0,0,0-2.22l-15.15-8.74a4.23,4.23,0,0,0-3.84,0l-2.85,1.64C-1478.6,1732.55-1478.59,1733.54-1477.53,1734.16Zm20.8,12,2.87,1.65a4.24,4.24,0,0,0,3.83,0l2.85-1.65a1.17,1.17,0,0,0,0-2.21l-2.87-1.65a4.21,4.21,0,0,0-3.83,0l-2.85,1.64C-1457.8,1744.56-1457.79,1745.55-1456.73,1746.17Zm8.52,4.91,2.86,1.66a4.26,4.26,0,0,0,3.84,0l2.84-1.65a1.17,1.17,0,0,0,0-2.21l-2.86-1.66a4.26,4.26,0,0,0-3.84,0l-2.84,1.64A1.17,1.17,0,0,0-1448.21,1751.08Zm8.52,4.92,2.86,1.66a4.24,4.24,0,0,0,3.83,0l2.85-1.64a1.17,1.17,0,0,0,0-2.21l-2.87-1.66a4.24,4.24,0,0,0-3.83,0l-2.85,1.64A1.17,1.17,0,0,0-1439.69,1756Zm8.51,4.92,2.87,1.65a4.21,4.21,0,0,0,3.83,0l2.85-1.64a1.17,1.17,0,0,0,0-2.22l-2.87-1.65a4.24,4.24,0,0,0-3.83,0l-2.85,1.65A1.17,1.17,0,0,0-1431.18,1760.92Zm8.52,4.92,2.87,1.65a4.24,4.24,0,0,0,3.83,0l2.85-1.65a1.17,1.17,0,0,0,0-2.21L-1416,1762a4.21,4.21,0,0,0-3.83,0l-2.85,1.64C-1423.73,1764.23-1423.72,1765.22-1422.66,1765.84Zm8.52,4.91,2.86,1.66a4.26,4.26,0,0,0,3.84,0l2.84-1.65a1.17,1.17,0,0,0,0-2.21l-2.86-1.66a4.26,4.26,0,0,0-3.84,0l-2.84,1.64A1.17,1.17,0,0,0-1414.14,1770.75Zm8.52,4.92,2.86,1.66a4.24,4.24,0,0,0,3.83,0l2.85-1.64a1.17,1.17,0,0,0,0-2.21l-2.87-1.66a4.24,4.24,0,0,0-3.83,0l-2.85,1.64A1.17,1.17,0,0,0-1405.62,1775.67Zm8.51,4.92,2.87,1.65a4.21,4.21,0,0,0,3.83,0l2.85-1.64a1.17,1.17,0,0,0,0-2.22l-2.87-1.65a4.24,4.24,0,0,0-3.83,0l-2.85,1.65A1.17,1.17,0,0,0-1397.11,1780.59Zm8.52,4.92,2.87,1.65a4.24,4.24,0,0,0,3.83,0l2.85-1.65c1-.6,1-1.59,0-2.21l-2.86-1.65a4.21,4.21,0,0,0-3.83,0l-2.85,1.65C-1389.66,1783.9-1389.65,1784.89-1388.59,1785.51Zm8.52,4.91,2.86,1.66a4.26,4.26,0,0,0,3.84,0l2.84-1.65a1.17,1.17,0,0,0,0-2.21l-2.86-1.66a4.26,4.26,0,0,0-3.84,0l-2.84,1.64A1.17,1.17,0,0,0-1380.07,1790.42Zm18.24,2.84-2.87-1.66a4.27,4.27,0,0,0-3.83,0l-2.85,1.65a1.17,1.17,0,0,0,0,2.21l2.87,1.66a4.24,4.24,0,0,0,3.83,0l2.85-1.64A1.17,1.17,0,0,0-1361.83,1793.26Zm-110.28-54.56-6.64-3.84a4.26,4.26,0,0,0-3.84,0l-2.84,1.65a1.17,1.17,0,0,0,0,2.21l6.64,3.84a4.29,4.29,0,0,0,3.84,0l2.85-1.65A1.17,1.17,0,0,0-1472.11,1738.7Zm8.52,4.92-2.87-1.66a4.27,4.27,0,0,0-3.83,0l-2.85,1.65a1.17,1.17,0,0,0,0,2.21l2.86,1.66a4.24,4.24,0,0,0,3.83,0l2.85-1.64A1.17,1.17,0,0,0-1463.59,1743.62Zm8.52,4.91-2.87-1.65a4.24,4.24,0,0,0-3.83,0l-2.85,1.65a1.17,1.17,0,0,0,0,2.21l2.87,1.65a4.21,4.21,0,0,0,3.83,0l2.85-1.64A1.17,1.17,0,0,0-1455.07,1748.53Zm59.62,34.43-54-31.16a4.21,4.21,0,0,0-3.83,0l-2.85,1.64c-1.06.61-1.05,1.6,0,2.22l54,31.16a4.24,4.24,0,0,0,3.83,0l2.85-1.64A1.17,1.17,0,0,0-1395.45,1783Zm8.52,4.91-2.87-1.65a4.24,4.24,0,0,0-3.83,0l-2.85,1.65a1.17,1.17,0,0,0,0,2.21l2.87,1.65a4.21,4.21,0,0,0,3.83,0l2.85-1.64A1.17,1.17,0,0,0-1386.93,1787.87Zm8.51,4.92-2.86-1.65a4.21,4.21,0,0,0-3.83,0l-2.85,1.64c-1.06.61-1,1.6,0,2.22l2.87,1.65a4.24,4.24,0,0,0,3.83,0l2.85-1.65A1.17,1.17,0,0,0-1378.42,1792.79Zm8.7,5-2.87-1.65a4.21,4.21,0,0,0-3.83,0l-2.85,1.64a1.17,1.17,0,0,0,0,2.22l2.87,1.65a4.24,4.24,0,0,0,3.83,0l2.85-1.65A1.17,1.17,0,0,0-1369.72,1797.81Z" transform="translate(1686.57 -1489.21)"/><g class="cls-64"><path class="cls-65" d="M-1289.72,1811.22c-1.36,7.61-5,12.52-9.68,14.36l-24.76,9.18c-4.88,1.69-1-3.43-7.08-8.53-12.16-10.25-19.76-31.18-17-46.74,1.38-7.69-5.73-9-.91-10.82l25.63-9.15c4.85-1.61,10.82-.08,16.8,5C-1294.53,1774.74-1286.94,1795.66-1289.72,1811.22Z" transform="translate(1686.57 -1489.21)"/><path class="cls-66" d="M-1289.72,1811.22c-1.36,7.61-5,12.52-9.68,14.36l-24.76,9.18c-4.88,1.69-1-3.43-7.08-8.53-12.16-10.25-19.76-31.18-17-46.74,1.38-7.69-5.73-9-.91-10.82l25.63-9.15c4.85-1.61,10.82-.08,16.8,5C-1294.53,1774.74-1286.94,1795.66-1289.72,1811.22Z" transform="translate(1686.57 -1489.21)"/><ellipse class="cls-67" cx="-1337.15" cy="1801.92" rx="20.3" ry="35.16" transform="translate(983.63 -1839.65) rotate(-20.16)"/><path class="cls-68" d="M-1330.83,1773.37c-5.82-4.92-11.64-6.48-16.42-5.07,4.29-.41,9.22,1.35,14.16,5.52,12.15,10.25,19.75,31.18,17,46.74-1.45,8.1-5.44,13.14-10.63,14.67,6.29-.6,11.24-5.87,12.89-15.11C-1311.07,1804.56-1318.67,1783.63-1330.83,1773.37Z" transform="translate(1686.57 -1489.21)"/><path class="cls-69" d="M-1319.23,1821.4c-1.32,7.38-4.8,12.16-9.4,13.95l-10.4,3.78c-25.38,9.22-73.46,24.82-73.46,24.82-8,2.77-37.84-81.74-29.93-84.68h0a129.71,129.71,0,0,0,76.35-3.1l14-5c4.71-1.56,10.51-.08,16.32,4.82C-1323.9,1786-1316.52,1806.28-1319.23,1821.4Z" transform="translate(1686.57 -1489.21)"/><path class="cls-70" d="M-1459.21,1801.47c-3.53,19.72,2.53,44.39,14.25,63.24h53.28c2.69-26.47-10.2-59.86-30.18-76.71-10.4-8.78-20.79-11.43-29.24-8.64-.24.08-9.46,3.19-9.69,3.28C-1469.18,1785.75-1456.82,1788.08-1459.21,1801.47Z" transform="translate(1686.57 -1489.21)"/><path class="cls-71" d="M-1400.74,1864.71c1.29-25.85-11.34-57.11-30.45-73.23-21.16-17.85-42.25-10.37-47.1,16.71-3.12,17.46,1.27,38.78,10.44,56.52Z" transform="translate(1686.57 -1489.21)"/><path class="cls-72" d="M-1403.43,1865.09c2-24.53-10-54.94-28.33-70.42-19.78-16.69-39.5-9.69-44,15.63-3,17,1.52,37.84,10.8,54.79Z" transform="translate(1686.57 -1489.21)"/><path class="cls-73" d="M-1455.71,1864.71c-9.84-17.21-14.76-38.83-11.63-56.3,2.09-11.67,7.41-19.44,14.47-22.8-11.15,0-20.06,8.71-22.92,24.69-3,16.83,1.45,37.53,10.59,54.41Z" transform="translate(1686.57 -1489.21)"/><path class="cls-74" d="M-1413.08,1819.5c-2.87,1.59-22.3,12.44-22.34,12.45-1.33.49.63.86.25,3a15.19,15.19,0,0,0,4.7,12.93c1.67,1.41.6,2.83,2,2.36,0,0,18.9-3.59,24-4.58A98.47,98.47,0,0,0-1413.08,1819.5Z" transform="translate(1686.57 -1489.21)"/><path class="cls-75" d="M-1426,1846.28c-.77,4.31-4.12,5.5-7.48,2.66a15.2,15.2,0,0,1-4.7-12.93c.77-4.3,4.12-5.49,7.49-2.65A15.19,15.19,0,0,1-1426,1846.28Z" transform="translate(1686.57 -1489.21)"/><path class="cls-76" d="M-1430.36,1833.25c-1.61-1.36-3.22-1.79-4.54-1.4a5.38,5.38,0,0,1,3.91,1.52,15.2,15.2,0,0,1,4.7,12.93c-.4,2.24-1.51,3.64-2.94,4.06,1.74-.17,3.11-1.62,3.56-4.18A15.19,15.19,0,0,0-1430.36,1833.25Z" transform="translate(1686.57 -1489.21)"/><path class="cls-77" d="M-1366.22,1749.39l-11.56-6.68c-2.24-1.29-4.19-1-5.26.41l0-.24-13.48,7.79c-1.38.49-2.26,1.94-2.26,4.15l.07.55c1.52,11.93,6.92,21.05,6.92,32.23l-4.45,6.36,19.1,11,14.72-8.63v-3.85a217.93,217.93,0,0,1,2.35-32.56A13.49,13.49,0,0,0-1366.22,1749.39Z" transform="translate(1686.57 -1489.21)"/><path class="cls-78" d="M-1392.5,1751.34l11.56,6.68a13.49,13.49,0,0,1,6.12,10.56h0a217.93,217.93,0,0,0-2.35,32.56V1805l-19.1-11v-3.84a275.2,275.2,0,0,0-2.28-34.73l-.07-.56C-1398.62,1751-1395.88,1749.39-1392.5,1751.34Z" transform="translate(1686.57 -1489.21)"/><polygon class="cls-79" points="302.84 291.26 301.21 304.51 304.77 302.46 304.77 290.1 302.84 291.26"/><polygon class="cls-80" points="302.85 291.26 301.22 304.51 294.24 300.57 295.88 287.26 302.85 291.26"/><polygon class="cls-81" points="295.88 287.26 302.85 291.26 304.77 290.1 297.77 286.12 295.88 287.26"/></g><path class="cls-31" d="M-1473.54,1775.88l100-45a29.41,29.41,0,0,1,22.21-.79l13.29,4.88a4.59,4.59,0,0,1,.35,8.47l-94,43.79a29.41,29.41,0,0,1-18.62,2.09l-22.24-4.79A4.6,4.6,0,0,1-1473.54,1775.88Z" transform="translate(1686.57 -1489.21)"/><path class="cls-82" d="M-1469.12,1784.21a4.67,4.67,0,0,1-.93-8.82l95.73-43a25.31,25.31,0,0,1,19.15-.68l12.45,4.57a4.67,4.67,0,0,1,.36,8.61l-88.33,41.1a31.49,31.49,0,0,1-19.9,2.23Z" transform="translate(1686.57 -1489.21)"/><path class="cls-83" d="M-1465.62,1783.86a4.74,4.74,0,0,1-1-9l91.53-41.08a21.3,21.3,0,0,1,16.07-.57l11.62,4.27a4.74,4.74,0,0,1,.36,8.75l-82.63,38.4a33.44,33.44,0,0,1-21.18,2.38Z" transform="translate(1686.57 -1489.21)"/><path class="cls-84" d="M-1462.13,1783.5a4.81,4.81,0,0,1-1-9.09l87.32-39.13a17.24,17.24,0,0,1,13-.46l10.78,4a4.81,4.81,0,0,1,.37,8.88l-76.94,35.72a35.52,35.52,0,0,1-22.46,2.52Z" transform="translate(1686.57 -1489.21)"/><path class="cls-85" d="M-1458.63,1783.15a4.89,4.89,0,0,1-1-9.23l83.11-37.18a13.16,13.16,0,0,1,9.94-.35l10,3.65a4.89,4.89,0,0,1,.38,9l-71.25,33a37.51,37.51,0,0,1-23.73,2.67Z" transform="translate(1686.57 -1489.21)"/><path class="cls-86" d="M-1455.13,1782.8a5,5,0,0,1-1-9.37l78.9-35.23a9.08,9.08,0,0,1,6.87-.24l9.11,3.34a5,5,0,0,1,.38,9.15l-65.55,30.34a39.53,39.53,0,0,1-25,2.81Z" transform="translate(1686.57 -1489.21)"/><path class="cls-87" d="M-1451.63,1782.45h0a41.58,41.58,0,0,0,26.3-3l59.85-27.65a5,5,0,0,0-.39-9.29l-8.28-3a5.05,5.05,0,0,0-3.8.14l-74.69,33.28A5,5,0,0,0-1451.63,1782.45Z" transform="translate(1686.57 -1489.21)"/><path class="cls-88" d="M-1359.45,1747.05l-.07-.55c-1.52-11.93-6.93-21-6.93-32.24v-13.41l-19.09-11-10.27,6.11s14.12,27,12.55,37.37a13.49,13.49,0,0,0,6.13,10.56l.16.09,1.77,15,13.48-7.79C-1360.34,1750.71-1359.45,1749.26-1359.45,1747.05Z" transform="translate(1686.57 -1489.21)"/><path class="cls-89" d="M-1380.48,1759.15l-11.57-6.67a13.49,13.49,0,0,1-6.12-10.56h0a216.58,216.58,0,0,0,2.36-32.56v-13.42l19.09,11v13.41a275.25,275.25,0,0,0,2.29,34.73l.07.55C-1374.36,1759.54-1377.1,1761.11-1380.48,1759.15Z" transform="translate(1686.57 -1489.21)"/><path class="cls-90" d="M-1373.92,1754.85a275.1,275.1,0,0,1-2.29-34.72v-13.42l-19.1-11v1l18.09,10.44v13.41a275,275,0,0,0,2.28,34.72l.07.56c0,1.9-.66,3.25-1.73,3.89,1.65-.3,2.75-1.82,2.75-4.27Z" transform="translate(1686.57 -1489.21)"/><polygon class="cls-91" points="303.48 229.6 301.85 242.85 305.41 240.79 305.41 228.44 303.48 229.6"/><polygon class="cls-92" points="303.49 229.6 301.86 242.85 294.88 238.91 296.52 225.59 303.49 229.6"/><polygon class="cls-93" points="296.52 225.59 303.49 229.6 305.41 228.44 298.42 224.46 296.52 225.59"/><path class="cls-94" d="M-1380.48,1759.15l-11.57-6.67a13.49,13.49,0,0,1-6.12-10.56h0a216.58,216.58,0,0,0,2.36-32.56v-13.42l19.09,11v13.41a275.25,275.25,0,0,0,2.29,34.73l.07.55C-1374.36,1759.54-1377.1,1761.11-1380.48,1759.15Z" transform="translate(1686.57 -1489.21)"/><path class="cls-95" d="M-1315.52,1661.39c0,7.72-2.66,13.19-7,15.84l-22.75,13.4c-4.51,2.52-1.63-3.2-8.47-7.15-13.78-8-25-27.22-25-43,0-7.82-7.22-7.88-2.8-10.49l23.62-13.53c4.49-2.43,10.63-2,17.41,1.93C-1326.69,1626.32-1315.52,1645.58-1315.52,1661.39Z" transform="translate(1686.57 -1489.21)"/><path class="cls-96" d="M-1331,1670.48c0,7.72-2.67,13.19-7,15.83l-22.76,13.41c-4.5,2.52-1.62-3.2-8.47-7.15-13.77-8-24.94-27.22-24.94-43,0-7.81-7.23-7.87-2.8-10.48.12-.08,23.49-13.46,23.61-13.53,4.5-2.44,10.64-2,17.41,1.92C-1342.18,1635.41-1331,1654.67-1331,1670.48Z" transform="translate(1686.57 -1489.21)"/><ellipse class="cls-97" cx="-1379.34" cy="1669.68" rx="20.3" ry="35.16" transform="translate(655.35 -1957.1) rotate(-30.31)"/><path class="cls-98" d="M-1378.14,1640.46c-6.61-3.81-12.61-4.33-17.07-2.1,4.16-1.16,9.32-.29,14.91,2.94,13.78,8,24.94,27.21,24.94,43,0,8.23-3,13.89-7.87,16.31,6.09-1.7,10-7.76,10-17.15C-1353.2,1667.67-1364.37,1648.41-1378.14,1640.46Z" transform="translate(1686.57 -1489.21)"/><path class="cls-99" d="M-1358.26,1685.69c0,7.5-2.59,12.81-6.8,15.39l-9.57,5.55a127.42,127.42,0,0,0-52.82,58.78.61.61,0,0,1,0,.11c-7.4,4.14-66.72-95.3-59.45-99.59h0a129.62,129.62,0,0,0,74.61-16.5l12.9-7.4c4.37-2.37,10.33-1.93,16.92,1.87C-1369.11,1651.62-1358.26,1670.33-1358.26,1685.69Z" transform="translate(1686.57 -1489.21)"/><g class="cls-100"><path class="cls-101" d="M-1342.26,1681.48a79.82,79.82,0,0,1-12.72,10.85l-8.13,5.23c-19.81,12.75-38.67,23-56.9,57.8,0,.06-10.41-10.77-10.41-10.77-6.18,4-13.63-25.8,31.11-51.26,0,0,1.32.84,1.33.83,11.66-3.52,17.55-7.2,36.65-19.45l10.89-7c3.6-2.28,12.3-1.25,13.25-.08C-1335.26,1670-1332.92,1671.89-1342.26,1681.48Z" transform="translate(1686.57 -1489.21)"/></g><path class="cls-102" d="M-1421.76,1745.79c0,13.44-4.64,23-12.18,27.57-.22.14-7.24,4.59-7.47,4.72-7.85,4.38-2.83-5.57-14.74-12.45-24-13.84-43.42-47.37-43.42-74.89,0-13.6-12.58-13.71-4.87-18.25.21-.13,8.74-4.82,9-4.94,7.82-4.24,18.52-3.46,30.31,3.35C-1441.2,1684.75-1421.76,1718.27-1421.76,1745.79Z" transform="translate(1686.57 -1489.21)"/><ellipse class="cls-103" cx="-1473.74" cy="1725.79" rx="35.34" ry="61.21" transform="translate(614.13 -1997.08) rotate(-30.31)"/><ellipse class="cls-104" cx="-1473.74" cy="1725.79" rx="33.04" ry="57.22" transform="translate(614.13 -1997.08) rotate(-30.31)"/><path class="cls-105" d="M-1465.76,1769c-22.42-12.94-40.59-44.29-40.59-70,0-11.86,3.87-20.44,10.23-25-11,2-18.21,12.11-18.21,28.34,0,25.72,18.17,57.06,40.59,70,12.08,7,22.92,7.17,30.36,1.85C-1449.8,1775.39-1457.49,1773.79-1465.76,1769Z" transform="translate(1686.57 -1489.21)"/><path class="cls-106" d="M-1472.47,1674.87c-11.49-6.64-23.39-6.19-28.89-3.59,7.24-2,17.47-.8,27.2,4.82,24,13.84,43.42,47.37,43.42,74.89,0,14.32-6.53,24.47-15,28.69,8.85-3.28,16.65-13.58,16.65-29.92C-1429,1722.24-1448.49,1688.71-1472.47,1674.87Z" transform="translate(1686.57 -1489.21)"/><ellipse class="cls-107" cx="-1473.74" cy="1725.79" rx="33.04" ry="57.22" transform="translate(614.13 -1997.08) rotate(-30.31)"/><path class="cls-108" d="M-1451,1700.36c-2.55,2.07-19.76,16.18-19.8,16.19-1.22.73.78.74.78,2.91a15.21,15.21,0,0,0,6.9,11.9c1.89,1.09,1.09,2.67,2.34,2l22.85-8.74A98.67,98.67,0,0,0-1451,1700.36Z" transform="translate(1686.57 -1489.21)"/><path class="cls-109" d="M-1459,1729c0,4.37-3.09,6.13-6.9,3.93a15.21,15.21,0,0,1-6.9-11.9c0-4.37,3.09-6.13,6.9-3.93A15.21,15.21,0,0,1-1459,1729Z" transform="translate(1686.57 -1489.21)"/><ellipse class="cls-110" cx="-1465.9" cy="1725.02" rx="3.86" ry="6.68" transform="translate(615.59 -1993.22) rotate(-30.31)"/><path class="cls-111" d="M-1465.57,1716.94c-1.82-1-3.48-1.19-4.72-.58a5.46,5.46,0,0,1,4.13.81,15.21,15.21,0,0,1,6.9,11.9c0,2.28-.84,3.85-2.18,4.52,1.68-.47,2.77-2.15,2.77-4.75A15.21,15.21,0,0,0-1465.57,1716.94Z" transform="translate(1686.57 -1489.21)"/><path class="cls-112" d="M-1374.42,1634.62c9.74-4.77,18.9-6,20.46-2.87s-5.08,9.63-14.81,14.4-18.89,6-20.45,2.86S-1384.15,1639.39-1374.42,1634.62Z" transform="translate(1686.57 -1489.21)"/><ellipse class="cls-113" cx="-1475.39" cy="1759.22" rx="11.89" ry="27.51" transform="translate(-252.22 -1978.75) rotate(-51.63)"/><g class="cls-114"><path class="cls-115" d="M-1399.81,1675.08a48.06,48.06,0,0,1-15,7.45l-9.5,2.31c-23.14,5.63-29.31,13.91-42.64,3.63s-9.53-19.91-2.28-21.7l13.7-2.28c15.61-5,28.15-8.68,50.46-14.06l12.73-3.07c4.21-1,7.72,2.94,8.75,5.22C-1381.47,1657.21-1388.74,1667.29-1399.81,1675.08Z" transform="translate(1686.57 -1489.21)"/></g><path class="cls-116" d="M-1433,1748.67c0,12.87-4.55,21.9-11.9,26.09s-91.85,79.66-91.85,79.66l-74.49-166.55s101.39-9.9,108.9-12.18c8.1-2.46,17.51-3.55,28.72,2.93C-1451.23,1691.57-1433,1722.93-1433,1748.67Z" transform="translate(1686.57 -1489.21)"/></g></g></svg>