<svg id="Layer_1" data-name="Layer 1" xmlns="http://www.w3.org/2000/svg" width="750" height="422" viewBox="0 0 750 422">
  <defs>
    <style>
      .cls-1 {
        fill: #eff9fe;
      }

      .cls-2 {
        fill: #ebebeb;
      }

      .cls-3 {
        fill: #e0e0e0;
      }

      .cls-4 {
        fill: #fafafa;
      }

      .cls-5 {
        fill: #f0f0f0;
      }

      .cls-6 {
        fill: #e6e6e6;
      }

      .cls-7 {
        fill: #f5f5f5;
      }

      .cls-8 {
        fill: #54dec6;
      }

      .cls-10, .cls-13, .cls-14, .cls-15, .cls-17, .cls-18, .cls-20, .cls-9 {
        fill: #fff;
      }

      .cls-10, .cls-13, .cls-15, .cls-16, .cls-17, .cls-18, .cls-19, .cls-20, .cls-22, .cls-9 {
        isolation: isolate;
      }

      .cls-26, .cls-9 {
        opacity: 0.1;
      }

      .cls-10, .cls-22, .cls-30 {
        opacity: 0.2;
      }

      .cls-11, .cls-18 {
        opacity: 0.4;
      }

      .cls-12 {
        fill: #263238;
      }

      .cls-13, .cls-19 {
        opacity: 0.3;
      }

      .cls-15 {
        opacity: 0.7;
      }

      .cls-16, .cls-20 {
        opacity: 0.5;
      }

      .cls-17 {
        opacity: 0.6;
      }

      .cls-21 {
        fill: #ebb376;
      }

      .cls-23 {
        fill: #d58745;
      }

      .cls-24 {
        fill: #2e353a;
      }

      .cls-25 {
        fill: #de5753;
      }

      .cls-27 {
        fill: #ffc3bd;
      }

      .cls-28 {
        fill: #ce7a63;
      }

      .cls-29 {
        fill: #ba4d3c;
      }
    </style>
  </defs>
  <rect class="cls-1" width="750" height="422"/>
  <g>
    <g id="freepik--background-complete--inject-61">
      <rect class="cls-2" x="125" y="352.12" width="500" height="0.25"/>
      <rect class="cls-2" x="541.78" y="368.21" width="33.12" height="0.25"/>
      <rect class="cls-2" x="447.53" y="370.93" width="8.69" height="0.25"/>
      <rect class="cls-2" x="521.59" y="358.93" width="19.19" height="0.25"/>
      <rect class="cls-2" x="177.46" y="360.61" width="43.19" height="0.25"/>
      <rect class="cls-2" x="229.56" y="360.61" width="6.33" height="0.25"/>
      <rect class="cls-2" x="256.47" y="364.83" width="93.68" height="0.25"/>
      <path class="cls-2" d="M-581.56,439.19H-774.65a5.71,5.71,0,0,1-5.7-5.71V162.05a5.71,5.71,0,0,1,5.7-5.66h193.09a5.71,5.71,0,0,1,5.71,5.71h0V433.48A5.71,5.71,0,0,1-581.56,439.19Zm-193.09-282.6a5.46,5.46,0,0,0-5.45,5.46V433.48a5.46,5.46,0,0,0,5.45,5.46h193.09a5.48,5.48,0,0,0,5.46-5.46V162.05a5.48,5.48,0,0,0-5.46-5.46Z" transform="translate(943.56 -131.67)"/>
      <path class="cls-2" d="M-365.25,439.19h-193.1a5.73,5.73,0,0,1-5.71-5.71V162.05a5.72,5.72,0,0,1,5.71-5.66h193.1a5.71,5.71,0,0,1,5.69,5.66V433.48A5.7,5.7,0,0,1-365.25,439.19Zm-193.1-282.6a5.48,5.48,0,0,0-5.46,5.46V433.48a5.48,5.48,0,0,0,5.46,5.46h193.1a5.48,5.48,0,0,0,5.46-5.46V162.05a5.48,5.48,0,0,0-5.46-5.46Z" transform="translate(943.56 -131.67)"/>
      <polygon class="cls-3" points="224.27 76.04 261.06 54.63 289.41 54.63 326.82 75.02 326.82 213.75 224.27 213.75 224.27 76.04"/>
      <path class="cls-4" d="M-615.69,345.39h-103.6V207.71l1.06-1a72.83,72.83,0,0,1,50.74-20.39h0a72.87,72.87,0,0,1,50.75,20.39l1,1Zm-96.72-6.88h89.85V210.66a66.44,66.44,0,0,0-89.85,0Z" transform="translate(943.56 -131.67)"/>
      <polygon class="cls-5" points="273.5 207.7 278.65 207.7 278.65 161.66 322.3 161.66 322.3 156.51 278.65 156.51 278.65 109.42 322.3 109.42 322.3 104.27 278.65 104.27 278.65 60.61 273.5 60.61 273.5 104.27 229.84 104.27 229.84 109.42 273.5 109.42 273.5 156.51 229.84 156.51 229.84 161.66 273.5 161.66 273.5 207.7"/>
      <path class="cls-5" d="M-612.25,348.85H-722.72V206.3l1-1a76.78,76.78,0,0,1,108.46,0l1,1ZM-715.85,342h96.72V209.17a69.89,69.89,0,0,0-96.72,0Z" transform="translate(943.56 -131.67)"/>
      <path class="cls-6" d="M-435,231.31s1-6.6-3.81-10.83-4.39-6.75-3-7.07,2.64,3.9,4.76,5.06c0,0,.06-6-2.08-8.25s-3.28-7.94-1.24-8,2.26,3.4,2.68,5.88,2.7,6,2.7,6,.45-5.39,1.84-7.62-2.32-7.29-.89-9.52,4,2,3.76,6.77-3.39,9.84-2.65,14.81c0,0,1.4-3.49,2.66-3.81s2.53-2.62,3.37-3.48,1.91,2.11,0,4.86-6.77,10.11-6,16Z" transform="translate(943.56 -131.67)"/>
      <path class="cls-6" d="M-437.92,228.31l-1.58,9.89a5,5,0,0,0,4.11,5.75,5.34,5.34,0,0,0,.89.07h1.68a5,5,0,0,0,5.07-4.93,5.26,5.26,0,0,0-.07-.89l-1.57-9.89Z" transform="translate(943.56 -131.67)"/>
      <rect class="cls-3" x="418.07" y="108.7" width="111.4" height="5.72"/>
      <rect class="cls-2" x="423.2" y="87.6" width="4.91" height="21.1"/>
      <rect class="cls-2" x="446.93" y="87.6" width="4.91" height="21.1"/>
      <rect class="cls-2" x="-467.86" y="219" width="4.91" height="21.1" transform="translate(897.8 -207.39) rotate(-9.78)"/>
      <rect class="cls-2" x="429.28" y="90.38" width="4.91" height="18.32"/>
      <rect class="cls-2" x="440.56" y="90.38" width="4.91" height="18.32"/>
      <rect class="cls-2" x="469.04" y="90.38" width="4.91" height="18.32"/>
      <rect class="cls-2" x="-488.14" y="221.72" width="4.91" height="18.32" transform="translate(881.9 -231.54) rotate(-12.53)"/>
      <rect class="cls-2" x="435.98" y="86.55" width="2.45" height="22.15"/>
      <rect class="cls-2" x="465.17" y="86.55" width="2.45" height="22.15"/>
      <rect class="cls-3" x="418.08" y="151.44" width="111.4" height="5.72"/>
      <rect class="cls-2" x="519.44" y="130.33" width="4.91" height="21.1"/>
      <rect class="cls-2" x="495.7" y="130.33" width="4.91" height="21.1"/>
      <rect class="cls-2" x="-484.72" y="269.83" width="21.1" height="4.91" transform="translate(281.61 -372.92) rotate(-80.22)"/>
      <rect class="cls-2" x="513.35" y="133.11" width="4.91" height="18.32"/>
      <rect class="cls-2" x="502.07" y="133.11" width="4.91" height="18.32"/>
      <rect class="cls-2" x="473.6" y="133.11" width="4.91" height="18.32"/>
      <rect class="cls-2" x="-463.04" y="271.15" width="18.32" height="4.91" transform="translate(321.06 -360.49) rotate(-77.47)"/>
      <rect class="cls-2" x="509.12" y="129.29" width="2.45" height="22.15"/>
      <rect class="cls-2" x="479.93" y="129.29" width="2.45" height="22.15"/>
      <rect class="cls-2" x="428.77" y="134.73" width="23.91" height="16.51"/>
    </g>
    <g id="freepik--Shadow--inject-61">
      <ellipse id="freepik--path--inject-61" class="cls-7" cx="375" cy="385.96" rx="193.89" ry="11.32"/>
    </g>
    <g id="freepik--Plant--inject-61">
      <path class="cls-8" d="M-720.07,472.18s7.76-9.23,12.72-4.93,2.45,13.44-3.27,13.73a14.4,14.4,0,0,1-9.45-2.89Z" transform="translate(943.56 -131.67)"/>
      <path class="cls-9" d="M-720.07,472.18s7.76-9.23,12.72-4.93,2.45,13.44-3.27,13.73a14.4,14.4,0,0,1-9.45-2.89Z" transform="translate(943.56 -131.67)"/>
      <path class="cls-8" d="M-751.7,448.77s-6.51-6.82-10.54-5.66-3.61,17.45,8.89,10.86Z" transform="translate(943.56 -131.67)"/>
      <path class="cls-10" d="M-751.7,448.77s-6.51-6.82-10.54-5.66-3.61,17.45,8.89,10.86Z" transform="translate(943.56 -131.67)"/>
      <path class="cls-8" d="M-728.44,499.67s21.4-29.28,4-35.21-20.47,23.55-15.5,31.76S-728.44,499.67-728.44,499.67Z" transform="translate(943.56 -131.67)"/>
      <path class="cls-8" d="M-738.36,439.73S-751.64,408.91-732,408s21.8,30.56-.83,35.13Z" transform="translate(943.56 -131.67)"/>
      <path class="cls-10" d="M-728.44,499.67s21.4-29.28,4-35.21-20.47,23.55-15.5,31.76S-728.44,499.67-728.44,499.67Z" transform="translate(943.56 -131.67)"/>
      <path class="cls-10" d="M-738.36,439.73S-751.64,408.91-732,408s21.8,30.56-.83,35.13Z" transform="translate(943.56 -131.67)"/>
      <path class="cls-8" d="M-733.65,465s6.45-27.22-6-29.39-24.6,22.42,1.09,34.81C-738.56,470.39-734.19,467.63-733.65,465Z" transform="translate(943.56 -131.67)"/>
      <path class="cls-9" d="M-733.65,465s6.45-27.22-6-29.39-24.6,22.42,1.09,34.81C-738.56,470.39-734.19,467.63-733.65,465Z" transform="translate(943.56 -131.67)"/>
      <polygon class="cls-8" points="230.52 363.85 194.6 363.85 197.6 386.83 227.52 386.83 230.52 363.85"/>
      <path class="cls-8" d="M-731.72,437.53a33.11,33.11,0,0,0,2.29-2.59,28.83,28.83,0,0,0,2.06-2.74,31.74,31.74,0,0,0,3.21-6,21.2,21.2,0,0,0,1.44-6.58v-1.7c0-.56-.14-1.13-.19-1.69a2.77,2.77,0,0,0-.09-.86l-.2-.83c-.14-.56-.27-1.12-.39-1.69a16.41,16.41,0,0,1,1.6,6.78,18.25,18.25,0,0,1-1.28,6.93,24.78,24.78,0,0,1-3.52,6.08A25.37,25.37,0,0,1-731.72,437.53Z" transform="translate(943.56 -131.67)"/>
      <path class="cls-8" d="M-727,411.08a16.22,16.22,0,0,0-9.13,9l-.57,1.54c-.17.52-.26,1.07-.4,1.59a27.4,27.4,0,0,0-.56,3.26c-.11,1.1-.11,2.22-.16,3.33s.09,2.24.09,3.37c-.23-1.1-.39-2.22-.58-3.34a18.47,18.47,0,0,1-.11-3.41,19.6,19.6,0,0,1,1.37-6.72,14.89,14.89,0,0,1,6.83-7.53A12.62,12.62,0,0,1-727,411.08Z" transform="translate(943.56 -131.67)"/>
      <path class="cls-8" d="M-742,437.53a11.55,11.55,0,0,0-3.51,2.78,12.41,12.41,0,0,0-2.3,3.78,15.06,15.06,0,0,0-1,4.29,6.73,6.73,0,0,0,0,1.1v1.08a13,13,0,0,0,.46,2.13,25.08,25.08,0,0,0,4.22,7.81,41.65,41.65,0,0,0,2.89,3.48c1,1.14,2.07,2.21,3.16,3.27a38,38,0,0,1-6.65-6.27,29.2,29.2,0,0,1-2.7-3.75,19.52,19.52,0,0,1-1.88-4.26,14.12,14.12,0,0,1-.47-2.31,11.81,11.81,0,0,1,0-1.19,5.84,5.84,0,0,1,.06-1.18,14.57,14.57,0,0,1,1.21-4.5A11.66,11.66,0,0,1-742,437.53Z" transform="translate(943.56 -131.67)"/>
      <path class="cls-8" d="M-738.36,439.73c-.16,1-.33,2.09-.41,3.14A25.18,25.18,0,0,0-739,446a18.67,18.67,0,0,0,.19,3.08,6.88,6.88,0,0,0,.93,2.79,11.29,11.29,0,0,1,.79,1.45,9.56,9.56,0,0,1,.5,1.57,15.27,15.27,0,0,1,.4,3.23,24.18,24.18,0,0,1-.69,6.34c0-1.06.09-2.11.07-3.16a27.22,27.22,0,0,0-.15-3.13,12,12,0,0,0-1.77-5.78,7.84,7.84,0,0,1-1-3.19,16,16,0,0,1,0-3.25A24.17,24.17,0,0,1-738.36,439.73Z" transform="translate(943.56 -131.67)"/>
      <path class="cls-8" d="M-729.63,467.25a3.25,3.25,0,0,0-1.13,1.14,10,10,0,0,0-.72,1.47,24.75,24.75,0,0,0-1.08,3.14c-.58,2.13-1.09,4.27-1.53,6.44s-.85,4.34-1.27,6.51c-.21,1.09-.4,2.18-.58,3.28s-.37,2.18-.53,3.29a43.86,43.86,0,0,1,.35-6.68c.24-2.22.61-4.42,1-6.6a48,48,0,0,1,1.78-6.47,25,25,0,0,1,1.35-3.1,10.5,10.5,0,0,1,1-1.4A2.93,2.93,0,0,1-729.63,467.25Z" transform="translate(943.56 -131.67)"/>
      <path class="cls-8" d="M-723.56,468.2a18.48,18.48,0,0,1,1.78,6,19.38,19.38,0,0,1-.24,6.31,10.22,10.22,0,0,1-.39,1.54c-.16.51-.29,1-.49,1.51a20,20,0,0,1-3.3,5.38,9.61,9.61,0,0,1-1.1,1.11c-.38.37-.76.72-1.15,1.06A28.81,28.81,0,0,0-725,486a20.25,20.25,0,0,0,2-5.7,22.8,22.8,0,0,0,.44-6A28,28,0,0,0-723.56,468.2Z" transform="translate(943.56 -131.67)"/>
      <path class="cls-8" d="M-756.75,452.1a4.13,4.13,0,0,1-1.81.29,5.53,5.53,0,0,1-1.8-.39,4.3,4.3,0,0,1-1.51-1.09,3.22,3.22,0,0,1-.79-1.65,12.23,12.23,0,0,0,1.31,1.07,9.32,9.32,0,0,0,1.39.75A27.83,27.83,0,0,0-756.75,452.1Z" transform="translate(943.56 -131.67)"/>
      <path class="cls-8" d="M-755.42,447.6l-1.59-.74a9.61,9.61,0,0,0-1.55-.57,5.22,5.22,0,0,0-1.52-.22,6.19,6.19,0,0,0-1.64.37,2.74,2.74,0,0,1,1.5-1.13,3.55,3.55,0,0,1,1.94,0,5,5,0,0,1,1.66.87A4.22,4.22,0,0,1-755.42,447.6Z" transform="translate(943.56 -131.67)"/>
      <path class="cls-8" d="M-716.56,473.55a8.11,8.11,0,0,1,1.44-2.09,8.22,8.22,0,0,1,2-1.62,4.59,4.59,0,0,1,2.58-.69,3,3,0,0,1,2.29,1.21,4.06,4.06,0,0,0-2.27-.43,5.5,5.5,0,0,0-2.11.78A37.7,37.7,0,0,0-716.56,473.55Z" transform="translate(943.56 -131.67)"/>
      <path class="cls-8" d="M-716.56,478.09a48.21,48.21,0,0,0,5.75-.43,8.29,8.29,0,0,0,2.61-.83,4,4,0,0,0,1.83-2,3.32,3.32,0,0,1-1.4,2.67,6.28,6.28,0,0,1-2.87,1.16,12.05,12.05,0,0,1-3,.1A10.87,10.87,0,0,1-716.56,478.09Z" transform="translate(943.56 -131.67)"/>
      <g class="cls-11">
        <polygon points="230.52 363.85 194.6 363.85 197.6 386.83 227.52 386.83 230.52 363.85"/>
      </g>
    </g>
    <g id="freepik--Screen--inject-61">
      <path class="cls-8" d="M-555.48,212.21V488.68a4.34,4.34,0,0,1-4.34,4.34H-697.88a3.85,3.85,0,0,1-2.76-1.12,3.94,3.94,0,0,1-.49-.59,4,4,0,0,1-.68-2.27V211.85a3.5,3.5,0,0,1,3.36-3.63h39.19a2.62,2.62,0,0,1,1.17.28,1.25,1.25,0,0,1,.35.21,3.08,3.08,0,0,1,.59.55,2.85,2.85,0,0,1,.41.72l1.63,4v.09a3,3,0,0,0,.37.62,2.74,2.74,0,0,0,2.11,1h48.07A2.74,2.74,0,0,0-602,214l1.63-4a2.75,2.75,0,0,1,2.52-1.77h38.62A4,4,0,0,1-555.48,212.21Z" transform="translate(943.56 -131.67)"/>
      <path class="cls-12" d="M-555.48,212.21v15.33h-146.3V211.85a3.5,3.5,0,0,1,3.36-3.63h39.19a2.62,2.62,0,0,1,1.17.28,1.25,1.25,0,0,1,.35.21,3.08,3.08,0,0,1,.59.55,2.85,2.85,0,0,1,.41.72l1.63,4v.09a3,3,0,0,0,.37.62,2.74,2.74,0,0,0,2.11,1h48A2.74,2.74,0,0,0-602,214l1.63-4a2.75,2.75,0,0,1,2.52-1.77h38.62A4,4,0,0,1-555.48,212.21Z" transform="translate(943.56 -131.67)"/>
      <path class="cls-12" d="M-701.78,479.89h146.3v8.79a4.34,4.34,0,0,1-4.34,4.34H-697.88a3.85,3.85,0,0,1-2.76-1.12,3.94,3.94,0,0,1-.49-.59,4,4,0,0,1-.68-2.27Z" transform="translate(943.56 -131.67)"/>
      <rect class="cls-13" x="241.78" y="95.87" width="146.3" height="252.35"/>
      <path class="cls-14" d="M-692.81,342.39h1V348h-1Z" transform="translate(943.56 -131.67)"/>
      <path class="cls-14" d="M-686.15,345.51V348h-1v-2.31c0-.76-.38-1.13-1-1.13a1.13,1.13,0,0,0-1.2,1.06,1.85,1.85,0,0,0,0,.23V348h-1v-4.27h1v.56a1.87,1.87,0,0,1,1.47-.6,1.66,1.66,0,0,1,1.78,1.53A1.93,1.93,0,0,1-686.15,345.51Z" transform="translate(943.56 -131.67)"/>
      <path class="cls-14" d="M-682.3,347.72a1.55,1.55,0,0,1-1,.29,1.31,1.31,0,0,1-1.47-1.13,1.61,1.61,0,0,1,0-.31v-2.05h-.71v-.8h.71v-1h1v1h1.21v.8h-1.15v2a.56.56,0,0,0,.47.64h.13a.94.94,0,0,0,.56-.18Z" transform="translate(943.56 -131.67)"/>
      <path class="cls-14" d="M-679,343.64v.95h-.23a1.18,1.18,0,0,0-1.25,1.09,1.85,1.85,0,0,0,0,.23V348h-1v-4.27h.92v.63A1.68,1.68,0,0,1-679,343.64Z" transform="translate(943.56 -131.67)"/>
      <path class="cls-14" d="M-678.56,345.82a2.28,2.28,0,0,1,2.19-2.37,2.28,2.28,0,0,1,2.37,2.19,2.28,2.28,0,0,1-2.19,2.37h-.1a2.15,2.15,0,0,1-2.27-2Zm3.54,0a1.27,1.27,0,0,0-1.34-1.2,1.28,1.28,0,0,0-1.2,1.34,1.28,1.28,0,0,0,1.27,1.2A1.24,1.24,0,0,0-675,346a.65.65,0,0,0,0-.14Z" transform="translate(943.56 -131.67)"/>
      <path class="cls-14" d="M-668.86,342V348h-1v-.56a1.73,1.73,0,0,1-1.41.61,2.19,2.19,0,0,1-2-2.33,2.19,2.19,0,0,1,2-2,1.7,1.7,0,0,1,1.37.57V342Zm-1,3.8a1.27,1.27,0,0,0-1.34-1.2,1.28,1.28,0,0,0-1.2,1.34,1.28,1.28,0,0,0,1.27,1.2,1.25,1.25,0,0,0,1.29-1.21v-.13Z" transform="translate(943.56 -131.67)"/>
      <path class="cls-14" d="M-663.41,343.68V348h-1v-.56a1.74,1.74,0,0,1-1.38.6,1.7,1.7,0,0,1-1.84-1.53,2.17,2.17,0,0,1,0-.36v-2.44h1V346c0,.77.37,1.14,1,1.14a1.16,1.16,0,0,0,1.17-1.29v-2.16Z" transform="translate(943.56 -131.67)"/>
      <path class="cls-14" d="M-662.45,345.82a2.17,2.17,0,0,1,2.13-2.19h.18a1.92,1.92,0,0,1,1.83,1l-.77.45a1.23,1.23,0,0,0-1.06-.6,1.34,1.34,0,0,0-1.34,1.34,1.34,1.34,0,0,0,1.34,1.34,1.23,1.23,0,0,0,1.06-.6l.77.45a2,2,0,0,1-1.83,1,2.17,2.17,0,0,1-2.31-2Z" transform="translate(943.56 -131.67)"/>
      <path class="cls-14" d="M-654.82,347.72a1.55,1.55,0,0,1-1,.29,1.31,1.31,0,0,1-1.47-1.13,1.61,1.61,0,0,1,0-.31v-2.05H-658v-.8h.71v-1h1v1h1.15v.8h-1.12v2a.56.56,0,0,0,.47.64h.13a.94.94,0,0,0,.56-.18Z" transform="translate(943.56 -131.67)"/>
      <path class="cls-14" d="M-654.13,342.39a.61.61,0,0,1,.62-.6h0a.6.6,0,0,1,.64.56v0a.61.61,0,0,1-.6.62h0a.6.6,0,0,1-.63-.57Zm.13,1.3h1V348h-1Z" transform="translate(943.56 -131.67)"/>
      <path class="cls-14" d="M-652,345.82a2.28,2.28,0,0,1,2.19-2.37,2.28,2.28,0,0,1,2.37,2.19,2.28,2.28,0,0,1-2.19,2.37h-.1a2.15,2.15,0,0,1-2.27-2Zm3.54,0a1.27,1.27,0,0,0-1.34-1.2A1.28,1.28,0,0,0-651,346a1.28,1.28,0,0,0,1.27,1.2A1.24,1.24,0,0,0-648.5,346Z" transform="translate(943.56 -131.67)"/>
      <path class="cls-14" d="M-642.32,345.51V348h-1v-2.31c0-.76-.38-1.13-1-1.13a1.13,1.13,0,0,0-1.2,1.06,1.85,1.85,0,0,0,0,.23V348h-1v-4.27h1v.56a1.88,1.88,0,0,1,1.48-.6,1.67,1.67,0,0,1,1.77,1.56A1.58,1.58,0,0,1-642.32,345.51Z" transform="translate(943.56 -131.67)"/>
      <rect class="cls-15" x="250" y="122.14" width="130.03" height="82.38"/>
      <rect class="cls-16" x="250" y="201.86" width="130.03" height="2.66"/>
      <rect class="cls-17" x="250" y="201.86" width="45.05" height="2.66"/>
      <path class="cls-14" d="M-645,335a3.15,3.15,0,0,1-3.16,3.16,3.15,3.15,0,0,1-3.16-3.16,3.15,3.15,0,0,1,3.16-3.16h0a3.15,3.15,0,0,1,3.15,3.15Z" transform="translate(943.56 -131.67)"/>
      <polygon class="cls-18" points="367.23 211.37 372.42 216.56 377.6 211.37 367.23 211.37"/>
      <rect class="cls-18" x="250" y="227.8" width="130.03" height="46.51"/>
      <rect class="cls-19" x="256.14" y="233.13" width="45.69" height="35.86"/>
      <path class="cls-14" d="M-635.72,369.5a2.27,2.27,0,0,1,2.37-2.16,2.28,2.28,0,0,1,1.54.7l-.5.47a1.44,1.44,0,0,0-1.12-.49,1.48,1.48,0,0,0-1.48,1.48,1.48,1.48,0,0,0,1.48,1.48,1.49,1.49,0,0,0,1.12-.51l.5.49A2.27,2.27,0,0,1-635,371a2.32,2.32,0,0,1-.7-1.54Z" transform="translate(943.56 -131.67)"/>
      <path class="cls-14" d="M-628,369.76v1.84h-.75v-1.74c0-.57-.28-.85-.76-.85a.86.86,0,0,0-.91.81,1.21,1.21,0,0,0,0,.19v1.62h-.75v-4.45h.75v1.62a1.42,1.42,0,0,1,1.07-.41,1.25,1.25,0,0,1,1.34,1.15A.81.81,0,0,1-628,369.76Z" transform="translate(943.56 -131.67)"/>
      <path class="cls-14" d="M-624.34,369.72v1.88h-.7v-.39a1.17,1.17,0,0,1-1,.43c-.73,0-1.19-.4-1.19-1s.36-1,1.33-1h.82c0-.44-.26-.7-.79-.7a1.57,1.57,0,0,0-1,.32l-.3-.55a2.27,2.27,0,0,1,1.36-.39C-624.87,368.39-624.34,368.8-624.34,369.72Zm-.75.88v-.38h-.77c-.51,0-.65.2-.65.43s.23.44.61.44A.8.8,0,0,0-625.09,370.6Z" transform="translate(943.56 -131.67)"/>
      <path class="cls-14" d="M-620,370a1.56,1.56,0,0,1-1.48,1.64h-.15a1.35,1.35,0,0,1-1-.43v1.55h-.74v-4.37h.71v.42a1.34,1.34,0,0,1,1.07-.42,1.56,1.56,0,0,1,1.59,1.53Zm-.77,0a.94.94,0,0,0-.86-1h-.08a1,1,0,0,0-1,1,1,1,0,0,0,1,1,.92.92,0,0,0,.94-.92V370Z" transform="translate(943.56 -131.67)"/>
      <path class="cls-14" d="M-617.33,371.39a1.16,1.16,0,0,1-.72.22,1,1,0,0,1-1.11-.88,1.34,1.34,0,0,1,0-.2V369h-.52v-.6h.52v-.73h.75v.73h.85v.6h-.86v1.52a.43.43,0,0,0,.35.48h.1a.7.7,0,0,0,.42-.13Z" transform="translate(943.56 -131.67)"/>
      <path class="cls-14" d="M-613.82,370.24h-2.52a1,1,0,0,0,1,.76,1.18,1.18,0,0,0,.87-.34l.4.46a1.81,1.81,0,0,1-2.55,0,1.85,1.85,0,0,1-.51-1.11,1.6,1.6,0,0,1,1.56-1.64h.1a1.56,1.56,0,0,1,1.62,1.5V370A.43.43,0,0,1-613.82,370.24Zm-2.52-.5h1.78a.92.92,0,0,0-1.07-.74.91.91,0,0,0-.74.74Z" transform="translate(943.56 -131.67)"/>
      <path class="cls-14" d="M-611.24,368.39v.71h-.17a.89.89,0,0,0-.94.82,1.09,1.09,0,0,0,0,.18v1.56h-.75v-3.27h.71v.47A1.27,1.27,0,0,1-611.24,368.39Z" transform="translate(943.56 -131.67)"/>
      <path class="cls-14" d="M-609.14,369.5c0-1.38.75-2.16,1.75-2.16s1.76.78,1.76,2.16-.76,2.16-1.76,2.16S-609.14,370.88-609.14,369.5Zm2.72,0c0-1-.4-1.48-1-1.48s-1,.46-1,1.48.4,1.48,1,1.48S-606.42,370.51-606.42,369.5Z" transform="translate(943.56 -131.67)"/>
      <path class="cls-14" d="M-603.68,367.39v4.2h-.78V368h-.89v-.65Z" transform="translate(943.56 -131.67)"/>
      <rect class="cls-20" x="307.58" y="244.13" width="61.86" height="2.26" rx="1.1"/>
      <rect class="cls-20" x="307.58" y="249.13" width="50.86" height="2.26" rx="1.1"/>
      <polygon class="cls-17" points="271.42 244.51 271.42 257.6 284.51 251.06 271.42 244.51"/>
      <polygon class="cls-8" points="378.87 116.34 374.24 112.35 369.62 116.34 369.62 105.37 378.87 105.37 378.87 116.34"/>
      <path class="cls-8" d="M-581.38,237h-7a1.72,1.72,0,0,0-1.73,1.73v4.76a1.75,1.75,0,0,0,1.73,1.73H-586V248l1.8-2.75h2.8a1.72,1.72,0,0,0,1.73-1.73v-4.76A1.72,1.72,0,0,0-581.38,237Z" transform="translate(943.56 -131.67)"/>
      <path class="cls-8" d="M-595.34,238.39c-1.28-2.11-3.76-1.32-5,.31-1.27-1.64-3.75-2.46-5.06-.37-2.2,3.54,2.28,6.86,4.41,8.16l.6.37.61-.36C-597.7,245.18-593.17,241.92-595.34,238.39Z" transform="translate(943.56 -131.67)"/>
      <rect class="cls-8" x="250" y="113.1" width="49.01" height="4.99" rx="2.42"/>
      <rect class="cls-8" x="250" y="105.37" width="63.43" height="4.99" rx="2.42"/>
      <rect class="cls-18" x="250" y="279.81" width="130.03" height="46.51"/>
      <rect class="cls-19" x="256.14" y="285.13" width="45.69" height="35.86"/>
      <path class="cls-14" d="M-635.72,421.5a2.27,2.27,0,0,1,2.37-2.16,2.28,2.28,0,0,1,1.54.7l-.5.48a1.44,1.44,0,0,0-1.12-.49,1.49,1.49,0,0,0-1.6,1.35,1.49,1.49,0,0,0,1.36,1.6h.24a1.49,1.49,0,0,0,1.12-.5l.5.48A2.27,2.27,0,0,1-635,423a2.32,2.32,0,0,1-.7-1.54Z" transform="translate(943.56 -131.67)"/>
      <path class="cls-14" d="M-628,421.77v1.83h-.75v-1.74c0-.57-.28-.84-.76-.84a.84.84,0,0,0-.91.78.79.79,0,0,0,0,.22v1.62h-.75v-4.45h.75v1.62a1.47,1.47,0,0,1,1.07-.41,1.26,1.26,0,0,1,1.34,1.17A.67.67,0,0,1-628,421.77Z" transform="translate(943.56 -131.67)"/>
      <path class="cls-14" d="M-624.34,421.72v1.88h-.7v-.39a1.14,1.14,0,0,1-1,.43c-.73,0-1.19-.4-1.19-1s.36-1,1.33-1h.82c0-.44-.26-.69-.79-.69a1.63,1.63,0,0,0-1,.31l-.3-.54a2.22,2.22,0,0,1,1.36-.4C-624.87,420.39-624.34,420.8-624.34,421.72Zm-.75.88v-.37h-.77c-.51,0-.65.19-.65.42s.23.45.61.45A.81.81,0,0,0-625.09,422.6Z" transform="translate(943.56 -131.67)"/>
      <path class="cls-14" d="M-620,422a1.56,1.56,0,0,1-1.48,1.64h-.15a1.35,1.35,0,0,1-1-.43v1.55h-.74v-4.37h.71v.42a1.31,1.31,0,0,1,1.07-.42,1.56,1.56,0,0,1,1.59,1.53Zm-.77,0a.94.94,0,0,0-.86-1h-.08a1,1,0,0,0-1,1,1,1,0,0,0,1,1,.92.92,0,0,0,.94-.92V422Z" transform="translate(943.56 -131.67)"/>
      <path class="cls-14" d="M-617.33,423.39a1.15,1.15,0,0,1-.72.21,1,1,0,0,1-1.11-.88,1.34,1.34,0,0,1,0-.2V421h-.52v-.59h.52v-.73h.75v.73h.85v.6h-.86v1.53a.42.42,0,0,0,.34.47h.11a.7.7,0,0,0,.42-.13Z" transform="translate(943.56 -131.67)"/>
      <path class="cls-14" d="M-613.82,422.24h-2.52a1,1,0,0,0,1,.77,1.18,1.18,0,0,0,.87-.35l.4.46a1.81,1.81,0,0,1-2.55,0,1.85,1.85,0,0,1-.51-1.11,1.6,1.6,0,0,1,1.56-1.64h.1a1.57,1.57,0,0,1,1.62,1.52V422A.41.41,0,0,1-613.82,422.24Zm-2.52-.5h1.78a.92.92,0,0,0-1.07-.74.91.91,0,0,0-.74.74Z" transform="translate(943.56 -131.67)"/>
      <path class="cls-14" d="M-611.24,420.39v.72h-.17a.87.87,0,0,0-.94.8,1.41,1.41,0,0,0,0,.2v1.55h-.75v-3.27h.71v.47A1.27,1.27,0,0,1-611.24,420.39Z" transform="translate(943.56 -131.67)"/>
      <path class="cls-14" d="M-609.14,421.5c0-1.38.75-2.16,1.75-2.16s1.76.78,1.76,2.16-.76,2.16-1.76,2.16S-609.14,422.88-609.14,421.5Zm2.72,0c0-1-.4-1.48-1-1.48s-1,.47-1,1.48.4,1.48,1,1.48S-606.42,422.51-606.42,421.5Z" transform="translate(943.56 -131.67)"/>
      <path class="cls-14" d="M-602.09,422.94v.66h-3.1v-.52l1.67-1.58c.41-.39.48-.64.48-.87,0-.39-.27-.61-.78-.61a1.2,1.2,0,0,0-1,.44l-.54-.42a1.94,1.94,0,0,1,1.59-.7c.92,0,1.5.46,1.5,1.21a1.66,1.66,0,0,1-.69,1.32l-1.12,1.07Z" transform="translate(943.56 -131.67)"/>
      <rect class="cls-20" x="307.58" y="296.13" width="61.86" height="2.26" rx="1.1"/>
      <rect class="cls-20" x="307.58" y="301.13" width="50.86" height="2.26" rx="1.1"/>
      <polygon class="cls-17" points="271.42 296.52 271.42 309.61 284.51 303.06 271.42 296.52"/>
      <path class="cls-8" d="M-679.41,262.32v7.34h-1.36v-3.15h-3.79v3.15h-1.37v-7.34h1.37v3h3.79v-3Z" transform="translate(943.56 -131.67)"/>
      <path class="cls-8" d="M-678,266.86a3,3,0,0,1,2.87-3.13A3,3,0,0,1-672,266.6a3,3,0,0,1-2.86,3.13H-675a2.81,2.81,0,0,1-3-2.63A1.93,1.93,0,0,1-678,266.86Zm4.64,0a1.66,1.66,0,0,0-1.75-1.57A1.67,1.67,0,0,0-676.7,267a1.67,1.67,0,0,0,1.66,1.57,1.62,1.62,0,0,0,1.66-1.6A.75.75,0,0,0-673.38,266.86Z" transform="translate(943.56 -131.67)"/>
      <path class="cls-8" d="M-662.22,264.06l-2.07,5.6h-1.27L-667,265.8l-1.47,3.86h-1.26l-2-5.6h1.23l1.47,4.13,1.55-4.13h1.1l1.51,4.15,1.52-4.15Z" transform="translate(943.56 -131.67)"/>
      <path class="cls-8" d="M-655.06,269.39a2,2,0,0,1-1.25.38,1.71,1.71,0,0,1-1.92-1.49,1.7,1.7,0,0,1,0-.39v-2.7h-.93v-1h.93v-1.28h1.31v1.28h1.5v1h-1.5v2.66c0,.55.27.84.77.84a1.14,1.14,0,0,0,.74-.23Z" transform="translate(943.56 -131.67)"/>
      <path class="cls-8" d="M-654.62,266.86a3,3,0,0,1,2.87-3.13,3,3,0,0,1,3.12,2.87,3,3,0,0,1-2.86,3.13h-.13a2.8,2.8,0,0,1-3-2.61A2.26,2.26,0,0,1-654.62,266.86Zm4.64,0a1.66,1.66,0,0,0-1.75-1.57A1.67,1.67,0,0,0-653.3,267a1.66,1.66,0,0,0,1.65,1.57A1.63,1.63,0,0,0-650,267,1,1,0,0,0-650,266.86Z" transform="translate(943.56 -131.67)"/>
      <path class="cls-8" d="M-685.93,271.32h1.37v7.34h-1.37Z" transform="translate(943.56 -131.67)"/>
      <path class="cls-8" d="M-677.19,275.45v3.21h-1.31v-3c0-1-.5-1.48-1.34-1.48a1.48,1.48,0,0,0-1.57,1.4,1.38,1.38,0,0,0,0,.29v2.83h-1.31v-5.6h1.25v.72a2.42,2.42,0,0,1,1.93-.78,2.19,2.19,0,0,1,2.35,2A2.54,2.54,0,0,1-677.19,275.45Z" transform="translate(943.56 -131.67)"/>
      <path class="cls-8" d="M-675.93,275.86a2.82,2.82,0,0,1,2.79-2.86h.21a2.53,2.53,0,0,1,2.39,1.3l-1,.59a1.59,1.59,0,0,0-1.39-.78,1.75,1.75,0,0,0-1.75,1.75,1.75,1.75,0,0,0,1.75,1.75,1.59,1.59,0,0,0,1.39-.78l1,.59a2.56,2.56,0,0,1-2.39,1.31,2.84,2.84,0,0,1-3-2.65Z" transform="translate(943.56 -131.67)"/>
      <path class="cls-8" d="M-666.14,273v1.25h-.3a1.53,1.53,0,0,0-1.64,1.41,1.71,1.71,0,0,0,0,.32v2.72h-1.31v-5.6h1.25v.82A2.19,2.19,0,0,1-666.14,273Z" transform="translate(943.56 -131.67)"/>
      <path class="cls-8" d="M-659.84,276.28h-4.39a1.69,1.69,0,0,0,1.81,1.34,2,2,0,0,0,1.52-.61l.7.81a3,3,0,0,1-4.21.56,3,3,0,0,1-.56-4.2,3,3,0,0,1,2.32-1.18,2.72,2.72,0,0,1,2.83,2.6,1.41,1.41,0,0,1,0,.29C-659.82,276-659.83,276.15-659.84,276.28Zm-4.4-.87h3.17a1.51,1.51,0,0,0-1.58-1.36,1.54,1.54,0,0,0-1.59,1.34Z" transform="translate(943.56 -131.67)"/>
      <path class="cls-8" d="M-654,275.39v3.28h-1.24V278a2,2,0,0,1-1.76.75c-1.28,0-2.08-.7-2.08-1.68s.63-1.66,2.32-1.66h1.45v-.09c0-.76-.46-1.21-1.39-1.21a2.81,2.81,0,0,0-1.7.55l-.52-.95a4,4,0,0,1,2.37-.69C-655,273-654,273.76-654,275.39Zm-1.31,1.53v-.65h-1.35c-.89,0-1.13.33-1.13.74s.39.78,1.07.78a1.43,1.43,0,0,0,1.41-.88Z" transform="translate(943.56 -131.67)"/>
      <path class="cls-8" d="M-653,278.1l.5-1a3.91,3.91,0,0,0,2,.55c.83,0,1.18-.23,1.18-.62,0-1.06-3.46-.06-3.46-2.29,0-1.06.95-1.75,2.46-1.75a4.49,4.49,0,0,1,2.1.48l-.5,1a3,3,0,0,0-1.61-.42c-.79,0-1.17.26-1.17.63,0,1.13,3.46.12,3.46,2.31,0,1-1,1.73-2.54,1.73A4.38,4.38,0,0,1-653,278.1Z" transform="translate(943.56 -131.67)"/>
      <path class="cls-8" d="M-641.71,276.28h-4.39a1.69,1.69,0,0,0,1.81,1.34,2,2,0,0,0,1.52-.61l.71.81a3.14,3.14,0,0,1-4.45,0,3.09,3.09,0,0,1-.9-2,2.78,2.78,0,0,1,2.7-2.86h.19a2.72,2.72,0,0,1,2.83,2.6,1.41,1.41,0,0,1,0,.29C-641.69,276-641.7,276.15-641.71,276.28Zm-4.4-.87h3.18a1.61,1.61,0,0,0-1.84-1.34A1.61,1.61,0,0,0-646.11,275.41Z" transform="translate(943.56 -131.67)"/>
      <path class="cls-8" d="M-680.81,282.06l-2.62,6.05a2.18,2.18,0,0,1-2.16,1.66,2.27,2.27,0,0,1-1.5-.52l.52-1a1.48,1.48,0,0,0,1,.39c.46,0,.73-.22,1-.78l.1-.22-2.45-5.62h1.36l1.76,4.14L-682,282Z" transform="translate(943.56 -131.67)"/>
      <path class="cls-8" d="M-680.56,284.86a3,3,0,0,1,2.87-3.13,3,3,0,0,1,3.12,2.87,3,3,0,0,1-2.86,3.13h-.13a2.81,2.81,0,0,1-3-2.63A1.93,1.93,0,0,1-680.56,284.86Zm4.64,0a1.66,1.66,0,0,0-1.75-1.57,1.67,1.67,0,0,0-1.57,1.75,1.67,1.67,0,0,0,1.66,1.57A1.63,1.63,0,0,0-676,285v-.1Z" transform="translate(943.56 -131.67)"/>
      <path class="cls-8" d="M-668,282.06v5.6h-1.24V287a2.32,2.32,0,0,1-1.81.78,2.22,2.22,0,0,1-2.42-2,2.68,2.68,0,0,1,0-.49v-3.2h1.31v3c0,1,.49,1.5,1.31,1.5a1.52,1.52,0,0,0,1.53-1.69V282Z" transform="translate(943.56 -131.67)"/>
      <path class="cls-8" d="M-663,282v1.25h-.31a1.53,1.53,0,0,0-1.63,1.42,1.58,1.58,0,0,0,0,.31v2.72h-1.31v-5.6H-665v.82A2.22,2.22,0,0,1-663,282Z" transform="translate(943.56 -131.67)"/>
      <path class="cls-12" d="M-687,300l.55-1.23a4.74,4.74,0,0,0,2.83.94c1.33,0,1.89-.48,1.89-1.11,0-1.85-5.09-.64-5.09-3.82,0-1.38,1.1-2.56,3.45-2.56a5.4,5.4,0,0,1,2.86.76l-.51,1.24a4.69,4.69,0,0,0-2.36-.68c-1.32,0-1.86.52-1.86,1.17,0,1.82,5.08.63,5.08,3.78,0,1.37-1.11,2.54-3.46,2.54A5.45,5.45,0,0,1-687,300Z" transform="translate(943.56 -131.67)"/>
      <path class="cls-12" d="M-675.63,297.33l-1.35,1.4v2.19h-1.58v-8.53h1.6v4.4l4.23-4.4h1.79l-3.6,3.83,3.82,4.74h-1.84Z" transform="translate(943.56 -131.67)"/>
      <path class="cls-12" d="M-669.66,292.39h1.59V301h-1.59Z" transform="translate(943.56 -131.67)"/>
      <path class="cls-12" d="M-665.76,292.39h1.59v7.22h4.48V301h-6.07Z" transform="translate(943.56 -131.67)"/>
      <path class="cls-12" d="M-658.43,292.39h1.59v7.22h4.48V301h-6.07Z" transform="translate(943.56 -131.67)"/>
      <path class="cls-12" d="M-651.89,300l.55-1.23a4.74,4.74,0,0,0,2.83.94c1.33,0,1.9-.48,1.9-1.11,0-1.85-5.1-.64-5.1-3.82,0-1.38,1.11-2.56,3.46-2.56a5.49,5.49,0,0,1,2.85.76l-.5,1.24a4.72,4.72,0,0,0-2.37-.68c-1.32,0-1.86.52-1.86,1.17,0,1.82,5.08.63,5.08,3.78,0,1.37-1.11,2.54-3.46,2.54A5.45,5.45,0,0,1-651.89,300Z" transform="translate(943.56 -131.67)"/>
      <path class="cls-21" d="M-637.43,304.2l-4.65-2.28a32.12,32.12,0,0,0-1.48-3c-.1.06-8.9-1.81-8.9-1.81s-.1,5.19.89,6.3,7,1.61,7.31,1.8,1-.43,1-.43l5,3.25Z" transform="translate(943.56 -131.67)"/>
      <path class="cls-12" d="M-586.63,265.08s-1.93-4.45-8.16-4.45-11.42,3.71-11.12,8.46-3.27,4.3-3.86,8.9,1.63,5.78,1.78,7.71-2.37,1.34-4,4.6-3.71,7.86,3.27,14,26.7,5,31,1.33,4.16-10.83,0-12.76-.29-1.63.15-5.93-3.41-5.93-3.12-9.35S-579.36,265.39-586.63,265.08Z" transform="translate(943.56 -131.67)"/>
      <path class="cls-8" d="M-610.84,294v12.23s-1,1.31-2.62,3a40.28,40.28,0,0,1-5.42,4.94c-1.88,1.36-3.77,2.29-5.3,2.1-4.84-.63-17.9-8.13-17.9-8.13l2.18-5.77s14.83,7.63,15.72,6.84S-613.56,294.64-610.84,294Z" transform="translate(943.56 -131.67)"/>
      <path class="cls-22" d="M-613.46,309.17a40.28,40.28,0,0,1-5.42,4.94c-.71-5.46,5.55-12.19,5.55-12.19S-613.24,305.39-613.46,309.17Z" transform="translate(943.56 -131.67)"/>
      <path class="cls-8" d="M-586.56,333.53h-25.61c0-.46.09-.87.13-1.2s.07-.72.09-.94a1.15,1.15,0,0,0,0-.28V331h2.23l3.16.12,5.43.2,5.35.2,1.23,0,4.66.17,2.56.1h0C-587,332.46-586.79,333-586.56,333.53Z" transform="translate(943.56 -131.67)"/>
      <path class="cls-18" d="M-586.56,333.53h-25.61c0-.46.09-.87.13-1.2s.07-.72.09-.94a1.15,1.15,0,0,0,0-.28V331h2.23l3.16.12,5.43.21,5.35.2h1.23l4.66.17,2.56.1h0C-587,332.46-586.79,333-586.56,333.53Z" transform="translate(943.56 -131.67)"/>
      <polygon class="cls-12" points="356.29 201.86 347.98 201.86 347.75 201.85 342.34 201.53 336.91 201.22 333.81 201.04 332.59 200.97 331.53 200.91 331.52 200.91 331.52 200.66 331.44 196.63 331.46 196.63 331.88 196.67 332.73 196.74 333.95 196.84 347.88 198.02 349.1 198.12 353.55 198.49 356.23 198.72 356.26 200.27 356.26 200.28 356.29 201.86"/>
      <polygon class="cls-14" points="342.6 197.78 342.6 197.82 342.46 199.75 342.46 199.76 342.34 201.53 342.31 201.86 342.31 201.89 341.88 201.86 336.89 201.51 336.91 201.22 337.03 199.55 337.18 197.46 337.18 197.4 342.6 197.78"/>
      <polygon class="cls-8" points="349.12 197.39 349.1 198.12 349.09 198.25 349.04 200 349.04 200.01 348.98 201.86 347.75 201.86 347.75 201.85 347.81 199.96 347.81 199.95 347.87 198.17 347.88 198.02 347.9 197.35 349.1 197.39 349.12 197.39"/>
      <polygon class="cls-18" points="349.12 197.39 349.1 198.12 349.09 198.25 349.04 200 349.04 200.01 348.98 201.86 347.75 201.86 347.75 201.85 347.81 199.96 347.81 199.95 347.87 198.17 347.88 198.02 347.9 197.35 349.1 197.39 349.12 197.39"/>
      <polygon class="cls-8" points="333.98 196.02 333.95 196.84 333.94 197.24 333.87 199.43 333.81 201.04 333.78 201.86 332.56 201.86 332.59 200.97 332.64 199.39 332.71 197.16 332.73 196.74 332.75 195.98 333.98 196.02"/>
      <polygon class="cls-18" points="333.98 196.02 333.95 196.84 333.94 197.24 333.87 199.43 333.81 201.04 333.78 201.86 332.56 201.86 332.59 200.97 332.64 199.39 332.71 197.16 332.73 196.74 332.75 195.98 333.98 196.02"/>
      <path class="cls-12" d="M-612.07,328.76l24.74,1.63c.39-6.15.84-8,2.69-15.38.59-2.37,1.33-5,2.29-8.07.51-1.64,1.07-3.39,1.7-5.28.47-1.43,1-3,1.54-4.56a72.46,72.46,0,0,0-10.27-2.48,76.67,76.67,0,0,0-11.11-1.17c-4.82,0-10.35.5-10.35.5s-.79.19-1.29,5.29C-612.56,304-613.06,311.32-612.07,328.76Z" transform="translate(943.56 -131.67)"/>
      <path class="cls-18" d="M-612.07,328.76l24.74,1.63c.39-6.15.84-8,2.69-15.38.59-2.37,1.33-5,2.29-8.07.51-1.64,1.07-3.39,1.7-5.28.47-1.43,1-3,1.54-4.56a72.46,72.46,0,0,0-10.27-2.48,76.67,76.67,0,0,0-11.11-1.17c-4.82,0-10.35.5-10.35.5s-.79.19-1.29,5.29C-612.56,304-613.06,311.32-612.07,328.76Z" transform="translate(943.56 -131.67)"/>
      <path class="cls-21" d="M-598.45,298.91c6.1-.78,7.93-3.39,7.93-3.39-3.87-3.65-.65-10-.65-10l-7.39,1.4a20,20,0,0,1,.29,3.09c.06,4.45-2,4.5-2,4.5C-601.48,296.92-598.45,298.91-598.45,298.91Z" transform="translate(943.56 -131.67)"/>
      <path class="cls-22" d="M-598.56,286.92a20,20,0,0,1,.29,3.09,8.18,8.18,0,0,0,7.06-4.47Z" transform="translate(943.56 -131.67)"/>
      <path class="cls-21" d="M-594.46,266.39c-6.38-.35-8.62,3-9.45,9.51-1,8.19.47,14.13,8.55,12.81C-584.39,286.91-583.86,267-594.46,266.39Z" transform="translate(943.56 -131.67)"/>
      <path class="cls-23" d="M-599.76,275.76a13.25,13.25,0,0,1-2,2.54,1.76,1.76,0,0,0,1.65.82Z" transform="translate(943.56 -131.67)"/>
      <path class="cls-12" d="M-595.83,275.45c0,.52.21,1,.56,1s.67-.38.71-.9-.21-1-.56-1S-595.79,274.93-595.83,275.45Z" transform="translate(943.56 -131.67)"/>
      <path class="cls-12" d="M-595,274.59l-1.1-.54S-595.56,275.06-595,274.59Z" transform="translate(943.56 -131.67)"/>
      <path class="cls-12" d="M-602.33,274.83c0,.53.21,1,.56,1s.66-.37.7-.9-.2-1-.55-1S-602.29,274.31-602.33,274.83Z" transform="translate(943.56 -131.67)"/>
      <path class="cls-12" d="M-601.48,274l-1.08-.58S-602.09,274.44-601.48,274Z" transform="translate(943.56 -131.67)"/>
      <path class="cls-24" d="M-592.81,272.53a.38.38,0,0,1-.29-.15,3,3,0,0,0-2.4-1,.36.36,0,0,1-.38-.33.35.35,0,0,1,.33-.39h0a3.66,3.66,0,0,1,3,1.26.38.38,0,0,1-.08.51A.4.4,0,0,1-592.81,272.53Z" transform="translate(943.56 -131.67)"/>
      <path class="cls-24" d="M-602.72,271.27a.35.35,0,0,1-.31-.18.35.35,0,0,1,.12-.48h0a3.31,3.31,0,0,1,2.9-.41.38.38,0,0,1,.19.48.38.38,0,0,1-.48.19,2.61,2.61,0,0,0-2.25.36A.37.37,0,0,1-602.72,271.27Z" transform="translate(943.56 -131.67)"/>
      <path class="cls-12" d="M-599.33,281.68a16.08,16.08,0,0,1,.62,2.26h.42c1.87-.08,2.7-.74,3.07-1.44a2.54,2.54,0,0,0,.24-1.12,2.82,2.82,0,0,0-.08-.65,8.68,8.68,0,0,1-3.63.93Z" transform="translate(943.56 -131.67)"/>
      <path class="cls-14" d="M-598.69,281.64l.2.66c1.76-.08,3-.38,3.51-.94a2.82,2.82,0,0,0-.08-.65A8.68,8.68,0,0,1-598.69,281.64Z" transform="translate(943.56 -131.67)"/>
      <path class="cls-25" d="M-598.29,283.92c1.87-.08,2.7-.74,3.07-1.44a5.87,5.87,0,0,0-2.06.5A2.24,2.24,0,0,0-598.29,283.92Z" transform="translate(943.56 -131.67)"/>
      <path class="cls-12" d="M-588.07,277.52s-2.7-5.41-2-9.43c0,0-12.37-5.86-13.7,7,0,0-.61-11.47,10.38-11.13s10.06,16.4,4.13,20.87C-589.28,284.78-586.4,280.9-588.07,277.52Z" transform="translate(943.56 -131.67)"/>
      <path class="cls-12" d="M-587.42,265.77s-5-4.45-9.54-3.61-3.76,6.83,2.22,9.1,7.22,5.2,7.22,5.2l5.19-4.65Z" transform="translate(943.56 -131.67)"/>
      <path class="cls-12" d="M-586.33,276.8l-.49-.11s.19-1.49-3.75-2.87c-4.16-1.45-8.88-3.1-9.51-6.43a3.52,3.52,0,0,1,.41-2.83,2,2,0,0,1,1.35-.77v.5a1.48,1.48,0,0,0-1,.58,3,3,0,0,0-.31,2.43c.57,3.05,5.15,4.64,9.19,6.05C-586,274.89-586.32,276.72-586.33,276.8Z" transform="translate(943.56 -131.67)"/>
      <path class="cls-21" d="M-589.19,278.81a2.82,2.82,0,0,1,3.16-2.39c2,.32,2.69,4.44-2.29,5.14C-589,281.66-589.39,281-589.19,278.81Z" transform="translate(943.56 -131.67)"/>
      <path class="cls-21" d="M-584.86,296.2s-7.16,5.81-13.83,5.72-9-7.59-9-7.59A38,38,0,0,1-584.86,296.2Z" transform="translate(943.56 -131.67)"/>
      <path class="cls-8" d="M-579.11,297.1l-.63,7.54-.18,2.16-.35,4.24-1.64,19.69-.24,2.8h-7.53q-.11-.81-.18-1.68h0c-.06-.53-.1-1.07-.14-1.63h0v-.51c-.32-4.49-.36-9.7-.27-14.72h0c0-2.18.1-4.33.17-6.36,0-.9.07-1.78.11-2.63s.06-1.43.09-2.1v-.15h0v-.38c0-.88.09-1.72.13-2.5,0-.47.06-.92.08-1.34a.29.29,0,0,1,0-.13v-.89c.12-2,.22-3.33.25-3.71v-.11a53.35,53.35,0,0,1,7.69,1.71l1.49.44.67.21.23.07h.14Z" transform="translate(943.56 -131.67)"/>
      <path class="cls-18" d="M-588.28,304.3l1.87,2.87-3.9,7.75c.18-10.6.93-20.31.93-20.31l6,5.54Z" transform="translate(943.56 -131.67)"/>
      <path class="cls-8" d="M-602.72,293.39h0v.13c-.07.13-.19.35-.34.66l-.12.25c-.05.09-.09.19-.14.29l-.15.32c-.42.9-1,2.14-1.58,3.75s-1.43,3.9-2.2,6.48c-.32,1.07-.64,2.21-1,3.43-.09.31-.17.63-.25.95-.18.73-.36,1.49-.54,2.27a133,133,0,0,0-2.69,16.47v.43c-.07.74-.13,1.49-.19,2.25v.37c0,.39,0,.79-.08,1.19l-.06.95h-1.15l-1.6-.74a209.63,209.63,0,0,1,.42-22.7h0c.23-2.85.56-5.63,1-8.16.17-.92.35-1.82.56-2.66a24.39,24.39,0,0,1,1.3-4.07h0c.18-.41.38-.82.6-1.21h.36l5.2-.36h0Z" transform="translate(943.56 -131.67)"/>
      <path class="cls-18" d="M-602.73,293.39c-.16.29-3.6,6.54-6.34,18.53l-1.23-7.72,2.59-2.28L-610.3,297Z" transform="translate(943.56 -131.67)"/>
      <path class="cls-8" d="M-569.09,320.39A2.3,2.3,0,0,1-572,321.8a2.27,2.27,0,0,1-.54-.27,8.89,8.89,0,0,1-3.06-2.85c-.62-.89-1.45-2.23-2.31-3.65-1.83-3.07-3.73-6.47-3.73-6.47l2.56-11.49C-575.42,298.86-567.71,317.45-569.09,320.39Z" transform="translate(943.56 -131.67)"/>
      <path class="cls-22" d="M-572.56,321.56a8.89,8.89,0,0,1-3.06-2.85c-.62-.89-1.45-2.23-2.31-3.65a33.3,33.3,0,0,1,2.17-3.45l1.86,5.23s3.26.74,3.78,2.44C-569.92,319.93-571,320.84-572.56,321.56Z" transform="translate(943.56 -131.67)"/>
      <path class="cls-12" d="M-572.67,306.62l-6.16,23.48a1.22,1.22,0,0,1-1.29.87l-16.35-2.18a.89.89,0,0,1-.79-1,.45.45,0,0,1,0-.16l6.16-23.48a1.22,1.22,0,0,1,1.29-.86l16.35,2.17a.89.89,0,0,1,.79,1A.45.45,0,0,1-572.67,306.62Z" transform="translate(943.56 -131.67)"/>
      <path class="cls-9" d="M-572.67,306.62l-6.16,23.48a1.22,1.22,0,0,1-1.29.87l-15.6-2.08a.91.91,0,0,1-.8-1l0-.15,6.17-23.48a1.19,1.19,0,0,1,1.28-.86l15.61,2.07a.89.89,0,0,1,.79,1A.45.45,0,0,1-572.67,306.62Z" transform="translate(943.56 -131.67)"/>
      <path class="cls-13" d="M-584,315.58a1.7,1.7,0,0,0-1.84,1.23,1.28,1.28,0,0,0,.87,1.59l.22,0a1.71,1.71,0,0,0,1.85-1.24,1.28,1.28,0,0,1-1.15-1.38A2,2,0,0,1-584,315.58Z" transform="translate(943.56 -131.67)"/>
      <path class="cls-8" d="M-571.34,326c-1.1.58-3.59-.3-4.34-.6l-.24-.09s-1.35-4.43,2.18-6.82l.08-.05c1.13-.6,4.61.18,4.72,1.35C-568.56,324.48-570,325.27-571.34,326Z" transform="translate(943.56 -131.67)"/>
      <path class="cls-22" d="M-573.49,322.18a5.7,5.7,0,0,1-2.19,3.18l-.24-.09s-1.35-4.43,2.18-6.82l.08-.05C-573.35,318.8-572.87,319.85-573.49,322.18Z" transform="translate(943.56 -131.67)"/>
      <path class="cls-21" d="M-578.56,316.57s2.27-.1,3.31,0,.72,3.45.72,3.45l.9.48s.72,2-.83,3l-.81-.27a2.29,2.29,0,0,1-.86,1.19c-.65.39-3.81-.5-3.81-.5Z" transform="translate(943.56 -131.67)"/>
      <rect class="cls-17" x="259.97" y="85.77" width="2.04" height="2.72"/>
      <rect class="cls-17" x="256.64" y="84.87" width="2.04" height="3.62"/>
      <rect class="cls-17" x="253.33" y="83.96" width="2.04" height="4.53"/>
      <rect class="cls-17" x="250" y="83.05" width="2.04" height="5.44"/>
      <rect class="cls-17" x="368.2" y="84.78" width="1.21" height="2.72"/>
      <rect class="cls-17" x="370.24" y="83.79" width="9.63" height="4.7"/>
      <g class="cls-26">
        <path class="cls-14" d="M-636,215.72l-42.12,157.76h0l-.47,1.78h0l-.76,2.84h0l-.48,1.77-22,82.38v-99.7l41.23-154.33h1.34A2.74,2.74,0,0,1-656.7,210l1.63,4a2.73,2.73,0,0,0,2.52,1.74Z" transform="translate(943.56 -131.67)"/>
        <polygon class="cls-14" points="388.08 164.62 388.08 264.32 362.18 361.35 335.56 361.35 338.73 349.48 339.43 346.87 340.82 341.66 341.52 339.05 342.91 333.83 343.6 331.23 365.5 249.21 365.5 249.2 366.51 245.41 366.51 245.4 388.08 164.62"/>
        <path class="cls-14" d="M-621.56,215.72-663.4,372.5l-.25.94-2.29,8.59-.25.93L-695.56,493h-2.28a3.85,3.85,0,0,1-2.76-1.12,3.94,3.94,0,0,1-.49-.59L-672.16,383l.25-.93,2.29-8.59.25-.94,41.81-156.78Z" transform="translate(943.56 -131.67)"/>
      </g>
    </g>
    <g id="freepik--Character--inject-61">
      <path class="cls-12" d="M-394.32,378.63H-504.17a9.27,9.27,0,0,0-9,8l-12.75,104.15h125.81l12.79-104.17a6.91,6.91,0,0,0-5.75-7.9A7.5,7.5,0,0,0-394.32,378.63Z" transform="translate(943.56 -131.67)"/>
      <path class="cls-17" d="M-394.32,378.63H-504.17a9.27,9.27,0,0,0-9,8l-12.75,104.15h125.81l12.79-104.17a6.91,6.91,0,0,0-5.75-7.9A7.5,7.5,0,0,0-394.32,378.63Z" transform="translate(943.56 -131.67)"/>
      <path class="cls-22" d="M-424.44,490.78h24.33l12.79-104.17a6.92,6.92,0,0,0-5.73-7.92,7.74,7.74,0,0,0-1.27-.08h-8.36a9.29,9.29,0,0,0-9,8Z" transform="translate(943.56 -131.67)"/>
      <polygon class="cls-12" points="536.4 386.83 527.87 386.83 524.39 360.22 539.01 360.22 536.4 386.83"/>
      <polygon class="cls-12" points="498.97 386.83 490.45 386.83 486.97 360.22 501.58 360.22 498.97 386.83"/>
      <polygon class="cls-12" points="435.44 386.83 426.92 386.83 423.44 360.22 438.05 360.22 435.44 386.83"/>
      <polygon class="cls-12" points="398.02 386.83 389.49 386.83 386.01 360.22 400.63 360.22 398.02 386.83"/>
      <polygon class="cls-10" points="498.97 386.83 490.45 386.83 486.97 360.22 501.58 360.22 498.97 386.83"/>
      <polygon class="cls-10" points="398.02 386.83 389.49 386.83 386.01 360.22 400.63 360.22 398.02 386.83"/>
      <path class="cls-12" d="M-400.9,490.2l-.77,9.8a1.37,1.37,0,0,1-1.37,1.26H-558.4a1.37,1.37,0,0,1-1.37-1.26l-.77-9.8Z" transform="translate(943.56 -131.67)"/>
      <path class="cls-10" d="M-437.9,490.2l-.77,9.8a1.37,1.37,0,0,1-1.37,1.26H-558.4a1.37,1.37,0,0,1-1.37-1.26l-.77-9.8Z" transform="translate(943.56 -131.67)"/>
      <path class="cls-12" d="M-458.4,467.6h-48l-3.49-39.94a15.31,15.31,0,0,0-15.26-14h-51.12a6.43,6.43,0,0,0-6.43,6.45,5.06,5.06,0,0,0,0,.55l.8,9.19a6.46,6.46,0,0,0,5.6,5.83l1.81.23a4.8,4.8,0,0,1,4.18,4.34l4.41,50.38a7.11,7.11,0,0,0,7.08,6.49h100.4Z" transform="translate(943.56 -131.67)"/>
      <path class="cls-17" d="M-458.4,467.6h-48l-3.49-39.94a15.31,15.31,0,0,0-15.26-14h-51.12a6.43,6.43,0,0,0-6.43,6.45,5.06,5.06,0,0,0,0,.55l.8,9.19a6.46,6.46,0,0,0,5.6,5.83l1.81.23a4.8,4.8,0,0,1,4.18,4.34l4.41,50.38a7.11,7.11,0,0,0,7.08,6.49h100.4Z" transform="translate(943.56 -131.67)"/>
      <path class="cls-22" d="M-545.29,427.66a15.3,15.3,0,0,0-15.25-14h35.39a15.31,15.31,0,0,1,15.26,14l3.49,39.94h-35.39Z" transform="translate(943.56 -131.67)"/>
      <path class="cls-9" d="M-458.4,467.6h-83.39l-3.5-39.94a15.3,15.3,0,0,0-15.25-14h-15.73a6.43,6.43,0,0,0-6.43,6.45,5.06,5.06,0,0,0,0,.55l.8,9.19a6.46,6.46,0,0,0,5.6,5.83l1.81.23a4.8,4.8,0,0,1,4.18,4.34l4.41,50.38a7.11,7.11,0,0,0,7.08,6.49h100.4Z" transform="translate(943.56 -131.67)"/>
      <path class="cls-12" d="M-466.68,387.89a46.52,46.52,0,0,1-10.42-4.57,11.78,11.78,0,0,1-2.54-2.13,5.56,5.56,0,0,1-.5-.67c3.57-12.46,7.18-17.92,14.74-18.49C-459.63,369.45-466.68,387.89-466.68,387.89Z" transform="translate(943.56 -131.67)"/>
      <path class="cls-22" d="M-477.1,383.32a11.78,11.78,0,0,1-2.54-2.13,18.89,18.89,0,0,1,2.31-3.67A7.72,7.72,0,0,1-477.1,383.32Z" transform="translate(943.56 -131.67)"/>
      <polygon class="cls-27" points="337.62 382.03 332.19 375.05 348.69 362.6 354.12 369.57 337.62 382.03"/>
      <polygon class="cls-22" points="354.12 369.57 348.68 362.6 340.18 369.02 345.62 376 354.12 369.57"/>
      <path class="cls-12" d="M-608.21,504l8.25,5.62a.7.7,0,0,1,.24.9l-3.51,7.16a1.43,1.43,0,0,1-1.93.59l-.14-.08c-2.84-2-4.11-3.13-7.73-5.6-2.23-1.52-7.39-4.56-10.47-6.66s-1.17-5.26.3-4.66c6.59,2.69,10.41,2.65,13.45,2.34A2.4,2.4,0,0,1-608.21,504Z" transform="translate(943.56 -131.67)"/>
      <path class="cls-8" d="M-612.73,501.9a1,1,0,0,0,0,.35c.26,1.08,2.14,1.95,3.23,2.37a.17.17,0,0,0,.19,0,.21.21,0,0,0,0-.19c-.14-.33-1.38-3.28-2.48-3.47a.7.7,0,0,0-.65.24A1.36,1.36,0,0,0-612.73,501.9Zm3,2.24c-1.51-.63-2.48-1.36-2.63-2a.82.82,0,0,1,.25-.77.3.3,0,0,1,.33-.13C-611.11,501.39-610.19,503.12-609.73,504.14Z" transform="translate(943.56 -131.67)"/>
      <path class="cls-8" d="M-609.95,501.72a6.12,6.12,0,0,0,.39,2.81.15.15,0,0,0,.14.1.17.17,0,0,0,.16-.07c.06-.09,1.49-2.2,1.17-3.44a1.06,1.06,0,0,0-.56-.71.7.7,0,0,0-.87.08A2,2,0,0,0-609.95,501.72Zm.58,2.35c-.32-1-.4-2.85.09-3.33.08-.08.21-.15.47,0a.75.75,0,0,1,.38.49C-608.21,502.05-609,503.47-609.37,504.07Z" transform="translate(943.56 -131.67)"/>
      <path class="cls-28" d="M-463,369.84l.13.54.09.42.15.79c.09.52.16,1,.22,1.53.11,1,.17,2,.19,3a33.47,33.47,0,0,1-.45,6,31.55,31.55,0,0,1-4.2,11.29,33.26,33.26,0,0,1-3.62,4.81c-.67.74-1.39,1.42-2.1,2.09l-1.11,1c-.4.32-.83.62-1.27.92a15.33,15.33,0,0,1-6.52,2.49,9.45,9.45,0,0,1-4.09-.4,8.09,8.09,0,0,1-1.91-1,6.93,6.93,0,0,1-.84-.68l-.39-.4-.48-.57a2.77,2.77,0,0,1,.22-3.9,2.77,2.77,0,0,1,3.78.1c-.09-.12,0-.09,0-.12h.12l.27-.07a2.33,2.33,0,0,0,.49-.21,7,7,0,0,0,.92-.61,17.47,17.47,0,0,0,2.32-2.23l.64-.73.73-.76c.47-.53.93-1.05,1.34-1.6a23.28,23.28,0,0,0,2.22-3.42,23.86,23.86,0,0,0,2.46-7.66,26.53,26.53,0,0,0,.25-4.08,12,12,0,0,0-.11-2l-.1-1-.11-.73-.1-.65a5.54,5.54,0,0,1,4.65-6.31A5.54,5.54,0,0,1-463,369.9Z" transform="translate(943.56 -131.67)"/>
      <path class="cls-12" d="M-476.85,374.58a110.66,110.66,0,0,0-2.41,14.81c-.86,7.24-1.48,14.41-2.31,26.38l36.25,5.74c.89-10.33,3.92-21.78,14.07-43.73a8.56,8.56,0,0,0-3.8-11.49,8.64,8.64,0,0,0-1.69-.64c-1.42-.37-2.92-.74-4.47-1.06a116,116,0,0,0-16.46-2.6c-1.82-.13-3.71-.19-5.52-.23C-469.73,361.61-475.65,368.23-476.85,374.58Z" transform="translate(943.56 -131.67)"/>
      <path class="cls-28" d="M-443.56,345.88c-1.45,5.36-3.24,15.19.24,18.77,0,0-5.08-.77-15.87,5.89-3.12-4.48-.8-5.91-.8-5.91,6.09-1.42,6.27-5.86,5.54-10Z" transform="translate(943.56 -131.67)"/>
      <path class="cls-22" d="M-448,349.44l-6.44,5.16a17.73,17.73,0,0,1,.29,3c2.31-.33,5.64-2.83,6.06-5.22A7.86,7.86,0,0,0-448,349.44Z" transform="translate(943.56 -131.67)"/>
      <path class="cls-8" d="M-461.34,340.63c.11,2.75-1.55,5-3.69,5.13s-4-2.08-4.09-4.83,1.55-5,3.7-5.13S-461.44,337.88-461.34,340.63Z" transform="translate(943.56 -131.67)"/>
      <path class="cls-12" d="M-458.56,340.68c.13,3.52-2,6.45-4.72,6.56s-5.08-2.66-5.21-6.17,2-6.45,4.72-6.56S-458.75,337.17-458.56,340.68Z" transform="translate(943.56 -131.67)"/>
      <path class="cls-22" d="M-458.56,340.68c.13,3.52-2,6.45-4.72,6.56s-5.08-2.66-5.21-6.17,2-6.45,4.72-6.56S-458.75,337.17-458.56,340.68Z" transform="translate(943.56 -131.67)"/>
      <path class="cls-12" d="M-443.44,324.28s2.67-7.35,8.66-5.9,7.43,7,5.43,13.63.69,8,.69,8-7,1.15-7.61-6.87-4.74-5.52-4.74-5.52Z" transform="translate(943.56 -131.67)"/>
      <path class="cls-28" d="M-443.8,332.74c.84,8.78,1.37,12.46-2.22,17.82-5.41,8.07-16.14,7.72-19.52-.49-3-7.39-3.91-20.49,3.87-25.71a11.28,11.28,0,0,1,15.75,2.52A11.31,11.31,0,0,1-443.8,332.74Z" transform="translate(943.56 -131.67)"/>
      <path class="cls-12" d="M-454,337.2c.1.73-.19,1.4-.65,1.5s-.91-.42-1-1.15.18-1.41.64-1.5S-454.13,336.46-454,337.2Z" transform="translate(943.56 -131.67)"/>
      <path class="cls-12" d="M-463,338.81c.1.73-.19,1.4-.65,1.5s-.91-.42-1-1.15.19-1.41.65-1.5S-463.15,338.07-463,338.81Z" transform="translate(943.56 -131.67)"/>
      <path class="cls-12" d="M-463.86,337.65l-1.76-.15S-464.56,338.7-463.86,337.65Z" transform="translate(943.56 -131.67)"/>
      <path class="cls-29" d="M-460.09,339.84a21.45,21.45,0,0,1-1.86,5.21,2.92,2.92,0,0,0,2.58,0Z" transform="translate(943.56 -131.67)"/>
      <path class="cls-12" d="M-454.94,346.87a6.84,6.84,0,0,1-1.17.35.2.2,0,0,1-.23-.14v0a.22.22,0,0,1,.17-.26,6.12,6.12,0,0,0,4.23-3.22.22.22,0,0,1,.28-.13.22.22,0,0,1,.1.29A6.4,6.4,0,0,1-454.94,346.87Z" transform="translate(943.56 -131.67)"/>
      <path class="cls-12" d="M-453.34,332.32a.32.32,0,0,1-.33,0,3.14,3.14,0,0,0-3-.25.41.41,0,0,1-.54-.17v0a.47.47,0,0,1,.21-.59,4,4,0,0,1,3.79.28.43.43,0,0,1,.12.6A.4.4,0,0,1-453.34,332.32Z" transform="translate(943.56 -131.67)"/>
      <path class="cls-12" d="M-467.4,334.76a.42.42,0,0,1-.31,0,.45.45,0,0,1-.22-.57A4.54,4.54,0,0,1-465,331.4a.41.41,0,0,1,.49.31v0a.47.47,0,0,1-.34.53,3.65,3.65,0,0,0-2.26,2.23A.46.46,0,0,1-467.4,334.76Z" transform="translate(943.56 -131.67)"/>
      <path class="cls-12" d="M-454.84,336l-1.72-.15S-455.56,337.08-454.84,336Z" transform="translate(943.56 -131.67)"/>
      <path class="cls-12" d="M-452.91,326a12.81,12.81,0,0,0,6.78,8.77l1.11,6.62,1.36,4.05s6.87-1.46,5.69-13c-.8-7.76-4.45-10-7-10.67a9.92,9.92,0,0,1-3.88-1.87c-1.66-1.35-5-2.67-11.16-.35-9.09,3.43-6.47,11.07-6.47,11.07a12.3,12.3,0,0,1,4.34-4.2C-459.64,325.15-455.26,324.48-452.91,326Z" transform="translate(943.56 -131.67)"/>
      <path class="cls-28" d="M-439.87,339.28a7.06,7.06,0,0,1-3.57,4.05c-2.18,1-3.57-1.07-3.22-3.5.31-2.19,1.82-5.35,4.12-5.32S-439.08,337-439.87,339.28Z" transform="translate(943.56 -131.67)"/>
      <path class="cls-12" d="M-439.37,339.68c.13,3.51-2,6.45-4.72,6.55s-5.08-2.65-5.21-6.17,2-6.44,4.72-6.55S-439.51,336.17-439.37,339.68Z" transform="translate(943.56 -131.67)"/>
      <path class="cls-22" d="M-439.37,339.68c.13,3.51-2,6.45-4.72,6.55s-5.08-2.65-5.21-6.17,2-6.44,4.72-6.55S-439.51,336.17-439.37,339.68Z" transform="translate(943.56 -131.67)"/>
      <path class="cls-8" d="M-443.67,335.62s.07-11.86-4-14.93l3.13,1.31a23.56,23.56,0,0,1,2.89,14Z" transform="translate(943.56 -131.67)"/>
      <path class="cls-22" d="M-443.67,335.62s.07-11.86-4-14.93l3.13,1.31a23.56,23.56,0,0,1,2.89,14Z" transform="translate(943.56 -131.67)"/>
      <path class="cls-8" d="M-439,339.94c.11,2.75-1.54,5-3.69,5.13s-4-2.08-4.09-4.83,1.55-5,3.7-5.13S-439.13,337.19-439,339.94Z" transform="translate(943.56 -131.67)"/>
      <path class="cls-28" d="M-493.76,395.62l.38,2.36a2.79,2.79,0,0,0,1.5,2.06l3.77,1.87a5.19,5.19,0,0,0,4.76-.07l.92-.49c-.35-4-3.66-8-3.66-8l-.81-1.25a2.31,2.31,0,0,0-3.17-.78l0,0-2.5,1.58A2.67,2.67,0,0,0-493.76,395.62Z" transform="translate(943.56 -131.67)"/>
      <path class="cls-8" d="M-449.71,463.39c-14,9.39-45.58,3.56-74.22-2.54a72.09,72.09,0,0,1-12.93,13.42c-13.7,11.27-31.7,20.3-43.49,25.56-7.36,3.3-12.32,5.12-12.32,5.12l-7.64-9.47s16.5-12.84,34.74-26.84c12.4-9.53,25.6-19.61,34.94-26.55a5.35,5.35,0,0,1,1.7-.82h0a12.94,12.94,0,0,1,2.77-.39l2-.13,1.59-.1c9.88-.66,31.48-1.81,31.48-1.81L-481,415.49l36.62,2.31S-437.56,455.25-449.71,463.39Z" transform="translate(943.56 -131.67)"/>
      <polygon class="cls-12" points="339.81 364.51 349.48 376.44 354.76 373.27 344.23 360.59 339.81 364.51"/>
      <path class="cls-22" d="M-518.93,440.8a364.77,364.77,0,0,1-17.93,33.42c-13.7,11.32-31.7,20.35-43.49,25.61a119,119,0,0,1,14.79-31.19c1.8-2.69,3.78-5.41,6-8.11,10.69-13.28,22.54-17.81,30.68-19.26h0c1-.18,1.9-.3,2.77-.39,1.35-.15,2.55-.21,3.56-.23A23.64,23.64,0,0,1-518.93,440.8Z" transform="translate(943.56 -131.67)"/>
      <polygon class="cls-27" points="371.98 377.08 363.86 373.58 372.34 354.73 380.46 358.22 371.98 377.08"/>
      <polygon class="cls-22" points="380.46 358.23 372.33 354.73 367.97 364.45 376.09 367.95 380.46 358.23"/>
      <path class="cls-12" d="M-578.22,501.39l9.93,1a.72.72,0,0,1,.65.67l.37,8a1.45,1.45,0,0,1-1.43,1.45h-.14c-3.46-.4-5.11-.76-9.48-1.19-2.69-.26-8.67-.44-12.38-.8s-3.55-4-2-4.23c7.08-.82,10.4-2.69,12.93-4.42A2.32,2.32,0,0,1-578.22,501.39Z" transform="translate(943.56 -131.67)"/>
      <path class="cls-8" d="M-583.2,501.68a1,1,0,0,0,.19.29c.74.83,2.81.68,4,.52a.19.19,0,0,0,.15-.12.22.22,0,0,0-.06-.19c-.29-.22-2.79-2.21-3.84-1.85a.66.66,0,0,0-.45.53A1.21,1.21,0,0,0-583.2,501.68Zm3.69.52c-1.62.17-2.82,0-3.24-.46a.81.81,0,0,1-.15-.8.32.32,0,0,1,.22-.28C-582,500.44-580.39,501.53-579.51,502.2Z" transform="translate(943.56 -131.67)"/>
      <path class="cls-8" d="M-580.86,500.19a6.34,6.34,0,0,0,1.7,2.27.17.17,0,0,0,.17,0,.21.21,0,0,0,.1-.14c0-.11.25-2.64-.62-3.57a1.07,1.07,0,0,0-.84-.36.69.69,0,0,0-.72.49A2,2,0,0,0-580.86,500.19Zm1.64,1.78c-.75-.72-1.72-2.31-1.52-3,0-.11.11-.23.4-.24a.71.71,0,0,1,.57.24C-579.18,499.64-579.18,501.26-579.22,502Z" transform="translate(943.56 -131.67)"/>
      <path class="cls-19" d="M-449.71,463.39c-14,9.39-45.58,3.56-74.22-2.54a72.09,72.09,0,0,1-12.93,13.42c-13.7,11.27-31.7,20.3-43.49,25.56-7.36,3.3-12.32,5.12-12.32,5.12l-7.64-9.47s16.5-12.84,34.74-26.84c12.4-9.53,25.6-19.61,34.94-26.55a5.35,5.35,0,0,1,1.7-.82h0a12.94,12.94,0,0,1,2.77-.39l2-.13,1.59-.1c9.88-.66,31.48-1.81,31.48-1.81L-481,415.49l36.62,2.31S-437.56,455.25-449.71,463.39Z" transform="translate(943.56 -131.67)"/>
      <path class="cls-8" d="M-447.83,429.21s-54.76-9.5-75.35-8.63c-20.13.85-52.3,70.05-52.3,70.05l11.6,5c24.46-23.92,38.62-41.48,45-54.8,47.14,21.54,64.88,21.36,64.88,21.36Z" transform="translate(943.56 -131.67)"/>
      <path class="cls-19" d="M-447.83,429.21s-54.76-9.5-75.35-8.63c-20.13.85-52.3,70.05-52.3,70.05l11.6,5c24.46-23.92,38.62-41.48,45-54.8,47.14,21.54,64.88,21.36,64.88,21.36Z" transform="translate(943.56 -131.67)"/>
      <polygon class="cls-12" points="365.47 360.67 379.69 366.49 382.79 361.16 367.46 355.11 365.47 360.67"/>
      <path class="cls-22" d="M-518.93,440.8s1.85-4.4,5-4.91,29.37,1.68,29.37,1.68Z" transform="translate(943.56 -131.67)"/>
      <path class="cls-8" d="M-477.66,400.39l-4-18.72a1.93,1.93,0,0,0-1.79-1.47H-493a1.15,1.15,0,0,0-1.2,1.09,1,1,0,0,0,0,.38l4,18.72a1.94,1.94,0,0,0,1.8,1.48h9.54a1.15,1.15,0,0,0,1.19-1.12A1.11,1.11,0,0,0-477.66,400.39Z" transform="translate(943.56 -131.67)"/>
      <path class="cls-22" d="M-479.71,401.84h-8.65a1.94,1.94,0,0,1-1.8-1.48l-4-18.72a1.15,1.15,0,0,1,.78-1.43,1.23,1.23,0,0,1,.38,0h8.65a1.93,1.93,0,0,1,1.79,1.47l4,18.75a1.16,1.16,0,0,1-.83,1.41A1.17,1.17,0,0,1-479.71,401.84Z" transform="translate(943.56 -131.67)"/>
      <path class="cls-28" d="M-481.69,390.81l2.67-.59a3.16,3.16,0,0,1,2.82.74l3.58,3.22a6,6,0,0,1,1.93,5.1l-.14,1.18c-4.36,1.29-10-.54-10-.54l-1.67-.34a2.66,2.66,0,0,1-2.17-3.06v0l.63-3.33A3.08,3.08,0,0,1-481.69,390.81Z" transform="translate(943.56 -131.67)"/>
      <path class="cls-17" d="M-455.26,384.39l2.2-2a.51.51,0,0,1,.72,0,.52.52,0,0,1,.11.19l.82,2.67a.51.51,0,0,1-.32.63.5.5,0,0,1-.27,0l-3-.62a.49.49,0,0,1-.47-.52A.47.47,0,0,1-455.26,384.39Z" transform="translate(943.56 -131.67)"/>
      <path class="cls-22" d="M-445,384.84s-3.95,8.65,0,11.62S-437.82,385.74-445,384.84Z" transform="translate(943.56 -131.67)"/>
      <path class="cls-28" d="M-430.7,384.3c-.33,1.42-.64,2.61-1,3.88s-.77,2.48-1.18,3.71c-.85,2.45-1.81,4.86-2.88,7.25a73.61,73.61,0,0,1-3.63,7,56,56,0,0,1-4.62,6.69l-.13.16a4.26,4.26,0,0,1-.59.61,8.39,8.39,0,0,1-4.31,1.85,10.94,10.94,0,0,1-3.38-.11,20.19,20.19,0,0,1-4.78-1.59,45.83,45.83,0,0,1-7.36-4.36c-2.22-1.6-4.32-3.29-6.34-5.06s-3.94-3.57-5.81-5.56a2.76,2.76,0,0,1,.09-3.9l0,0a2.79,2.79,0,0,1,3.38-.33h.06c2.12,1.34,4.3,2.74,6.48,4s4.35,2.57,6.54,3.7a45.09,45.09,0,0,0,6.43,2.88,10.67,10.67,0,0,0,2.67.61c.33,0,.55,0,.51-.06a1.34,1.34,0,0,0-.78.33l-.73.78a59.66,59.66,0,0,0,3.33-5.75c1-2,1.94-4.11,2.8-6.25s1.66-4.32,2.39-6.53c.38-1.1.74-2.21,1.07-3.32s.68-2.27.95-3.23v-.17a5.56,5.56,0,0,1,6.87-3.82,5.56,5.56,0,0,1,3.9,6.57Z" transform="translate(943.56 -131.67)"/>
      <path class="cls-12" d="M-433.94,366.91c6.19,4.38,6.48,10.92,3.14,23.44-4.47,2.24-15.33-.59-15.33-.59S-442.71,370.32-433.94,366.91Z" transform="translate(943.56 -131.67)"/>
      <path class="cls-12" d="M-382.36,413.68h-56.38a15.31,15.31,0,0,0-15.26,14l-3.49,39.94h-4v29.54h61.67a7.12,7.12,0,0,0,7.09-6.49l4.4-50.38a4.8,4.8,0,0,1,4.18-4.34l1.81-.23a6.46,6.46,0,0,0,5.61-5.83l.8-9.19a6.44,6.44,0,0,0-5.83-7Z" transform="translate(943.56 -131.67)"/>
      <path class="cls-17" d="M-382.36,413.68h-56.38a15.31,15.31,0,0,0-15.26,14l-3.49,39.94h-4v29.54h61.67a7.12,7.12,0,0,0,7.09-6.49l4.4-50.38a4.8,4.8,0,0,1,4.18-4.34l1.81-.23a6.46,6.46,0,0,0,5.61-5.83l.8-9.19a6.44,6.44,0,0,0-5.83-7Z" transform="translate(943.56 -131.67)"/>
      <g class="cls-30">
        <path d="M-433.4,490.65l4.41-50.38a4.78,4.78,0,0,1,4.17-4.34l1.82-.23a6.46,6.46,0,0,0,5.6-5.83l.8-9.19a6.44,6.44,0,0,0-5.86-7l-.56,0h40.66a6.44,6.44,0,0,1,6.44,6.44,5.33,5.33,0,0,1,0,.56l-.8,9.19a6.46,6.46,0,0,1-5.61,5.83l-1.81.23a4.8,4.8,0,0,0-4.18,4.34l-4.4,50.38a7.12,7.12,0,0,1-7.09,6.49h-40.65A7.11,7.11,0,0,0-433.4,490.65Z" transform="translate(943.56 -131.67)"/>
      </g>
      <path class="cls-9" d="M-423,413.68h-15.72a15.31,15.31,0,0,0-15.26,14l-3.49,39.94h-4v29.54h21a7.11,7.11,0,0,0,7.08-6.49l4.41-50.38a4.78,4.78,0,0,1,4.17-4.34l1.82-.23a6.46,6.46,0,0,0,5.6-5.83l.8-9.19a6.44,6.44,0,0,0-5.83-7Z" transform="translate(943.56 -131.67)"/>
    </g>
  </g>
</svg>
