<svg xmlns="http://www.w3.org/2000/svg" xmlns:xlink="http://www.w3.org/1999/xlink" viewBox="0 0 439.41 507.54"><defs><style>.cls-1{fill:url(#White_Black_2);}.cls-2{fill:url(#linear-gradient);}.cls-3{fill:url(#linear-gradient-2);}.cls-4{fill:url(#linear-gradient-3);}.cls-5{fill:url(#linear-gradient-4);}.cls-6{fill:url(#linear-gradient-5);}.cls-7{isolation:isolate;}.cls-8{opacity:0.62;fill:url(#radial-gradient);}.cls-10,.cls-102,.cls-11,.cls-12,.cls-13,.cls-14,.cls-15,.cls-16,.cls-17,.cls-18,.cls-19,.cls-199,.cls-20,.cls-25,.cls-30,.cls-35,.cls-40,.cls-45,.cls-9{mix-blend-mode:color-dodge;}.cls-14,.cls-9{opacity:0.5;}.cls-10,.cls-11,.cls-12,.cls-13,.cls-14,.cls-15,.cls-16,.cls-17{fill:#7c1dc9;}.cls-10{opacity:0.6;}.cls-11{opacity:0.8;}.cls-12{opacity:0.3;}.cls-13{opacity:0.15;}.cls-16{opacity:0.4;}.cls-17{opacity:0.25;}.cls-18{fill:url(#radial-gradient-2);}.cls-19{fill:url(#radial-gradient-3);}.cls-20{fill:url(#radial-gradient-4);}.cls-21{mask:url(#mask);}.cls-22{mask:url(#mask-2);}.cls-23{opacity:0.95;}.cls-24{fill:url(#linear-gradient-6);}.cls-25{fill:url(#Radial_Gradient_1);}.cls-26{fill:url(#linear-gradient-7);}.cls-27{fill:url(#linear-gradient-8);}.cls-28{mask:url(#mask-3);}.cls-29{fill:url(#linear-gradient-9);}.cls-30{fill:url(#Radial_Gradient_1-2);}.cls-31{fill:url(#linear-gradient-10);}.cls-32{fill:url(#linear-gradient-11);}.cls-33{mask:url(#mask-4);}.cls-34{fill:url(#linear-gradient-12);}.cls-35{fill:url(#Radial_Gradient_1-3);}.cls-36{fill:url(#linear-gradient-13);}.cls-37{fill:url(#linear-gradient-14);}.cls-38{mask:url(#mask-5);}.cls-39{fill:url(#linear-gradient-15);}.cls-40{fill:url(#Radial_Gradient_1-4);}.cls-41{fill:url(#linear-gradient-16);}.cls-42{fill:url(#linear-gradient-17);}.cls-43{mask:url(#mask-6);}.cls-44{fill:url(#linear-gradient-18);}.cls-45{fill:url(#Radial_Gradient_1-5);}.cls-46{fill:url(#linear-gradient-19);}.cls-47{fill:url(#linear-gradient-20);}.cls-179,.cls-48,.cls-49,.cls-53,.cls-71,.cls-72,.cls-80,.cls-84{mix-blend-mode:multiply;}.cls-48{fill:url(#linear-gradient-21);}.cls-49{fill:url(#linear-gradient-22);}.cls-50{fill:url(#radial-gradient-5);}.cls-51{fill:url(#radial-gradient-6);}.cls-52{fill:url(#linear-gradient-23);}.cls-53{fill:url(#linear-gradient-24);}.cls-54{fill:url(#radial-gradient-7);}.cls-55{fill:url(#radial-gradient-8);}.cls-56{fill:url(#radial-gradient-9);}.cls-57{fill:url(#radial-gradient-10);}.cls-58{fill:url(#linear-gradient-25);}.cls-59{fill:url(#linear-gradient-26);}.cls-60{fill:url(#linear-gradient-27);}.cls-61{fill:url(#New_Gradient_Swatch_copy_9);}.cls-62{fill:url(#New_Gradient_Swatch_copy_9-2);}.cls-63{fill:url(#linear-gradient-28);}.cls-64{fill:url(#New_Gradient_Swatch_copy_9-3);}.cls-65{fill:url(#New_Gradient_Swatch_copy_9-4);}.cls-66{fill:url(#linear-gradient-29);}.cls-67{fill:url(#radial-gradient-11);}.cls-68{fill:url(#radial-gradient-12);}.cls-69{fill:url(#radial-gradient-13);}.cls-70{fill:url(#radial-gradient-14);}.cls-71{fill:#d1d3d4;}.cls-72{opacity:0.1;}.cls-73{fill:#10054d;}.cls-74{fill:url(#linear-gradient-30);}.cls-75{fill:url(#linear-gradient-31);}.cls-76{fill:url(#linear-gradient-32);}.cls-77{fill:url(#radial-gradient-15);}.cls-78{fill:url(#New_Gradient_Swatch_copy_7);}.cls-79{fill:url(#radial-gradient-16);}.cls-80{fill:url(#linear-gradient-33);}.cls-81{fill:url(#radial-gradient-17);}.cls-82{fill:url(#radial-gradient-18);}.cls-83{fill:url(#linear-gradient-34);}.cls-84{fill:url(#linear-gradient-35);}.cls-85{fill:url(#New_Gradient_Swatch_copy_7-2);}.cls-86{fill:url(#radial-gradient-19);}.cls-87{fill:url(#radial-gradient-20);}.cls-88{fill:url(#radial-gradient-21);}.cls-89{fill:url(#linear-gradient-36);}.cls-90{fill:url(#linear-gradient-37);}.cls-91{fill:url(#linear-gradient-38);}.cls-92{fill:url(#radial-gradient-22);}.cls-93{fill:url(#radial-gradient-23);}.cls-94{fill:url(#linear-gradient-39);}.cls-95{fill:url(#radial-gradient-24);}.cls-96{fill:url(#radial-gradient-25);}.cls-97{fill:url(#linear-gradient-40);}.cls-98{fill:url(#radial-gradient-26);}.cls-99{fill:url(#linear-gradient-41);}.cls-100{fill:url(#radial-gradient-27);}.cls-101{fill:#c211a1;}.cls-102{fill:url(#radial-gradient-28);}.cls-103{opacity:0;}.cls-104{opacity:0.01;}.cls-105{opacity:0.02;}.cls-106{opacity:0.03;}.cls-107{opacity:0.04;}.cls-108{opacity:0.05;}.cls-109{opacity:0.06;}.cls-110{opacity:0.07;}.cls-111{opacity:0.08;}.cls-112{opacity:0.09;}.cls-113{opacity:0.1;}.cls-114{opacity:0.1;}.cls-115{opacity:0.11;}.cls-116{opacity:0.12;}.cls-117{opacity:0.13;}.cls-118{opacity:0.14;}.cls-119{opacity:0.15;}.cls-120{opacity:0.16;}.cls-121{opacity:0.17;}.cls-122{opacity:0.18;}.cls-123{opacity:0.19;}.cls-124{opacity:0.2;}.cls-125{fill:url(#linear-gradient-42);}.cls-126{fill:url(#linear-gradient-43);}.cls-127{fill:url(#linear-gradient-44);}.cls-128{fill:url(#linear-gradient-45);}.cls-129{fill:url(#linear-gradient-46);}.cls-130{fill:url(#linear-gradient-47);}.cls-131{fill:url(#linear-gradient-48);}.cls-132{fill:url(#linear-gradient-49);}.cls-133{fill:url(#linear-gradient-50);}.cls-134{fill:url(#linear-gradient-51);}.cls-135{fill:url(#linear-gradient-52);}.cls-136{fill:url(#linear-gradient-53);}.cls-137{fill:url(#linear-gradient-54);}.cls-138{fill:url(#linear-gradient-55);}.cls-139{fill:url(#linear-gradient-56);}.cls-140{fill:url(#linear-gradient-57);}.cls-141{fill:url(#linear-gradient-58);}.cls-142{fill:url(#linear-gradient-59);}.cls-143{fill:url(#linear-gradient-60);}.cls-144{fill:url(#linear-gradient-61);}.cls-145{fill:url(#linear-gradient-62);}.cls-146{fill:url(#linear-gradient-63);}.cls-147{fill:url(#linear-gradient-64);}.cls-148{fill:url(#linear-gradient-65);}.cls-149{fill:url(#linear-gradient-66);}.cls-150{fill:url(#linear-gradient-67);}.cls-151{fill:url(#linear-gradient-68);}.cls-152{fill:url(#linear-gradient-69);}.cls-153{fill:url(#linear-gradient-70);}.cls-154{fill:url(#linear-gradient-71);}.cls-155{fill:url(#linear-gradient-72);}.cls-156{fill:url(#linear-gradient-73);}.cls-157{fill:url(#linear-gradient-74);}.cls-158{fill:url(#linear-gradient-75);}.cls-159{fill:url(#linear-gradient-76);}.cls-160{fill:url(#linear-gradient-77);}.cls-161{fill:url(#linear-gradient-78);}.cls-162{fill:url(#linear-gradient-79);}.cls-163{fill:url(#linear-gradient-80);}.cls-164{fill:url(#linear-gradient-81);}.cls-165{fill:url(#linear-gradient-82);}.cls-166{fill:url(#linear-gradient-83);}.cls-167{fill:url(#linear-gradient-84);}.cls-168{fill:url(#linear-gradient-85);}.cls-169{fill:url(#linear-gradient-86);}.cls-170{fill:url(#linear-gradient-87);}.cls-171{fill:url(#linear-gradient-88);}.cls-172{fill:url(#linear-gradient-89);}.cls-173{fill:url(#linear-gradient-90);}.cls-174{fill:url(#linear-gradient-91);}.cls-175{fill:url(#linear-gradient-92);}.cls-176{fill:url(#linear-gradient-93);}.cls-177{fill:url(#linear-gradient-94);}.cls-178{fill:url(#linear-gradient-95);}.cls-179{fill:url(#radial-gradient-29);}.cls-180{fill:url(#radial-gradient-30);}.cls-181{fill:url(#radial-gradient-31);}.cls-182{fill:url(#radial-gradient-32);}.cls-183{fill:url(#radial-gradient-33);}.cls-184{fill:url(#radial-gradient-34);}.cls-185{fill:url(#radial-gradient-35);}.cls-186{fill:url(#New_Gradient_Swatch_copy_7-3);}.cls-187{fill:url(#radial-gradient-36);}.cls-188{fill:url(#linear-gradient-96);}.cls-189{fill:url(#New_Gradient_Swatch_copy_7-4);}.cls-190{fill:url(#linear-gradient-97);}.cls-191{fill:url(#New_Gradient_Swatch_copy_7-5);}.cls-192{fill:url(#linear-gradient-98);}.cls-193{fill:url(#New_Gradient_Swatch_copy_7-6);}.cls-194{fill:url(#radial-gradient-37);}.cls-195{fill:url(#linear-gradient-99);}.cls-196{fill:url(#linear-gradient-100);}.cls-197{fill:url(#New_Gradient_Swatch_copy_7-7);}.cls-198{fill:url(#New_Gradient_Swatch_copy_7-8);}.cls-199{fill:url(#radial-gradient-38);}.cls-200{fill:url(#New_Gradient_Swatch_copy_7-9);}</style><linearGradient id="White_Black_2" x1="-254.9" y1="1721.25" x2="-202.96" y2="1820.1" gradientUnits="userSpaceOnUse"><stop offset="0" stop-color="#fff"/><stop offset="1"/></linearGradient><linearGradient id="linear-gradient" x1="7462.54" y1="1190.49" x2="7462.54" y2="858.54" gradientTransform="translate(-7606.58 656.69)" gradientUnits="userSpaceOnUse"><stop offset="0.56" stop-color="#fff"/><stop offset="0.61" stop-color="#f5f4f5"/><stop offset="0.69" stop-color="#d8d8d9"/><stop offset="0.8" stop-color="#abaaab"/><stop offset="0.92" stop-color="#6c6c6d"/><stop offset="1" stop-color="#414042"/></linearGradient><linearGradient id="linear-gradient-2" x1="7511.91" y1="1161.77" x2="7511.91" y2="829.83" gradientTransform="translate(-7705.31 714.12)" xlink:href="#linear-gradient"/><linearGradient id="linear-gradient-3" x1="7560.88" y1="1133.06" x2="7560.88" y2="801.11" gradientTransform="translate(-7803.26 771.54)" xlink:href="#linear-gradient"/><linearGradient id="linear-gradient-4" x1="7610.24" y1="1104.34" x2="7610.24" y2="772.4" gradientTransform="translate(-7901.99 828.97)" xlink:href="#linear-gradient"/><linearGradient id="linear-gradient-5" x1="7660.4" y1="1075.24" x2="7660.4" y2="743.29" gradientTransform="translate(-8002.29 887.19)" xlink:href="#linear-gradient"/><radialGradient id="radial-gradient" cx="177.68" cy="329.85" r="177.68" gradientUnits="userSpaceOnUse"><stop offset="0" stop-color="#00a99b"/><stop offset="0.09" stop-color="#00a99b" stop-opacity="0.82"/><stop offset="0.24" stop-color="#00a99b" stop-opacity="0.57"/><stop offset="0.38" stop-color="#00a99b" stop-opacity="0.36"/><stop offset="0.53" stop-color="#00a99b" stop-opacity="0.2"/><stop offset="0.68" stop-color="#00a99b" stop-opacity="0.09"/><stop offset="0.84" stop-color="#00a99b" stop-opacity="0.02"/><stop offset="1" stop-color="#00a99b" stop-opacity="0"/></radialGradient><radialGradient id="radial-gradient-2" cx="7317.54" cy="7916.56" r="17.72" gradientTransform="matrix(0.96, 0.29, 0.29, -0.96, -9387.39, 7117.58)" gradientUnits="userSpaceOnUse"><stop offset="0.09" stop-color="#fff"/><stop offset="0.1" stop-color="#e2dee7"/><stop offset="0.12" stop-color="#b0a5bf"/><stop offset="0.14" stop-color="#86749c"/><stop offset="0.16" stop-color="#634c80"/><stop offset="0.17" stop-color="#482d69"/><stop offset="0.19" stop-color="#35175a"/><stop offset="0.21" stop-color="#290a50"/><stop offset="0.23" stop-color="#25054d"/><stop offset="0.27" stop-color="#1d043c"/><stop offset="0.34" stop-color="#120226"/><stop offset="0.42" stop-color="#0a0115"/><stop offset="0.51" stop-color="#040109"/><stop offset="0.65" stop-color="#010002"/><stop offset="1"/></radialGradient><radialGradient id="radial-gradient-3" cx="7306.1" cy="7907.84" r="13.42" gradientTransform="matrix(0.61, -0.8, -0.8, -0.61, 1771.2, 12284.48)" xlink:href="#radial-gradient-2"/><radialGradient id="radial-gradient-4" cx="7296.91" cy="7900.83" r="10.06" gradientTransform="matrix(0.61, -0.8, -0.8, -0.61, 1771.2, 12284.48)" xlink:href="#radial-gradient-2"/><mask id="mask" x="94.76" y="31.25" width="348.46" height="360.19" maskUnits="userSpaceOnUse"><g transform="translate(509.12 -1508.55)"><polygon class="cls-1" points="-413.52 1728.27 -114.48 1539.8 -65.89 1683.04 -72.59 1765.96 -350.69 1899.99 -414.36 1866.48 -413.52 1728.27"/></g></mask><mask id="mask-2" x="289.12" y="-12.93" width="151.9" height="364.94" maskUnits="userSpaceOnUse"><g transform="translate(509.12 -1508.55)"><rect class="cls-2" x="-219.99" y="1495.62" width="151.9" height="364.94" transform="translate(-288.08 3356.19) rotate(180)"/></g></mask><linearGradient id="linear-gradient-6" x1="394.42" y1="67.38" x2="358.94" y2="128.83" gradientUnits="userSpaceOnUse"><stop offset="0" stop-color="#00675c"/><stop offset="1" stop-color="#2ebabd"/></linearGradient><radialGradient id="Radial_Gradient_1" cx="371" cy="120.21" r="31.25" xlink:href="#White_Black_2"/><linearGradient id="linear-gradient-7" x1="377.14" y1="184.61" x2="616.68" y2="166.24" gradientUnits="userSpaceOnUse"><stop offset="0" stop-color="#00ab99"/><stop offset="1" stop-color="#1fc6ff"/></linearGradient><linearGradient id="linear-gradient-8" x1="285.5" y1="172.68" x2="409.04" y2="193.38" xlink:href="#linear-gradient-6"/><mask id="mask-3" x="239.76" y="15.79" width="151.9" height="364.94" maskUnits="userSpaceOnUse"><g transform="translate(509.12 -1508.55)"><rect class="cls-3" x="-269.36" y="1524.34" width="151.9" height="364.94" transform="translate(-386.81 3413.62) rotate(180)"/></g></mask><linearGradient id="linear-gradient-9" x1="345.05" y1="116.15" x2="309.58" y2="177.6" xlink:href="#linear-gradient-6"/><radialGradient id="Radial_Gradient_1-2" cx="321.63" cy="168.99" r="31.25" xlink:href="#White_Black_2"/><linearGradient id="linear-gradient-10" x1="328.2" y1="223.32" x2="560.93" y2="205.47" xlink:href="#linear-gradient-7"/><linearGradient id="linear-gradient-11" x1="239.32" y1="211.96" x2="356.74" y2="231.63" xlink:href="#linear-gradient-6"/><mask id="mask-4" x="190.79" y="44.5" width="151.9" height="364.94" maskUnits="userSpaceOnUse"><g transform="translate(509.12 -1508.55)"><rect class="cls-4" x="-318.33" y="1553.05" width="151.9" height="364.94" transform="translate(-484.76 3471.04) rotate(180)"/></g></mask><linearGradient id="linear-gradient-12" x1="296.08" y1="165.45" x2="260.6" y2="226.9" xlink:href="#linear-gradient-6"/><radialGradient id="Radial_Gradient_1-3" cx="272.66" cy="218.29" r="31.25" xlink:href="#White_Black_2"/><linearGradient id="linear-gradient-13" x1="279.67" y1="262.29" x2="505.4" y2="244.98" xlink:href="#linear-gradient-7"/><linearGradient id="linear-gradient-14" x1="193.62" y1="251.51" x2="304.75" y2="270.13" xlink:href="#linear-gradient-6"/><mask id="mask-5" x="141.42" y="73.22" width="151.9" height="364.94" maskUnits="userSpaceOnUse"><g transform="translate(509.12 -1508.55)"><rect class="cls-5" x="-367.69" y="1581.76" width="151.9" height="364.94" transform="translate(-583.49 3528.47) rotate(180)"/></g></mask><linearGradient id="linear-gradient-15" x1="246.72" y1="214.23" x2="211.24" y2="275.68" xlink:href="#linear-gradient-6"/><radialGradient id="Radial_Gradient_1-4" cx="223.29" cy="267.06" r="31.25" xlink:href="#White_Black_2"/><linearGradient id="linear-gradient-16" x1="230.74" y1="301" x2="449.65" y2="284.22" xlink:href="#linear-gradient-7"/><linearGradient id="linear-gradient-17" x1="147.45" y1="290.79" x2="252.45" y2="308.38" xlink:href="#linear-gradient-6"/><mask id="mask-6" x="91.27" y="102.32" width="151.9" height="364.94" maskUnits="userSpaceOnUse"><g transform="translate(509.12 -1508.55)"><rect class="cls-6" x="-417.84" y="1610.87" width="151.9" height="364.94" transform="translate(-683.79 3586.69) rotate(180)"/></g></mask><linearGradient id="linear-gradient-18" x1="196.57" y1="262.98" x2="161.09" y2="324.43" xlink:href="#linear-gradient-6"/><radialGradient id="Radial_Gradient_1-5" cx="173.14" cy="315.82" r="31.25" xlink:href="#White_Black_2"/><linearGradient id="linear-gradient-19" x1="181" y1="339.9" x2="393.24" y2="323.63" xlink:href="#linear-gradient-7"/><linearGradient id="linear-gradient-20" x1="100.42" y1="330.25" x2="199.42" y2="346.83" xlink:href="#linear-gradient-6"/><linearGradient id="linear-gradient-21" x1="-343.84" y1="1808.32" x2="-313.81" y2="1800.98" gradientUnits="userSpaceOnUse"><stop offset="0.21" stop-color="#d4d1d8"/><stop offset="1" stop-color="#fff"/></linearGradient><linearGradient id="linear-gradient-22" x1="-304.87" y1="1771.12" x2="-304.5" y2="1791.3" xlink:href="#linear-gradient-21"/><radialGradient id="radial-gradient-5" cx="-311.51" cy="1694.44" r="59.82" gradientUnits="userSpaceOnUse"><stop offset="0.03" stop-color="#fedfcb"/><stop offset="0.78" stop-color="#f9b69e"/><stop offset="0.99" stop-color="#f2a78c"/></radialGradient><radialGradient id="radial-gradient-6" cx="-337.61" cy="1738.66" r="5.3" xlink:href="#radial-gradient-5"/><linearGradient id="linear-gradient-23" x1="-307.63" y1="1741.93" x2="-310.63" y2="1697.44" gradientUnits="userSpaceOnUse"><stop offset="0.01" stop-color="#c6ccd1"/><stop offset="1" stop-color="#fff"/></linearGradient><linearGradient id="linear-gradient-24" x1="-325.35" y1="1729.38" x2="-331.55" y2="1721.82" gradientUnits="userSpaceOnUse"><stop offset="0.01" stop-color="#e6e7e8"/><stop offset="0.64" stop-color="#fff"/></linearGradient><radialGradient id="radial-gradient-7" cx="-294.72" cy="1750.15" r="28.29" xlink:href="#radial-gradient-5"/><radialGradient id="radial-gradient-8" cx="-287.16" cy="1765.3" r="25.57" xlink:href="#radial-gradient-5"/><radialGradient id="radial-gradient-9" cx="-308.46" cy="1791.75" r="42.69" xlink:href="#radial-gradient-5"/><radialGradient id="radial-gradient-10" cx="-248.82" cy="1775.99" r="89.23" xlink:href="#radial-gradient-5"/><linearGradient id="linear-gradient-25" x1="-311.19" y1="1777.84" x2="-298.72" y2="1777.84" gradientUnits="userSpaceOnUse"><stop offset="0.09" stop-color="#25054d"/><stop offset="0.47" stop-color="#330a68"/><stop offset="0.89" stop-color="#45108a"/></linearGradient><linearGradient id="linear-gradient-26" x1="-342.28" y1="1806.46" x2="-333.13" y2="1806.46" xlink:href="#linear-gradient-25"/><linearGradient id="linear-gradient-27" x1="-337.52" y1="1808.99" x2="-328.21" y2="1804.75" xlink:href="#linear-gradient-25"/><linearGradient id="New_Gradient_Swatch_copy_9" x1="-331.99" y1="1744.96" x2="-302.28" y2="1744.96" gradientUnits="userSpaceOnUse"><stop offset="0.04" stop-color="#9f19ab"/><stop offset="0.24" stop-color="#ae25b1"/><stop offset="0.65" stop-color="#d744bf"/><stop offset="1" stop-color="#ff63ce"/></linearGradient><linearGradient id="New_Gradient_Swatch_copy_9-2" x1="-312" y1="1737.96" x2="-300.03" y2="1726.84" xlink:href="#New_Gradient_Swatch_copy_9"/><linearGradient id="linear-gradient-28" x1="-305.72" y1="1776.74" x2="-310.24" y2="1770.14" xlink:href="#linear-gradient-25"/><linearGradient id="New_Gradient_Swatch_copy_9-3" x1="-312.09" y1="1754.45" x2="-306.53" y2="1741" xlink:href="#New_Gradient_Swatch_copy_9"/><linearGradient id="New_Gradient_Swatch_copy_9-4" x1="-323.46" y1="1746.98" x2="-303.55" y2="1748.45" xlink:href="#New_Gradient_Swatch_copy_9"/><linearGradient id="linear-gradient-29" x1="-323.37" y1="1716.45" x2="-301.98" y2="1716.45" gradientUnits="userSpaceOnUse"><stop offset="0.04" stop-color="#602213"/><stop offset="0.57" stop-color="#6d310e"/><stop offset="1" stop-color="#7a4108"/></linearGradient><radialGradient id="radial-gradient-11" cx="-272.21" cy="1693.19" r="4.69" xlink:href="#radial-gradient-5"/><radialGradient id="radial-gradient-12" cx="-274.68" cy="1692.9" r="4.1" xlink:href="#radial-gradient-5"/><radialGradient id="radial-gradient-13" cx="-268.17" cy="1693.56" r="7.96" xlink:href="#radial-gradient-5"/><radialGradient id="radial-gradient-14" cx="-273.31" cy="1692.82" r="4.5" xlink:href="#radial-gradient-5"/><linearGradient id="linear-gradient-30" x1="-219.36" y1="1721.75" x2="-225.49" y2="1717" xlink:href="#linear-gradient-25"/><linearGradient id="linear-gradient-31" x1="7947.58" y1="1717.72" x2="7961.26" y2="1717.72" gradientTransform="matrix(-1, 0, 0, 1, 7702.21, 0)" xlink:href="#linear-gradient-25"/><linearGradient id="linear-gradient-32" x1="-262.97" y1="1687.88" x2="-222.53" y2="1687.88" gradientUnits="userSpaceOnUse"><stop offset="0.04" stop-color="#9d9eb3"/><stop offset="0.58" stop-color="#d4d1d8"/><stop offset="1" stop-color="#eeebf2"/></linearGradient><radialGradient id="radial-gradient-15" cx="-290.01" cy="1683.07" r="15.84" xlink:href="#radial-gradient-5"/><linearGradient id="New_Gradient_Swatch_copy_7" x1="-250.95" y1="1675.52" x2="-283.73" y2="1633.98" gradientUnits="userSpaceOnUse"><stop offset="0.04" stop-color="#138bbd"/><stop offset="0.23" stop-color="#169ac7"/><stop offset="0.59" stop-color="#1fc3df"/><stop offset="1" stop-color="#2af6ff"/></linearGradient><radialGradient id="radial-gradient-16" cx="-245.59" cy="1643.21" r="14.05" xlink:href="#radial-gradient-5"/><linearGradient id="linear-gradient-33" x1="-262.95" y1="1646.15" x2="-256.37" y2="1648.91" gradientUnits="userSpaceOnUse"><stop offset="0.04" stop-color="#9d9eb3"/><stop offset="0.58" stop-color="#d4d1d8"/><stop offset="1" stop-color="#fff"/></linearGradient><radialGradient id="radial-gradient-17" cx="-236.84" cy="1677.87" r="12.67" xlink:href="#radial-gradient-5"/><radialGradient id="radial-gradient-18" cx="-265.26" cy="1642.33" r="10.77" xlink:href="#radial-gradient-5"/><linearGradient id="linear-gradient-34" x1="-249.77" y1="1639" x2="-269.43" y2="1636.69" xlink:href="#linear-gradient-29"/><linearGradient id="linear-gradient-35" x1="-230.65" y1="1656.73" x2="-238.96" y2="1662.48" xlink:href="#linear-gradient-33"/><linearGradient id="New_Gradient_Swatch_copy_7-2" x1="-217.94" y1="1650.04" x2="-257.43" y2="1672.88" xlink:href="#New_Gradient_Swatch_copy_7"/><radialGradient id="radial-gradient-19" cx="-275.52" cy="1688.08" r="3.88" xlink:href="#radial-gradient-5"/><radialGradient id="radial-gradient-20" cx="-283.12" cy="1685.43" r="2.4" xlink:href="#radial-gradient-5"/><radialGradient id="radial-gradient-21" cx="-283.12" cy="1685.43" r="2.4" xlink:href="#radial-gradient-5"/><linearGradient id="linear-gradient-36" x1="-143.9" y1="1597.78" x2="-148.92" y2="1605.06" xlink:href="#linear-gradient-25"/><linearGradient id="linear-gradient-37" x1="-118.84" y1="1602.02" x2="-127.29" y2="1602.86" xlink:href="#linear-gradient-25"/><linearGradient id="linear-gradient-38" x1="-140.52" y1="1600.6" x2="-170.94" y2="1561" gradientUnits="userSpaceOnUse"><stop offset="0.04" stop-color="#6b24d6"/><stop offset="0.29" stop-color="#7733dc"/><stop offset="0.79" stop-color="#975ced"/><stop offset="1" stop-color="#a56ef4"/></linearGradient><radialGradient id="radial-gradient-22" cx="-118.7" cy="1513.9" r="19.17" xlink:href="#radial-gradient-5"/><radialGradient id="radial-gradient-23" cx="-182.65" cy="1514.08" r="31.4" xlink:href="#radial-gradient-5"/><linearGradient id="linear-gradient-39" x1="-168.67" y1="1573.89" x2="-144.5" y2="1519.32" xlink:href="#linear-gradient-32"/><radialGradient id="radial-gradient-24" cx="-159.57" cy="1500.84" r="9.18" xlink:href="#radial-gradient-5"/><radialGradient id="radial-gradient-25" cx="-121.98" cy="1511.22" r="4.69" xlink:href="#radial-gradient-5"/><linearGradient id="linear-gradient-40" x1="-154.45" y1="1556.19" x2="-152.71" y2="1545.02" xlink:href="#linear-gradient-32"/><radialGradient id="radial-gradient-26" cx="-153.89" cy="1518.85" r="17.86" xlink:href="#radial-gradient-5"/><linearGradient id="linear-gradient-41" x1="-150.42" y1="1527.79" x2="-140.98" y2="1527.79" xlink:href="#linear-gradient-29"/><radialGradient id="radial-gradient-27" cx="-155.45" cy="1501.37" r="30.37" xlink:href="#radial-gradient-5"/><radialGradient id="radial-gradient-28" cx="1882.96" cy="-725.46" r="18.84" gradientTransform="matrix(0.47, 0.88, 0.88, -0.47, -97.39, -1719.97)" xlink:href="#radial-gradient-2"/><linearGradient id="linear-gradient-42" x1="-3148.91" y1="1671.42" x2="-3041.75" y2="1611.13" gradientTransform="matrix(1.06, 0, 0.04, 0.95, 3616.07, -1353.44)" gradientUnits="userSpaceOnUse"><stop offset="0.02" stop-color="#55507a"/><stop offset="0.47" stop-color="#9d9eb3"/><stop offset="1" stop-color="#d4d1d8"/></linearGradient><linearGradient id="linear-gradient-43" x1="-3141.51" y1="1666.03" x2="-3109.53" y2="1655.07" xlink:href="#linear-gradient-42"/><linearGradient id="linear-gradient-44" x1="9453.78" y1="1336.9" x2="9450.53" y2="1343.1" gradientTransform="matrix(-1.14, 0.02, 0.34, 0.87, 10631.44, -1230.62)" xlink:href="#linear-gradient-42"/><linearGradient id="linear-gradient-45" x1="9473.78" y1="1405.04" x2="9481.61" y2="1402.7" gradientTransform="matrix(-1.14, 0.02, 0.34, 0.87, 10631.44, -1230.62)" xlink:href="#linear-gradient-42"/><linearGradient id="linear-gradient-46" x1="9426.25" y1="1411.5" x2="9511.49" y2="1382.3" gradientTransform="matrix(-1.14, 0.02, 0.34, 0.87, 10631.44, -1230.62)" xlink:href="#linear-gradient-42"/><linearGradient id="linear-gradient-47" x1="9467.09" y1="1389.46" x2="9462.95" y2="1397.36" gradientTransform="matrix(-1.14, 0.02, 0.34, 0.87, 10631.44, -1230.62)" xlink:href="#linear-gradient-42"/><linearGradient id="linear-gradient-48" x1="9473.78" y1="1418.57" x2="9481.61" y2="1416.23" gradientTransform="matrix(-1.14, 0.02, 0.34, 0.87, 10631.44, -1230.62)" xlink:href="#linear-gradient-42"/><linearGradient id="linear-gradient-49" x1="9426.25" y1="1425.03" x2="9511.49" y2="1395.83" gradientTransform="matrix(-1.14, 0.02, 0.34, 0.87, 10631.44, -1230.62)" xlink:href="#linear-gradient-42"/><linearGradient id="linear-gradient-50" x1="9467.09" y1="1402.99" x2="9462.95" y2="1410.89" gradientTransform="matrix(-1.14, 0.02, 0.34, 0.87, 10631.44, -1230.62)" xlink:href="#linear-gradient-42"/><linearGradient id="linear-gradient-51" x1="9473.78" y1="1432.15" x2="9481.61" y2="1429.81" gradientTransform="matrix(-1.14, 0.02, 0.34, 0.87, 10631.44, -1230.62)" xlink:href="#linear-gradient-42"/><linearGradient id="linear-gradient-52" x1="9426.25" y1="1438.62" x2="9511.49" y2="1409.41" gradientTransform="matrix(-1.14, 0.02, 0.34, 0.87, 10631.44, -1230.62)" xlink:href="#linear-gradient-42"/><linearGradient id="linear-gradient-53" x1="9467.09" y1="1416.58" x2="9462.95" y2="1424.47" gradientTransform="matrix(-1.14, 0.02, 0.34, 0.87, 10631.44, -1230.62)" xlink:href="#linear-gradient-42"/><linearGradient id="linear-gradient-54" x1="9473.78" y1="1445.68" x2="9481.61" y2="1443.34" gradientTransform="matrix(-1.14, 0.02, 0.34, 0.87, 10631.44, -1230.62)" xlink:href="#linear-gradient-42"/><linearGradient id="linear-gradient-55" x1="9426.25" y1="1452.15" x2="9511.49" y2="1422.94" gradientTransform="matrix(-1.14, 0.02, 0.34, 0.87, 10631.44, -1230.62)" xlink:href="#linear-gradient-42"/><linearGradient id="linear-gradient-56" x1="9467.09" y1="1430.11" x2="9462.95" y2="1438" gradientTransform="matrix(-1.14, 0.02, 0.34, 0.87, 10631.44, -1230.62)" xlink:href="#linear-gradient-42"/><linearGradient id="linear-gradient-57" x1="9474.03" y1="1364.41" x2="9481.86" y2="1362.06" gradientTransform="matrix(-1.14, 0.02, 0.34, 0.87, 10631.44, -1230.62)" xlink:href="#linear-gradient-42"/><linearGradient id="linear-gradient-58" x1="9426.5" y1="1370.87" x2="9511.74" y2="1341.67" gradientTransform="matrix(-1.14, 0.02, 0.34, 0.87, 10631.44, -1230.62)" xlink:href="#linear-gradient-42"/><linearGradient id="linear-gradient-59" x1="9467.34" y1="1348.83" x2="9463.2" y2="1356.72" gradientTransform="matrix(-1.14, 0.02, 0.34, 0.87, 10631.44, -1230.62)" xlink:href="#linear-gradient-42"/><linearGradient id="linear-gradient-60" x1="9474.03" y1="1377.94" x2="9481.86" y2="1375.59" gradientTransform="matrix(-1.14, 0.02, 0.34, 0.87, 10631.44, -1230.62)" xlink:href="#linear-gradient-42"/><linearGradient id="linear-gradient-61" x1="9426.5" y1="1384.4" x2="9511.74" y2="1355.2" gradientTransform="matrix(-1.14, 0.02, 0.34, 0.87, 10631.44, -1230.62)" xlink:href="#linear-gradient-42"/><linearGradient id="linear-gradient-62" x1="9467.34" y1="1362.36" x2="9463.2" y2="1370.25" gradientTransform="matrix(-1.14, 0.02, 0.34, 0.87, 10631.44, -1230.62)" xlink:href="#linear-gradient-42"/><linearGradient id="linear-gradient-63" x1="9474.03" y1="1391.52" x2="9481.86" y2="1389.17" gradientTransform="matrix(-1.14, 0.02, 0.34, 0.87, 10631.44, -1230.62)" xlink:href="#linear-gradient-42"/><linearGradient id="linear-gradient-64" x1="9426.5" y1="1397.98" x2="9511.74" y2="1368.78" gradientTransform="matrix(-1.14, 0.02, 0.34, 0.87, 10631.44, -1230.62)" xlink:href="#linear-gradient-42"/><linearGradient id="linear-gradient-65" x1="9467.34" y1="1375.94" x2="9463.2" y2="1383.84" gradientTransform="matrix(-1.14, 0.02, 0.34, 0.87, 10631.44, -1230.62)" xlink:href="#linear-gradient-42"/><linearGradient id="linear-gradient-66" x1="9473.78" y1="1459.16" x2="9481.61" y2="1456.82" gradientTransform="matrix(-1.14, 0.02, 0.34, 0.87, 10631.44, -1230.62)" xlink:href="#linear-gradient-42"/><linearGradient id="linear-gradient-67" x1="9426.25" y1="1465.62" x2="9511.49" y2="1436.42" gradientTransform="matrix(-1.14, 0.02, 0.34, 0.87, 10631.44, -1230.62)" xlink:href="#linear-gradient-42"/><linearGradient id="linear-gradient-68" x1="9467.09" y1="1443.58" x2="9462.95" y2="1451.48" gradientTransform="matrix(-1.14, 0.02, 0.34, 0.87, 10631.44, -1230.62)" xlink:href="#linear-gradient-42"/><linearGradient id="linear-gradient-69" x1="9473.78" y1="1472.69" x2="9481.61" y2="1470.34" gradientTransform="matrix(-1.14, 0.02, 0.34, 0.87, 10631.44, -1230.62)" xlink:href="#linear-gradient-42"/><linearGradient id="linear-gradient-70" x1="-3170.27" y1="1733.95" x2="-3059.97" y2="1696.16" xlink:href="#linear-gradient-42"/><linearGradient id="linear-gradient-71" x1="9467.09" y1="1457.11" x2="9462.95" y2="1465.01" gradientTransform="matrix(-1.14, 0.02, 0.34, 0.87, 10631.44, -1230.62)" xlink:href="#linear-gradient-42"/><linearGradient id="linear-gradient-72" x1="9436.7" y1="1443.18" x2="9684.34" y2="1303.84" gradientTransform="matrix(-1.14, 0.02, 0.34, 0.87, 10631.44, -1230.62)" xlink:href="#linear-gradient-42"/><linearGradient id="linear-gradient-73" x1="-3164.5" y1="1679.93" x2="-3132.52" y2="1668.97" xlink:href="#linear-gradient-42"/><linearGradient id="linear-gradient-74" x1="9478.97" y1="1351.36" x2="9475.72" y2="1357.56" gradientTransform="matrix(-1.14, 0.02, 0.34, 0.87, 10631.44, -1230.62)" xlink:href="#linear-gradient-42"/><linearGradient id="linear-gradient-75" x1="5570.95" y1="1822.8" x2="5640.3" y2="1783.77" gradientTransform="matrix(-1.06, 0, -0.04, 0.95, 6094.93, -1353.44)" xlink:href="#linear-gradient-42"/><linearGradient id="linear-gradient-76" x1="5574.02" y1="1820.25" x2="5601.5" y2="1810.84" gradientTransform="matrix(-1.06, 0, -0.04, 0.95, 6094.93, -1353.44)" xlink:href="#linear-gradient-42"/><linearGradient id="linear-gradient-77" x1="1449.24" y1="1719.45" x2="1445.99" y2="1725.65" gradientTransform="matrix(1.14, 0.02, -0.34, 0.87, -920.43, -1230.62)" xlink:href="#linear-gradient-42"/><linearGradient id="linear-gradient-78" x1="1469.82" y1="1750.39" x2="1477.66" y2="1748.04" gradientTransform="matrix(1.14, 0.02, -0.34, 0.87, -920.43, -1230.62)" xlink:href="#linear-gradient-42"/><linearGradient id="linear-gradient-79" x1="1422.3" y1="1756.85" x2="1507.54" y2="1727.64" gradientTransform="matrix(1.14, 0.02, -0.34, 0.87, -920.43, -1230.62)" xlink:href="#linear-gradient-42"/><linearGradient id="linear-gradient-80" x1="1463.14" y1="1734.81" x2="1459" y2="1742.7" gradientTransform="matrix(1.14, 0.02, -0.34, 0.87, -920.43, -1230.62)" xlink:href="#linear-gradient-42"/><linearGradient id="linear-gradient-81" x1="1469.82" y1="1763.97" x2="1477.66" y2="1761.62" gradientTransform="matrix(1.14, 0.02, -0.34, 0.87, -920.43, -1230.62)" xlink:href="#linear-gradient-42"/><linearGradient id="linear-gradient-82" x1="1422.3" y1="1770.43" x2="1507.54" y2="1741.23" gradientTransform="matrix(1.14, 0.02, -0.34, 0.87, -920.43, -1230.62)" xlink:href="#linear-gradient-42"/><linearGradient id="linear-gradient-83" x1="1463.14" y1="1748.39" x2="1459" y2="1756.28" gradientTransform="matrix(1.14, 0.02, -0.34, 0.87, -920.43, -1230.62)" xlink:href="#linear-gradient-42"/><linearGradient id="linear-gradient-84" x1="1469.82" y1="1777.5" x2="1477.66" y2="1775.15" gradientTransform="matrix(1.14, 0.02, -0.34, 0.87, -920.43, -1230.62)" xlink:href="#linear-gradient-42"/><linearGradient id="linear-gradient-85" x1="1422.3" y1="1783.96" x2="1507.54" y2="1754.76" gradientTransform="matrix(1.14, 0.02, -0.34, 0.87, -920.43, -1230.62)" xlink:href="#linear-gradient-42"/><linearGradient id="linear-gradient-86" x1="1463.14" y1="1761.92" x2="1459" y2="1769.81" gradientTransform="matrix(1.14, 0.02, -0.34, 0.87, -920.43, -1230.62)" xlink:href="#linear-gradient-42"/><linearGradient id="linear-gradient-87" x1="1469.82" y1="1790.98" x2="1477.66" y2="1788.63" gradientTransform="matrix(1.14, 0.02, -0.34, 0.87, -920.43, -1230.62)" xlink:href="#linear-gradient-42"/><linearGradient id="linear-gradient-88" x1="1422.3" y1="1797.44" x2="1507.54" y2="1768.23" gradientTransform="matrix(1.14, 0.02, -0.34, 0.87, -920.43, -1230.62)" xlink:href="#linear-gradient-42"/><linearGradient id="linear-gradient-89" x1="1463.14" y1="1775.4" x2="1459" y2="1783.29" gradientTransform="matrix(1.14, 0.02, -0.34, 0.87, -920.43, -1230.62)" xlink:href="#linear-gradient-42"/><linearGradient id="linear-gradient-90" x1="1469.82" y1="1804.51" x2="1477.66" y2="1802.16" gradientTransform="matrix(1.14, 0.02, -0.34, 0.87, -920.43, -1230.62)" xlink:href="#linear-gradient-42"/><linearGradient id="linear-gradient-91" x1="5535.86" y1="1865.39" x2="5646.16" y2="1827.6" gradientTransform="matrix(-1.06, 0, -0.04, 0.95, 6094.93, -1353.44)" xlink:href="#linear-gradient-42"/><linearGradient id="linear-gradient-92" x1="1463.14" y1="1788.93" x2="1459" y2="1796.82" gradientTransform="matrix(1.14, 0.02, -0.34, 0.87, -920.43, -1230.62)" xlink:href="#linear-gradient-42"/><linearGradient id="linear-gradient-93" x1="1448.43" y1="1791.37" x2="1598.74" y2="1706.8" gradientTransform="matrix(1.14, 0.02, -0.34, 0.87, -920.43, -1230.62)" xlink:href="#linear-gradient-42"/><linearGradient id="linear-gradient-94" x1="5551.02" y1="1834.16" x2="5578.5" y2="1824.74" gradientTransform="matrix(-1.06, 0, -0.04, 0.95, 6094.93, -1353.44)" xlink:href="#linear-gradient-42"/><linearGradient id="linear-gradient-95" x1="1474.43" y1="1733.91" x2="1471.18" y2="1740.11" gradientTransform="matrix(1.14, 0.02, -0.34, 0.87, -920.43, -1230.62)" xlink:href="#linear-gradient-42"/><radialGradient id="radial-gradient-29" cx="-149.75" cy="1706.46" r="4.58" gradientUnits="userSpaceOnUse"><stop offset="0" stop-color="#bcbec0"/><stop offset="0.57" stop-color="#e5e6e6"/><stop offset="1" stop-color="#fff"/></radialGradient><radialGradient id="radial-gradient-30" cx="-149" cy="1732.2" r="10.31" gradientUnits="userSpaceOnUse"><stop offset="0.03" stop-color="#fedfcb"/><stop offset="1" stop-color="#f9b69e"/></radialGradient><radialGradient id="radial-gradient-31" cx="-153.49" cy="1732.91" r="0.45" xlink:href="#radial-gradient-30"/><radialGradient id="radial-gradient-32" cx="-152.13" cy="1733.06" r="0.37" xlink:href="#radial-gradient-30"/><radialGradient id="radial-gradient-33" cx="-147.2" cy="1730.21" r="1.98" xlink:href="#radial-gradient-30"/><radialGradient id="radial-gradient-34" cx="-154.68" cy="1734.51" r="0" xlink:href="#radial-gradient-30"/><radialGradient id="radial-gradient-35" cx="-151.7" cy="1732.1" r="0.42" xlink:href="#radial-gradient-30"/><linearGradient id="New_Gradient_Swatch_copy_7-3" x1="-429.48" y1="2287.48" x2="-422.97" y2="2287.86" gradientTransform="translate(516.78 -522.23) rotate(5.83)" xlink:href="#New_Gradient_Swatch_copy_7"/><radialGradient id="radial-gradient-36" cx="3779.94" cy="10851.67" r="23.97" gradientTransform="translate(11326.14 894) rotate(105.16)" xlink:href="#radial-gradient-5"/><linearGradient id="linear-gradient-96" x1="-429.34" y1="2289.05" x2="-431.36" y2="2287.24" gradientTransform="translate(516.78 -522.23) rotate(5.83)" xlink:href="#linear-gradient-32"/><linearGradient id="New_Gradient_Swatch_copy_7-4" x1="-427.19" y1="2302.54" x2="-419.13" y2="2290.05" gradientTransform="translate(516.78 -522.23) rotate(5.83)" xlink:href="#New_Gradient_Swatch_copy_7"/><linearGradient id="linear-gradient-97" x1="-3463.86" y1="220.7" x2="-3461.16" y2="212.75" gradientTransform="matrix(0.97, -0.25, 0.25, 0.97, 3171.43, 718.69)" xlink:href="#linear-gradient-25"/><linearGradient id="New_Gradient_Swatch_copy_7-5" x1="11242.23" y1="2637.76" x2="11260.91" y2="2637.76" gradientTransform="matrix(-1, -0.1, -0.1, 1, 11319.3, 209.33)" xlink:href="#New_Gradient_Swatch_copy_7"/><linearGradient id="linear-gradient-98" x1="-11086.77" y1="51.43" x2="-11086.77" y2="44.39" gradientTransform="translate(10731.92 -502.19) rotate(-11.67)" xlink:href="#linear-gradient-25"/><linearGradient id="New_Gradient_Swatch_copy_7-6" x1="-11092.41" y1="31.16" x2="-11079.95" y2="31.16" gradientTransform="translate(10731.92 -502.19) rotate(-11.67)" xlink:href="#New_Gradient_Swatch_copy_7"/><radialGradient id="radial-gradient-37" cx="-11182.87" cy="95.68" r="9.43" gradientTransform="translate(10828.29 -473.59) rotate(-10.77)" xlink:href="#radial-gradient-30"/><linearGradient id="linear-gradient-99" x1="-11175.14" y1="100.93" x2="-11181.5" y2="89.68" gradientTransform="translate(10828.29 -473.59) rotate(-10.77)" xlink:href="#linear-gradient-29"/><linearGradient id="linear-gradient-100" x1="-11178.19" y1="106.39" x2="-11180.16" y2="102.88" gradientTransform="translate(10828.29 -473.59) rotate(-10.77)" xlink:href="#linear-gradient-32"/><linearGradient id="New_Gradient_Swatch_copy_7-7" x1="-11189.72" y1="124.35" x2="-11166.07" y2="124.35" gradientTransform="translate(10828.29 -473.59) rotate(-10.77)" xlink:href="#New_Gradient_Swatch_copy_7"/><linearGradient id="New_Gradient_Swatch_copy_7-8" x1="-11183.63" y1="115.85" x2="-11177.81" y2="100.88" gradientTransform="translate(10828.29 -473.59) rotate(-10.77)" xlink:href="#New_Gradient_Swatch_copy_7"/><radialGradient id="radial-gradient-38" cx="-11179.23" cy="106.93" r="5.8" gradientTransform="translate(10828.29 -473.59) rotate(-10.77)" xlink:href="#White_Black_2"/><linearGradient id="New_Gradient_Swatch_copy_7-9" x1="20563.64" y1="1744.02" x2="20575.12" y2="1726.05" gradientTransform="matrix(-1, 0, 0, 1, 20427.04, 0)" xlink:href="#New_Gradient_Swatch_copy_7"/></defs><g class="cls-7"><g id="Layer_4" data-name="Layer 4"><circle class="cls-8" cx="177.68" cy="329.85" r="177.68"/><g class="cls-9"><polygon class="cls-10" points="265.37 342.89 273.56 347.62 277.53 345.33 269.33 340.6 265.37 342.89"/><polygon class="cls-11" points="271.48 339.36 279.68 344.09 284.08 341.55 275.88 336.82 271.48 339.36"/><polygon class="cls-12" points="253.13 349.95 261.33 354.69 264.42 352.9 256.23 348.17 253.13 349.95"/><polygon class="cls-13" points="248.98 352.38 257.17 357.11 258.77 356.32 250.57 351.59 248.98 352.38"/><polygon class="cls-14" points="259.25 346.42 267.45 351.15 270.98 349.12 262.78 344.38 259.25 346.42"/><polygon class="cls-15" points="270.85 331.45 293.1 344.3 297.3 329.03 270.85 331.45"/></g><g class="cls-9"><polygon class="cls-10" points="347.27 335.81 355.47 340.54 359.43 338.25 351.24 333.52 347.27 335.81"/><polygon class="cls-11" points="353.39 332.28 361.59 337.01 365.98 334.47 357.79 329.74 353.39 332.28"/><polygon class="cls-12" points="335.04 342.87 343.24 347.6 346.33 345.82 338.13 341.09 335.04 342.87"/><polygon class="cls-13" points="330.88 345.3 339.08 350.03 340.68 349.24 332.48 344.51 330.88 345.3"/><polygon class="cls-14" points="341.16 339.34 349.35 344.07 352.88 342.04 344.69 337.3 341.16 339.34"/><polygon class="cls-15" points="352.75 324.37 375.01 337.22 379.2 321.95 352.75 324.37"/></g><polygon class="cls-11" points="289.66 48.47 289.66 63.47 297.76 51.29 289.66 48.47 289.66 48.47"/><polygon class="cls-10" points="278.63 54.77 278.63 69.78 286.73 57.6 278.63 54.77 278.63 54.77"/><polygon class="cls-16" points="267.59 61.09 267.59 76.09 275.69 63.91 267.59 61.09 267.59 61.09"/><polygon class="cls-17" points="256.56 67.4 256.56 82.41 264.66 70.22 256.56 67.4 256.56 67.4"/><polygon class="cls-13" points="245.53 73.71 245.53 88.72 253.63 76.53 245.53 73.71 245.53 73.71"/><polygon class="cls-11" points="206.73 131.39 206.73 146.4 214.83 134.22 206.73 131.39 206.73 131.39"/><polygon class="cls-10" points="195.7 137.7 195.7 152.71 203.8 140.53 195.7 137.7 195.7 137.7"/><polygon class="cls-16" points="184.66 144.01 184.66 159.02 192.77 146.84 184.66 144.01 184.66 144.01"/><polygon class="cls-17" points="173.63 150.32 173.63 165.33 181.73 153.15 173.63 150.32 173.63 150.32"/><polygon class="cls-13" points="162.6 156.63 162.6 171.64 170.7 159.46 162.6 156.63 162.6 156.63"/><circle class="cls-18" cx="-87.42" cy="1665.76" r="17.72" transform="translate(-1108.52 -506.74) rotate(-69.55)"/><path class="cls-19" d="M-79.28,1669.48A13.43,13.43,0,0,0-98.09,1672a13.41,13.41,0,0,0,2.54,18.8,13.42,13.42,0,0,0,18.8-2.53A13.43,13.43,0,0,0-79.28,1669.48Z" transform="translate(509.12 -1508.55)"/><path class="cls-20" d="M-81.32,1683.7a10.06,10.06,0,0,0-14.1,1.9,10.07,10.07,0,0,0,1.9,14.11,10.06,10.06,0,0,0,14.1-1.9A10.07,10.07,0,0,0-81.32,1683.7Z" transform="translate(509.12 -1508.55)"/><g class="cls-21"><g class="cls-22"><g class="cls-23"><polygon class="cls-24" points="371 83.42 413.45 107.96 370.99 132.48 328.54 107.94 371 83.42"/><polygon class="cls-25" points="371.2 130.79 413.45 107.96 370.99 132.48 328.54 107.94 371.2 130.79"/><polygon class="cls-26" points="413.48 234.43 371.01 258.96 371.01 132.47 413.48 107.94 413.48 234.43"/><polygon class="cls-27" points="371.02 258.96 328.54 234.43 328.54 107.94 371.02 132.47 371.02 258.96"/></g></g><g class="cls-28"><g class="cls-23"><polygon class="cls-29" points="321.63 132.19 364.08 156.73 321.63 181.25 279.18 156.72 321.63 132.19"/><polygon class="cls-30" points="321.84 179.57 364.08 156.73 321.63 181.25 279.18 156.72 321.84 179.57"/><polygon class="cls-31" points="364.12 263.15 321.64 287.67 321.64 181.24 364.12 156.72 364.12 263.15"/><polygon class="cls-32" points="321.65 287.67 279.18 263.15 279.18 156.72 321.65 181.24 321.65 287.67"/></g></g><g class="cls-33"><g class="cls-23"><polygon class="cls-34" points="272.66 181.49 315.11 206.03 272.66 230.56 230.21 206.02 272.66 181.49"/><polygon class="cls-35" points="272.87 228.87 315.11 206.03 272.66 230.56 230.21 206.02 272.87 228.87"/><polygon class="cls-36" points="315.15 291.86 272.67 316.39 272.67 230.54 315.15 206.02 315.15 291.86"/><polygon class="cls-37" points="272.68 316.39 230.2 291.86 230.2 206.02 272.68 230.54 272.68 316.39"/></g></g><g class="cls-38"><g class="cls-23"><polygon class="cls-39" points="223.3 230.27 265.75 254.81 223.29 279.33 180.84 254.79 223.3 230.27"/><polygon class="cls-40" points="223.5 277.64 265.75 254.81 223.29 279.33 180.84 254.79 223.5 277.64"/><polygon class="cls-41" points="265.78 320.58 223.31 345.1 223.31 279.31 265.78 254.79 265.78 320.58"/><polygon class="cls-42" points="223.31 345.1 180.84 320.58 180.84 254.79 223.31 279.31 223.31 345.1"/></g></g><g class="cls-43"><g class="cls-23"><polygon class="cls-44" points="173.15 279.02 215.59 303.56 173.14 328.08 130.69 303.55 173.15 279.02"/><polygon class="cls-45" points="173.35 326.4 215.59 303.56 173.14 328.08 130.69 303.55 173.35 326.4"/><polygon class="cls-46" points="215.63 349.68 173.16 374.21 173.16 328.07 215.63 303.55 215.63 349.68"/><polygon class="cls-47" points="173.16 374.21 130.69 349.68 130.69 303.55 173.16 328.07 173.16 374.21"/></g></g></g><path class="cls-48" d="M-342.65,1812.94c4.8,3.34,12.46-1.84,16.52-4.07s14.42-6.95,14.42-6.95l-9.17-6.42S-350,1807.82-342.65,1812.94Z" transform="translate(509.12 -1508.55)"/><path class="cls-49" d="M-302,1774.65c8.65.53-1.58,4.33-2.1,10.1s-.4,10.49-4.33,10.49-2.23-13.84.07-18.69C-306.72,1773.08-303.66,1774.55-302,1774.65Z" transform="translate(509.12 -1508.55)"/><path class="cls-50" d="M-315.8,1717.48a4.54,4.54,0,0,0-5.29.31c-2.71,2.09-6.4,9-8.25,10.83s-2.58,3.38-3.69,6.77-2.77,10-3.63,11a26.51,26.51,0,0,0-2.7,3.24,8.4,8.4,0,0,0-.78,3.73c.28.78.64-.33.78-.92a7.71,7.71,0,0,1,.6-1.87,9.62,9.62,0,0,1-.5,1.79,4.16,4.16,0,0,0,0,3.16c.34.37.46-1.27.85-2.67s.63-1.63.75-1.63a20.44,20.44,0,0,1-.76,2.59,7.26,7.26,0,0,0-.2,1.89c0,.63.55,1.36.77.22a18.91,18.91,0,0,1,.43-2c.16-.55.75-2.17.93-2.07s-.24,1.18-.46,2a11,11,0,0,0-.43,2.2c-.07.79.55,1.53.77.28a16.51,16.51,0,0,1,.65-2.45c.18-.68.79-1.62,1.19-1.68s.16.32.13,1.12.62,1.75.93,1.72.18-.8.12-1.51.58-1.88.49-3-.34-1.78-.31-2.15a47.89,47.89,0,0,1,2.68-7.17,67.36,67.36,0,0,0,3-7.79c.06-.4,6.4-6.34,6.4-6.34l15.18,3.85s2.79-4.88,5.37-6.08c2.28-1.06,8.35-1.93,9.68-2.3s4.53-.94,5.45-2.51,6.09-14.11,6.43-14.91,3-3.75,3.32-4.34a5.84,5.84,0,0,0,.18-3.92,3.07,3.07,0,0,0-2.21-2.39c-1-.13-1.6,2.21-2,3.16s-1.57,1.8-1.57.94-.06-2.25-.4-2.52-.74.34-.74,1.14a23.07,23.07,0,0,0-.06,4.1,5.64,5.64,0,0,1,.25,2.89c-.28.7-2.83,4.91-4,7.31s-2.93,5.48-3.14,5.76-4.25,1-6.22,1.17a92.3,92.3,0,0,0-9.79,1.11c-1.59.39-2.61.89-2.24-.59a3.62,3.62,0,0,1,2.33-2.8c1-.15,1.51-.86,2-2.34s1.24-6.28.56-8.28-5-5.11-9-2.49-3.91,6.25-2.95,8.5,1.63,5,1.13,5.84S-314.5,1718-315.8,1717.48Z" transform="translate(509.12 -1508.55)"/><path class="cls-51" d="M-313.16,1726.31l-6.14-3.75s-7.5,7.87-8.48,8.79-2,5-2.34,5.53-2,5.41-2.52,7.07a22.31,22.31,0,0,0-.73,4.37,47.89,47.89,0,0,1,2.68-7.17,67.36,67.36,0,0,0,3-7.79c.06-.4,6.4-6.34,6.4-6.34l7.65,1.94Z" transform="translate(509.12 -1508.55)"/><path class="cls-52" d="M-287.33,1712.57c-1.07,2.07-2.31,4.23-2.44,4.41a32,32,0,0,1-6,1.1H-296a91.45,91.45,0,0,0-9.67,1.1l-.64.17a5.81,5.81,0,0,1-1.12.23.38.38,0,0,1-.17,0s-.08-.12,0-.59a4.42,4.42,0,0,1,.15-.48l-6.51-2.21a1.83,1.83,0,0,1-.12.9c-.25.43-.36.43-.44.43a3.09,3.09,0,0,1-.86-.27l-.31-.11a5,5,0,0,0-2.63-.76,4.9,4.9,0,0,0-3,1.08c-1.63,1.26-3.56,4.17-5.27,6.73a31.94,31.94,0,0,1-3,4.13c-1.91,1.84-2.68,3.54-3.77,6.89-.33,1-.72,2.32-1.11,3.68l4.25,1.71a64.16,64.16,0,0,0,2.74-7.23c.23-.43,3.88-3.93,6.21-6.12l15.23,3.87.11-.2s2.78-4.81,5.24-6a41.32,41.32,0,0,1,7.33-1.81c1.06-.2,1.89-.36,2.31-.47l.68-.18c1.63-.41,4.1-1,4.95-2.47.37-.62,1.38-2.92,2.49-5.53Z" transform="translate(509.12 -1508.55)"/><path class="cls-53" d="M-313.16,1726.31l-6.14-3.75s-7.5,7.87-8.48,8.79-2.6,7.58-3.14,9.15l.75.19a64.16,64.16,0,0,0,2.74-7.23c.23-.43,3.88-3.93,6.21-6.12l7.5,1.91Z" transform="translate(509.12 -1508.55)"/><path class="cls-54" d="M-317.46,1754.23c2.77-.87,7.88-2.84,7.88-2.84a28,28,0,0,0-.68,8.93c.31,5.79.39,9,.07,11.57s-1.24,6.28.57,6.41,3.53-1.77,5.46-1.65,3.28-1.51,1.68-2-3.65-.37-3.36-3.53,1.8-11.49,2.66-15.92,1.81-7.59,1-9.56-3-1.6-4.52-1.68-11.53-.13-11.53-.13Z" transform="translate(509.12 -1508.55)"/><path class="cls-55" d="M-308.36,1776.55s-.28-12.91-.19-15.58,2.12-11.71,2.12-11.71l-11.18,2.94.15,2c2.77-.87,7.88-2.83,7.88-2.83a27.92,27.92,0,0,0-.68,8.92c.31,5.79.39,9,.07,11.57s-1.24,6.28.57,6.41a3.8,3.8,0,0,0,1.69-.37Z" transform="translate(509.12 -1508.55)"/><path class="cls-56" d="M-312.47,1747.82s-.37,11.82-2.16,18a84.23,84.23,0,0,1-5.6,14.1c-.8,1.41-2.15,3.63-3.69,6s-9.42,11.51-10.41,14a21.9,21.9,0,0,0-1.66,6.59c0,.26,1.77,2.12,1.51,2.1-1.13-.07-6.07-4.21-5.57-5.36.62-1.42,1.11-1.91,2.34-4.5s5.91-13.91,8.06-16.68,4.19-4.37,4.62-5.23,1.29-15.64,1.11-16.31-1.66-1.36-1.79-4.87,3.51-9,3.51-9Z" transform="translate(509.12 -1508.55)"/><path class="cls-57" d="M-322.2,1746.72s-3.63,5.48-3.51,9,1.6,4.19,1.79,4.87-.68,15.45-1.11,16.31-2.46,2.46-4.62,5.23-6.83,14.1-8.06,16.68-1.72,3.08-2.34,4.5c-.24.54.75,1.76,2,2.9a18.71,18.71,0,0,1,.7-4.91c1-2.7,5.35-10.26,7.44-13.83s5.16-9,5.9-9.77,2.21-4.42,3-11c.76-6.28-.94-12.4,1.17-19.7Z" transform="translate(509.12 -1508.55)"/><path class="cls-58" d="M-310.84,1775a3.44,3.44,0,0,0-.22,2.34c.4,1.05,1.48,2.52,1.76,3.2a8.68,8.68,0,0,1,.4,1.33l1.14,0,.89-.74s-.89-2.8.09-3.17,3.77.68,5.21.18,3.32-1.54,2.73-3-2.55-1.42-3.45-1.36a11.65,11.65,0,0,0-1.69.25s.37,1.08-1.48,1.54S-310.84,1775-310.84,1775Z" transform="translate(509.12 -1508.55)"/><path class="cls-59" d="M-339.73,1801.55a4.86,4.86,0,0,0-1.69,2.4c-.22,1.26-.31,3.47-.46,4.33s-.4,1.94-.4,1.94l1.21.43.94-.18.42-2.2a3.35,3.35,0,0,0,1.41,1.88c1.27.95,2.68,1.51,3.79,1s2-2.06.86-2.83-1.94-1.27-1.94-1.27-.15,1.36-.46.28-.86-4-1.63-4.8A4.62,4.62,0,0,0-339.73,1801.55Z" transform="translate(509.12 -1508.55)"/><path class="cls-60" d="M-338.3,1810.15c1.27,1,2.68,1.51,3.79,1a2.28,2.28,0,0,0,.77-.55,2.2,2.2,0,0,1-1.63.11,3.84,3.84,0,0,1-2-2.12c-.43-1.57-.52-2.77-1.14-2.77-.45,0-1,1.62-1.21,2.47A3.54,3.54,0,0,0-338.3,1810.15Z" transform="translate(509.12 -1508.55)"/><path class="cls-61" d="M-310.67,1742.9l6.36.74a18.83,18.83,0,0,0-1.75,4.24c-.92,2.95-4.75,8.56-4.69,10.41a13.3,13.3,0,0,1-4.43,9.5c-5.38,4.6-16.81,4.84-16.81,4.84s-.14-17.28,3-24.37c1.89-4.25,6.22-7.51,6.65-10a88.68,88.68,0,0,0,.31-9.85s2-7.75,3.26-9.29a5.7,5.7,0,0,1,3.08-1.85l1.47.68s-3.2,3.75-1.29,4.74,7.52-3,7.52-3l.68.06s-3.83,5-1.61,8.09,6.62-1.51,6.62-1.51-.28,5.08-1.82,6.86-3.76,2.53-4.62,4.5S-310.67,1742.9-310.67,1742.9Z" transform="translate(509.12 -1508.55)"/><path class="cls-62" d="M-306.42,1733.13a7.47,7.47,0,0,1-1.43,3.26c1.06-1.13,2.59-1.88,3.75-3.22,1.54-1.78,1.82-6.86,1.82-6.86a15.32,15.32,0,0,1-2.26,5C-305.14,1732.18-306.38,1732.83-306.42,1733.13Z" transform="translate(509.12 -1508.55)"/><path class="cls-63" d="M-300.1,1777.5c-1.66,1-5.87.09-7.25.21s-.46,4.06-.46,4.06l.06.12.88-.73s-.89-2.8.09-3.17,3.77.68,5.21.18a7.22,7.22,0,0,0,1.79-.86Z" transform="translate(509.12 -1508.55)"/><path class="cls-64" d="M-304.31,1743.64l-6.36-.74a22.49,22.49,0,0,0-1,7.15c.15,3,.85,5.69,1,7.53.61-2.29,3.75-7.06,4.58-9.7A18.83,18.83,0,0,1-304.31,1743.64Z" transform="translate(509.12 -1508.55)"/><path class="cls-65" d="M-326.92,1755.25c-.25-7.37,4.79-13.27,5.77-15.85s.5-8.85,2.59-14.26l-1.14-4.17a75.06,75.06,0,0,0-2.31,7.46,88.68,88.68,0,0,1-.31,9.85c-.43,2.47-4.76,5.73-6.65,10-3.16,7.09-3,24.37-3,24.37a45.65,45.65,0,0,0,6.23-.67C-326.09,1768.32-326.74,1760.69-326.92,1755.25Z" transform="translate(509.12 -1508.55)"/><path class="cls-66" d="M-306.29,1712.48c.14,1.29,1.15,3.87.14,6.36a19.93,19.93,0,0,0-1.48,6.92c.05,2.07,2.71,4.67,2.71,4.67a19.13,19.13,0,0,1-11,.18c-6.55-1.83-7.86-5.76-7.3-7.63.29-1,4.52-5.43,5.58-11.28.82-4.54,2.7-9,7.23-9.92,4.78-1,7,1.56,7.65,2.55a3.56,3.56,0,0,1,.23,4.14C-303.66,1710.09-306.84,1707.36-306.29,1712.48Z" transform="translate(509.12 -1508.55)"/><path class="cls-67" d="M-276.87,1694.9a13.31,13.31,0,0,1,.55,2,16.85,16.85,0,0,1,0,2.31A6.23,6.23,0,0,0-276,1697a6.46,6.46,0,0,0-.27-1.46A3.64,3.64,0,0,0-276.87,1694.9Z" transform="translate(509.12 -1508.55)"/><path class="cls-68" d="M-278.38,1694.56A8.17,8.17,0,0,1-278,1696a16.69,16.69,0,0,1,0,2.3,6.23,6.23,0,0,0,.34-2.18,6.37,6.37,0,0,0-.35-1.68A.73.73,0,0,0-278.38,1694.56Z" transform="translate(509.12 -1508.55)"/><path class="cls-69" d="M-279.91,1697.58c-.31.74-1.07,1.4-1.41,1.27v0a1.63,1.63,0,0,0,2-.79,12.33,12.33,0,0,0,.46-3A16.71,16.71,0,0,0-279.91,1697.58Z" transform="translate(509.12 -1508.55)"/><path class="cls-70" d="M-277.19,1696.3a16.69,16.69,0,0,1,0,2.3,6.34,6.34,0,0,0,.33-2.18,5.88,5.88,0,0,0-.38-1.78,1.75,1.75,0,0,0-.43-.17A11.89,11.89,0,0,1-277.19,1696.3Z" transform="translate(509.12 -1508.55)"/><path class="cls-71" d="M-318.73,1715.26c-1.65,4-4.3,6.94-4.52,7.72-.56,1.87.75,5.8,7.3,7.63a19.13,19.13,0,0,0,11-.18C-317.45,1728.24-319.39,1723.3-318.73,1715.26Z" transform="translate(509.12 -1508.55)"/><path class="cls-71" d="M-306.93,1701.71c1.92,1.74,2.27,4.34,1.64,7.52.89-.29,2.13.13,2.73-.76a3.56,3.56,0,0,0-.23-4.14A6.14,6.14,0,0,0-306.93,1701.71Z" transform="translate(509.12 -1508.55)"/><path class="cls-72" d="M-216.58,1720.7c-5.86,6.72-17.7,6.29-30.29,5.7-7.13-.33-16.32-3.78-12.59-7.47,7-7,16.62-3.28,23.64-2S-209.9,1713-216.58,1720.7Z" transform="translate(509.12 -1508.55)"/><path class="cls-73" d="M-224.11,1716.76c-.61.92-2.93,3.54-3.84,4.56-1.07,1.2-1.25,2.91,1.08,3.25a6.51,6.51,0,0,0,5.59-2c.93-1.18.82-2.59,1.88-2.67a4.79,4.79,0,0,0,1-.36,14.75,14.75,0,0,0,1.41-1.18s-.48-1.86-.65-2.23a14.28,14.28,0,0,0-1.15-1.87l-4.28,1.13S-223.77,1716.25-224.11,1716.76Z" transform="translate(509.12 -1508.55)"/><path class="cls-74" d="M-226.48,1719.71c-1.13,1.17-3.25,3.61-.3,3.71a6.56,6.56,0,0,0,5.41-2.59c.59-.82,1-1.48,1.67-1.8a23.21,23.21,0,0,0,2.43-1.58,12,12,0,0,0-.49-1.83,8.37,8.37,0,0,1-.46-1l-5.44,1.21A41.32,41.32,0,0,1-226.48,1719.71Z" transform="translate(509.12 -1508.55)"/><path class="cls-73" d="M-245.59,1713.93l.6,3.37a18.24,18.24,0,0,1-2.44,1.22c-.76.24-2-.24-2.64.56a11.86,11.86,0,0,1-5.33,3.27c-2.29.45-3.89-.28-3.93-.94s.56-1.74,2.65-3.1,3.86-4.66,3.86-4.66Z" transform="translate(509.12 -1508.55)"/><path class="cls-75" d="M-245.41,1716.09c-.32.38-4.15,1.28-4.78,2.08a15.62,15.62,0,0,1-6.1,3.43c-1.65.28-2.91-.54-2.75-1.17.22-.9,1.73-1.74,3.05-2.74a15.33,15.33,0,0,0,2.75-3.34l7.86-.56Z" transform="translate(509.12 -1508.55)"/><path class="cls-76" d="M-250.15,1662.3s-3.55,6.68-4.48,10.31-3.83,13.37-3.38,17.11c.39,3.18,1.9,5.94,2.62,9.74.57,3,1.7,12.72,1,14.62-.37,1.06.78,1.5,4.19,1.18,2.53-.25,5.05.48,5.05-.36s-.77-12.13-1.57-16.82a45.3,45.3,0,0,0-2.46-8.65l7.85-16.48a135.46,135.46,0,0,0-1.9,14.79c-.38,6.76-1.6,10.44-.21,13s11.4,9.3,13.79,11.73,3.19,5.37,3.51,5.64c.72.59,2.69-.08,4.36-.46a8.92,8.92,0,0,0,4.1-2.21c.17-.63-1.46-3.78-3.38-6.28a81.56,81.56,0,0,0-8.61-9c-1.81-1.46-5-3.73-5-3.73s4.71-12.28,5.26-16.5,2.41-10.27,1.77-15.59-4.43-6.84-4.43-6.84-6.81,5.32-9.93,6S-250.15,1662.3-250.15,1662.3Z" transform="translate(509.12 -1508.55)"/><path class="cls-71" d="M-249.13,1689.43l7.85-16.48-.41-6.4s-.8.65-2.3,3.93c-1.84,4.06-8.85,16.59-8.32,19.08s3.67,7,4.87,25.7c1.36.08,2.34.17,2.34-.36,0-.85-.77-12.13-1.57-16.82A45.3,45.3,0,0,0-249.13,1689.43Z" transform="translate(509.12 -1508.55)"/><path class="cls-71" d="M-220.47,1717.2a7.62,7.62,0,0,0,2.84-1.79c.17-.63-1.46-3.78-3.38-6.28a80.57,80.57,0,0,0-8.61-9c-1.81-1.47-5-3.74-5-3.74s4.71-12.28,5.26-16.5,2.41-10.27,1.77-15.59a9,9,0,0,0-2.37-5.32l-5.28,3.19a111.85,111.85,0,0,1,1,14.61c-.2,10.56-5.31,19-3.87,21.44S-225.3,1704.64-220.47,1717.2Z" transform="translate(509.12 -1508.55)"/><path class="cls-77" d="M-279.33,1677a26.33,26.33,0,0,1-2.41,4.78c-.6.63-3.23,3.3-3.36,4.47s1,4.88,1.62,5.45,1.36,1.36,1.9,1.27a9.63,9.63,0,0,0,1-.26,5.2,5.2,0,0,0,1.62-.25c.57-.26.57-.86.22-.92a5.66,5.66,0,0,1-1.43-.38,9.18,9.18,0,0,1-1.42-2.25l.25-.35s.48,2,1.17,2.12.29-2,.32-2.28.57-4.08,1-4.72,6-7.79,7.92-11.75S-279.33,1677-279.33,1677Z" transform="translate(509.12 -1508.55)"/><path class="cls-78" d="M-281.54,1680.81l3.76,2,1.35-1.64s4.78-5.48,6.6-9.62,7.26-16.32,7.26-16.32a33.27,33.27,0,0,0,6.59,4.94c3.17,1.6,4.57,2.24,4.78,2.87a2.08,2.08,0,0,1-.1,1.33s6.36,3.51,10.67,2.21a18.56,18.56,0,0,0,10.77-8.35s-5.46-6.43-8.08-9.76-3.68-4.57-8.32-5.79-16.73-3.76-20.45,1.1-3.76,9.33-4.86,13.39-1.52,7.22-2.75,8.83a99.46,99.46,0,0,0-6.16,11.32,12.06,12.06,0,0,0-.47,2.2Z" transform="translate(509.12 -1508.55)"/><path class="cls-79" d="M-256.87,1640.76c1.18,1.52,2,2.58,2.77,2.79,1.38.37,3.2,3.25.1,5.85-2.66,2.24-5.36,1.41-7.3-.83S-256.87,1640.76-256.87,1640.76Z" transform="translate(509.12 -1508.55)"/><path class="cls-80" d="M-257.31,1644.3c.78,7.21.58,7.85-1.29,8.28s-4.42-2.2-4.54-5.39S-257.62,1641.42-257.31,1644.3Z" transform="translate(509.12 -1508.55)"/><path class="cls-81" d="M-232.49,1675.31a13.58,13.58,0,0,1-.7,2.79c-.42.88-2,3.32-2,3.73s0,1.53-.06,2.17-.56,1.94-.18,2.26,1-1.15,1-1.15-.2,1.28-.24,1.61a17.82,17.82,0,0,0-.08,2c0,.28.51,1.69.93,1.58s.32-1.18.26-1.62a20.09,20.09,0,0,1,.66-3.89,19.42,19.42,0,0,1-.14,2.34,9.37,9.37,0,0,0,.33,2.38c.19.32.6,1.21,1.07,1.07s.14-1.15,0-1.44a6.43,6.43,0,0,1-.11-1.94,10.57,10.57,0,0,1,.5-2.45c.16,0-.22,1.72-.18,2.1a6.12,6.12,0,0,0,.39,1.87c.25.37,1.19.77,1.32.57s-.42-1.2-.44-1.31a10.82,10.82,0,0,1,0-1.36,9.1,9.1,0,0,1,.35-1.84c.13-.15.07.87.11,1.24a8.69,8.69,0,0,0,.15,1.45c.12.33.53,1,.82,1s0-1.18,0-1.72.24-2.24.34-3.47a26.21,26.21,0,0,0,0-4c-.12-1-.37-2-.33-2.43s.27-1.51.27-1.51Z" transform="translate(509.12 -1508.55)"/><path class="cls-82" d="M-267,1635.39c-1.69,1.39-3.38,3.38-1.44,8.32s3.84,7.61,5.7,7.19,4.9-3.26,5.37-4.19,2.32-6.59.21-10.18S-264.09,1633-267,1635.39Z" transform="translate(509.12 -1508.55)"/><path class="cls-83" d="M-269.54,1640.25c.36,1.17,3.59,1.52,5.79.59s3.76,1.78,3.76,1.78l1.05-.43s.64-2.57,1.65-2.4,1.18,1.47,1.06,2.28.67-.3.67-1.31-.83-8-7-8S-270.13,1638.35-269.54,1640.25Z" transform="translate(509.12 -1508.55)"/><path class="cls-84" d="M-234.58,1663.66c-.19,7.08,1.45,15.06,2.31,14.21,1.57-1.53,3.2-19.62,3.2-19.62s-6.25-6.47-8.87-9.8c-.26-.34-.5-.63-.73-.92-4.7-1.11-8.69-1-9.13,2.37-.31,2.31,1.57,4.32,6.63,7C-238,1658.62-235.73,1662.1-234.58,1663.66Z" transform="translate(509.12 -1508.55)"/><path class="cls-85" d="M-244.56,1645.08c-3.13.42-5.73,6.34.31,8.79a64.59,64.59,0,0,1,11.74,6.58,34.16,34.16,0,0,1,.09,4.74c-.13,2.88-1.06,7.31-.89,8.12s.38,1.56.38,1.56l-.17,1.27,4.52.67.3-1.26a29.82,29.82,0,0,0,1.14-3.34c.59-2.07,2-11.58,1.65-13.65s-5-5.66-8.58-8.15S-239.37,1644.38-244.56,1645.08Z" transform="translate(509.12 -1508.55)"/><path class="cls-71" d="M-267.27,1662.53c-1.43,4.43-1.48,3.64-2,4.57s-3.84,5.32-5.51,8.81c-1,2.1-2.59,4.76-3.68,6.54l.65.34,1.35-1.64s4.78-5.48,6.6-9.62,7.26-16.32,7.26-16.32l-1.21-1.82S-265.85,1658.11-267.27,1662.53Z" transform="translate(509.12 -1508.55)"/><path class="cls-71" d="M-260,1642.62l1.05-.43s.64-2.57,1.65-2.4,1.18,1.47,1.06,2.28.67-.3.67-1.31c0-.84-.58-5.77-4.29-7.45,1.28,1.54,1.67,3,1.08,6A31.8,31.8,0,0,1-260,1642.62Z" transform="translate(509.12 -1508.55)"/><path class="cls-86" d="M-281.3,1688.57l0-1.67s-.89.69-.79,1.41a12.18,12.18,0,0,0,1.77,2.82l-1.21-2.21Z" transform="translate(509.12 -1508.55)"/><path class="cls-87" d="M-279.62,1692.64a4.07,4.07,0,0,1-1.34-.36,18,18,0,0,1-1.74-2.16,25.68,25.68,0,0,0,1.41,2.29,4.79,4.79,0,0,0,.75.31Z" transform="translate(509.12 -1508.55)"/><path class="cls-88" d="M-281.81,1693s-1.12-.79-1.25-1.18-.56-1.31-.56-1.31l.3,1.38,1.11.95Z" transform="translate(509.12 -1508.55)"/><path class="cls-73" d="M-150.17,1595.65a3.2,3.2,0,0,1,2-1.88c1-.23,2.19-.27,2.74,1.19a15.9,15.9,0,0,1,.75,2.69l-.24.56a19.1,19.1,0,0,0,.82,3.39,10.45,10.45,0,0,1,1.59,6.15,2.57,2.57,0,0,1-4.63,1.21c-1.55-2.2-1.77-6.4-1.77-6.4Z" transform="translate(509.12 -1508.55)"/><path class="cls-89" d="M-148.8,1594.11c.93-.33,2.2.12,2.93,3.45s1.89,5.8,2.26,7.45,1.1,4.66-2.11,4.57c-2.13-.06-3-3.9-3.23-7.32S-151.18,1595-148.8,1594.11Z" transform="translate(509.12 -1508.55)"/><path class="cls-73" d="M-126.43,1597.38s.09-2.2,1.33-2.57,2.84,0,3.21.87a43.39,43.39,0,0,1,.91,4.76c.53,2.7,1.24,5.85,0,8.24-.76,1.42-4.35,2.29-5.13.09s.32-5.49.36-7.55S-126.38,1598.66-126.43,1597.38Z" transform="translate(509.12 -1508.55)"/><path class="cls-90" d="M-124.78,1595.45c1.88-.68,2.75.12,3.14,3.12s1.35,6.1.55,9.3c-.39,1.6-4,3.18-4.88.49-1-3,.79-5.45.4-8.57S-126,1595.88-124.78,1595.45Z" transform="translate(509.12 -1508.55)"/><path class="cls-91" d="M-162.41,1567.76l19.18-2.11s2.15,5.58,3.25,8.65,4.53,8.84,5.68,12.23,3.16,9.88,3.16,9.88,1.28,0,3.16.23,4-1.74,5.4,0,1.69,6.73.69,7.55-2.58.25-4.22.28c-2,0-3.89,1.78-6,1.83s-2.89-1.33-6-5.27-13-17.94-13-17.94l-2.7,12.45a23.82,23.82,0,0,0,4.49-1.39c.91-.59,2.06.57,2.61,3.36s-.32,5.31-1.65,5.54-3-.46-4.21.23-5,3.48-7.23,2.7-2.34-2.66-3.07-6.27a51.7,51.7,0,0,1-1.28-16.67C-163.46,1574.67-162.41,1567.76-162.41,1567.76Z" transform="translate(509.12 -1508.55)"/><path class="cls-71" d="M-121.31,1602a9.73,9.73,0,0,0-1.27-5.33c-1.37-1.79-3.53.14-5.4,0s-3.16-.23-3.16-.23-2-6.5-3.16-9.88-4.58-9.16-5.68-12.23-3.25-8.65-3.25-8.65l-4.33.47a41.22,41.22,0,0,0,1.54,8.55c1.1,3.2,13.37,25.54,13.92,26.64s-.1,3,3,2.29C-126.47,1603-123.21,1601.67-121.31,1602Z" transform="translate(509.12 -1508.55)"/><path class="cls-71" d="M-152.8,1577.69c-.36-1.83-.73-5.59-.73-5.59L-156,1572s.09,4.4.82,6.32a23.12,23.12,0,0,0,1.38,3s-2.29,4.49-2.2,7.69-1.28,11.27-1.1,11.91,3.57-.28,6.68.09c1.09.12,2.36.31,3.55.49a7.56,7.56,0,0,0,.21-4c-.55-2.79-1.7-4-2.61-3.36a23.82,23.82,0,0,1-4.49,1.39l2.7-12.45A50.33,50.33,0,0,1-152.8,1577.69Z" transform="translate(509.12 -1508.55)"/><path class="cls-92" d="M-125.28,1521.43c-.06-1.57-.51-3.53-.92-3.76s-1.6.23-2.06-.23-1.51-2-1.37-2.42,2.79-1.6,3.57-1.74,2.75,1.17,3.11,2.73a18.44,18.44,0,0,1,.78,4.87c0,1.3-.41,3.52-.46,5.44s.19,10.44-1.51,11.91-9.79,5.35-11.31,7.09-2.42,2.89-2.42,2.89l-1.38-9.75,6.83-1.83c1.69-.46,4-1.19,4-1.19a28.17,28.17,0,0,1,1.06-6.37C-126.34,1525.46-125.24,1522.71-125.28,1521.43Z" transform="translate(509.12 -1508.55)"/><path class="cls-93" d="M-167.77,1515.66c-.23.36-1.55,5.4-2.51,8.42s-2.06,5.82-2.06,5.82a20.72,20.72,0,0,1,5.26,2.51c1.69,1.38,5.49,2.16,7.51,3.16a19.76,19.76,0,0,1,3.11,1.88l-9.15,4.21s-6.55-5.45-8.61-6.45-4.95-3.57-4.62-5.18,7.64-15.15,8.14-15.7,2.7-4.67,4-5.49,3.62.32,4.26.82,2.61.6,1.92,1.74-2.88,2.43-4.39,3.16A18.4,18.4,0,0,1-167.77,1515.66Z" transform="translate(509.12 -1508.55)"/><path class="cls-94" d="M-153.85,1537.4c-1.81-.36-3.71-1.37-6.55-2.42a65.43,65.43,0,0,1-7.73-3.62,20.35,20.35,0,0,0-3.8-1.42s3.2-8.83,3.61-10.71l.42-1.88.09-1.14-3.57-1.88-.51,1.33a3,3,0,0,0-1.51,1.42c-.5,1.05-5.11,11.12-5.72,12.22-1,1.83,0,3.75,2.2,4.9s9,8.06,9.84,10.62,2.47,5.4,2.75,8.15,1.28,8.79.91,11.72-.55,4.16,0,4.81.78.64.78.64l-.27,1.37a52.21,52.21,0,0,0,12.17.46,13.69,13.69,0,0,0,8.38-4.08l-.46-1.42a3.8,3.8,0,0,0,.32-1.92c0-1.28-.18-6.87,1.42-9.84s6.11-8.58,8.12-9.68,9.46-4.76,10.38-7,.85-11.1.85-13.07a16.26,16.26,0,0,0-.3-2.9v-.68h-3.25l-.32.87a2.61,2.61,0,0,0-.6,1,33.13,33.13,0,0,0-1.75,6.21c-.18,1.66-.67,5.51-.67,5.51s-2.84.87-5,1.55a32.86,32.86,0,0,1-7.51,1.61A40.34,40.34,0,0,1-153.85,1537.4Z" transform="translate(509.12 -1508.55)"/><path class="cls-71" d="M-121.73,1525a16.26,16.26,0,0,0-.3-2.9v-.68h-1.14l-.27,1.32a53.12,53.12,0,0,0-.48,8.06c.12,3.85.42,6.17.12,6.84s-13.19,6-15,6.71c-4.79,1.77-9.18,10.62-9.15,16.57a61.45,61.45,0,0,0,1,10,13,13,0,0,0,4.56-3.08l-.46-1.42a3.8,3.8,0,0,0,.32-1.92c0-1.28-.18-6.87,1.42-9.84s6.11-8.58,8.12-9.68,9.46-4.76,10.38-7S-121.73,1527-121.73,1525Z" transform="translate(509.12 -1508.55)"/><path class="cls-95" d="M-166.07,1511.54c0-.64.32-1.65.5-1.6s2.11,1,2.06,1.19-.59.91-.87.77-1.05-.91-1.33-.68Z" transform="translate(509.12 -1508.55)"/><path class="cls-96" d="M-126.12,1515.12a7.74,7.74,0,0,0-1.89.43,10.32,10.32,0,0,0,2.38.43Z" transform="translate(509.12 -1508.55)"/><path class="cls-71" d="M-167.81,1539.33s-3.85-3.67-5.86-5.22c-1.57-1.22-4.31-1.65-5.7-2.44a4.71,4.71,0,0,0,2.45,2.53c2,1,7.86,6.89,9.49,9.85C-167.71,1541.83-167.81,1539.33-167.81,1539.33Z" transform="translate(509.12 -1508.55)"/><path class="cls-97" d="M-155.5,1537.08c-1.46.05-4.48,1.79-2.52,3.8s9.44,2.66,12.32-.32-4.21-2.56-4.21-2.56Z" transform="translate(509.12 -1508.55)"/><path class="cls-98" d="M-149.32,1522.2c-2.05.72-3.61,3.58-4.39,5.73a15.48,15.48,0,0,0-.73,4.71c-.1.73-.55,3.48-1.19,4.12s-2.29,1.88-2.25,2.7,1.79,2.38,4.85,2.48,6.92-1.33,7.33-2.38-1.56-1.74-1-3.26c.42-1.15,3.71-2.88,4.12-4.62a12,12,0,0,0-.23-6.82A5.58,5.58,0,0,0-149.32,1522.2Z" transform="translate(509.12 -1508.55)"/><path class="cls-99" d="M-150.42,1522.57c-.12.12,4.11-1.15,6.55,2.11a3.92,3.92,0,0,1,.64,3.52c-.31.81-1.05,2.38-1.05,2.38l.32.23s1.42-.5,1.33.41-2,2.61-2.2,2.89,2.1-.86,3.11-3.39c1.44-3.57.87-7.24-2.52-8.65C-147.85,1520.56-150,1522.16-150.42,1522.57Z" transform="translate(509.12 -1508.55)"/><path class="cls-100" d="M-152,1538.09c-2.08-.38-2.34-7.14-2.1-6.5.5,1.37,5,3.62,6.68,1.88C-147,1533-150.51,1538.37-152,1538.09Z" transform="translate(509.12 -1508.55)"/><path class="cls-72" d="M-123.73,1617.13c0,3.63-5.73,6.58-12.79,6.58s-12.8-3-12.8-6.58,5.73-6.57,12.8-6.57S-123.73,1613.5-123.73,1617.13Z" transform="translate(509.12 -1508.55)"/><path class="cls-101" d="M-386.1,1817.6a.66.66,0,0,1-.33-.09l-8-4.75,38.83-22.42a.64.64,0,0,1,.88.23.64.64,0,0,1-.23.88l-36.92,21.32,6.12,3.63a.65.65,0,0,1,.22.89A.64.64,0,0,1-386.1,1817.6Z" transform="translate(509.12 -1508.55)"/><circle class="cls-102" cx="153.41" cy="282.22" r="18.84"/><path class="cls-101" d="M-87.47,1655.93a.64.64,0,0,1-.64-.64V1613.1l-17-9.39a.63.63,0,0,1-.26-.87.65.65,0,0,1,.88-.26l17.71,9.76v43A.64.64,0,0,1-87.47,1655.93Z" transform="translate(509.12 -1508.55)"/><path class="cls-103" d="M-130.54,1809.21l20.47-12a3.7,3.7,0,0,0,0-6.39l-38-18.66-28.37,16,42.19,21A3.71,3.71,0,0,0-130.54,1809.21Z" transform="translate(509.12 -1508.55)"/><path class="cls-104" d="M-147,1773l-27.89,15.78,40.78,20.38a3.71,3.71,0,0,0,3.65,0l20.14-11.81a3.63,3.63,0,0,0,.23-6.2Z" transform="translate(509.12 -1508.55)"/><path class="cls-105" d="M-145.89,1773.78l-27.4,15.53,39.36,19.72a3.76,3.76,0,0,0,3.58-.1l19.79-11.59c2.22-1.28,2.64-4.71.43-6Z" transform="translate(509.12 -1508.55)"/><path class="cls-106" d="M-144.79,1774.6l-26.92,15.29,38,19.06a3.78,3.78,0,0,0,3.5-.16l19.45-11.37c2.1-1.22,2.73-4.59.64-5.82Z" transform="translate(509.12 -1508.55)"/><path class="cls-107" d="M-143.68,1775.43l-26.45,15,36.54,18.41a3.89,3.89,0,0,0,3.43-.22l19.1-11.16c2-1.14,2.82-4.46.84-5.63Z" transform="translate(509.12 -1508.55)"/><path class="cls-108" d="M-142.58,1776.25l-26,14.79,35.12,17.74a3.86,3.86,0,0,0,3.35-.28l18.77-10.93c1.87-1.08,2.9-4.35,1-5.44Z" transform="translate(509.12 -1508.55)"/><path class="cls-109" d="M-141.48,1777.07-167,1791.62l33.71,17.08a4,4,0,0,0,3.28-.34l18.42-10.71c1.75-1,3-4.23,1.24-5.25Z" transform="translate(509.12 -1508.55)"/><path class="cls-110" d="M-140.38,1777.9l-25,14.29,32.29,16.42c.77.45,2.44.05,3.21-.39l18.07-10.5c1.64-.94,3.08-4.1,1.45-5.06Z" transform="translate(509.12 -1508.55)"/><path class="cls-111" d="M-139.28,1778.72l-24.51,14,30.88,15.76c.71.42,2.42,0,3.13-.45L-112,1797.8c1.52-.88,3.17-4,1.66-4.87Z" transform="translate(509.12 -1508.55)"/><path class="cls-112" d="M-138.17,1779.54l-24,13.8,29.46,15.11c.66.38,2.4-.13,3.06-.51l17.39-10.06c1.4-.81,3.25-3.86,1.85-4.69Z" transform="translate(509.12 -1508.55)"/><path class="cls-113" d="M-137.07,1780.37l-23.55,13.55,28.05,14.44c.6.36,2.38-.22,3-.57l17-9.84c1.28-.74,3.34-3.74,2.06-4.49Z" transform="translate(509.12 -1508.55)"/><path class="cls-114" d="M-136,1781.19l-23.07,13.3,26.64,13.79c.55.32,2.36-.31,2.91-.63l16.7-9.62c1.17-.67,3.43-3.62,2.26-4.3Z" transform="translate(509.12 -1508.55)"/><path class="cls-115" d="M-134.87,1782l-22.58,13.06,25.22,13.13c.49.29,2.34-.4,2.83-.69l16.36-9.4c1.05-.61,3.52-3.5,2.47-4.12Z" transform="translate(509.12 -1508.55)"/><path class="cls-116" d="M-133.76,1782.83l-22.11,12.81,23.81,12.47c.44.26,2.32-.49,2.76-.74l16-9.19c.93-.54,3.6-3.37,2.67-3.92Z" transform="translate(509.12 -1508.55)"/><path class="cls-117" d="M-132.66,1783.66l-21.62,12.56,22.39,11.81c.38.23,2.3-.58,2.69-.8l15.67-9c.82-.47,3.69-3.26,2.87-3.73Z" transform="translate(509.12 -1508.55)"/><path class="cls-118" d="M-131.56,1784.48l-21.14,12.31,21,11.16c.33.19,2.28-.68,2.61-.87l15.33-8.74c.7-.41,3.77-3.14,3.08-3.55Z" transform="translate(509.12 -1508.55)"/><path class="cls-119" d="M-130.46,1785.3l-20.65,12.07,19.56,10.49c.27.16,2.26-.76,2.54-.92l15-8.53c.59-.33,3.86-3,3.28-3.35Z" transform="translate(509.12 -1508.55)"/><path class="cls-120" d="M-129.36,1786.13l-20.17,11.81,18.15,9.84a9.71,9.71,0,0,0,2.46-1l14.64-8.31c.47-.27,4-2.89,3.49-3.17Z" transform="translate(509.12 -1508.55)"/><path class="cls-121" d="M-128.25,1787l-19.69,11.57,16.73,9.18a14.08,14.08,0,0,0,2.39-1l14.3-8.09c.35-.2,4-2.77,3.68-3Z" transform="translate(509.12 -1508.55)"/><path class="cls-122" d="M-127.15,1787.77l-19.21,11.33,15.32,8.51a18.51,18.51,0,0,0,2.31-1.09l14-7.88c.23-.13,4.12-2.65,3.89-2.78Z" transform="translate(509.12 -1508.55)"/><path class="cls-123" d="M-126,1788.6l-18.73,11.07,13.91,7.86c.05,0,2.19-1.12,2.24-1.16l13.61-7.65c.12-.07,4.21-2.53,4.1-2.6Z" transform="translate(509.12 -1508.55)"/><polygon class="cls-124" points="378.42 298.9 398.15 287.84 384.17 280.87 365.92 291.7 378.42 298.9"/><path class="cls-103" d="M-176,1697.87l10.12-6.22,10.12-6.22a3.7,3.7,0,0,1,5.65,3l1.45,26.79,1.46,26.79-13.74,8.76-13.73,8.76-1.53-29.18-1.53-29.17A3.67,3.67,0,0,1-176,1697.87Z" transform="translate(509.12 -1508.55)"/><path class="cls-104" d="M-165.79,1692l9.91-6.07a3.62,3.62,0,0,1,5.56,2.74l.73,13.06.73,13,1.12,25.68-13.25,8.44-13.51,8.6-.78-14.21-.79-14.21-1.16-27.94a3.56,3.56,0,0,1,1.69-3.16Z" transform="translate(509.12 -1508.55)"/><path class="cls-105" d="M-165.65,1692.27l9.7-5.92c2.17-1.36,5.36-.06,5.47,2.5l.73,12.71.73,12.72.78,24.56L-161,1747l-13.29,8.45-.8-13.83-.8-13.84-.81-26.71a3.48,3.48,0,0,1,1.66-3Z" transform="translate(509.12 -1508.55)"/><path class="cls-106" d="M-165.5,1692.57l9.48-5.77c2.06-1.28,5.27-.16,5.38,2.27l.73,12.37.74,12.38.44,23.45-12.26,7.81-13.07,8.29-.82-13.45-.82-13.46-.44-25.48a3.41,3.41,0,0,1,1.61-2.89Z" transform="translate(509.12 -1508.55)"/><path class="cls-107" d="M-165.36,1692.88l9.27-5.62c2-1.22,5.19-.27,5.29,2l.74,12,.73,12,.11,22.34-11.77,7.49-12.85,8.14-.84-13.08-.83-13.08-.08-24.25a3.3,3.3,0,0,1,1.57-2.75Z" transform="translate(509.12 -1508.55)"/><path class="cls-108" d="M-165.22,1693.19l9.07-5.48c1.83-1.14,5.09-.36,5.19,1.79l.74,11.7.74,11.7-.23,21.23L-161,1741.3l-12.62,8-.85-12.71-.86-12.7.29-23a3.22,3.22,0,0,1,1.53-2.62Z" transform="translate(509.12 -1508.55)"/><path class="cls-109" d="M-165.08,1693.5l8.86-5.33c1.71-1.07,5-.47,5.1,1.55l.74,11.36.74,11.36-.57,20.12-10.79,6.85-12.4,7.83-.87-12.32-.87-12.33.65-21.79a3.1,3.1,0,0,1,1.48-2.48Z" transform="translate(509.12 -1508.55)"/><path class="cls-110" d="M-164.94,1693.8l8.65-5.18c1.6-1,4.92-.57,5,1.32l.74,11,.75,11-.91,19-10.3,6.54-12.18,7.68-.89-12-.89-12,1-20.56a3,3,0,0,1,1.44-2.35Z" transform="translate(509.12 -1508.55)"/><path class="cls-111" d="M-164.79,1694.11l8.43-5c1.49-.93,4.84-.68,4.91,1.07l.75,10.69.75,10.68-1.24,17.89-9.81,6.22-12,7.52-.9-11.57-.91-11.57,1.38-19.33a2.92,2.92,0,0,1,1.4-2.21Z" transform="translate(509.12 -1508.55)"/><path class="cls-112" d="M-164.65,1694.42l8.22-4.88c1.38-.86,4.75-.79,4.82.83l.76,10.35.75,10.34-1.59,16.78-9.31,5.9-11.74,7.37-.92-11.2-.93-11.19,1.75-18.1a2.86,2.86,0,0,1,1.35-2.08Z" transform="translate(509.12 -1508.55)"/><path class="cls-113" d="M-164.51,1694.73l8-4.74c1.25-.78,4.66-.88,4.72.6l.76,10,.75,10-1.92,15.67-8.82,5.58-11.52,7.21-.94-10.81-.94-10.82,2.11-16.87a2.76,2.76,0,0,1,1.31-1.94Z" transform="translate(509.12 -1508.55)"/><path class="cls-114" d="M-164.37,1695l7.81-4.58c1.14-.72,4.58-1,4.63.36l.76,9.67.76,9.66-2.26,14.56L-161,1730-172.3,1737l-1-10.44-1-10.44,2.48-15.64c0-.63.73-1.47,1.27-1.81Z" transform="translate(509.12 -1508.55)"/><path class="cls-115" d="M-164.23,1695.34l7.6-4.44c1-.64,4.49-1.09,4.54.13l.76,9.33.76,9.33-2.6,13.44-7.84,4.94-11.06,6.9-1-10.06-1-10.06,2.84-14.41c0-.57.74-1.37,1.23-1.67Z" transform="translate(509.12 -1508.55)"/><path class="cls-116" d="M-164.08,1695.65l7.38-4.29c.92-.57,4.41-1.2,4.45-.12l.77,9,.76,9-2.94,12.32-7.35,4.63-10.84,6.75-1-9.69-1-9.68,3.21-13.18c0-.5.75-1.27,1.18-1.54Z" transform="translate(509.12 -1508.55)"/><path class="cls-117" d="M-163.94,1696l7.17-4.15c.8-.5,4.32-1.29,4.36-.35l.77,8.65.76,8.66-3.27,11.21-6.86,4.31-10.62,6.59-1-9.3-1-9.31,3.57-12c0-.44.76-1.17,1.14-1.4Z" transform="translate(509.12 -1508.55)"/><path class="cls-118" d="M-163.8,1696.26l7-4c.69-.43,4.24-1.4,4.27-.59l.77,8.31.77,8.32-3.61,10.1-6.37,4-10.4,6.44-1-8.93-1-8.93,3.94-10.72c0-.38.77-1.07,1.1-1.27Z" transform="translate(509.12 -1508.55)"/><path class="cls-119" d="M-163.66,1696.57l6.76-3.84c.57-.36,4.14-1.51,4.17-.83l.77,8,.77,8-3.95,9-5.88,3.67-10.17,6.29-1.05-8.56-1-8.55,4.3-9.49c0-.31.78-1,1.05-1.13Z" transform="translate(509.12 -1508.55)"/><path class="cls-120" d="M-163.52,1696.88l6.55-3.7c.46-.28,4.06-1.61,4.08-1.07l.77,7.64.78,7.64-4.29,7.88-5.39,3.35-9.95,6.13-1.07-8.18-1.06-8.18,4.66-8.25c0-.25.8-.86,1-1Z" transform="translate(509.12 -1508.55)"/><path class="cls-121" d="M-163.37,1697.19l6.33-3.55c.34-.22,4-1.71,4-1.31l.78,7.3.77,7.3-4.62,6.77-4.9,3-9.73,6-1.09-7.8-1.08-7.81,5-7c0-.19.81-.76,1-.86Z" transform="translate(509.12 -1508.55)"/><path class="cls-122" d="M-163.23,1697.49l6.12-3.4c.23-.14,3.89-1.81,3.9-1.54l.78,7,.78,7-5,5.65-4.4,2.72-9.51,5.82-1.1-7.42-1.1-7.43,5.39-5.79c0-.12.82-.66.92-.73Z" transform="translate(509.12 -1508.55)"/><path class="cls-123" d="M-163.09,1697.8l5.91-3.25a41,41,0,0,1,3.81-1.78l.78,6.62.78,6.62-5.3,4.54L-161,1713l-9.29,5.67-1.12-7-1.12-7,5.75-4.56a7.23,7.23,0,0,1,.89-.59Z" transform="translate(509.12 -1508.55)"/><polygon class="cls-124" points="336.75 194.69 346.17 189.56 355.58 184.44 356.37 190.72 357.15 197 348.09 202.51 339.03 208.03 337.89 201.35 336.75 194.69"/><polygon class="cls-125" points="358.03 178.32 400.15 287.25 396.25 285.84 354.13 176.91 358.03 178.32"/><polygon class="cls-126" points="358.02 178.32 400.14 287.25 402.88 285.7 360.76 176.78 358.02 178.32"/><polygon class="cls-127" points="360.76 176.78 358.02 178.32 354.13 176.91 356.88 175.36 360.76 176.78"/><polygon class="cls-128" points="352.99 231 354.12 233.94 350.22 232.54 349.08 229.6 352.99 231"/><polygon class="cls-129" points="352.98 231 354.11 233.94 375.08 222.24 373.95 219.31 352.98 231"/><polygon class="cls-130" points="373.95 219.31 352.98 231 349.08 229.6 370.07 217.89 373.95 219.31"/><polygon class="cls-131" points="357.55 242.82 358.68 245.77 354.78 244.36 353.65 241.42 357.55 242.82"/><polygon class="cls-132" points="357.54 242.82 358.67 245.77 379.64 234.06 378.51 231.13 357.54 242.82"/><polygon class="cls-133" points="378.51 231.13 357.54 242.82 353.65 241.42 374.63 229.71 378.51 231.13"/><polygon class="cls-134" points="362.13 254.69 363.26 257.63 359.36 256.23 358.23 253.29 362.13 254.69"/><polygon class="cls-135" points="362.12 254.69 363.25 257.63 384.22 245.93 383.09 242.99 362.12 254.69"/><polygon class="cls-136" points="383.09 242.99 362.12 254.69 358.23 253.29 379.21 241.58 383.09 242.99"/><polygon class="cls-137" points="366.69 266.51 367.82 269.45 363.92 268.05 362.79 265.11 366.69 266.51"/><polygon class="cls-138" points="366.68 266.51 367.81 269.45 388.78 257.75 387.65 254.81 366.68 266.51"/><polygon class="cls-139" points="387.65 254.81 366.68 266.51 362.79 265.11 383.77 253.4 387.65 254.81"/><polygon class="cls-140" points="339.01 195.51 340.14 198.45 336.24 197.05 335.11 194.1 339.01 195.51"/><polygon class="cls-141" points="339 195.51 340.13 198.45 361.1 186.74 359.97 183.81 339 195.51"/><polygon class="cls-142" points="359.97 183.81 339 195.51 335.11 194.1 356.09 182.4 359.97 183.81"/><polygon class="cls-143" points="343.57 207.33 344.7 210.27 340.8 208.87 339.67 205.93 343.57 207.33"/><polygon class="cls-144" points="343.56 207.33 344.69 210.27 365.66 198.56 364.53 195.63 343.56 207.33"/><polygon class="cls-145" points="364.53 195.63 343.56 207.33 339.67 205.93 360.65 194.22 364.53 195.63"/><polygon class="cls-146" points="348.15 219.2 349.28 222.14 345.38 220.73 344.25 217.79 348.15 219.2"/><polygon class="cls-147" points="348.14 219.2 349.27 222.14 370.24 210.43 369.11 207.5 348.14 219.2"/><polygon class="cls-148" points="369.11 207.5 348.14 219.2 344.25 217.79 365.23 206.09 369.11 207.5"/><polygon class="cls-149" points="371.23 278.29 372.37 281.23 368.46 279.82 367.33 276.88 371.23 278.29"/><polygon class="cls-150" points="371.22 278.29 372.36 281.23 393.32 269.52 392.19 266.59 371.22 278.29"/><polygon class="cls-151" points="392.19 266.59 371.22 278.29 367.33 276.88 388.31 265.18 392.19 266.59"/><polygon class="cls-152" points="375.79 290.11 376.93 293.05 373.02 291.65 371.89 288.71 375.79 290.11"/><polygon class="cls-153" points="375.78 290.11 376.92 293.05 397.88 281.34 396.75 278.41 375.78 290.11"/><polygon class="cls-154" points="396.75 278.41 375.78 290.11 371.89 288.71 392.88 277 396.75 278.41"/><polygon class="cls-155" points="334.31 191.58 376.43 300.5 372.53 299.09 330.41 190.17 334.31 191.58"/><polygon class="cls-156" points="334.3 191.58 376.42 300.5 379.16 298.95 337.04 190.03 334.3 191.58"/><polygon class="cls-157" points="337.04 190.03 334.3 191.58 330.41 190.17 333.16 188.62 337.04 190.03"/><path class="cls-103" d="M-373,1900.62l-20.47-12a3.7,3.7,0,0,1,0-6.39l27-16.57,28.37,16-15.59,9.48-15.58,9.47A3.71,3.71,0,0,1-373,1900.62Z" transform="translate(509.12 -1508.55)"/><path class="cls-104" d="M-367.15,1866.35l13.94,7.89,13.95,7.89-15.28,9.28-15.16,8.84a3.65,3.65,0,0,1-3.62,0l-3.85-2.26-16.07-9.43a3.59,3.59,0,0,1-.16-6.16Z" transform="translate(509.12 -1508.55)"/><path class="cls-105" d="M-367.8,1867.07l13.7,7.76,13.7,7.77-15,9.09-14.74,8.21a3.62,3.62,0,0,1-3.51-.06l-3.74-2.2-15.62-9.15c-2.22-1.28-2.5-4.63-.29-5.93Z" transform="translate(509.12 -1508.55)"/><path class="cls-106" d="M-368.46,1867.78l13.47,7.64,13.46,7.64-14.66,8.91-14.32,7.58a3.57,3.57,0,0,1-3.4-.11l-3.63-2.12-15.17-8.88c-2.1-1.22-2.51-4.48-.42-5.71Z" transform="translate(509.12 -1508.55)"/><path class="cls-107" d="M-369.11,1868.49l13.22,7.52,13.22,7.52-14.34,8.71-13.9,7a3.52,3.52,0,0,1-3.29-.14l-3.52-2.06-14.72-8.61c-2-1.14-2.53-4.31-.56-5.47Z" transform="translate(509.12 -1508.55)"/><path class="cls-108" d="M-369.76,1869.2l13,7.4,13,7.39-14,8.53-13.48,6.32a3.54,3.54,0,0,1-3.18-.18l-3.42-2-14.26-8.33c-1.87-1.08-2.56-4.15-.7-5.25Z" transform="translate(509.12 -1508.55)"/><path class="cls-109" d="M-370.41,1869.92l12.74,7.27,12.74,7.27-13.73,8.34-13,5.69a3.5,3.5,0,0,1-3.08-.23l-3.3-1.93-13.82-8c-1.75-1-2.57-4-.82-5Z" transform="translate(509.12 -1508.55)"/><path class="cls-110" d="M-371.06,1870.63l12.49,7.15,12.5,7.15-13.41,8.14-12.63,5.06a3.51,3.51,0,0,1-3-.26l-3.2-1.86-13.36-7.79c-1.64-.94-2.59-3.83-1-4.78Z" transform="translate(509.12 -1508.55)"/><path class="cls-111" d="M-371.72,1871.34l12.26,7,12.26,7-13.1,8-12.21,4.43a3.49,3.49,0,0,1-2.86-.3l-3.09-1.8-12.91-7.51c-1.52-.88-2.61-3.67-1.1-4.56Z" transform="translate(509.12 -1508.55)"/><path class="cls-112" d="M-372.37,1872.06l12,6.9,12,6.9-12.79,7.77-11.78,3.8a3.56,3.56,0,0,1-2.76-.35l-3-1.73-12.46-7.23c-1.4-.81-2.62-3.51-1.22-4.33Z" transform="translate(509.12 -1508.55)"/><path class="cls-113" d="M-373,1872.77l11.77,6.78,11.78,6.77-12.48,7.59-11.36,3.16a3.53,3.53,0,0,1-2.65-.38l-2.88-1.67-12-7c-1.29-.74-2.64-3.34-1.36-4.1Z" transform="translate(509.12 -1508.55)"/><path class="cls-114" d="M-373.67,1873.48l11.53,6.66,11.53,6.65-12.16,7.39-10.94,2.54c-.55.32-2-.11-2.55-.42l-2.76-1.6-11.56-6.69c-1.16-.67-2.65-3.19-1.49-3.87Z" transform="translate(509.12 -1508.55)"/><path class="cls-115" d="M-374.32,1874.2l11.29,6.53,11.29,6.52-11.86,7.21-10.52,1.91c-.49.29-1.93-.18-2.43-.47l-2.66-1.53-11.1-6.41c-1.05-.61-2.67-3-1.63-3.65Z" transform="translate(509.12 -1508.55)"/><path class="cls-116" d="M-375,1874.91l11.05,6.41,11.06,6.4-11.55,7-10.1,1.27c-.43.26-1.88-.25-2.32-.5l-2.55-1.47L-390,1887.9c-.94-.54-2.69-2.86-1.76-3.41Z" transform="translate(509.12 -1508.55)"/><path class="cls-117" d="M-375.63,1875.62l10.81,6.29,10.81,6.28-11.23,6.82-9.68.65c-.38.23-1.83-.32-2.22-.54l-2.44-1.4-10.2-5.87c-.82-.47-2.7-2.71-1.89-3.18Z" transform="translate(509.12 -1508.55)"/><path class="cls-118" d="M-376.28,1876.34l10.57,6.15,10.57,6.16-10.93,6.64-9.25,0c-.33.19-1.78-.4-2.11-.59l-2.33-1.33-9.75-5.59c-.7-.41-2.72-2.55-2-3Z" transform="translate(509.12 -1508.55)"/><path class="cls-119" d="M-376.93,1877.05l10.32,6,10.33,6-10.61,6.45-8.83-.62c-.27.16-1.73-.46-2-.62l-2.23-1.27-9.29-5.32c-.59-.33-2.75-2.38-2.16-2.72Z" transform="translate(509.12 -1508.55)"/><path class="cls-120" d="M-377.59,1877.76l10.09,5.91,10.09,5.91-10.3,6.26-8.41-1.24c-.22.13-1.68-.53-1.9-.66l-2.11-1.21-8.85-5c-.47-.27-2.76-2.22-2.29-2.5Z" transform="translate(509.12 -1508.55)"/><path class="cls-121" d="M-378.24,1878.48l9.85,5.78,9.84,5.79-10,6.07-8-1.87a7.22,7.22,0,0,1-1.79-.7l-2-1.14-8.39-4.77c-.35-.2-2.78-2.07-2.43-2.27Z" transform="translate(509.12 -1508.55)"/><path class="cls-122" d="M-378.89,1879.19l9.61,5.66,9.6,5.66-9.68,5.89-7.56-2.51a8.79,8.79,0,0,1-1.68-.74l-1.9-1.07-7.95-4.49c-.23-.14-2.79-1.91-2.56-2Z" transform="translate(509.12 -1508.55)"/><path class="cls-123" d="M-379.54,1879.9l9.36,5.54,9.37,5.54-9.37,5.7-7.15-3.14c-.05,0-1.51-.75-1.57-.78l-1.79-1-7.49-4.22a26.12,26.12,0,0,1-2.69-1.81Z" transform="translate(509.12 -1508.55)"/><polygon class="cls-124" points="138.11 388.4 128.24 382.88 118.38 377.35 128.92 372.07 138.04 377.48 147.17 382.9 138.11 388.4"/><path class="cls-103" d="M-345.22,1831.16l-10.11-6.22-10.12-6.21a3.69,3.69,0,0,0-5.65,3l-1.55,14.1-1.54,14.1,13.74,8.76,13.74,8.76,1.61-16.48,1.62-16.49A3.68,3.68,0,0,0-345.22,1831.16Z" transform="translate(509.12 -1508.55)"/><path class="cls-104" d="M-371,1821.93l-1.52,13.6-1.53,13.6,13.52,8.58,13.53,8.58,1.67-16,1.31-15.82a3.64,3.64,0,0,0-1.71-3.17l-9.8-6-9.91-6.07A3.62,3.62,0,0,0-371,1821.93Z" transform="translate(509.12 -1508.55)"/><path class="cls-105" d="M-370.87,1822.16l-1.51,13.1-1.51,13.1,13.31,8.4,13.31,8.4,1.72-15.57,1-15.17a3.54,3.54,0,0,0-1.69-3l-9.48-5.8-9.7-5.92C-367.58,1818.3-370.76,1819.6-370.87,1822.16Z" transform="translate(509.12 -1508.55)"/><path class="cls-106" d="M-370.76,1822.39l-1.49,12.6-1.5,12.6,13.11,8.22,13.1,8.22,1.76-15.12.71-14.5a3.49,3.49,0,0,0-1.66-2.92l-9.17-5.6-9.48-5.77C-367.44,1818.84-370.65,1820-370.76,1822.39Z" transform="translate(509.12 -1508.55)"/><path class="cls-107" d="M-370.64,1822.61l-1.48,12.11-1.48,12.1,12.89,8,12.89,8,1.82-14.67.39-13.84a3.38,3.38,0,0,0-1.63-2.79l-8.84-5.39-9.28-5.62C-367.3,1819.37-370.54,1820.32-370.64,1822.61Z" transform="translate(509.12 -1508.55)"/><path class="cls-108" d="M-370.53,1822.84l-1.46,11.61-1.46,11.6,12.68,7.86,12.68,7.86,1.86-14.21.09-13.19a3.33,3.33,0,0,0-1.6-2.66l-8.53-5.18-9.07-5.48C-367.17,1819.91-370.43,1820.69-370.53,1822.84Z" transform="translate(509.12 -1508.55)"/><path class="cls-109" d="M-370.41,1823.07l-1.45,11.1-1.45,11.11,12.47,7.68,12.47,7.67,1.92-13.75-.22-12.52a3.3,3.3,0,0,0-1.58-2.54l-8.21-5-8.85-5.33C-367,1820.45-370.32,1821.05-370.41,1823.07Z" transform="translate(509.12 -1508.55)"/><path class="cls-110" d="M-370.29,1823.3l-1.44,10.6-1.43,10.61,12.26,7.49,12.26,7.5,2-13.3-.52-11.86a3.25,3.25,0,0,0-1.55-2.41l-7.89-4.77-8.65-5.17C-366.89,1821-370.21,1821.41-370.29,1823.3Z" transform="translate(509.12 -1508.55)"/><path class="cls-111" d="M-370.18,1823.53l-1.42,10.1-1.42,10.1,12,7.32,12.05,7.32,2-12.84-.82-11.2a3.22,3.22,0,0,0-1.53-2.29l-7.57-4.56-8.44-5C-366.75,1821.52-370.1,1821.77-370.18,1823.53Z" transform="translate(509.12 -1508.55)"/><path class="cls-112" d="M-370.06,1823.75l-1.41,9.61-1.4,9.6,11.84,7.14,11.84,7.14,2.06-12.39-1.13-10.54a3.21,3.21,0,0,0-1.5-2.16l-7.26-4.35-8.22-4.88C-366.62,1822.06-370,1822.14-370.06,1823.75Z" transform="translate(509.12 -1508.55)"/><path class="cls-113" d="M-369.95,1824l-1.39,9.11-1.38,9.1,11.62,7,11.63,7,2.11-11.94-1.43-9.87c0-.7-.89-1.67-1.48-2l-6.93-4.14-8-4.74C-366.48,1822.6-369.88,1822.5-369.95,1824Z" transform="translate(509.12 -1508.55)"/><path class="cls-114" d="M-369.83,1824.21l-1.37,8.6-1.38,8.61,11.42,6.78,11.41,6.77,2.17-11.47-1.75-9.22c0-.63-.9-1.57-1.44-1.91l-6.62-3.94-7.81-4.58C-366.34,1823.13-369.77,1822.86-369.83,1824.21Z" transform="translate(509.12 -1508.55)"/><path class="cls-115" d="M-369.72,1824.44l-1.35,8.1-1.36,8.11,11.2,6.6,11.21,6.59,2.21-11-2.05-8.56c0-.57-.93-1.47-1.42-1.78l-6.3-3.73-7.59-4.44C-366.2,1823.67-369.66,1823.22-369.72,1824.44Z" transform="translate(509.12 -1508.55)"/><path class="cls-116" d="M-369.6,1824.66l-1.34,7.61-1.34,7.61,11,6.41,11,6.42,2.26-10.57-2.35-7.89c0-.51-1-1.39-1.39-1.65l-6-3.53-7.39-4.29C-366.06,1824.21-369.55,1823.59-369.6,1824.66Z" transform="translate(509.12 -1508.55)"/><path class="cls-117" d="M-369.49,1824.89l-1.32,7.11-1.33,7.11,10.79,6.23,10.78,6.24,2.31-10.11-2.66-7.24c0-.44-1-1.29-1.37-1.52l-5.66-3.32-7.18-4.14C-365.93,1824.75-369.44,1824-369.49,1824.89Z" transform="translate(509.12 -1508.55)"/><path class="cls-118" d="M-369.37,1825.12l-1.31,6.61-1.31,6.61,10.57,6.05,10.57,6.06,2.36-9.66-3-6.57c0-.38-1-1.2-1.34-1.4l-5.35-3.12-7-4C-365.79,1825.28-369.33,1824.31-369.37,1825.12Z" transform="translate(509.12 -1508.55)"/><path class="cls-119" d="M-369.25,1825.35l-1.3,6.11-1.29,6.11,10.36,5.87,10.36,5.88,2.41-9.2-3.27-5.92c0-.32-1-1.11-1.32-1.27l-5-2.91-6.75-3.84C-365.65,1825.82-369.23,1824.67-369.25,1825.35Z" transform="translate(509.12 -1508.55)"/><path class="cls-120" d="M-369.14,1825.57l-1.28,5.61-1.28,5.61,10.15,5.7,10.15,5.69,2.46-8.74-3.57-5.25c0-.26-1.08-1-1.29-1.15l-4.71-2.7-6.55-3.7C-365.51,1826.36-369.12,1825-369.14,1825.57Z" transform="translate(509.12 -1508.55)"/><path class="cls-121" d="M-369,1825.8l-1.27,5.11-1.26,5.11,9.94,5.52,9.94,5.51,2.5-8.29-3.87-4.59c0-.19-1.11-.92-1.27-1l-4.39-2.49-6.33-3.55C-365.38,1826.89-369,1825.4-369,1825.8Z" transform="translate(509.12 -1508.55)"/><path class="cls-122" d="M-368.91,1826l-1.25,4.61-1.24,4.61,9.72,5.34,9.73,5.33,2.56-7.83-4.19-3.94a6.94,6.94,0,0,0-1.23-.89l-4.08-2.29-6.12-3.4C-365.24,1827.43-368.9,1825.76-368.91,1826Z" transform="translate(509.12 -1508.55)"/><path class="cls-123" d="M-368.79,1826.26l-1.23,4.11-1.24,4.11,9.52,5.15,9.51,5.16,2.61-7.38-4.49-3.27a10.91,10.91,0,0,0-1.21-.77l-3.75-2.08L-365,1828A40.88,40.88,0,0,0-368.79,1826.26Z" transform="translate(509.12 -1508.55)"/><polygon class="cls-124" points="159.27 328.19 149.86 323.06 140.44 317.94 138 325.16 147.31 330.14 156.62 335.11 159.27 328.19"/><polygon class="cls-158" points="138.87 314.04 114.51 378.65 118.41 377.25 142.77 312.63 138.87 314.04"/><polygon class="cls-159" points="138.88 314.04 114.52 378.65 111.78 377.11 136.14 312.5 138.88 314.04"/><polygon class="cls-160" points="136.14 312.5 138.88 314.04 142.77 312.63 140.01 311.08 136.14 312.5"/><polygon class="cls-161" points="157.11 334.23 155.98 337.18 159.88 335.77 161.01 332.83 157.11 334.23"/><polygon class="cls-162" points="157.12 334.23 155.99 337.18 135.02 325.47 136.15 322.53 157.12 334.23"/><polygon class="cls-163" points="136.15 322.53 157.12 334.23 161.01 332.83 140.03 321.12 136.15 322.53"/><polygon class="cls-164" points="152.53 346.1 151.4 349.04 155.3 347.64 156.44 344.7 152.53 346.1"/><polygon class="cls-165" points="152.54 346.1 151.41 349.04 130.44 337.33 131.57 334.4 152.54 346.1"/><polygon class="cls-166" points="131.57 334.4 152.54 346.1 156.44 344.7 135.45 332.99 131.57 334.4"/><polygon class="cls-167" points="147.97 357.92 146.84 360.86 150.74 359.46 151.88 356.52 147.97 357.92"/><polygon class="cls-168" points="147.98 357.92 146.85 360.86 125.88 349.16 127.01 346.22 147.98 357.92"/><polygon class="cls-169" points="127.01 346.22 147.98 357.92 151.88 356.52 130.89 344.81 127.01 346.22"/><polygon class="cls-170" points="143.43 369.7 142.3 372.64 146.2 371.23 147.33 368.29 143.43 369.7"/><polygon class="cls-171" points="143.44 369.7 142.31 372.64 121.34 360.93 122.47 358 143.44 369.7"/><polygon class="cls-172" points="122.47 358 143.44 369.7 147.33 368.29 126.35 356.58 122.47 358"/><polygon class="cls-173" points="138.87 381.52 137.74 384.46 141.64 383.06 142.77 380.11 138.87 381.52"/><polygon class="cls-174" points="138.88 381.52 137.74 384.46 116.78 372.75 117.91 369.82 138.88 381.52"/><polygon class="cls-175" points="117.91 369.82 138.88 381.52 142.77 380.11 121.79 368.41 117.91 369.82"/><polygon class="cls-176" points="162.58 327.3 138.23 391.9 142.13 390.5 166.48 325.89 162.58 327.3"/><polygon class="cls-177" points="162.59 327.3 138.24 391.9 135.5 390.36 159.85 325.76 162.59 327.3"/><polygon class="cls-178" points="159.85 325.76 162.59 327.3 166.48 325.89 163.73 324.35 159.85 325.76"/><path class="cls-179" d="M-145.77,1706.19c.13,1.82-1.55,3.42-3.75,3.57s-4.08-1.2-4.21-3,1.56-3.41,3.76-3.57S-145.89,1704.37-145.77,1706.19Z" transform="translate(509.12 -1508.55)"/><path class="cls-180" d="M-150.83,1734.18a7.65,7.65,0,0,0-1.17-1c-.32-.14-.5-.28-.86-.12s.06.79.06.79-.33-.67-.65-.55-.34.3-.32.38l.1.47s-.4-.42-.75-.28-.24.58-.24.58l.12.22s-.4-.34-.7,0,.18,1.25.4,1.67a14.78,14.78,0,0,0,1.89,2.72c.77.79,1.86,1.72,1.86,1.72s2.46-2.54,2.36-3.41a3.39,3.39,0,0,1,.22-1.95,11.53,11.53,0,0,1,1.23-1.67c.46-.47.28-.89-.63-.63s-1.39,1.25-1.73,1.55S-150.57,1734.44-150.83,1734.18Z" transform="translate(509.12 -1508.55)"/><path class="cls-181" d="M-154.17,1735.27a2.07,2.07,0,0,0-.23-.51,2.33,2.33,0,0,1-.22-.66.76.76,0,0,0,0,.36l.09.16A2.25,2.25,0,0,1-154.17,1735.27Z" transform="translate(509.12 -1508.55)"/><path class="cls-182" d="M-153.27,1734.76a3.59,3.59,0,0,0-.35-.65l.09.23a2.16,2.16,0,0,0-.55-.42A3.17,3.17,0,0,1-153.27,1734.76Z" transform="translate(509.12 -1508.55)"/><path class="cls-183" d="M-154.44,1736.25a4,4,0,0,1-.72-1.07h0c0,.11,0,.24.06.4a3.46,3.46,0,0,0,.26.72,14.78,14.78,0,0,0,1.89,2.72c.33.33.7.68,1,1l.07-.06a3.75,3.75,0,0,0-.27-.74A27.63,27.63,0,0,0-154.44,1736.25Z" transform="translate(509.12 -1508.55)"/><path class="cls-184" d="M-154.68,1734.52h0Z" transform="translate(509.12 -1508.55)"/><path class="cls-185" d="M-152.46,1734.28a6.44,6.44,0,0,1-.4-.77,1.74,1.74,0,0,1-.13-.3.68.68,0,0,0,.1.49C-153,1733.54-152.46,1734.28-152.46,1734.28Z" transform="translate(509.12 -1508.55)"/><path class="cls-186" d="M-143.47,1707.07c-.78-.52-5,3.43-3.06,4.55S-141.75,1708.22-143.47,1707.07Z" transform="translate(509.12 -1508.55)"/><path class="cls-187" d="M-129.5,1719.14c-1.24-2.25-2.59-3.38-5.57-5.34s-9-5.3-9.62-6.37a27.7,27.7,0,0,0-2.43-3.45,8.1,8.1,0,0,0-1.92-1.22,3.38,3.38,0,0,0-1.49-.4c-.82.06.06.6.6.89s1.22.77,1.22.77l-1.07-.66a4.44,4.44,0,0,0-1.86-.64c-.54-.07-1.56.28-.49.65a9.53,9.53,0,0,1,1.48.76c1.23.74,1.09.81,1.09.81s-.62-.42-1.45-.92a7.81,7.81,0,0,0-2-.59c-.62-.15-1.6.49-.5.84a5.55,5.55,0,0,1,1.63.66c.5.3,1.12.78,1.12.78l-1-.61a5.67,5.67,0,0,0-1.85-.55c-.92-.25-1.68.35-.53.89s1.39.63,2,1,1.39.8,1.34,1.2-.34.07-1.11-.17-1.83.31-1.88.62.73.39,1.42.51,1.67,1.05,2.74,1.25,1.74.25,2.09.37a50.22,50.22,0,0,1,6.21,4.48,54.66,54.66,0,0,0,6.81,4.79Z" transform="translate(509.12 -1508.55)"/><path class="cls-188" d="M-143.84,1707.86a5.34,5.34,0,0,1-1,2,4.11,4.11,0,0,1-1.59,1.15l2.53,2.17,2.31-4Z" transform="translate(509.12 -1508.55)"/><path class="cls-189" d="M-143.47,1707.07c.15,1.44-1.19,4.28-3.32,4.28-.59,0,3.21,3,4.28,4.3,1.54,1.83,5.77,6.91,7.3,8.31s12.53-1,12.18-4-2.34-3-5.17-3.28-4.09.88-6.16-1.06S-143.52,1706.64-143.47,1707.07Z" transform="translate(509.12 -1508.55)"/><path class="cls-73" d="M-124.82,1781.74s1.29,2,.51,2.7a4.38,4.38,0,0,1-3.41,1.11c-1.27-.21-1.87-.6-3.08-.29s-6.51-.82-7.71-1.73-.62-2.46,1.67-2.86a56.17,56.17,0,0,1,6.22-.9C-130,1779.83-124.82,1781.74-124.82,1781.74Z" transform="translate(509.12 -1508.55)"/><path class="cls-190" d="M-125.42,1783.61c-2,.78-2.88.37-4.93.46s-8.17-.75-8.39-2,1.13-1.33,2.23-1.5,4.59-.81,4.86-.88,6.5,1,6.5,1,.86,1.71.56,2.08S-124.87,1783.39-125.42,1783.61Z" transform="translate(509.12 -1508.55)"/><path class="cls-191" d="M-122.58,1759.79l-8.33,2.86s3,6.3,3.76,8.88,3.09,10.33,1.86,11.11-6.66-.28-7.33-.91a3.64,3.64,0,0,1-1-2.66c.12-.72-1-5.43-3-8.39s-6-9-4.35-13,13.17-9.25,13.17-9.25Z" transform="translate(509.12 -1508.55)"/><path class="cls-71" d="M-122.58,1759.79l-8.33,2.86s3,6.3,3.76,8.88,3.09,10.33,1.86,11.1a5.4,5.4,0,0,1-2.77.22c.14-2.78.16-7.35-.95-9.95-1.66-3.92-6.44-10.5-6.44-10.5l10.85-7Z" transform="translate(509.12 -1508.55)"/><path class="cls-73" d="M-109,1789.27a5.35,5.35,0,0,1,.62,2.47,2.74,2.74,0,0,1-3.12,1.37c-1.42-.36-2.26-1.58-2.82-1.83s-3.4,0-5.83-1.32-2.55-3.31-.49-3.77a17.61,17.61,0,0,1,7.52.31A22.17,22.17,0,0,1-109,1789.27Z" transform="translate(509.12 -1508.55)"/><path class="cls-192" d="M-109.58,1791.36c-1.42.62-3.57-.28-4.6-.84s-2.49.15-4.81-1-3.25-2.11-2.45-2.83,4.15-1.25,7-.38,4.82,1.52,4.82,1.52,1,1.8.8,2.28S-108.77,1791-109.58,1791.36Z" transform="translate(509.12 -1508.55)"/><path class="cls-193" d="M-118.69,1747.13a34.62,34.62,0,0,1,2.58,10.65c.5,6.15,4.14,18,5.29,22.16s3.7,9.13,1.76,10.66c-1.12.88-3.42,1-5.57-.66s-2.91-3.51-2.78-3.92.11-2.11-1.3-5.49-4.55-11.68-5-14.49-5.25-16.18-5.25-16.18Z" transform="translate(509.12 -1508.55)"/><path class="cls-71" d="M-123.73,1766c.47,2.81,3.61,11.1,5,14.49s1.43,5.07,1.3,5.49.64,2.28,2.78,3.92a6.37,6.37,0,0,0,2.52,1.18,19.85,19.85,0,0,1-3.75-8.77c-1.5-7.26-4.92-16.2-6.17-21.2-.74-2.94-1.2-8.67-1.94-12.26l-5,1S-124.2,1763.23-123.73,1766Z" transform="translate(509.12 -1508.55)"/><path class="cls-194" d="M-140.14,1704.35c-1.27,1-2.46,2.37-1.86,5.9s.88,5.22,1.67,5.55,1.23-.24,1.56.72a10.82,10.82,0,0,1,.35,2.63l7.34-3.18a3.69,3.69,0,0,1-.51-2.49c.26-1.36,2-4.25-.37-7.55A6.23,6.23,0,0,0-140.14,1704.35Z" transform="translate(509.12 -1508.55)"/><path class="cls-195" d="M-142.52,1707.9c.1.68.72,1.69,1.68,1.58a1.46,1.46,0,0,1,1.53,1.49c-.12.57.05.69.05.69s.65-.42,1.08.08.22,1.78.1,2.28,1.73,1.6,3.05,1.46,3.05-.62,3.49-1.39a7.47,7.47,0,0,0,.66-6.87,6.38,6.38,0,0,0-8.08-3.78C-141.91,1704.62-142.67,1707-142.52,1707.9Z" transform="translate(509.12 -1508.55)"/><path class="cls-196" d="M-139.3,1721.37s.29-3,1.94-3.73,3.21-.76,4.27-1.51a4.71,4.71,0,0,0,1.51-1.86s1.39.12.64,1.5S-139.3,1721.37-139.3,1721.37Z" transform="translate(509.12 -1508.55)"/><path class="cls-197" d="M-133.42,1717.43a19.61,19.61,0,0,0,2.95-2.12,29.79,29.79,0,0,1,3.87-.56,4,4,0,0,1,4.2,3.5,58.18,58.18,0,0,1,.26,10,22.5,22.5,0,0,0,1.74,10.1c1.37,3.56,5.23,11.21,5.22,12.12s-1.42,4.43-5.72,6.92-11.89,4.34-15.66,1.38c-3.41-2.68-1.06-9.8-2.58-19.29-1-6-4.09-10.79-2.15-14.36s4.44-6,6-6.72A15.92,15.92,0,0,0-133.42,1717.43Z" transform="translate(509.12 -1508.55)"/><path class="cls-71" d="M-139.48,1721.61a6.58,6.58,0,0,1,3.11-3.18c1.34-.44,3.89-1.48,4.65-2.29a2.69,2.69,0,0,0,.86-1.59l2.2.37a3.46,3.46,0,0,1-2.07,3.85c-2.72,1.43-6,2-7.84,3.62a20.73,20.73,0,0,0-2.76,2.89Z" transform="translate(509.12 -1508.55)"/><path class="cls-198" d="M-139.48,1721.61a6.58,6.58,0,0,1,3.11-3.18c1.34-.44,3.89-1.48,4.65-2.29a2.69,2.69,0,0,0,.86-1.59l2.2.37s.36,2-2.36,3.44-6.43,2.39-8,4.11a28.21,28.21,0,0,0-2.31,2.81Z" transform="translate(509.12 -1508.55)"/><path class="cls-199" d="M-128.88,1714.88c0,.42,0,2.11-2.37,3.35-2.72,1.43-6.44,2.39-8,4.11-.59.65-1.06,1.2-1.42,1.65l-.65,1.29a28.21,28.21,0,0,1,2.31-2.81c1.56-1.72,5.28-2.68,8-4.11s2.36-3.44,2.36-3.44Z" transform="translate(509.12 -1508.55)"/><path class="cls-71" d="M-135.23,1726.22c-2.54-2.57-4.94.33-6.61,2.72.42,2,2.11,6.87,2.7,10.55,1.52,9.49-.83,16.61,2.58,19.29,1.82,1.43,4.53,1.74,7.33,1.39a38.61,38.61,0,0,1-1.45-4.73c-1.21-5.1-.21-8.25-.9-15.29S-131.93,1729.56-135.23,1726.22Z" transform="translate(509.12 -1508.55)"/><path class="cls-71" d="M-130.78,1707.5a7.84,7.84,0,0,1-3.33,2.2,12.36,12.36,0,0,1-5.3.7.93.93,0,0,1,.09.57c-.11.57.06.69.06.69s.65-.42,1.08.08.22,1.78.1,2.28,1.73,1.6,3.05,1.46,3.05-.62,3.49-1.39A7.51,7.51,0,0,0-130.78,1707.5Z" transform="translate(509.12 -1508.55)"/><path class="cls-200" d="M-137.37,1724.05a4.5,4.5,0,0,1,3.74,6.08c-1,3.38-5.09,12-7,13.82a5.22,5.22,0,0,1-6.6,1c-2.44-1.35-5-2.34-5.25-4.37s2.19-4,3.43-4,3.43,1.25,4,.78,2.24-6.7,2.86-8.78S-140.54,1723.64-137.37,1724.05Z" transform="translate(509.12 -1508.55)"/></g></g></svg>