<svg id="Layer_1" data-name="Layer 1" xmlns="http://www.w3.org/2000/svg" xmlns:xlink="http://www.w3.org/1999/xlink" viewBox="0 0 178.45 136.09"><defs><style>.cls-1{fill:url(#linear-gradient);}.cls-2{fill:url(#linear-gradient-2);}.cls-3{fill:url(#linear-gradient-3);}.cls-4{fill:url(#linear-gradient-4);}.cls-5{fill:url(#linear-gradient-5);}.cls-6{fill:url(#linear-gradient-6);}.cls-7{fill:url(#linear-gradient-7);}.cls-8{fill:url(#linear-gradient-8);}.cls-9{fill:url(#linear-gradient-9);}.cls-10{fill:url(#linear-gradient-10);}.cls-11{fill:url(#linear-gradient-11);}.cls-12{fill:url(#linear-gradient-12);}.cls-13{fill:url(#linear-gradient-13);}.cls-14{fill:url(#linear-gradient-14);}.cls-15{fill:url(#linear-gradient-15);}.cls-16{fill:url(#linear-gradient-16);}.cls-17{fill:url(#linear-gradient-17);}.cls-18{fill:url(#linear-gradient-19);}.cls-19{fill:url(#linear-gradient-20);}.cls-20{fill:url(#linear-gradient-21);}.cls-21{fill:url(#linear-gradient-22);}.cls-22{fill:url(#linear-gradient-24);}.cls-23{fill:url(#linear-gradient-25);}</style><linearGradient id="linear-gradient" x1="-2585.15" y1="-1122.37" x2="-2542.77" y2="-1122.37" gradientUnits="userSpaceOnUse"><stop offset="0" stop-color="#1daca0"/><stop offset="1" stop-color="#80cdca"/></linearGradient><linearGradient id="linear-gradient-2" x1="-2580.52" y1="-1119.16" x2="-2530.58" y2="-1119.16" xlink:href="#linear-gradient"/><linearGradient id="linear-gradient-3" x1="-2576.98" y1="-1110.44" x2="-2518.37" y2="-1110.44" xlink:href="#linear-gradient"/><linearGradient id="linear-gradient-4" x1="-1182.45" y1="-1122.37" x2="-1140.07" y2="-1122.37" gradientTransform="matrix(-1, 0, 0, 1, -3812.49, 0)" xlink:href="#linear-gradient"/><linearGradient id="linear-gradient-5" x1="-1177.83" y1="-1119.16" x2="-1127.88" y2="-1119.16" gradientTransform="matrix(-1, 0, 0, 1, -3812.49, 0)" xlink:href="#linear-gradient"/><linearGradient id="linear-gradient-6" x1="-1174.28" y1="-1110.44" x2="-1115.67" y2="-1110.44" gradientTransform="matrix(-1, 0, 0, 1, -3812.49, 0)" xlink:href="#linear-gradient"/><linearGradient id="linear-gradient-7" x1="-2627.3" y1="-1164.97" x2="-2587.67" y2="-1164.97" xlink:href="#linear-gradient"/><linearGradient id="linear-gradient-8" x1="69.51" y1="37.53" x2="109.14" y2="37.53" xlink:href="#linear-gradient"/><linearGradient id="linear-gradient-9" x1="-2627.3" y1="-1106.05" x2="-2619.02" y2="-1106.05" xlink:href="#linear-gradient"/><linearGradient id="linear-gradient-10" x1="-2616.63" y1="-1106.95" x2="-2608.35" y2="-1106.95" xlink:href="#linear-gradient"/><linearGradient id="linear-gradient-11" x1="-2623.16" y1="-1081.79" x2="-2623.16" y2="-1130.3" xlink:href="#linear-gradient"/><linearGradient id="linear-gradient-12" x1="-2612.49" y1="-1083.6" x2="-2612.49" y2="-1130.3" xlink:href="#linear-gradient"/><linearGradient id="linear-gradient-13" x1="-2606.22" y1="-1106.95" x2="-2597.95" y2="-1106.95" xlink:href="#linear-gradient"/><linearGradient id="linear-gradient-14" x1="-2602.08" y1="-1083.6" x2="-2602.08" y2="-1130.3" xlink:href="#linear-gradient"/><linearGradient id="linear-gradient-15" x1="-2595.95" y1="-1106.05" x2="-2587.67" y2="-1106.05" xlink:href="#linear-gradient"/><linearGradient id="linear-gradient-16" x1="-2591.81" y1="-1081.79" x2="-2591.81" y2="-1130.3" xlink:href="#linear-gradient"/><linearGradient id="linear-gradient-17" x1="-2617.87" y1="-1073" x2="-2617.84" y2="-1073" xlink:href="#linear-gradient"/><linearGradient id="linear-gradient-19" x1="69.51" y1="106" x2="69.51" y2="106" xlink:href="#linear-gradient"/><linearGradient id="linear-gradient-20" x1="109.13" y1="106" x2="109.14" y2="106" xlink:href="#linear-gradient"/><linearGradient id="linear-gradient-21" x1="80.82" y1="129.67" x2="97.74" y2="129.67" xlink:href="#linear-gradient"/><linearGradient id="linear-gradient-22" x1="-2627.3" y1="-1067.76" x2="-2587.68" y2="-1067.76" xlink:href="#linear-gradient"/><linearGradient id="linear-gradient-24" x1="-2627.3" y1="-1165.19" x2="-2604.79" y2="-1165.19" xlink:href="#linear-gradient"/><linearGradient id="linear-gradient-25" x1="-2607.49" y1="-1067.76" x2="-2587.68" y2="-1067.76" xlink:href="#linear-gradient"/></defs><path class="cls-1" d="M-2583.51-1083.88s3.66-33,40.74-37.36v-39.62S-2594.93-1154.08-2583.51-1083.88Z" transform="translate(2696.81 1178.88)"/><path class="cls-2" d="M-2537.68-1154.43l7.1,8.29v39.44c-32.85-8.6-49.71,22.39-49.94,22.81.12-.46,8.48-29.93,42.84-31.69Z" transform="translate(2696.81 1178.88)"/><path class="cls-3" d="M-2518.37-1132v39.74s-31.52-19.76-58.61,12c18.21-32.63,51.21-20.43,51.21-20.43v-39.89Z" transform="translate(2696.81 1178.88)"/><path class="cls-4" d="M-2631.67-1083.88s-3.66-33-40.74-37.36v-39.62S-2620.25-1154.08-2631.67-1083.88Z" transform="translate(2696.81 1178.88)"/><path class="cls-5" d="M-2677.5-1154.43l-7.1,8.29v39.44c32.85-8.6,49.72,22.39,49.95,22.81-.13-.46-8.48-29.93-42.85-31.69Z" transform="translate(2696.81 1178.88)"/><path class="cls-6" d="M-2696.81-1132v39.74s31.52-19.76,58.61,12c-18.21-32.63-51.21-20.43-51.21-20.43v-39.89Z" transform="translate(2696.81 1178.88)"/><path class="cls-7" d="M-2587.67-1167.21v16.15h-39.63v-.45a32.09,32.09,0,0,0,22.51-27.37h5.44A11.67,11.67,0,0,1-2587.67-1167.21Z" transform="translate(2696.81 1178.88)"/><rect class="cls-8" x="69.51" y="30.67" width="39.63" height="13.71" rx="2.78"/><path class="cls-9" d="M-2619-1124.73v39.61l-.06-.08a4.59,4.59,0,0,0-3.41-2.16c-2.66,0-4.81,3.91-4.81,5.57v-42.94c0-1.66,1.85-5.57,4.14-5.57,1.14,0,2.17,1,2.92,2.16A7.48,7.48,0,0,1-2619-1124.73Z" transform="translate(2696.81 1178.88)"/><path class="cls-10" d="M-2608.35-1124.73v41.13a4.08,4.08,0,0,0-1.21-2.3,4.16,4.16,0,0,0-2.93-1.46c-2.28,0-4.14,2.64-4.14,3.76v-41.13c0-1.66,1.86-5.57,4.14-5.57,1.15,0,2.18,1,2.93,2.16A7.44,7.44,0,0,1-2608.35-1124.73Z" transform="translate(2696.81 1178.88)"/><path class="cls-11" d="M-2619-1124.73v39.61l-.06-.08a4.59,4.59,0,0,0-3.41-2.16c-2.66,0-4.81,3.91-4.81,5.57v-42.94c0-1.66,1.85-5.57,4.14-5.57,1.14,0,2.17,1,2.92,2.16A7.48,7.48,0,0,1-2619-1124.73Z" transform="translate(2696.81 1178.88)"/><path class="cls-12" d="M-2608.35-1124.73v41.13a4.08,4.08,0,0,0-1.21-2.3,4.16,4.16,0,0,0-2.93-1.46c-2.28,0-4.14,2.64-4.14,3.76v-41.13c0-1.66,1.86-5.57,4.14-5.57,1.15,0,2.18,1,2.93,2.16A7.44,7.44,0,0,1-2608.35-1124.73Z" transform="translate(2696.81 1178.88)"/><path class="cls-13" d="M-2597.95-1124.73v41.13a4.08,4.08,0,0,0-1.21-2.3,4.16,4.16,0,0,0-2.92-1.46c-2.29,0-4.14,2.64-4.14,3.76v-41.13c0-1.66,1.85-5.57,4.14-5.57,1.14,0,2.17,1,2.92,2.16A7.44,7.44,0,0,1-2597.95-1124.73Z" transform="translate(2696.81 1178.88)"/><path class="cls-14" d="M-2597.95-1124.73v41.13a4.08,4.08,0,0,0-1.21-2.3,4.16,4.16,0,0,0-2.92-1.46c-2.29,0-4.14,2.64-4.14,3.76v-41.13c0-1.66,1.85-5.57,4.14-5.57,1.14,0,2.17,1,2.92,2.16A7.44,7.44,0,0,1-2597.95-1124.73Z" transform="translate(2696.81 1178.88)"/><path class="cls-15" d="M-2587.67-1124.73v42.94c0-1.66-2.16-5.57-4.82-5.57a4.59,4.59,0,0,0-3.41,2.16.35.35,0,0,0,0,.08v-39.61a7.44,7.44,0,0,1,1.21-3.41c.75-1.18,1.79-2.16,2.93-2.16C-2589.53-1130.3-2587.67-1126.39-2587.67-1124.73Z" transform="translate(2696.81 1178.88)"/><path class="cls-16" d="M-2587.67-1124.73v42.94c0-1.66-2.16-5.57-4.82-5.57a4.59,4.59,0,0,0-3.41,2.16.35.35,0,0,0,0,.08v-39.61a7.44,7.44,0,0,1,1.21-3.41c.75-1.18,1.79-2.16,2.93-2.16C-2589.53-1130.3-2587.67-1126.39-2587.67-1124.73Z" transform="translate(2696.81 1178.88)"/><path class="cls-17" d="M-2617.84-1072.89h0a1.49,1.49,0,0,1,0-.21Z" transform="translate(2696.81 1178.88)"/><path class="cls-17" d="M-2617.84-1072.89h0a1.49,1.49,0,0,1,0-.21Z" transform="translate(2696.81 1178.88)"/><polygon class="cls-18" points="69.52 105.99 69.52 106 69.51 105.99 69.52 105.99"/><polygon class="cls-19" points="109.14 105.99 109.13 106 109.13 105.99 109.14 105.99"/><polygon class="cls-20" points="97.74 123.24 89.24 136.09 80.82 123.24 97.74 123.24"/><path class="cls-21" d="M-2587.68-1072.89h0l-5.12,7.74-6.28,9.5H-2616l-6.22-9.49-5.09-7.75h0c.13-3.9,2.2-7,4.73-7s4.52,3,4.72,6.79a1.49,1.49,0,0,0,0,.21h0v-.21c.41-3.24,2.54-5.7,5.11-5.7s4.78,2.57,5.12,5.91h.1l0-.24c.42-3.22,2.57-5.67,5.14-5.67s4.82,2.57,5.17,5.91h0c.13-3.9,2.2-7,4.73-7S-2587.81-1076.79-2587.68-1072.89Z" transform="translate(2696.81 1178.88)"/><polygon class="cls-19" points="109.14 105.99 109.13 106 109.13 105.99 109.14 105.99"/><path class="cls-22" d="M-2604.79-1178.88a32.09,32.09,0,0,1-22.51,27.37v-15.7a11.66,11.66,0,0,1,11.67-11.67Z" transform="translate(2696.81 1178.88)"/><path class="cls-23" d="M-2587.68-1072.89h0l-5.12,7.74-6.28,9.5h-8.41v-17.49c.42-3.22,2.57-5.67,5.14-5.67s4.82,2.57,5.17,5.91h0c.13-3.9,2.2-7,4.73-7S-2587.81-1076.79-2587.68-1072.89Z" transform="translate(2696.81 1178.88)"/></svg>