<svg id="Layer_1" data-name="Layer 1" xmlns="http://www.w3.org/2000/svg" xmlns:xlink="http://www.w3.org/1999/xlink" viewBox="0 0 260.86 28.26"><defs><style>.cls-1,.cls-11,.cls-8{fill:none;}.cls-2{fill:url(#radial-gradient);}.cls-3{fill:url(#radial-gradient-2);}.cls-4{clip-path:url(#clip-path);}.cls-5{font-size:16.02px;fill:#f6f7f7;}.cls-13,.cls-5{font-family:Poppins-Medium, Poppins;font-weight:500;}.cls-6{opacity:0.18;}.cls-7{fill:#72ccdc;}.cls-8{stroke:#72ccdc;stroke-width:0.27px;}.cls-11,.cls-14,.cls-8,.cls-9{stroke-miterlimit:10;}.cls-9{stroke-width:0.23px;fill:url(#linear-gradient);stroke:url(#linear-gradient-2);}.cls-10,.cls-12{fill:#181518;}.cls-11,.cls-12{stroke:#898989;}.cls-11{stroke-width:0.11px;}.cls-12{stroke-linecap:round;stroke-linejoin:round;stroke-width:0.22px;}.cls-13{font-size:2.45px;fill:#fff;}.cls-14{stroke-width:0.23px;fill:url(#linear-gradient-3);stroke:url(#linear-gradient-4);}</style><radialGradient id="radial-gradient" cx="-888.92" cy="-496.82" r="12.67" gradientTransform="translate(0 -44.19) scale(1 0.91)" gradientUnits="userSpaceOnUse"><stop offset="0" stop-color="#24ffd6"/><stop offset="0.06" stop-color="#2ff8d7" stop-opacity="0.85"/><stop offset="0.16" stop-color="#3fedd8" stop-opacity="0.66"/><stop offset="0.26" stop-color="#4de4d9" stop-opacity="0.48"/><stop offset="0.37" stop-color="#58ddd9" stop-opacity="0.33"/><stop offset="0.47" stop-color="#62d7da" stop-opacity="0.21"/><stop offset="0.59" stop-color="#69d2da" stop-opacity="0.12"/><stop offset="0.71" stop-color="#6ecfdb" stop-opacity="0.05"/><stop offset="0.84" stop-color="#71cddb" stop-opacity="0.01"/><stop offset="1" stop-color="#72ccdb" stop-opacity="0"/></radialGradient><radialGradient id="radial-gradient-2" cx="-1098.36" cy="-498.38" r="10.62" gradientTransform="translate(0 -44.33) scale(1 0.91)" xlink:href="#radial-gradient"/><clipPath id="clip-path" transform="translate(1126.31 515.09)"><rect class="cls-1" x="-1126.31" y="-515.09" width="261.51" height="27.06"/></clipPath><linearGradient id="linear-gradient" x1="9.74" y1="13.97" x2="36.88" y2="13.97" gradientUnits="userSpaceOnUse"><stop offset="0" stop-color="#15161c"/><stop offset="1" stop-color="#2a2731"/></linearGradient><linearGradient id="linear-gradient-2" x1="9.63" y1="13.97" x2="37" y2="13.97" gradientUnits="userSpaceOnUse"><stop offset="0" stop-color="#2a2731"/><stop offset="1" stop-color="#15161c"/></linearGradient><linearGradient id="linear-gradient-3" x1="232.94" y1="17.59" x2="260.74" y2="17.59" xlink:href="#linear-gradient"/><linearGradient id="linear-gradient-4" x1="232.83" y1="17.59" x2="260.86" y2="17.59" xlink:href="#linear-gradient-2"/></defs><path class="cls-2" d="M-886.88-487.2c-8.17.78-16.06,1.1-16.84-7.07s5.25-11.62,13.42-12.39,15.4,1.39,16.18,9.57S-878.7-488-886.88-487.2Z" transform="translate(1126.31 515.09)"/><path class="cls-3" d="M-1096.65-490.32c-6.86.66-13.47.93-14.12-5.92s4.4-9.74,11.25-10.39,12.91,1.17,13.56,8S-1089.8-491-1096.65-490.32Z" transform="translate(1126.31 515.09)"/><g class="cls-4"><text class="cls-5" transform="translate(32.41 16.75)">THE NEW ERA OF LEARNING</text><g class="cls-6"><rect class="cls-7" x="63.22" y="2.48" width="73.47" height="17.16"/></g><rect class="cls-8" x="63.22" y="2.48" width="73.47" height="17.16"/><circle class="cls-7" cx="63.22" cy="2.48" r="0.74"/><circle class="cls-7" cx="63.22" cy="19.64" r="0.74"/><circle class="cls-7" cx="136.7" cy="2.48" r="0.74"/><circle class="cls-7" cx="136.7" cy="19.64" r="0.74"/><rect class="cls-9" x="9.74" y="10.37" width="27.14" height="7.19" rx="1.92"/><rect class="cls-10" x="11.79" y="11.95" width="4.04" height="4.04" rx="1.28"/><rect class="cls-11" x="11.79" y="11.95" width="4.04" height="4.04" rx="1.28"/><polyline class="cls-12" points="13.08 14.08 13.55 14.65 14.68 13.31"/><text class="cls-13" transform="translate(17.83 14.96)">Task system</text><rect class="cls-14" x="232.94" y="14" width="27.8" height="7.19" rx="1.95"/><rect class="cls-10" x="234.99" y="15.57" width="4.04" height="4.04" rx="1.28"/><rect class="cls-11" x="234.99" y="15.57" width="4.04" height="4.04" rx="1.28"/><polyline class="cls-12" points="236.28 17.7 236.75 18.28 237.88 16.93"/><text class="cls-13" transform="translate(241.03 18.58)">AI Integration</text></g><rect class="cls-1" width="260.51" height="27.06"/></svg>