<svg xmlns="http://www.w3.org/2000/svg" xmlns:xlink="http://www.w3.org/1999/xlink" viewBox="0 0 463.69 475.39"><defs><style>.cls-1{isolation:isolate;}.cls-2{fill:url(#radial-gradient);}.cls-3{fill:url(#linear-gradient);}.cls-101,.cls-102,.cls-12,.cls-27,.cls-4,.cls-42,.cls-44,.cls-46,.cls-48,.cls-81,.cls-82,.cls-86,.cls-87,.cls-91,.cls-92,.cls-96,.cls-97{mix-blend-mode:color-dodge;}.cls-4{fill:url(#radial-gradient-2);}.cls-49,.cls-5,.cls-51,.cls-52,.cls-53,.cls-54,.cls-56{mix-blend-mode:screen;}.cls-5{opacity:0.6;fill:url(#radial-gradient-3);}.cls-6{fill:url(#linear-gradient-2);}.cls-7{fill:url(#linear-gradient-3);}.cls-8{fill:url(#linear-gradient-4);}.cls-9{fill:url(#linear-gradient-5);}.cls-10{fill:url(#linear-gradient-6);}.cls-11{fill:url(#linear-gradient-7);}.cls-12{fill:url(#radial-gradient-4);}.cls-103,.cls-105,.cls-111,.cls-115,.cls-13,.cls-67,.cls-76,.cls-78,.cls-83,.cls-88,.cls-93,.cls-98{mix-blend-mode:multiply;}.cls-13,.cls-78,.cls-83,.cls-88,.cls-93,.cls-98{opacity:0.3;}.cls-14,.cls-29{opacity:0;}.cls-14{fill:url(#linear-gradient-8);}.cls-15,.cls-30{opacity:0.09;}.cls-15{fill:url(#linear-gradient-9);}.cls-16,.cls-31{opacity:0.18;}.cls-16{fill:url(#linear-gradient-10);}.cls-17,.cls-32{opacity:0.27;}.cls-17{fill:url(#linear-gradient-11);}.cls-18,.cls-33{opacity:0.36;}.cls-18{fill:url(#linear-gradient-12);}.cls-19,.cls-34{opacity:0.45;}.cls-19{fill:url(#linear-gradient-13);}.cls-20,.cls-35{opacity:0.55;}.cls-20{fill:url(#linear-gradient-14);}.cls-21,.cls-36{opacity:0.64;}.cls-21{fill:url(#linear-gradient-15);}.cls-22,.cls-37{opacity:0.73;}.cls-22{fill:url(#linear-gradient-16);}.cls-23,.cls-38{opacity:0.82;}.cls-23{fill:url(#linear-gradient-17);}.cls-24,.cls-39{opacity:0.91;}.cls-24{fill:url(#linear-gradient-18);}.cls-25{fill:url(#linear-gradient-19);}.cls-26{fill:url(#linear-gradient-20);}.cls-27{fill:url(#radial-gradient-5);}.cls-28{fill:#fff;}.cls-29{fill:url(#linear-gradient-21);}.cls-30{fill:url(#linear-gradient-22);}.cls-31{fill:url(#linear-gradient-23);}.cls-32{fill:url(#linear-gradient-24);}.cls-33{fill:url(#linear-gradient-25);}.cls-34{fill:url(#linear-gradient-26);}.cls-35{fill:url(#linear-gradient-27);}.cls-36{fill:url(#linear-gradient-28);}.cls-37{fill:url(#linear-gradient-29);}.cls-38{fill:url(#linear-gradient-30);}.cls-39{fill:url(#linear-gradient-31);}.cls-40{fill:url(#linear-gradient-32);}.cls-41{fill:url(#linear-gradient-33);}.cls-42{fill:url(#radial-gradient-6);}.cls-43{fill:url(#linear-gradient-34);}.cls-44{fill:url(#radial-gradient-7);}.cls-45{fill:url(#linear-gradient-35);}.cls-46{fill:url(#radial-gradient-8);}.cls-47{fill:url(#linear-gradient-36);}.cls-48{fill:url(#radial-gradient-9);}.cls-49,.cls-52{opacity:0.5;}.cls-50,.cls-52,.cls-53,.cls-54,.cls-56{fill:#7cb3bd;}.cls-54{opacity:0.4;}.cls-55{fill:#0f7f6f;}.cls-56{opacity:0.7;}.cls-57{opacity:0.2;}.cls-58{fill:url(#New_Gradient_Swatch_copy_13);}.cls-59{fill:#9db39e;}.cls-60{fill:url(#New_Gradient_Swatch_copy_12);}.cls-61{fill:url(#New_Gradient_Swatch_copy_12-2);}.cls-62{fill:url(#New_Gradient_Swatch_copy_12-3);}.cls-63{fill:url(#New_Gradient_Swatch_copy_12-4);}.cls-64{fill:url(#New_Gradient_Swatch_copy_12-5);}.cls-65{fill:url(#New_Gradient_Swatch_copy_14);}.cls-66{fill:url(#New_Gradient_Swatch_copy_13-2);}.cls-67{fill:#d3d4d1;}.cls-68{fill:url(#New_Gradient_Swatch_copy_13-3);}.cls-69{fill:url(#New_Gradient_Swatch_copy_12-6);}.cls-70{fill:url(#linear-gradient-37);}.cls-71{fill:url(#New_Gradient_Swatch_copy_12-7);}.cls-72{fill:url(#New_Gradient_Swatch_copy_8);}.cls-73{fill:url(#linear-gradient-38);}.cls-74{fill:url(#New_Gradient_Swatch_copy_8-2);}.cls-75{fill:url(#New_Gradient_Swatch_copy_10);}.cls-76{fill:#d1d3d4;}.cls-77{fill:url(#New_Gradient_Swatch_copy_8-3);}.cls-78{fill:url(#radial-gradient-10);}.cls-79{fill:url(#New_Gradient_Swatch_copy_17);}.cls-80{fill:url(#New_Gradient_Swatch_copy_8-4);}.cls-81{fill:url(#radial-gradient-11);}.cls-82{fill:url(#radial-gradient-12);}.cls-83{fill:url(#radial-gradient-13);}.cls-84{fill:url(#New_Gradient_Swatch_copy_17-2);}.cls-85{fill:url(#New_Gradient_Swatch_copy_8-5);}.cls-86{fill:url(#radial-gradient-14);}.cls-87{fill:url(#radial-gradient-15);}.cls-88{fill:url(#radial-gradient-16);}.cls-89{fill:url(#New_Gradient_Swatch_copy_17-3);}.cls-90{fill:url(#New_Gradient_Swatch_copy_8-6);}.cls-91{fill:url(#radial-gradient-17);}.cls-92{fill:url(#radial-gradient-18);}.cls-93{fill:url(#radial-gradient-19);}.cls-94{fill:url(#New_Gradient_Swatch_copy_17-4);}.cls-95{fill:url(#New_Gradient_Swatch_copy_8-7);}.cls-96{fill:url(#radial-gradient-20);}.cls-97{fill:url(#radial-gradient-21);}.cls-98{fill:url(#radial-gradient-22);}.cls-99{fill:url(#New_Gradient_Swatch_copy_17-5);}.cls-100{fill:url(#New_Gradient_Swatch_copy_8-8);}.cls-101{fill:url(#radial-gradient-23);}.cls-102{fill:url(#radial-gradient-24);}.cls-103{fill:url(#radial-gradient-25);}.cls-104{fill:url(#linear-gradient-39);}.cls-105{opacity:0.1;}.cls-106{fill:url(#linear-gradient-40);}.cls-107{fill:url(#linear-gradient-41);}.cls-108{fill:url(#New_Gradient_Swatch_copy_53);}.cls-109{fill:url(#linear-gradient-42);}.cls-110{fill:url(#linear-gradient-43);}.cls-111{fill:url(#radial-gradient-26);}.cls-112{fill:url(#linear-gradient-44);}.cls-113{fill:url(#linear-gradient-45);}.cls-114{fill:url(#linear-gradient-46);}.cls-115{fill:#bcafc7;}.cls-116{fill:url(#New_Gradient_Swatch_copy_52);}.cls-117{fill:url(#New_Gradient_Swatch_copy_52-2);}.cls-118{fill:url(#New_Gradient_Swatch_copy_52-3);}.cls-119{fill:url(#linear-gradient-47);}.cls-120{fill:url(#New_Gradient_Swatch_copy_52-4);}.cls-121{fill:url(#New_Gradient_Swatch_copy_53-2);}.cls-122{fill:url(#linear-gradient-48);}.cls-123{fill:url(#linear-gradient-49);}.cls-124{fill:url(#New_Gradient_Swatch_copy_52-5);}.cls-125{fill:url(#New_Gradient_Swatch_copy_52-6);}.cls-126{fill:url(#New_Gradient_Swatch_copy_52-7);}.cls-127{fill:url(#New_Gradient_Swatch_copy_52-8);}.cls-128{fill:url(#New_Gradient_Swatch_copy_52-9);}.cls-129{fill:url(#New_Gradient_Swatch_copy_52-10);}.cls-130{fill:url(#New_Gradient_Swatch_copy_52-11);}.cls-131{fill:url(#New_Gradient_Swatch_copy_52-12);}.cls-132{fill:url(#New_Gradient_Swatch_copy_52-13);}</style><radialGradient id="radial-gradient" cx="-1902.09" cy="404.57" r="240.01" gradientTransform="translate(1030.92 816.68) scale(0.95 1)" gradientUnits="userSpaceOnUse"><stop offset="0" stop-color="#00a99b" stop-opacity="0.61"/><stop offset="0.07" stop-color="#00a99b" stop-opacity="0.54"/><stop offset="0.35" stop-color="#00a99b" stop-opacity="0.31"/><stop offset="0.61" stop-color="#00a99b" stop-opacity="0.14"/><stop offset="0.84" stop-color="#00a99b" stop-opacity="0.04"/><stop offset="1" stop-color="#00a99b" stop-opacity="0"/></radialGradient><linearGradient id="linear-gradient" x1="-839.09" y1="994.2" x2="-718.94" y2="1202.32" gradientUnits="userSpaceOnUse"><stop offset="0.06" stop-color="#0d3c3a"/><stop offset="0.26" stop-color="#0e3e3b"/><stop offset="0.37" stop-color="#11463d"/><stop offset="0.44" stop-color="#165340"/><stop offset="0.47" stop-color="#195942"/><stop offset="0.48" stop-color="#1d5d46"/><stop offset="0.5" stop-color="#2a6b54"/><stop offset="0.51" stop-color="#3f8069"/><stop offset="0.53" stop-color="#5d9f88"/><stop offset="0.53" stop-color="#67a992"/><stop offset="0.53" stop-color="#65a68f"/><stop offset="0.56" stop-color="#44856e"/><stop offset="0.58" stop-color="#2c6d56"/><stop offset="0.61" stop-color="#1e5e47"/><stop offset="0.63" stop-color="#195942"/><stop offset="0.66" stop-color="#15503f"/><stop offset="0.75" stop-color="#0f413b"/><stop offset="0.81" stop-color="#0d3c3a"/><stop offset="1" stop-color="#0d3c3a"/></linearGradient><radialGradient id="radial-gradient-2" cx="-652.37" cy="1078.76" r="225.49" gradientUnits="userSpaceOnUse"><stop offset="0" stop-color="#1c2868"/><stop offset="0.17" stop-color="#1b2663"/><stop offset="0.38" stop-color="#162053"/><stop offset="0.61" stop-color="#10163a"/><stop offset="0.86" stop-color="#060917"/><stop offset="1"/></radialGradient><radialGradient id="radial-gradient-3" cx="-690.09" cy="1062.65" r="132.84" gradientUnits="userSpaceOnUse"><stop offset="0" stop-color="#83efcb"/><stop offset="1" stop-color="#05471c"/></radialGradient><linearGradient id="linear-gradient-2" x1="-679.38" y1="1186.13" x2="-1046.62" y2="1071.16" gradientUnits="userSpaceOnUse"><stop offset="0.19" stop-color="#064a57"/><stop offset="0.93" stop-color="#064a57"/></linearGradient><linearGradient id="linear-gradient-3" x1="-674.59" y1="1328.26" x2="-861.09" y2="934.19" gradientUnits="userSpaceOnUse"><stop offset="0" stop-color="#195942"/><stop offset="0.18" stop-color="#144d3f"/><stop offset="0.49" stop-color="#0d3c3a"/><stop offset="1" stop-color="#001c1b"/></linearGradient><linearGradient id="linear-gradient-4" x1="-811.28" y1="1163.17" x2="-694.16" y2="1163.17" xlink:href="#linear-gradient-3"/><linearGradient id="linear-gradient-5" x1="-824.52" y1="1026.27" x2="-646.32" y2="1366.05" gradientUnits="userSpaceOnUse"><stop offset="0.01" stop-color="#007d9d"/><stop offset="0.43" stop-color="#24ad8b"/><stop offset="0.9" stop-color="#064a57"/></linearGradient><linearGradient id="linear-gradient-6" x1="72.87" y1="11334.08" x2="93.83" y2="11334.08" gradientTransform="matrix(-0.5, 1.44, -0.87, 0.5, 9174.39, -4662.51)" xlink:href="#linear-gradient-3"/><linearGradient id="linear-gradient-7" x1="-677.21" y1="1125.07" x2="-691.66" y2="1124.45" gradientUnits="userSpaceOnUse"><stop offset="0" stop-color="#064a57"/><stop offset="1" stop-color="#24ad8b"/></linearGradient><radialGradient id="radial-gradient-4" cx="-684.47" cy="1118.91" r="8.49" xlink:href="#radial-gradient-2"/><linearGradient id="linear-gradient-8" x1="-876.29" y1="945" x2="-717.74" y2="1247.32" xlink:href="#linear-gradient-5"/><linearGradient id="linear-gradient-9" x1="-875.88" y1="946.13" x2="-718.11" y2="1246.98" xlink:href="#linear-gradient-5"/><linearGradient id="linear-gradient-10" x1="-875.48" y1="947.26" x2="-718.47" y2="1246.64" xlink:href="#linear-gradient-5"/><linearGradient id="linear-gradient-11" x1="-875.07" y1="948.39" x2="-718.84" y2="1246.29" xlink:href="#linear-gradient-5"/><linearGradient id="linear-gradient-12" x1="-874.67" y1="949.52" x2="-719.21" y2="1245.95" xlink:href="#linear-gradient-5"/><linearGradient id="linear-gradient-13" x1="-874.27" y1="950.65" x2="-719.58" y2="1245.6" xlink:href="#linear-gradient-5"/><linearGradient id="linear-gradient-14" x1="-873.86" y1="951.78" x2="-719.95" y2="1245.26" xlink:href="#linear-gradient-5"/><linearGradient id="linear-gradient-15" x1="-873.46" y1="952.91" x2="-720.32" y2="1244.92" xlink:href="#linear-gradient-5"/><linearGradient id="linear-gradient-16" x1="-873.05" y1="954.04" x2="-720.69" y2="1244.57" xlink:href="#linear-gradient-5"/><linearGradient id="linear-gradient-17" x1="-872.65" y1="955.17" x2="-721.06" y2="1244.23" xlink:href="#linear-gradient-5"/><linearGradient id="linear-gradient-18" x1="-872.24" y1="956.3" x2="-721.43" y2="1243.88" xlink:href="#linear-gradient-5"/><linearGradient id="linear-gradient-19" x1="-871.84" y1="957.43" x2="-721.79" y2="1243.54" xlink:href="#linear-gradient-5"/><linearGradient id="linear-gradient-20" x1="-872.47" y1="948.39" x2="-721.91" y2="1235.48" xlink:href="#linear-gradient-5"/><radialGradient id="radial-gradient-5" cx="-752.72" cy="1079.18" r="105.32" xlink:href="#radial-gradient-2"/><linearGradient id="linear-gradient-21" x1="-844.89" y1="1051.48" x2="-727.27" y2="1275.75" xlink:href="#linear-gradient-5"/><linearGradient id="linear-gradient-22" x1="-844.46" y1="1053.07" x2="-727.55" y2="1275.99" xlink:href="#linear-gradient-5"/><linearGradient id="linear-gradient-23" x1="-844.04" y1="1054.65" x2="-727.82" y2="1276.24" xlink:href="#linear-gradient-5"/><linearGradient id="linear-gradient-24" x1="-843.61" y1="1056.23" x2="-728.09" y2="1276.49" xlink:href="#linear-gradient-5"/><linearGradient id="linear-gradient-25" x1="-843.18" y1="1057.8" x2="-728.35" y2="1276.75" xlink:href="#linear-gradient-5"/><linearGradient id="linear-gradient-26" x1="-842.75" y1="1059.36" x2="-728.61" y2="1277.01" xlink:href="#linear-gradient-5"/><linearGradient id="linear-gradient-27" x1="-842.31" y1="1060.93" x2="-728.85" y2="1277.27" xlink:href="#linear-gradient-5"/><linearGradient id="linear-gradient-28" x1="-841.88" y1="1062.48" x2="-729.09" y2="1277.54" xlink:href="#linear-gradient-5"/><linearGradient id="linear-gradient-29" x1="-841.44" y1="1064.03" x2="-729.32" y2="1277.82" xlink:href="#linear-gradient-5"/><linearGradient id="linear-gradient-30" x1="-841" y1="1065.57" x2="-729.54" y2="1278.1" xlink:href="#linear-gradient-5"/><linearGradient id="linear-gradient-31" x1="-840.56" y1="1067.1" x2="-729.75" y2="1278.39" xlink:href="#linear-gradient-5"/><linearGradient id="linear-gradient-32" x1="-840.12" y1="1068.63" x2="-729.96" y2="1278.68" xlink:href="#linear-gradient-5"/><linearGradient id="linear-gradient-33" x1="-857.33" y1="1005.75" x2="-645.75" y2="1409.2" xlink:href="#linear-gradient-5"/><radialGradient id="radial-gradient-6" cx="-752.72" cy="1122.51" r="105.32" xlink:href="#radial-gradient-2"/><linearGradient id="linear-gradient-34" x1="-826.33" y1="1093.95" x2="-638.12" y2="1452.82" xlink:href="#linear-gradient-5"/><radialGradient id="radial-gradient-7" cx="-752.72" cy="1181.67" r="105.32" xlink:href="#radial-gradient-2"/><linearGradient id="linear-gradient-35" x1="-799.21" y1="1180.46" x2="-660.99" y2="1444.02" xlink:href="#linear-gradient-5"/><radialGradient id="radial-gradient-8" cx="-752.72" cy="1247.68" r="105.32" xlink:href="#radial-gradient-2"/><linearGradient id="linear-gradient-36" x1="-781.93" y1="1229.13" x2="-668.89" y2="1444.67" xlink:href="#linear-gradient-5"/><radialGradient id="radial-gradient-9" cx="-752.72" cy="1279.13" r="105.32" xlink:href="#radial-gradient-2"/><linearGradient id="New_Gradient_Swatch_copy_13" x1="173.12" y1="297.14" x2="167.86" y2="362.16" gradientUnits="userSpaceOnUse"><stop offset="0.04" stop-color="#2067ab"/><stop offset="0.27" stop-color="#2c6bba"/><stop offset="0.72" stop-color="#4c75e3"/><stop offset="1" stop-color="#637cff"/></linearGradient><linearGradient id="New_Gradient_Swatch_copy_12" x1="-778.88" y1="1185.6" x2="-847.96" y2="1317.25" gradientUnits="userSpaceOnUse"><stop offset="0.04" stop-color="#9db39e"/><stop offset="0.58" stop-color="#d1d8d7"/><stop offset="1" stop-color="#ebf2f1"/></linearGradient><linearGradient id="New_Gradient_Swatch_copy_12-2" x1="-778.88" y1="1183.56" x2="-847.96" y2="1315.21" xlink:href="#New_Gradient_Swatch_copy_12"/><linearGradient id="New_Gradient_Swatch_copy_12-3" x1="-778.88" y1="1181.52" x2="-847.96" y2="1313.17" xlink:href="#New_Gradient_Swatch_copy_12"/><linearGradient id="New_Gradient_Swatch_copy_12-4" x1="-778.88" y1="1179.37" x2="-847.96" y2="1311.02" xlink:href="#New_Gradient_Swatch_copy_12"/><linearGradient id="New_Gradient_Swatch_copy_12-5" x1="-778.88" y1="1177.11" x2="-847.96" y2="1308.76" xlink:href="#New_Gradient_Swatch_copy_12"/><linearGradient id="New_Gradient_Swatch_copy_14" x1="-848.12" y1="1292.95" x2="-872.45" y2="1331.9" gradientUnits="userSpaceOnUse"><stop offset="0.04" stop-color="#2067ab"/><stop offset="0.18" stop-color="#2c6bba"/><stop offset="0.46" stop-color="#4c75e3"/><stop offset="0.63" stop-color="#637cff"/><stop offset="0.87" stop-color="#486bdc"/></linearGradient><linearGradient id="New_Gradient_Swatch_copy_13-2" x1="-793.65" y1="1191.97" x2="-867.24" y2="1332.22" xlink:href="#New_Gradient_Swatch_copy_13"/><linearGradient id="New_Gradient_Swatch_copy_13-3" x1="-777.31" y1="1331.83" x2="-708.97" y2="1373.8" xlink:href="#New_Gradient_Swatch_copy_13"/><linearGradient id="New_Gradient_Swatch_copy_12-6" x1="-905.68" y1="1301.65" x2="-903.31" y2="1285.09" xlink:href="#New_Gradient_Swatch_copy_12"/><linearGradient id="linear-gradient-37" x1="153.88" y1="345.09" x2="160.44" y2="333.17" gradientUnits="userSpaceOnUse"><stop offset="0" stop-color="#096257"/><stop offset="0.53" stop-color="#108a7a"/><stop offset="1" stop-color="#17abab"/></linearGradient><linearGradient id="New_Gradient_Swatch_copy_12-7" x1="132.49" y1="333.39" x2="139.58" y2="320.52" xlink:href="#New_Gradient_Swatch_copy_12"/><linearGradient id="New_Gradient_Swatch_copy_8" x1="115.17" y1="331.32" x2="295.66" y2="290.86" gradientUnits="userSpaceOnUse"><stop offset="0.04" stop-color="#ffa98c"/><stop offset="0.32" stop-color="#ffb892"/><stop offset="0.86" stop-color="#fee1a3"/><stop offset="1" stop-color="#feeca8"/></linearGradient><linearGradient id="linear-gradient-38" x1="-846.62" y1="1268.25" x2="-868.65" y2="1303.55" gradientUnits="userSpaceOnUse"><stop offset="0.02" stop-color="#f9b696"/><stop offset="0.72" stop-color="#ffdaa7"/><stop offset="1" stop-color="#ffbb96"/></linearGradient><linearGradient id="New_Gradient_Swatch_copy_8-2" x1="-799.73" y1="1179.69" x2="-860.55" y2="1295.61" xlink:href="#New_Gradient_Swatch_copy_8"/><linearGradient id="New_Gradient_Swatch_copy_10" x1="-526.1" y1="1319.04" x2="-334.28" y2="1276.03" gradientTransform="translate(-377.75)" gradientUnits="userSpaceOnUse"><stop offset="0.04" stop-color="#9d9eb3"/><stop offset="0.58" stop-color="#d4d1d8"/><stop offset="1" stop-color="#eeebf2"/></linearGradient><linearGradient id="New_Gradient_Swatch_copy_8-3" x1="-906.58" y1="1319.56" x2="-708.72" y2="1275.21" xlink:href="#New_Gradient_Swatch_copy_8"/><radialGradient id="radial-gradient-10" cx="8724.73" cy="3565.35" r="18.99" gradientTransform="matrix(-0.5, -0.87, -0.5, 0.86, 5425.47, 5625)" gradientUnits="userSpaceOnUse"><stop offset="0" stop-color="#f5f6f8"/><stop offset="0.11" stop-color="#cfd0e0"/><stop offset="0.23" stop-color="#b0b1cd"/><stop offset="0.34" stop-color="#9a9bc0"/><stop offset="0.45" stop-color="#8d8eb8"/><stop offset="0.55" stop-color="#8889b5"/><stop offset="0.61" stop-color="#8f90b9"/><stop offset="0.71" stop-color="#a1a2c5"/><stop offset="0.82" stop-color="#c0c0d8"/><stop offset="0.94" stop-color="#eaeaf2"/><stop offset="1" stop-color="#fff"/></radialGradient><linearGradient id="New_Gradient_Swatch_copy_17" x1="-822.84" y1="1124.73" x2="-845.23" y2="1085.95" gradientTransform="translate(147.87)" gradientUnits="userSpaceOnUse"><stop offset="0.04" stop-color="#f7aa90"/><stop offset="0.23" stop-color="#f9b996"/><stop offset="0.61" stop-color="#ffe2a6"/><stop offset="0.63" stop-color="#ffe4a7"/><stop offset="0.87" stop-color="#f7aa90"/></linearGradient><linearGradient id="New_Gradient_Swatch_copy_8-4" x1="-844.61" y1="1121.07" x2="-824.83" y2="1086.97" gradientTransform="translate(593.21 574.48) rotate(30.31)" xlink:href="#New_Gradient_Swatch_copy_8"/><radialGradient id="radial-gradient-11" cx="15764.9" cy="6191.99" r="9.45" gradientTransform="matrix(0.49, -0.32, 0.36, 0.56, -10690.27, 2676.42)" gradientUnits="userSpaceOnUse"><stop offset="0" stop-color="#972a74"/><stop offset="0.04" stop-color="#8a266a"/><stop offset="0.19" stop-color="#601b4a"/><stop offset="0.35" stop-color="#3d112f"/><stop offset="0.51" stop-color="#230a1b"/><stop offset="0.67" stop-color="#0f040c"/><stop offset="0.83" stop-color="#040103"/><stop offset="1"/></radialGradient><radialGradient id="radial-gradient-12" cx="-687.12" cy="1108.88" r="15.91" gradientUnits="userSpaceOnUse"><stop offset="0" stop-color="#fff"/><stop offset="1"/></radialGradient><radialGradient id="radial-gradient-13" cx="8724.73" cy="3608.69" r="18.99" gradientTransform="matrix(-0.5, -0.87, -0.5, 0.86, 5447.21, 5630.89)" xlink:href="#radial-gradient-10"/><linearGradient id="New_Gradient_Swatch_copy_17-2" x1="-822.84" y1="1167.8" x2="-845.23" y2="1129.02" xlink:href="#New_Gradient_Swatch_copy_17"/><linearGradient id="New_Gradient_Swatch_copy_8-5" x1="-844.61" y1="1164.14" x2="-824.83" y2="1130.04" gradientTransform="translate(614.95 580.36) rotate(30.31)" xlink:href="#New_Gradient_Swatch_copy_8"/><radialGradient id="radial-gradient-14" cx="15725.12" cy="6246.49" r="9.45" xlink:href="#radial-gradient-11"/><radialGradient id="radial-gradient-15" cx="-687.12" cy="1151.95" r="15.91" xlink:href="#radial-gradient-12"/><radialGradient id="radial-gradient-16" cx="8724.73" cy="3669.04" r="18.99" gradientTransform="matrix(-0.5, -0.87, -0.5, 0.86, 5477.48, 5639.09)" xlink:href="#radial-gradient-10"/><linearGradient id="New_Gradient_Swatch_copy_17-3" x1="-822.84" y1="1227.77" x2="-845.23" y2="1188.99" xlink:href="#New_Gradient_Swatch_copy_17"/><linearGradient id="New_Gradient_Swatch_copy_8-6" x1="-844.61" y1="1224.11" x2="-824.83" y2="1190.02" gradientTransform="translate(645.22 588.56) rotate(30.31)" xlink:href="#New_Gradient_Swatch_copy_8"/><radialGradient id="radial-gradient-17" cx="15669.74" cy="6322.37" r="9.45" xlink:href="#radial-gradient-11"/><radialGradient id="radial-gradient-18" cx="-687.12" cy="1211.92" r="15.91" xlink:href="#radial-gradient-12"/><radialGradient id="radial-gradient-19" cx="8724.73" cy="3730.68" r="18.99" gradientTransform="matrix(-0.5, -0.87, -0.5, 0.86, 5508.39, 5647.46)" xlink:href="#radial-gradient-10"/><linearGradient id="New_Gradient_Swatch_copy_17-4" x1="-822.84" y1="1289.03" x2="-845.23" y2="1250.24" xlink:href="#New_Gradient_Swatch_copy_17"/><linearGradient id="New_Gradient_Swatch_copy_8-7" x1="-844.61" y1="1285.37" x2="-824.83" y2="1251.27" gradientTransform="translate(147.87)" xlink:href="#New_Gradient_Swatch_copy_8"/><radialGradient id="radial-gradient-20" cx="15613.17" cy="6399.87" r="9.45" xlink:href="#radial-gradient-11"/><radialGradient id="radial-gradient-21" cx="-687.12" cy="1273.18" r="15.91" xlink:href="#radial-gradient-12"/><radialGradient id="radial-gradient-22" cx="8724.73" cy="3770.49" r="18.99" gradientTransform="matrix(-0.5, -0.87, -0.5, 0.86, 5528.36, 5652.87)" xlink:href="#radial-gradient-10"/><linearGradient id="New_Gradient_Swatch_copy_17-5" x1="-822.84" y1="1328.6" x2="-845.23" y2="1289.81" xlink:href="#New_Gradient_Swatch_copy_17"/><linearGradient id="New_Gradient_Swatch_copy_8-8" x1="-844.61" y1="1324.94" x2="-824.83" y2="1290.84" gradientTransform="translate(147.87)" xlink:href="#New_Gradient_Swatch_copy_8"/><radialGradient id="radial-gradient-23" cx="15576.63" cy="6449.93" r="9.45" xlink:href="#radial-gradient-11"/><radialGradient id="radial-gradient-24" cx="-687.12" cy="1312.75" r="15.91" xlink:href="#radial-gradient-12"/><radialGradient id="radial-gradient-25" cx="174.15" cy="-1536.06" r="39.69" gradientTransform="translate(-36.85 1228.99) scale(1.2 0.62)" gradientUnits="userSpaceOnUse"><stop offset="0.19" stop-color="#575455"/><stop offset="1" stop-color="#fff"/></radialGradient><linearGradient id="linear-gradient-39" x1="-833.37" y1="1251.13" x2="-746.51" y2="1251.13" gradientTransform="translate(-54.82)" gradientUnits="userSpaceOnUse"><stop offset="0" stop-color="#4b0f7f"/><stop offset="0.15" stop-color="#54118e"/><stop offset="0.32" stop-color="#6113a4"/><stop offset="0.61" stop-color="#290547"/><stop offset="0.83" stop-color="#481e6b"/><stop offset="0.99" stop-color="#330858"/></linearGradient><linearGradient id="linear-gradient-40" x1="-888.61" y1="1257.86" x2="-888.6" y2="1257.86" gradientTransform="matrix(1, 0, 0, 1, 0, 0)" xlink:href="#linear-gradient-39"/><linearGradient id="linear-gradient-41" x1="-800.36" y1="1257.86" x2="-800.35" y2="1257.86" gradientTransform="matrix(1, 0, 0, 1, 0, 0)" xlink:href="#linear-gradient-39"/><linearGradient id="New_Gradient_Swatch_copy_53" x1="6122.71" y1="1158.94" x2="6192.63" y2="1233.91" gradientTransform="matrix(-1, 0, 0, 1, 6343.88, -982.95)" gradientUnits="userSpaceOnUse"><stop offset="0" stop-color="#290547"/><stop offset="1" stop-color="#4b0f7f"/></linearGradient><linearGradient id="linear-gradient-42" x1="-888.61" y1="1223.81" x2="-888.6" y2="1223.81" gradientTransform="matrix(1, 0, 0, 1, 0, 0)" xlink:href="#linear-gradient-39"/><linearGradient id="linear-gradient-43" x1="-800.36" y1="1223.81" x2="-800.35" y2="1223.81" gradientTransform="matrix(1, 0, 0, 1, 0, 0)" xlink:href="#linear-gradient-39"/><radialGradient id="radial-gradient-26" cx="176.24" cy="239" r="36.44" gradientTransform="matrix(1, 0, 0, 1, 0, 0)" xlink:href="#radial-gradient-25"/><linearGradient id="linear-gradient-44" x1="192.91" y1="259.04" x2="336.53" y2="216.03" gradientTransform="matrix(1, 0, 0, 1, 0, 0)" xlink:href="#New_Gradient_Swatch_copy_53"/><linearGradient id="linear-gradient-45" x1="42.6" y1="276.44" x2="231.43" y2="234.11" gradientTransform="matrix(1, 0, 0, 1, 0, 0)" xlink:href="#New_Gradient_Swatch_copy_53"/><linearGradient id="linear-gradient-46" x1="241.05" y1="97.74" x2="163.91" y2="244.78" gradientTransform="matrix(1, 0, 0, 1, 0, 0)" xlink:href="#New_Gradient_Swatch_copy_53"/><linearGradient id="New_Gradient_Swatch_copy_52" x1="-879.75" y1="1255.82" x2="-881.54" y2="1272.72" gradientUnits="userSpaceOnUse"><stop offset="0.04" stop-color="#ad785f"/><stop offset="0.18" stop-color="#af7a6e"/><stop offset="0.47" stop-color="#b68197"/><stop offset="0.86" stop-color="#c08bd8"/><stop offset="1" stop-color="#c48ff1"/></linearGradient><linearGradient id="New_Gradient_Swatch_copy_52-2" x1="-876.67" y1="1254.12" x2="-880.72" y2="1267.39" xlink:href="#New_Gradient_Swatch_copy_52"/><linearGradient id="New_Gradient_Swatch_copy_52-3" x1="-880.06" y1="1251.43" x2="-881.19" y2="1268.14" xlink:href="#New_Gradient_Swatch_copy_52"/><linearGradient id="linear-gradient-47" x1="-852.85" y1="1209.28" x2="-878.55" y2="1258.26" gradientUnits="userSpaceOnUse"><stop offset="0.04" stop-color="#eaa888"/><stop offset="0.16" stop-color="#e2a197"/><stop offset="0.39" stop-color="#cd8fc0"/><stop offset="0.64" stop-color="#b378f2"/><stop offset="0.87" stop-color="#eaa888"/></linearGradient><linearGradient id="New_Gradient_Swatch_copy_52-4" x1="-830.9" y1="1262.84" x2="-861.37" y2="1236.56" xlink:href="#New_Gradient_Swatch_copy_52"/><linearGradient id="New_Gradient_Swatch_copy_53-2" x1="172.43" y1="235.82" x2="166.44" y2="230.83" gradientTransform="matrix(1, 0, 0, 1, 0, 0)" xlink:href="#New_Gradient_Swatch_copy_53"/><linearGradient id="linear-gradient-48" x1="-849.63" y1="1217.76" x2="-849.63" y2="1217.76" gradientTransform="matrix(1, 0, 0, 1, 0, 0)" xlink:href="#linear-gradient-39"/><linearGradient id="linear-gradient-49" x1="-839.34" y1="1217.76" x2="-839.33" y2="1217.76" gradientTransform="matrix(1, 0, 0, 1, 0, 0)" xlink:href="#linear-gradient-39"/><linearGradient id="New_Gradient_Swatch_copy_52-5" x1="131.82" y1="272.26" x2="130.76" y2="287.99" xlink:href="#New_Gradient_Swatch_copy_52"/><linearGradient id="New_Gradient_Swatch_copy_52-6" x1="131.04" y1="269.22" x2="130.03" y2="284.27" xlink:href="#New_Gradient_Swatch_copy_52"/><linearGradient id="New_Gradient_Swatch_copy_52-7" x1="-1038.89" y1="739.85" x2="-1039.95" y2="755.58" gradientTransform="translate(1087.26 -572.06) rotate(-6.07)" xlink:href="#New_Gradient_Swatch_copy_52"/><linearGradient id="New_Gradient_Swatch_copy_52-8" x1="-1039.67" y1="736.81" x2="-1040.68" y2="751.86" gradientTransform="translate(1087.26 -572.06) rotate(-6.07)" xlink:href="#New_Gradient_Swatch_copy_52"/><linearGradient id="New_Gradient_Swatch_copy_52-9" x1="-1122.09" y1="324.5" x2="-1123.15" y2="340.24" gradientTransform="translate(1174.64 -255.26) rotate(-10.83)" xlink:href="#New_Gradient_Swatch_copy_52"/><linearGradient id="New_Gradient_Swatch_copy_52-10" x1="-1122.93" y1="321.94" x2="-1123.94" y2="336.98" gradientTransform="translate(1174.64 -255.26) rotate(-10.83)" xlink:href="#New_Gradient_Swatch_copy_52"/><linearGradient id="New_Gradient_Swatch_copy_52-11" x1="-877.96" y1="1258.78" x2="-882.61" y2="1253.46" xlink:href="#New_Gradient_Swatch_copy_52"/><linearGradient id="New_Gradient_Swatch_copy_52-12" x1="-872.24" y1="1262.15" x2="-881.73" y2="1254.75" xlink:href="#New_Gradient_Swatch_copy_52"/><linearGradient id="New_Gradient_Swatch_copy_52-13" x1="-877.04" y1="1259.8" x2="-881.68" y2="1254.1" xlink:href="#New_Gradient_Swatch_copy_52"/></defs><g class="cls-1"><g id="Layer_4" data-name="Layer 4"><ellipse class="cls-2" cx="-781.97" cy="1221.25" rx="228.75" ry="240.01" transform="translate(269.46 -1211.36) rotate(-31.15)"/><path class="cls-3" d="M-697.95,1333.11l-92-53.11c-10.38-6-18.79-22.06-18.79-35.9v-245c0-7-5.78-8.59-2.28-11.12.13-.1,8.21-3.77,8.36-3.83,3.77-1.44,7.81-2.08,12.71.74l92,53.11c10.38,6,18.79,22.07,18.79,35.9v245c0,7.36-2.37,12.6-6.15,15-.23.15-10,4.78-10.21,4.86C-698.87,1339.87-693.41,1335.73-697.95,1333.11Z" transform="translate(1013.82 -982.95)"/><path class="cls-4" d="M-698.79,1038.32l-92-53.11c-4.9-2.83,86.9,54.8,86.9,54.8,10.38,6,18.79,22.06,18.79,35.9,0,0,5.09,250.63,5.09,243.28v-245C-680,1060.38-688.42,1044.31-698.79,1038.32Z" transform="translate(1013.82 -982.95)"/><path class="cls-5" d="M-705.09,1336.37l-92-53.1c-10.37-6-18.79-22.07-18.79-35.9v-245c0-13.84,8.42-20.2,18.79-14.21l92,53.11c10.38,6,18.79,22.06,18.79,35.9v245C-686.3,1336-694.71,1342.37-705.09,1336.37Z" transform="translate(1013.82 -982.95)"/><path class="cls-6" d="M-706.73,1337.26l-92-53.11c-10.38-6-18.79-22.06-18.79-35.9v-245c0-13.84,8.41-20.19,18.79-14.2l92,53.11c10.38,6,18.79,22.06,18.79,35.89v245C-687.94,1336.89-696.35,1343.25-706.73,1337.26Z" transform="translate(1013.82 -982.95)"/><path class="cls-7" d="M-814.94,1249.88V1004.61c0-12.13,7.37-17.7,16.47-12.45L-707,1045c9.09,5.26,16.47,19.34,16.47,31.47v245.28c0,12.13-7.38,17.7-16.47,12.45l-91.5-52.83C-807.57,1276.1-814.94,1262-814.94,1249.88Z" transform="translate(1013.82 -982.95)"/><path class="cls-8" d="M-811.28,1251.37v-244c0-10.15,6.17-14.82,13.79-10.42l89.54,51.7c7.62,4.4,13.79,16.19,13.79,26.34v244c0,10.15-6.17,14.82-13.79,10.43l-89.54-51.7C-805.11,1273.32-811.28,1261.53-811.28,1251.37Z" transform="translate(1013.82 -982.95)"/><path class="cls-9" d="M-796.46,999.62c-7.17-4.14-13-.83-13,7.41V1253.8c0,8.24,5.82,18.27,13,22.41l87.48,50.51c7.17,4.14,13,.82,13-7.41V1072.53c0-8.23-5.82-18.27-13-22.41Z" transform="translate(1013.82 -982.95)"/><path class="cls-10" d="M-685.47,1134.76v-16.53a6.9,6.9,0,0,1,2.87-5.49h0c1.59-.92,2.87.06,2.87,2.17v16.54a6.88,6.88,0,0,1-2.87,5.49h0C-684.18,1137.85-685.47,1136.88-685.47,1134.76Z" transform="translate(1013.82 -982.95)"/><path class="cls-11" d="M-683.74,1136.66c-.82,0-1.11-1-1.11-1.9v-16.53a6.3,6.3,0,0,1,2.56-5,1.76,1.76,0,0,1,.83-.26c.82,0,1.11,1,1.11,1.89v16.54a6.3,6.3,0,0,1-2.56,5A1.7,1.7,0,0,1-683.74,1136.66Z" transform="translate(1013.82 -982.95)"/><path class="cls-12" d="M-684,1135.19v-16.54a6.3,6.3,0,0,1,2.56-5,1.78,1.78,0,0,1,.74-.24.88.88,0,0,0-.76-.44,1.76,1.76,0,0,0-.83.26,6.3,6.3,0,0,0-2.56,5v16.53c0,.88.29,1.9,1.11,1.9l.1,0A2.65,2.65,0,0,1-684,1135.19Z" transform="translate(1013.82 -982.95)"/><g class="cls-13"><path class="cls-14" d="M-796.24,1044.61c-7.56-4.36-13.69-.87-13.69,7.8V1249.5c0,8.67,6.13,19.24,13.69,23.6l92.11,53.18c7.56,4.37,13.68.87,13.68-7.8V1121.39c0-8.67-6.12-19.23-13.68-23.6Z" transform="translate(1013.82 -982.95)"/><path class="cls-15" d="M-796.23,1045.26c-7.52-4.35-13.62-.87-13.62,7.76v196.13c0,8.62,6.1,19.14,13.62,23.48l91.67,52.92c7.51,4.35,13.61.87,13.61-7.76V1121.66c0-8.62-6.1-19.14-13.61-23.48Z" transform="translate(1013.82 -982.95)"/><path class="cls-16" d="M-796.22,1045.9c-7.48-4.32-13.54-.86-13.54,7.73v195.16c0,8.59,6.06,19,13.54,23.37l91.22,52.66c7.48,4.32,13.55.87,13.55-7.72V1121.93c0-8.58-6.07-19-13.55-23.37Z" transform="translate(1013.82 -982.95)"/><path class="cls-17" d="M-796.2,1046.55c-7.45-4.3-13.48-.86-13.48,7.68v194.21c0,8.54,6,19,13.48,23.25l90.76,52.41c7.45,4.29,13.49.85,13.49-7.69V1122.2c0-8.54-6-19-13.49-23.25Z" transform="translate(1013.82 -982.95)"/><path class="cls-18" d="M-796.19,1047.19c-7.41-4.28-13.41-.85-13.41,7.65v193.24c0,8.5,6,18.86,13.41,23.14l90.32,52.15c7.41,4.27,13.41.85,13.41-7.65V1122.47c0-8.5-6-18.86-13.41-23.13Z" transform="translate(1013.82 -982.95)"/><path class="cls-19" d="M-796.17,1047.84c-7.38-4.26-13.35-.85-13.35,7.61v192.28c0,8.46,6,18.77,13.35,23l89.86,51.89c7.38,4.25,13.35.85,13.35-7.61V1122.74c0-8.45-6-18.76-13.35-23Z" transform="translate(1013.82 -982.95)"/><path class="cls-20" d="M-796.16,1048.48c-7.34-4.24-13.28-.84-13.28,7.57v191.32c0,8.42,5.94,18.68,13.28,22.91l89.42,51.63c7.33,4.23,13.28.84,13.28-7.57V1123c0-8.42-5.95-18.68-13.28-22.91Z" transform="translate(1013.82 -982.95)"/><path class="cls-21" d="M-796.15,1049.12c-7.29-4.21-13.21-.84-13.21,7.54V1247c0,8.37,5.92,18.58,13.21,22.79l89,51.37c7.3,4.21,13.22.84,13.22-7.54V1123.29c0-8.38-5.92-18.58-13.22-22.8Z" transform="translate(1013.82 -982.95)"/><path class="cls-22" d="M-796.13,1049.77c-7.26-4.19-13.15-.84-13.15,7.5v189.39c0,8.34,5.89,18.49,13.15,22.68l88.52,51.11c7.26,4.19,13.15.84,13.15-7.5V1123.56c0-8.34-5.89-18.49-13.15-22.68Z" transform="translate(1013.82 -982.95)"/><path class="cls-23" d="M-796.12,1050.41c-7.22-4.17-13.08-.83-13.08,7.46v188.44c0,8.29,5.86,18.39,13.08,22.56l88.07,50.85c7.23,4.17,13.08.83,13.08-7.46V1123.83c0-8.29-5.85-18.4-13.08-22.57Z" transform="translate(1013.82 -982.95)"/><path class="cls-24" d="M-796.1,1051.06c-7.19-4.15-13-.83-13,7.42V1246c0,8.25,5.83,18.3,13,22.45l87.62,50.59c7.19,4.15,13,.83,13-7.42V1124.1c0-8.25-5.82-18.3-13-22.45Z" transform="translate(1013.82 -982.95)"/><path class="cls-25" d="M-796.09,1051.7c-7.15-4.12-12.95-.82-12.95,7.39V1245.6c0,8.21,5.8,18.2,12.95,22.33l87.17,50.33c7.15,4.13,12.95.83,12.95-7.38V1124.37c0-8.21-5.8-18.21-12.95-22.34Z" transform="translate(1013.82 -982.95)"/></g><path class="cls-26" d="M-796.46,1043c-7.17-4.15-13-.83-13,7.4v187.16c0,8.24,5.82,18.27,13,22.41l87.48,50.51c7.17,4.14,13,.82,13-7.41V1115.9c0-8.23-5.82-18.27-13-22.41Z" transform="translate(1013.82 -982.95)"/><path class="cls-27" d="M-709,1093.49l-87.48-50.5c-7.17-4.15-13-.83-13,7.4v1.26c0-8.23,5.82-11.55,13-7.41l87.48,50.51c7.17,4.14,13,14.17,13,22.41v-1.26C-696,1107.67-701.81,1097.63-709,1093.49Z" transform="translate(1013.82 -982.95)"/><path class="cls-28" d="M-715.94,1061.86l11.35,6.56c.44.25.79,0,.79-.45a1.71,1.71,0,0,0-.79-1.35l-11.35-6.56c-.44-.25-.79,0-.79.45A1.72,1.72,0,0,0-715.94,1061.86Zm11.35,8.8-11.35-6.55c-.44-.25-.79,0-.79.44a1.71,1.71,0,0,0,.79,1.35l11.35,6.56c.44.25.79,0,.79-.44A1.72,1.72,0,0,0-704.59,1070.66Zm0,4-11.35-6.56c-.44-.25-.79-.05-.79.45a1.72,1.72,0,0,0,.79,1.35l11.35,6.56c.44.25.79,0,.79-.45A1.71,1.71,0,0,0-704.59,1074.71Z" transform="translate(1013.82 -982.95)"/><path class="cls-28" d="M-785.54,1022.63c0,1.2-.85,1.68-1.89,1.08a4.18,4.18,0,0,1-1.9-3.27c0-1.19.85-1.68,1.9-1.07A4.17,4.17,0,0,1-785.54,1022.63Z" transform="translate(1013.82 -982.95)"/><path class="cls-28" d="M-791.25,1019.31c0,1.2-.85,1.68-1.89,1.08a4.17,4.17,0,0,1-1.89-3.26c0-1.2.85-1.68,1.89-1.08A4.17,4.17,0,0,1-791.25,1019.31Z" transform="translate(1013.82 -982.95)"/><path class="cls-28" d="M-796.95,1016c0,1.2-.85,1.68-1.9,1.08a4.2,4.2,0,0,1-1.89-3.27c0-1.2.85-1.68,1.89-1.08A4.18,4.18,0,0,1-796.95,1016Z" transform="translate(1013.82 -982.95)"/><path class="cls-28" d="M-752.61,1036.07c-1.18-.69-2.14-.14-2.14,1.22a4.74,4.74,0,0,0,2.14,3.69c1.18.68,2.14.13,2.14-1.22A4.71,4.71,0,0,0-752.61,1036.07Zm-15.1,8.6c-1.18-.68-2.14-.13-2.14,1.22a4.71,4.71,0,0,0,2.14,3.69c1.18.69,2.14.14,2.14-1.22A4.74,4.74,0,0,0-767.71,1044.67Zm30.2,17.44c-1.19-.69-2.14-.14-2.14,1.22a4.71,4.71,0,0,0,2.14,3.69c1.18.68,2.14.13,2.14-1.22A4.71,4.71,0,0,0-737.51,1062.11Zm.2-1.66c2.13-.18,2.86-2.89,1.63-6s-4-5.57-6.09-5.38-2.86,2.88-1.63,6S-739.44,1060.63-737.31,1060.45Zm-5.9-13c.59-.84.24-2.54-.78-3.81s-2.34-1.62-2.93-.79-.24,2.54.79,3.81S-743.8,1048.33-743.21,1047.5Zm-18-13.76c-1,.09-1.37,1.39-.78,2.9s1.9,2.68,2.92,2.59,1.37-1.39.78-2.9S-760.21,1033.65-761.23,1033.74Zm-6.31,3.6c-.59.83-.24,2.53.78,3.8s2.34,1.63,2.93.79.24-2.54-.79-3.8S-766.95,1036.5-767.54,1037.34Z" transform="translate(1013.82 -982.95)"/><g class="cls-13"><path class="cls-29" d="M-796.24,1132.57c-7.56-4.36-13.69-.87-13.69,7.8v111c0,8.67,6.13,19.24,13.69,23.6l92.11,53.18c7.56,4.36,7.73-2.46,7.73-11.13V1206c0-8.67-.17-15.91-7.73-20.27Z" transform="translate(1013.82 -982.95)"/><path class="cls-30" d="M-796.23,1133.74c-7.52-4.34-13.62-.86-13.62,7.77v110.06c0,8.63,6.1,19.14,13.62,23.48l91.67,52.93c7.51,4.34,8.2-2.16,8.2-10.79V1207.12c0-8.62-.69-16.11-8.2-20.45Z" transform="translate(1013.82 -982.95)"/><path class="cls-31" d="M-796.22,1134.91c-7.48-4.32-13.54-.86-13.54,7.73v109.1c0,8.59,6.06,19,13.54,23.37l91.22,52.66c7.48,4.32,8.67-1.86,8.67-10.45v-109.1c0-8.58-1.19-16.32-8.67-20.64Z" transform="translate(1013.82 -982.95)"/><path class="cls-32" d="M-796.2,1136.08c-7.45-4.3-13.48-.85-13.48,7.69v108.14c0,8.55,6,19,13.48,23.26l90.76,52.4c7.45,4.3,9.15-1.56,9.15-10.11V1209.32c0-8.54-1.7-16.53-9.15-20.83Z" transform="translate(1013.82 -982.95)"/><path class="cls-33" d="M-796.19,1137.25c-7.41-4.27-13.41-.85-13.41,7.65v107.18c0,8.5,6,18.86,13.41,23.14l90.32,52.15c7.41,4.27,9.62-1.27,9.62-9.77V1210.42c0-8.5-2.21-16.74-9.62-21Z" transform="translate(1013.82 -982.95)"/><path class="cls-34" d="M-796.17,1138.42c-7.38-4.25-13.35-.85-13.35,7.61v106.22c0,8.46,6,18.77,13.35,23l89.86,51.88c7.38,4.26,10.1-1,10.1-9.42V1211.52c0-8.46-2.72-17-10.1-21.21Z" transform="translate(1013.82 -982.95)"/><path class="cls-35" d="M-796.16,1139.59c-7.34-4.23-13.28-.84-13.28,7.58v105.25c0,8.42,5.94,18.68,13.28,22.91l89.42,51.63c7.33,4.23,10.57-.67,10.57-9.09V1212.61c0-8.41-3.24-17.16-10.57-21.39Z" transform="translate(1013.82 -982.95)"/><path class="cls-36" d="M-796.15,1140.76c-7.29-4.21-13.21-.84-13.21,7.54v104.29c0,8.38,5.92,18.58,13.21,22.8l89,51.36c7.3,4.22,11-.37,11-8.74v-104.3c0-8.37-3.75-17.37-11-21.58Z" transform="translate(1013.82 -982.95)"/><path class="cls-37" d="M-796.13,1141.93c-7.26-4.19-13.15-.83-13.15,7.5v103.33c0,8.34,5.89,18.49,13.15,22.68l88.52,51.11c7.26,4.19,11.52-.07,11.52-8.4V1214.81c0-8.33-4.26-17.58-11.52-21.77Z" transform="translate(1013.82 -982.95)"/><path class="cls-38" d="M-796.12,1143.1c-7.22-4.17-13.08-.83-13.08,7.46v102.37c0,8.29,5.86,18.4,13.08,22.57l88.07,50.85c7.23,4.17,12,.22,12-8.07V1215.91c0-8.29-4.77-17.79-12-22Z" transform="translate(1013.82 -982.95)"/><path class="cls-39" d="M-796.1,1144.27c-7.19-4.15-13-.83-13,7.42V1253.1c0,8.25,5.83,18.3,13,22.45l87.62,50.59c7.19,4.15,12.47.53,12.47-7.72V1217c0-8.25-5.28-18-12.47-22.15Z" transform="translate(1013.82 -982.95)"/><path class="cls-40" d="M-796.09,1145.44c-7.15-4.13-12.95-.82-12.95,7.38v100.46c0,8.2,5.8,18.2,12.95,22.33l87.17,50.33c7.15,4.13,12.95.82,12.95-7.38V1218.1c0-8.2-5.8-18.2-12.95-22.33Z" transform="translate(1013.82 -982.95)"/></g><path class="cls-41" d="M-796.46,1086.32c-7.17-4.15-13-.83-13,7.4v157.49c0,8.23,5.82,18.26,13,22.41l87.48,50.5c7.17,4.14,13,.82,13-7.41V1159.23c0-8.23-5.82-18.27-13-22.41Z" transform="translate(1013.82 -982.95)"/><path class="cls-42" d="M-709,1136.82l-87.48-50.5c-7.17-4.15-13-.83-13,7.4V1095c0-8.23,5.82-11.55,13-7.41l87.48,50.51c7.17,4.14,13,14.17,13,22.41v-1.26C-696,1151-701.81,1141-709,1136.82Z" transform="translate(1013.82 -982.95)"/><path class="cls-43" d="M-796.46,1145.47c-7.17-4.14-13-.82-13,7.41v97.33c0,8.23,5.82,18.26,13,22.41l87.48,50.5c7.17,4.14,13,.83,13-7.41v-97.32c0-8.24-5.82-18.27-13-22.42Z" transform="translate(1013.82 -982.95)"/><path class="cls-44" d="M-709,1196l-87.48-50.5c-7.17-4.14-13-.82-13,7.41v1.26c0-8.24,5.82-11.55,13-7.41l87.48,50.5c7.17,4.14,13,14.18,13,22.41v-1.25C-696,1210.15-701.81,1200.12-709,1196Z" transform="translate(1013.82 -982.95)"/><path class="cls-45" d="M-796.46,1211.49c-7.17-4.14-13-.82-13,7.41v34.9c0,8.24,5.82,18.27,13,22.41l87.48,50.51c7.17,4.14,13,.82,13-7.41v-34.9c0-8.24-5.82-18.27-13-22.42Z" transform="translate(1013.82 -982.95)"/><path class="cls-46" d="M-709,1262l-87.48-50.5c-7.17-4.14-13-.82-13,7.41v1.26c0-8.24,5.82-11.55,13-7.41l87.48,50.5c7.17,4.14,13,14.18,13,22.41v-1.25C-696,1276.17-701.81,1266.14-709,1262Z" transform="translate(1013.82 -982.95)"/><path class="cls-47" d="M-796.46,1242.94c-7.17-4.14-13-.83-13,7.41v3.45c0,8.24,5.82,18.27,13,22.41l87.48,50.51c7.17,4.14,13,.82,13-7.41v-3.46c0-8.23-5.82-18.26-13-22.41Z" transform="translate(1013.82 -982.95)"/><path class="cls-48" d="M-709,1293.44l-87.48-50.5c-7.17-4.14-13-.83-13,7.41v1.26c0-8.24,5.82-11.56,13-7.41l87.48,50.5c7.17,4.14,13,14.18,13,22.41v-1.26C-696,1307.62-701.81,1297.59-709,1293.44Z" transform="translate(1013.82 -982.95)"/><g class="cls-49"><path class="cls-50" d="M-788.73,1064.91l20,11.57c.34.2.45-.27.15-.62L-778.71,1064l-10.17.09C-789.18,1064.12-789.07,1064.71-788.73,1064.91Z" transform="translate(1013.82 -982.95)"/><path class="cls-50" d="M-770,1077.31c.32.18.57,0,.57-.32v-.56l-18.46-10.66v.56a1.24,1.24,0,0,0,.57,1l.76.44v11.08l-.57-.33c-.32-.18-.57,0-.57.33v.88l18.08,10.44v-.88a1.27,1.27,0,0,0-.57-1l-.57-.32v-11.09Zm-3.54,9-10.24-5.92v-11.08l10.24,5.92Z" transform="translate(1013.82 -982.95)"/><path class="cls-50" d="M-768.89,1091l-19.63-11.34c-.32-.18-.57,0-.57.33v.88l20.76,12V1092A1.25,1.25,0,0,0-768.89,1091Z" transform="translate(1013.82 -982.95)"/></g><g class="cls-51"><path class="cls-50" d="M-762.31,1080.29l20,11.58c.34.19.45-.27.15-.62l-10.17-11.84-10.17.09C-762.76,1079.51-762.65,1080.1-762.31,1080.29Z" transform="translate(1013.82 -982.95)"/><path class="cls-50" d="M-743.63,1092.7c.31.18.57,0,.57-.33v-.56l-18.46-10.66v.56a1.27,1.27,0,0,0,.57,1l.76.43v11.09l-.57-.33c-.32-.18-.57,0-.57.32v.89l18.08,10.44v-.89a1.24,1.24,0,0,0-.57-1l-.57-.33v-11.08Zm-3.54,9-10.24-5.92v-11.08l10.24,5.91Z" transform="translate(1013.82 -982.95)"/><path class="cls-50" d="M-742.48,1106.35-762.11,1095c-.31-.18-.57,0-.57.32v.89l20.77,12v-.88A1.24,1.24,0,0,0-742.48,1106.35Z" transform="translate(1013.82 -982.95)"/></g><g class="cls-49"><path class="cls-50" d="M-735.89,1095.83l20,11.57c.34.19.45-.27.15-.62l-10.17-11.84-10.17.1C-736.35,1095-736.23,1095.63-735.89,1095.83Z" transform="translate(1013.82 -982.95)"/><path class="cls-50" d="M-717.21,1108.23c.31.18.57,0,.57-.33v-.56l-18.46-10.65v.56a1.24,1.24,0,0,0,.57,1l.75.44v11.08l-.56-.33c-.32-.18-.57,0-.57.32v.89l18.08,10.44v-.89a1.26,1.26,0,0,0-.57-1l-.57-.33v-11.08Zm-3.54,9-10.25-5.92v-11.08l10.25,5.92Z" transform="translate(1013.82 -982.95)"/><path class="cls-50" d="M-716.06,1121.88l-19.63-11.33c-.31-.18-.57,0-.57.33v.88l20.77,12v-.88A1.27,1.27,0,0,0-716.06,1121.88Z" transform="translate(1013.82 -982.95)"/></g><path class="cls-52" d="M-779.75,1072.82l2,1.14,1.51,9.61-1.45-.84-.27-1.89v0l-1.64-.95-.27,1.56-1.34-.78Zm1.58,6.76-.64-4.69,0,0-.63,4Z" transform="translate(1013.82 -982.95)"/><path class="cls-53" d="M-754,1087.83l2.19,1.26a4.68,4.68,0,0,1,1.63,1.44,3.28,3.28,0,0,1,.52,1.81v.35a1.53,1.53,0,0,1-.24,1,.67.67,0,0,1-.7.21v0a3.17,3.17,0,0,1,1.08,2.45v.75c0,.67-.19,1.08-.56,1.22a2.1,2.1,0,0,1-1.64-.42l-2.28-1.32Zm2,4.72c.29.17.5.23.65.17s.22-.25.22-.59v-.48a1.57,1.57,0,0,0-.18-.79,1.53,1.53,0,0,0-.56-.54l-.7-.4v2.31Zm.26,4.09a.7.7,0,0,0,.57.14q.18-.09.18-.57v-.76a1.74,1.74,0,0,0-.22-1,1.89,1.89,0,0,0-.71-.65l-.65-.37v2.68Z" transform="translate(1013.82 -982.95)"/><path class="cls-52" d="M-727.28,1112.06a3.55,3.55,0,0,1-.54-1.9v-4.7c0-.68.18-1.1.54-1.27a1.88,1.88,0,0,1,1.59.36,4.38,4.38,0,0,1,1.59,1.48,3.56,3.56,0,0,1,.55,1.9v.92l-1.37-.79v-1a1.35,1.35,0,0,0-.73-1.23q-.72-.42-.72.39v4.89a1.34,1.34,0,0,0,.72,1.22c.48.27.73.15.73-.39v-1.33l1.37.79v1.24c0,.68-.19,1.1-.55,1.27s-.89,0-1.59-.36A4.47,4.47,0,0,1-727.28,1112.06Z" transform="translate(1013.82 -982.95)"/><path class="cls-54" d="M-709.23,1112.76v11.87l6.41-2.24Zm-86.31-38.4v-11.87l-6.41,2.23Z" transform="translate(1013.82 -982.95)"/><path class="cls-55" d="M-718.82,1151.94l-66-37.84a5,5,0,0,1-2.1-4v-4.2c0-1.55.94-2.27,2.1-1.6l66,37.84a5,5,0,0,1,2.11,4v4.21C-716.71,1151.9-717.65,1152.61-718.82,1151.94Z" transform="translate(1013.82 -982.95)"/><path class="cls-55" d="M-718.82,1166.89l-66-37.84a5,5,0,0,1-2.1-4v-4.2c0-1.56.94-2.27,2.1-1.6l66,37.84a5,5,0,0,1,2.11,4v4.2C-716.71,1166.85-717.65,1167.56-718.82,1166.89Z" transform="translate(1013.82 -982.95)"/><path class="cls-55" d="M-718.82,1182.08l-66-37.84a5,5,0,0,1-2.1-4V1136c0-1.55.94-2.26,2.1-1.59l66,37.84a5,5,0,0,1,2.11,4v4.2C-716.71,1182-717.65,1182.75-718.82,1182.08Z" transform="translate(1013.82 -982.95)"/><path class="cls-56" d="M-788,1167.94c3.34,1.93,6,2.82,6,2s-2.71-3.07-6-5-6.05-2.82-6.05-2S-791.36,1166-788,1167.94Zm0,1c-3.34-1.93-6.05-4.17-6.05-5v2.5h0c0,.83,2.71,3.07,6.05,5s6,2.81,6,2h0v-2.51C-782,1171.77-784.68,1170.88-788,1169Zm0,3.44c-3.34-1.93-6.05-4.17-6.05-5v2.5h0c0,.84,2.71,3.08,6.05,5s6,2.81,6,2h0v-2.5C-782,1175.2-784.68,1174.32-788,1172.39Zm0,3.44c-3.34-1.93-6.05-4.17-6.05-5v2.51h0c0,.84,2.71,3.08,6.05,5s6,2.82,6,2h0v-2.5C-782,1178.64-784.68,1177.76-788,1175.83Zm0,3.42c-3.34-1.93-6.05-4.17-6.05-5v2.5h0c0,.84,2.71,3.08,6.05,5s6,2.81,6,2h0v-2.5C-782,1182.06-784.68,1181.18-788,1179.25Z" transform="translate(1013.82 -982.95)"/><path class="cls-56" d="M-782,1197.72l-12-6.94c-.74-.42-1.34-.08-1.34.76v8.14A3,3,0,0,0-794,1202l12,6.93c.74.42,1.34.08,1.34-.76V1200A2.92,2.92,0,0,0-782,1197.72Zm.7,10.92-4.73-7.26-2,1-2-3.32-4.74,1.8,4.27-2.59-4.37-7.39,6.81,10.23s6.82-2.35,6.83-2.34l-4.39,2.32C-785.14,1201.89-781.31,1208.64-781.32,1208.64Z" transform="translate(1013.82 -982.95)"/><path class="cls-56" d="M-737.57,1227.13l-4.95-6.85c-.44-.62-1.06-.61-1.06,0v8c0,.62.62,1.34,1.06,1.24l4.95-1.14C-737.19,1228.31-737.19,1227.66-737.57,1227.13Zm-3.53-9.82c-4-2.34-7.34-.46-7.34,4.18a16.2,16.2,0,0,0,7.34,12.66c4,2.33,7.34.46,7.34-4.19A16.19,16.19,0,0,0-741.1,1217.31Zm0,15.78a14.16,14.16,0,0,1-6.42-11.07c0-4.06,2.88-5.7,6.42-3.66a14.17,14.17,0,0,1,6.42,11.07C-734.68,1233.5-737.56,1235.14-741.1,1233.09Z" transform="translate(1013.82 -982.95)"/><path class="cls-56" d="M-725.6,1238.92l14.68,8.47V1234.8Zm12.09,4-4.3-2.48,4.3-1.21Zm.85,2.41c0-.17.12-.24.28-.15a.59.59,0,0,1,.27.47v.69l-.55-.31Zm-1.37-.79c0-.17.12-.24.27-.16a.6.6,0,0,1,.28.48v.69l-.55-.31Zm-1.37-.79c0-.18.12-.25.27-.16a.62.62,0,0,1,.28.48v.69l-.55-.32Zm-1.37-.79c0-.18.12-.25.27-.16a.61.61,0,0,1,.27.47v.7l-.54-.32Zm-1.38-.8c0-.17.13-.24.28-.15a.61.61,0,0,1,.27.47v.7l-.55-.32Zm-1.37-.79c0-.17.12-.24.28-.15a.59.59,0,0,1,.27.47v.69l-.55-.31Zm-1.35-.78c0-.17.12-.24.27-.16a.62.62,0,0,1,.28.48v.69l-.55-.31Zm-1.37-.1v-.69c0-.18.12-.25.27-.16a.61.61,0,0,1,.27.48v.69Z" transform="translate(1013.82 -982.95)"/><path class="cls-56" d="M-758.13,1182.77l-.63-.37v1.06c0,.87-.61,1.22-1.37.78a3,3,0,0,1-1.38-2.37v-1l-5.5-3.18v1c0,.87-.62,1.22-1.38.78a3,3,0,0,1-1.37-2.37v-1l-.63-.36c-.66-.39-1.21-.08-1.21.68v10.39a2.68,2.68,0,0,0,1.21,2.08l12.26,7.08c.67.38,1.21.08,1.21-.68v-10.4A2.63,2.63,0,0,0-758.13,1182.77Zm.29,12.27-12.84-7.42v-8.94l12.84,7.41Zm-6.88-12.39-2.29-1.33v1.58l2.29,1.32Zm3.21,1.85-2.29-1.33v1.58l2.29,1.33Zm3.21,1.85-2.29-1.32v1.58l2.29,1.32Zm-9.63-3.45-2.29-1.33v1.58l2.29,1.33Zm3.21,1.85-2.29-1.32V1185l2.29,1.33Zm3.21,1.85-2.29-1.32v1.58l2.29,1.32Zm3.21,1.86-2.29-1.33v1.58l2.29,1.32Zm-9.63-3.46-2.29-1.32v1.58l2.29,1.32Zm3.21,1.85-2.29-1.32v1.58l2.29,1.32Zm3.21,1.86-2.29-1.33V1189l2.29,1.33Zm3.21,1.85-2.29-1.32v1.58l2.29,1.32Zm-9.63-3.45-2.29-1.33v1.58l2.29,1.32Zm3.21,1.85-2.29-1.32v1.57l2.29,1.33Zm-3.67-10c.51.29.92.06.92-.52v-2.11a2,2,0,0,0-.92-1.58c-.5-.29-.91-.06-.91.52v2.11A2,2,0,0,0-768.39,1179Zm8.26,4.76c.5.3.92.06.92-.52v-2.1a2.07,2.07,0,0,0-.92-1.59c-.51-.29-.92,0-.92.53v2.1A2,2,0,0,0-760.13,1183.71Z" transform="translate(1013.82 -982.95)"/><path class="cls-56" d="M-735.83,1196.7l-1.83-1.06v-1.58l-7.74-4.46c-.54-.32-1-.07-1,.55v12l.08,0a1.32,1.32,0,0,0-.08.47,3,3,0,0,0,1.37,2.38l1.38.79v1.58l1.37-.79,1.38,2.38v-1.58l5,2.91ZM-745,1204a1,1,0,0,1-.46-.79c0-.29.21-.4.46-.26l.92.53.46.27v1Zm8.26,4.77-4.13-2.38v-1.06l3.21,1.86v-10.53l.92.53Z" transform="translate(1013.82 -982.95)"/><path class="cls-56" d="M-717.8,1206.31v-.48a2.09,2.09,0,0,0-1-1.65l-4.51-2.6c-.52-.31-1-.07-1,.54v1l-.42-.24c-.53-.31-1-.06-1,.54v8.84a2.16,2.16,0,0,0,1,1.68l12.32,7.11c.76.44,1.38.09,1.38-.78v-10Zm6,13.44c0,.29-.21.41-.46.26a1,1,0,0,1-.46-.79v-7.89l-6.88-4v-.48a2.11,2.11,0,0,0-1-1.65l-2.71-1.56v-1s0,0,0,0l4.51,2.6a.08.08,0,0,1,0,.07v1.53l.92.53,6,3.44Z" transform="translate(1013.82 -982.95)"/><path class="cls-56" d="M-759.58,1212l-3.4-5.86a5.72,5.72,0,0,0-2-2.09l-4.8-2.77v16.84l11,6.35v-9.71A5.67,5.67,0,0,0-759.58,1212Zm-3.76-5,2.83,4.88-2.83-1.63Zm3.67,15.89-9.17-5.3v-14.73l4,2.32a1.26,1.26,0,0,1,.57,1v4.6l4,2.32a1.25,1.25,0,0,1,.58,1Zm-8.26-10,7.34,4.24v-1l-7.34-4.24Zm0-2.1,7.34,4.23v-1l-7.34-4.23Zm0,4.21,7.34,4.23v-1.05l-7.34-4.24Z" transform="translate(1013.82 -982.95)"/><path class="cls-55" d="M-778.54,1243.68v-4.09l3.56,2.06c.23.13.42,0,.42-.24v-2.75a.93.93,0,0,0-.42-.72l-3.56-2.06v-4.09a.93.93,0,0,0-.42-.72l-2.4-1.38c-.23-.13-.42,0-.42.24V1234l-3.36-1.93c-.23-.14-.42,0-.42.23v2.75a.91.91,0,0,0,.42.72l3.36,1.94v4.09a.91.91,0,0,0,.42.72l2.4,1.39C-778.73,1244.05-778.54,1243.94-778.54,1243.68Z" transform="translate(1013.82 -982.95)"/><path class="cls-55" d="M-764.45,1251.77v-4.09l3.56,2.06c.23.13.42,0,.42-.24v-2.75a.94.94,0,0,0-.42-.72l-3.56-2v-4.09a.94.94,0,0,0-.42-.73l-2.4-1.38c-.23-.13-.42,0-.42.24v4.09l-3.36-1.94c-.23-.13-.42,0-.42.24v2.75a.93.93,0,0,0,.42.72l3.36,1.94v4.09a.94.94,0,0,0,.42.72l2.4,1.38C-764.64,1252.14-764.45,1252-764.45,1251.77Z" transform="translate(1013.82 -982.95)"/><path class="cls-55" d="M-750.22,1259.87v-4.09l3.57,2c.23.14.42,0,.42-.23v-2.75a.91.91,0,0,0-.42-.72l-3.57-2.06V1248a.9.9,0,0,0-.42-.72l-2.39-1.38c-.23-.14-.42,0-.42.24v4.08l-3.36-1.94c-.23-.13-.42,0-.42.24v2.75a.91.91,0,0,0,.42.72l3.36,1.94V1258a.93.93,0,0,0,.42.72l2.39,1.38C-750.4,1260.24-750.22,1260.13-750.22,1259.87Z" transform="translate(1013.82 -982.95)"/><path class="cls-55" d="M-736.28,1267.81v-4.09l3.57,2.06c.23.13.41,0,.41-.24v-2.75a.92.92,0,0,0-.41-.72l-3.57-2.06v-4.08a.92.92,0,0,0-.42-.73l-2.39-1.38c-.23-.13-.42,0-.42.24v4.09l-3.36-1.94c-.23-.14-.42,0-.42.24v2.74a.94.94,0,0,0,.42.73l3.36,1.94v4.08a.94.94,0,0,0,.42.73l2.39,1.38C-736.46,1268.18-736.28,1268.08-736.28,1267.81Z" transform="translate(1013.82 -982.95)"/><path class="cls-55" d="M-722,1275.9v-4.08l3.56,2c.24.14.42,0,.42-.24v-2.74a.92.92,0,0,0-.42-.73l-3.56-2.05V1264a.89.89,0,0,0-.42-.72l-2.39-1.39c-.23-.13-.42,0-.42.24v4.09l-3.36-1.94c-.23-.13-.42,0-.42.24v2.75a.93.93,0,0,0,.42.72l3.36,1.94V1274a.93.93,0,0,0,.42.72l2.39,1.38C-722.22,1276.28-722,1276.17-722,1275.9Z" transform="translate(1013.82 -982.95)"/><path class="cls-56" d="M-751,1290.61c.06-.75.83-.73,1.4,0,.74,1,1.66.67,1.35-.45-.24-.88.29-1.34,1-.84.88.64,1.39-.29.75-1.35-.5-.83-.31-1.68.35-1.54.84.17.84-1.19,0-2-.66-.62-.85-1.69-.35-1.94s.13-1.85-.75-2.22a1.83,1.83,0,0,1-1-2c.31-.76-.61-2.14-1.35-2-.57.11-1.34-.76-1.4-1.58-.08-1-1.23-2-1.68-1.42s-1.21,0-1.56-.9c-.45-1.12-1.6-1.49-1.68-.53-.06.76-.83.74-1.4,0-.74-1-1.66-.67-1.35.46.24.87-.29,1.33-1,.83-.87-.64-1.39.29-.75,1.35.5.83.31,1.68-.35,1.55-.83-.18-.83,1.18,0,2,.66.62.85,1.69.35,2s-.12,1.85.75,2.21a1.83,1.83,0,0,1,1,2c-.31.76.61,2.15,1.35,2,.57-.1,1.34.77,1.4,1.59.08,1,1.23,2,1.68,1.41s1.21,0,1.56.9C-752.19,1291.21-751,1291.57-751,1290.61Zm-2.46-4.35a9.6,9.6,0,0,1-4.35-7.51c0-2.75,1.95-3.87,4.35-2.48a9.6,9.6,0,0,1,4.35,7.51C-749.07,1286.54-751,1287.65-753.42,1286.26Zm-3.11,1.2a.57.57,0,0,0-.25-.41.19.19,0,0,0-.14,0,1.29,1.29,0,0,1-.86-.19,3.4,3.4,0,0,1-1.3-1.54,2.39,2.39,0,0,1-.19-1.66l-2.55,5,4,.56,1.5,5.4,2.26-4.46a1.25,1.25,0,0,1-.86-.18A3.48,3.48,0,0,1-756.53,1287.46Zm9,2.92a1.62,1.62,0,0,1-.19,1.45,1,1,0,0,1-1.3,0,2.91,2.91,0,0,1-.86-.8.53.53,0,0,0-.13-.13c-.09,0-.24-.06-.25.12-.08.9-.75,1.21-1.57.74a3,3,0,0,1-.86-.81l2.26,7.06,1.5-3.66,4,4Z" transform="translate(1013.82 -982.95)"/><path class="cls-57" d="M-824.36,1347.78l64.42-36.9c3.06-1.77,3.11-2.68-.43-4.73l-89.76-54.67c-3.54-2-4.37-1.86-7.43-.09L-921.67,1288c-3.07,1.77-2.69,3.47.85,5.51l88.49,54C-828.79,1349.64-827.43,1349.55-824.36,1347.78Z" transform="translate(1013.82 -982.95)"/><polygon class="cls-58" points="248.95 326.53 222.87 311.2 94.04 307.99 185.5 363.34 187 362.55 248.95 326.53"/><path class="cls-59" d="M-826.07,1344.44l58.84-34.13-84.38-51a2.7,2.7,0,0,0-2.73,0l-56.88,33Z" transform="translate(1013.82 -982.95)"/><path class="cls-60" d="M-826.07,1343.79l58.84-34.12-84.38-51.06a2.69,2.69,0,0,0-2.73,0l-56.88,33Z" transform="translate(1013.82 -982.95)"/><path class="cls-59" d="M-826.07,1342.4l58.84-34.13-84.38-51a2.7,2.7,0,0,0-2.73,0l-56.88,33Z" transform="translate(1013.82 -982.95)"/><path class="cls-61" d="M-826.07,1341.75l58.84-34.13-84.38-51a2.67,2.67,0,0,0-2.73,0l-56.88,33Z" transform="translate(1013.82 -982.95)"/><path class="cls-59" d="M-826.07,1340.35l58.84-34.12-84.38-51.06a2.69,2.69,0,0,0-2.73,0l-56.88,33Z" transform="translate(1013.82 -982.95)"/><path class="cls-62" d="M-826.07,1339.71l58.84-34.13-84.38-51a2.67,2.67,0,0,0-2.73,0l-56.88,33Z" transform="translate(1013.82 -982.95)"/><path class="cls-59" d="M-826.07,1338.2l58.84-34.12L-851.61,1253a2.72,2.72,0,0,0-2.73,0l-56.88,33Z" transform="translate(1013.82 -982.95)"/><path class="cls-63" d="M-826.07,1337.56l58.84-34.13-84.38-51a2.67,2.67,0,0,0-2.73,0l-56.88,33Z" transform="translate(1013.82 -982.95)"/><path class="cls-59" d="M-826.07,1336l58.84-34.13-84.38-51a2.7,2.7,0,0,0-2.73,0l-56.88,33Z" transform="translate(1013.82 -982.95)"/><path class="cls-64" d="M-826.07,1335.3l58.84-34.12-84.38-51.06a2.69,2.69,0,0,0-2.73,0l-56.88,33Z" transform="translate(1013.82 -982.95)"/><path class="cls-65" d="M-764.87,1292.93l-89.88-54.39a2.86,2.86,0,0,0-2.91,0l-60.6,35.14a7.48,7.48,0,0,0-3.77,6.5v8.52a3,3,0,0,0,1.76,2.69l91.12,55.05-1.21-11.73,2.81-5.4ZM-904.36,1297a8.84,8.84,0,0,1-4-6.92c0-2.55,1.8-3.57,4-2.29a8.83,8.83,0,0,1,4,6.92C-900.35,1297.3-902.14,1298.32-904.36,1297Z" transform="translate(1013.82 -982.95)"/><path class="cls-66" d="M-827.55,1329.28l62.68-36.35-89.88-54.39a2.86,2.86,0,0,0-2.91,0l-60.6,35.14Z" transform="translate(1013.82 -982.95)"/><path class="cls-67" d="M-828.21,1345.06v-8.34a7.27,7.27,0,0,1,3.65-6.3l58.43-33.87v-2.66l-60.17,34.88a7.27,7.27,0,0,0-3.65,6.3v8.35a2.84,2.84,0,0,0,2,2.72A2.89,2.89,0,0,1-828.21,1345.06Z" transform="translate(1013.82 -982.95)"/><path class="cls-68" d="M-826.82,1345.5a1.72,1.72,0,0,1-.9.25,1.83,1.83,0,0,1-1.82-1.82v-8.52a6.34,6.34,0,0,1,3.18-5.49l61.49-35.76v-1.23l-62.06,36a7.48,7.48,0,0,0-3.77,6.5v8.52a3,3,0,0,0,4.46,2.58l61.37-35.58v-1.45Z" transform="translate(1013.82 -982.95)"/><path class="cls-69" d="M-904.36,1286.63c-2.8-1.62-5.06-.33-5.06,2.88a11.13,11.13,0,0,0,5.06,8.73c2.79,1.62,5.06.33,5.06-2.88A11.16,11.16,0,0,0-904.36,1286.63Zm0,10.41a8.84,8.84,0,0,1-4-6.92c0-2.55,1.8-3.57,4-2.29a8.83,8.83,0,0,1,4,6.92C-900.35,1297.3-902.14,1298.32-904.36,1297Z" transform="translate(1013.82 -982.95)"/><polygon class="cls-70" points="160.31 345 155.03 341.95 155.03 331.39 160.31 334.44 160.31 345"/><polygon class="cls-71" points="155.15 341.94 118.03 320.51 118.03 309.95 155.15 331.38 155.15 341.94"/><path class="cls-57" d="M-831.32,1319l53.25-30.5c2.53-1.46,2.57-2.22-.36-3.91l-74.19-45.19c-2.92-1.69-3.61-1.53-6.14-.07l-53,30.29c-2.54,1.46-2.22,2.86.71,4.55l73.13,44.68C-835,1320.52-833.85,1320.45-831.32,1319Z" transform="translate(1013.82 -982.95)"/><polygon class="cls-72" points="230.93 304.98 209.37 292.31 179.72 334.75 230.93 304.98"/><path class="cls-73" d="M-859.59,1231.4l-50.08,29a6.2,6.2,0,0,0-3.12,5.37v4.92a2.44,2.44,0,0,0,1.45,2.22l75.32,45.5,1.32-12,51.81-30-74.29-45A2.37,2.37,0,0,0-859.59,1231.4Z" transform="translate(1013.82 -982.95)"/><path class="cls-74" d="M-834.7,1306.43l51.81-30-74.29-45a2.37,2.37,0,0,0-2.41,0l-50.08,29Z" transform="translate(1013.82 -982.95)"/><path class="cls-75" d="M-836.69,1311.21V1316a2.39,2.39,0,0,0,3.58,2.07l49.18-28.52v-12.36L-833.67,1306A6,6,0,0,0-836.69,1311.21Z" transform="translate(1013.82 -982.95)"/><path class="cls-76" d="M-835.24,1317.34v-4.76a6,6,0,0,1,3-5.21l48.3-28v-2.2L-833.67,1306a6,6,0,0,0-3,5.2V1316a2.36,2.36,0,0,0,1.64,2.25A2.36,2.36,0,0,1-835.24,1317.34Z" transform="translate(1013.82 -982.95)"/><path class="cls-77" d="M-834.09,1317.7a1.47,1.47,0,0,1-.75.21,1.51,1.51,0,0,1-1.5-1.51v-4.91a5.22,5.22,0,0,1,2.63-4.53l50.82-29.56v-1l-51.3,29.74a6.19,6.19,0,0,0-3.11,5.37v4.91a2.46,2.46,0,0,0,3.68,2.14l50.73-29.41v-1.2Z" transform="translate(1013.82 -982.95)"/><ellipse class="cls-78" cx="-683.89" cy="1104.62" rx="17.66" ry="30.59" transform="translate(362.84 -1177.11) rotate(-30.31)"/><path class="cls-79" d="M-672,1116.05c0,4.59-1.59,7.85-4.16,9.42l-2.74,1.74c-2.68,1.5-1-1.9-5-4.25-8.19-4.73-14.83-16.19-14.83-25.59,0-4.65-4.3-4.69-1.67-6.24.07-.05,3.17-1.77,3.25-1.81,2.67-1.45,6.33-1.18,10.35,1.14C-678.63,1095.19-672,1106.65-672,1116.05Z" transform="translate(1013.82 -982.95)"/><ellipse class="cls-80" cx="-689.94" cy="1109.34" rx="12.07" ry="20.92" transform="translate(359.63 -1179.51) rotate(-30.31)"/><path class="cls-81" d="M-675.28,1098.63c1.88,2.92,1.32,6.62-1.26,8.29s-6.19.65-8.07-2.26-1.31-6.62,1.26-8.28S-677.16,1095.72-675.28,1098.63Z" transform="translate(1013.82 -982.95)"/><path class="cls-82" d="M-689.7,1092.21c-3.93-2.26-7-2.82-9.68-1.49,2.48-.7,5.55-.18,8.87,1.74,8.2,4.73,14.84,16.19,14.84,25.59,0,4.89-1.81,8.26-4.69,9.7,3.62-1,5.5-4.36,5.5-10C-674.86,1108.4-681.51,1096.94-689.7,1092.21Z" transform="translate(1013.82 -982.95)"/><ellipse class="cls-83" cx="-683.89" cy="1147.69" rx="17.66" ry="30.59" transform="translate(341.1 -1171.22) rotate(-30.31)"/><path class="cls-84" d="M-672,1159.12c0,4.59-1.59,7.85-4.16,9.42-.08,0-2.66,1.7-2.74,1.74-2.68,1.5-1-1.9-5-4.25-8.19-4.73-14.83-16.19-14.83-25.59,0-4.65-4.3-4.69-1.67-6.24l3.25-1.81c2.67-1.45,6.33-1.18,10.35,1.14C-678.63,1138.26-672,1149.72-672,1159.12Z" transform="translate(1013.82 -982.95)"/><ellipse class="cls-85" cx="-689.94" cy="1152.41" rx="12.07" ry="20.92" transform="translate(337.9 -1173.62) rotate(-30.31)"/><path class="cls-86" d="M-675.28,1141.71c1.88,2.91,1.32,6.62-1.26,8.28s-6.19.66-8.07-2.26-1.31-6.62,1.26-8.28S-677.16,1138.79-675.28,1141.71Z" transform="translate(1013.82 -982.95)"/><path class="cls-87" d="M-689.7,1135.28c-3.93-2.26-7-2.82-9.68-1.49,2.48-.69,5.55-.18,8.87,1.74,8.2,4.73,14.84,16.19,14.84,25.59,0,4.9-1.81,8.26-4.69,9.71,3.62-1,5.5-4.37,5.5-10C-674.86,1151.47-681.51,1140-689.7,1135.28Z" transform="translate(1013.82 -982.95)"/><ellipse class="cls-88" cx="-683.89" cy="1207.66" rx="17.66" ry="30.59" transform="translate(310.83 -1163.02) rotate(-30.31)"/><path class="cls-89" d="M-672,1219.09c0,4.6-1.59,7.85-4.16,9.42-.08,0-2.66,1.7-2.74,1.74-2.68,1.5-1-1.9-5-4.25-8.19-4.73-14.83-16.19-14.83-25.59,0-4.65-4.3-4.69-1.67-6.24l3.25-1.81c2.67-1.45,6.33-1.18,10.35,1.15C-678.63,1198.24-672,1209.69-672,1219.09Z" transform="translate(1013.82 -982.95)"/><ellipse class="cls-90" cx="-689.94" cy="1212.39" rx="12.07" ry="20.92" transform="matrix(0.86, -0.5, 0.5, 0.86, 307.63, -1165.42)"/><path class="cls-91" d="M-675.28,1201.68c1.88,2.91,1.32,6.62-1.26,8.28s-6.19.66-8.07-2.25-1.31-6.62,1.26-8.29S-677.16,1198.77-675.28,1201.68Z" transform="translate(1013.82 -982.95)"/><path class="cls-92" d="M-689.7,1195.26c-3.93-2.27-7-2.83-9.68-1.5,2.48-.69,5.55-.18,8.87,1.74,8.2,4.74,14.84,16.19,14.84,25.59,0,4.9-1.81,8.27-4.69,9.71,3.62-1,5.5-4.37,5.5-10C-674.86,1211.44-681.51,1200-689.7,1195.26Z" transform="translate(1013.82 -982.95)"/><ellipse class="cls-93" cx="-683.89" cy="1268.92" rx="17.66" ry="30.59" transform="translate(279.92 -1154.65) rotate(-30.31)"/><path class="cls-94" d="M-672,1280.35c0,4.59-1.59,7.84-4.16,9.42l-2.74,1.74c-2.68,1.49-1-1.91-5-4.26-8.19-4.73-14.83-16.18-14.83-25.59,0-4.64-4.3-4.68-1.67-6.23.07,0,3.17-1.78,3.25-1.82,2.67-1.44,6.33-1.18,10.35,1.15C-678.63,1259.49-672,1271-672,1280.35Z" transform="translate(1013.82 -982.95)"/><path class="cls-95" d="M-675.1,1282.2c0,9.41-6.64,13.19-14.84,8.46s-14.83-16.18-14.83-25.59,6.64-13.18,14.83-8.45S-675.1,1272.8-675.1,1282.2Z" transform="translate(1013.82 -982.95)"/><path class="cls-96" d="M-675.28,1262.93c1.88,2.91,1.32,6.62-1.26,8.29s-6.19.65-8.07-2.26-1.31-6.62,1.26-8.28S-677.16,1260-675.28,1262.93Z" transform="translate(1013.82 -982.95)"/><path class="cls-97" d="M-689.7,1256.51c-3.93-2.27-7-2.82-9.68-1.5,2.48-.69,5.55-.17,8.87,1.75,8.2,4.73,14.84,16.19,14.84,25.59,0,4.89-1.81,8.26-4.69,9.7,3.62-1,5.5-4.36,5.5-10C-674.86,1272.7-681.51,1261.24-689.7,1256.51Z" transform="translate(1013.82 -982.95)"/><ellipse class="cls-98" cx="-683.89" cy="1308.49" rx="17.66" ry="30.59" transform="translate(259.95 -1149.24) rotate(-30.31)"/><path class="cls-99" d="M-672,1319.92c0,4.59-1.59,7.84-4.16,9.42l-2.74,1.74c-2.68,1.49-1-1.91-5-4.26-8.19-4.73-14.83-16.18-14.83-25.59,0-4.64-4.3-4.68-1.67-6.23.07,0,3.17-1.78,3.25-1.82,2.67-1.44,6.33-1.18,10.35,1.15C-678.63,1299.06-672,1310.52-672,1319.92Z" transform="translate(1013.82 -982.95)"/><path class="cls-100" d="M-675.1,1321.77c0,9.41-6.64,13.19-14.84,8.46s-14.83-16.18-14.83-25.59,6.64-13.18,14.83-8.45S-675.1,1312.37-675.1,1321.77Z" transform="translate(1013.82 -982.95)"/><path class="cls-101" d="M-675.28,1302.5c1.88,2.91,1.32,6.62-1.26,8.29s-6.19.65-8.07-2.26-1.31-6.62,1.26-8.28S-677.16,1299.59-675.28,1302.5Z" transform="translate(1013.82 -982.95)"/><path class="cls-102" d="M-689.7,1296.08c-3.93-2.27-7-2.82-9.68-1.5,2.48-.69,5.55-.17,8.87,1.75,8.2,4.73,14.84,16.19,14.84,25.59,0,4.89-1.81,8.26-4.69,9.7,3.62-1,5.5-4.37,5.5-9.95C-674.86,1312.27-681.51,1300.81-689.7,1296.08Z" transform="translate(1013.82 -982.95)"/><path class="cls-28" d="M-690.62,1103.79l-3.1-1.79v-2.41a8.81,8.81,0,0,0,2,.93,1.49,1.49,0,0,0,1.22-.11,2.47,2.47,0,0,0,.81-1.19l2,1.15V1122l-3-1.71Z" transform="translate(1013.82 -982.95)"/><path class="cls-28" d="M-694.82,1157.4a8.12,8.12,0,0,1,.65-3.6,6.08,6.08,0,0,1,2.31-2.32,7.07,7.07,0,0,0,2.28-2.12,5,5,0,0,0,.63-2.6,4.85,4.85,0,0,0-.39-2.16,2.87,2.87,0,0,0-1.14-1.2c-1-.59-1.54-.18-1.54,1.25V1147l-2.8-1.61v-2.11c0-1.75.38-2.87,1.13-3.38s1.85-.33,3.29.5a8.46,8.46,0,0,1,3.28,3.3,9.48,9.48,0,0,1,1.13,4.68,6.6,6.6,0,0,1-.82,3.39,8.32,8.32,0,0,1-2.84,2.69,5.73,5.73,0,0,0-1.78,1.58,3.62,3.62,0,0,0-.45,1.89v.46l5.62,3.25v3.09l-8.56-4.94Z" transform="translate(1013.82 -982.95)"/><path class="cls-28" d="M-693.86,1220a9.39,9.39,0,0,1-1.12-4.63v-1.76l2.8,1.62v1.91a3.2,3.2,0,0,0,1.53,3c.51.29.89.33,1.15.12s.39-.77.39-1.67v-1.76a5.24,5.24,0,0,0-.46-2.39A3.63,3.63,0,0,0-691,1213l-1-.58v-3.09l1.08.62c.59.34,1,.43,1.33.25s.45-.68.45-1.51v-1.58a4.07,4.07,0,0,0-.4-1.87,2.83,2.83,0,0,0-1.08-1.14c-1-.55-1.43-.16-1.43,1.18v1.42l-2.8-1.61v-1.15c0-1.73.37-2.84,1.12-3.34s1.82-.34,3.22.47a8.45,8.45,0,0,1,3.23,3.24,9.49,9.49,0,0,1,1.1,4.61v.77a4.74,4.74,0,0,1-.51,2.53,1.47,1.47,0,0,1-1.59.61v.07a7,7,0,0,1,1.67,2.57,9.15,9.15,0,0,1,.51,3.14v1.91c0,1.73-.37,2.84-1.12,3.33s-1.84.31-3.29-.53A8.44,8.44,0,0,1-693.86,1220Z" transform="translate(1013.82 -982.95)"/><path class="cls-28" d="M-689.81,1279.65l-5.66-3.27v-3.09l5.39-11.51,3.23,1.87v14.62l1.4.81v3.09l-1.4-.81v3.92l-3-1.71Zm0-3.09v-8.44l-.05,0-2.91,6.76Z" transform="translate(1013.82 -982.95)"/><path class="cls-28" d="M-693.72,1321.5a9.6,9.6,0,0,1-1.13-4.69v-1.69l2.8,1.61v2a3.18,3.18,0,0,0,1.54,3c1,.59,1.53.18,1.53-1.22v-4.85a3.2,3.2,0,0,0-1.53-3c-1-.59-1.54-.17-1.54,1.25v.18l-2.8-1.61.54-11.78,7.81,4.51v3.09l-5.17-3-.24,5,0,0c.56-.73,1.41-.76,2.56-.1a6,6,0,0,1,2.45,2.68A9.53,9.53,0,0,1-686,1317v4.88c0,1.76-.38,2.88-1.13,3.38s-1.85.34-3.29-.49A8.55,8.55,0,0,1-693.72,1321.5Z" transform="translate(1013.82 -982.95)"/><ellipse class="cls-103" cx="171.83" cy="282.32" rx="47.56" ry="24.46"/><path class="cls-104" d="M-800.35,1214.33h-88.26v47.55h0c0,.12,0,.23,0,.35,0,14.2,19.75,25.7,44.13,25.7s44.13-11.5,44.13-25.7c0-.12,0-.23,0-.35h0Z" transform="translate(1013.82 -982.95)"/><g class="cls-105"><path class="cls-106" d="M-888.61,1257.68v.36c0-.12,0-.24,0-.36Z" transform="translate(1013.82 -982.95)"/><path class="cls-107" d="M-800.35,1258v-.36h0C-800.36,1257.8-800.35,1257.92-800.35,1258Z" transform="translate(1013.82 -982.95)"/></g><ellipse class="cls-108" cx="169.34" cy="231.56" rx="44.13" ry="25.7"/><path class="cls-109" d="M-888.61,1223.63v.36c0-.12,0-.24,0-.36Z" transform="translate(1013.82 -982.95)"/><path class="cls-110" d="M-800.35,1224v-.36h0C-800.36,1223.75-800.35,1223.87-800.35,1224Z" transform="translate(1013.82 -982.95)"/><polygon class="cls-111" points="208.89 260.6 208.89 232.37 129.78 232.37 129.78 260.49 169.47 283.6 208.89 260.6"/><polygon class="cls-112" points="169.43 274.58 169.43 277.08 238.22 236.96 238.22 234.46 169.43 274.58"/><polygon class="cls-113" points="169.47 274.58 169.47 277.08 100.46 236.84 100.46 234.39 169.47 274.58"/><polygon class="cls-114" points="100.46 234.39 169.47 274.58 238.22 234.46 169.13 194.23 100.46 234.39"/><path class="cls-115" d="M-877.66,1257.24c0,1.54-1.09,2.16-2.43,1.38a5.32,5.32,0,0,1-2.42-4.17c0-1.54,1.08-2.16,2.42-1.39A5.36,5.36,0,0,1-877.66,1257.24Z" transform="translate(1013.82 -982.95)"/><path class="cls-115" d="M-883.64,1267.58s1.76-12.79,3.79-12.16S-876,1272-876,1272h0a15,15,0,0,1-7.38-4.16Z" transform="translate(1013.82 -982.95)"/><path class="cls-116" d="M-884.84,1265.85s1.76-12.78,3.79-12.15,3.8,16.54,3.8,16.54h0a15,15,0,0,1-7.38-4.17Z" transform="translate(1013.82 -982.95)"/><path class="cls-117" d="M-881,1253.71c1.78,2.92,3.62,15.51,3.62,15.51-2.66-.61-5.48-1.48-7.43-3.37h0l.21.22c2,2.07,5,3.06,7.76,3.7C-876.87,1269.77-879,1254.41-881,1253.71Z" transform="translate(1013.82 -982.95)"/><path class="cls-118" d="M-878.65,1268.57a13.73,13.73,0,0,1-4.92-3.13c.58-4,1.56-8.39,2.34-10.06C-880.37,1257.39-879.33,1263.12-878.65,1268.57Z" transform="translate(1013.82 -982.95)"/><path class="cls-115" d="M-880.41,1257.32a1.2,1.2,0,0,1-1.2-1.2v-14a8.68,8.68,0,0,1,4.3-7.48l33.67-19.65a1.2,1.2,0,0,1,1.64.43,1.2,1.2,0,0,1-.43,1.64l-33.67,19.65a6.28,6.28,0,0,0-3.11,5.41v14A1.2,1.2,0,0,1-880.41,1257.32Z" transform="translate(1013.82 -982.95)"/><path class="cls-119" d="M-881.12,1256.76a1.2,1.2,0,0,1-1.2-1.2v-14A8.68,8.68,0,0,1-878,1234l33.67-19.65a1.21,1.21,0,0,1,1.64.43,1.2,1.2,0,0,1-.44,1.64l-33.66,19.65a6.28,6.28,0,0,0-3.11,5.41v14A1.2,1.2,0,0,1-881.12,1256.76Z" transform="translate(1013.82 -982.95)"/><path class="cls-120" d="M-881.42,1255.82a.36.36,0,0,1-.36-.36v-14a7.87,7.87,0,0,1,3.88-6.76l33.67-19.65a.41.41,0,0,1,.18,0,.35.35,0,0,1,.31.18.37.37,0,0,1,0,.28.38.38,0,0,1-.17.21l-33.67,19.65a7.14,7.14,0,0,0-3.52,6.14v14A.36.36,0,0,1-881.42,1255.82Z" transform="translate(1013.82 -982.95)"/><ellipse class="cls-121" cx="169.34" cy="233.24" rx="5.15" ry="3"/><path class="cls-122" d="M-849.63,1217.74v0Z" transform="translate(1013.82 -982.95)"/><path class="cls-123" d="M-839.33,1217.78v0h0Z" transform="translate(1013.82 -982.95)"/><polygon class="cls-124" points="132.21 273.16 130.12 285.13 131.77 285.38 132.21 273.16"/><polygon class="cls-125" points="131.67 272.89 129.17 284.08 130.57 284.53 131.67 272.89"/><polygon class="cls-126" points="132.87 274.31 132.06 286.43 133.72 286.51 132.87 274.31"/><polygon class="cls-127" points="132.3 274.1 131 285.49 132.44 285.79 132.3 274.1"/><polygon class="cls-128" points="134.04 275.12 134.24 287.27 135.91 287.2 134.04 275.12"/><polygon class="cls-129" points="133.49 275.43 133.14 286.89 134.6 287.07 133.49 275.43"/><path class="cls-130" d="M-878.54,1256.74c0,1.54-1.08,2.16-2.42,1.39a5.36,5.36,0,0,1-2.43-4.18c0-1.54,1.09-2.16,2.43-1.39A5.35,5.35,0,0,1-878.54,1256.74Z" transform="translate(1013.82 -982.95)"/><path class="cls-131" d="M-880.36,1253a5.3,5.3,0,0,1,1.37,3.28c0,1.54-1.08,2.16-2.42,1.39a5,5,0,0,1-.61-.45,4.45,4.45,0,0,0,1.06.9c1.34.77,2.42.15,2.42-1.39A5.38,5.38,0,0,0-880.36,1253Z" transform="translate(1013.82 -982.95)"/><path class="cls-132" d="M-880,1255.29c0,.82-.58,1.15-1.29.74a2.85,2.85,0,0,1-1.3-2.24c0-.82.58-1.15,1.3-.73A2.85,2.85,0,0,1-880,1255.29Z" transform="translate(1013.82 -982.95)"/></g></g></svg>