<svg xmlns="http://www.w3.org/2000/svg" xmlns:xlink="http://www.w3.org/1999/xlink" viewBox="0 0 389.01 320">
  <defs>
    <style>
      .cls-1 {
        isolation: isolate;
      }

      .cls-2 {
        fill: #001210;
      }

      .cls-3 {
        fill: url(#radial-gradient);
      }

      .cls-4 {
        fill: url(#linear-gradient);
      }

      .cls-102, .cls-103, .cls-13, .cls-28, .cls-43, .cls-45, .cls-47, .cls-49, .cls-5, .cls-82, .cls-83, .cls-87, .cls-88, .cls-92, .cls-93, .cls-97, .cls-98 {
        mix-blend-mode: color-dodge;
      }

      .cls-5 {
        fill: url(#radial-gradient-2);
      }

      .cls-50, .cls-52, .cls-53, .cls-54, .cls-55, .cls-57, .cls-6 {
        mix-blend-mode: screen;
      }

      .cls-6 {
        opacity: 0.6;
        fill: url(#radial-gradient-3);
      }

      .cls-7 {
        fill: url(#linear-gradient-2);
      }

      .cls-8 {
        fill: url(#linear-gradient-3);
      }

      .cls-9 {
        fill: url(#linear-gradient-4);
      }

      .cls-10 {
        fill: url(#linear-gradient-5);
      }

      .cls-11 {
        fill: url(#linear-gradient-6);
      }

      .cls-12 {
        fill: url(#linear-gradient-7);
      }

      .cls-13 {
        fill: url(#radial-gradient-4);
      }

      .cls-104, .cls-106, .cls-112, .cls-116, .cls-14, .cls-68, .cls-77, .cls-79, .cls-84, .cls-89, .cls-94, .cls-99 {
        mix-blend-mode: multiply;
      }

      .cls-14, .cls-79, .cls-84, .cls-89, .cls-94, .cls-99 {
        opacity: 0.3;
      }

      .cls-15, .cls-30 {
        opacity: 0;
      }

      .cls-15 {
        fill: url(#linear-gradient-8);
      }

      .cls-16, .cls-31 {
        opacity: 0.09;
      }

      .cls-16 {
        fill: url(#linear-gradient-9);
      }

      .cls-17, .cls-32 {
        opacity: 0.18;
      }

      .cls-17 {
        fill: url(#linear-gradient-10);
      }

      .cls-18, .cls-33 {
        opacity: 0.27;
      }

      .cls-18 {
        fill: url(#linear-gradient-11);
      }

      .cls-19, .cls-34 {
        opacity: 0.36;
      }

      .cls-19 {
        fill: url(#linear-gradient-12);
      }

      .cls-20, .cls-35 {
        opacity: 0.45;
      }

      .cls-20 {
        fill: url(#linear-gradient-13);
      }

      .cls-21, .cls-36 {
        opacity: 0.55;
      }

      .cls-21 {
        fill: url(#linear-gradient-14);
      }

      .cls-22, .cls-37 {
        opacity: 0.64;
      }

      .cls-22 {
        fill: url(#linear-gradient-15);
      }

      .cls-23, .cls-38 {
        opacity: 0.73;
      }

      .cls-23 {
        fill: url(#linear-gradient-16);
      }

      .cls-24, .cls-39 {
        opacity: 0.82;
      }

      .cls-24 {
        fill: url(#linear-gradient-17);
      }

      .cls-25, .cls-40 {
        opacity: 0.91;
      }

      .cls-25 {
        fill: url(#linear-gradient-18);
      }

      .cls-26 {
        fill: url(#linear-gradient-19);
      }

      .cls-27 {
        fill: url(#linear-gradient-20);
      }

      .cls-28 {
        fill: url(#radial-gradient-5);
      }

      .cls-29 {
        fill: #fff;
      }

      .cls-30 {
        fill: url(#linear-gradient-21);
      }

      .cls-31 {
        fill: url(#linear-gradient-22);
      }

      .cls-32 {
        fill: url(#linear-gradient-23);
      }

      .cls-33 {
        fill: url(#linear-gradient-24);
      }

      .cls-34 {
        fill: url(#linear-gradient-25);
      }

      .cls-35 {
        fill: url(#linear-gradient-26);
      }

      .cls-36 {
        fill: url(#linear-gradient-27);
      }

      .cls-37 {
        fill: url(#linear-gradient-28);
      }

      .cls-38 {
        fill: url(#linear-gradient-29);
      }

      .cls-39 {
        fill: url(#linear-gradient-30);
      }

      .cls-40 {
        fill: url(#linear-gradient-31);
      }

      .cls-41 {
        fill: url(#linear-gradient-32);
      }

      .cls-42 {
        fill: url(#linear-gradient-33);
      }

      .cls-43 {
        fill: url(#radial-gradient-6);
      }

      .cls-44 {
        fill: url(#linear-gradient-34);
      }

      .cls-45 {
        fill: url(#radial-gradient-7);
      }

      .cls-46 {
        fill: url(#linear-gradient-35);
      }

      .cls-47 {
        fill: url(#radial-gradient-8);
      }

      .cls-48 {
        fill: url(#linear-gradient-36);
      }

      .cls-49 {
        fill: url(#radial-gradient-9);
      }

      .cls-50, .cls-53 {
        opacity: 0.5;
      }

      .cls-51, .cls-53, .cls-54, .cls-55, .cls-57 {
        fill: #7cb3bd;
      }

      .cls-55 {
        opacity: 0.4;
      }

      .cls-56 {
        fill: #0b806f;
      }

      .cls-57 {
        opacity: 0.7;
      }

      .cls-58 {
        opacity: 0.2;
      }

      .cls-59 {
        fill: url(#New_Gradient_Swatch_copy_13);
      }

      .cls-60 {
        fill: #9cb39e;
      }

      .cls-61 {
        fill: url(#New_Gradient_Swatch_copy_12);
      }

      .cls-62 {
        fill: url(#New_Gradient_Swatch_copy_12-2);
      }

      .cls-63 {
        fill: url(#New_Gradient_Swatch_copy_12-3);
      }

      .cls-64 {
        fill: url(#New_Gradient_Swatch_copy_12-4);
      }

      .cls-65 {
        fill: url(#New_Gradient_Swatch_copy_12-5);
      }

      .cls-66 {
        fill: url(#New_Gradient_Swatch_copy_14);
      }

      .cls-67 {
        fill: url(#New_Gradient_Swatch_copy_13-2);
      }

      .cls-68 {
        fill: #d2d4d1;
      }

      .cls-69 {
        fill: url(#New_Gradient_Swatch_copy_13-3);
      }

      .cls-70 {
        fill: url(#New_Gradient_Swatch_copy_12-6);
      }

      .cls-71 {
        fill: url(#linear-gradient-37);
      }

      .cls-72 {
        fill: url(#New_Gradient_Swatch_copy_12-7);
      }

      .cls-73 {
        fill: url(#New_Gradient_Swatch_copy_8);
      }

      .cls-74 {
        fill: url(#linear-gradient-38);
      }

      .cls-75 {
        fill: url(#New_Gradient_Swatch_copy_8-2);
      }

      .cls-76 {
        fill: url(#New_Gradient_Swatch_copy_10);
      }

      .cls-77 {
        fill: #d1d2d3;
      }

      .cls-78 {
        fill: url(#New_Gradient_Swatch_copy_8-3);
      }

      .cls-79 {
        fill: url(#radial-gradient-10);
      }

      .cls-80 {
        fill: url(#New_Gradient_Swatch_copy_17);
      }

      .cls-81 {
        fill: url(#New_Gradient_Swatch_copy_8-4);
      }

      .cls-82 {
        fill: url(#radial-gradient-11);
      }

      .cls-83 {
        fill: url(#radial-gradient-12);
      }

      .cls-84 {
        fill: url(#radial-gradient-13);
      }

      .cls-85 {
        fill: url(#New_Gradient_Swatch_copy_17-2);
      }

      .cls-86 {
        fill: url(#New_Gradient_Swatch_copy_8-5);
      }

      .cls-87 {
        fill: url(#radial-gradient-14);
      }

      .cls-88 {
        fill: url(#radial-gradient-15);
      }

      .cls-89 {
        fill: url(#radial-gradient-16);
      }

      .cls-90 {
        fill: url(#New_Gradient_Swatch_copy_17-3);
      }

      .cls-91 {
        fill: url(#New_Gradient_Swatch_copy_8-6);
      }

      .cls-92 {
        fill: url(#radial-gradient-17);
      }

      .cls-93 {
        fill: url(#radial-gradient-18);
      }

      .cls-94 {
        fill: url(#radial-gradient-19);
      }

      .cls-95 {
        fill: url(#New_Gradient_Swatch_copy_17-4);
      }

      .cls-96 {
        fill: url(#New_Gradient_Swatch_copy_8-7);
      }

      .cls-97 {
        fill: url(#radial-gradient-20);
      }

      .cls-98 {
        fill: url(#radial-gradient-21);
      }

      .cls-99 {
        fill: url(#radial-gradient-22);
      }

      .cls-100 {
        fill: url(#New_Gradient_Swatch_copy_17-5);
      }

      .cls-101 {
        fill: url(#New_Gradient_Swatch_copy_8-8);
      }

      .cls-102 {
        fill: url(#radial-gradient-23);
      }

      .cls-103 {
        fill: url(#radial-gradient-24);
      }

      .cls-104 {
        fill: url(#radial-gradient-25);
      }

      .cls-105 {
        fill: url(#linear-gradient-39);
      }

      .cls-106 {
        opacity: 0.1;
      }

      .cls-107 {
        fill: url(#linear-gradient-40);
      }

      .cls-108 {
        fill: url(#linear-gradient-41);
      }

      .cls-109 {
        fill: url(#New_Gradient_Swatch_copy_53);
      }

      .cls-110 {
        fill: url(#linear-gradient-42);
      }

      .cls-111 {
        fill: url(#linear-gradient-43);
      }

      .cls-112 {
        fill: url(#radial-gradient-26);
      }

      .cls-113 {
        fill: url(#linear-gradient-44);
      }

      .cls-114 {
        fill: url(#linear-gradient-45);
      }

      .cls-115 {
        fill: url(#linear-gradient-46);
      }

      .cls-116 {
        fill: #bcafc7;
      }

      .cls-117 {
        fill: url(#New_Gradient_Swatch_copy_52);
      }

      .cls-118 {
        fill: url(#New_Gradient_Swatch_copy_52-2);
      }

      .cls-119 {
        fill: url(#New_Gradient_Swatch_copy_52-3);
      }

      .cls-120 {
        fill: url(#linear-gradient-47);
      }

      .cls-121 {
        fill: url(#New_Gradient_Swatch_copy_52-4);
      }

      .cls-122 {
        fill: url(#New_Gradient_Swatch_copy_53-2);
      }

      .cls-123 {
        fill: url(#linear-gradient-48);
      }

      .cls-124 {
        fill: url(#linear-gradient-49);
      }

      .cls-125 {
        fill: url(#New_Gradient_Swatch_copy_52-5);
      }

      .cls-126 {
        fill: url(#New_Gradient_Swatch_copy_52-6);
      }

      .cls-127 {
        fill: url(#New_Gradient_Swatch_copy_52-7);
      }

      .cls-128 {
        fill: url(#New_Gradient_Swatch_copy_52-8);
      }

      .cls-129 {
        fill: url(#New_Gradient_Swatch_copy_52-9);
      }

      .cls-130 {
        fill: url(#New_Gradient_Swatch_copy_52-10);
      }

      .cls-131 {
        fill: url(#New_Gradient_Swatch_copy_52-11);
      }

      .cls-132 {
        fill: url(#New_Gradient_Swatch_copy_52-12);
      }

      .cls-133 {
        fill: url(#New_Gradient_Swatch_copy_52-13);
      }
    </style>
    <radialGradient id="radial-gradient" cx="-4333.46" cy="-1042.36" r="156.96" gradientTransform="matrix(0.73, -0.44, 0.44, 0.73, 3834.77, -980.49)" gradientUnits="userSpaceOnUse">
      <stop offset="0" stop-color="#00a89a" stop-opacity="0.61"/>
      <stop offset="0.07" stop-color="#00a89a" stop-opacity="0.54"/>
      <stop offset="0.35" stop-color="#00a89a" stop-opacity="0.31"/>
      <stop offset="0.61" stop-color="#00a89a" stop-opacity="0.14"/>
      <stop offset="0.83" stop-color="#00a89a" stop-opacity="0.04"/>
      <stop offset="1" stop-color="#00a89a" stop-opacity="0"/>
    </radialGradient>
    <linearGradient id="linear-gradient" x1="-3651.05" y1="1136.43" x2="-3572.47" y2="1272.53" gradientUnits="userSpaceOnUse">
      <stop offset="0.06" stop-color="#0e3c3a"/>
      <stop offset="0.26" stop-color="#0f3e3b"/>
      <stop offset="0.37" stop-color="#12463d"/>
      <stop offset="0.44" stop-color="#175340"/>
      <stop offset="0.47" stop-color="#195942"/>
      <stop offset="0.48" stop-color="#1d5d46"/>
      <stop offset="0.5" stop-color="#2a6b54"/>
      <stop offset="0.51" stop-color="#3f8069"/>
      <stop offset="0.53" stop-color="#5d9f88"/>
      <stop offset="0.53" stop-color="#66a891"/>
      <stop offset="0.53" stop-color="#64a68f"/>
      <stop offset="0.56" stop-color="#44856e"/>
      <stop offset="0.58" stop-color="#2c6d56"/>
      <stop offset="0.61" stop-color="#1e5e47"/>
      <stop offset="0.63" stop-color="#195942"/>
      <stop offset="0.66" stop-color="#15503f"/>
      <stop offset="0.75" stop-color="#10413b"/>
      <stop offset="0.81" stop-color="#0e3c3a"/>
      <stop offset="1" stop-color="#0e3c3a"/>
    </linearGradient>
    <radialGradient id="radial-gradient-2" cx="-3528.93" cy="1191.72" r="147.46" gradientUnits="userSpaceOnUse">
      <stop offset="0" stop-color="#272c66"/>
      <stop offset="0.17" stop-color="#252a61"/>
      <stop offset="0.39" stop-color="#1f2351"/>
      <stop offset="0.62" stop-color="#151838"/>
      <stop offset="0.87" stop-color="#080915"/>
      <stop offset="1"/>
    </radialGradient>
    <radialGradient id="radial-gradient-3" cx="-3553.6" cy="1181.19" r="86.88" gradientUnits="userSpaceOnUse">
      <stop offset="0" stop-color="#93d1bd"/>
      <stop offset="1" stop-color="#0f4722"/>
    </radialGradient>
    <linearGradient id="linear-gradient-2" x1="-3546.6" y1="1261.94" x2="-3786.76" y2="1186.76" gradientUnits="userSpaceOnUse">
      <stop offset="0.19" stop-color="#094a57"/>
      <stop offset="0.93" stop-color="#094a57"/>
    </linearGradient>
    <linearGradient id="linear-gradient-3" x1="-3543.47" y1="1354.89" x2="-3665.43" y2="1097.18" gradientUnits="userSpaceOnUse">
      <stop offset="0" stop-color="#195942"/>
      <stop offset="0.18" stop-color="#154d3f"/>
      <stop offset="0.49" stop-color="#0e3c3a"/>
      <stop offset="1" stop-color="#061d1c"/>
    </linearGradient>
    <linearGradient id="linear-gradient-4" x1="-3632.86" y1="1246.92" x2="-3556.27" y2="1246.92" xlink:href="#linear-gradient-3"/>
    <linearGradient id="linear-gradient-5" x1="-3641.51" y1="1157.4" x2="-3524.98" y2="1379.6" gradientUnits="userSpaceOnUse">
      <stop offset="0.01" stop-color="#027d9c"/>
      <stop offset="0.43" stop-color="#21ac8a"/>
      <stop offset="0.9" stop-color="#094a57"/>
    </linearGradient>
    <linearGradient id="linear-gradient-6" x1="-1409.79" y1="16034.41" x2="-1396.09" y2="16034.41" gradientTransform="matrix(-0.5, 1.44, -0.87, 0.5, 9635.62, -4770.34)" xlink:href="#linear-gradient-3"/>
    <linearGradient id="linear-gradient-7" x1="-3545.18" y1="1222.01" x2="-3554.63" y2="1221.6" gradientUnits="userSpaceOnUse">
      <stop offset="0" stop-color="#094a57"/>
      <stop offset="1" stop-color="#21ac8a"/>
    </linearGradient>
    <radialGradient id="radial-gradient-4" cx="-3549.93" cy="1217.98" r="5.55" xlink:href="#radial-gradient-2"/>
    <linearGradient id="linear-gradient-8" x1="-3675.37" y1="1104.25" x2="-3571.68" y2="1301.96" xlink:href="#linear-gradient-5"/>
    <linearGradient id="linear-gradient-9" x1="-3675.11" y1="1104.99" x2="-3571.93" y2="1301.73" xlink:href="#linear-gradient-5"/>
    <linearGradient id="linear-gradient-10" x1="-3674.84" y1="1105.73" x2="-3572.17" y2="1301.51" xlink:href="#linear-gradient-5"/>
    <linearGradient id="linear-gradient-11" x1="-3674.58" y1="1106.47" x2="-3572.41" y2="1301.28" xlink:href="#linear-gradient-5"/>
    <linearGradient id="linear-gradient-12" x1="-3674.31" y1="1107.2" x2="-3572.65" y2="1301.06" xlink:href="#linear-gradient-5"/>
    <linearGradient id="linear-gradient-13" x1="-3674.05" y1="1107.94" x2="-3572.89" y2="1300.83" xlink:href="#linear-gradient-5"/>
    <linearGradient id="linear-gradient-14" x1="-3673.78" y1="1108.68" x2="-3573.13" y2="1300.61" xlink:href="#linear-gradient-5"/>
    <linearGradient id="linear-gradient-15" x1="-3673.52" y1="1109.42" x2="-3573.37" y2="1300.38" xlink:href="#linear-gradient-5"/>
    <linearGradient id="linear-gradient-16" x1="-3673.26" y1="1110.16" x2="-3573.61" y2="1300.16" xlink:href="#linear-gradient-5"/>
    <linearGradient id="linear-gradient-17" x1="-3672.99" y1="1110.9" x2="-3573.86" y2="1299.93" xlink:href="#linear-gradient-5"/>
    <linearGradient id="linear-gradient-18" x1="-3672.73" y1="1111.64" x2="-3574.1" y2="1299.71" xlink:href="#linear-gradient-5"/>
    <linearGradient id="linear-gradient-19" x1="-3672.46" y1="1112.38" x2="-3574.34" y2="1299.48" xlink:href="#linear-gradient-5"/>
    <linearGradient id="linear-gradient-20" x1="-3672.87" y1="1106.47" x2="-3574.41" y2="1294.22" xlink:href="#linear-gradient-5"/>
    <radialGradient id="radial-gradient-5" cx="-3594.56" cy="1192" r="68.88" xlink:href="#radial-gradient-2"/>
    <linearGradient id="linear-gradient-21" x1="-3654.84" y1="1173.89" x2="-3577.92" y2="1320.55" xlink:href="#linear-gradient-5"/>
    <linearGradient id="linear-gradient-22" x1="-3654.56" y1="1174.92" x2="-3578.1" y2="1320.71" xlink:href="#linear-gradient-5"/>
    <linearGradient id="linear-gradient-23" x1="-3654.28" y1="1175.96" x2="-3578.28" y2="1320.87" xlink:href="#linear-gradient-5"/>
    <linearGradient id="linear-gradient-24" x1="-3654" y1="1176.99" x2="-3578.46" y2="1321.03" xlink:href="#linear-gradient-5"/>
    <linearGradient id="linear-gradient-25" x1="-3653.72" y1="1178.02" x2="-3578.63" y2="1321.2" xlink:href="#linear-gradient-5"/>
    <linearGradient id="linear-gradient-26" x1="-3653.44" y1="1179.04" x2="-3578.79" y2="1321.37" xlink:href="#linear-gradient-5"/>
    <linearGradient id="linear-gradient-27" x1="-3653.15" y1="1180.06" x2="-3578.95" y2="1321.54" xlink:href="#linear-gradient-5"/>
    <linearGradient id="linear-gradient-28" x1="-3652.87" y1="1181.08" x2="-3579.11" y2="1321.72" xlink:href="#linear-gradient-5"/>
    <linearGradient id="linear-gradient-29" x1="-3652.58" y1="1182.09" x2="-3579.26" y2="1321.9" xlink:href="#linear-gradient-5"/>
    <linearGradient id="linear-gradient-30" x1="-3652.3" y1="1183.1" x2="-3579.41" y2="1322.09" xlink:href="#linear-gradient-5"/>
    <linearGradient id="linear-gradient-31" x1="-3652.01" y1="1184.1" x2="-3579.54" y2="1322.27" xlink:href="#linear-gradient-5"/>
    <linearGradient id="linear-gradient-32" x1="-3651.72" y1="1185.1" x2="-3579.68" y2="1322.47" xlink:href="#linear-gradient-5"/>
    <linearGradient id="linear-gradient-33" x1="-3662.97" y1="1143.98" x2="-3524.6" y2="1407.82" xlink:href="#linear-gradient-5"/>
    <radialGradient id="radial-gradient-6" cx="-3594.56" cy="1220.33" r="68.88" xlink:href="#radial-gradient-2"/>
    <linearGradient id="linear-gradient-34" x1="-3642.7" y1="1201.65" x2="-3519.62" y2="1436.34" xlink:href="#linear-gradient-5"/>
    <radialGradient id="radial-gradient-7" cx="-3594.56" cy="1259.02" r="68.88" xlink:href="#radial-gradient-2"/>
    <linearGradient id="linear-gradient-35" x1="-3624.96" y1="1258.24" x2="-3534.57" y2="1430.6" xlink:href="#linear-gradient-5"/>
    <radialGradient id="radial-gradient-8" cx="-3594.56" cy="1302.2" r="68.88" xlink:href="#radial-gradient-2"/>
    <linearGradient id="linear-gradient-36" x1="-3613.67" y1="1290.06" x2="-3539.74" y2="1431.02" xlink:href="#linear-gradient-5"/>
    <radialGradient id="radial-gradient-9" cx="-3594.56" cy="1322.76" r="68.88" xlink:href="#radial-gradient-2"/>
    <linearGradient id="New_Gradient_Swatch_copy_13" data-name="New Gradient Swatch copy 13" x1="154.85" y1="234.02" x2="151.41" y2="276.55" gradientUnits="userSpaceOnUse">
      <stop offset="0.04" stop-color="#2068ab"/>
      <stop offset="0.31" stop-color="#2f6bae"/>
      <stop offset="0.85" stop-color="#5873b5"/>
      <stop offset="1" stop-color="#6475b7"/>
    </linearGradient>
    <linearGradient id="New_Gradient_Swatch_copy_12" data-name="New Gradient Swatch copy 12" x1="-3611.67" y1="1261.59" x2="-3656.84" y2="1347.69" gradientUnits="userSpaceOnUse">
      <stop offset="0.04" stop-color="#9cb39e"/>
      <stop offset="0.58" stop-color="#d1d8d7"/>
      <stop offset="1" stop-color="#eaf1f1"/>
    </linearGradient>
    <linearGradient id="New_Gradient_Swatch_copy_12-2" x1="-3611.67" y1="1260.26" x2="-3656.84" y2="1346.36" xlink:href="#New_Gradient_Swatch_copy_12"/>
    <linearGradient id="New_Gradient_Swatch_copy_12-3" x1="-3611.67" y1="1258.92" x2="-3656.84" y2="1345.02" xlink:href="#New_Gradient_Swatch_copy_12"/>
    <linearGradient id="New_Gradient_Swatch_copy_12-4" x1="-3611.67" y1="1257.52" x2="-3656.84" y2="1343.62" xlink:href="#New_Gradient_Swatch_copy_12"/>
    <linearGradient id="New_Gradient_Swatch_copy_12-5" x1="-3611.67" y1="1256.04" x2="-3656.84" y2="1342.14" xlink:href="#New_Gradient_Swatch_copy_12"/>
    <linearGradient id="New_Gradient_Swatch_copy_14" data-name="New Gradient Swatch copy 14" x1="-3656.95" y1="1331.8" x2="-3672.86" y2="1357.27" gradientUnits="userSpaceOnUse">
      <stop offset="0.04" stop-color="#2068ab"/>
      <stop offset="0.21" stop-color="#2f6bae"/>
      <stop offset="0.54" stop-color="#5873b5"/>
      <stop offset="0.63" stop-color="#6475b7"/>
      <stop offset="0.87" stop-color="#506ab1"/>
    </linearGradient>
    <linearGradient id="New_Gradient_Swatch_copy_13-2" x1="-3621.33" y1="1265.76" x2="-3669.45" y2="1357.48" xlink:href="#New_Gradient_Swatch_copy_13"/>
    <linearGradient id="New_Gradient_Swatch_copy_13-3" x1="-3610.65" y1="1357.22" x2="-3565.95" y2="1384.67" xlink:href="#New_Gradient_Swatch_copy_13"/>
    <linearGradient id="New_Gradient_Swatch_copy_12-6" x1="-3694.59" y1="1337.48" x2="-3693.05" y2="1326.66" xlink:href="#New_Gradient_Swatch_copy_12"/>
    <linearGradient id="linear-gradient-37" x1="142.26" y1="265.39" x2="146.56" y2="257.59" gradientUnits="userSpaceOnUse">
      <stop offset="0" stop-color="#0a6257"/>
      <stop offset="0.53" stop-color="#11897a"/>
      <stop offset="1" stop-color="#14aaaa"/>
    </linearGradient>
    <linearGradient id="New_Gradient_Swatch_copy_12-7" x1="128.28" y1="257.73" x2="132.91" y2="249.31" xlink:href="#New_Gradient_Swatch_copy_12"/>
    <linearGradient id="New_Gradient_Swatch_copy_8" data-name="New Gradient Swatch copy 8" x1="116.95" y1="256.38" x2="234.99" y2="229.92" gradientUnits="userSpaceOnUse">
      <stop offset="0.04" stop-color="#f7a68b"/>
      <stop offset="0.31" stop-color="#f8b591"/>
      <stop offset="0.85" stop-color="#fadea1"/>
      <stop offset="1" stop-color="#fbeaa6"/>
    </linearGradient>
    <linearGradient id="linear-gradient-38" x1="-3655.97" y1="1315.65" x2="-3670.38" y2="1338.73" gradientUnits="userSpaceOnUse">
      <stop offset="0.02" stop-color="#f8b595"/>
      <stop offset="0.72" stop-color="#ffd9a6"/>
      <stop offset="1" stop-color="#fab995"/>
    </linearGradient>
    <linearGradient id="New_Gradient_Swatch_copy_8-2" x1="-3625.3" y1="1257.73" x2="-3665.08" y2="1333.54" xlink:href="#New_Gradient_Swatch_copy_8"/>
    <linearGradient id="New_Gradient_Swatch_copy_10" data-name="New Gradient Swatch copy 10" x1="-3315.65" y1="1348.86" x2="-3190.2" y2="1320.74" gradientTransform="translate(-377.75)" gradientUnits="userSpaceOnUse">
      <stop offset="0.04" stop-color="#9b9db2"/>
      <stop offset="0.58" stop-color="#d3d1d8"/>
      <stop offset="1" stop-color="#ede9ef"/>
    </linearGradient>
    <linearGradient id="New_Gradient_Swatch_copy_8-3" x1="-3695.18" y1="1349.2" x2="-3565.79" y2="1320.19" xlink:href="#New_Gradient_Swatch_copy_8"/>
    <radialGradient id="radial-gradient-10" cx="12382.87" cy="5427.42" r="12.42" gradientTransform="matrix(-0.5, -0.87, -0.5, 0.86, 5305.54, 7309.33)" gradientUnits="userSpaceOnUse">
      <stop offset="0" stop-color="#f4f5f7"/>
      <stop offset="0.12" stop-color="#cdcedf"/>
      <stop offset="0.23" stop-color="#aeafcc"/>
      <stop offset="0.34" stop-color="#989abf"/>
      <stop offset="0.45" stop-color="#8b8cb7"/>
      <stop offset="0.55" stop-color="#8688b4"/>
      <stop offset="0.61" stop-color="#8d8fb8"/>
      <stop offset="0.71" stop-color="#9fa1c4"/>
      <stop offset="0.82" stop-color="#bebfd7"/>
      <stop offset="0.94" stop-color="#e8e8f1"/>
      <stop offset="1" stop-color="#fff"/>
    </radialGradient>
    <linearGradient id="New_Gradient_Swatch_copy_17" data-name="New Gradient Swatch copy 17" x1="-3691.59" y1="1221.79" x2="-3706.23" y2="1196.42" gradientTransform="translate(147.87)" gradientUnits="userSpaceOnUse">
      <stop offset="0.04" stop-color="#f6a98f"/>
      <stop offset="0.23" stop-color="#f8b895"/>
      <stop offset="0.61" stop-color="#ffe1a5"/>
      <stop offset="0.63" stop-color="#ffe3a6"/>
      <stop offset="0.87" stop-color="#f6a98f"/>
    </linearGradient>
    <linearGradient id="New_Gradient_Swatch_copy_8-4" x1="-3705.82" y1="1219.39" x2="-3692.88" y2="1197.09" gradientTransform="translate(253.44 2033.68) rotate(30.31)" xlink:href="#New_Gradient_Swatch_copy_8"/>
    <radialGradient id="radial-gradient-11" cx="11732.36" cy="3781.52" r="6.18" gradientTransform="matrix(0.49, -0.32, 0.36, 0.56, -10698.99, 2839.57)" gradientUnits="userSpaceOnUse">
      <stop offset="0" stop-color="#972a74"/>
      <stop offset="0.04" stop-color="#8a266a"/>
      <stop offset="0.19" stop-color="#601b4a"/>
      <stop offset="0.35" stop-color="#3d112f"/>
      <stop offset="0.51" stop-color="#230a1b"/>
      <stop offset="0.67" stop-color="#0f040c"/>
      <stop offset="0.83" stop-color="#040103"/>
      <stop offset="1"/>
    </radialGradient>
    <radialGradient id="radial-gradient-12" cx="-3551.66" cy="1211.42" r="10.41" gradientUnits="userSpaceOnUse">
      <stop offset="0" stop-color="#fff"/>
      <stop offset="1"/>
    </radialGradient>
    <radialGradient id="radial-gradient-13" cx="12382.87" cy="5455.76" r="12.42" gradientTransform="matrix(-0.5, -0.87, -0.5, 0.86, 5319.75, 7313.18)" xlink:href="#radial-gradient-10"/>
    <linearGradient id="New_Gradient_Swatch_copy_17-2" x1="-3691.59" y1="1249.95" x2="-3706.23" y2="1224.59" xlink:href="#New_Gradient_Swatch_copy_17"/>
    <linearGradient id="New_Gradient_Swatch_copy_8-5" x1="-3705.82" y1="1247.56" x2="-3692.88" y2="1225.26" gradientTransform="matrix(0.86, 0.5, -0.5, 0.86, 267.65, 2037.53)" xlink:href="#New_Gradient_Swatch_copy_8"/>
    <radialGradient id="radial-gradient-14" cx="11706.35" cy="3817.16" r="6.18" xlink:href="#radial-gradient-11"/>
    <radialGradient id="radial-gradient-15" cx="-3551.66" cy="1239.59" r="10.41" xlink:href="#radial-gradient-12"/>
    <radialGradient id="radial-gradient-16" cx="12382.87" cy="5495.23" r="12.42" gradientTransform="matrix(-0.5, -0.87, -0.5, 0.86, 5339.55, 7318.54)" xlink:href="#radial-gradient-10"/>
    <linearGradient id="New_Gradient_Swatch_copy_17-3" x1="-3691.59" y1="1289.17" x2="-3706.23" y2="1263.81" xlink:href="#New_Gradient_Swatch_copy_17"/>
    <linearGradient id="New_Gradient_Swatch_copy_8-6" x1="-3705.82" y1="1286.78" x2="-3692.88" y2="1264.48" gradientTransform="translate(287.45 2042.89) rotate(30.31)" xlink:href="#New_Gradient_Swatch_copy_8"/>
    <radialGradient id="radial-gradient-17" cx="11670.13" cy="3866.78" r="6.18" xlink:href="#radial-gradient-11"/>
    <radialGradient id="radial-gradient-18" cx="-3551.66" cy="1278.81" r="10.41" xlink:href="#radial-gradient-12"/>
    <radialGradient id="radial-gradient-19" cx="12382.87" cy="5535.54" r="12.42" gradientTransform="matrix(-0.5, -0.87, -0.5, 0.86, 5359.76, 7324.02)" xlink:href="#radial-gradient-10"/>
    <linearGradient id="New_Gradient_Swatch_copy_17-4" x1="-3691.59" y1="1329.23" x2="-3706.23" y2="1303.87" xlink:href="#New_Gradient_Swatch_copy_17"/>
    <linearGradient id="New_Gradient_Swatch_copy_8-7" x1="-3705.82" y1="1326.84" x2="-3692.88" y2="1304.54" gradientTransform="translate(147.87)" xlink:href="#New_Gradient_Swatch_copy_8"/>
    <radialGradient id="radial-gradient-20" cx="11633.14" cy="3917.47" r="6.18" xlink:href="#radial-gradient-11"/>
    <radialGradient id="radial-gradient-21" cx="-3551.66" cy="1318.87" r="10.41" xlink:href="#radial-gradient-12"/>
    <radialGradient id="radial-gradient-22" cx="12382.87" cy="5561.58" r="12.42" gradientTransform="matrix(-0.5, -0.87, -0.5, 0.86, 5372.82, 7327.56)" xlink:href="#radial-gradient-10"/>
    <linearGradient id="New_Gradient_Swatch_copy_17-5" x1="-3691.59" y1="1355.11" x2="-3706.23" y2="1329.75" xlink:href="#New_Gradient_Swatch_copy_17"/>
    <linearGradient id="New_Gradient_Swatch_copy_8-8" x1="-3705.82" y1="1352.72" x2="-3692.88" y2="1330.42" gradientTransform="translate(147.87)" xlink:href="#New_Gradient_Swatch_copy_8"/>
    <radialGradient id="radial-gradient-23" cx="11609.24" cy="3950.21" r="6.18" xlink:href="#radial-gradient-11"/>
    <radialGradient id="radial-gradient-24" cx="-3551.66" cy="1344.74" r="10.41" xlink:href="#radial-gradient-12"/>
    <radialGradient id="radial-gradient-25" cx="-2144.83" cy="-1614.38" r="25.96" gradientTransform="translate(2724.15 1219.27) scale(1.2 0.62)" gradientUnits="userSpaceOnUse">
      <stop offset="0.19" stop-color="#575455"/>
      <stop offset="1" stop-color="#fff"/>
    </radialGradient>
    <linearGradient id="linear-gradient-39" x1="-3628.34" y1="1304.45" x2="-3571.53" y2="1304.45" gradientTransform="translate(-54.82)" gradientUnits="userSpaceOnUse">
      <stop offset="0" stop-color="#4c2a7b"/>
      <stop offset="0.23" stop-color="#5b2f8a"/>
      <stop offset="0.32" stop-color="#623192"/>
      <stop offset="0.61" stop-color="#280f46"/>
      <stop offset="0.83" stop-color="#48276c"/>
      <stop offset="0.99" stop-color="#331b57"/>
    </linearGradient>
    <linearGradient id="linear-gradient-40" x1="-3683.43" y1="1308.85" x2="-3683.42" y2="1308.85" gradientTransform="matrix(1, 0, 0, 1, 0, 0)" xlink:href="#linear-gradient-39"/>
    <linearGradient id="linear-gradient-41" x1="-3625.72" y1="1308.85" x2="-3625.71" y2="1308.85" gradientTransform="matrix(1, 0, 0, 1, 0, 0)" xlink:href="#linear-gradient-39"/>
    <linearGradient id="New_Gradient_Swatch_copy_53" data-name="New Gradient Swatch copy 53" x1="9274.74" y1="1244.16" x2="9320.46" y2="1293.19" gradientTransform="matrix(-1, 0, 0, 1, 9461, -1089.36)" gradientUnits="userSpaceOnUse">
      <stop offset="0" stop-color="#280f46"/>
      <stop offset="1" stop-color="#4c2a7b"/>
    </linearGradient>
    <linearGradient id="linear-gradient-42" x1="-3683.43" y1="1286.58" x2="-3683.42" y2="1286.58" gradientTransform="matrix(1, 0, 0, 1, 0, 0)" xlink:href="#linear-gradient-39"/>
    <linearGradient id="linear-gradient-43" x1="-3625.72" y1="1286.58" x2="-3625.71" y2="1286.58" gradientTransform="matrix(1, 0, 0, 1, 0, 0)" xlink:href="#linear-gradient-39"/>
    <radialGradient id="radial-gradient-26" cx="156.89" cy="196.01" r="23.83" gradientTransform="matrix(1, 0, 0, 1, 0, 0)" xlink:href="#radial-gradient-25"/>
    <linearGradient id="linear-gradient-44" x1="167.79" y1="209.11" x2="261.71" y2="180.98" gradientTransform="matrix(1, 0, 0, 1, 0, 0)" xlink:href="#New_Gradient_Swatch_copy_53"/>
    <linearGradient id="linear-gradient-45" x1="69.49" y1="220.49" x2="192.99" y2="192.8" gradientTransform="matrix(1, 0, 0, 1, 0, 0)" xlink:href="#New_Gradient_Swatch_copy_53"/>
    <linearGradient id="linear-gradient-46" x1="199.28" y1="103.63" x2="148.82" y2="199.78" gradientTransform="matrix(1, 0, 0, 1, 0, 0)" xlink:href="#New_Gradient_Swatch_copy_53"/>
    <linearGradient id="New_Gradient_Swatch_copy_52" data-name="New Gradient Swatch copy 52" x1="-3677.63" y1="1307.52" x2="-3678.81" y2="1318.57" gradientUnits="userSpaceOnUse">
      <stop offset="0.04" stop-color="#ab785f"/>
      <stop offset="0.24" stop-color="#ac7c6e"/>
      <stop offset="0.63" stop-color="#ae8597"/>
      <stop offset="1" stop-color="#b18fc2"/>
    </linearGradient>
    <linearGradient id="New_Gradient_Swatch_copy_52-2" x1="-3675.62" y1="1306.4" x2="-3678.27" y2="1315.08" xlink:href="#New_Gradient_Swatch_copy_52"/>
    <linearGradient id="New_Gradient_Swatch_copy_52-3" x1="-3677.84" y1="1304.65" x2="-3678.58" y2="1315.57" xlink:href="#New_Gradient_Swatch_copy_52"/>
    <linearGradient id="linear-gradient-47" x1="-3660.05" y1="1277.08" x2="-3676.85" y2="1309.11" gradientUnits="userSpaceOnUse">
      <stop offset="0.04" stop-color="#e9a787"/>
      <stop offset="0.19" stop-color="#da9e90"/>
      <stop offset="0.49" stop-color="#b188a9"/>
      <stop offset="0.64" stop-color="#9b7bb7"/>
      <stop offset="0.87" stop-color="#e9a787"/>
    </linearGradient>
    <linearGradient id="New_Gradient_Swatch_copy_52-4" x1="-3645.69" y1="1312.11" x2="-3665.62" y2="1294.92" xlink:href="#New_Gradient_Swatch_copy_52"/>
    <linearGradient id="New_Gradient_Swatch_copy_53-2" x1="154.4" y1="193.93" x2="150.48" y2="190.66" gradientTransform="matrix(1, 0, 0, 1, 0, 0)" xlink:href="#New_Gradient_Swatch_copy_53"/>
    <linearGradient id="linear-gradient-48" x1="-3657.94" y1="1282.63" x2="-3657.94" y2="1282.63" gradientTransform="matrix(1, 0, 0, 1, 0, 0)" xlink:href="#linear-gradient-39"/>
    <linearGradient id="linear-gradient-49" x1="-3651.21" y1="1282.63" x2="-3651.21" y2="1282.63" gradientTransform="matrix(1, 0, 0, 1, 0, 0)" xlink:href="#linear-gradient-39"/>
    <linearGradient id="New_Gradient_Swatch_copy_52-5" x1="127.84" y1="217.75" x2="127.15" y2="228.04" xlink:href="#New_Gradient_Swatch_copy_52"/>
    <linearGradient id="New_Gradient_Swatch_copy_52-6" x1="127.33" y1="215.77" x2="126.67" y2="225.61" xlink:href="#New_Gradient_Swatch_copy_52"/>
    <linearGradient id="New_Gradient_Swatch_copy_52-7" x1="-3798.42" y1="479.67" x2="-3799.11" y2="489.96" gradientTransform="translate(3854.66 -659.94) rotate(-6.07)" xlink:href="#New_Gradient_Swatch_copy_52"/>
    <linearGradient id="New_Gradient_Swatch_copy_52-8" x1="-3798.93" y1="477.68" x2="-3799.59" y2="487.52" gradientTransform="translate(3854.66 -659.94) rotate(-6.07)" xlink:href="#New_Gradient_Swatch_copy_52"/>
    <linearGradient id="New_Gradient_Swatch_copy_52-9" x1="-3829.3" y1="-176.83" x2="-3829.99" y2="-166.54" gradientTransform="translate(3923.3 -326.75) rotate(-10.83)" xlink:href="#New_Gradient_Swatch_copy_52"/>
    <linearGradient id="New_Gradient_Swatch_copy_52-10" x1="-3829.85" y1="-178.51" x2="-3830.51" y2="-168.67" gradientTransform="translate(3923.3 -326.75) rotate(-10.83)" xlink:href="#New_Gradient_Swatch_copy_52"/>
    <linearGradient id="New_Gradient_Swatch_copy_52-11" x1="-3676.47" y1="1309.45" x2="-3679.51" y2="1305.97" xlink:href="#New_Gradient_Swatch_copy_52"/>
    <linearGradient id="New_Gradient_Swatch_copy_52-12" x1="-3672.73" y1="1311.65" x2="-3678.93" y2="1306.82" xlink:href="#New_Gradient_Swatch_copy_52"/>
    <linearGradient id="New_Gradient_Swatch_copy_52-13" x1="-3675.86" y1="1310.12" x2="-3678.9" y2="1306.39" xlink:href="#New_Gradient_Swatch_copy_52"/>
  </defs>
  <g class="cls-1">
    <g id="Layer_1" data-name="Layer 1">
      <rect class="cls-2" width="389.01" height="320"/>
      <g>
        <circle class="cls-3" cx="194.56" cy="175.68" r="134.5"/>
        <g>
          <g>
            <path class="cls-4" d="M-3558.74,1358.06l-60.16-34.73c-6.78-3.92-12.28-14.43-12.28-23.48v-160.2c0-4.6-3.79-5.62-1.5-7.27.09-.07,5.37-2.47,5.47-2.51a8.89,8.89,0,0,1,8.31.49l60.16,34.73c6.78,3.92,12.29,14.43,12.29,23.48v160.2c0,4.81-1.56,8.24-4,9.8-.15.1-6.51,3.12-6.68,3.18C-3559.35,1362.48-3555.77,1359.77-3558.74,1358.06Z" transform="translate(3806.95 -1089.36)"/>
            <path class="cls-5" d="M-3559.3,1165.28l-60.15-34.74c-3.21-1.85,56.83,35.84,56.83,35.84,6.78,3.92,12.29,14.43,12.29,23.48,0,0,3.32,163.9,3.32,159.1V1188.75C-3547,1179.7-3552.51,1169.19-3559.3,1165.28Z" transform="translate(3806.95 -1089.36)"/>
            <path class="cls-6" d="M-3563.41,1360.2l-60.16-34.74c-6.79-3.91-12.29-14.42-12.29-23.47V1141.78c0-9,5.5-13.2,12.29-9.28l60.16,34.73c6.78,3.91,12.28,14.43,12.28,23.47v160.21C-3551.13,1360-3556.63,1364.11-3563.41,1360.2Z" transform="translate(3806.95 -1089.36)"/>
            <path class="cls-7" d="M-3564.48,1360.77l-60.16-34.73c-6.79-3.91-12.29-14.43-12.29-23.47V1142.36c0-9,5.5-13.2,12.29-9.29l60.16,34.74c6.78,3.91,12.28,14.42,12.28,23.47v160.21C-3552.2,1360.53-3557.7,1364.69-3564.48,1360.77Z" transform="translate(3806.95 -1089.36)"/>
            <path class="cls-8" d="M-3635.25,1303.63v-160.4c0-7.93,4.82-11.58,10.77-8.14l59.84,34.55c5.94,3.43,10.77,12.64,10.77,20.58v160.4c0,7.93-4.83,11.57-10.77,8.14l-59.84-34.55C-3630.43,1320.78-3635.25,1311.56-3635.25,1303.63Z" transform="translate(3806.95 -1089.36)"/>
            <path class="cls-9" d="M-3632.86,1304.61V1145c0-6.64,4-9.69,9-6.82l58.56,33.81c5,2.88,9,10.59,9,17.23v159.59c0,6.64-4,9.69-9,6.81l-58.56-33.81C-3628.82,1319-3632.86,1311.25-3632.86,1304.61Z" transform="translate(3806.95 -1089.36)"/>
            <path class="cls-10" d="M-3623.17,1140c-4.69-2.71-8.49-.54-8.49,4.84V1306.2c0,5.38,3.8,11.94,8.49,14.65l57.21,33c4.69,2.71,8.5.54,8.5-4.84V1187.65c0-5.38-3.81-12-8.5-14.65Z" transform="translate(3806.95 -1089.36)"/>
            <path class="cls-11" d="M-3550.58,1228.35v-10.82a4.49,4.49,0,0,1,1.87-3.58h0c1-.6,1.88,0,1.88,1.42v10.81a4.5,4.5,0,0,1-1.88,3.59h0C-3549.74,1230.37-3550.58,1229.73-3550.58,1228.35Z" transform="translate(3806.95 -1089.36)"/>
            <path class="cls-12" d="M-3549.45,1229.59c-.54,0-.73-.67-.73-1.24v-10.82a4.1,4.1,0,0,1,1.68-3.23,1.12,1.12,0,0,1,.54-.17c.54,0,.73.66.73,1.24v10.81a4.13,4.13,0,0,1-1.68,3.24A1.12,1.12,0,0,1-3549.45,1229.59Z" transform="translate(3806.95 -1089.36)"/>
            <path class="cls-13" d="M-3549.62,1228.63v-10.82a4.13,4.13,0,0,1,1.67-3.24,1.5,1.5,0,0,1,.48-.16.56.56,0,0,0-.49-.28,1.12,1.12,0,0,0-.54.17,4.1,4.1,0,0,0-1.68,3.23v10.82c0,.57.19,1.24.73,1.24h.06A1.86,1.86,0,0,1-3549.62,1228.63Z" transform="translate(3806.95 -1089.36)"/>
          </g>
          <g>
            <g class="cls-14">
              <path class="cls-15" d="M-3623,1169.39c-4.94-2.85-8.94-.57-8.94,5.1v128.89c0,5.67,4,12.58,8.94,15.44l60.24,34.78c4.95,2.85,8.95.57,8.95-5.11V1219.61c0-5.68-4-12.59-8.95-15.44Z" transform="translate(3806.95 -1089.36)"/>
              <path class="cls-16" d="M-3623,1169.81c-4.91-2.84-8.9-.56-8.9,5.08v128.26c0,5.64,4,12.52,8.9,15.36l59.95,34.61c4.92,2.84,8.9.57,8.9-5.08V1219.78c0-5.64-4-12.52-8.9-15.36Z" transform="translate(3806.95 -1089.36)"/>
              <path class="cls-17" d="M-3623,1170.24c-4.89-2.83-8.86-.57-8.86,5v127.63c0,5.61,4,12.46,8.86,15.28l59.65,34.44c4.9,2.83,8.87.57,8.87-5.05V1220c0-5.62-4-12.46-8.87-15.28Z" transform="translate(3806.95 -1089.36)"/>
              <path class="cls-18" d="M-3623,1170.66c-4.87-2.81-8.82-.56-8.82,5v127c0,5.58,4,12.39,8.82,15.2l59.36,34.28c4.87,2.81,8.82.56,8.82-5v-127c0-5.59-3.95-12.4-8.82-15.21Z" transform="translate(3806.95 -1089.36)"/>
              <path class="cls-19" d="M-3623,1171.08c-4.84-2.8-8.77-.56-8.77,5v126.38c0,5.56,3.93,12.33,8.77,15.13l59.07,34.1c4.84,2.8,8.77.56,8.77-5V1220.31c0-5.56-3.93-12.33-8.77-15.13Z" transform="translate(3806.95 -1089.36)"/>
              <path class="cls-20" d="M-3623,1171.5c-4.82-2.78-8.73-.55-8.73,5v125.74c0,5.54,3.91,12.28,8.73,15.06l58.77,33.93c4.82,2.79,8.73.56,8.73-5V1220.49c0-5.53-3.91-12.27-8.73-15.06Z" transform="translate(3806.95 -1089.36)"/>
              <path class="cls-21" d="M-3623,1171.92c-4.8-2.77-8.69-.55-8.69,4.95V1302c0,5.51,3.89,12.21,8.69,15l58.48,33.77c4.79,2.76,8.68.55,8.68-5V1220.67c0-5.51-3.89-12.22-8.68-15Z" transform="translate(3806.95 -1089.36)"/>
              <path class="cls-22" d="M-3623,1172.34c-4.77-2.75-8.64-.55-8.64,4.93v124.49c0,5.48,3.87,12.15,8.64,14.91l58.18,33.59c4.77,2.75,8.64.55,8.64-4.93V1220.84c0-5.47-3.87-12.15-8.64-14.9Z" transform="translate(3806.95 -1089.36)"/>
              <path class="cls-23" d="M-3622.95,1172.77c-4.75-2.75-8.6-.55-8.6,4.9v123.86c0,5.45,3.85,12.09,8.6,14.83l57.89,33.42c4.75,2.74,8.6.55,8.6-4.9V1221c0-5.45-3.85-12.09-8.6-14.83Z" transform="translate(3806.95 -1089.36)"/>
              <path class="cls-24" d="M-3622.94,1173.19c-4.73-2.73-8.56-.55-8.56,4.87V1301.3c0,5.42,3.83,12,8.56,14.75l57.59,33.25c4.73,2.73,8.56.55,8.56-4.87V1221.2c0-5.43-3.83-12-8.56-14.76Z" transform="translate(3806.95 -1089.36)"/>
              <path class="cls-25" d="M-3622.93,1173.61c-4.7-2.72-8.52-.54-8.52,4.85v122.6c0,5.4,3.82,12,8.52,14.68l57.3,33.09c4.7,2.71,8.51.54,8.51-4.85V1221.37c0-5.39-3.81-12-8.51-14.68Z" transform="translate(3806.95 -1089.36)"/>
              <path class="cls-26" d="M-3622.92,1174c-4.68-2.7-8.47-.54-8.47,4.83v122c0,5.37,3.79,11.91,8.47,14.61l57,32.91c4.68,2.7,8.47.54,8.47-4.83v-122c0-5.37-3.79-11.91-8.47-14.61Z" transform="translate(3806.95 -1089.36)"/>
            </g>
            <path class="cls-27" d="M-3623.17,1168.33c-4.69-2.71-8.49-.54-8.49,4.84v122.4c0,5.38,3.8,12,8.49,14.65l57.21,33c4.69,2.71,8.5.54,8.5-4.84V1216c0-5.38-3.81-11.94-8.5-14.65Z" transform="translate(3806.95 -1089.36)"/>
            <path class="cls-28" d="M-3566,1201.36l-57.21-33c-4.69-2.71-8.49-.54-8.49,4.84v.83c0-5.39,3.8-7.56,8.49-4.85l57.21,33c4.69,2.71,8.5,9.27,8.5,14.65V1216C-3557.46,1210.63-3561.27,1204.07-3566,1201.36Z" transform="translate(3806.95 -1089.36)"/>
            <path class="cls-29" d="M-3570.51,1180.67l7.43,4.29c.28.16.51,0,.51-.29a1.15,1.15,0,0,0-.51-.89l-7.43-4.28c-.29-.17-.52,0-.52.29A1.11,1.11,0,0,0-3570.51,1180.67Zm7.43,5.76-7.43-4.29c-.29-.16-.52,0-.52.29a1.13,1.13,0,0,0,.52.89l7.43,4.29c.28.16.51,0,.51-.3A1.13,1.13,0,0,0-3563.08,1186.43Zm0,2.65-7.43-4.29c-.29-.17-.52,0-.52.29a1.11,1.11,0,0,0,.52.88l7.43,4.29c.28.16.51,0,.51-.29A1.11,1.11,0,0,0-3563.08,1189.08Z" transform="translate(3806.95 -1089.36)"/>
            <g>
              <path class="cls-29" d="M-3616,1155c0,.78-.55,1.1-1.23.7a2.7,2.7,0,0,1-1.24-2.13c0-.79.55-1.1,1.24-.71A2.74,2.74,0,0,1-3616,1155Z" transform="translate(3806.95 -1089.36)"/>
              <path class="cls-29" d="M-3619.76,1152.85c0,.78-.55,1.1-1.24.7a2.72,2.72,0,0,1-1.23-2.13c0-.78.55-1.1,1.23-.71A2.72,2.72,0,0,1-3619.76,1152.85Z" transform="translate(3806.95 -1089.36)"/>
              <path class="cls-29" d="M-3623.49,1150.68c0,.78-.55,1.1-1.24.7a2.72,2.72,0,0,1-1.23-2.13c0-.78.55-1.1,1.23-.7A2.7,2.7,0,0,1-3623.49,1150.68Z" transform="translate(3806.95 -1089.36)"/>
            </g>
            <path class="cls-29" d="M-3594.49,1163.8c-.77-.44-1.4-.09-1.4.8a3.07,3.07,0,0,0,1.4,2.41c.77.45,1.4.09,1.4-.79A3.1,3.1,0,0,0-3594.49,1163.8Zm-9.87,5.63c-.78-.44-1.4-.09-1.4.8a3,3,0,0,0,1.4,2.41c.77.45,1.4.09,1.4-.79A3.1,3.1,0,0,0-3604.36,1169.43Zm19.74,11.4c-.77-.44-1.4-.09-1.4.8a3.07,3.07,0,0,0,1.4,2.41c.77.45,1.4.09,1.4-.79A3.1,3.1,0,0,0-3584.62,1180.83Zm.14-1.08c1.39-.12,1.87-1.89,1.06-4s-2.58-3.65-4-3.53-1.87,1.89-1.07,4S-3585.88,1179.87-3584.48,1179.75Zm-3.86-8.47a2.37,2.37,0,0,0-.52-2.49c-.66-.83-1.52-1.06-1.91-.52a2.37,2.37,0,0,0,.52,2.49C-3589.59,1171.59-3588.73,1171.82-3588.34,1171.28Zm-11.79-9c-.67.06-.9.91-.51,1.9s1.24,1.75,1.91,1.69.9-.91.51-1.9S-3599.46,1162.23-3600.13,1162.28Zm-4.12,2.35a2.34,2.34,0,0,0,.51,2.49c.67.83,1.52,1.06,1.91.52a2.34,2.34,0,0,0-.51-2.49C-3603,1164.32-3603.87,1164.09-3604.25,1164.63Z" transform="translate(3806.95 -1089.36)"/>
            <g class="cls-14">
              <path class="cls-30" d="M-3623,1226.92c-4.94-2.86-8.94-.57-8.94,5.1v72.6c0,5.68,4,12.59,8.94,15.44l60.24,34.78c4.95,2.85,5.06-1.61,5.06-7.28V1275c0-5.67-.11-10.4-5.06-13.25Z" transform="translate(3806.95 -1089.36)"/>
              <path class="cls-31" d="M-3623,1227.68c-4.91-2.84-8.9-.56-8.9,5.08v72c0,5.64,4,12.52,8.9,15.35l59.95,34.61c4.92,2.84,5.36-1.41,5.36-7v-72c0-5.64-.44-10.54-5.36-13.38Z" transform="translate(3806.95 -1089.36)"/>
              <path class="cls-32" d="M-3623,1228.45c-4.89-2.83-8.86-.57-8.86,5v71.35c0,5.61,4,12.46,8.86,15.28l59.65,34.44c4.9,2.83,5.68-1.22,5.68-6.83v-71.35c0-5.62-.78-10.68-5.68-13.5Z" transform="translate(3806.95 -1089.36)"/>
              <path class="cls-33" d="M-3623,1229.21c-4.87-2.81-8.82-.56-8.82,5V1305c0,5.59,4,12.4,8.82,15.21l59.36,34.27c4.87,2.81,6-1,6-6.61v-70.72c0-5.59-1.11-10.82-6-13.63Z" transform="translate(3806.95 -1089.36)"/>
              <path class="cls-34" d="M-3623,1230c-4.84-2.8-8.77-.56-8.77,5v70.09c0,5.56,3.93,12.34,8.77,15.13l59.07,34.1c4.84,2.8,6.29-.82,6.29-6.38v-70.1c0-5.56-1.45-10.94-6.29-13.74Z" transform="translate(3806.95 -1089.36)"/>
              <path class="cls-35" d="M-3623,1230.74c-4.82-2.78-8.73-.55-8.73,5v69.46c0,5.53,3.91,12.28,8.73,15.06l58.77,33.93c4.82,2.78,6.61-.63,6.61-6.16v-69.47c0-5.53-1.79-11.08-6.61-13.87Z" transform="translate(3806.95 -1089.36)"/>
              <path class="cls-36" d="M-3623,1231.51c-4.8-2.77-8.69-.56-8.69,5v68.83c0,5.51,3.89,12.22,8.69,15l58.48,33.76c4.79,2.77,6.91-.44,6.91-5.94v-68.84c0-5.5-2.12-11.22-6.91-14Z" transform="translate(3806.95 -1089.36)"/>
              <path class="cls-37" d="M-3623,1232.27c-4.77-2.75-8.64-.55-8.64,4.93v68.21c0,5.47,3.87,12.15,8.64,14.9l58.18,33.59c4.77,2.76,7.23-.24,7.23-5.72V1280c0-5.48-2.46-11.36-7.23-14.12Z" transform="translate(3806.95 -1089.36)"/>
              <path class="cls-38" d="M-3622.95,1233c-4.75-2.74-8.6-.55-8.6,4.9v67.58c0,5.45,3.85,12.09,8.6,14.83l57.89,33.42c4.75,2.74,7.53,0,7.53-5.5V1280.7c0-5.45-2.78-11.5-7.53-14.24Z" transform="translate(3806.95 -1089.36)"/>
              <path class="cls-39" d="M-3622.94,1233.8c-4.73-2.73-8.56-.54-8.56,4.88v67c0,5.42,3.83,12,8.56,14.75l57.59,33.26c4.73,2.73,7.85.15,7.85-5.28v-66.94c0-5.43-3.12-11.64-7.85-14.37Z" transform="translate(3806.95 -1089.36)"/>
              <path class="cls-40" d="M-3622.93,1234.57c-4.7-2.72-8.52-.54-8.52,4.85v66.32c0,5.39,3.82,12,8.52,14.68l57.3,33.08c4.7,2.72,8.15.35,8.15-5v-66.32c0-5.39-3.45-11.77-8.15-14.48Z" transform="translate(3806.95 -1089.36)"/>
              <path class="cls-41" d="M-3622.92,1235.33c-4.68-2.7-8.47-.54-8.47,4.83v65.69c0,5.37,3.79,11.91,8.47,14.61l57,32.91c4.68,2.7,8.47.54,8.47-4.83v-65.69c0-5.37-3.79-11.9-8.47-14.6Z" transform="translate(3806.95 -1089.36)"/>
            </g>
            <g>
              <path class="cls-42" d="M-3623.17,1196.67c-4.69-2.71-8.49-.54-8.49,4.84v103c0,5.38,3.8,11.94,8.49,14.65l57.21,33c4.69,2.71,8.5.54,8.5-4.84v-103c0-5.39-3.81-11.95-8.5-14.66Z" transform="translate(3806.95 -1089.36)"/>
              <path class="cls-43" d="M-3566,1229.69l-57.21-33c-4.69-2.71-8.49-.54-8.49,4.84v.82c0-5.38,3.8-7.55,8.49-4.84l57.21,33c4.69,2.71,8.5,9.28,8.5,14.66v-.82C-3557.46,1239-3561.27,1232.4-3566,1229.69Z" transform="translate(3806.95 -1089.36)"/>
            </g>
            <g>
              <path class="cls-44" d="M-3623.17,1235.35c-4.69-2.71-8.49-.54-8.49,4.85v63.64c0,5.39,3.8,12,8.49,14.66l57.21,33c4.69,2.71,8.5.54,8.5-4.85V1283c0-5.38-3.81-11.94-8.5-14.65Z" transform="translate(3806.95 -1089.36)"/>
              <path class="cls-45" d="M-3566,1268.38l-57.21-33c-4.69-2.71-8.49-.54-8.49,4.85v.82c0-5.39,3.8-7.56,8.49-4.85l57.21,33c4.69,2.71,8.5,9.27,8.5,14.66V1283C-3557.46,1277.65-3561.27,1271.09-3566,1268.38Z" transform="translate(3806.95 -1089.36)"/>
            </g>
            <g>
              <path class="cls-46" d="M-3623.17,1278.53c-4.69-2.71-8.49-.54-8.49,4.84v22.83c0,5.38,3.8,11.94,8.49,14.65l57.21,33c4.69,2.71,8.5.54,8.5-4.84v-22.83c0-5.39-3.81-12-8.5-14.66Z" transform="translate(3806.95 -1089.36)"/>
              <path class="cls-47" d="M-3566,1311.55l-57.21-33c-4.69-2.71-8.49-.54-8.49,4.84v.82c0-5.38,3.8-7.55,8.49-4.84l57.21,33c4.69,2.7,8.5,9.27,8.5,14.65v-.82C-3557.46,1320.82-3561.27,1314.26-3566,1311.55Z" transform="translate(3806.95 -1089.36)"/>
            </g>
            <g>
              <path class="cls-48" d="M-3623.17,1299.09c-4.69-2.71-8.49-.54-8.49,4.85v2.26c0,5.38,3.8,11.94,8.49,14.65l57.21,33c4.69,2.71,8.5.54,8.5-4.84v-2.26c0-5.39-3.81-12-8.5-14.66Z" transform="translate(3806.95 -1089.36)"/>
              <path class="cls-49" d="M-3566,1332.12l-57.21-33c-4.69-2.71-8.49-.54-8.49,4.85v.82c0-5.39,3.8-7.55,8.49-4.85l57.21,33c4.69,2.71,8.5,9.27,8.5,14.66v-.82C-3557.46,1341.39-3561.27,1334.83-3566,1332.12Z" transform="translate(3806.95 -1089.36)"/>
            </g>
            <g class="cls-50">
              <path class="cls-51" d="M-3618.11,1182.67l13.1,7.56c.23.13.3-.17.1-.4l-6.65-7.74-6.65.06C-3618.41,1182.15-3618.34,1182.54-3618.11,1182.67Z" transform="translate(3806.95 -1089.36)"/>
              <path class="cls-51" d="M-3605.89,1190.78c.2.11.37,0,.37-.22v-.36l-12.08-7v.36a.83.83,0,0,0,.38.65l.49.28v7.25l-.37-.22c-.21-.11-.37,0-.37.22v.58l11.82,6.82v-.58a.81.81,0,0,0-.37-.64l-.37-.21v-7.25Zm-2.32,5.91-6.7-3.87v-7.25l6.7,3.87Z" transform="translate(3806.95 -1089.36)"/>
              <path class="cls-51" d="M-3605.14,1199.71l-12.84-7.42c-.2-.11-.37,0-.37.22v.58l13.58,7.84v-.58A.8.8,0,0,0-3605.14,1199.71Z" transform="translate(3806.95 -1089.36)"/>
            </g>
            <g class="cls-52">
              <path class="cls-51" d="M-3600.84,1192.73l13.11,7.56c.22.13.3-.17.1-.4l-6.65-7.74-6.65.06C-3601.13,1192.21-3601.06,1192.6-3600.84,1192.73Z" transform="translate(3806.95 -1089.36)"/>
              <path class="cls-51" d="M-3588.62,1200.84c.21.12.37,0,.37-.21v-.37l-12.07-7v.37a.84.84,0,0,0,.37.64l.5.28v7.25l-.37-.21c-.21-.12-.37,0-.37.21v.58l11.82,6.83v-.58a.81.81,0,0,0-.37-.64l-.37-.22v-7.25Zm-2.31,5.91-6.7-3.87v-7.25l6.7,3.87Z" transform="translate(3806.95 -1089.36)"/>
              <path class="cls-51" d="M-3587.86,1209.77l-12.84-7.41c-.21-.12-.37,0-.37.21v.58l13.58,7.84v-.58A.84.84,0,0,0-3587.86,1209.77Z" transform="translate(3806.95 -1089.36)"/>
            </g>
            <g class="cls-50">
              <path class="cls-51" d="M-3583.56,1202.89l13.11,7.56c.22.13.29-.17.1-.4l-6.66-7.74-6.65.06C-3583.85,1202.37-3583.78,1202.76-3583.56,1202.89Z" transform="translate(3806.95 -1089.36)"/>
              <path class="cls-51" d="M-3571.34,1211c.2.11.37,0,.37-.22v-.36l-12.07-7v.36a.81.81,0,0,0,.37.64l.5.29V1212l-.38-.22c-.2-.11-.37,0-.37.22v.58l11.83,6.82v-.58a.84.84,0,0,0-.37-.64l-.38-.21v-7.25Zm-2.31,5.91-6.71-3.87v-7.25l6.71,3.87Z" transform="translate(3806.95 -1089.36)"/>
              <path class="cls-51" d="M-3570.59,1219.93l-12.83-7.42c-.21-.11-.38,0-.38.22v.58l13.59,7.84v-.58A.81.81,0,0,0-3570.59,1219.93Z" transform="translate(3806.95 -1089.36)"/>
            </g>
            <path class="cls-53" d="M-3612.24,1187.84l1.29.74,1,6.29-1-.55-.17-1.23h0l-1.08-.62-.17,1-.88-.51Zm1,4.42-.43-3.07h0l-.42,2.59Z" transform="translate(3806.95 -1089.36)"/>
            <path class="cls-54" d="M-3595.41,1197.66l1.43.82a3,3,0,0,1,1.07.94,2.1,2.1,0,0,1,.34,1.19v.23a1,1,0,0,1-.15.63.43.43,0,0,1-.46.13v0a2.06,2.06,0,0,1,.7,1.6v.49c0,.44-.12.71-.36.8a1.41,1.41,0,0,1-1.08-.27l-1.49-.87Zm1.32,3.09c.19.1.33.14.43.1s.14-.16.14-.38v-.32a1,1,0,0,0-.12-.52.93.93,0,0,0-.36-.35l-.46-.26v1.51Zm.17,2.67a.52.52,0,0,0,.38.09c.08,0,.12-.16.12-.37v-.5a1.18,1.18,0,0,0-.15-.63,1.31,1.31,0,0,0-.47-.42l-.42-.24v1.75Z" transform="translate(3806.95 -1089.36)"/>
            <path class="cls-53" d="M-3577.92,1213.5a2.27,2.27,0,0,1-.36-1.24v-3.07c0-.45.12-.73.36-.83s.58,0,1,.23a2.76,2.76,0,0,1,1,1,2.27,2.27,0,0,1,.36,1.24v.6l-.89-.51v-.67a.87.87,0,0,0-.48-.8c-.31-.18-.47-.1-.47.26v3.19a.88.88,0,0,0,.47.8c.32.18.48.1.48-.25v-.88l.89.52v.81c0,.45-.12.72-.36.83s-.58,0-1-.23A2.79,2.79,0,0,1-3577.92,1213.5Z" transform="translate(3806.95 -1089.36)"/>
            <path class="cls-55" d="M-3566.12,1214v7.76l4.19-1.46Zm-56.45-25.12v-7.76l-4.19,1.46Z" transform="translate(3806.95 -1089.36)"/>
            <g>
              <path class="cls-56" d="M-3572.39,1239.58l-43.17-24.74a3.28,3.28,0,0,1-1.38-2.63v-2.75c0-1,.61-1.48,1.38-1l43.17,24.74a3.31,3.31,0,0,1,1.38,2.63v2.75C-3571,1239.55-3571.63,1240-3572.39,1239.58Z" transform="translate(3806.95 -1089.36)"/>
              <path class="cls-56" d="M-3572.39,1249.36l-43.17-24.75a3.26,3.26,0,0,1-1.38-2.63v-2.75c0-1,.61-1.48,1.38-1l43.17,24.74a3.31,3.31,0,0,1,1.38,2.64v2.74C-3571,1249.33-3571.63,1249.8-3572.39,1249.36Z" transform="translate(3806.95 -1089.36)"/>
              <path class="cls-56" d="M-3572.39,1259.29l-43.17-24.74a3.28,3.28,0,0,1-1.38-2.64v-2.74c0-1,.61-1.48,1.38-1.05l43.17,24.75a3.31,3.31,0,0,1,1.38,2.63v2.75C-3571,1259.26-3571.63,1259.73-3572.39,1259.29Z" transform="translate(3806.95 -1089.36)"/>
            </g>
            <g>
              <path class="cls-57" d="M-3617.65,1250c2.19,1.27,4,1.85,4,1.3s-1.77-2-4-3.27-3.95-1.84-3.95-1.3S-3619.83,1248.78-3617.65,1250Zm0,.67c-2.18-1.26-3.95-2.73-3.95-3.28v1.64h0c0,.55,1.77,2,3.95,3.28s4,1.84,4,1.29h0V1252C-3613.69,1252.55-3615.46,1252-3617.65,1250.71Zm0,2.24c-2.18-1.26-3.95-2.72-3.95-3.27v1.64h0c0,.55,1.77,2,3.95,3.27s4,1.84,4,1.3h0v-1.64C-3613.69,1254.8-3615.46,1254.22-3617.65,1253Zm0,2.25c-2.18-1.26-3.95-2.72-3.95-3.27v1.64h0c0,.55,1.77,2,3.95,3.27s4,1.84,4,1.3h0v-1.64C-3613.69,1257-3615.46,1256.46-3617.65,1255.2Zm0,2.24c-2.18-1.26-3.95-2.73-3.95-3.27v1.64h0c0,.54,1.77,2,3.95,3.27s4,1.84,4,1.29h0v-1.63C-3613.69,1259.28-3615.46,1258.7-3617.65,1257.44Z" transform="translate(3806.95 -1089.36)"/>
              <path class="cls-57" d="M-3613.72,1269.52l-7.85-4.54c-.49-.27-.88,0-.88.5v5.32a1.89,1.89,0,0,0,.88,1.5l7.85,4.54c.48.28.87.05.87-.5V1271A1.92,1.92,0,0,0-3613.72,1269.52Zm.46,7.14-3.1-4.75-1.29.68-1.28-2.17-3.1,1.18s2.53-1.54,2.79-1.7c-1.28-2.15-2.86-4.82-2.86-4.83l4.45,6.7,4.47-1.54-2.87,1.52Z" transform="translate(3806.95 -1089.36)"/>
              <path class="cls-57" d="M-3584.66,1288.76l-3.23-4.49c-.29-.4-.69-.39-.69,0v5.23c0,.4.4.88.69.81l3.23-.75C-3584.41,1289.52-3584.41,1289.1-3584.66,1288.76Zm-2.3-6.43c-2.65-1.53-4.8-.3-4.8,2.74a10.58,10.58,0,0,0,4.8,8.27c2.64,1.53,4.79.3,4.79-2.73A10.6,10.6,0,0,0-3587,1282.33Zm0,10.32a9.23,9.23,0,0,1-4.2-7.24c0-2.65,1.88-3.73,4.2-2.39a9.27,9.27,0,0,1,4.19,7.24C-3582.77,1292.92-3584.65,1294-3587,1292.65Z" transform="translate(3806.95 -1089.36)"/>
              <path class="cls-57" d="M-3576.83,1296.47l9.6,5.54v-8.24Zm7.91,2.61-2.81-1.62,2.81-.79Zm.56,1.58c0-.11.08-.16.18-.1a.44.44,0,0,1,.18.31v.46l-.36-.21Zm-.9-.51c0-.12.08-.16.18-.11a.4.4,0,0,1,.18.31v.46l-.36-.21Zm-.9-.52c0-.12.08-.16.18-.1a.37.37,0,0,1,.18.31v.45l-.36-.21Zm-.9-.52a.11.11,0,0,1,.18-.1.37.37,0,0,1,.18.31v.45l-.36-.21Zm-.89-.52c0-.11.08-.16.18-.1a.4.4,0,0,1,.18.31v.45l-.36-.2Zm-.9-.52c0-.11.08-.16.18-.1a.4.4,0,0,1,.18.31v.46l-.36-.21Zm-.89-.51a.11.11,0,0,1,.18-.1.4.4,0,0,1,.18.31v.45l-.36-.2Zm-.89-.06V1297c0-.11.08-.15.18-.1a.4.4,0,0,1,.18.31v.46Z" transform="translate(3806.95 -1089.36)"/>
              <path class="cls-57" d="M-3598.1,1259.74l-.41-.24v.69c0,.57-.4.8-.9.51a2,2,0,0,1-.9-1.55v-.69l-3.6-2.07v.69c0,.57-.4.8-.9.51a2,2,0,0,1-.9-1.55v-.69l-.41-.24c-.43-.25-.79,0-.79.45v6.8a1.75,1.75,0,0,0,.79,1.35l8,4.63c.44.25.79.05.79-.44v-6.8A1.72,1.72,0,0,0-3598.1,1259.74Zm.19,8-8.4-4.84v-5.85l8.4,4.84Zm-4.5-8.1-1.5-.86v1l1.5.86Zm2.1,1.21-1.5-.86v1l1.5.87Zm2.1,1.22-1.5-.87v1l1.5.87Zm-6.3-2.26-1.5-.87v1l1.5.87Zm2.1,1.21-1.5-.87v1l1.5.87Zm2.1,1.21-1.5-.87v1l1.5.86Zm2.1,1.21-1.5-.86v1l1.5.86Zm-6.3-2.26-1.5-.86v1l1.5.86Zm2.1,1.21-1.5-.86v1l1.5.87Zm2.1,1.22-1.5-.87v1l1.5.87Zm2.1,1.21-1.5-.87v1l1.5.86Zm-6.3-2.26-1.5-.87v1l1.5.86Zm2.1,1.21-1.5-.86v1l1.5.86Zm-2.4-6.55c.33.2.6,0,.6-.34v-1.37a1.33,1.33,0,0,0-.6-1c-.33-.19-.6,0-.6.34v1.38A1.32,1.32,0,0,0-3604.81,1257.24Zm5.4,3.12c.33.19.6,0,.6-.34v-1.38a1.32,1.32,0,0,0-.6-1c-.33-.19-.6,0-.6.34v1.38A1.32,1.32,0,0,0-3599.41,1260.36Z" transform="translate(3806.95 -1089.36)"/>
              <path class="cls-57" d="M-3583.52,1268.85l-1.19-.69v-1l-5.07-2.92c-.35-.21-.63,0-.63.36v7.87l0,0a1,1,0,0,0,0,.32,2,2,0,0,0,.9,1.55l.9.52v1l.9-.51.9,1.55v-1l3.29,1.9Zm-6,4.8a.66.66,0,0,1-.3-.52c0-.19.13-.26.3-.17l.6.35.3.17v.69Zm5.4,3.12-2.7-1.56v-.69l2.1,1.21v-6.88l.6.35Z" transform="translate(3806.95 -1089.36)"/>
              <path class="cls-57" d="M-3571.73,1275.14v-.32a1.4,1.4,0,0,0-.62-1.08l-3-1.7c-.35-.2-.63,0-.63.36v.66l-.27-.16c-.35-.2-.63,0-.63.35V1279a1.4,1.4,0,0,0,.64,1.1l8.06,4.65c.5.29.9.06.9-.51v-6.54Zm3.9,8.79c0,.19-.13.26-.3.17a.69.69,0,0,1-.3-.52v-5.16l-4.5-2.6v-.31a1.38,1.38,0,0,0-.62-1.08l-1.78-1v-.66a0,0,0,0,1,0,0l3,1.7a.08.08,0,0,1,0,0v1l.6.35,3.9,2.25Z" transform="translate(3806.95 -1089.36)"/>
              <path class="cls-57" d="M-3599,1278.84l-2.22-3.83a3.74,3.74,0,0,0-1.3-1.37l-3.14-1.81v11l7.2,4.16v-6.36A3.69,3.69,0,0,0-3599,1278.84Zm-2.46-3.27,1.85,3.19-1.85-1.07Zm2.4,10.39-6-3.46v-9.64l2.63,1.52a.84.84,0,0,1,.37.64v3l2.63,1.51a.84.84,0,0,1,.37.65Zm-5.4-6.56,4.8,2.77v-.68l-4.8-2.77Zm0-1.37,4.8,2.77v-.69l-4.8-2.77Zm0,2.75,4.8,2.77v-.69l-4.8-2.77Z" transform="translate(3806.95 -1089.36)"/>
            </g>
            <path class="cls-56" d="M-3611.45,1299.57v-2.67l2.33,1.35c.15.08.27,0,.27-.16v-1.8a.61.61,0,0,0-.27-.47l-2.33-1.34v-2.68a.61.61,0,0,0-.27-.47l-1.57-.9c-.15-.09-.27,0-.27.15v2.68l-2.2-1.27c-.15-.09-.28,0-.28.15v1.8a.6.6,0,0,0,.28.47l2.2,1.27v2.67a.61.61,0,0,0,.27.48l1.57.9C-3611.57,1299.82-3611.45,1299.75-3611.45,1299.57Z" transform="translate(3806.95 -1089.36)"/>
            <path class="cls-56" d="M-3602.24,1304.87v-2.67l2.33,1.34c.15.09.28,0,.28-.16v-1.79a.62.62,0,0,0-.28-.48l-2.33-1.34v-2.67a.61.61,0,0,0-.27-.48l-1.57-.9c-.15-.09-.27,0-.27.16v2.67l-2.2-1.27c-.15-.09-.27,0-.27.16v1.79a.61.61,0,0,0,.27.48l2.2,1.26v2.68a.61.61,0,0,0,.27.47l1.57.9C-3602.36,1305.11-3602.24,1305-3602.24,1304.87Z" transform="translate(3806.95 -1089.36)"/>
            <path class="cls-56" d="M-3592.92,1310.16v-2.67l2.32,1.34c.16.09.28,0,.28-.15v-1.8a.58.58,0,0,0-.28-.47l-2.32-1.35v-2.67a.6.6,0,0,0-.28-.47l-1.56-.91c-.16-.08-.28,0-.28.16v2.67l-2.2-1.27c-.15-.08-.27,0-.27.16v1.8a.61.61,0,0,0,.27.47l2.2,1.27v2.67a.58.58,0,0,0,.28.47l1.56.91C-3593,1310.41-3592.92,1310.34-3592.92,1310.16Z" transform="translate(3806.95 -1089.36)"/>
            <path class="cls-56" d="M-3583.81,1315.36v-2.68l2.33,1.35c.15.09.27,0,.27-.16v-1.79a.61.61,0,0,0-.27-.48l-2.33-1.34v-2.67a.61.61,0,0,0-.27-.48l-1.57-.9c-.15-.09-.27,0-.27.15V1309l-2.2-1.27c-.15-.09-.27,0-.27.16v1.79a.58.58,0,0,0,.27.47l2.2,1.27v2.68a.61.61,0,0,0,.27.47l1.57.9C-3583.93,1315.6-3583.81,1315.53-3583.81,1315.36Z" transform="translate(3806.95 -1089.36)"/>
            <path class="cls-56" d="M-3574.5,1320.65V1318l2.33,1.34c.15.09.28,0,.28-.15v-1.8a.59.59,0,0,0-.28-.47l-2.33-1.35v-2.67a.61.61,0,0,0-.27-.48l-1.57-.9c-.15-.09-.27,0-.27.16v2.67l-2.2-1.27c-.15-.09-.27,0-.27.16V1315a.61.61,0,0,0,.27.48l2.2,1.27v2.67a.61.61,0,0,0,.27.47l1.57.91C-3574.62,1320.89-3574.5,1320.82-3574.5,1320.65Z" transform="translate(3806.95 -1089.36)"/>
            <path class="cls-57" d="M-3593.41,1330.27c0-.49.54-.48.92,0s1.08.44.88-.3c-.16-.57.19-.87.63-.55s.91-.18.49-.88c-.32-.54-.2-1.1.23-1s.55-.77,0-1.29-.55-1.11-.23-1.27.08-1.21-.49-1.45a1.2,1.2,0,0,1-.63-1.28c.2-.5-.4-1.41-.88-1.32s-.88-.5-.92-1c-.05-.69-.81-1.33-1.1-.93s-.79,0-1-.59c-.29-.73-1-1-1.1-.34s-.54.48-.92,0-1.08-.43-.88.3-.19.88-.63.55-.91.19-.49.88.2,1.1-.23,1-.55.78,0,1.3.55,1.1.23,1.27-.08,1.21.49,1.45a1.19,1.19,0,0,1,.63,1.28c-.2.5.4,1.4.88,1.31s.88.5.92,1,.81,1.32,1.1.92.79,0,1,.59C-3594.22,1330.66-3593.46,1330.9-3593.41,1330.27Zm-1.61-2.85a6.26,6.26,0,0,1-2.85-4.91c0-1.8,1.28-2.53,2.85-1.62a6.29,6.29,0,0,1,2.85,4.91C-3592.17,1327.6-3593.45,1328.33-3595,1327.42Zm-2,.78a.34.34,0,0,0-.16-.26.1.1,0,0,0-.09,0,.81.81,0,0,1-.56-.13,2.17,2.17,0,0,1-.85-1,1.55,1.55,0,0,1-.12-1.09l-1.67,3.3,2.58.37,1,3.53,1.48-2.91a.8.8,0,0,1-.56-.12A2.28,2.28,0,0,1-3597.06,1328.2Zm5.86,1.92a1,1,0,0,1-.12.94.66.66,0,0,1-.85,0,2.13,2.13,0,0,1-.56-.53.32.32,0,0,0-.09-.08c-.06,0-.15,0-.16.08-.05.58-.49.79-1,.48a2.14,2.14,0,0,1-.56-.53l1.48,4.62,1-2.4,2.58,2.62Z" transform="translate(3806.95 -1089.36)"/>
          </g>
          <g>
            <path class="cls-58" d="M-3641.41,1367.65l42.12-24.12c2-1.16,2-1.76-.28-3.1l-58.7-35.75c-2.31-1.34-2.85-1.22-4.86-.06l-41.92,24c-2,1.16-1.76,2.27.56,3.6l57.86,35.35C-3644.31,1368.87-3643.42,1368.81-3641.41,1367.65Z" transform="translate(3806.95 -1089.36)"/>
            <polygon class="cls-59" points="204.44 253.25 187.38 243.22 103.14 241.12 162.95 277.32 163.93 276.8 204.44 253.25"/>
            <path class="cls-60" d="M-3642.53,1365.47l38.48-22.32-55.18-33.39a1.77,1.77,0,0,0-1.79,0l-37.2,21.58Z" transform="translate(3806.95 -1089.36)"/>
            <path class="cls-61" d="M-3642.53,1365.05l38.48-22.32-55.18-33.39a1.77,1.77,0,0,0-1.79,0l-37.2,21.57Z" transform="translate(3806.95 -1089.36)"/>
            <path class="cls-60" d="M-3642.53,1364.13l38.48-22.31-55.18-33.39a1.77,1.77,0,0,0-1.79,0l-37.2,21.57Z" transform="translate(3806.95 -1089.36)"/>
            <path class="cls-62" d="M-3642.53,1363.71l38.48-22.32-55.18-33.38a1.77,1.77,0,0,0-1.79,0l-37.2,21.57Z" transform="translate(3806.95 -1089.36)"/>
            <path class="cls-60" d="M-3642.53,1362.8l38.48-22.32-55.18-33.39a1.77,1.77,0,0,0-1.79,0l-37.2,21.58Z" transform="translate(3806.95 -1089.36)"/>
            <path class="cls-63" d="M-3642.53,1362.38l38.48-22.32-55.18-33.39a1.77,1.77,0,0,0-1.79,0l-37.2,21.57Z" transform="translate(3806.95 -1089.36)"/>
            <path class="cls-60" d="M-3642.53,1361.39l38.48-22.32-55.18-33.38a1.77,1.77,0,0,0-1.79,0l-37.2,21.57Z" transform="translate(3806.95 -1089.36)"/>
            <path class="cls-64" d="M-3642.53,1361l38.48-22.32-55.18-33.38a1.77,1.77,0,0,0-1.79,0l-37.2,21.58Z" transform="translate(3806.95 -1089.36)"/>
            <path class="cls-60" d="M-3642.53,1359.92l38.48-22.32-55.18-33.39a1.77,1.77,0,0,0-1.79,0l-37.2,21.57Z" transform="translate(3806.95 -1089.36)"/>
            <path class="cls-65" d="M-3642.53,1359.49l38.48-22.31-55.18-33.39a1.77,1.77,0,0,0-1.79,0l-37.2,21.57Z" transform="translate(3806.95 -1089.36)"/>
            <path class="cls-66" d="M-3602.51,1331.78l-58.78-35.56a1.85,1.85,0,0,0-1.9,0l-39.63,23a4.89,4.89,0,0,0-2.46,4.24V1329a1.92,1.92,0,0,0,1.14,1.76l59.6,36-.8-7.67,1.84-3.53Zm-91.22,2.69a5.77,5.77,0,0,1-2.63-4.52c0-1.67,1.18-2.34,2.63-1.5a5.76,5.76,0,0,1,2.62,4.53C-3691.11,1334.64-3692.28,1335.31-3693.73,1334.47Z" transform="translate(3806.95 -1089.36)"/>
            <path class="cls-67" d="M-3643.5,1355.56l41-23.78-58.78-35.56a1.85,1.85,0,0,0-1.9,0l-39.63,23Z" transform="translate(3806.95 -1089.36)"/>
            <path class="cls-68" d="M-3643.93,1365.88v-5.46a4.75,4.75,0,0,1,2.39-4.12l38.21-22.15v-1.74l-39.35,22.82a4.72,4.72,0,0,0-2.39,4.11v5.46a1.87,1.87,0,0,0,1.29,1.78A1.79,1.79,0,0,1-3643.93,1365.88Z" transform="translate(3806.95 -1089.36)"/>
            <path class="cls-69" d="M-3643,1366.17a1.24,1.24,0,0,1-.59.16,1.2,1.2,0,0,1-1.19-1.19v-5.58a4.13,4.13,0,0,1,2.08-3.58l40.21-23.39v-.81l-40.59,23.53a4.92,4.92,0,0,0-2.46,4.25v5.58a2,2,0,0,0,2.92,1.69l40.13-23.28v-.94Z" transform="translate(3806.95 -1089.36)"/>
            <path class="cls-70" d="M-3693.73,1327.66c-1.83-1.05-3.31-.21-3.31,1.89a7.29,7.29,0,0,0,3.31,5.71c1.83,1.06,3.31.21,3.31-1.89A7.29,7.29,0,0,0-3693.73,1327.66Zm0,6.81a5.77,5.77,0,0,1-2.63-4.52c0-1.67,1.18-2.34,2.63-1.5a5.76,5.76,0,0,1,2.62,4.53C-3691.11,1334.64-3692.28,1335.31-3693.73,1334.47Z" transform="translate(3806.95 -1089.36)"/>
            <polygon class="cls-71" points="146.47 265.33 143.02 263.33 143.02 256.42 146.47 258.42 146.47 265.33"/>
            <polygon class="cls-72" points="143.1 263.32 118.82 249.31 118.82 242.4 143.1 256.42 143.1 263.32"/>
          </g>
          <g>
            <path class="cls-58" d="M-3646,1348.82l34.82-19.94c1.65-1,1.68-1.45-.23-2.55l-48.52-29.56c-1.92-1.1-2.36-1-4,0l-34.65,19.81c-1.66,1-1.45,1.87.46,3l47.83,29.22C-3648.36,1349.83-3647.62,1349.78-3646,1348.82Z" transform="translate(3806.95 -1089.36)"/>
            <polygon class="cls-73" points="192.66 239.15 178.56 230.87 159.17 258.62 192.66 239.15"/>
            <path class="cls-74" d="M-3664.45,1291.54l-32.76,19a4.06,4.06,0,0,0-2,3.51v3.21a1.6,1.6,0,0,0,.95,1.46l49.25,29.76.87-7.87,33.88-19.65-48.59-29.4A1.55,1.55,0,0,0-3664.45,1291.54Z" transform="translate(3806.95 -1089.36)"/>
            <path class="cls-75" d="M-3648.17,1340.61l33.88-19.65-48.59-29.4a1.55,1.55,0,0,0-1.57,0l-32.76,19Z" transform="translate(3806.95 -1089.36)"/>
            <path class="cls-76" d="M-3649.47,1343.74v3.12a1.55,1.55,0,0,0,2.33,1.35l32.17-18.65v-8.08l-32.53,18.86A3.91,3.91,0,0,0-3649.47,1343.74Z" transform="translate(3806.95 -1089.36)"/>
            <path class="cls-77" d="M-3648.53,1347.75v-3.12a3.92,3.92,0,0,1,2-3.4l31.59-18.31v-1.44l-32.53,18.86a3.91,3.91,0,0,0-2,3.4v3.12a1.54,1.54,0,0,0,1.07,1.47A1.41,1.41,0,0,1-3648.53,1347.75Z" transform="translate(3806.95 -1089.36)"/>
            <path class="cls-78" d="M-3647.78,1348a1,1,0,0,1-.48.13,1,1,0,0,1-1-1v-3.22a3.41,3.41,0,0,1,1.72-3l33.24-19.33V1321l-33.55,19.45a4,4,0,0,0-2,3.51v3.22a1.61,1.61,0,0,0,2.41,1.39l33.18-19.23v-.79Z" transform="translate(3806.95 -1089.36)"/>
          </g>
          <g>
            <g>
              <ellipse class="cls-79" cx="-3549.55" cy="1208.64" rx="11.55" ry="20" transform="translate(2711.74 -2715.57) rotate(-30.31)"/>
              <path class="cls-80" d="M-3541.77,1216.11c0,3-1,5.13-2.72,6.16l-1.79,1.14c-1.75,1-.63-1.25-3.29-2.78-5.36-3.1-9.71-10.59-9.71-16.74,0-3-2.81-3.06-1.09-4.08l2.13-1.18c1.75-1,4.14-.77,6.77.75C-3546.11,1202.47-3541.77,1210-3541.77,1216.11Z" transform="translate(3806.95 -1089.36)"/>
              <ellipse class="cls-81" cx="-3553.51" cy="1211.72" rx="7.9" ry="13.68" transform="translate(2709.65 -2717.13) rotate(-30.31)"/>
              <path class="cls-82" d="M-3543.92,1204.72a3.9,3.9,0,0,1-.82,5.42,3.89,3.89,0,0,1-5.28-1.48,3.88,3.88,0,0,1,.82-5.41A3.89,3.89,0,0,1-3543.92,1204.72Z" transform="translate(3806.95 -1089.36)"/>
              <path class="cls-83" d="M-3553.35,1200.52c-2.57-1.48-4.59-1.84-6.33-1a7.67,7.67,0,0,1,5.8,1.14c5.36,3.1,9.7,10.59,9.7,16.74,0,3.2-1.17,5.4-3.06,6.34,2.37-.66,3.59-2.85,3.59-6.5C-3543.65,1211.11-3548,1203.62-3553.35,1200.52Z" transform="translate(3806.95 -1089.36)"/>
            </g>
            <g>
              <ellipse class="cls-84" cx="-3549.55" cy="1236.8" rx="11.55" ry="20" transform="translate(2697.52 -2711.72) rotate(-30.31)"/>
              <path class="cls-85" d="M-3541.77,1244.28c0,3-1,5.13-2.72,6.16l-1.79,1.14c-1.75,1-.63-1.25-3.29-2.79-5.36-3.09-9.71-10.58-9.71-16.73,0-3-2.81-3.07-1.09-4.08l2.13-1.18c1.75-1,4.14-.78,6.77.74C-3546.11,1230.64-3541.77,1238.13-3541.77,1244.28Z" transform="translate(3806.95 -1089.36)"/>
              <ellipse class="cls-86" cx="-3553.51" cy="1239.89" rx="7.9" ry="13.68" transform="translate(2695.43 -2713.28) rotate(-30.31)"/>
              <path class="cls-87" d="M-3543.92,1232.89a3.9,3.9,0,0,1-.82,5.42,3.89,3.89,0,0,1-5.28-1.48,3.9,3.9,0,0,1,.82-5.42A3.89,3.89,0,0,1-3543.92,1232.89Z" transform="translate(3806.95 -1089.36)"/>
              <path class="cls-88" d="M-3553.35,1228.69c-2.57-1.48-4.59-1.85-6.33-1a7.67,7.67,0,0,1,5.8,1.14c5.36,3.09,9.7,10.59,9.7,16.74,0,3.2-1.17,5.4-3.06,6.34,2.37-.66,3.59-2.85,3.59-6.51C-3543.65,1239.27-3548,1231.78-3553.35,1228.69Z" transform="translate(3806.95 -1089.36)"/>
            </g>
            <g>
              <ellipse class="cls-89" cx="-3549.55" cy="1276.02" rx="11.55" ry="20" transform="translate(2677.73 -2706.35) rotate(-30.31)"/>
              <path class="cls-90" d="M-3541.77,1283.5c0,3-1,5.13-2.72,6.16l-1.79,1.14c-1.75,1-.63-1.25-3.29-2.79-5.36-3.09-9.71-10.58-9.71-16.73,0-3-2.81-3.07-1.09-4.08l2.13-1.18c1.75-1,4.14-.78,6.77.74C-3546.11,1269.86-3541.77,1277.35-3541.77,1283.5Z" transform="translate(3806.95 -1089.36)"/>
              <ellipse class="cls-91" cx="-3553.51" cy="1279.11" rx="7.9" ry="13.68" transform="translate(2675.64 -2707.92) rotate(-30.31)"/>
              <path class="cls-92" d="M-3543.92,1272.11a3.9,3.9,0,0,1-.82,5.42,3.89,3.89,0,0,1-5.28-1.48,3.9,3.9,0,0,1,.82-5.42A3.89,3.89,0,0,1-3543.92,1272.11Z" transform="translate(3806.95 -1089.36)"/>
              <path class="cls-93" d="M-3553.35,1267.91c-2.57-1.48-4.59-1.85-6.33-1a7.67,7.67,0,0,1,5.8,1.14c5.36,3.09,9.7,10.59,9.7,16.74,0,3.2-1.17,5.4-3.06,6.34,2.37-.66,3.59-2.85,3.59-6.51C-3543.65,1278.49-3548,1271-3553.35,1267.91Z" transform="translate(3806.95 -1089.36)"/>
            </g>
            <g>
              <ellipse class="cls-94" cx="-3549.55" cy="1316.08" rx="11.55" ry="20" transform="translate(2657.51 -2700.88) rotate(-30.31)"/>
              <path class="cls-95" d="M-3541.77,1323.56c0,3-1,5.13-2.72,6.16l-1.79,1.13c-1.75,1-.63-1.24-3.29-2.78-5.36-3.09-9.71-10.58-9.71-16.73,0-3-2.81-3.07-1.09-4.08l2.13-1.19c1.75-.94,4.14-.77,6.77.75C-3546.11,1309.92-3541.77,1317.41-3541.77,1323.56Z" transform="translate(3806.95 -1089.36)"/>
              <path class="cls-96" d="M-3543.8,1324.77c0,6.15-4.35,8.63-9.71,5.53s-9.7-10.58-9.7-16.73,4.35-8.63,9.7-5.53S-3543.8,1318.62-3543.8,1324.77Z" transform="translate(3806.95 -1089.36)"/>
              <path class="cls-97" d="M-3543.92,1312.17a3.88,3.88,0,0,1-.82,5.41,3.89,3.89,0,0,1-5.28-1.47,3.9,3.9,0,0,1,.82-5.42A3.89,3.89,0,0,1-3543.92,1312.17Z" transform="translate(3806.95 -1089.36)"/>
              <path class="cls-98" d="M-3553.35,1308c-2.57-1.49-4.59-1.85-6.33-1a7.62,7.62,0,0,1,5.8,1.14c5.36,3.09,9.7,10.58,9.7,16.73,0,3.2-1.17,5.41-3.06,6.35,2.37-.66,3.59-2.86,3.59-6.51C-3543.65,1318.55-3548,1311.06-3553.35,1308Z" transform="translate(3806.95 -1089.36)"/>
            </g>
            <g>
              <ellipse class="cls-99" cx="-3549.55" cy="1341.96" rx="11.55" ry="20" transform="translate(2644.45 -2697.34) rotate(-30.31)"/>
              <path class="cls-100" d="M-3541.77,1349.43c0,3-1,5.13-2.72,6.16l-1.79,1.14c-1.75,1-.63-1.24-3.29-2.78-5.36-3.09-9.71-10.59-9.71-16.73,0-3-2.81-3.07-1.09-4.08l2.13-1.19c1.75-1,4.14-.77,6.77.75C-3546.11,1335.79-3541.77,1343.28-3541.77,1349.43Z" transform="translate(3806.95 -1089.36)"/>
              <path class="cls-101" d="M-3543.8,1350.65c0,6.15-4.35,8.62-9.71,5.53s-9.7-10.59-9.7-16.73,4.35-8.63,9.7-5.54S-3543.8,1344.5-3543.8,1350.65Z" transform="translate(3806.95 -1089.36)"/>
              <path class="cls-102" d="M-3543.92,1338a3.9,3.9,0,0,1-.82,5.42A3.89,3.89,0,0,1-3550,1342a3.9,3.9,0,0,1,.82-5.42A3.89,3.89,0,0,1-3543.92,1338Z" transform="translate(3806.95 -1089.36)"/>
              <path class="cls-103" d="M-3553.35,1333.84c-2.57-1.48-4.59-1.84-6.33-1a7.58,7.58,0,0,1,5.8,1.14c5.36,3.09,9.7,10.58,9.7,16.73,0,3.2-1.17,5.4-3.06,6.35,2.37-.67,3.59-2.86,3.59-6.51C-3543.65,1344.43-3548,1336.94-3553.35,1333.84Z" transform="translate(3806.95 -1089.36)"/>
            </g>
            <g>
              <path class="cls-29" d="M-3553.95,1208.09l-2-1.17v-1.57a5.6,5.6,0,0,0,1.33.6,1,1,0,0,0,.81-.07,1.58,1.58,0,0,0,.52-.78l1.31.76V1220l-1.94-1.12Z" transform="translate(3806.95 -1089.36)"/>
              <path class="cls-29" d="M-3556.7,1243.15a5.19,5.19,0,0,1,.43-2.35,3.9,3.9,0,0,1,1.51-1.52,4.6,4.6,0,0,0,1.49-1.39,3.29,3.29,0,0,0,.41-1.7,3.21,3.21,0,0,0-.25-1.41,1.88,1.88,0,0,0-.75-.78c-.67-.39-1-.12-1,.81v1.52l-1.83-1.06v-1.38c0-1.14.25-1.88.74-2.21s1.21-.22,2.15.33a5.51,5.51,0,0,1,2.15,2.16,6.27,6.27,0,0,1,.74,3.06,4.35,4.35,0,0,1-.54,2.22,5.46,5.46,0,0,1-1.86,1.75,3.81,3.81,0,0,0-1.16,1,2.29,2.29,0,0,0-.3,1.23v.3l3.68,2.13v2l-5.6-3.23Z" transform="translate(3806.95 -1089.36)"/>
              <path class="cls-29" d="M-3556.07,1284.08a6.17,6.17,0,0,1-.73-3v-1.15l1.83,1.06v1.25a2.07,2.07,0,0,0,1,2c.33.19.58.22.75.08s.26-.5.26-1.09V1282a3.42,3.42,0,0,0-.3-1.55,2.46,2.46,0,0,0-1-1l-.65-.37v-2l.7.4c.39.23.68.28.87.16s.29-.44.29-1v-1a2.57,2.57,0,0,0-.26-1.23,1.84,1.84,0,0,0-.71-.75q-.93-.54-.93.78v.93l-1.83-1.06v-.75c0-1.13.24-1.86.73-2.18s1.19-.23,2.11.3a5.58,5.58,0,0,1,2.11,2.12,6.21,6.21,0,0,1,.72,3v.5a3.16,3.16,0,0,1-.33,1.66,1,1,0,0,1-1,.4v0a4.67,4.67,0,0,1,1.09,1.68,6,6,0,0,1,.33,2.05v1.26c0,1.13-.24,1.85-.73,2.17s-1.2.2-2.15-.35A5.38,5.38,0,0,1-3556.07,1284.08Z" transform="translate(3806.95 -1089.36)"/>
              <path class="cls-29" d="M-3553.42,1323.1l-3.7-2.14v-2l3.52-7.52,2.12,1.22v9.56l.91.52v2l-.91-.52v2.56l-1.94-1.12Zm0-2v-5.52l0,0-1.9,4.42Z" transform="translate(3806.95 -1089.36)"/>
              <path class="cls-29" d="M-3556,1350.47a6.31,6.31,0,0,1-.74-3.07v-1.11l1.84,1.06v1.27a2.08,2.08,0,0,0,1,2c.67.38,1,.12,1-.8v-3.17a2.07,2.07,0,0,0-1-2c-.67-.39-1-.12-1,.81v.12l-1.84-1.06.36-7.69,5.1,2.94v2l-3.38-2-.16,3.29,0,0c.36-.48.92-.5,1.67-.07a3.93,3.93,0,0,1,1.61,1.76,6.31,6.31,0,0,1,.54,2.72v3.19c0,1.14-.24,1.88-.74,2.21s-1.21.22-2.15-.32A5.58,5.58,0,0,1-3556,1350.47Z" transform="translate(3806.95 -1089.36)"/>
            </g>
          </g>
          <g>
            <ellipse class="cls-104" cx="154" cy="224.33" rx="31.11" ry="16"/>
            <g>
              <path class="cls-105" d="M-3625.71,1280.38h-57.72v31.1h0c0,.08,0,.15,0,.23,0,9.28,12.92,16.81,28.86,16.81s28.86-7.53,28.86-16.81c0-.08,0-.15,0-.23h0Z" transform="translate(3806.95 -1089.36)"/>
              <g class="cls-106">
                <path class="cls-107" d="M-3683.43,1308.73v.23c0-.07,0-.15,0-.23Z" transform="translate(3806.95 -1089.36)"/>
                <path class="cls-108" d="M-3625.71,1309v-.23h0C-3625.72,1308.81-3625.71,1308.89-3625.71,1309Z" transform="translate(3806.95 -1089.36)"/>
              </g>
              <ellipse class="cls-109" cx="152.38" cy="191.14" rx="28.86" ry="16.81"/>
              <g>
                <path class="cls-110" d="M-3683.43,1286.47v.23c0-.08,0-.16,0-.23Z" transform="translate(3806.95 -1089.36)"/>
                <path class="cls-111" d="M-3625.71,1286.7v-.23h0C-3625.72,1286.54-3625.71,1286.62-3625.71,1286.7Z" transform="translate(3806.95 -1089.36)"/>
              </g>
            </g>
            <polygon class="cls-112" points="178.25 210.13 178.25 191.67 126.51 191.67 126.51 210.06 152.46 225.17 178.25 210.13"/>
            <g>
              <polygon class="cls-113" points="152.44 219.27 152.44 220.91 197.42 194.67 197.42 193.03 152.44 219.27"/>
              <polygon class="cls-114" points="152.46 219.27 152.46 220.91 107.33 194.59 107.33 192.99 152.46 219.27"/>
              <polygon class="cls-115" points="107.33 192.99 152.46 219.27 197.42 193.03 152.24 166.72 107.33 192.99"/>
            </g>
            <path class="cls-116" d="M-3676.27,1308.45c0,1-.71,1.41-1.59.9a3.51,3.51,0,0,1-1.58-2.73c0-1,.71-1.41,1.58-.91A3.5,3.5,0,0,1-3676.27,1308.45Z" transform="translate(3806.95 -1089.36)"/>
            <path class="cls-116" d="M-3680.18,1315.2s1.15-8.36,2.48-7.94,2.48,10.81,2.48,10.81h0a9.78,9.78,0,0,1-4.82-2.72Z" transform="translate(3806.95 -1089.36)"/>
            <path class="cls-117" d="M-3681,1314.08s1.15-8.36,2.48-7.95,2.48,10.81,2.48,10.81h0a9.74,9.74,0,0,1-4.83-2.72Z" transform="translate(3806.95 -1089.36)"/>
            <path class="cls-118" d="M-3678.47,1306.14c1.16,1.91,2.36,10.14,2.36,10.14a10,10,0,0,1-4.85-2.21h0l.13.14a10,10,0,0,0,5.08,2.42S-3677.15,1306.6-3678.47,1306.14Z" transform="translate(3806.95 -1089.36)"/>
            <path class="cls-119" d="M-3676.92,1315.85a8.84,8.84,0,0,1-3.21-2,30.93,30.93,0,0,1,1.53-6.58A45.55,45.55,0,0,1-3676.92,1315.85Z" transform="translate(3806.95 -1089.36)"/>
            <path class="cls-116" d="M-3678.07,1308.5a.79.79,0,0,1-.78-.79v-9.19a5.69,5.69,0,0,1,2.81-4.89l22-12.85a.78.78,0,0,1,1.07.28.79.79,0,0,1-.28,1.08l-22,12.85a4.1,4.1,0,0,0-2,3.53v9.19A.79.79,0,0,1-3678.07,1308.5Z" transform="translate(3806.95 -1089.36)"/>
            <path class="cls-120" d="M-3678.53,1308.13a.79.79,0,0,1-.79-.79v-9.18a5.7,5.7,0,0,1,2.81-4.9l22-12.85a.78.78,0,0,1,1.07.29.78.78,0,0,1-.28,1.07l-22,12.85a4.11,4.11,0,0,0-2,3.54v9.18A.78.78,0,0,1-3678.53,1308.13Z" transform="translate(3806.95 -1089.36)"/>
            <path class="cls-121" d="M-3678.73,1307.51a.23.23,0,0,1-.23-.23v-9.19a5.15,5.15,0,0,1,2.53-4.42l22-12.85.12,0a.21.21,0,0,1,.2.12.21.21,0,0,1,0,.18.26.26,0,0,1-.11.14l-22,12.85a4.66,4.66,0,0,0-2.3,4v9.19A.23.23,0,0,1-3678.73,1307.51Z" transform="translate(3806.95 -1089.36)"/>
            <ellipse class="cls-122" cx="152.38" cy="192.24" rx="3.37" ry="1.96"/>
            <g>
              <path class="cls-123" d="M-3657.94,1282.61v0Z" transform="translate(3806.95 -1089.36)"/>
              <path class="cls-124" d="M-3651.21,1282.64v0h0Z" transform="translate(3806.95 -1089.36)"/>
            </g>
            <polygon class="cls-125" points="128.09 218.35 126.73 226.17 127.81 226.34 128.09 218.35"/>
            <polygon class="cls-126" points="127.74 218.17 126.11 225.49 127.02 225.78 127.74 218.17"/>
            <polygon class="cls-127" points="128.53 219.1 128 227.02 129.09 227.07 128.53 219.1"/>
            <polygon class="cls-128" points="128.16 218.96 127.31 226.41 128.25 226.6 128.16 218.96"/>
            <polygon class="cls-129" points="129.29 219.63 129.43 227.57 130.51 227.53 129.29 219.63"/>
            <polygon class="cls-130" points="128.93 219.83 128.7 227.32 129.66 227.44 128.93 219.83"/>
            <path class="cls-131" d="M-3676.84,1308.12c0,1-.71,1.41-1.59.9a3.49,3.49,0,0,1-1.58-2.73c0-1,.71-1.41,1.58-.9A3.48,3.48,0,0,1-3676.84,1308.12Z" transform="translate(3806.95 -1089.36)"/>
            <path class="cls-132" d="M-3678,1305.68a3.53,3.53,0,0,1,.89,2.15c0,1-.71,1.4-1.58.9a2.7,2.7,0,0,1-.4-.29,2.88,2.88,0,0,0,.69.58c.88.51,1.59.1,1.59-.9A3.54,3.54,0,0,0-3678,1305.68Z" transform="translate(3806.95 -1089.36)"/>
            <path class="cls-133" d="M-3677.82,1307.17c0,.53-.38.75-.85.48a1.87,1.87,0,0,1-.84-1.46c0-.54.38-.75.84-.48A1.86,1.86,0,0,1-3677.82,1307.17Z" transform="translate(3806.95 -1089.36)"/>
          </g>
        </g>
      </g>
    </g>
  </g>
</svg>
