<svg xmlns="http://www.w3.org/2000/svg" xmlns:xlink="http://www.w3.org/1999/xlink" viewBox="0 0 697.1 340"><defs><style>.cls-1{isolation:isolate;}.cls-2,.cls-5,.cls-6,.cls-7,.cls-8,.cls-9{mix-blend-mode:multiply;}.cls-2{opacity:0.2;}.cls-3{fill:#bdc0d6;}.cls-4{fill:#99a0c4;}.cls-5{fill:url(#Degradado_sin_nombre_174);}.cls-6{fill:url(#Degradado_sin_nombre_174-2);}.cls-7{fill:url(#Degradado_sin_nombre_174-3);}.cls-8{fill:url(#Degradado_sin_nombre_174-4);}.cls-9{fill:url(#Degradado_sin_nombre_174-5);}.cls-10{fill:url(#Degradado_sin_nombre_179);}.cls-11,.cls-12,.cls-13{fill:none;}.cls-11,.cls-12{stroke:#fbb03b;stroke-linecap:round;stroke-linejoin:round;stroke-width:2px;}.cls-12{stroke-dasharray:1.99 9.95;}.cls-13{stroke:#fff;stroke-miterlimit:10;stroke-width:1.5px;}.cls-14{fill:#707690;}.cls-15,.cls-18{fill:#fff;}.cls-16{fill:url(#Degradado_sin_nombre_4);}.cls-17,.cls-20,.cls-22,.cls-24,.cls-26{mix-blend-mode:color-dodge;}.cls-17{fill:url(#Degradado_sin_nombre_130);}.cls-18{font-size:13px;font-family:Poppins-Bold, Poppins;font-weight:700;}.cls-19{fill:url(#Degradado_sin_nombre_4-2);}.cls-20{fill:url(#Degradado_sin_nombre_146);}.cls-21{fill:url(#Degradado_sin_nombre_4-3);}.cls-22{fill:url(#Degradado_sin_nombre_146-2);}.cls-23{fill:url(#Degradado_sin_nombre_4-4);}.cls-24{fill:url(#Degradado_sin_nombre_173);}.cls-25{fill:url(#Degradado_sin_nombre_4-5);}.cls-26{fill:url(#Degradado_sin_nombre_130-2);}</style><radialGradient id="Degradado_sin_nombre_174" cx="2787.13" cy="-2153.85" r="45.69" gradientTransform="translate(-106.36 4590.06) rotate(-99.62)" gradientUnits="userSpaceOnUse"><stop offset="0.08" stop-color="#a0b1bd"/><stop offset="0.18" stop-color="#a4b5c0" stop-opacity="0.95"/><stop offset="0.34" stop-color="#b1bfc8" stop-opacity="0.83"/><stop offset="0.53" stop-color="#c4cfd6" stop-opacity="0.62"/><stop offset="0.77" stop-color="#e0e5e9" stop-opacity="0.33"/><stop offset="1" stop-color="#fff" stop-opacity="0"/></radialGradient><radialGradient id="Degradado_sin_nombre_174-2" cx="2685.3" cy="-2103.21" r="45.69" gradientTransform="translate(60.42 4293.52) rotate(-103.02)" xlink:href="#Degradado_sin_nombre_174"/><radialGradient id="Degradado_sin_nombre_174-3" cx="2585.62" cy="-2153.85" r="45.69" gradientTransform="translate(247.85 4152.72) rotate(-104.77)" xlink:href="#Degradado_sin_nombre_174"/><radialGradient id="Degradado_sin_nombre_174-4" cx="2484.53" cy="-2103.21" r="45.69" gradientTransform="translate(215.95 4097.92) rotate(-103.02)" xlink:href="#Degradado_sin_nombre_174"/><radialGradient id="Degradado_sin_nombre_174-5" cx="2382.94" cy="-2153.85" r="45.69" gradientTransform="translate(360.84 4013.73) rotate(-103.55)" xlink:href="#Degradado_sin_nombre_174"/><linearGradient id="Degradado_sin_nombre_179" x1="-2496.23" y1="2044.25" x2="-2496.23" y2="2182.25" gradientUnits="userSpaceOnUse"><stop offset="0" stop-color="#717891"/><stop offset="1" stop-color="#333642"/></linearGradient><linearGradient id="Degradado_sin_nombre_4" x1="-2710.99" y1="2193.91" x2="-2683.47" y2="2193.91" gradientTransform="translate(615.99 1139.94) rotate(21.48)" gradientUnits="userSpaceOnUse"><stop offset="0.02" stop-color="#1d909b"/><stop offset="0.38" stop-color="#1bacba"/><stop offset="0.77" stop-color="#19c4d4"/><stop offset="1" stop-color="#18cdde"/></linearGradient><linearGradient id="Degradado_sin_nombre_130" x1="147.55" y1="187.63" x2="147.55" y2="151.62" gradientUnits="userSpaceOnUse"><stop offset="0" stop-opacity="0"/><stop offset="0.12" stop-color="#202020" stop-opacity="0.13"/><stop offset="0.73" stop-color="#bfbfbf" stop-opacity="0.75"/><stop offset="1" stop-color="#fff"/></linearGradient><linearGradient id="Degradado_sin_nombre_4-2" x1="-2495.72" y1="2208.08" x2="-2495.72" y2="2181.37" gradientTransform="translate(248.8 4067.27) rotate(75.63)" xlink:href="#Degradado_sin_nombre_4"/><linearGradient id="Degradado_sin_nombre_146" x1="349.06" y1="190.96" x2="349.06" y2="154.95" gradientUnits="userSpaceOnUse"><stop offset="0" stop-opacity="0"/><stop offset="0.1" stop-color="#202020" stop-opacity="0.13"/><stop offset="0.35" stop-color="#6e6e6e" stop-opacity="0.43"/><stop offset="0.58" stop-color="#acacac" stop-opacity="0.68"/><stop offset="0.77" stop-color="#d9d9d9" stop-opacity="0.85"/><stop offset="0.91" stop-color="#f5f5f5" stop-opacity="0.96"/><stop offset="1" stop-color="#fff"/></linearGradient><linearGradient id="Degradado_sin_nombre_4-3" x1="-2306.8" y1="2193.91" x2="-2279.27" y2="2193.91" gradientTransform="translate(795.09 1462.63) rotate(30.41)" xlink:href="#Degradado_sin_nombre_4"/><linearGradient id="Degradado_sin_nombre_146-2" x1="551.74" y1="190.96" x2="551.74" y2="154.95" xlink:href="#Degradado_sin_nombre_146"/><linearGradient id="Degradado_sin_nombre_4-4" x1="-2407.66" y1="2133.92" x2="-2380.13" y2="2133.92" gradientTransform="translate(638.07 1089.15) rotate(22.7)" xlink:href="#Degradado_sin_nombre_4"/><linearGradient id="Degradado_sin_nombre_173" x1="450.89" y1="127.63" x2="450.89" y2="91.63" gradientUnits="userSpaceOnUse"><stop offset="0" stop-opacity="0"/><stop offset="0.15" stop-color="#2b2b2b" stop-opacity="0.17"/><stop offset="0.58" stop-color="#9c9c9c" stop-opacity="0.61"/><stop offset="0.87" stop-color="#e3e3e3" stop-opacity="0.89"/><stop offset="1" stop-color="#fff"/></linearGradient><linearGradient id="Degradado_sin_nombre_4-5" x1="-2609.17" y1="2133.92" x2="-2581.64" y2="2133.92" gradientTransform="translate(748.73 2460.24) rotate(45)" xlink:href="#Degradado_sin_nombre_4"/><linearGradient id="Degradado_sin_nombre_130-2" x1="249.38" y1="127.63" x2="249.38" y2="91.63" xlink:href="#Degradado_sin_nombre_130"/></defs><g class="cls-1"><g id="Layer_3" data-name="Layer 3"><g class="cls-2"><path class="cls-3" d="M-2719.48,2067.87l2,.28.74-.24.52-1v-1.12l.63-.48a2.44,2.44,0,0,0,1.13-.74l.75-.23.51-.74V2063l-.12-.5a8.68,8.68,0,0,0-1.61-.52,9.91,9.91,0,0,1-1.36-.27l-.62-.26-.86-.51-.24-.5-.74-.63-.73-1-.36-.87-.6-1.38-.87-.38-.86-.14-.49-.76s-.62-.25-.49-.62-.24-.5-.23-.88a4.6,4.6,0,0,0-.12-.87l-.24-.5-.61-.63-.74-.14-.27,1.12-.51.74-2,.34-.75.11s-.74-.63-1.23-.51a6.59,6.59,0,0,1-1.62,0h-.74l-.63.11-1-.51-1.49-.15-1.12-.14h-.75l-.74-.13-.87-.51-1-.76a2.44,2.44,0,0,0-1.12-.14l-.37.11-.63.49a.88.88,0,0,0-.51.49c-.12.37-1,.49-1,.49l-1,.23-.88.36-.63.86a.84.84,0,0,0-.63.36l-.25.38-.75.23-.51.61-.38.87a2.14,2.14,0,0,0,.48,1c.37.38,0,.12.37.38s-.38,0,.86.38,1,.39,1.24.4h.25a1,1,0,0,1,.36.63c.12.5-.37-.38.12.5l.36.62.23,1.5s-.25,0,0,.5a5.67,5.67,0,0,1,.36,1,.88.88,0,0,0,.48.75c.5.26.5.38,1,.64a2.58,2.58,0,0,0,1,.26h.87a.71.71,0,0,1,.87.26l.36.51.62.13.62.63c.49.5-.26.25.49.5a4.38,4.38,0,0,0,1.23.27,2.91,2.91,0,0,1,1.24.27,2.45,2.45,0,0,0,1.25.14,3.29,3.29,0,0,1,.86.14l.38.13s.63-.49,1.12-.36a1.26,1.26,0,0,0,1-.36,8.75,8.75,0,0,1,.87-.36,3.59,3.59,0,0,1,1.12-.11c.38,0,.5-.11.88-.11l1.49,0,.75-.48h.62l1.5,0h.37a1.6,1.6,0,0,1,.74.39c.49.38-.25.12.49.38a5.7,5.7,0,0,0,.74.26Z" transform="translate(2844.78 -2009.95)"/><path class="cls-3" d="M-2743.48,2050.73" transform="translate(2844.78 -2009.95)"/><path class="cls-3" d="M-2746,2051.57a4.15,4.15,0,0,1-1.13,1.1l-.88.36s-1,.49-1,.86v.37l-.26.62-.38.49-.88.73v.62l-.13.62s.37,0-.26.62.87.26-.63.62a6.77,6.77,0,0,1-2.37.21h-1l-.74-.14-1.12-.39-.48-.63-.62-.63-1-.39-.49-.37-.24-.51-.1-1.24-.37-.75.14-.62.5-.74.51-.62.14-.86.26-.75.13-.62s0-.37.63-.86.52-1.36.89-1.35-.12.12.38,0a2.91,2.91,0,0,1,1.49-.11c.62.14.87-.11,1.37.15a4.33,4.33,0,0,0,1.48.39,13.78,13.78,0,0,0,2.36,0l1.49,0,1.5,0c.62,0,1.61.15,1.61.15a2.4,2.4,0,0,0,.86.88s.74.13,1.24.27.38-.62.49.13.25-.12.12.74-.63.37-1,.73A10,10,0,0,1-2746,2051.57Z" transform="translate(2844.78 -2009.95)"/><path class="cls-3" d="M-2751,2041.43l-1.12,0c-.37,0-1.74.1-1.74.1l-1.12-.14-.49-.63-.11-.87a6.35,6.35,0,0,1,.76-.61,2.94,2.94,0,0,1,1-.48,5.34,5.34,0,0,0,.76-.24c.62-.24.75-.49,1.25-.61s.5-.61,1-.73-.13.13.5-.12.76-.6,1.13-.48l.37.13,1.26-1.22a1,1,0,0,1,.88-.61,3.71,3.71,0,0,0,1.37-.35,2.32,2.32,0,0,1,1,0,4.77,4.77,0,0,0,1,.14l.74.51a5,5,0,0,1,0,1.37c0,.62-.26.61-.39,1.11a2.43,2.43,0,0,1-.76,1l-1.25.48-.5.12h-.5l-.87.11-.63.24-.62.24-.51.62-.5.49Z" transform="translate(2844.78 -2009.95)"/><path class="cls-3" d="M-2737.23,2039.76l-1.74,0-1.37,0s-.73-.38-1.12.11-.75.36-.88.85a10.91,10.91,0,0,1-.39,1.12l-.13.37-1.26,1a3.2,3.2,0,0,0-.26,1.12,1.68,1.68,0,0,0,1.11.51c.49.13.62-.11,1.37,0s.87-.11,1.49,0-.5,0,.62.14,1.25-.23,1.74,0l.5.26a.55.55,0,0,0,.23.62c.37.26.37.51.86.64a2.24,2.24,0,0,0,1.24.14,8.09,8.09,0,0,1,1.5-.6,5.15,5.15,0,0,0,1.38-.48,2.48,2.48,0,0,1,1,0,6,6,0,0,0,2-.47,3.11,3.11,0,0,1,1.62-.35,10.37,10.37,0,0,0,2,0,8.52,8.52,0,0,1,1.37.14,3.43,3.43,0,0,0,1.24,0,.92.92,0,0,1,.75-.36c.5,0,.5-.49.88-.73s.39-1.49.39-1.49l-.47-1.25-1.37-.4-1.37,0a9.09,9.09,0,0,0-1.11-.13h-.38l-1-1.38-.49-.26-1.61-.39h-.87l-.51.24a3.75,3.75,0,0,0-.26,1c0,.38-.25.5-.38.87s.12,0-.13.37a2.27,2.27,0,0,1-.88.61l-.75.24-1,0-.75-.13-.36-.5-1-.64Z" transform="translate(2844.78 -2009.95)"/><path class="cls-3" d="M-2734.8,2035.07l-1.73-.64s-.49-.88-.11-.88h.37l.5-.37a3.79,3.79,0,0,0,.15-1.36l-.12-.38-.49-.5s0-.75.64-.86a15,15,0,0,0,1.62-.35,10.11,10.11,0,0,1,2-.09,3.24,3.24,0,0,1,1.12,0c.37.13,1.24.52,1.24.52a1.73,1.73,0,0,1,.36.75c.11.5-.51,1-.52,1.36s-.74.11-.75.61,0-.13,0,.5v1.24l-.87.23h-.62l-1.12-.13h-.49l-.75.24Z" transform="translate(2844.78 -2009.95)"/><path class="cls-3" d="M-2714.48,2039.72l-1.37.1-.74-.38-.11-.5-.74-.76a1,1,0,0,0-.87,0,8.94,8.94,0,0,1-.88.49.77.77,0,0,0-.13.74l.12.5.85.88,1,.39.11.5a6.6,6.6,0,0,1,1,.51,4.73,4.73,0,0,0,1.37.39l.61.26.5.38a6,6,0,0,1,1.11.64,7.76,7.76,0,0,0,1.48.77l1,.14a6.71,6.71,0,0,1,1.61,0c.38.13.75-.36.75-.36s.26-.5.63-.37a1.89,1.89,0,0,0,1-.11l.75-.86.27-1.11-.86-.76-.49-.38-.36-.75-.74-.63v-.62l-.24-.5-1.48-.4-1,.11s-1-.14-1.25.23-.62.12-1.25.35l-.62.25Z" transform="translate(2844.78 -2009.95)"/><path class="cls-3" d="M-2722.13,2035.76l-.49-.26-.12-.75s-.23-.62.26-.49-.36-.5.63-.49l1,0,.62.25a1.71,1.71,0,0,1,.36.63l.12.37.37.51-.75.36-.5.12-.5-.13Z" transform="translate(2844.78 -2009.95)"/><path class="cls-3" d="M-2719,2027.23l-.75,0-1.24,0h-.37l0,1s.62.63,1,.64,0-.87.37,0l.36.88.73.88s.5,0,.5.38.25-.49,0,.37-1,.24-.26.87a3.59,3.59,0,0,0,2,.65l1.12-.11.75-.11,1.11,0c.38,0-.23-.51.38,0a5.52,5.52,0,0,0,1.23.89c.49.26-.38,0,.49.26s.5.13.87.26l.37.13,1.25-.74v-.86l-1.1-.64-.49-.88v-.49l-.74-.63-1-.52-1-.88-.61-.76-.49-.38-1-.26-.62-.38a3.17,3.17,0,0,0-1.61,0A9.66,9.66,0,0,0-2719,2027.23Z" transform="translate(2844.78 -2009.95)"/><path class="cls-3" d="M-2720.76,2052.56h1.12s0-1.11.39-1,.52-1.36.52-1.36l-1-1-.62-.39-1-.13-1.24,0h-.5c-.26.87-.63.24-.26.87a1.6,1.6,0,0,1,.23,1.12l-.26,1-1,.11.11,1,.74.14.74.51,1.26-.73Z" transform="translate(2844.78 -2009.95)"/><path class="cls-3" d="M-2709.78,2058.81l-1.11-1.14-.24-.5-.49-.25-.62-.26-.73-.76-.49-.5-1-.27-1.48-.39s-.25-.12-.12-.5-.62,0,.13-.37a4,4,0,0,1,1.87-.22h.62a.92.92,0,0,1,.63-.24c.37,0,.62-.62.62-.62l.14-.49-.24-.5s0-2.11.4-2.23-.12-.13.38-.12l1.24,0,1-.11,1.24-.36.87,0,.75.38.48.63v1.74s-.39.86,0,1a2.09,2.09,0,0,1,.74.63l.5.26,0,2a1.46,1.46,0,0,0,0,.87c.11.62.75,0,.11.62a6.24,6.24,0,0,1-1.37,1l-.75.24-.38.11-.5.62-1.13.23Z" transform="translate(2844.78 -2009.95)"/><path class="cls-3" d="M-2701.15,2055l-.87-.26-.23-.88.14-1.11,0-1.74.14-.75.25-.62.64-.86h.5l2,.15,1.49,0h.63a6,6,0,0,0,1-.11,1.9,1.9,0,0,1,1.12.15c.49.25,0-.75.49.25s.49.5.49,1a2.71,2.71,0,0,1-.14,1l-.13.36-1,1.36-.62.11-.88.36-1,.73a3.23,3.23,0,0,1-1.25.48h-.5l-.75.23-.75.24Z" transform="translate(2844.78 -2009.95)"/><path class="cls-3" d="M-2702.89,2046.35h-.5l-.48-1.12.26-.5s-.12-.37.38-.61l.5-.24a9.47,9.47,0,0,0,1.12-.23c.38-.12,1-.48,1.37-.36s.76-.23,1.24.27l.49.5v1.25l-.64.74Z" transform="translate(2844.78 -2009.95)"/><path class="cls-3" d="M-2680.87,2079.37l-1.11-.51-1.49-.15-.87.24-.39,1s-.75.36-.76.73.13-.37,0,.37l-.14.75s0,.12,0,.5-.5.48-.51.86a2.32,2.32,0,0,1-.26.86c0,1-.75.49,0,1a2.9,2.9,0,0,0,1.73.39l.62.51.86.39,1.12-.24s.27-1.11.65-1.23a4.69,4.69,0,0,1,1.11-.11h.63l1.11.14a7.36,7.36,0,0,0,1,.14,12,12,0,0,1,2,.15,12.43,12.43,0,0,0,1.49.28l.75-.36v-.51l-.74-.63-.86-.13-1.49-.65-.12-.5-.86-.88-.49-.13a1.45,1.45,0,0,1-.24-.5c-.12-.37-1.61-.65-1.61-.65Z" transform="translate(2844.78 -2009.95)"/><path class="cls-3" d="M-2677.51,2087.25l-1.61,0-.5.36-.63.37s-1-.14-.87.23l.12.38.61.5,1.12-.11s.13-.12.5,0a5.74,5.74,0,0,0,1.49,0l.5-.11,0-1.5Z" transform="translate(2844.78 -2009.95)"/><path class="cls-3" d="M-2664.25,2082.34l-2.62.46h-.87l-1.5.1-.11-.49s-.11-1.25.39-1.24h.5l.75-1,.51-.36s-.25-.26.5,0,1.11,0,1.48.14l.38.13.61.13c.49.88.5.26.49.88v.62Z" transform="translate(2844.78 -2009.95)"/><path class="cls-3" d="M-2662.38,2072.93l-1.25.23-2.11.09-.61-.51-.24-.75-.61-.87s0-.75.38-.62a5.63,5.63,0,0,0,1.24.14l.87,0,1.62.14.61.14A6.05,6.05,0,0,1-2662.38,2072.93Z" transform="translate(2844.78 -2009.95)"/><path class="cls-3" d="M-2673.07,2047l-.62.12-1.12.11-1.12,0H-2677a7,7,0,0,1-1.25.48l-.87.6s-.13.25-.88.24l-1.24,0h-1.62l-1,0h-1.24l-1.24-.26-.75-.14-1.73-.39a3.18,3.18,0,0,0-.87-.14,13.55,13.55,0,0,1-2.35-.78,4.07,4.07,0,0,0-1.37-.15,1.89,1.89,0,0,1-1-.13l-.74-.26-.62-.51,0-1-.24-1-.1-.87-.61-.88a3.25,3.25,0,0,0-1-.64l-.62-.25a13.31,13.31,0,0,0-2-.66h-1.86c-.5,0-1.49-.15-1.49-.15l-1.11-.51-.12-1,.64-.49c.74-.11-.14.25.74-.11a5.49,5.49,0,0,1,1.87-.35l1.12,0,1.49,0a2.32,2.32,0,0,1,1,0c.49.14,1.36.28,1.36.28l.74.25.87.14.86.76s-.63.36-.51.74,1.11,1,1.11,1h.62l.6,1.5,1.48.64a10.54,10.54,0,0,1,1.24.27c.37.13,1.61.39,1.61.39s.12.5.48.63a3.13,3.13,0,0,0,1.5,0l3-.71,1.25-.23,1,0a6.5,6.5,0,0,0,2,.4,7.49,7.49,0,0,0,1.74,0l1.24-.23,1.25,0h.74s1.49-.22,1.62.15.49,0,.74.51,0-.25.24.5.24.13.23.75a3.12,3.12,0,0,1-.51,1.36Z" transform="translate(2844.78 -2009.95)"/><path class="cls-3" d="M-2702.35,2035.17l-1.12-.26-1.62-.15-.11-.5-.73-1a.63.63,0,0,0-.62-.39h-.5l-.35-1.13v-.86s-.11-.76.51-1-.11-.5.63-.24.74,0,1.24.14.75-.11,1.12,0l.37.12s.13-.24.75-.11,1.49-.23,1.73.15l.24.38s.24.62.37,1a2.59,2.59,0,0,1,0,1s-.13.12,0,.5a1.85,1.85,0,0,1,0,.87s0,.12,0,.49v.38Z" transform="translate(2844.78 -2009.95)"/><path class="cls-3" d="M-2703.3,2023.1s-.62.24-.51.74-.13.62,0,1-.12-.25.12.38.25-.25.23.63.36,1.24.73,1.37.87.26.87.26l1,0,1.24,0a8.86,8.86,0,0,0,1.61.27l.74.13a5,5,0,0,1,.36,1c.12.5-.13.74,0,1.37a4.32,4.32,0,0,1,0,1.37l.36.87a3.48,3.48,0,0,0,1,.26l1.24,0a6.23,6.23,0,0,1,1.49.15,2.86,2.86,0,0,0,1,.26l1,0,1.13-.49a3.28,3.28,0,0,1,1.12-.48,6.69,6.69,0,0,0,1.5-.47s-.1-1.49.39-1.49a2.55,2.55,0,0,0,1-.23l.87-.11a1,1,0,0,1,.63-.24c.37,0,.63-.74.63-.74l.13-.62v-.5a1.34,1.34,0,0,0-.62-.5l-2.34-1.28-.85-1.5-.85-.64-1.61-.27-1.49-.64-1.59-1.64-.5-.14-.86-.38-1.37-.39-1-.51-.74-.38s.5-.37-1-.14-1.75.34-2.12.59-1,.48-1,1.1a1.3,1.3,0,0,1-.63,1Z" transform="translate(2844.78 -2009.95)"/><path class="cls-3" d="M-2692.27,2016.92s.11,1.12.48,1.37a17.28,17.28,0,0,1,1.35,1.27l1.74.27a5.19,5.19,0,0,1,.48.63,3.16,3.16,0,0,0,1,.76l.87.26a8.8,8.8,0,0,1,1.12.14,21.24,21.24,0,0,0,2.48.16l1.74.15a5.52,5.52,0,0,1,1.49,0,12.44,12.44,0,0,0,2.24,0,1.91,1.91,0,0,1,1.12-.11,5.52,5.52,0,0,0,1.49,0h1c.49.63.12,1,0,1.37s-.76.36-1.14.73-.87.24-2.62.59l-1.74.34a2.14,2.14,0,0,0-1.25.36c-.37.36-1.61-.4-1.5.85l.11,1.24.86.39h.62s.12,0,0,.5l-.13.5-.65,1.85s-1.49-.15-1.49.23v.37s-.75.36-.76.86-3.12,1.2-3.13,1.7v.49a7,7,0,0,0,.85,1.51c.37.37-.51.86-.51.86L-2689,2038l-.5.49s-.38,0,0,.62a2.66,2.66,0,0,0,1.47.89,3.1,3.1,0,0,1,1.12,0,31.09,31.09,0,0,0,4-.32s1.13-.48,1.12,0,.24.87.61.88a3.72,3.72,0,0,1,1.62.15,6.26,6.26,0,0,0,1.74.27l1.36.14a1,1,0,0,1,.87,0,2.16,2.16,0,0,0,1.24.27c.37,0,1.62-.1,2.74-.21s.87-.73,1.25-1,.77-1.73.77-1.73.26-.87.64-1.11.76-.74,1.13-.86.51-.86,1-1.1.51-1.48.89-1.6.63-.49,1.12-.48,1.25-.73,1.25-.73l.89-.61.26-1.24s0-1.12.64-1.11.38-.36.88-.48a7.18,7.18,0,0,0,1.63-1.1l2.25-1.21,1.76-1.34,1-.73s1.38-1.35,1.89-1.34,1.25-.6,1.74-.6,2-1.21,2-1.21a10.57,10.57,0,0,0,1.37-.48c.5-.24,2.25-.84,2.25-.84l1.26-1.22.76-.36a7.37,7.37,0,0,1,1.49-.48c.5-.11,2.75-.83,2.75-.83s-1.74,0,.51-.49l2.24-.46.28-1.86-.24-.63-1.12-.26-2-.65-1.85-.65s-1.62-.28-2.24-.29-3.11.09-3.11.09a20.72,20.72,0,0,0-2.23-.41l-1.86,0-3,0s-4.22-.19-4.84-.07-2.36,0-3.36.2-4.73.43-4.73.43l-2.49.46a9.87,9.87,0,0,0-2.36-.29,29.09,29.09,0,0,1-3.85-.3l-1.62.1a9.19,9.19,0,0,0-2,.47,10.27,10.27,0,0,1-2.37.34l-1.38.35-2.12.72a10.79,10.79,0,0,1-1.37.23l-.75.36-1.25.35-1.5.48-1.12.36Z" transform="translate(2844.78 -2009.95)"/><path class="cls-3" d="M-2667.94,2053.41h-.33l-1.24,0h-.33l-.74-.34-1.49-.69a1.72,1.72,0,0,1-.23-.75c0-.33,0-.82,0-.82a.38.38,0,0,1,.33-.25c.25,0-.24.08.25,0s.84-.24,1.08-.15-.49-.51.25.08.24.42.74.59a11.58,11.58,0,0,0,1.82.28.82.82,0,0,1,.41.17c.24.17.08-.33.24.17s-.08.17.16.5.25,0,.25.33a1.59,1.59,0,0,1-.35.74l-.5.24Z" transform="translate(2844.78 -2009.95)"/><path class="cls-3" d="M-2648,2031.16l-1.83,0s-.66.07-1.08.15a15.36,15.36,0,0,1-2,0h-1.32l-.92,0h-1.07c-.18.49-.35,1.15-.35,1.15a.39.39,0,0,0,.08.5c.24.25-.33-.42.24.25s.24.5.57.67l.33.17a3.43,3.43,0,0,0,.74.34c.49.18,1.16.19,1.32.44s-.4-.59.16.25.74.67,1.15.93l.41.25a1.74,1.74,0,0,1,1.07.26c.5.35.09-.16.5.35s.16,0,.4.5.58.17-.09,1.16l-.68,1s-.6.74-.52,1.24-.08-.17.07.49a7.28,7.28,0,0,0,.32,1.17c.16.42.33.25.57.51s0-.09.67.17a9.23,9.23,0,0,0,1.81.28c.33.08.25.17.66.17a2.86,2.86,0,0,0,.92-.15c.33-.08,1.09-1.15,1.09-1.15a.48.48,0,0,1,.5-.32c.42,0,1.49-.06,1.49-.06a5.06,5.06,0,0,1,.67.09c.41.09-.42,0,2,.11l2.41.12s1.08-.65,1.49-.39-.32-.42.42.25a21.14,21.14,0,0,0,1.71,1.44c.25.17.91.34,1.32.59s-.08-.16,1.48.61a11.61,11.61,0,0,1,2.47,1.28,5,5,0,0,1,.65,1.08c.24.59-.16-.17.24.59s1.22,1.92,1.37,2.17.5.34.66.67.58.34.65.6.42,0,.49.75a6.3,6.3,0,0,0,.39,1.91c.16.25,0,.25.07.91s.05,1.82.05,1.82v.5c0,.33,0,.25,0,.83s-.34.49.07,1.33a7.83,7.83,0,0,0,.39.84,1.56,1.56,0,0,0,.66.58l1.08.18.33-.16.17-.41-.15-.91-.16-.34.09-.74c.59-.08,1,0,1.25-.07a10.28,10.28,0,0,1,1.08-.14h.49c.16.92.16.42.16.92a1.61,1.61,0,0,0,.31,1c.17.25,1.08.42,1.08.42l.73.34.42.26.15.42-.17.83.14,1.74a3.19,3.19,0,0,1,.15.83c0,.33,0,1,0,1.24a2.84,2.84,0,0,1-.09.66,5.54,5.54,0,0,1-.26,1.24c-.18.5-.27,1.16-.44,1.49a6.67,6.67,0,0,1-.43.82c-.25.41-1,.73-1.26,1.14a2.09,2.09,0,0,1-.75.66l-.75.56-.59.49-.11,1.74-.17.41a1.64,1.64,0,0,0-.27,1c.08.5-.51,1.15,0,2.08s.88,1.58.88,1.58l.16.5s-.41-.34.41.67a25.77,25.77,0,0,1,1.54,2.1,18.6,18.6,0,0,1,1.31,1.34c.16.33.39,1.17.55,1.67s-.17.57.64,1.58l.82,1a3,3,0,0,0,1.06.92,3,3,0,0,1,1.31,1.18c.4.67.07.83.64,1.51a12.27,12.27,0,0,1,.81,1c.33.42,1.07.68,1.15.93s.41.34.41.34l1.48,1,1,.51.66.34s1.58.11,2,.11a8,8,0,0,0,1.83-.71,1.17,1.17,0,0,1,.84-.24c.41.09.49.17.83-.07s.76-1.23,1.18-1.56.35-1.15.52-1.73-.07-1.16.2-1.49a6.57,6.57,0,0,0,.5-1c.17-.33,0-1.16.44-1.56a9.19,9.19,0,0,0,.92-1.15,4.83,4.83,0,0,1,.44-1.15,11,11,0,0,1,.68-1.41,3.41,3.41,0,0,0,.51-.9,9,9,0,0,0,.68-1.07c.09-.24.43-1.32.43-1.32a2.16,2.16,0,0,1,.34-.66,5.57,5.57,0,0,1,1.34-.8c1.25-.4,1.09-.4,1.58-.56a7.67,7.67,0,0,0,1.09-.48l1.16-.07s1.5-.14,1.74-.14a2.6,2.6,0,0,0,.67-.07c.49-.08,1.83-.47,2.24-.55a2.8,2.8,0,0,0,.92-.48s.26-.58.51-.66.34-.74.59-.9.35-1,.6-1.16.17-.32.42-.65a5.85,5.85,0,0,0,.51-.91s.26-.82.6-.89,1.41-.4,1.41-.4l.75-.15h.41c.25,0,.91-.07.91-.07a3.05,3.05,0,0,0,1.33,0c.75-.15.66.26,1.59-.64s.92-1,1.25-1a4.12,4.12,0,0,0,1.09-.31l1.16-.07,1,0c.33,0,.75-.41,1.5-.4s1.82-.22,2.24-.13.66-.07.91,0a1.93,1.93,0,0,0,1,0,13.89,13.89,0,0,0,1.67-.89s.17-.74.26-1.07a5.38,5.38,0,0,0,.1-1.08v-.33a6.75,6.75,0,0,0-1.57-.44c-.5,0-1.4-.27-1.74-.27a2.73,2.73,0,0,1-.9-.34l-.4-.76v-.66a2.57,2.57,0,0,1,1.17,0l2.14.69s1.65.19,2,.28a6.22,6.22,0,0,0,1.41-.06l.59-.16,1.24,0a3.85,3.85,0,0,1,.58-.24c.25-.08.59-.58.76-.82a2.62,2.62,0,0,0,.1-1.08l-.41-.5-1.08.15-.49-.26-.32-1.33-.48-.59-1-.59a2.22,2.22,0,0,1,0-.83c.08-.41-.16-.92,0-1.32s-.25-.59.1-1.75a5.06,5.06,0,0,0,.28-1.81s.09-.66.34-.66.67-.49.67-.49l.92-1a.55.55,0,0,1,.42-.24,2.52,2.52,0,0,0,.75-.16c.25-.07.42-.57,1.17-.56s1.59-1.06,1.59-1.06l.09-.74.1-1.32s-.06-1.49.19-1.58.34-.32.59-.4.27-1.57.27-1.57l-.32-.51h-2.08l-.74-.26-.24-.42-.32-.42-.16-.5v-.5a4.16,4.16,0,0,1,.91-.23c.26,0,1.59-.23,1.59-.23a1.07,1.07,0,0,0,.58-.32,4.7,4.7,0,0,0,.34-1.07l-.06-1.16-.74-.18-.66-.26-.5-.17-.49-.18-.74-.67-.47-1.41a4.68,4.68,0,0,1-.07-1.16,16.35,16.35,0,0,1,1.68-1.72l.25-.41s1-2,1.36-2,.59-.66.84-.65.67-.66.67-.66l.51-.57a.41.41,0,0,1,.42-.24,4.89,4.89,0,0,0,1.16-.31l.76-1.24.6-.9.67-.24a4.9,4.9,0,0,0,.83-.57c.26-.24.84-.9.84-.9l.84-.23,1.74-.39s.51-1,.76-1l.74,0,.84-.33s.67-.4.75-.65a6.12,6.12,0,0,0,.18-.82l.1-.66-.08-.67-.9-.34-1.08,0-.82-.09-3-.46a4.48,4.48,0,0,0-1.08,0,7.65,7.65,0,0,1-1.24.07s-.5-.18-.67.07-.91,0-.92.32-.33.24-.5.57-1.08.15-1.17.48-.33.24-.51.58-1.24.47-1.24.47l-2.33.14h-.58l-.74-.26-.57-.42a.9.9,0,0,1-.41-.34c-.17-.25-.49-.84-.49-.84l-.24-.91-.64-1.42-.15-.75-.4-.92-.24-.5-.66-.34-.5-.17h-.58l-1.15-.18a2.67,2.67,0,0,0-.75-.18h-.91a2.63,2.63,0,0,1-.91-.26l-1.9-.2-.32-.33-1.06-1.26a7.75,7.75,0,0,0-2.07-.36l-1.74,0-3.07-.29a3.54,3.54,0,0,1-.74-.26,10.79,10.79,0,0,0-2.23-.12l-1.17.32-1,.23-2.16.14-1.16,0-.58.16a6.94,6.94,0,0,0-2.16.13c-.26.24-.58.08-.75.32s-1.5.39-1.5.39l-1.66.48-.83.07-.91.07-1.75.06-1.16,0-2.06-.2-2-.27-1.9-.28-1.16,0-.83.24-1.58.31-.5.24-.42.41-.26.49-.58.49-.84.24-1.09.81-.91.15-2.24,0-.5-.09-.83.4-1.08.48-1.09.73-.59.24-1.32,0-1.16-.35a26.44,26.44,0,0,0-3.39-.21l-1,.07h-1.49l-1.16,0-1.41.06h-.83l-.66.24s-.83.07-1.09.48-.33.33-.58.49a5.31,5.31,0,0,1-1.34.23l-.49.07-.42.33-.67.57a3.47,3.47,0,0,0-.92.4,3,3,0,0,1-1.16.32h-.67l-.33.08-1.24,0-.84.31a1.08,1.08,0,0,0-.59.5c-.25.4-.84.81-.92,1.06a2.24,2.24,0,0,1-.42.57l-1.25.48-2.33.38-1.49.23-.92.24s-.42.4-.42.65-.1.75-.1.75.33.33.58.34,1.4.1,1.4.1.17.08.42.17a2.17,2.17,0,0,1,.58.42s.16-.16.06.67a7.93,7.93,0,0,1-.35,1.57l-.92.4s-.74.23-.75.48a4,4,0,0,1-.09.66l-.67.66-.67.32-.25.33Z" transform="translate(2844.78 -2009.95)"/><path class="cls-3" d="M-2619.16,2067.34s0,.25-.17.29-1.54.1-1.54.1l-.78,0h-.71l-.41-.09s0-.38-.16-.46a7,7,0,0,0-.74-.26l-.25-.05.05-.57,0-.5-.16-.63s-.12-.41,0-.41-.17,0,.12,0,.09,0,.29,0a.59.59,0,0,0,.3-.28,3.48,3.48,0,0,1,.66,0c.37.05.16.29.71-.16s.71-.48.91-.48a1.85,1.85,0,0,0,.38,0s-.08-.5.42-.16.45.34.65.34.3-.28.51-.4.13-.75.46-.66,0-.08.33.09.38-.08.45.3a2.72,2.72,0,0,1,0,.86c0,.21.12.26.16.46s.16.29.16.42a.71.71,0,0,1-.22.45,4.68,4.68,0,0,1-.91.36l.07.75s-.08,0,0,.25.2.25.07.41S-2619.16,2067.34-2619.16,2067.34Z" transform="translate(2844.78 -2009.95)"/><path class="cls-3" d="M-2625.52,2123l-.32-.83-.32-.84-.49-.33-.34.24-.83.15h-.67s-.58.49-.5.74-.17.41-.26.66a3.79,3.79,0,0,1-.67.82l-.34.41a.26.26,0,0,0-.17.33c.08.25.08-.25.08.25a1.92,1.92,0,0,1-.43,1l-.51.49-1.16.31-.5.32-.34.33.24.92a2,2,0,0,0-.1.82c.08.25-.51.74-.09.91a12,12,0,0,0,1.24.27c.24.08.5-.16.82-.08a2.37,2.37,0,0,0,.92-.06l.24.41a.82.82,0,0,0,.49.26,2.58,2.58,0,0,1,.83,0c.33.09.5.17.58.51s-.09.41,0,.66-.25.58,0,.83.73.67.73.67h.41a1.24,1.24,0,0,1,.5-.16,9.93,9.93,0,0,0,1.08-.31l.34-.08.1-1.08.09-.49.58-.24a2.21,2.21,0,0,1,.75,0,2,2,0,0,0,1-.06c.25-.08,0,.08.25-.08a2.32,2.32,0,0,1,.67-.24l.5.09a1.43,1.43,0,0,1,.58-.32c.33-.08.68-1.24.68-1.24l.09-.66-.49-.42s-.91-.26-.82-.51a4.88,4.88,0,0,0,0-1.08l-.32-.66-.58-.09-1.23-.44-.07-.58-.91-.42-.66-.18Z" transform="translate(2844.78 -2009.95)"/><path class="cls-3" d="M-2546.64,2078l-1.32-.27h-.66l-1,.24-1.08.48-.67.24-1.16.23h-1l-.91.23a3.8,3.8,0,0,0-.84.24,6,6,0,0,1-1.65.06l-1.74-.36-1.48-.52-1-.34-1.16.06-.67.24-1,.4.07,1.16a5.42,5.42,0,0,0,1.32.35,21.56,21.56,0,0,1,1.88,1.61l.08.33c.08.33-.26.66-.1,1s.65.42.82.76-.16-.42.16.33.08.42.15,1.08l.07.67,1.07.42s.84-.31.92.1.24.5.4.84a1.28,1.28,0,0,0,.65.5l.91.43.9.27s.93-.66,1.34-.57a9.64,9.64,0,0,0,1.57,0l.51-.58.35-1.07s.08-.33.67-.49a6.19,6.19,0,0,0,1.08-.4l.91-.15.6-.82s0-.75.42-.74,1-.48,1.33-.31a1.91,1.91,0,0,0,.91.09l.5-.07.84-.57.35-1.57-.07-.74-.82-.43-.58-.17-.41-.51s.09-.33-.33-.33h-.41l-.41-.5Z" transform="translate(2844.78 -2009.95)"/><path class="cls-3" d="M-2664.37,2189.79a.57.57,0,0,0-.66,0,4.12,4.12,0,0,1-1.41.31l-.92-.1-.65-.42-.65-.42-.33-.42-.41-.34-.9-.34-.59-.1-.49-.33-1.07-.35-.75-.09-1.06-.69-1.32-.43-.5-.09h-.41s-.66-.18-.92,0a2.65,2.65,0,0,1-1,.15s0-.17-.75,0a3,3,0,0,1-1.16.07l-.74-.09-1-.18-.57-1v-.66c.42-.16-.08-.08.42-.16l.5-.07.83-.49a.82.82,0,0,1,.5-.24,1.61,1.61,0,0,1,.25,0c.41,0,1.07.1,1.07.1s.67.09,1,.1,1.33-.15,1.33-.15l.74-.07,1.25.1a10.86,10.86,0,0,1,1.32.19c.25.09.9.43.9.43l.83.25h.91a6.07,6.07,0,0,1,1,.27s.33.42.57.67.49.17.66.51a2.29,2.29,0,0,0,.73.67l1,.35s1.16.18,1.41.19.74.09,1,.09.57.75.57.75a4,4,0,0,1-.35,1.08Z" transform="translate(2844.78 -2009.95)"/><path class="cls-3" d="M-2667.2,2194.68l-.92.05-.69,0-.75-.07-.49-.13h-.37a2.88,2.88,0,0,1-.56-.14l-.31-.13-.43-.5-.11-.49.19-.25c.31-.37.32-.68.51-.74s-.13-.06.18-.06a4.46,4.46,0,0,0,.62,0,3.69,3.69,0,0,1,.81,0,.89.89,0,0,0,.5-.06l.37,0,.44.13s.12-.19.74.13l.62.32a1,1,0,0,1,.3.5c.12.38.24.32.24.63v.31c0,.31-.38.49-.38.49Z" transform="translate(2844.78 -2009.95)"/><path class="cls-3" d="M-2663.68,2192.31l-.87,0-.5.19s.06.31.12.49l.06.19a1.45,1.45,0,0,1,.36.44c.13.25,0-.38.13.25s1.42.52,1.42.52h.68c.19,0,.5-.3.5-.3h.57l.61.2a9.09,9.09,0,0,0,1.36,0,3.81,3.81,0,0,1,.63.07,3.09,3.09,0,0,0,.81,0c.31,0,1.18-.1,1.55-.1s.87.2,1.12.2a4.29,4.29,0,0,1,.86.14,1.41,1.41,0,0,0,.56.07h.87a4,4,0,0,0,1-.11c.25-.06.5-.24.69-.23a.39.39,0,0,0,.37-.31,1.82,1.82,0,0,0,.07-.5,1.23,1.23,0,0,0-.3-.5l-.74-.51a3.11,3.11,0,0,1-.48-.69.2.2,0,0,0-.13-.25c-.18-.06-.86-.38-.86-.38l-.56-.2-.8-.44-.49-.38a4,4,0,0,0-1.17-.46,8.79,8.79,0,0,1-1.37-.26,1.29,1.29,0,0,0-.75,0c-.31.11-.74.11-1,.23a4.82,4.82,0,0,1-.68.24,1.29,1.29,0,0,0-.81.61,6.34,6.34,0,0,1-.45.74,1.16,1.16,0,0,1-.44.3.7.7,0,0,0-.44.18.7.7,0,0,1-.44.18Z" transform="translate(2844.78 -2009.95)"/><path class="cls-3" d="M-2832.66,2079.61l-.24,0Z" transform="translate(2844.78 -2009.95)"/><path class="cls-3" d="M-2591.66,2244.88l-.45-3.49,0-1.73,0-1-1.22-1.75-1.74-.53-2.71-1.27-1-.77-1.74-.52-1.24-.27-4-1.05-1-.26-2.47-.78-2-.77-1.24-.27-1.48-.52s-.26.24-1-.76-1.71-2.26-1.71-2.26l-1.7-2.26-.73-1.51-.73-1.25-2.7-2.28-1.72-1-2-1-3-.79s0,.5-1,0a26.52,26.52,0,0,0-2.48-1l-1.47-1-1-2-2-1.52-1.22-1-3-1.28-2.23-.28-5-.08-2.24,0-1.49,0-3.7-1.55-2.5.21-1-.26a2.68,2.68,0,0,0-2.48,0,11.68,11.68,0,0,1-3.5,1.18c-.27,1.5-2,2-2,2l-1.74.22-3.74.44-1.74,0h-1l-2.23-.53-1.48-.52-1-2.25,0-1.25,0-1.49-.22-2-.2-3-1-1-1.49-.27-1-.27-2.22-1.27-1.24,0-1.5,0-1.24,0-1-1,1.25-.73,1.26-.48.51-1v-1l-.21-2.24,0-1.49.76-1.48.27-1.49s-1-1.26-2-.78-2.24-.28-2,.47l.23.75-1.5,0s-1.73-.27-1.74.47.25-.49,0,.75-1.75.72-1.51,1.72a1.38,1.38,0,0,1-.77,1.48l-1.5.47-1,.24a3,3,0,0,1-1.25.23l-1.74,0-1.23-1-1-1.26-1-1-.73-1-.48-1.5a8.89,8.89,0,0,1-.22-1.74c0-.75,0-2.49,0-2.49l0-1.74-.72-1.5-.21-2.74.26-1,.77-1.73,1.52-2.21,2.25-.22a1.91,1.91,0,0,1,1.49-.22c.74.25-.75.23.74.25l1.49,0c1.5,0,1.51-.72,2.49-.21s-1,.48,1,.51,1,.26,2,0l1-.23,2-.47a3,3,0,0,1,1.25-.23c.74,0,4.23-.19,4.23-.19l2.48.54,1.48.51s.76-.73,1,.27l.24,1,.45,3s-.29,2.48.45,3.24l.74.75,2.71,1,1-.47.77-1.24.28-2.23.26-1-.94-3.5-.73-1.25-.22-1.5-.23-1.5-.21-3,1.76-1.46h1l3-.71,1-.73.51-1,2.52-2.45.52-1.48v-1l0-1-.72-2,1.27-1.72h1.24s0-1.74.77-1.73.52-1,1.26-1a4.72,4.72,0,0,0,2-1l1.51-1,1-.73,1.76-1.71.26-1,0-2,.53-2,.51-1s.26-.49,1.25-.47h1l3.73-.44,2-1s-.25.25,0,1,.23,1.49,1,1.75l.74.26,1-.73.77-1.23s.26-.74,1-.23l.74.5,1.24-.23,1,0c.74,0,1-.49,1.75-1s0,.49.75-.49l.76-1,.52-1.49c-.73-.51.25-.24-.73-.51l-1-.26-1.49.23-2.73-.29-1.49-.52-1.24,0-1-.76,0-1.48,0-1.25-.24-1-1.7-2.26-2.51,1.21-1.25.48-1.76,1.21h-1l.52-1.49,1.76-1.71,1.51-1a1.6,1.6,0,0,1,1.5-.23,9.62,9.62,0,0,0,2,.28,3.66,3.66,0,0,1,1.74,0c.74.26,1.25-.73,1.73.27s-.24,0,.49,1l.73,1,1.48.52.77-1.23,1.25-.73,1.49-.47a6.73,6.73,0,0,0,1.25.27l1.48.27,1-1.48a2.28,2.28,0,0,0,.79-2.73s0-1,1.25-1a2.68,2.68,0,0,0,2-1l.77-1.73-.22-2.24-.48-1.25-2.23-.53-1-1.5-.23-1-1.49-.52-1.24-.27-1.21-2-1.2-2.76-.72-2.24-2.21-1.77-.73-1.26-1.23-1-1.46-1.77-2.26,2-1.52,1.22-3,.71-1.24-.52a5,5,0,0,0-.22-1.49,6.43,6.43,0,0,1-.22-1.75l0-1.49-.24-1.25-.47-1-1.74-.52-1.49-.27-1.24,0-1-1.26-1.49-.76-1.48-.52-2,0-1.24,0-2.49,0-1.5.72-1.3,4.21s0,1,0,2.23,0,.5,0,1.25v.74l.46,2.5a17.76,17.76,0,0,1,.46,3c0,1-.31,4-.31,4l-1.52,2-1,0c-.76,1.23-1.53,2.22-1.53,2.22l.71,2.74s-.53,2.23.2,3.23,2.24.29.73,1a5.39,5.39,0,0,1-3,.45l-.73-1-1.21-1.76-.48-2-.45-2.75-.21-2.49-2.23-.77-2.23-.53-1-.76-.49-1-3-1-2.23-.53-1.22-1.26-1.49-.27a1.91,1.91,0,0,0-1.48-.28c-.76.25-2-.52-2-.52l-1.48-.27-1.23-1.51-.47-1.5-2-1-1.49-.76-1.72-.78s-.48-1.75.52-2,1.27-1.72,1.27-1.72l1.26-1,.26-1,.76-1.23s-.48-.75.27-1,0,.5.75-.24.52-1.73,1.26-1.72.27-1,1-1.23-.24-.25.76-.24l1,0,2-1.22a1,1,0,0,1,1-1c1,0,2.52-2.94,3.27-2.69s.51-1.23.51-1.23l.27-1.24.77-1.48,1.5-.47,1-.24,3,0,2.49-.71.52-1.23.27-1.49.76-1.48.28-1.49,0-2-1.47-1.51-1-.76s2.5-.71,3.24-.45-1.25.23.74.26l2,0,1.49,0,1.73.53,2.73.78,1.23.51,1,.52,3.45,1.79,1,.76.48,1.25.23,1a3.15,3.15,0,0,0-.52,1.49c0,.74,1.51-1.22,0,.74l-1.52,2s-1,1-.52,1.73a2.42,2.42,0,0,1,.22,1.75l1.22,1.51a4.15,4.15,0,0,1,1.23,1.26c.73,1-.5-.26.73,1l1.23,1.26,1.72,1s2,1.26,2.71,1.77l.74.51,2,1,1,.52a2.35,2.35,0,0,1,1.75-.23l1,.27-.22-1.5,1.24,0,2-.39.34-.66.19-1-.49-1-.48-.83-.81-1.67-.8-1.51-1.82-1-.64-1.5.19-1.15,1.49.18c.81,1-.17.5.81,1l1,.51s0,.33.65.67a7.66,7.66,0,0,0,1.32.52,3.69,3.69,0,0,0,1,.18c.5,0,.84-.82.84-.82s.18-.82.68-.81l1.65,0h.5s.18-.83.85-1a.87.87,0,0,0,.67-.82l.18-1,.18-1V2075a1.76,1.76,0,0,0-.82-.67,7.26,7.26,0,0,0-1.32-.53l-2-.85-1.65-1.35-.66.15-1.32-.18-1.15-1-.65-.68-1.16-.18-1.31-.84a12.3,12.3,0,0,0,.19-1.82l-.15-1.17v-.66l-.64-1.34-1-.67-1.33-.19-2-1.52-1-.51-2.64-.87-1.32-.52-1.66-.19-2.46-2-1.79-1.52-1-1.5-1.49.14-.83-.35-2.49.63a1.51,1.51,0,0,1-.85,1.48l-1-.18-1.14-1.18-1.15-1.17-2.3-1.2-1-.51-2.32,0h-.66l-.51.66s-.66,0-.66.49-1,.48-1,.48a1.23,1.23,0,0,0-.51,1c0,.67-.51.66-.35,1.32s.5,0,.15.67a1.65,1.65,0,0,1-1,.81l-1-.34-.31-1.33s-.16-.67.34-.83.51-1,.51-1l.19-1v-.67a6.55,6.55,0,0,0-2-.52l-1.49-.19a8,8,0,0,1-2.5,1.12c-.34.66-1.18,1-1.18,1.48s.17-.5,0,.49-.52,1.32-.36,2.15-.52,1.16,0,1.82a9.91,9.91,0,0,1,.81,1.35l.81,1.17s-.17.32,1,1,1.16.18,2,.86.49.17.82.67-1.33-.19.32.5.34-.16,1.65.69,1,.34,1.31.84.33.18.32,1.17-.68.82-.69,1.32v.5l-1.34,1.13-1.18,1-.18,1-1.67.64a.65.65,0,0,1-.65-.67c0-.66,0-1.49,0-1.49v-1l-.14-1.16-.32-.83-1-.35h-1l-1.33,0s-1.16-.18-1.15-.68v-.5l-1.48-1-1.82-.36-.66-.18-.14-2.16-.31-1.32-.64-1.34-.49-.67-.65-.34-2.81-.87s-.83,0-.84.65-.84,1-.84,1-1.49,0-1.34.65-.5.16,0,1.32.15.83.63,1.84-.17.16.48,1-.33.16.66.83a9.6,9.6,0,0,0,1,.68l.82.51a2.76,2.76,0,0,1,.81,1c.32.67.49.67.48,1.33a6.74,6.74,0,0,1-.69,2,10,10,0,0,0-1.66.14,6,6,0,0,1-1.82,0l-.64-1.33.18-1.33.34-.82-1.14-1.34-1.48-.52-3.15-.21,0,1.16,1.32,1c1,1,.64,1.17.8,1.84s-1,.48-1,.48l-2.48.3-3.16.28-3.65.11a5.38,5.38,0,0,0-2.15.14,10,10,0,0,1-3,.12h-1l-2.48-.7-.34,1c1,1-1.18,1-1.18,1l-1-.35h-.83s-.82-.51-1.32-.35l-.5.16-3.8-.39-2.82-.21-.82-.51-.66-.51-1-1.17-.32-1-.82-.18-1.66-.19a3.48,3.48,0,0,0-1.33,0,3.41,3.41,0,0,1-1.82,0c-.5-.17-1.32-.52-1.32-.52l-.82-.34-1.47-1.18-1.16-.52h-1.16l-1.33,0-1.32,0-.66.15a9.58,9.58,0,0,1-1.83.14l-1.82,0-2.63-1.53-1.82-.53-1.16,0-2.82.46-.67.16s-.83-.18-.83.32-1.17.48-1.17.48l-1.66.14-.66-.17-1.16,0-.83.48s-1,.15-1,.65-1.16.48-1.16.48l-1.66-.52-1.82.14-1.5.47-2.16.47-1.16-.18-1.31-.69-1.16-.51-.82-.34-1.48-.69-3.47-.55-1.66,0-3.48-.21-2.32-.2-2.31-.37-1.49-.52-1.49,0-2.48-.2-3-.54-1.31-.69-2-.35-1.16,0-1.64-.85s1.66-.31-1.15-.68-2.15-.7-4-.23-3,0-2.82.46-1.51,1-1.51,1l-.83.49s-2.65-.21-2.5.29-1.17.81-1.17.81l-1,1.32s-.82-.51-.83.15,1.17-.81,0,.66a6.64,6.64,0,0,1-1.85,1.8l-1.83.8s-1.16-.18-.68.65.34-.32.49.84-1.17.31.15,1.16a9.31,9.31,0,0,1,1.31.85,14.68,14.68,0,0,1,2,1.52c.49.5.34-.49.49.5s1.64,1.19,2,1.69l.33.5a4.75,4.75,0,0,0-1.34.48,2.52,2.52,0,0,1-1.49.14l-1.49-.18-2.15,0s-.67.15-1.17.31a26.68,26.68,0,0,1-3,.29c-.18,1.16-.33,0-.18,1.16s-.84,1.14.14,2.15.47,1.33,1.13,1.68-.17.16.66.34,1.5-.15,2,0a3.26,3.26,0,0,0,1.32,0l1.67-.3,1-.15a3.18,3.18,0,0,1,1.33,0l.49.17a20.57,20.57,0,0,1,2.48.7l.32.67s-.33.16-.18,1l.15.83-2,.47-1.5.14-1.67,1-1.66,0-1.16.64s-1.17.48-1,1l.16.5-.85,1.15-.35,1-.18,1.32,1,1,.81,1,1.49.68,1.47,1,.74,1c1.23.52,0,.26,1.23.52l1.24.26,1.47,1.27h1.25a2.49,2.49,0,0,1,1.73.28l.74.51,1.49.27,1.23.51.23,1a11.82,11.82,0,0,0-.51,1.24c-.26.74-2,1.46-2,1.46l-1.5,1-1.51,1-1.25.72-1.51.72-1.25.74-2.24.46-1.76.72-1.49.22-1.5.73-2.25.46-2,0v1a8.12,8.12,0,0,0,1.74.27c.74,0,1.49-.47,2.49-.46s1.5-.47,2.24-.46a14.91,14.91,0,0,0,2.75-.71,7.43,7.43,0,0,1,2-.46,10.23,10.23,0,0,0,2.24-.47l2-.47,3-1s.51-1.23,1.25-1.23,1.51-1,1.51-1l1.25-1,1.27-1.47,1.77-1.72,1-1.47,1.51-1.23,1-1,1.27-1.47.76-1,.26-1,1.5-.48c.73,1,1.24,0,.73,1l-.51,1a1,1,0,0,0,1.23.77c1-.24,1-1,1.76-1.47l.75-.49,2.24.28a1,1,0,0,1,1.26-1c1.23.26-.26.24,1.23.26l1.49,0,1.74.53a6.12,6.12,0,0,0,2.22,1,16.13,16.13,0,0,0,2.73.29l1.49,0,1.73.78s0-.5,1,0a6.64,6.64,0,0,0,2.48.53,3.37,3.37,0,0,0,1.23.77c.74.26,1.23,1,2,1.52s-.49-.26.74.51l1.23.76a6.14,6.14,0,0,0,1.73,1.27l.74.26,1.47,1.26,1.47,1.51.72,1.76,1.47,1.51,2,1.77a10.1,10.1,0,0,0,1.23,1c.74.51,1.72,1.27,1.72,1.27s-.5.24.48,1.25-.5.24,1,1,.5-.24,1.48.76l1,1a7.49,7.49,0,0,1,.73,1.51c.23.75-1.24-.77.23.75a4.34,4.34,0,0,0,2.72,1.53l1,.75a1.11,1.11,0,0,0,1,.76,8.63,8.63,0,0,1,2.47,1s2,.52,2,1.27-.48-1,0,.74l.48,1.75-1,.73-1.24,0-.73-1.25-1-1.25-1-.52-1-.76s-2-1.52-2.72-1.28l-.75.23c0,1.5,1,1.76,1,1.76a5.73,5.73,0,0,0,1.71,1.52,4.08,4.08,0,0,1,1.48,1.26,2.62,2.62,0,0,1,.73,1.5c0,.75-.24-.75,0,.75a17.66,17.66,0,0,1,.21,2.49l.71,2-.57,5.46.46,2.24s-.5.25,0,1.25a11,11,0,0,1,.71,2.74,16,16,0,0,0,.71,2.5c.48,1.25-.25-.25.48,1.25l.72,1.5a5.17,5.17,0,0,1,1.23,1.26,6.27,6.27,0,0,1,1,1.76c.24.75.72,2,.72,2s0-.24.48,1-.24,0,.49,1.25l.72,1.25s.5-.24,1.24.52l.73.75,1.24.52s.25-.5,1,.51l.73,1,2.21,2.28.71,2.24s-.5,0,.48,1.25a6,6,0,0,1,1.45,2.76c.24,1-.48-.5.24,1a18,18,0,0,0,1.45,2.51l.71,2.74a26.77,26.77,0,0,0,2.46,1.78s1,.26,1.23,1,1.47,1.52,1.47,1.52l1.23,1,1.49,0-.22-2-1-1-1.47-1.76-1-1.5-.73-1-.48-1-.48-1.5-.73-1-.48-1.5-1.22-1.51,0-1.25,1.25-.47c1,1-.47-2.25,1,1s2.17,4.51,2.17,4.51a9.46,9.46,0,0,1,2,2.27c.23.75,2,1.77,2,1.77l1.72,2a13.12,13.12,0,0,0,.72,1.25c.49.75,1.7,2.52,1.7,2.52l1.23,1s-.25.48.48,1.25,0-.26.74.75,0,.25.73,1,.25-.24.73.76.75,0,.48,1l-.26,1s-.25.48.48,1.24l.74.76,1.48,1,.73.51a3.1,3.1,0,0,1,1.73,1c.49.75-.49-.51.49.75.23.3.4.53.54.7l.43.56a8.39,8.39,0,0,0,2.46,2l2,1.27,1.24,0,1.49,0,2.24,0,2.48,0,1.75-.22s1.75-.47,2.48,0l.74.5a1.75,1.75,0,0,1,1.25,0c.74.26.25-.74.74.26s-1-.51.48,1,2.45,2.77,2.45,2.77l2,0,1.49.27,1.72,1.52,1.48,1,1,1,1.22,1.76a3.07,3.07,0,0,1,1,1,7.57,7.57,0,0,0,1.46,1.51l1.24.52a3,3,0,0,1,.23,1.25c0,.74-1.48-.52,0,.74l1.47,1.26a2.53,2.53,0,0,1,1,.52c.74.5,2.49,0,2.49,0l1,0,1-.24,1,0,1.49,0,1.49,0,2,0-.28,2.73-.05,3a2.69,2.69,0,0,0-.27,1.73l.24.75a9.87,9.87,0,0,0-.52,1.23c-.26.75-1,.73-1.52,1.72s-2.25,1-2.26,1.72v.73s-1.5,1-1.52,1.72-1.51,1.47-1.51,1.47l-.29,2.74.72,2.24c0,1-.27,1-.28,2l0,1a7.93,7.93,0,0,0,0,2.49c.24.74-1,0,.24.74l1.23.77s1.24.27,1.47,1.27a5.7,5.7,0,0,0,.71,2.24c.73,1.5,0,1.24,1,2.5s2.68,4,2.68,4a1.75,1.75,0,0,1,.73,1c.24.74-1.47-1.27.24.74s1.48.77,1.71,2,1.22,1.26,1.71,2a4.36,4.36,0,0,0,1.47,1.26l1,.52,1.72,1.26,1.23,1,2,1.27.48,1c.49,1,.5,0,.49,1,0,.24,0,.35,0,.4v0c0,.06,0,.21,0,.58,0,1.24.41,6.71.41,6.71s0,.5.2,2.49a13.11,13.11,0,0,1,0,3.48s-.25-.25,0,1-.27,1.74,0,2.49.76-.74.24.75-.77,2-1,2.72l-.26.74-1,1.72-.51,1-.27,1.49-.26,1,.71,1.75,0,1.49v.75a1.07,1.07,0,0,0-1,.73c-.26.74.25-.5-.26.74l-.52,1.24-.76,1a20.83,20.83,0,0,0-1,3.47c0,.73.19,3.73.19,3.73s.21,2.48.2,3.48a9,9,0,0,1-.28,2l-1.26,1.23-1,.73-.52,1.23,1,1,.2,3.49.23,1.25,0,1a3.4,3.4,0,0,1-1.76,1.21,18.78,18.78,0,0,1-1.3,4,2.93,2.93,0,0,0,.48,1.49c.49.76.73,1,.72,1.76s-.24-.51,0,.74l.23,1.24a1.41,1.41,0,0,0,0,1.5c.48.75,0,1.49,0,2.24s-1.24-.77,0,.74a7.11,7.11,0,0,1,1.45,2.51,7.42,7.42,0,0,0,1.22,1.75c.74.76-.28,2.49-.28,2.49l.48,1s-.75.24.48,1.25a25.3,25.3,0,0,0,2.46,1.78l1.73.51s-.74-.75,1,0,2,.27,3.22.54,1.73.53,2.48,0l.76-.49,1-1,.27-1-1.73-.53-1.48-1-1.95-3-.22-2,.29-2.49.77-1.73,1.28-2.22,1-1,1.76-1,1-1.23v-1l0-1-.73-1-.23-1.74,0-1.24.27-1,2-2,.75-1,.53-2,.27-1.24.51-1,.52-1.48.26-1,1-.48,1-.49a4.22,4.22,0,0,1,1-1.47l.76-.74.51-1.23,1.74,0a8.19,8.19,0,0,0,2-.21c.75-.25-.75.73.75-.25l1.51-1,2.5-1.2,1-2,0-2.24,1-1.47.52-1,1.49-.23,1,.27,1.76-1,1-1,1.51-1.72,1.77-2,0-1a5.16,5.16,0,0,1,1.27-2.23c.75-.48.27-1.23,1.26-1.47a6.41,6.41,0,0,0,2-1l1.27-1.72.27-1.24,0-1.49,1.28-2.22.26-1s0-1,.77-1.23l.74-.23s.27-1.25,1-1.48-.75.48.75-.24.77-1.48,2.26-1.71a14.89,14.89,0,0,0,2.75-.71l1.25-.72a10.6,10.6,0,0,1,2.25-1,8.77,8.77,0,0,0,2.51-1.45l.77-1.23.76-1.73,1.53-2,.3-3.72.27-1.74,1-2.22,0-1.74-.23-1.25,0-1a12,12,0,0,0,1.26-1.46,24.05,24.05,0,0,0,1.31-4.21l-.22-2.5Zm-80.76-105.53.2-.43.32-.44.93-.05.62-.24.87,0h.87l1.68-.1.24.69v.25l-.2.49a1.27,1.27,0,0,1-.5.24c-.19,0-.62.18-.81.17s-.62.12-.81.12a6.71,6.71,0,0,0-.75.11s-1.12.24-1.31.23a2,2,0,0,0-.56.18l-.62.18s-.57.74-.82.8-.63.79-1.14,1,0,0-1.12.24c-.68.14-.67.17-.6.18h0c-.26,0-1.27.35-1.27.35l-1.05-.27-.74-.32a2,2,0,0,1-.05-.74,5.58,5.58,0,0,1,.45-1.12c.12-.18.68-.24.68-.24l1.31,0h.37l1.18.08a8.58,8.58,0,0,0,.88-.18c.18-.06.74,0,.93-.23s.69-.55.69-.55Zm-9-6.16a2.9,2.9,0,0,1,.75,0,7.25,7.25,0,0,0,1.18,0,3.56,3.56,0,0,1,.56-.12l1.19-.17s1.05-.11,1.24-.11,1.24.14,1.24.14l1.31,0,.23,1,.31.07.31.25-.07.31s-.25.37-.5.43a3.27,3.27,0,0,0-.44.12l-.8-.08a2.5,2.5,0,0,1-.75,0c-.38-.07-.32.12-.32.12l-.25.68-.15,1.37a3.14,3.14,0,0,1-1.06.54,2,2,0,0,1-.62,0c-.31,0-.31-.13-.67-.63s-.56-.2-.75-.39a2.19,2.19,0,0,1-.48-.81c-.18-.44,0,0,0-.37s-.19-.32-.37-.56a1.31,1.31,0,0,0-.74-.64c-.56-.26-.62,0-.62,0s-.68,0-.93,0a2.92,2.92,0,0,0-.5.05,2.19,2.19,0,0,1-.63.5,2.32,2.32,0,0,0-.5.3s-.39.49-.57.67a.38.38,0,0,0-.13.37l-.14.87a1.38,1.38,0,0,1-.44.37c-.19.06-.08,1-.08,1s-.19.93-.26,1.11,0,.5-.07.69-.13.31-.13.31a4.51,4.51,0,0,1-.63.05,1,1,0,0,1-.43-.07,4.25,4.25,0,0,0-.49-.26c-.19-.06-.24-.25-.3-.56a5.53,5.53,0,0,1,.14-1.12c0-.25-.18-.93-.18-1.18a2.09,2.09,0,0,0-.05-.5,7.93,7.93,0,0,0,0-1.23c-.06-.19.31-.32.44-.63s.26-.43.39-.74a7.62,7.62,0,0,0,1-.29,9,9,0,0,1,1.06-.42c.38-.12,0,0,.07-.31s.87-.48.87-.48h.19c.19,0,.68.07.68.07l.56.07A7.23,7.23,0,0,0-2681.47,2133.19Zm-14.06-2.88c.25-.06,0-.19.31-.3s.32-.37.5-.37.45-.55.45-.55l.13-.31c.37-.25-.32,0,.37-.25s.94-.6,1.19-.66.26-.37.51-.56l.25-.18h.25c.25,0,.75.07.75.07s-.32-.07.36,0a1.88,1.88,0,0,0,1.13-.23,1.34,1.34,0,0,0,.5-.3l.44-.18.31-.18.5.13a1,1,0,0,1,.55.2c.25.18.56.25.68.5a2.21,2.21,0,0,0,.67.57.6.6,0,0,0,.31.37,8.23,8.23,0,0,0,.8.33.59.59,0,0,1,.31.13l.19.12a.75.75,0,0,1,.24.32c.12.25-.06.12.12.25a7.9,7.9,0,0,1,.8,1.13s-.19-.19-.38-.07a12.68,12.68,0,0,1-2,.16h-1.37l-.68-.07a1.51,1.51,0,0,0-.55,0,4.56,4.56,0,0,1-.82,0l-.87.29-1.49,0s0-.37-.69,0a7,7,0,0,1-1.37.53.38.38,0,0,0-.38.13c-.12.18-.87.36-.87.36h-1.06l-.18-.44v-.56S-2695.78,2130.37-2695.53,2130.31Zm49.66-52.38s0,0,0,0Zm-100.64-1.13a3.9,3.9,0,0,1-.84.73c-.25.08-.92.24-.92.24h-.33l-.74.08-.59.24-.67.32-.57-.34-.33-.26-.91-.17a1.5,1.5,0,0,0-.83.07,1.29,1.29,0,0,1-.74.07s.09-.33-.49-.26-.92-.09-1.33,0,.08.09-.42.08-.49-.17-1-.1-.91-.18-1.33-.18a4.84,4.84,0,0,1-1-.18l-.65-.76.09-.33s-.33-.25.34-.32-.58-.09.66-.08l1.24,0a.91.91,0,0,1,.58-.07,3.89,3.89,0,0,0,.91,0c.34,0,.67-.32.92-.4l.25-.08h-.07l-.11,0,.11,0h.07a5.21,5.21,0,0,0,.92-.24s-.17-.08.33,0,.83-.15,1.08-.07a2,2,0,0,0,.74,0l.66.18s.59-.08.58.17-.24-.33,0,.25.57.5.9.59-.17.33.33.09.84-.82,1.09-.81a1.67,1.67,0,0,0,.58-.16l.5-.16.83.1s.25-.08.33.25l.08.33Zm15.84,10.84c-.68.48-.26.33-.51.41s-.33.32-.67.4a2.45,2.45,0,0,1-.82,0l-.83.23c-.34.08-.59.33-.84.32s-.5.41-.83.49a5.52,5.52,0,0,0-.67.24c-.25.08-.34.74-.34.74a1.84,1.84,0,0,1-.84.4c-.33,0-.58.24-1.08.32a5.26,5.26,0,0,1-.91.07l-1.08,0a8.12,8.12,0,0,0-.92.07l-.74.24a4.22,4.22,0,0,1-.75.57,6.62,6.62,0,0,1-1,.4c-.5.15-.5.24-.91.14s0,0-.15-1,0,0,.08-.25.34,0,.59-.23.33-.25.33-.25a3.37,3.37,0,0,0,.76-.49,2,2,0,0,1,.91-.31l.84-.49s.51-.57.43-.82.74-.07.74-.07h.33l1.33-.14.74.09.75-.07s.91,0,1.09-.32.41-.16.66-.49.42-.07.67-.49a.56.56,0,0,1,.59-.32l.58-.16s.91,0,1.17-.23a3.67,3.67,0,0,1,.5-.4s1.08-.15,1.33-.15.24.42.24.42A1.93,1.93,0,0,1-2730.67,2087.64Zm23.62,31.13c0-.44,0-.25-.23-.94s-.25-.31-.62-.57,0,0-.18-.31,0-.31,0-.31l-.18-.44-.55-.26-.44-.06-.8-.32a1.16,1.16,0,0,1-.49-.45l-.31-.43-.05-.32.07-.31.25-.68.32-.24.62-.24.44-.06.38-.06s.43-.11.43-.3.68,0,.68,0h.51l.36.19.49.63.12.37.12.32-.07.62c-.07.62,0,.56,0,.56l.67.75.74.39a3.35,3.35,0,0,1,.68.63l.11.68.06.44.3.56.06.38-.08.86-.32.56-.31.49a8.53,8.53,0,0,1-.88,0h-.68l-.62-.26A9.83,9.83,0,0,1-2707,2118.77Z" transform="translate(2844.78 -2009.95)"/><path class="cls-3" d="M-2832.9,2079.57l0,0Z" transform="translate(2844.78 -2009.95)"/><path class="cls-3" d="M-2329.67,2223.82h-2c-.49,0-1.36-.15-1.36-.15a.51.51,0,0,0-.63.37c-.13.49-.63.85,0,1.48s.86.39,1.11.77-.36-.51.24.37,1.7,2.64,1.7,2.64a4.74,4.74,0,0,1,1.48,1c.37.5.87.25,1.11.88s.49.51.72,1.26.61,1.5.73,1.87.73,1,1,1.64a5.73,5.73,0,0,0,1.23,1.5,12.45,12.45,0,0,1,1.22,1,4.21,4.21,0,0,1,1.23,1.51,11,11,0,0,0,1.58,2.14,5.73,5.73,0,0,0,.61.75,3,3,0,0,0,1.36.52s.5.13.87.26.49,0,.86.26-.25.13.37.26.87-.11,1.25,0a1.36,1.36,0,0,0,.86-.1,17.2,17.2,0,0,0,.28-1.74,18.31,18.31,0,0,0-.34-2s.25-.12,0-.87a14.57,14.57,0,0,0-.84-1.87l-1.35-1.14a8.69,8.69,0,0,0-.87-.76c-.49-.38-.73-.51-1.35-1l-1.1-.89-1.23-1.13-.73-1.13-1.22-1.14s-1.11-.63-1.11-1-.74-.63-.73-1-1.35-1.39-1.35-1.39l-.61-.38-1.23-1-.36-.5-.37-.63Z" transform="translate(2844.78 -2009.95)"/><path class="cls-3" d="M-2307.39,2247.15l-.74-.27-3.1-.54a2.37,2.37,0,0,0-1.12-.13,1.94,1.94,0,0,1-.87,0s-1.24-.27-1.24.11-.39.48-.39,1.11v.62h0c.49.38.62.13,1,.26s-.25.12.37.13a2.17,2.17,0,0,1,1.48.52c.49.38,1,.27,1.37.4s2.12-.35,2.36,0,.87.14,1.23.52a4.65,4.65,0,0,0,1.86,1c.61.13,3.22.42,3.22.42s-.49-.38,1.37,0,2.1.28,2.6.41,1.12-.1,1.49,0,1-.24,1.38-.36l.37-.11.14-.74v-.75l-2-.65-1.24-.14a14.32,14.32,0,0,0-2.6-.79c-.62,0-.63-.13-1.25-.15s-1.61.11-1.61.11Z" transform="translate(2844.78 -2009.95)"/><path class="cls-3" d="M-2303.29,2230.55l-1.76.84a3.2,3.2,0,0,0-1.12,0c-.37.11-.11-.38-.37.11a8.22,8.22,0,0,0-.9,1.86c0,.37-.26.61,0,1.12s-.25-.26.24.5.62.5.72,1.25.37.5.36,1.37a12.3,12.3,0,0,1-.15,1.62l.61,1a18.34,18.34,0,0,0,1.85,1l.61.26s1.38-.23,1.75-.22-.25.11.37,0,1.12-.24,1.12-.24l1.49.28,1,.88a1.94,1.94,0,0,1,.62.14,8.86,8.86,0,0,0,1.74,0c.62,0,.24.75.62,0a6.92,6.92,0,0,0,.53-2l0-1.37.74-.74c.76-.6,1.26-1,1.64-1.34a4.11,4.11,0,0,0,.65-1.48l.13-.62s0-.12.5-.36.63-.87.76-1.24a2.83,2.83,0,0,0,.27-1.11,14.65,14.65,0,0,0-.11-1.49l-.47-1.51-.23-.87s-.37-.25.26-.87l.63-.61a3.27,3.27,0,0,1,.5-.36c.37-.25.51-.49.88-.49s.87,0,1-.6a7.47,7.47,0,0,0,.14-1.24,1.7,1.7,0,0,0-.86-.63l-.87,0c-.37,0-1.48-1.14-1.48-1.14l-.23-.63-1.37-.38-1.13.85s-.49,0-.5.61a2.18,2.18,0,0,1-.9,1.85,21.27,21.27,0,0,1-2.26,1.46c-.26.74-.51.48-1,1s.87.14-.5.49-2.49.21-2.5.58-.37.25-.5.74.75-.61-.14.5l-.88,1.11Z" transform="translate(2844.78 -2009.95)"/><path class="cls-3" d="M-2280.39,2236.85s-2.24.34-2.61.46a6.27,6.27,0,0,1-1.25.1l-2.86,0c-.63.24-.87.36-1,.86s-1,1.23-.89,1.6l.12.37.85,1.13.24.88a3.3,3.3,0,0,1-.27,1.11,12.24,12.24,0,0,0-.39,1.36,3.13,3.13,0,0,0-.13.87l.73.51,1,0,.5-.12-.23-1.37.27-1.49.38-.62,1,0,.62-.12a1.82,1.82,0,0,1,.37.63c.12.38.24.63.47,1.25a3.41,3.41,0,0,0,.86,1.13l.62.26h.5s-.36-.88.26-1.12l.63-.24.63-.24.14-1.61.14-.74-.24-.63-1.24-.77-.6-1a5.82,5.82,0,0,1,.76-1A4.11,4.11,0,0,0-2280.39,2236.85Z" transform="translate(2844.78 -2009.95)"/><path class="cls-3" d="M-2277.11,2233.78a12,12,0,0,1-1.63.85,5.24,5.24,0,0,1-2,.22,9.06,9.06,0,0,0-1.87,0l-2,.47-1.36,0-.49-1s-.24-.5.14-.49-.13.12.37,0,1.25-.35,1.25-.35l1.87-.35,1.5-.6s.25-.12,1,.14a3.74,3.74,0,0,0,1.62.15,3.71,3.71,0,0,0,1.37-.35h.87Z" transform="translate(2844.78 -2009.95)"/><path class="cls-3" d="M-2273.26,2250.87a2.34,2.34,0,0,0-1,.61c-.25.37-.63.36-1,.36s.13-.74-.37,0,.74.26-.51.74-2.12.72-2.25,1.09.37-.12-.14.36a7.12,7.12,0,0,0-.88,1.11s-.25,0-.13.62,1,1,1,1,.74,0,1-.48.39-1,.65-1.61a5.73,5.73,0,0,1,.77-1.23h.74l2.12-.59.38-.49,1.5-.6.14-.62-.74-.75Z" transform="translate(2844.78 -2009.95)"/><path class="cls-3" d="M-2273.47,2222.4a1.26,1.26,0,0,0-.5.87c0,.49.23.62-.52,1a3.87,3.87,0,0,1-1.5.36l-.73-.51-.12-.63-.48-1-.36-1-.5-.38h-.74l-.87.48H-2281s-1.12-.26-1.11-.64-.6-1.75,0-1.74.75-.37,1.37-.35h.62l-.09-1.75-.73-1.13-1.23-1.13-.12-.75.88-.36s-.12-.13.5,0a12.27,12.27,0,0,0,1.73.15s-.12.24.24.75.6,1.38,1.1,1.5,1.61.27,1.61.27l1.12,0s.13-.37.87.14,1.11.76,1.1,1.26,0,.24,0,1l0,.75a3.87,3.87,0,0,0-.26,1C-2273.45,2220.91-2273.47,2222.4-2273.47,2222.4Z" transform="translate(2844.78 -2009.95)"/><path class="cls-3" d="M-2273.84,2213.69l0-1.24,0-1.24-.49-.75-1.23-.89-.48-1.13V2208l-1-1.14-.86-.38-1.12.11-.51.48s-1-.76-.87.24a3.47,3.47,0,0,0,1.22,1.88s.12.13.11.63-.76.73,0,1.11l.74.39a3.6,3.6,0,0,1,.36.75l.48,1.37.49.38,1,.14h.74Z" transform="translate(2844.78 -2009.95)"/><path class="cls-3" d="M-2283.07,2207.6l.63-.5s-.24-.74.13-1,.9-1.72.9-1.72a5.78,5.78,0,0,1,.28-1.87c.25-.36-.25-.62,0-1a7.87,7.87,0,0,0,.41-2l-.12-.75-1.11-.64h-1c-1,1.6-1.89,1.71-1.9,2.33s-.51.74-.52,1.24-1,.61-1,.61c-.26.62.12-.13-.26.62s-.38.73-.39,1.23a1.92,1.92,0,0,0,.36,1l.86.26,1,.26c.36.63.37,0,.36.63S-2283.07,2207.6-2283.07,2207.6Z" transform="translate(2844.78 -2009.95)"/><path class="cls-3" d="M-2281.52,2186.23a6.28,6.28,0,0,0-.39,1.37,1.6,1.6,0,0,1-.39,1c-.25.37,0-.75-.25.37a3.39,3.39,0,0,1-.77,1.6l-1.12-.14a8.41,8.41,0,0,1-.71-2.13l.14-1.36s-.48-1.25.15-1.49,1.12-.47,1.12-.47a2.16,2.16,0,0,1,1.26-1.11c.88-.24.51-.74.88-.24s.23.75.35,1.5A1.29,1.29,0,0,1-2281.52,2186.23Z" transform="translate(2844.78 -2009.95)"/><path class="cls-3" d="M-2268.68,2235.15l-1.61,0-1-.89.13-1,.15-1.49v-1l1.37-.36.62.51a.9.9,0,0,1,.36.63c.12.5-.13.5,0,1a1.63,1.63,0,0,1-.15,1Z" transform="translate(2844.78 -2009.95)"/><path class="cls-3" d="M-2263,2167.11l-1.24.11h-.87s-.25-.38-.5.12-.74-.39-1.25.6-.51.48-.51,1-.13,0,0,.5,1,1.13,1,1.13.25-.12.5.38.72,1.88.72,1.88a2.06,2.06,0,0,0,.86.14,4.89,4.89,0,0,0,1.12-.11l.64-.49.26-1.24.14-1.12.39-.86s-.24-.63.13-.74l.38-.12a.91.91,0,0,1,.62-.24c.37,0,1.49.14,1.49.14l1.49,0,.88-.23.25-.62.38-.61s.76-.61.87,0l.12.62,1.61.27.89-.73.39-1.49a.86.86,0,0,1,.62-.36h.38c.87,0,3.6.3,4.1.3l1.12,0a3,3,0,0,0,1.24-.48l.63-.36.16-2.24a5.63,5.63,0,0,1,.14-1.24,10.54,10.54,0,0,0,.27-1.24l.26-.86a22,22,0,0,0,.54-2.86,9.59,9.59,0,0,0-.08-3.35,2.64,2.64,0,0,1-.11-.75c0-.37-.46-2.5-.46-2.5l-.63-.13s-1,.73-1,1.11-.87.6-1,1.1.26-.37-.12.5-.13-.25-.39.86-.89,1-1.14,1.72,0,.38-.26.75l-.26.36h0c-.26,1,.13-.12-.26,1l-.39,1.11s.75-.36-1.25.35l-2,.72-.5.24s-.87.24-.88.86v.62l-.76.73a11.63,11.63,0,0,1-1.13,1c-.37.25-.37,0-1,.11a5.24,5.24,0,0,1-1.49,0l-1.37.11s-.61-.38-1,0l-.38.37-1,.11s-.25,0-.26.49,0-.24,0,.5.38-.37,0,.74l-.39,1.12Z" transform="translate(2844.78 -2009.95)"/><path class="cls-3" d="M-2240.24,2142.83l-.49-.63-.49-.25s-1-.89-1.37,0-.12,0-.38.87-.53,1.61-.53,1.61l-.49.36-.88.36-.5.24s-.5-.13-.5.25a7.44,7.44,0,0,1-.27,1.24v.49l.5.63a.68.68,0,0,0,.49.13,6.69,6.69,0,0,0,1.5-.47l1.24-.11.62.38.49.38,1.86.28.88-.49.38-.48s.13-.75.62-.74.89-.49,1.38-.48h1l.76-.36.26-.74v-1.49s.25-.75-.12-.63a6.19,6.19,0,0,1-1.74-.15l-.87.24-1.62.1h-.62Z" transform="translate(2844.78 -2009.95)"/><path class="cls-3" d="M-2243.44,2123.89a7.44,7.44,0,0,1,.84,1.75c.11.62-.14,1,0,1.62a2.15,2.15,0,0,1,0,1.24,5.32,5.32,0,0,0-.14,1.36,19.64,19.64,0,0,0,.71,2.13c.12.5-.14.74,0,1.24s-.26,1.12-.27,1.61a4.73,4.73,0,0,0,.34,2.49l.48.88,2,.78,1.12-.24s.26-.74.39-1.24a6.56,6.56,0,0,0-.47-2.11s-.61-.38-.48-.88a4.61,4.61,0,0,0-.34-1.75l.63-.86.5-.61s.37.75.39-.87,0-.86,0-1.61a5.48,5.48,0,0,0-.59-1.88c-.12-.37-.85-1.5-.72-1.87s-.59-2.12-.46-2.5-.36-.87-.23-1.24l.13-.37-1-.76h-1.49s-.62.36-.75.73,0,.62-.27,1A6.68,6.68,0,0,0-2243.44,2123.89Z" transform="translate(2844.78 -2009.95)"/><path class="cls-3" d="M-2255.95,2240.43a.77.77,0,0,1-.5.12c-.37,0-1.49-.15-1.49-.15l-.49-.5-.49-.63-.1-1.49V2237l0-1.37-.61-.5-1.38.23s-.36-.26-.74.24-.88.36-1.38.47a2.8,2.8,0,0,1-1.25-.14l-.74.36-1.38.6-.25.5s-.75.24-.13.5a3.52,3.52,0,0,0,1.23.26l1-.48c.73.75,1.75-1,1.84,1s.23,1.37.1,2-.26,1.12-.26,1.12l1.47,1.26s.63-.37.75,0l.11.37,2.36.29,1.62-.11,1.73.4a.62.62,0,0,1,.75-.11c.37.25,0-.25.37.25s1,.39,1.11,1,0-.75,1.1.76,1.11.88,1.1,1.5,0,1.12,0,1.12a2.12,2.12,0,0,0-.51.86l-.13.5s-.5-.13-.62.24.5-.86-.13.37l-.64,1.24a12.94,12.94,0,0,0,2.1.77h.37s-.85-1.37,1-1l1.86.4.86.63a2.66,2.66,0,0,0,.36,1c.36.75-1,0,.36.75a3,3,0,0,0,2.23.53,2.66,2.66,0,0,0,1-.36s.26-.37,1-.23.88-.74.88-.74l.4-1.47.25-.75,2.25-.46h1.24a.85.85,0,0,1,.49.51c.12.37.73.75.86,1.13a4.47,4.47,0,0,0,.6,1,1.24,1.24,0,0,1,.74.63c.24.5-.5,0,.24.5s1.23.89,1.85,1.27.11.38.61.39h.5l1.86,0s.26-.49.63-.49h.38l.38-.62s.5-.49,0-.74.12.25-.49-.26-1.24-.88-1.23-1.26a3.33,3.33,0,0,0-.6-1.38c-.24-.38.13-.62-.48-.88s-.87-.63-1.24-.75a14.63,14.63,0,0,1-1.84-1.53l-.85-1.38-1.1-1.26s-.86-.76-1.24-.76-2-1-2.47-1.16a3.26,3.26,0,0,1-1.1-.76l-1.35-1.26-1.11-.76a15.56,15.56,0,0,0-2-1c-.5-.13-1.86-.64-1.86-.64l-2.1-.65-1.62,0s-.24-.37-1.24-.26-1.62.22-1.62.22-.87,0-1.12.36l-.25.37Z" transform="translate(2844.78 -2009.95)"/><path class="cls-3" d="M-2223.07,2244.52l-.9,2s-.24-.62-.26.74a1.25,1.25,0,0,1-1.26,1.35l-1-.13-.49-.26h-.75l-1.13.23-.74.11-1-1.51.62-.36,1.37,0,1.24,0c.62,0,.51-.48,1-.48s1.14-1,1.14-1l.13-.62.39-.74Z" transform="translate(2844.78 -2009.95)"/><path class="cls-3" d="M-2244.68,2260.49s-.15,1.36-.16,2a7.63,7.63,0,0,1-.14,1.48,12.23,12.23,0,0,1-.54,2.61c-.25.49-1.26,1-1.26,1.35s.12.49-.63.61a12.14,12.14,0,0,1-1.62.1l-1.12,0-.35-1.12-.49-.38-.49-.51a2.57,2.57,0,0,0-.74-.51l-1.49-.51-1.48-.77-.49-.63s-.73-.75-.23-1.13a4.51,4.51,0,0,0,.88-.85,5.79,5.79,0,0,1,1.13-.73c.38-.12.36,1,1-.73l.64-1.73-.23-.63s-.62-.75-1-.51a6.36,6.36,0,0,1-2,.22l-1.12-.14-1.11-.38s1-.37-1.36-.4-3.11-.54-3.11-.17-1.25.73-1.25.73a1.37,1.37,0,0,0-.63.61c-.14.37-.5,0-.88.61s-.75.11-1,.73a1.7,1.7,0,0,1-.75.86l-.64.73a5.69,5.69,0,0,1-.14,1.13c-.13.49-.26,1-.64,1.1l-.37.12-1.86,0s.51-1.48-.36-1.62l-1.73-.27-.88.23-1.74.23s-.87.24-1,.61-1.13,1-1.14,1.72.12.13,0,.75.24.62-.63,1.35-.38.24-1.38.6a6.41,6.41,0,0,1-2.37.22l-1.25.86-.27.86-1.53,3.08-.5.12-1.13.49-.63.24s-1.87.71-1.75,1.21-.76.73-.76.73l-1.25.11-1.85,0h-1.13a2.57,2.57,0,0,0-1.25.6,14.69,14.69,0,0,0-1.39,2l-2.62.71-.88.23-.88,1.11a2.85,2.85,0,0,0-.15,1.24c.12.5-.25.62,0,1s-.35-1.12.36.88l.72,2h0a2.86,2.86,0,0,1,.47,1.5c.12.5-.39,1.24-.39,1.6s-.64,1-.27,1.49.86.27,1.23,1l.6,1.25a.52.52,0,0,1,.24.5,8.4,8.4,0,0,0,1.1,1.88s-.14,1-.16,1.74,0,1.74,0,1.74-.51.37,0,1.12a1.81,1.81,0,0,1,.23,1.49,1.2,1.2,0,0,1,0,1c-.25.48-.63.73-.64,1.35a3.14,3.14,0,0,0,1.22,1.89,7.52,7.52,0,0,0,1.47.76,3.27,3.27,0,0,1,1.13,0c.37.13.63-.49,1-.36s2.12-.59,2.49-.21a7,7,0,0,0,2.1.77l1.88-1.08.88-.61a11.63,11.63,0,0,1,1.61-.24,3.94,3.94,0,0,1,1.12.28s.36.5.74.5a3.05,3.05,0,0,0,1.12,0c.62-.11,1.74-.35,1.74-.35l.76-.73.27-1.24s.76-1.23,1.38-1.47,1.51-.6,1.51-.6a7.83,7.83,0,0,0,1.49-.11c.37-.11,1-.85,1.75-.84a9,9,0,0,1,1.86,0c.38.12.75.26,1.36.51a13.42,13.42,0,0,0,3.23.67c.74,0,1.24-.35,2-.22s-.12-.75,1.62-.1,2.35.91,2.35.91.86.75.84,1.25,0,.87,0,1.24-.26,1,.11,1.25a4.1,4.1,0,0,0,1.48.76l1,0,.5-.74.39-.73a1.35,1.35,0,0,1,.87-.12c.38.13.14-.74.38.13a3,3,0,0,1,.1,1.37s.36,1,.47,1.5,1.23,1.13,1.23,1.13l1.37.27,1,0a1.36,1.36,0,0,1,.61.62,3.65,3.65,0,0,1,.23,1,8.87,8.87,0,0,1,0,1.87c0,.62-.12-.13,0,.62s1.34,1.88,1.34,1.88l1,.27,1.25-.11,1.74-.09s-.38-.13,1,.38a6.47,6.47,0,0,0,2.6.41l1.39-1.22h.74l1,.89.86.5,1.24,0s1-1.23,1.51-1.35-1,.37.5-.11l1.5-.48c.75-.24,1.25-1,1.76-1.22s.88-1.23.88-1.23l.27-1.48.52-1.12.88-.73.39-.86a12.79,12.79,0,0,1,.15-2l.12-.37s.4-1.24.77-1.35.37.62,1-.61l1.16-2.22.4-2.36.39-1.11.42-2.86a3.09,3.09,0,0,1,0-1.61,11.3,11.3,0,0,0,.17-2.74v-1l-.35-1.37-.36-1.25a4.07,4.07,0,0,1-.85-1.26,4.86,4.86,0,0,0-1-1.37l-.85-.89-2-2.14s-1.35-1.26-1.35-1.64a17.7,17.7,0,0,0-1.08-2.62l-1.84-1.52-1.61-.39-1.95-2.64a5.34,5.34,0,0,0-.85-.89,2,2,0,0,1-.86-1.13,15.94,15.94,0,0,1-.22-1.62l-.61-1-.35-1.88-.35-1.11-.61-.89-.49-.5-.61-1-.48-1-1-.52h-.62l-1.5.47h-.5Z" transform="translate(2844.78 -2009.95)"/><path class="cls-3" d="M-2232.74,2319.58l-1,.11-2,0h-.87a.62.62,0,0,0-.75.48c-.14.63-.12-.24-.14.63s-.26,1.11-.15,1.74,0-.5.12.62-.38.24.11,1.13,1.85.51,1.85.51.14-.74.51-.73-.24-.38.38,0,1.37-.73,1.37-.73l.5-.11a.83.83,0,0,0,.5-.49,5.84,5.84,0,0,0,.15-1.24l-.35-1.37Z" transform="translate(2844.78 -2009.95)"/><path class="cls-3" d="M-2183.16,2321.17a9.31,9.31,0,0,0-.27,1.49,11.15,11.15,0,0,1-.27,1.61c-.14.75.24.63-.77,1.61a6.5,6.5,0,0,1-2,1.34s-.5.11-.63.48-.74,0-.75.62.12-.13,0,.62-.4,1.73-.4,1.73.12.25-.51.86-.26.62-1.13,1a4.8,4.8,0,0,1-.88.36,11.17,11.17,0,0,1-1.87.35l-1.74.1-1.24,0-1.37-.39a11.67,11.67,0,0,1-.22-1.5c0-.37,0-1.11,0-1.11l.64-1.24,1.13-.85a2.67,2.67,0,0,1,1-.24,17.08,17.08,0,0,0,1.88-.59,15.66,15.66,0,0,0,2.13-1.22,5.36,5.36,0,0,0,1.52-1.71c.25-.5,1.27-2.34,1.27-2.34l.76-.49s-.62-.26.62-.73l1.26-.49h.87Z" transform="translate(2844.78 -2009.95)"/><path class="cls-3" d="M-2183.19,2306.14s-.37-.13-.13.74.35.87.35,1.37-.76.61-.64,1.35a3.35,3.35,0,0,0,.6,1.38l.86.51.49.63s0,1.61,0,2a4.79,4.79,0,0,1-.14.87s-.62,0-.63.49-.38.74-.27,1.11,1.61,1.52,1.61,1.52.12-.12.11.62-.38.12,0,1.24l.36,1.12a1.75,1.75,0,0,1,.86.27,3.59,3.59,0,0,0,1.37.27.7.7,0,0,0,.87,0,2.48,2.48,0,0,0,.51-1.11l.27-1.62a2,2,0,0,1,.76-.61c.37-.11.88-1,1-1.35a13,13,0,0,0,.16-2,16.58,16.58,0,0,0,.65-2.1c.13-.37-.48-1.5-1.1-1.38a6.61,6.61,0,0,1-1.62,0l-1.84-2-1.24-.27-.73-.51-.61-1.37-.49-.38-1.85-.9" transform="translate(2844.78 -2009.95)"/><path class="cls-3" d="M-2270,2241.47l.25-.49c.25-.5.5-.12.51-.49s1.11-.11,1.61-.1a7,7,0,0,1,1.37.27l.74.14.1,1.36-.87.12-.87,0a4.83,4.83,0,0,0-1.24.35l-1.25.24-.74-.64Z" transform="translate(2844.78 -2009.95)"/><path class="cls-3" d="M-2273.48,2240.8h-.75s-1.5.35-1.38.72-.62-.25.12.38l.74.63,1,0h.87l.64-.86-.74-.76Z" transform="translate(2844.78 -2009.95)"/><path class="cls-3" d="M-2289.8,2251l-.76,1.36-1.37,0s-.59-1.87-.09-2-.63.12.49-.11,0-.38,1.13-.24S-2289.8,2251-2289.8,2251Z" transform="translate(2844.78 -2009.95)"/><path class="cls-3" d="M-2284.06,2249.85l-.75.11a3.47,3.47,0,0,1-1.37.73l-.65,1.48-1,1.23s-.51.73.11.87a2.56,2.56,0,0,0,1.37,0,5.12,5.12,0,0,0,1.37-.85l.89-1s.76-.62,1.13-.61h.37l1.13-.85.26-.61-1-.27Z" transform="translate(2844.78 -2009.95)"/><path class="cls-3" d="M-2487.67,2154.77l-1.14,1.85a6.83,6.83,0,0,1-2.49.21l-1.12-.14-.62-.38-.23-1,.38-.73.88-.12h.62l1.61,0,.75-.11.87.14Z" transform="translate(2844.78 -2009.95)"/><path class="cls-3" d="M-2499.79,2150.62a5.15,5.15,0,0,1-1.25.36c-.37,0,0,.49-.37,0a2.42,2.42,0,0,1-.35-2,3.47,3.47,0,0,0,.28-1.37l2-.71.62.37.11,1a4.41,4.41,0,0,0,.11.87C-2498.53,2149.64-2499.79,2150.62-2499.79,2150.62Z" transform="translate(2844.78 -2009.95)"/><path class="cls-3" d="M-2532.29,2119.94l-.5.12-.75.73-.75.36H-2536l-.87-.14s-.59-2.37-.21-2.49-.51.24.37-.12l.87-.35.52-1.37V2116l-.61-.5s-1.73-.9-.48-1.26.63-.36,1.25-.35,0,.5.62,0a2.79,2.79,0,0,0,.77-1.61s-.37-.37.25-.49,1.13-.48,1.75-.35l.62.14a1.14,1.14,0,0,1,.87-.12,4.24,4.24,0,0,1,.49.14c.87.26.51-.87.87.26a3.54,3.54,0,0,1,.22,2.49c-.27,1,.24.12-.27,1s-.13.37-.51.86-.36-1.25-.38.49.11,1.25,0,1.74-.75.62-.75.62Z" transform="translate(2844.78 -2009.95)"/><path class="cls-3" d="M-2524.66,2116.57l.15-1.61,0-.75-.49-.88-.61-.63-.87-.63-.11-.63s-1,.24-1.35-1-.59-2.37-.59-2.37l0-1.37-.12-.5-.61-.63-1.23-1.13v-.5l.26-.49,1.49,0c.37,0-.13.37.37,0s.51-.73.88-.85,1.75-.35,1.75-.35h.62s0,.62.49.75,1.12-.36,1.24,0,.37.25.36.87,0-.12,0,.62.12.63.73.89l.62.26s.74.38.74.75-1.27,1.72-1.27,1.72l-1.25.23s-.13.25.12.75,1.48.77,1.48.77c.48.88,1.1,1.38,1.22,1.75s.24.13.61.64.86.51,1.1,1-.62,0,.35,1.37.24,1,1,1.38,2.35.66,2.47,1.16l.11.5s.12.74.24,1.24,0,1.12.1,1.5-.27,1-.39,1.36-.76.61-.76.61,0,.12-.75.48a8.83,8.83,0,0,1-4,.69,11,11,0,0,0-2.36,0l-.5.24-1,.48-1,.73a4,4,0,0,0-1.62.1l-.37.25-.61-.51s-.24-1.25.14-1.24h.37l.88-.35.62-.74,0-.62-.5-.26-.49-.76-.11-.74.51-.86a3.6,3.6,0,0,0,.39-1.11c0-.38,0,.24,0-.38v-.62Z" transform="translate(2844.78 -2009.95)"/><path class="cls-3" d="M-2452.71,2161.87l-1.25.23h-.74l-.75-.51s-.23-1,.27-.86l.49.13s.51-.86.88-.74.88-.23.88-.23l.62-.12s.62,0,.61.38.12.5.12.88-.51.49-.51.49Z" transform="translate(2844.78 -2009.95)"/><path class="cls-3" d="M-2473.8,2038.62s-1-.27-1.36-.39a4,4,0,0,1-.86-.51l0-1.25V2036c-.86-.26-1.23-.65-1.61-.4a2.55,2.55,0,0,1-1.12.23l-.75.49a3.43,3.43,0,0,1-.51.86c-.38.49-1.37-.27-1.88.84a8.25,8.25,0,0,1-1,1.73v1l-1,.61-1.36.1h-1.25l-1.11-.27-.12-.5-.11-.87-.23-1.25-.12-.62.14-1.12s-.11-.62.26-.61h.38l.39-1.24v-1.36c-.88.11-1.37.1-1.5.6l-.13.49-2.75.71-.87,0a5,5,0,0,1-1.12-.26s-.47-1.38-.09-1.87a4.39,4.39,0,0,0,.52-1.48,4.84,4.84,0,0,0,0-1.37l-.12-.5s.26-.86.88-.85,1.12-.36,1.62-.35a7.68,7.68,0,0,1,1.87-.1c.87.14,1.74-.22,2.49-.09s1.75-.84,2.62-.83a24.68,24.68,0,0,1,3.1,0c.87.13,1.64-1.1,1.64-1.1s.38-.86,1-.86-.61-1,1.23-.1l1.86.89a7.28,7.28,0,0,0,1.85.53c.63,0,2.5-.21,2.5-.21a3.42,3.42,0,0,1,1.24,0c.62.13,2.36-.09,2.86,0a6,6,0,0,1,1,.38s.11.63.23,1.25-.27.87-.39,1.24-1,.48-1,.48l-2.61.09-1.37.47-3.24.08-1.48-.39-1.48-1.14s-1.61-.27-1.62.1v.37s-.5.24,0,.5,1.12,0,1.49.27.62.38,1.11.76.23.63,1,.76,1-.61,1.49.15.38-.25.49.75.1,1.12.47,1.5a9.7,9.7,0,0,0,1.48,1l2.11.28a.82.82,0,0,1,.86.39c.25.5-.12-.13.25.5s.37.13.36.63-.63.48-1.13.6-1.24.23-1.24.23l-1-.14-2.37.71Z" transform="translate(2844.78 -2009.95)"/><path class="cls-3" d="M-2419.06,2027.11a.77.77,0,0,1-.51.86,4.24,4.24,0,0,1-1.37.23l-1-.14-1.49-.39-.61-.63,0-1.25-.61-.51a3.42,3.42,0,0,1,1.37-.6l2.24-.34s2.37-.34,2.61,0,0,.49.12.87S-2419.06,2027.11-2419.06,2027.11Z" transform="translate(2844.78 -2009.95)"/><path class="cls-3" d="M-2405.6,2025.06l-1.85-1s-.49-.5-.63,0-.62.62-.38,1.12-.25,0,.24.5l.49.5a1.23,1.23,0,0,1,.11,1.12c-.26.62-1.15,2.1-.54,2.36s.63-.25,1.37-.11a4.21,4.21,0,0,0,1.62-.1s.26-.74.63-.36a1,1,0,0,0,.87.26s0,.5.49,0a2.16,2.16,0,0,0,.52-1.36s.51-1,0-1.37,0-.5-1-.51a6.53,6.53,0,0,0-1.49.1Z" transform="translate(2844.78 -2009.95)"/><path class="cls-3" d="M-2389.47,2026.79c-1.25.6-.5.49-1.25.6a13.59,13.59,0,0,1-2.36,0l-1,0-1,.12-1.37.22-1.12.11-1.37-.27-.61-.38-.49-.38.26-.87.63-.36s-1-.51.5-.86a12.48,12.48,0,0,1,2-.47,9,9,0,0,1,1.87-.22,10.94,10.94,0,0,0,2.24-.09l1.5-.23a10.68,10.68,0,0,1,1.11-.11,9.81,9.81,0,0,1,1.37.27,2.6,2.6,0,0,1,.23,1.25C-2388.34,2025.94-2389.47,2026.79-2389.47,2026.79Z" transform="translate(2844.78 -2009.95)"/><path class="cls-3" d="M-2381.75,2043.44a2.76,2.76,0,0,1-.39,1s-.13.38-.88.74a10.58,10.58,0,0,1-3,.33h-.87l-1.12.23s-.49-.38-1,.35l-.51.75-.76.6s-2.11.1-2.48.09-3.11.21-3.11.21l-1.25.6-1.39,1.22s-1.65,2.09-1.9,2.46-.5.12-.75.49-1,.11-1.13.6-1.63,1-1.76,1.34-1.13.86-1.13.86l-.75.36a.67.67,0,0,0-.75.36c-.26.5-.13.13-.76.86s-.12-.13-.63.74-.12-.25-.51.86a2.53,2.53,0,0,0-.16,2.11l.23,1.12,1.48,1.39s.1,1.37.47,1.63.25,0,.37.25-.14.87-.14.87l-1.12.36-1,.1-1.73-.39-2.22-1.28a2.4,2.4,0,0,0-1.74-.52l-1.11,0-.74-.38s.22,1.24-.12-.5-.46-2.74-.46-2.74.14-1.25.52-1.24.39-1,.76-1,.37-.37.88-.61l.5-.24c1-.49,1.89-1.71,2.64-2.2s.89-1.11,1.39-1.47,1.28-2.84,1.28-2.84a6.6,6.6,0,0,1,1-1c.51-.37.26-.87,1.13-.86s0,.5.87,0,1.63-.84,1.63-.84l1.13-.48a5.68,5.68,0,0,1,1.76-1.22,2.92,2.92,0,0,0,1.25-.6,1.62,1.62,0,0,1,1-.36c.37,0,1.25-.48,1.62-.35a4.84,4.84,0,0,0,1.37,0,22.7,22.7,0,0,1,2.74-.58c.5,0,.75-.61,1.38-.6s1.12-.61,1.5-.73l.37-.12.51-.73,2.36,0,.62-.12,2.74-.33a1.7,1.7,0,0,1,.87,0C-2382.23,2042.19-2381.75,2043.44-2381.75,2043.44Z" transform="translate(2844.78 -2009.95)"/><path class="cls-3" d="M-2420.08,2071.72s0-.25-1,.24l-1,.48-1-.26-.11-1,.26-.74.38-.49s-.36-.63.14-.75a11.6,11.6,0,0,0,1.12-.36l1.35.65A5.79,5.79,0,0,1-2420.08,2071.72Z" transform="translate(2844.78 -2009.95)"/><path class="cls-3" d="M-2311.81,2037.86l-1.87.47-2,0-1.74.1s-1.73-.39-1.74,0-1,.11-1.5.47-.74-.13-1,.24-1,.36-1,.36-1-.14-.86-.64a2.86,2.86,0,0,1,.64-1.36,7.51,7.51,0,0,1,1.51-.85l.39-1.48.76-.61.62-.37s-.11-.74,1-1a22.2,22.2,0,0,1,2.62-.34s.13-.37.74,0,.13-.37.62.38l.48.76,1,.76.87.26.49.5s-.12-.75.24.63S-2311.81,2037.86-2311.81,2037.86Z" transform="translate(2844.78 -2009.95)"/><path class="cls-3" d="M-2324.57,2034.82a15.8,15.8,0,0,1-2.24.21,6.71,6.71,0,0,1-1.74,0,5.73,5.73,0,0,0-1.49,0,1.35,1.35,0,0,1-.87-.14l-1.49,0h-.62l-.37-.5-.35-1v-.62l.39-1,.38-.87,0-.62-.87-.26s-1,.48-1,.86.5-.12,0,.37.12-.25-.5.49-1.14.73-1.14.73l-1-.27-.11-.87v-1l0-1.12a.72.72,0,0,1,.26-.74c.38-.24.9-2,.9-2l.89-1.6c1.12,0,2.62-.33,3.12-.33s.75-.49,1.25-.48,1.86.15,1.86.15l1,1a8.72,8.72,0,0,1,.23,1,5.34,5.34,0,0,1-.27,1.86l-.76.73,1.36.77a4.85,4.85,0,0,1,1,.14l1.61.4s1-.24,1.11.51-.12-.12.11.75l.24.87-.14,1.12A1.94,1.94,0,0,1-2324.57,2034.82Z" transform="translate(2844.78 -2009.95)"/><path class="cls-3" d="M-2242.41,2052.42l-1.37,0s-.62.24-.75.61-.13.62-.26,1.11-.76.62-.76.62l-.87.11-.86-.63-.23-1.13-1.48-.77-.73-1.13v-.62l0-1.86.39-.74,1.86-.22,2,.28s.87.13,1.37.14.76-1,2.11-.59,1-.48,1.37.39a6,6,0,0,1,.6,1.75c.23,1.12.61.14.23,1.12l-.39,1Z" transform="translate(2844.78 -2009.95)"/><path class="cls-3" d="M-2237.14,2049.27c-.37.12-1.24.1-1.13.6s-.25.49.11,1.37,0,.87.35,1.37.86.89,1.49.65l.62-.24a4.94,4.94,0,0,1,1.25-.23c.49,0,.75-.74.75-.74v-.87l0-.75v-.74a1.89,1.89,0,0,0-.86-.39h-.37l-1,0Z" transform="translate(2844.78 -2009.95)"/><path class="cls-3" d="M-2228.94,2050a10.34,10.34,0,0,0-2,0c-.38.12-.12-.5-.38.12s-.12-.38-.26.62-.38,1,0,1.49.74.25,1,.76-.49-.51.24.5a2.1,2.1,0,0,0,2,.77s1.13-.23,1.5,0-1,.74.36.25,1.39-1.46,1.39-1.46l.15-1.12s0-1-.74-.88a10.63,10.63,0,0,1-1.49.1s-1.25.36-1.37,0S-2228.94,2050-2228.94,2050Z" transform="translate(2844.78 -2009.95)"/><path class="cls-3" d="M-2238.89,2058.81l-.51.37-1.24.35-.75-.13-.86-.14-.5-.38-.49-.63-.24-.75s-.11-.62.26-.62a1.85,1.85,0,0,0,.88-.36l.75-.23,1.11.26a1.7,1.7,0,0,1,.87,0c.5.14,1-.35,1.24,0s.26-.37.25.38A4.6,4.6,0,0,1-2238.89,2058.81Z" transform="translate(2844.78 -2009.95)"/><path class="cls-3" d="M-2367.9,2061.71a1.8,1.8,0,0,0-.28.11Z" transform="translate(2844.78 -2009.95)"/><path class="cls-3" d="M-2367.81,2061.66l-.09.05Z" transform="translate(2844.78 -2009.95)"/><path class="cls-3" d="M-2368.18,2061.82Z" transform="translate(2844.78 -2009.95)"/><path class="cls-3" d="M-2148.67,2083.41l-.66-.17a3.88,3.88,0,0,0-1.49,0l-2.16,0c-.49,0-1.5.65-2,.47a7.67,7.67,0,0,1-.83-.34,4.77,4.77,0,0,1-1.63-1c-1-.84,0,0-.16-.5a7.81,7.81,0,0,0-1-1.5l-.48-1.34-1.64-.85-.65-.67-1.65-.69-.16-.5c-.16-.5-2.48-1-2.48-1a4.5,4.5,0,0,1-1.47-1c-.33-.5-1.81-.53-1.81-.53a11.28,11.28,0,0,1-3.14-.87c-.65-.51-.83,0-1.49,0l-1.66,0-1.82,0a16.2,16.2,0,0,1-2-.37l-2.64-.7-2.49.3-1,.32-.36,2.48-.67.15s-1.82-.19-2.14-1,0,0,.19-1.33l-.31-1.66-2.32,0a16.86,16.86,0,0,1-2.33.63c-1.5.31,0,0-1,.31a4.67,4.67,0,0,1-2.16.14l-1.16,0s-1.49,0-4.47-.23-1.82-.19-2.48-.53-.65-.67-1.47-1.52-.81-1.17-.81-1.17l-.66-.51-3.8,0-1.67,0a5.71,5.71,0,0,1-2.47-.54c-.66-.5-2,0-3.14-.54a7.72,7.72,0,0,1-1.65-.85c-.49-.34-1-.18-2.14-1s0,0-.65-.34a6.15,6.15,0,0,0-2.32-.2,6.13,6.13,0,0,1-2.15-.37l-.49-.33c-.5-.34-.83-.18-2-.86s-1.33,0-2-.86-1.49-.18-2-.36a7.6,7.6,0,0,0-2-.19c-.66,0-1.17.31-1.66.31s-2-.2-2.65-.21l-2.32,0c-1,0-2.51,1.45-2.51,1.45h-.49c-.5,0-.51.82-.51.82l-.52,1.15-1.32,0-1.83,0-2.48,0-.85,1a9.61,9.61,0,0,1-1.32.15l-2.16,0a2.08,2.08,0,0,1-1.14-1.18c-.48-1,0,0,0-.5s-1-.35-1-.35h-1.33l-.84.65-.69,1.65-1.16,0s-1.48-.35-2-.53a2.8,2.8,0,0,1-1.64-1.52,4.53,4.53,0,0,1-.3-2.32c0-1.33-.15-1.33-.15-1.33l-.65-.83-1.64-.86-.83-.34-2.14-.53-3.31-.21-.84.48-1.34,1.31-.5-.18c-.49-.17-1.49.15-2,0a7.75,7.75,0,0,1-1.81-.53,13.32,13.32,0,0,0-1.81-.85l-.5-.51c-.48-.5-.65-.34-1.31-.51s-.83.15-1.33,0a1.7,1.7,0,0,0-1,0l-1.16,0-1.66.15-1.16,0-1.33,0a3.61,3.61,0,0,1-1.48-.52,4.12,4.12,0,0,1-2-.52c-.66-.51-2.82-.21-2.82-.21l-.49-.34a.64.64,0,0,0-.83,0l-1.33.48s-1.84,1-2.68,1.45a13.33,13.33,0,0,0-2.15.13,3.36,3.36,0,0,0-1.34.65,3.73,3.73,0,0,1-2,1,7.44,7.44,0,0,1-1.49-.18c-1.49-.19-1.15-.52-1.15-.52l.67-.82s2.33-.46,2.67-.95,1.17-.65,1.67-1,.66,0,1-.49,2.5-1.12,2.69-2.44l1.16,0,2,0,2.15,0,2.67-.95.18-1.16a3.31,3.31,0,0,0-.14-1.66,5,5,0,0,1-.31-1.33l-.63-2.16-1.82-.53-1.81-.69h-1c-1,0,0,0-.49-.17s-1.17.31-1.83.14-1.48-.36-1.48-.36a15.55,15.55,0,0,1-2.32-.2,8.67,8.67,0,0,1-2.15,0c-.5-.17-.84,0-1.16-.51a4.5,4.5,0,0,1-.13-2l-1.16-.19-3,.13-2.16-.2a10,10,0,0,1-2-.2c-.49-.17-.53,2.48-.53,2.48v.83l-.34.66s-.84.48-1.34.81a9.26,9.26,0,0,1-1.33.64l-1.83.31-2.83.45-.49-.17a13.93,13.93,0,0,0-2.32-.2h-1.16l-1.16.15-2.33.62-2.33.63-2.66.63-2,.13h-.5a15.81,15.81,0,0,0-2.83,1.12l-1.5.64s-.52,1.31-1,1.31-1,1.48-1,1.48l-1,.31a6.94,6.94,0,0,1-1.84.64c-.49,0-.84,1-1.67,1.13a19,19,0,0,1-3,.13l-.83,0-1,.16-.34.82-.52,1.65,0,1-.18,1.16-.19,1.49-.34.66-2.63-1.2-.15-1.16-.82-.51-1.66,0h-.83l-.86,1.81-1.17.48v.5a2.11,2.11,0,0,1-.35,1l-1.64-.52a9.52,9.52,0,0,1-.48-1.83c-.15-1,.18-1.16.2-1.82a2.55,2.55,0,0,0-.16-1l-.85,1.31a5,5,0,0,1-1.67,1.31c-.67.15-1,1.64-1,1.64l-.35.82,0,2.33,1.48,1.34.65.51.15,1-.34,1-.19,1.5h.66l1.15.51-.17.83-.35,1.15-1,2-.68,1-.51.82-.5.32a6.2,6.2,0,0,0-1.19,1.81l-1,.65-1.5.81-.52.82s-.67.48-1.16.31a1.13,1.13,0,0,1-.65-.67l.5-.82,1.51-1.14a3.64,3.64,0,0,0,1.52-1.31,7.75,7.75,0,0,0,.85-2,7.06,7.06,0,0,1,.35-1.49l-.15-.83-.15-1.16-.31-1.83.36-1.65-.8-1.84c-.8-1.83.36-1.48.36-2s-.8-2-.79-2.5a4.54,4.54,0,0,1,.35-1.32s.67-.66.51-1.15.19-1-.14-1.5a1.07,1.07,0,0,0-.82-.51l-2.65,0-1,.49a7.82,7.82,0,0,1-1.34.48c-.66.15-.51,1-.51,1s-.84,1.15-1.69,2.13,0,0-1,.32l-.85,1.81-.86,1.65.14,2.16,1,.51.31,1.49.47,1.17.49.67,1.65.69.15,1-.17.66-1.82-.35a3.41,3.41,0,0,1-1.49-.36,3.37,3.37,0,0,1-1.14-1,6.88,6.88,0,0,0-.65-.84l-1-1a8.48,8.48,0,0,1-1.49-.69c-.48-.34-1.81-.19-2.8-.87h-1l-1.16-.19-1.66-.19s-1.65-.52-2.31-.69a1.16,1.16,0,0,1-.82-.68H-2401l-.34,1.15,1.14.84,1,1v1l-.51.66-1.16.14-1.33.32-1.33,0-1.82.14-2,.46-1,.15-1.17.16-1.16-.19-1.48-.68-.49-.51c-.48-.5-.66,0-.66,0s-1.49.15-3,.46-1,1-1,1l-2.84,1.28-.83.49s-1.51,1-2.18,1.46a1.44,1.44,0,0,1-1.48,0l-.85,1s-1.32-.36-1.82-.53-1-1.34-1-1.34l-.16-.5c-.16-.5,1.33,0,1.33,0l2.5-1.28s-3.31-.22-3.8-.39-1.17.15-1.83,0-1,.65-1,.65l-.51,1.32s-.18,1.32-.36,2.31a20.57,20.57,0,0,1-.7,2.48,8.07,8.07,0,0,1-1.65-.69c-.5-.34-1,.32-1,.32l-.51.49a11.28,11.28,0,0,1-1.17,1l-.83.15-.67.32-.18,1-.51,1.16-1.18,1.14-1.16-.18-1.31-.69-.82-.51-1.16-.18c-1.16-.18-.84.65-.84.65l.15,1.5,1.8,1.35-2.65-.2a6.09,6.09,0,0,1-2-1.53c-.81-1,0,0,0-.49a8.37,8.37,0,0,0-.15-1.33l0-1.16,0-1-2.3-1.86h.5a1,1,0,0,1,.31,0c.29.09.47.25.85.13a7.62,7.62,0,0,1,2.31.36,7.55,7.55,0,0,0,2.16-.46.93.93,0,0,1,1,0l1.15.35,2.48.37,2-1,.69-2a7.5,7.5,0,0,0-.79-2.16c-.49-.67-1.32-.52-1.82-.69a11.45,11.45,0,0,1-1.81-1.19l-1.81-1-1.15-.68-1.65-.52-1.31-.51-2.31-.87-1-.67a11.46,11.46,0,0,0-2.15-.7,10.17,10.17,0,0,1-2-.86,6,6,0,0,1-2-1.35l-1.82-.36-3.47-.22-3.14-.54h-.67l-2,.14s-1.82.14-2.32.13-1.51.81-1.51.81l-1.32,0h-.67l-1.66.31-.83.15-1.17.81s-1.17,1-1.67,1a7.92,7.92,0,0,0-2,.8l-1.5.64-.84.65-1.17.81-1,1.65-.34.66-1.85,2-1,.81a11.39,11.39,0,0,1-1.84,1.47c-.67.32-.69,1.64-1.19,2s-.52,1.33-.52,1.33l-.85,1.64a12.72,12.72,0,0,1-2,1.46c-.5.16-1,1.64-1.86,2s0,0-1.16.31-.67.82-1.18,1.14a6.51,6.51,0,0,1-2,.47l-1.18,1-.67.65-.84,1-.67.49-1,1.48-.68,1.65a6.55,6.55,0,0,1,.3,2.16,6.34,6.34,0,0,0,.3,2.16l0,.82.49.67.65.84.31,1.5.64,1.83h.83l1.82-.3,1-.82.84-.48.34-.66.51-.82,1.16-.31.67-.16,1,.18.14,1.66.65,1.17.65,1,.82.68,1.13,1.67-.19,1.32.31,1.83,1.65.69,1.32-.15,1-.81,1.34-.64s1-.65,1.17-1.15.67-.15.67-.65l0-1,1.19-2,.51-1.15s.67-.66.69-1.15.83-.65.84-1.15.67-.82.67-.82l.2-2.32v-.82l-.65-.18-1.33-.19-.65-.5v-1.16l.19-1.16,1.51-1.63s.83-.16,1-.65,1-.65,1.52-1.8,0,0,.51-.66,1-.65,1-1.31,1-1,1-1l.35-1.65.17-.83a1.23,1.23,0,0,1,.68-1l1.34-1.14,1-.32.83-.49,1.33-.14a2.15,2.15,0,0,0,1.32.18,2.76,2.76,0,0,1,1.65.53v1l-.35,1.32-.35,1.15-.34.83-.51.82a7.51,7.51,0,0,1-2,1,6.33,6.33,0,0,0-1.83.8s-.34.66-.83.65,0,1,0,1l-.19,1.82.14,1.66-.52,1.82.64,1.83.65.51,1.33,0,1.15.67,1.65.19,1.5-.14,1.16-.31,1-.49h.84l2.15,0,1.65.19.33.66-.7,1.49-1,0-.67.32-2,.14-2,.31-1.66.3-.51.66-.17,1-.69,1.15-.85,1.48-1.16.31h-.83l-1.5.31-.51,1-.51.83-.18,1-.69,1.64-.84,1.16-2.49.79-3.17.78h-.66a4.57,4.57,0,0,1-1.83.14c-.65-.17-1.5.48-2,.3a1.31,1.31,0,0,0-1,.15l-1.32-.18-1.82-.52a10.64,10.64,0,0,1-2-.2,1.78,1.78,0,0,0-1,0l-1.32,0-.49-1,1.85-1.13-.49-1-1-.68v-.82l-.81-1.84-.31-1.17-.82-.17-.68,1-1.17.48-.51.83-.19,1.48v1.49l.3,1.67-.19,1.32-.35,1.82-1.33.31h-.5c-.49,0-.67.33-1.16.15a1.78,1.78,0,0,0-1,0l-2.49.62a2.09,2.09,0,0,1-.68,1.15,1.3,1.3,0,0,0-.51,1l-.35,1.16a6.28,6.28,0,0,1-1.51,1.3c-.5.16-1.17.48-1.67.64s-1,1-1,1l-.68,1.31-.67.65a8.89,8.89,0,0,1-1.83.65,3.39,3.39,0,0,0-1.51.8l-.67.49-1.16.15-.84.65-1.67.8h-1.32l-2.65.12-1.18,1,.32.66.66.51.65.51.66.18,1.32.34,1,.19a24.93,24.93,0,0,0,2.13,1.85c1.48,1.18.32.83.32.83a3.18,3.18,0,0,1,0,1.33,1.74,1.74,0,0,0,0,1,17.71,17.71,0,0,1-.36,2.15c-.18.5-.53,1.82-.53,1.82l-.66.16c-.67.15-.66,0-.66,0a2.67,2.67,0,0,1-1.18.49l-1.15,0-1.16,0-2.16,0c-.66,0-1.16-.18-1.66-.19a.74.74,0,0,1-.65-.51l-1-.18h-.83l-1,.32-1,.48-.18,1-.19,1.82-.52,1-.34,1,.31,1.83.14,1.49s-.19,1.82-.2,2.32a6.41,6.41,0,0,0,.15,1.16l.14,1.83,2.47,1,2.32.36,1.82-.14,2.16-.3,1.49.19a7,7,0,0,0,1.66-.47,2.44,2.44,0,0,1,1-.32l.67-.16,1.67-1.14.67-.31.67-.66,1.18-1.14v-1a4.48,4.48,0,0,1,.35-1.49l.84-.15.67-.82.18-1,.68-.65,2-.63,1-1.32.67-.48.34-.83.51-.65.17-.66.68-.82,1,.35h.66l.32.83.65.51.83.34.66-.16.67-.16,1.17-1,.85-1,.66-.49.85-.65.82.18h.83l.66.34.66.34,1,.68,1.14,1.17.32,1,1,1,.81,1,1,1.18.66.33,1.15.68,1.64,1,1,.35.15.83.31.83.32.84.15,1.16.83.51.66.17,1-.48,0-1.32v-1.33c0-.23,0-.37,0-.47v-.15s0,0,0,0c0-.67,0,0-.15-.67s.67-.49.67-.49l.84-.81-.48-1.17-.66-.18-.82-.34-.66-.17-.66-.35-1.31-1.17-.49-.34a3.3,3.3,0,0,1-.82-.84l-2-1.69-1.32-1a6.06,6.06,0,0,1-.79-1.84v-.83l.51-.82s2,.53,2.48.7a1.61,1.61,0,0,1,.65.34l.82.68.66.67,1.65.85,1.14.85.82.84,1.81,1,1,1.5.48,1.17.81,1.18.48,1,.49,1.16.14,1.33.32.84,1,1,.48.84,1,.84.65.84,0,1,.32,1.49.82.35h1.16l1.5-.64.33-.5c.35-.48,0,0,.68-.48l.51-.82v-1l0-1.17-.32-.83v-.83c0-.83,0,0-.15-.83l.18-1.15.67-.66,2.48.37.82.84.15.83.47,2,.31,1.17.82,1.17,1,.68.16.66,1.16.35a10.45,10.45,0,0,0,2,.69c1.32.36,1.33.19,1.33.19l1.65,0a4.26,4.26,0,0,0,1.5,0,1.7,1.7,0,0,1,1,0l1.66-.14,1.32,0a4.23,4.23,0,0,0,1.5,0,.91.91,0,0,1,1,.51l1,1.18,1.49.51v.67l0,1.16-.67.65-.85.65-.34.66a5.18,5.18,0,0,0-.67,1.15c-.18.5,0,1.32-.2,1.82a5.29,5.29,0,0,0,0,1.65l-.51,1-1,.48-2.16.3-1.33,0c-1.32,0,0,0-.83-.18a.83.83,0,0,0-1,.65s-2.16.3-3,.45a5,5,0,0,1-1.66,0,22.64,22.64,0,0,0-2.48-.37,4.91,4.91,0,0,1-1.48-.35l-.82-.35-1.83-.36-1.81-.85-1.32-.19a9.12,9.12,0,0,1-2.48-.53c-.49-.34-2,0-2,0a13.15,13.15,0,0,1-1.84.31c-.49,0-.34,1-.34,1s-.85,1.48-1.85,1.63a12.27,12.27,0,0,1-2.81-.37c-.5,0-.66-.18-1.32-.52a11.31,11.31,0,0,0-1.15-.52l-1.64-.69a2.38,2.38,0,0,1-1.33-.51,4,4,0,0,0-1.31-.68l-1.32-.51s-1.32-.36-1.82-.53a1.13,1.13,0,0,1-.65-.67l-.82-.68h-.66l-.82-.5-.65-.84a13.87,13.87,0,0,1-.64-1.51,1.7,1.7,0,0,1,0-1l.35-2.15-.14-1.33c-.15-1.32,0,0-.49-.67l-2.16.14-1.15,0h-1.17l-2.15-.2-1.16,0-.83-.18h-1.16l-2.15,0h-.83l-1.49,0-1.49,0-1,.48-.68.82-1,.15-1.34.48-1.16.15-.67.15-.83.66-2.17.46-.83.15-1.84,1.3-2.14-.86-1.49,0-.67.65-1.34.48a3.27,3.27,0,0,1-1.33.65c-.51,0-1,1.14-1,1.14l-1,.16c-1,.15,0,0-.5.15a1.77,1.77,0,0,0-.67.33l-.34,1-.52,1-.67.82-.52,1.65-.35,1.48-.7,1.82-.83.82-1.18.81-.67.48-1.67,1.31-.67.32s-.51.65-.85,1.15a6.86,6.86,0,0,0-.5.82,22.25,22.25,0,0,1-.87,2.31c-.51,1.15,0,0-.5.15s-.67.82-1.17,1-.67.32-1.67,1.14l-.85,1.31-.7,2.31-.68,1.48,0,1.83v.82l0,2,.29,2.49,0,1.66a6.78,6.78,0,0,1-.2,2.48,1.21,1.21,0,0,0-.18,1l-.37,2.48-.36,1.82.64,1.83.31,1.5,1.81,1.19.81.84,1.13,2,1.47,1.35.65.84,1.48,1.18,1.31,1,1,1.34,2.13,1.35.64,1.51,2,1.85,1.15,1.17,2,0c1.33,0,1.17-.15,2.17-.63l.67-.32,1.32-.32h.67l1,0h1l1,.35,1.82,0,1-.15a13.69,13.69,0,0,0,2.32-.3c1.66-.3,1.17-.32,1.84-.81a5.93,5.93,0,0,0,1.34-1.13,1.78,1.78,0,0,1,.84-.66l.66-.15,1.66,0,1.49.36,1.15.34,1,.18,1.15.35,1,1,1,1.18,1.15.51.82.34,2,.36h.83l1.48.52.15,1a5.35,5.35,0,0,1,0,1.66c-.18.49.15.83,0,1.65a7.6,7.6,0,0,0,0,2l-.18,1.66-.2,2,0,1.33.32,1.16.81,1.18.81.67,1,.18,1.47,1.68.65,1.17.64.84a5.42,5.42,0,0,1,1,2.83c.29,2.16,0,0,.31,1.17s-.36,1.48-.36,1.48,0,.83,0,1.33,1.14,1.51,1.14,1.51l.82.67.15,1.16-.35,1-.51.81a4,4,0,0,1-.86,2c-.67.66,0,0-.51.82,0,0,0,1,0,1.49s-.84,1-.84,1a6.09,6.09,0,0,1-.86,2.14c-.5.48,0,.82,0,.82l.31,1.67a17.6,17.6,0,0,1,.11,3.48l.8,1.84-.2,2.31.31,1.17,1.31,1.68,1.31,1.17s.64,1.17,1,1.84.16.83.16.83l-.19,1.33,0,1.81.15,1.67,1.46,1.84.65,1.5.65.84.48.83,1.13,2.18.31,1.49.48,1.17,1,1.84.64,1,.31,1.65v1.17l.15,1,.47,1.67h1.82l1.16,0,1.17,0,1.32-.15.67-.32a2.06,2.06,0,0,1,1.33-.15l1.49-.14,2,0,2.32-.3,3.17-.79,2-1A3,3,0,0,0-2464,2297c.18-.82.67-.65.67-.65l.67-.66a4.79,4.79,0,0,0,1.67-1c.68-.65,1-.65,1-1.14a.73.73,0,0,1,.5-.66s.51-1,.69-1.48a.72.72,0,0,1,.67-.49l.84-1c.84-1,0,0,.18-.48s.18-1.5.36-2.49a4.72,4.72,0,0,0,0-1.49c0-.66.51-1.32.52-1.82s1.66-.8,1.66-.8l.67-.16.67-.15,1.17-1.15-.16-.49c-.15-.51.18-.67,0-1.17s.18-.65,0-1.65.18-.67,0-1.49.17-.66,0-2.16a4.73,4.73,0,0,1,.53-2.64v-.67s1.35-1.3,2-1.79l2-1.63,1-.48.67-.48,1.17-.32,1-.48,1-.49.85-1.32a12.75,12.75,0,0,0,.54-2.47,14.81,14.81,0,0,0,0-2.65c-.15-.67.18-.83,0-1.49s.2-2,0-2.49a7.56,7.56,0,0,1,0-2s-1-1.68-1.3-2.18,0-1.16-.3-1.83.18-.83-.14-2,.18-.83,0-2.32a8.2,8.2,0,0,1,0-2.32l.69-2,.52-1.65,1.69-2,1.69-1.8s1-.48,1.16-1,1-.65,1.35-1.14a3,3,0,0,1,1.17-.81l2-1.62,1.35-1.32,1-1,2.5-1.29,2.36-2.46,1-1.64.18-1.16,1.18-1.64.35-.82,1.71-3.79a6.27,6.27,0,0,0,.19-2,1.25,1.25,0,0,1,.19-1l.18-1.15-2.16.63-1.5,0-1.33.14a15.52,15.52,0,0,1-2.32-.2c-.82-.17-.66,0-.66,0l-1.82.14-.67.16-1.66,0a2,2,0,0,1-1.31-.68,4.45,4.45,0,0,1-1.31-1.18c-.65-.84,0,0-.32-.66a14.25,14.25,0,0,1-.8-1.68c-.16-.5-1.8-1.68-1.8-1.68l-1.32-.51-1-1.51-1-.68-1.31-1.18s-.81-1.5-1.13-2.17a7.53,7.53,0,0,1-.47-1.83l-.79-2.33-1-1.84-.46-2.49-.64-1.67-.82-.84-1.78-2.35-.82-.83-1-.52s-.3-1.82-.47-2.32a3.24,3.24,0,0,1,.19-1.49,6,6,0,0,0-.3-2.16c-.32-.5,0-.66,0-.66a3.28,3.28,0,0,0,0-1.33c-.16-.5.51-1,.51-1l1.16,0,1.16.18,1.14,1,.49,1,.48,1,.65.83,0,1.16V2183l1.61,2.84,1.28,3,2,2.18,2,1.68.3,2,.8,1.83,1.3,1.51,1.81,1.69.47,1.33.14,2.16.15,1.32.47,1.17.49.67,1.32.68.82.18,1.65,0,1.34-.16,1.66-.13a2.6,2.6,0,0,0,1.66-.64,2.91,2.91,0,0,1,1.84-.64l1-.15a1.77,1.77,0,0,0,1.16-.48c.51-.49,1-.48,1.51-1.3a5.33,5.33,0,0,1,1.85-1.47l1-.49,2.66-.62,1.84-.8a11,11,0,0,0,2-2.29c.51-1,0,0,.33-.49s1.5-.31,1.5-.31l1.34-.81.67-.49s2-1,2.17-1.46.51-.66.85-1.48.85-1,1-1.64a8.76,8.76,0,0,0-.14-2.33l-.15-.82c-.16-.83,0,0-.33-.51a6.13,6.13,0,0,0-.65-.83,5.62,5.62,0,0,0-1.65-.69c-.49,0-1.63-1-2.13-1.52s0,0-.15-.84-1.32-.84-1.32-.84l-1.49-.36H-2412l-.83,0-.84.66-.67.65-.84.15-1.31-.68a2.83,2.83,0,0,0-1-.85c-.5-.17-1.32-.68-2.45-2.85s0,0-.49-.17-.66-.67-1-1.18-1-1.83-1-1.83-.48-.84-.81-1.34a8.51,8.51,0,0,1-.63-1.83l.35-1.33,1,0,2.32.53,1,1.34.65.84.65,1.17,1,1.84.66.5,1.48,1,2.81.21,1.66.19,1.49.18,1,.68,1,.68,1.31.85,1.15.34,1.16.35,1.49.52,1.48.35,2.49,0,3.81.06,1.32-.14,1.5,0,2.15.2,1.48.85,1.29,2,1,1.18,1.64,1.35a8.23,8.23,0,0,1,1.46,2.34c.64,1.5,1,.67,1,.67l1.67-.3.67-1,1.16-.15v.67l.62,2.66a17.75,17.75,0,0,1,.79,2.66c0,.5-.2,2.32-.21,2.82a3.8,3.8,0,0,0,.48,1.33l.32.83,1.44,3.34.82.84a7.88,7.88,0,0,1-.19,1.66c-.17.49.31,1.16.31,1.16l.65,1.17.8,2a5.08,5.08,0,0,1,.3,2.16c-.18.83,2,1.69,2,1.69a3.19,3.19,0,0,0,1.16.34l1.49,0,.66-.16,1.18-1.15s1.35-1.63,1.36-2.3.34-.65.35-1.15,0-1.16,0-1.82.34-.66.34-.66a9.62,9.62,0,0,0,.85-1.31,13.23,13.23,0,0,0,.68-1.82l0-1.32,0-1.66,1.16-.31a31,31,0,0,0,2.69-2.12c.83-.82,0,0,.17-.66s1.69-2,1.69-2.46,1.84-1,1.84-1l.84-.82,3-2.44s1-.48,3-1.61c1-.57,1.34-.78,1.43-.83l2.4-.61,2,.2,1.15.51,1.32.52,1.29,2.17,1.11,3.66.13,2.49,0,2,1.63,2.34,1.83-.47.34-.82,1.17-.81,1.66-.14.81,1.5,1.63,1.68,0,1-.34,1.16,0,2.15.47,1.66,0,1.67-.05,2.81a8.24,8.24,0,0,1-.7,2.81,1.55,1.55,0,0,0,1,2.17l.16.66,1.31,1v.66l.48,1.17.48,1.33.8,1.67.49,1a17.19,17.19,0,0,0,2.31.7c1.48.35.48.67.48.67l1.32.85a3.25,3.25,0,0,0,1.15.35c.5,0,1-1,1-1l-.15-.83c-.16-.83.18-.82,0-1.66s-.48-1-.48-1l-.82-.84-1.31-1.18-1.95-1.85a4.1,4.1,0,0,1-1.15-1.51,5.12,5.12,0,0,0-1-2.17,2.41,2.41,0,0,1-.47-1.49,4.61,4.61,0,0,0-.14-2c-.32-1,.18-1-.15-1.5s0-2,0-2l.69-1.64h1.16l.66.35,1,1.17,1,.18.48.67.65,1,2.47,1.52.82.84,0,1.16,1.81,1s2.67-1.78,2.85-2.94l1.85-1.47,1.67-.63.18-1.33.36-1.65a4.58,4.58,0,0,1,.17-.66,6.16,6.16,0,0,0,0-2.49c-.15-1,.18-1,0-1.49s-.82-.67-1.31-1.18.18-.66,0-1.16a3.11,3.11,0,0,0-.65-1l-.65-.68-1.14-1.5-1.79-2.18,1.2-2.64,1-.15a5.83,5.83,0,0,0,1.67-.31c1-.32.83-.15.84-1s.66-.32.66-.32l.83-.32.66.67,1,1.17,1.16-.14,1-.81.84-1.15a3,3,0,0,1,1.84-.8c1,0,.66-.16.66-.16l.84-.49,1.34-.81.83-.15,2.15-.13,1.34-.48.84-1v-.49c0-.5,1.67-1.14,1.85-1.8s1-1,1-1,.67-.82,1.67-1.8a11.15,11.15,0,0,0,1.7-2.12l1.51-1.14a6.76,6.76,0,0,0,.52-1.49,1.9,1.9,0,0,0,0-1.16,7,7,0,0,0,.22-4c-.46-2.5.52-1.32.7-1.81a1.78,1.78,0,0,0,0-1s-.63-2.17-.79-2.66,0-.67-.15-1.17a3.48,3.48,0,0,1-.15-1l-.83-.34c-.82-.34,0,0-.49-.16s-1.81-1-2-1.53,2.16-.63,2.16-.63l.18-1.16,1.17-.32a4.82,4.82,0,0,0,2.65-.45c1-.65,0,0,0-.5a5.87,5.87,0,0,0-.13-2.32c-.32-1,0,0-.32-.67s-1-.34-1.49-.35a13.24,13.24,0,0,1-1.49-.19l-1.16,0-2.48,0c-1.33,0,0,0-1.49-.52s0,0-.16-.33,0,0-.31-1.5,2.15-.14,2.15-.14l.84-.15,1.5-.48.34-.65,1.34-.81,1.15.51.48,1,1.33,0,1.67-.63s.65.17,2.31.53,1,1.5,1,1.5l1,1.34.48,1.33,1,.68V2160l-.19,1.82.31,1.33.15.66a4.85,4.85,0,0,1,1.49.52,3.14,3.14,0,0,0,1.65.19l1.16,0,1.16-.32,1.18-.81.37-2.48a2.52,2.52,0,0,1-.48-1.16c0-.5-1-1.35-1-1.35s-.31-1.33-.47-2-.15-1.16-.3-2,.52-1.15,1.53-2.62,0,0,.18-.5.51-1.32.86-2.31,0,0,.34-.82,2.49-.3,2.49-.3a17.6,17.6,0,0,0,3.34-1.61c1.5-1,1.17-.48,1.17-.48s2.17-1.13,2.51-1.78,1-.82,1.35-1.8,2.5-.8,2.84-1.46a4.82,4.82,0,0,0,.52-1.81,1.77,1.77,0,0,1,1-1.31l2.5-1.46,1.19-1.81s.19-1.48.2-2.48a4.29,4.29,0,0,0-.13-1.66,3.25,3.25,0,0,1-.16-1,10.44,10.44,0,0,0,1.36-2.14c.51-1.15,0,0,0-1.16a12.25,12.25,0,0,1,0-2.48c.19-1.33.68-1.32.52-1.82s.19-1.16,0-2.15l-1.15-.69-1.33.15-1.83.47c-1.16.32,0,0-1.48-.68s-.31-1-.79-1.84-.67,0-.67,0a2.11,2.11,0,0,1-1.49-.35c-.82-.51,0,0-.49-.67s0,0,0-.5a9.6,9.6,0,0,1,.36-1.65,13,13,0,0,0,5-1.59c2.67-1.45.52-1.15.52-1.15l1.85-2.12s2.17-1.13,2.18-2,1.84-1.14,2-1.79,1.17-.65,1.17-.65l3.65-.28.83-.16,1.49,0,1.82.52,3,.21,1.66-.47s1.33-.15,1.67-.64.83,0,.83,0l3.62,1.21,1.64,1.35,1.16.35,1-.32a3,3,0,0,0,1.52-2.46c0-1.66,0,0,.19-.83s0,0,.84-1.47.68-.82.68-.82l.83-.49.84-.65a1.68,1.68,0,0,0,1-.81,1.35,1.35,0,0,1,1.16-.65l3.49,0c2.81,0,.81,1.34.81,1.34l.82.51,1.16-.32,1.51-1.13,1.34-.65a2.35,2.35,0,0,0,1.17-.81c.5-.66.83-.15.83-.15l1,.67a9.55,9.55,0,0,1-1.51,1.64,12.84,12.84,0,0,0-1.18,1l-2,1.46-1.17,1a1.72,1.72,0,0,1-1,.81c-.67.16-.18.66-1,1.14a5.79,5.79,0,0,0-1.51,1.48l-1.67.8a12.48,12.48,0,0,1-2.35,1.63c-.83.31-.51,1.64-1.35,2.3s-.34.65-.34.65-.85,1.15-1.36,1.8.64,1.51.64,1.51l-.38,3.64,0,1.65,0,1.66,0,1.16,1.15,1,1.14,1.67.15,1a3,3,0,0,0,1.82.36l1.18-1.47.35-1.32.84-1,1.18-1.14-.16-.5c-.16-.5,1-1.64,1-1.64l.83-.49,2-1.63,1.17-1.14a3.27,3.27,0,0,1-.63-1.83c0-1,0,0,.34-.49s0,0,0-.5a.71.71,0,0,1,.5-.65l.85-1.15-.3-2.33-.15-1V2108c0-.66,1.5-.8,1.5-.8l.7-2.65s.84-.32,3.5-1.27,1.49-.15,2-.14,2,.2,2,.2,6.81-.73,8-1.38.51-.65.51-.65a9.07,9.07,0,0,0,1.85-1.8c.34-.66,1.66-.47,3-1.12a4.08,4.08,0,0,0,1.85-1.79,6.47,6.47,0,0,0,2.15.36,8,8,0,0,1,2.47.53,16.33,16.33,0,0,0,5.5-1.74c2-1.3,0,0-.48-1.5s-2.3-.86-2.62-1.53-.16-.67-1.79-2.18c0,0-1.15-1.18-.64-1.83h1.32a20.61,20.61,0,0,0,3.16-.45c1.16-.31.67-.65.85-1.31a2.07,2.07,0,0,1,.34-.82l.84-.65h1l1,.35,1.81,1.35.82.51a4.16,4.16,0,0,0,1.81.69c.83,0,2,.52,2.48.53s2.3,1.36,2.8,1.2,1.16.18,1.82-.14.85-.65,1.52-1.8,0,0,.36-2,1-.48,1-.48l1-.64.68-1.15Zm-334.94,10.4h0Zm30.86,139.17-.77,1.48-.76,1-1.27,1.72-1.24-.27.27-1.48-.24-.75c-.23-.76.76-1,.76-1l1.5-.23Zm14.68-86.31-1,.73c-1,.73,0,0-1,0l-1,0-2.23-.28-4.46-.81-2,0-1.75,0-2-.53s-1.75.22-2.49.21a6.1,6.1,0,0,0-2.5.46c-1.49.48,0,0-1.24,0h-1.24c-1.24,0-1.24-.52-1.24-.52s0-1,0-1.74.76-1,1.27-2l.51-1c.51-1,.27-1.24.27-1.24l1.26-1.47.76-1.23,2-1.46h1l1.49,0,1.47,1.27.48,1.5,2.48.78,2.49-.71-.23-1a3.34,3.34,0,0,1,0-1.74s.77-1,1.77-2.21l.73,1.5v1.24l-.27.74c-.25.75.73,1.51.73,1.51l2.2,2.52,1.71,1.76,1.23,1.26.73,1Zm26.55,3.12-1,.48-2,1.71v1s-.26.24,0,1,.76-.73.24.75a2.16,2.16,0,0,1-2,1.46l-1.5,0-1.48-.52-1.45-3-.71-2a10.09,10.09,0,0,1-.71-2.5c0-.74-2.21-2.27-2.21-2.27l-1-2.75-.22-2.23a1.43,1.43,0,0,1,0-1.5c.51-.73-.46-2.24.28-2s1.5-.73,1.5-.73a20.47,20.47,0,0,0,3.75-.69l3.73-.69.49.75c0,.75-1.51,1.47-1.51,1.47l-1.26,1,0,2s-.76,1.48,0,2,3.44,2.78,3.44,2.78l1.73.52,1.73,1,.73,1Zm11.57-9.28-.76,1.23-1.49,0a7.8,7.8,0,0,1-1.47-1.51c-.49-.76.26-1,.28-2.24s0,0,.52-1l2,0,1,2.25Z" transform="translate(2844.78 -2009.95)"/><path class="cls-3" d="M-2422.27,2256.79a2.06,2.06,0,0,0,0,1c.11.62-.16,2.11,0,2.61s-.25.49,0,1.49.61,1.25.34,2a6.2,6.2,0,0,0-.78,2c-.65,2.22-.39,1.23-.65,2.22s-.12-.37-.26,1a19.31,19.31,0,0,1-.53,2.35c-.14.87.11,1.12-.27,1.74a24.3,24.3,0,0,0-1.16,2.59,1.92,1.92,0,0,0-.64,1c-.26.74-1.51,1-1.39,1.47s-.13.49-.14,1.24a13.43,13.43,0,0,1-.41,2.23,3,3,0,0,1-.51,1.23l-1.75.48s-.13.24-.87.11-.13.62-1.24-.39a16.55,16.55,0,0,1-1.59-1.64l-.36-1a2.47,2.47,0,0,0-.6-1c-.38-.25-1.11-.63-1.11-.63l-.23-1.74-.11-1.25.28-1.49a4.47,4.47,0,0,1,.87-.49,2.88,2.88,0,0,0,.88-.6l1-.86.52-1.48,0-1.87,0-1.61.15-1.74,1.38-1.22,1-.61,1.14-.74a15.34,15.34,0,0,0,1.38-1.21l.63-.49a1.91,1.91,0,0,0,1.25-.61c.64-.6.51-.36,1-1.72a6.74,6.74,0,0,0,.53-2l.89-1.23Z" transform="translate(2844.78 -2009.95)"/></g><circle class="cls-4" cx="-2697.23" cy="2193.91" r="41.04" transform="translate(-1585.98 -2829.86) rotate(-80.78)"/><circle class="cls-5" cx="-2697.23" cy="2202.48" r="45.69" transform="translate(-1573.34 -2834.76) rotate(-80.38)"/><circle class="cls-4" cx="-2595.4" cy="2133.91" r="41.04" transform="translate(-1447.19 -2776.27) rotate(-80.9)"/><circle class="cls-6" cx="-2595.4" cy="2151.84" r="45.69" transform="translate(-1262.27 -2871.65) rotate(-76.98)"/><circle class="cls-4" cx="-2496.23" cy="2193.91" r="41.04" transform="translate(-1417.18 -2631.46) rotate(-80.78)"/><circle class="cls-7" cx="-2495.72" cy="2202.48" r="45.69" transform="translate(-1144.21 -2782.31) rotate(-75.23)"/><circle class="cls-4" cx="-2393.89" cy="2133.91" r="41.04" transform="translate(-1277.55 -2577.3) rotate(-80.9)"/><circle class="cls-8" cx="-2394.63" cy="2151.84" r="45.69" transform="translate(-1106.75 -2676.04) rotate(-76.98)"/><circle class="cls-4" cx="-2293.04" cy="2193.91" r="41.04" transform="matrix(0.16, -0.99, 0.99, 0.16, -1251.89, -2427.2)"/><circle class="cls-9" cx="-2293.04" cy="2202.48" r="45.69" transform="translate(-1052.09 -2552.76) rotate(-76.45)"/><path class="cls-10" d="M-2296.23,2221.41c-37.89,0-57.1-23.06-71.13-39.89-12.67-15.2-17.7-20.11-28.88-20.11s-16.21,4.91-28.87,20.11c-14,16.83-33.25,39.89-71.13,39.89s-57.09-23.06-71.12-39.89c-12.66-15.2-17.7-20.11-28.88-20.11s-16.21,4.91-28.87,20.11c-14,16.83-33.24,39.89-71.12,39.89s-57.1-23.06-71.13-39.89c-12.66-15.2-17.69-20.11-28.87-20.11a27.5,27.5,0,0,1-27.5-27.5,27.5,27.5,0,0,1,27.5-27.5c37.88,0,57.09,23.06,71.12,39.9,12.66,15.19,17.7,20.1,28.88,20.1s16.21-4.91,28.87-20.1c14-16.84,33.24-39.9,71.12-39.9s57.1,23.06,71.13,39.9c12.66,15.19,17.69,20.1,28.87,20.1s16.21-4.91,28.87-20.1c14-16.84,33.25-39.9,71.13-39.9s57.1,23.06,71.13,39.9c12.66,15.19,17.69,20.1,28.88,20.1s16.21-4.91,28.87-20.1c14-16.84,33.25-39.9,71.13-39.9a27.5,27.5,0,0,1,27.5,27.5,27.5,27.5,0,0,1-27.5,27.5c-11.18,0-16.21,4.91-28.88,20.11C-2239.14,2198.35-2258.35,2221.41-2296.23,2221.41Z" transform="translate(2844.78 -2009.95)"/><path class="cls-11" d="M-2796.23,2133.91h1" transform="translate(2844.78 -2009.95)"/><path class="cls-12" d="M-2785.34,2135c39.42,8,43,58.95,89.11,58.95,50,0,50-60,100-60s50,60,100,60,50-60,100-60,50,60,100,60c47.94,0,49.92-55.13,94-59.7" transform="translate(2844.78 -2009.95)"/><path class="cls-11" d="M-2197.23,2133.92h1" transform="translate(2844.78 -2009.95)"/><path class="cls-13" d="M-2296.23,2221.41c-37.89,0-57.1-23.06-71.13-39.89-12.67-15.2-17.7-20.11-28.88-20.11s-16.21,4.91-28.87,20.11c-14,16.83-33.25,39.89-71.13,39.89s-57.09-23.06-71.12-39.89c-12.66-15.2-17.7-20.11-28.88-20.11s-16.21,4.91-28.87,20.11c-14,16.83-33.24,39.89-71.12,39.89s-57.1-23.06-71.13-39.89c-12.66-15.2-17.69-20.11-28.87-20.11a27.5,27.5,0,0,1-27.5-27.5,27.5,27.5,0,0,1,27.5-27.5c37.88,0,57.09,23.06,71.12,39.9,12.66,15.19,17.7,20.1,28.88,20.1s16.21-4.91,28.87-20.1c14-16.84,33.24-39.9,71.12-39.9s57.1,23.06,71.13,39.9c12.66,15.19,17.69,20.1,28.87,20.1s16.21-4.91,28.87-20.1c14-16.84,33.25-39.9,71.13-39.9s57.1,23.06,71.13,39.9c12.66,15.19,17.69,20.1,28.88,20.1s16.21-4.91,28.87-20.1c14-16.84,33.25-39.9,71.13-39.9a27.5,27.5,0,0,1,27.5,27.5,27.5,27.5,0,0,1-27.5,27.5c-11.18,0-16.21,4.91-28.88,20.11C-2239.14,2198.35-2258.35,2221.41-2296.23,2221.41Z" transform="translate(2844.78 -2009.95)"/><rect class="cls-14" x="135.6" y="111.21" width="2.22" height="1.97"/><rect class="cls-14" x="-2707.95" y="2126.38" width="2.34" height="1.97" transform="translate(1598.65 -3000.09) rotate(-26.73)"/><rect class="cls-14" x="-2707.79" y="2115.62" width="1.97" height="2.29" transform="translate(-534.98 -3262.84) rotate(-63.27)"/><rect class="cls-14" x="158.61" y="111.21" width="2.22" height="1.97"/><rect class="cls-14" x="-2687.33" y="2126.2" width="1.97" height="2.34" transform="translate(-533.23 -3238.73) rotate(-63.27)"/><rect class="cls-14" x="-2687.47" y="2115.78" width="2.29" height="1.97" transform="translate(1605.54 -2992.05) rotate(-26.73)"/><path class="cls-14" d="M-2696.56,2113.66a8.48,8.48,0,0,0-8.48,8.42v.06h0a10.5,10.5,0,0,0,2.7,6.91c1.05,1.38,1.88,2.47,1.88,4.29v2.59a3,3,0,0,0,2.95,3h1.89a3,3,0,0,0,2.95-3v-2.59c0-1.82.83-2.91,1.88-4.29a10.5,10.5,0,0,0,2.7-6.91v-.06h0A8.48,8.48,0,0,0-2696.56,2113.66Zm.94,23.26h-1.89a1,1,0,0,1-1-1V2134h3.85v1.92A1,1,0,0,1-2695.62,2136.92Zm3.27-9.07a9.58,9.58,0,0,0-2.17,4.19h-4.09a9.67,9.67,0,0,0-2.16-4.19,8.55,8.55,0,0,1-2.3-5.74,6.52,6.52,0,0,1,6.51-6.48,6.51,6.51,0,0,1,6.5,6.48A8.6,8.6,0,0,1-2692.35,2127.85Z" transform="translate(2844.78 -2009.95)"/><circle class="cls-15" cx="-2697.23" cy="2193.91" r="17.33" transform="translate(-1575.14 -2836.08) rotate(-80.58)"/><circle class="cls-16" cx="-2697.23" cy="2193.91" r="13.76" transform="translate(1854.18 -2845.18) rotate(-21.48)"/><circle class="cls-17" cx="147.55" cy="180.76" r="10.56"/><text class="cls-18" transform="translate(145.11 188.29)">1</text><path class="cls-14" d="M-2492.67,2116.54a9.86,9.86,0,0,0-13.93,0,9.86,9.86,0,0,0,0,13.93,9.85,9.85,0,0,0,12.58,1.11,2,2,0,0,0,.56,1.05l5.59,5.59a2.09,2.09,0,0,0,2.95,0,2.08,2.08,0,0,0,0-2.94l-5.6-5.6a2.09,2.09,0,0,0-1-.56A9.86,9.86,0,0,0-2492.67,2116.54Zm-1.77,12.16a7.36,7.36,0,0,1-10.4,0,7.36,7.36,0,0,1,0-10.39,7.36,7.36,0,0,1,10.4,0A7.35,7.35,0,0,1-2494.44,2128.7Z" transform="translate(2844.78 -2009.95)"/><circle class="cls-15" cx="-2495.72" cy="2193.91" r="17.33" transform="translate(-1158.28 -2777.42) rotate(-75.66)"/><circle class="cls-19" cx="-2495.72" cy="2193.91" r="13.76" transform="translate(-1157.05 -2778.05) rotate(-75.63)"/><circle class="cls-20" cx="349.06" cy="180.76" r="10.56"/><text class="cls-18" transform="translate(345.13 188.29)">3</text><path class="cls-14" d="M-2281.47,2115.43h-2.85c0-.25,0-.5,0-.75a1,1,0,0,0-1-1h-15.42a1,1,0,0,0-1,1c0,.25,0,.5,0,.75h-2.85a1,1,0,0,0-1,1,15.85,15.85,0,0,0,2.43,8.74,7.86,7.86,0,0,0,5.81,3.83,8,8,0,0,0,1.4,1.18v2.74h-.91a3,3,0,0,0-3,2.94v.94a1,1,0,0,0-.77,1,1,1,0,0,0,1,1h13.11a1,1,0,0,0,1-1,1,1,0,0,0-.78-1v-.95a2.94,2.94,0,0,0-2.94-2.94h-.91v-2.74a8.36,8.36,0,0,0,1.4-1.18,7.86,7.86,0,0,0,5.81-3.83,15.85,15.85,0,0,0,2.43-8.74A1,1,0,0,0-2281.47,2115.43Zm-17.79,10.87a7.24,7.24,0,0,1-2.24-2.24,13.46,13.46,0,0,1-2.05-6.59h1.91a24.12,24.12,0,0,0,2.24,8.57C-2299.35,2126.13-2299.31,2126.22-2299.26,2126.3Zm9.39,1-.11.13a5.5,5.5,0,0,1-1.53,1.27l-.1.05a3.1,3.1,0,0,1-2.83,0l-.11,0a5.44,5.44,0,0,1-1.52-1.25.54.54,0,0,0-.11-.13,11.54,11.54,0,0,1-1.4-2.18,23.36,23.36,0,0,1-2.13-9.43h13.35a23.53,23.53,0,0,1-2.13,9.43A10.94,10.94,0,0,1-2289.87,2127.28Zm-2.26,3.75v1.91h-1.81V2131A5,5,0,0,0-2292.13,2131Zm9.61-13.56a13.5,13.5,0,0,1-2.05,6.59,7.34,7.34,0,0,1-2.24,2.24,2.1,2.1,0,0,0,.13-.26,24.06,24.06,0,0,0,2.25-8.57Zm-14.37,17.5h7.71a.91.91,0,0,1,.91.91v.91h-9.53v-.91A.91.91,0,0,1-2296.89,2135Z" transform="translate(2844.78 -2009.95)"/><circle class="cls-15" cx="-2293.04" cy="2193.91" r="17.33" transform="translate(-1297.24 -2395.28) rotate(-81.9)"/><circle class="cls-21" cx="-2293.04" cy="2193.91" r="13.76" transform="translate(1418.69 -2868.85) rotate(-30.41)"/><circle class="cls-22" cx="551.74" cy="180.76" r="10.56"/><text class="cls-18" transform="translate(547.49 188.29)">5</text><path class="cls-14" d="M-2389.21,2201.5l.12-.13a6.21,6.21,0,0,0,2.05.34,6.4,6.4,0,0,0,6.39-6.39,6.32,6.32,0,0,0-.6-2.69l-.59-1.26-3.56,3.54a.87.87,0,0,1-.62.25.86.86,0,0,1-.61-.25.87.87,0,0,1-.26-.62.87.87,0,0,1,.26-.62l3.54-3.56-1.27-.59a6.31,6.31,0,0,0-2.68-.6,6.41,6.41,0,0,0-6.4,6.4,6.42,6.42,0,0,0,.34,2l-1.44,1.44-3.6-3.6V2192l-5-3-2.63,2.63,3,5h3.24l3.6,3.6-9,9a2.82,2.82,0,0,0-.84,2,2.82,2.82,0,0,0,.84,2,2.81,2.81,0,0,0,2,.83,2.85,2.85,0,0,0,2-.83l7.73-7.74,7.74,7.74a2.81,2.81,0,0,0,2,.83,2.85,2.85,0,0,0,2-.83,2.81,2.81,0,0,0,.83-2,2.81,2.81,0,0,0-.83-2Zm-14.08-9.6.46-.46,2.72,1.63v1.55h-1.55Zm.94,20a.89.89,0,0,1-.62.25.86.86,0,0,1-.61-.25.87.87,0,0,1-.26-.62.87.87,0,0,1,.26-.62l12.82-12.82-.3-.62a4.46,4.46,0,0,1-.41-1.86,4.43,4.43,0,0,1,4.43-4.43,2.55,2.55,0,0,1,.39,0l-1.37,1.37a2.81,2.81,0,0,0-.83,2,2.81,2.81,0,0,0,.83,2,2.83,2.83,0,0,0,2,.83,2.85,2.85,0,0,0,2-.83l1.38-1.37c0,.12,0,.26,0,.39a4.43,4.43,0,0,1-4.43,4.42,4.5,4.5,0,0,1-1.87-.41l-.62-.29Zm19.48,0a.89.89,0,0,1-.62.25.86.86,0,0,1-.61-.25l-7.74-7.74,1.24-1.23,7.73,7.73a.91.91,0,0,1,.26.62A.91.91,0,0,1-2382.87,2211.86Z" transform="translate(2844.78 -2009.95)"/><circle class="cls-15" cx="-2393.89" cy="2133.92" r="17.33" transform="translate(-1274.38 -2579.32) rotate(-80.83)"/><circle class="cls-23" cx="-2393.89" cy="2133.92" r="13.76" transform="translate(1835.82 -2768.48) rotate(-22.7)"/><circle class="cls-24" cx="450.89" cy="120.77" r="10.56"/><text class="cls-18" transform="translate(446.49 127.79)">4</text><path class="cls-14" d="M-2595.4,2214.08a12.5,12.5,0,0,1-8.9-3.69,12.5,12.5,0,0,1-3.68-8.89,12.5,12.5,0,0,1,3.68-8.89,12.5,12.5,0,0,1,8.9-3.69,12.46,12.46,0,0,1,8.89,3.69,12.46,12.46,0,0,1,3.69,8.89,12.46,12.46,0,0,1-3.69,8.89A12.46,12.46,0,0,1-2595.4,2214.08Zm0-23.19A10.62,10.62,0,0,0-2606,2201.5a10.62,10.62,0,0,0,10.62,10.61,10.62,10.62,0,0,0,10.61-10.61A10.62,10.62,0,0,0-2595.4,2190.89Z" transform="translate(2844.78 -2009.95)"/><polygon class="cls-14" points="255.86 192.54 248.4 192.54 248.4 182.71 250.36 182.71 250.36 190.57 255.86 190.57 255.86 192.54"/><circle class="cls-15" cx="-2595.4" cy="2133.92" r="17.33" transform="translate(575.7 -3220.16) rotate(-45)"/><circle class="cls-25" cx="-2595.4" cy="2133.92" r="13.76" transform="translate(575.7 -3220.16) rotate(-45)"/><circle class="cls-26" cx="249.38" cy="120.77" r="10.56"/><text class="cls-18" transform="translate(245.67 127.79)">2</text></g></g></svg>