<svg xmlns="http://www.w3.org/2000/svg" xmlns:xlink="http://www.w3.org/1999/xlink" viewBox="0 0 386.47 320">
  <defs>
    <style>
      .cls-1 {
        isolation: isolate;
      }

      .cls-2 {
        fill: #001210;
      }

      .cls-3 {
        fill: url(#radial-gradient);
      }

      .cls-4 {
        fill: url(#radial-gradient-2);
      }

      .cls-5 {
        fill: url(#radial-gradient-3);
      }

      .cls-6 {
        opacity: 0.2;
      }

      .cls-7 {
        opacity: 0;
      }

      .cls-8 {
        opacity: 0.09;
      }

      .cls-9 {
        opacity: 0.18;
      }

      .cls-10 {
        opacity: 0.27;
      }

      .cls-11 {
        opacity: 0.36;
      }

      .cls-12 {
        opacity: 0.45;
      }

      .cls-13 {
        opacity: 0.55;
      }

      .cls-14 {
        opacity: 0.64;
      }

      .cls-15 {
        opacity: 0.73;
      }

      .cls-16 {
        opacity: 0.82;
      }

      .cls-17 {
        opacity: 0.91;
      }

      .cls-18 {
        fill: url(#linear-gradient);
      }

      .cls-19, .cls-28, .cls-29, .cls-33, .cls-34, .cls-35, .cls-36, .cls-55 {
        mix-blend-mode: color-dodge;
      }

      .cls-19 {
        fill: url(#radial-gradient-4);
      }

      .cls-20, .cls-37 {
        mix-blend-mode: screen;
      }

      .cls-20 {
        opacity: 0.6;
        fill: url(#radial-gradient-5);
      }

      .cls-21 {
        fill: #05374f;
      }

      .cls-22 {
        fill: url(#linear-gradient-2);
      }

      .cls-23 {
        fill: url(#linear-gradient-3);
      }

      .cls-24 {
        fill: url(#linear-gradient-4);
      }

      .cls-25, .cls-30, .cls-31 {
        fill: #85b2cc;
      }

      .cls-25, .cls-30 {
        mix-blend-mode: multiply;
      }

      .cls-25, .cls-33, .cls-55 {
        opacity: 0.8;
      }

      .cls-26 {
        fill: url(#linear-gradient-5);
      }

      .cls-27 {
        fill: url(#linear-gradient-6);
      }

      .cls-28 {
        fill: url(#radial-gradient-6);
      }

      .cls-29 {
        opacity: 0.7;
        fill: url(#radial-gradient-7);
      }

      .cls-32 {
        fill: #fff;
      }

      .cls-33, .cls-56 {
        fill: #264c9f;
      }

      .cls-34 {
        fill: url(#radial-gradient-8);
      }

      .cls-35 {
        fill: url(#radial-gradient-9);
      }

      .cls-36 {
        fill: url(#radial-gradient-10);
      }

      .cls-38 {
        fill: url(#White_Black_Radial);
      }

      .cls-39 {
        fill: url(#White_Black_Radial-2);
      }

      .cls-40 {
        fill: url(#White_Black_Radial-3);
      }

      .cls-41 {
        fill: url(#White_Black_Radial-4);
      }

      .cls-42 {
        fill: url(#White_Black_Radial-5);
      }

      .cls-43 {
        fill: url(#White_Black_Radial-6);
      }

      .cls-44 {
        fill: url(#White_Black_Radial-7);
      }

      .cls-45 {
        fill: url(#White_Black_Radial-8);
      }

      .cls-46 {
        fill: url(#White_Black_Radial-9);
      }

      .cls-47 {
        fill: url(#White_Black_Radial-10);
      }

      .cls-48 {
        fill: url(#White_Black_Radial-11);
      }

      .cls-49 {
        fill: url(#White_Black_Radial-12);
      }

      .cls-50 {
        fill: url(#White_Black_Radial-13);
      }

      .cls-51 {
        fill: url(#White_Black_Radial-14);
      }

      .cls-52 {
        fill: url(#White_Black_Radial-15);
      }

      .cls-53 {
        fill: url(#White_Black_Radial-16);
      }

      .cls-54 {
        fill: url(#White_Black_Radial-17);
      }

      .cls-57 {
        fill: url(#White_Black_Radial-18);
      }

      .cls-58 {
        fill: url(#White_Black_Radial-19);
      }

      .cls-59 {
        fill: url(#White_Black_Radial-20);
      }

      .cls-60 {
        fill: url(#White_Black_Radial-21);
      }

      .cls-61 {
        fill: url(#White_Black_Radial-22);
      }

      .cls-62 {
        fill: url(#White_Black_Radial-23);
      }

      .cls-63 {
        fill: url(#White_Black_Radial-24);
      }

      .cls-64 {
        fill: url(#White_Black_Radial-25);
      }

      .cls-65 {
        fill: url(#White_Black_Radial-26);
      }

      .cls-66 {
        fill: url(#White_Black_Radial-27);
      }

      .cls-67 {
        fill: url(#White_Black_Radial-28);
      }

      .cls-68 {
        fill: url(#White_Black_Radial-29);
      }
    </style>
    <radialGradient id="radial-gradient" cx="-3382.88" cy="1524.14" r="95.47" gradientTransform="translate(3339.71 -2060.73) scale(0.93 1.45)" gradientUnits="userSpaceOnUse">
      <stop offset="0" stop-color="#00a89a"/>
      <stop offset="0.09" stop-color="#00a89a" stop-opacity="0.82"/>
      <stop offset="0.23" stop-color="#00a89a" stop-opacity="0.57"/>
      <stop offset="0.38" stop-color="#00a89a" stop-opacity="0.37"/>
      <stop offset="0.53" stop-color="#00a89a" stop-opacity="0.21"/>
      <stop offset="0.68" stop-color="#00a89a" stop-opacity="0.09"/>
      <stop offset="0.84" stop-color="#00a89a" stop-opacity="0.02"/>
      <stop offset="1" stop-color="#00a89a" stop-opacity="0"/>
    </radialGradient>
    <radialGradient id="radial-gradient-2" cx="-3417.32" cy="1544.75" r="71.19" gradientTransform="translate(3339.71 -1879.54) scale(0.93 1.34)" xlink:href="#radial-gradient"/>
    <radialGradient id="radial-gradient-3" cx="7981.16" cy="-3712.03" r="43.81" gradientTransform="matrix(-1.34, 0, 0, 0.46, 7563.71, 3022.73)" gradientUnits="userSpaceOnUse">
      <stop offset="0" stop-color="#00a89a" stop-opacity="0.61"/>
      <stop offset="0.07" stop-color="#00a89a" stop-opacity="0.54"/>
      <stop offset="0.35" stop-color="#00a89a" stop-opacity="0.31"/>
      <stop offset="0.61" stop-color="#00a89a" stop-opacity="0.14"/>
      <stop offset="0.83" stop-color="#00a89a" stop-opacity="0.04"/>
      <stop offset="1" stop-color="#00a89a" stop-opacity="0"/>
    </radialGradient>
    <linearGradient id="linear-gradient" x1="-3188.88" y1="1105.22" x2="-3114.08" y2="1234.78" gradientUnits="userSpaceOnUse">
      <stop offset="0.06" stop-color="#003641"/>
      <stop offset="0.24" stop-color="#013842"/>
      <stop offset="0.33" stop-color="#064046"/>
      <stop offset="0.41" stop-color="#0e4d4c"/>
      <stop offset="0.47" stop-color="#1a5f55"/>
      <stop offset="0.47" stop-color="#1b6156"/>
      <stop offset="0.48" stop-color="#1f655a"/>
      <stop offset="0.5" stop-color="#2c7268"/>
      <stop offset="0.51" stop-color="#41887d"/>
      <stop offset="0.52" stop-color="#5fa69c"/>
      <stop offset="0.53" stop-color="#70b7ad"/>
      <stop offset="0.54" stop-color="#67aea3"/>
      <stop offset="0.56" stop-color="#468c82"/>
      <stop offset="0.59" stop-color="#2e746a"/>
      <stop offset="0.61" stop-color="#20665b"/>
      <stop offset="0.63" stop-color="#1b6156"/>
      <stop offset="0.69" stop-color="#0c4a4b"/>
      <stop offset="0.76" stop-color="#033b43"/>
      <stop offset="0.81" stop-color="#003641"/>
      <stop offset="1" stop-color="#003641"/>
    </linearGradient>
    <radialGradient id="radial-gradient-4" cx="-3072.64" cy="1157.86" r="140.37" gradientUnits="userSpaceOnUse">
      <stop offset="0" stop-color="#2c2b6e"/>
      <stop offset="0.16" stop-color="#2a2969"/>
      <stop offset="0.37" stop-color="#242359"/>
      <stop offset="0.59" stop-color="#1a1940"/>
      <stop offset="0.83" stop-color="#0c0b1d"/>
      <stop offset="1"/>
    </radialGradient>
    <radialGradient id="radial-gradient-5" cx="-3096.13" cy="1147.83" r="82.7" gradientUnits="userSpaceOnUse">
      <stop offset="0" stop-color="#9dd7d7"/>
      <stop offset="1" stop-color="#064d2d"/>
    </radialGradient>
    <linearGradient id="linear-gradient-2" x1="-3086.48" y1="1313.17" x2="-3202.57" y2="1067.86" gradientUnits="userSpaceOnUse">
      <stop offset="0" stop-color="#1b6156"/>
      <stop offset="0.27" stop-color="#0b4749"/>
      <stop offset="0.49" stop-color="#003641"/>
      <stop offset="1" stop-color="#051b20"/>
    </linearGradient>
    <linearGradient id="linear-gradient-3" x1="-3171.57" y1="1210.4" x2="-3098.66" y2="1210.4" xlink:href="#linear-gradient-2"/>
    <linearGradient id="linear-gradient-4" x1="-3179.81" y1="1125.18" x2="-3068.88" y2="1336.7" gradientUnits="userSpaceOnUse">
      <stop offset="0.01" stop-color="#264c9f"/>
      <stop offset="0.43" stop-color="#2cbbb5"/>
      <stop offset="0.9" stop-color="#0c415f"/>
    </linearGradient>
    <linearGradient id="linear-gradient-5" x1="-1211.42" y1="15392.07" x2="-1198.38" y2="15392.07" gradientTransform="matrix(-0.5, 1.44, -0.87, 0.5, 9635.62, -4770.34)" xlink:href="#linear-gradient-2"/>
    <linearGradient id="linear-gradient-6" x1="-3088.1" y1="1186.69" x2="-3097.1" y2="1186.3" gradientUnits="userSpaceOnUse">
      <stop offset="0" stop-color="#0c415f"/>
      <stop offset="1" stop-color="#2cbbb5"/>
    </linearGradient>
    <radialGradient id="radial-gradient-6" cx="-3092.63" cy="1182.85" r="5.28" xlink:href="#radial-gradient-4"/>
    <radialGradient id="radial-gradient-7" cx="7772.71" cy="15610.55" r="21.35" gradientTransform="matrix(0, -0.92, -0.41, 0, 3302.71, 8384.08)" gradientUnits="userSpaceOnUse">
      <stop offset="0" stop-color="#fff"/>
      <stop offset="0.01" stop-color="#f7f7f7"/>
      <stop offset="0.1" stop-color="#bebebe"/>
      <stop offset="0.19" stop-color="#8b8b8b"/>
      <stop offset="0.29" stop-color="#606060"/>
      <stop offset="0.38" stop-color="#3e3e3e"/>
      <stop offset="0.48" stop-color="#232323"/>
      <stop offset="0.57" stop-color="#0f0f0f"/>
      <stop offset="0.67" stop-color="#040404"/>
      <stop offset="0.77"/>
    </radialGradient>
    <radialGradient id="radial-gradient-8" cx="-176.26" cy="-2654.34" r="10.42" gradientTransform="matrix(0.47, 0.88, 0.88, -0.47, 2589.43, -1032.59)" gradientUnits="userSpaceOnUse">
      <stop offset="0.09" stop-color="#fff"/>
      <stop offset="0.1" stop-color="#e1e8e9"/>
      <stop offset="0.12" stop-color="#a8bec0"/>
      <stop offset="0.14" stop-color="#779a9d"/>
      <stop offset="0.16" stop-color="#4f7c80"/>
      <stop offset="0.17" stop-color="#30656a"/>
      <stop offset="0.19" stop-color="#1a545a"/>
      <stop offset="0.21" stop-color="#0d4a50"/>
      <stop offset="0.23" stop-color="#08474d"/>
      <stop offset="0.27" stop-color="#06383c"/>
      <stop offset="0.34" stop-color="#042326"/>
      <stop offset="0.42" stop-color="#021315"/>
      <stop offset="0.51" stop-color="#010809"/>
      <stop offset="0.65" stop-color="#000202"/>
      <stop offset="1"/>
    </radialGradient>
    <radialGradient id="radial-gradient-9" cx="-183.47" cy="-2658.85" r="7.89" xlink:href="#radial-gradient-8"/>
    <radialGradient id="radial-gradient-10" cx="-189.31" cy="-2662.39" r="5.92" gradientTransform="matrix(0.47, 0.88, 0.88, -0.47, -743.14, 16.94)" xlink:href="#radial-gradient-8"/>
    <radialGradient id="White_Black_Radial" data-name="White, Black Radial" cx="-3126.9" cy="-8149.44" r="23.13" gradientTransform="matrix(1, 0, 0, -1, -18.74, -6916.63)" gradientUnits="userSpaceOnUse">
      <stop offset="0" stop-color="#fff"/>
      <stop offset="1"/>
    </radialGradient>
    <radialGradient id="White_Black_Radial-2" cx="-3126.9" cy="-8149.39" r="23.29" xlink:href="#White_Black_Radial"/>
    <radialGradient id="White_Black_Radial-3" cx="-3126.91" cy="-8149.44" r="23.13" xlink:href="#White_Black_Radial"/>
    <radialGradient id="White_Black_Radial-4" cx="-3126.91" cy="-8151.27" r="24.68" xlink:href="#White_Black_Radial"/>
    <radialGradient id="White_Black_Radial-5" cx="-3126.91" cy="-8149.44" r="23.13" xlink:href="#White_Black_Radial"/>
    <radialGradient id="White_Black_Radial-6" cx="-3126.91" cy="-8147.19" r="20.61" xlink:href="#White_Black_Radial"/>
    <radialGradient id="White_Black_Radial-7" cx="-3126.91" cy="-8149.44" r="23.13" xlink:href="#White_Black_Radial"/>
    <radialGradient id="White_Black_Radial-8" cx="-3126.91" cy="-8151.53" r="27.6" xlink:href="#White_Black_Radial"/>
    <radialGradient id="White_Black_Radial-9" cx="-3126.91" cy="-8149.44" r="23.13" xlink:href="#White_Black_Radial"/>
    <radialGradient id="White_Black_Radial-10" cx="-3126.91" cy="-8151.54" r="27.54" xlink:href="#White_Black_Radial"/>
    <radialGradient id="White_Black_Radial-11" cx="-3126.91" cy="-8153.1" r="30.33" xlink:href="#White_Black_Radial"/>
    <radialGradient id="White_Black_Radial-12" cx="-3126.91" cy="-8149.44" r="23.13" xlink:href="#White_Black_Radial"/>
    <radialGradient id="White_Black_Radial-13" cx="-3126.91" cy="-8143.47" r="13.32" xlink:href="#White_Black_Radial"/>
    <radialGradient id="White_Black_Radial-14" cx="-3126.91" cy="-8147.55" r="20.31" xlink:href="#White_Black_Radial"/>
    <radialGradient id="White_Black_Radial-15" cx="-3126.91" cy="-8143.76" r="15.16" xlink:href="#White_Black_Radial"/>
    <radialGradient id="White_Black_Radial-16" cx="-3126.91" cy="-8138.26" r="10.15" xlink:href="#White_Black_Radial"/>
    <radialGradient id="White_Black_Radial-17" cx="-3126.91" cy="-8134.52" r="9.23" xlink:href="#White_Black_Radial"/>
    <radialGradient id="White_Black_Radial-18" cx="-3170.38" cy="-8169.03" r="19.97" xlink:href="#White_Black_Radial"/>
    <radialGradient id="White_Black_Radial-19" cx="-3170.38" cy="-8169.61" r="19.14" xlink:href="#White_Black_Radial"/>
    <radialGradient id="White_Black_Radial-20" cx="-3170.38" cy="-8171.8" r="22.37" xlink:href="#White_Black_Radial"/>
    <radialGradient id="White_Black_Radial-21" cx="-3170.38" cy="-8171.36" r="21.4" xlink:href="#White_Black_Radial"/>
    <radialGradient id="White_Black_Radial-22" cx="-3170.38" cy="-8174.26" r="27.54" xlink:href="#White_Black_Radial"/>
    <radialGradient id="White_Black_Radial-23" cx="-3170.38" cy="-8175.83" r="30.33" xlink:href="#White_Black_Radial"/>
    <radialGradient id="White_Black_Radial-24" cx="-3170.38" cy="-8172.17" r="23.13" xlink:href="#White_Black_Radial"/>
    <radialGradient id="White_Black_Radial-25" cx="-3170.38" cy="-8166.19" r="13.32" xlink:href="#White_Black_Radial"/>
    <radialGradient id="White_Black_Radial-26" cx="-3170.38" cy="-8170.27" r="20.31" xlink:href="#White_Black_Radial"/>
    <radialGradient id="White_Black_Radial-27" cx="-3170.38" cy="-8166.48" r="15.16" xlink:href="#White_Black_Radial"/>
    <radialGradient id="White_Black_Radial-28" cx="-3170.38" cy="-8160.98" r="10.15" xlink:href="#White_Black_Radial"/>
    <radialGradient id="White_Black_Radial-29" cx="-3170.38" cy="-8157.25" r="9.23" xlink:href="#White_Black_Radial"/>
  </defs>
  <g class="cls-1">
    <g id="Layer_1" data-name="Layer 1">
      <rect class="cls-2" width="386.47" height="320"/>
      <g>
        <ellipse class="cls-3" cx="193.3" cy="155.06" rx="88.79" ry="138.79"/>
        <ellipse class="cls-4" cx="161.26" cy="187.34" rx="66.21" ry="95.25"/>
        <ellipse class="cls-5" cx="-3138.46" cy="1298.01" rx="58.74" ry="20.35" transform="translate(2702.05 -2041.73) rotate(-19.93)"/>
        <g class="cls-6">
          <path class="cls-7" d="M-3096.51,1326a12.12,12.12,0,0,1-6-1.45l-36.61-20.83-36.61-20.84a6.37,6.37,0,0,1-3.45-5.51c0-2.45,1.51-4.73,4.16-6.25l24-13.48a14.85,14.85,0,0,1,7.32-1.86,12.09,12.09,0,0,1,6,1.45l36.61,20.83,36.61,20.84a6.37,6.37,0,0,1,3.46,5.51c0,2.44-1.52,4.72-4.17,6.25l-24,13.48A14.85,14.85,0,0,1-3096.51,1326Z" transform="translate(3332.57 -1049.53)"/>
          <path class="cls-8" d="M-3174.4,1271.63l6.5-3.62c.26-.15,12.45-6.81,12.68-6.67l4.19-2.06a15,15,0,0,1,7.07-1.45,12.34,12.34,0,0,1,5.82,1.52l29.34,16.71,6.22,3.54,35.57,20.26a7.61,7.61,0,0,1,2.75,2.68,5.46,5.46,0,0,1,.74,2.58c.07,2.35-1.38,4.58-4,6.08l-6.5,3.63c-.26.15-12.45,6.8-12.68,6.67l-4.19,2a15,15,0,0,1-7.07,1.45,12.45,12.45,0,0,1-5.82-1.51l-29.34-16.72-6.22-3.54-35.57-20.26a7.59,7.59,0,0,1-2.75-2.67,5.65,5.65,0,0,1-.74-2.59C-3178.45,1275.36-3177,1273.13-3174.4,1271.63Z" transform="translate(3332.57 -1049.53)"/>
          <path class="cls-9" d="M-3173.75,1272.15l6.32-3.5c.53-.3,11.94-6.31,12.4-6l4.06-1.68c1.7-1,4.66-1,6.82-1a12.94,12.94,0,0,1,5.61,1.58l28.48,16.24,6,3.44,34.54,19.69a8.51,8.51,0,0,1,2.71,2.54,5.54,5.54,0,0,1,.8,2.46c.14,2.26-1.23,4.43-3.79,5.91l-6.32,3.49c-.53.31-11.94,6.31-12.4,6l-4.06,1.68c-1.7,1-4.66,1-6.82,1a12.81,12.81,0,0,1-5.61-1.59l-28.48-16.23-6-3.44-34.54-19.69a8.43,8.43,0,0,1-2.71-2.55,5.46,5.46,0,0,1-.8-2.46C-3177.68,1275.8-3176.31,1273.62-3173.75,1272.15Z" transform="translate(3332.57 -1049.53)"/>
          <path class="cls-10" d="M-3173.1,1272.66l6.14-3.36c.8-.46,11.43-5.82,12.12-5.42l3.93-1.31c1.51-.87,4.64-.63,6.57-.63a13.46,13.46,0,0,1,5.4,1.64l27.62,15.76,5.85,3.34,33.49,19.12a9.23,9.23,0,0,1,2.68,2.41,5.56,5.56,0,0,1,.87,2.34c.2,2.16-1.1,4.28-3.61,5.73l-6.14,3.36c-.8.46-11.43,5.82-12.12,5.42l-3.93,1.31c-1.51.87-4.65.64-6.57.64a13.47,13.47,0,0,1-5.4-1.65l-27.62-15.76-5.85-3.34-33.49-19.12a9.09,9.09,0,0,1-2.68-2.41,5.51,5.51,0,0,1-.87-2.34C-3176.91,1276.23-3175.61,1274.11-3173.1,1272.66Z" transform="translate(3332.57 -1049.53)"/>
          <path class="cls-11" d="M-3172.45,1273.18l6-3.23c1.06-.62,10.91-5.33,11.83-4.8l3.8-.93c1.33-.76,4.63-.23,6.32-.23a14.19,14.19,0,0,1,5.19,1.71l26.76,15.29,5.66,3.23,32.46,18.55a10.3,10.3,0,0,1,2.63,2.28,5.37,5.37,0,0,1,.94,2.21c.27,2.07-1,4.14-3.42,5.56l-6,3.23c-1.06.61-10.91,5.32-11.83,4.8l-3.8.93c-1.33.76-4.64.23-6.32.23a14.19,14.19,0,0,1-5.19-1.71l-26.76-15.29-5.66-3.23-32.46-18.55a10.35,10.35,0,0,1-2.64-2.28,5.54,5.54,0,0,1-.93-2.21C-3176.14,1276.67-3174.92,1274.6-3172.45,1273.18Z" transform="translate(3332.57 -1049.53)"/>
          <path class="cls-12" d="M-3171.81,1273.69l5.8-3.1c1.32-.76,10.4-4.83,11.55-4.16l3.67-.57c1.14-.65,4.62.18,6.06.18a15.43,15.43,0,0,1,5,1.78l25.9,14.81,5.47,3.13,31.42,18a11.56,11.56,0,0,1,2.6,2.15,5.4,5.4,0,0,1,1,2.09c.33,2-.82,4-3.24,5.38l-5.79,3.1c-1.33.77-10.4,4.83-11.55,4.17l-3.68.56c-1.13.65-4.62-.18-6.06-.18a15.44,15.44,0,0,1-5-1.77l-25.9-14.82-5.47-3.13-31.42-18a11.87,11.87,0,0,1-2.6-2.15,5.46,5.46,0,0,1-1-2.09C-3175.38,1277.11-3174.22,1275.09-3171.81,1273.69Z" transform="translate(3332.57 -1049.53)"/>
          <path class="cls-13" d="M-3171.16,1274.21l5.62-3c1.59-.92,9.89-4.34,11.27-3.54l3.54-.19c.95-.55,4.61.59,5.81.59s4,1.4,4.78,1.83l25,14.34,5.29,3,30.38,17.41a13.74,13.74,0,0,1,2.57,2,5.66,5.66,0,0,1,1.07,2c.41,1.87-.67,3.84-3,5.21l-5.62,3c-1.59.92-9.88,4.33-11.26,3.54l-3.55.19c-.94.54-4.61-.59-5.81-.59-1,0-4-1.4-4.77-1.83l-25-14.35-5.29-3-30.38-17.41a14.18,14.18,0,0,1-2.56-2,5.35,5.35,0,0,1-1.07-2C-3174.61,1277.54-3173.53,1275.58-3171.16,1274.21Z" transform="translate(3332.57 -1049.53)"/>
          <path class="cls-14" d="M-3170.51,1274.73l5.45-2.85c1.85-1.07,9.37-3.84,11-2.91l3.42.19c.76-.44,4.6,1,5.56,1s4,1.55,4.57,1.9l24.17,13.87,5.11,2.92,29.34,16.83a18.4,18.4,0,0,1,2.52,1.89,5.74,5.74,0,0,1,1.14,1.84c.48,1.78-.53,3.69-2.86,5l-5.44,2.84c-1.86,1.07-9.37,3.84-11,2.91l-3.42-.18c-.76.43-4.6-1-5.56-1s-4-1.55-4.56-1.9l-24.18-13.86-5.1-2.93-29.34-16.83a17.73,17.73,0,0,1-2.53-1.89,5.92,5.92,0,0,1-1.14-1.84C-3173.85,1278-3172.84,1276.07-3170.51,1274.73Z" transform="translate(3332.57 -1049.53)"/>
          <path class="cls-15" d="M-3169.86,1275.24l5.27-2.71c2.12-1.22,8.86-3.35,10.69-2.29l3.3.56c.56-.33,4.58,1.4,5.3,1.4a24.59,24.59,0,0,1,4.36,2l23.31,13.39,4.92,2.82,28.3,16.26a16.73,16.73,0,0,1,2.49,1.76,3.86,3.86,0,0,1,1.21,1.72c.55,1.68-.4,3.54-2.68,4.86l-5.27,2.71c-2.12,1.22-8.86,3.34-10.69,2.29l-3.29-.56c-.57.32-4.59-1.41-5.31-1.41a24.46,24.46,0,0,1-4.35-2l-23.32-13.39-4.91-2.82-28.31-16.26a16.73,16.73,0,0,1-2.49-1.76,3.81,3.81,0,0,1-1.2-1.72C-3173.08,1278.42-3172.14,1276.56-3169.86,1275.24Z" transform="translate(3332.57 -1049.53)"/>
          <path class="cls-16" d="M-3169.21,1275.76l5.1-2.59c2.38-1.37,8.34-2.85,10.4-1.66l3.17.94c.37-.22,4.57,1.81,5.05,1.81a34.61,34.61,0,0,1,4.15,2l22.45,12.92,4.73,2.72,27.27,15.69a24.23,24.23,0,0,1,2.45,1.63,3.75,3.75,0,0,1,1.27,1.59c.62,1.59-.25,3.4-2.49,4.69l-5.09,2.58c-2.38,1.37-8.35,2.85-10.41,1.66l-3.16-.93c-.38.21-4.58-1.81-5.06-1.81a35.42,35.42,0,0,1-4.15-2l-22.45-12.92-4.73-2.72-27.26-15.69a22.17,22.17,0,0,1-2.45-1.63,3.65,3.65,0,0,1-1.28-1.59C-3172.32,1278.85-3171.45,1277.05-3169.21,1275.76Z" transform="translate(3332.57 -1049.53)"/>
          <path class="cls-17" d="M-3168.56,1276.27l4.92-2.45c2.65-1.53,7.83-2.36,10.12-1l3,1.3c.19-.11,4.56,2.22,4.8,2.22s3.79,2,3.94,2.09l21.59,12.45,4.54,2.61,26.23,15.12c.11.06,2.36,1.4,2.41,1.5a3.56,3.56,0,0,1,1.34,1.47c.7,1.49-.11,3.24-2.3,4.51l-4.92,2.45c-2.64,1.53-7.83,2.36-10.12,1l-3-1.3c-.18.1-4.56-2.22-4.8-2.22s-3.79-2-3.94-2.09l-21.59-12.45-4.54-2.61-26.23-15.12c-.11-.07-2.36-1.4-2.41-1.5a3.62,3.62,0,0,1-1.34-1.47C-3171.56,1279.29-3170.75,1277.54-3168.56,1276.27Z" transform="translate(3332.57 -1049.53)"/>
          <path d="M-3104.78,1319.32l-31.92-18.42-31.92-18.43c-2.52-1.46-2.2-4,.71-5.68l4.74-2.32c2.91-1.68,7.32-1.87,9.84-.41l31.92,18.43,31.92,18.43c2.52,1.45,2.21,4-.71,5.68l-4.74,2.32C-3097.85,1320.6-3102.26,1320.78-3104.78,1319.32Z" transform="translate(3332.57 -1049.53)"/>
        </g>
        <g>
          <path class="cls-18" d="M-3101,1316.19l-57.26-33.06c-6.46-3.73-11.7-13.73-11.7-22.34V1108.28c0-4.38-3.6-5.34-1.41-6.92.08-.06,5.11-2.34,5.2-2.38a8.45,8.45,0,0,1,7.91.46l57.26,33.06c6.46,3.73,11.7,13.74,11.7,22.35v152.5c0,4.58-1.48,7.84-3.83,9.33-.14.09-6.2,3-6.36,3C-3101.59,1320.4-3098.19,1317.82-3101,1316.19Z" transform="translate(3332.57 -1049.53)"/>
          <path class="cls-19" d="M-3101.54,1132.68l-57.27-33.06c-3.05-1.76,54.1,34.11,54.1,34.11,6.46,3.73,11.7,13.74,11.7,22.35,0,0,3.16,156,3.16,151.45V1155C-3089.85,1146.41-3095.08,1136.41-3101.54,1132.68Z" transform="translate(3332.57 -1049.53)"/>
          <path class="cls-20" d="M-3105.46,1318.23l-57.27-33.06c-6.46-3.73-11.69-13.74-11.69-22.35v-152.5c0-8.62,5.23-12.57,11.69-8.84l57.27,33.06c6.46,3.73,11.69,13.73,11.69,22.34v152.51C-3093.77,1318-3099,1322-3105.46,1318.23Z" transform="translate(3332.57 -1049.53)"/>
          <path class="cls-21" d="M-3106.48,1318.78l-57.27-33.06c-6.46-3.73-11.69-13.74-11.69-22.35v-152.5c0-8.61,5.23-12.57,11.69-8.84l57.27,33.06c6.46,3.73,11.69,13.73,11.69,22.34v152.51C-3094.79,1318.55-3100,1322.51-3106.48,1318.78Z" transform="translate(3332.57 -1049.53)"/>
          <path class="cls-22" d="M-3173.85,1264.38V1111.7c0-7.55,4.59-11,10.26-7.76l57,32.89c5.66,3.27,10.25,12,10.25,19.59v152.69c0,7.55-4.59,11-10.25,7.75l-57-32.89C-3169.26,1280.71-3173.85,1271.93-3173.85,1264.38Z" transform="translate(3332.57 -1049.53)"/>
          <path class="cls-23" d="M-3171.57,1265.31V1113.4c0-6.32,3.84-9.23,8.58-6.49l55.75,32.18c4.74,2.74,8.58,10.08,8.58,16.4v151.92c0,6.32-3.84,9.22-8.58,6.49l-55.75-32.19C-3167.73,1279-3171.57,1271.63-3171.57,1265.31Z" transform="translate(3332.57 -1049.53)"/>
          <path class="cls-24" d="M-3162.34,1108.59c-4.47-2.58-8.09-.52-8.09,4.61v153.63c0,5.12,3.62,11.37,8.09,14l54.45,31.44c4.47,2.57,8.09.51,8.09-4.62V1154c0-5.13-3.62-11.37-8.09-14Z" transform="translate(3332.57 -1049.53)"/>
          <path class="cls-25" d="M-3170.43,1255.76v11.07c0,5.12,3.62,11.37,8.09,14l54.45,31.44c4.47,2.57,8.09.51,8.09-4.62v-11.06Z" transform="translate(3332.57 -1049.53)"/>
          <path class="cls-26" d="M-3093.25,1192.72v-10.29a4.28,4.28,0,0,1,1.79-3.42h0c1-.57,1.79,0,1.79,1.35v10.3a4.27,4.27,0,0,1-1.79,3.41h0C-3092.45,1194.64-3093.25,1194-3093.25,1192.72Z" transform="translate(3332.57 -1049.53)"/>
          <path class="cls-27" d="M-3092.17,1193.9c-.51,0-.69-.64-.69-1.18v-10.29a3.94,3.94,0,0,1,1.59-3.09,1.15,1.15,0,0,1,.52-.16c.51,0,.69.64.69,1.18v10.3a3.93,3.93,0,0,1-1.59,3.08A1.18,1.18,0,0,1-3092.17,1193.9Z" transform="translate(3332.57 -1049.53)"/>
          <path class="cls-28" d="M-3092.33,1193v-10.29a3.93,3.93,0,0,1,1.59-3.08,1.13,1.13,0,0,1,.46-.15.54.54,0,0,0-.47-.28,1.15,1.15,0,0,0-.52.16,3.94,3.94,0,0,0-1.59,3.09v10.29c0,.54.18,1.18.69,1.18h.06A1.68,1.68,0,0,1-3092.33,1193Z" transform="translate(3332.57 -1049.53)"/>
        </g>
        <g>
          <ellipse class="cls-29" cx="-3148.92" cy="1224.77" rx="8.83" ry="19.67" transform="translate(1927.1 -2718.92) rotate(-37.68)"/>
          <path class="cls-30" d="M-3134.88,1196c-10.57-6.11-19.18-1.2-19.18,10.93s8.61,27,19.18,33.07,19.17,1.2,19.17-10.93S-3124.31,1202.11-3134.88,1196Z" transform="translate(3332.57 -1049.53)"/>
          <path class="cls-30" d="M-3131,1238.5c-10.58-6.11-19.18-21-19.18-33.08,0-5.68,1.89-9.78,5-11.9-5.34.83-8.89,5.63-8.89,13.42,0,12.13,8.61,27,19.18,33.07,5.62,3.24,10.68,3.38,14.19,1C-3123.67,1241.45-3127.2,1240.68-3131,1238.5Z" transform="translate(3332.57 -1049.53)"/>
          <g>
            <path class="cls-31" d="M-3134.38,1222.42c2.62,1.51,4.76.29,4.76-2.71v-8.4a10.51,10.51,0,0,0-4.76-8.2c-2.61-1.51-4.75-.29-4.75,2.71v8.4A10.52,10.52,0,0,0-3134.38,1222.42Z" transform="translate(3332.57 -1049.53)"/>
            <path class="cls-31" d="M-3127.43,1218c-.44-.26-.79,0-.79.45v2.1c0,3.89-2.76,5.47-6.16,3.51a13.6,13.6,0,0,1-6.15-10.62v-2.1a1.75,1.75,0,0,0-.8-1.37c-.44-.25-.79,0-.79.45v2.1c0,4.44,2.85,9.76,6.55,12.55v4a1.36,1.36,0,0,0-1.58,1.54l5.55,3.2a5.33,5.33,0,0,0-1.59-3.37v-4c3.71,1.48,6.55-.55,6.55-5v-2.1A1.72,1.72,0,0,0-3127.43,1218Z" transform="translate(3332.57 -1049.53)"/>
          </g>
        </g>
        <g>
          <path class="cls-32" d="M-3114,1145.58l6.93,4c.26.15.48,0,.48-.28a1.06,1.06,0,0,0-.48-.82l-6.93-4c-.26-.16-.48,0-.48.27A1.06,1.06,0,0,0-3114,1145.58Zm6.93,5.38-6.93-4c-.26-.16-.48,0-.48.27a1.06,1.06,0,0,0,.48.82l6.93,4c.26.16.48,0,.48-.27A1.06,1.06,0,0,0-3107.11,1151Zm0,2.47-6.93-4c-.26-.15-.48,0-.48.28a1.06,1.06,0,0,0,.48.82l6.93,4c.26.15.48,0,.48-.27A1.06,1.06,0,0,0-3107.11,1153.43Z" transform="translate(3332.57 -1049.53)"/>
          <g>
            <path class="cls-32" d="M-3156.51,1121.65c0,.73-.51,1-1.15.65a2.53,2.53,0,0,1-1.16-2c0-.73.52-1,1.16-.65A2.51,2.51,0,0,1-3156.51,1121.65Z" transform="translate(3332.57 -1049.53)"/>
            <path class="cls-32" d="M-3160,1119.62c0,.73-.52,1-1.15.66a2.55,2.55,0,0,1-1.16-2c0-.73.52-1,1.16-.66A2.56,2.56,0,0,1-3160,1119.62Z" transform="translate(3332.57 -1049.53)"/>
            <path class="cls-32" d="M-3163.47,1117.6c0,.73-.52,1-1.15.66a2.55,2.55,0,0,1-1.16-2c0-.73.52-1,1.16-.66A2.56,2.56,0,0,1-3163.47,1117.6Z" transform="translate(3332.57 -1049.53)"/>
          </g>
          <path class="cls-33" d="M-3136.32,1287.49l1.1,1.9a2.86,2.86,0,0,1-2.56-.36,8.73,8.73,0,0,1-3.76-5.5l-1.4-.51a11.94,11.94,0,0,0,5.16,7.64,3.85,3.85,0,0,0,3.57.46l1.15,2,1.15-4.41Zm-4-7.8a2.9,2.9,0,0,1,2.56.36,8.75,8.75,0,0,1,3.77,5.5l1.39.51a11.92,11.92,0,0,0-5.16-7.63,3.84,3.84,0,0,0-3.56-.47l-1.16-2-1.15,4.42,4.41,1.2Z" transform="translate(3332.57 -1049.53)"/>
          <polygon class="cls-33" points="218.16 249.97 223.27 252.92 223.27 249.37 218.16 246.42 218.16 243.89 213.29 245.38 218.16 252.49 218.16 249.97"/>
          <path class="cls-33" d="M-3163.78,1272.37l3.45,7.51,6.41-6.73c.23-.24.07-.84-.3-1.17l-2-1.8c-.26-.23-.54-.26-.66,0l-3.48,5.87-1.51-3.62a1.09,1.09,0,0,0-.65-.65l-1-.19C-3163.86,1271.47-3164,1271.88-3163.78,1272.37Z" transform="translate(3332.57 -1049.53)"/>
        </g>
        <g>
          <circle class="cls-34" cx="167.11" cy="66.8" r="10.42"/>
          <circle class="cls-35" cx="159.73" cy="62.58" r="7.89"/>
          <path class="cls-36" d="M-3175.93,1113.85a5.93,5.93,0,0,0,2.42-8,5.92,5.92,0,0,0-8-2.41,5.91,5.91,0,0,0-2.42,8A5.92,5.92,0,0,0-3175.93,1113.85Z" transform="translate(3332.57 -1049.53)"/>
        </g>
        <g>
          <path class="cls-32" d="M-3158.79,1141.6c-.28-.16-.51,0-.51.29v1.41a1.15,1.15,0,0,0,.51.89c.28.16.51,0,.51-.29v-1.41A1.13,1.13,0,0,0-3158.79,1141.6Z" transform="translate(3332.57 -1049.53)"/>
          <path class="cls-32" d="M-3156.71,1142.76c-.29-.16-.52,0-.52.29v1.49a1.11,1.11,0,0,0,.52.88c.28.17.51,0,.51-.29v-1.48A1.15,1.15,0,0,0-3156.71,1142.76Z" transform="translate(3332.57 -1049.53)"/>
          <path class="cls-32" d="M-3154.64,1142.82c-.28-.16-.51,0-.51.3v3.75a1.15,1.15,0,0,0,.51.89c.28.16.51,0,.51-.3v-3.75A1.15,1.15,0,0,0-3154.64,1142.82Z" transform="translate(3332.57 -1049.53)"/>
          <path class="cls-32" d="M-3152.56,1145.11c-.29-.17-.52,0-.52.29V1147a1.12,1.12,0,0,0,.52.89c.28.16.51,0,.51-.29V1146A1.13,1.13,0,0,0-3152.56,1145.11Z" transform="translate(3332.57 -1049.53)"/>
          <path class="cls-32" d="M-3150.49,1145.31c-.28-.17-.51,0-.51.29v3.58a1.15,1.15,0,0,0,.51.89c.29.16.51,0,.51-.3v-3.58A1.1,1.1,0,0,0-3150.49,1145.31Z" transform="translate(3332.57 -1049.53)"/>
          <path class="cls-32" d="M-3148.41,1143.49c-.29-.16-.52,0-.52.29v9.61a1.12,1.12,0,0,0,.52.89c.28.16.51,0,.51-.29v-9.61A1.13,1.13,0,0,0-3148.41,1143.49Z" transform="translate(3332.57 -1049.53)"/>
          <path class="cls-32" d="M-3146.34,1141.58c-.28-.17-.51,0-.51.29v15.83a1.15,1.15,0,0,0,.51.89c.28.16.51-1.71.51-2v-14.1A1.13,1.13,0,0,0-3146.34,1141.58Z" transform="translate(3332.57 -1049.53)"/>
          <path class="cls-32" d="M-3144.26,1145c-.29-.16-.52,0-.52.29v11.4a1.12,1.12,0,0,0,.52.89c.28.16.51,0,.51-.29v-11.4A1.15,1.15,0,0,0-3144.26,1145Z" transform="translate(3332.57 -1049.53)"/>
          <path class="cls-32" d="M-3142.19,1145.17c-.28-.16-.51,0-.51.3v13.43a1.13,1.13,0,0,0,.51.88c.28.17.51,0,.51-.29v-13.43A1.15,1.15,0,0,0-3142.19,1145.17Z" transform="translate(3332.57 -1049.53)"/>
          <path class="cls-32" d="M-3140.11,1143.94c-.29-.16-.52,0-.52.29v18.3a1.11,1.11,0,0,0,.52.88c.28.17.51,0,.51-.29v-18.29A1.15,1.15,0,0,0-3140.11,1143.94Z" transform="translate(3332.57 -1049.53)"/>
          <path class="cls-32" d="M-3138,1141.27c-.28-.16-.51,0-.51.29v26a1.13,1.13,0,0,0,.51.89c.28.16.51,0,.51-.29v-26A1.13,1.13,0,0,0-3138,1141.27Z" transform="translate(3332.57 -1049.53)"/>
          <path class="cls-32" d="M-3136,1145.87c-.29-.17-.52,0-.52.29v19.23a1.13,1.13,0,0,0,.52.89c.28.16.51,0,.51-.3v-19.23A1.13,1.13,0,0,0-3136,1145.87Z" transform="translate(3332.57 -1049.53)"/>
          <path class="cls-32" d="M-3133.89,1149c-.28-.17-.51,0-.51.29v15.37a1.15,1.15,0,0,0,.51.89c.28.16.51,0,.51-.3v-15.37A1.13,1.13,0,0,0-3133.89,1149Z" transform="translate(3332.57 -1049.53)"/>
          <path class="cls-32" d="M-3131.81,1147.32c-.29-.16-.52,0-.52.3v21.11a1.13,1.13,0,0,0,.52.89c.28.16.51,0,.51-.3v-21.11A1.15,1.15,0,0,0-3131.81,1147.32Z" transform="translate(3332.57 -1049.53)"/>
          <path class="cls-32" d="M-3129.74,1151.49c-.28-.17-.51,0-.51.29V1167a1.15,1.15,0,0,0,.51.89c.29.16.52,0,.52-.3v-15.18A1.11,1.11,0,0,0-3129.74,1151.49Z" transform="translate(3332.57 -1049.53)"/>
          <path class="cls-32" d="M-3127.66,1154.26c-.29-.17-.52,0-.52.29v12a1.11,1.11,0,0,0,.52.88c.28.17.51,0,.51-.29v-12A1.13,1.13,0,0,0-3127.66,1154.26Z" transform="translate(3332.57 -1049.53)"/>
          <path class="cls-32" d="M-3125.59,1156.73c-.28-.16-.51,0-.51.29v9.49a1.15,1.15,0,0,0,.51.89c.29.16.51,0,.51-.3v-9.49A1.1,1.1,0,0,0-3125.59,1156.73Z" transform="translate(3332.57 -1049.53)"/>
          <path class="cls-32" d="M-3123.51,1158.8c-.29-.16-.52,0-.52.3v7.73a1.13,1.13,0,0,0,.52.89c.28.16.51,0,.51-.3v-7.73A1.15,1.15,0,0,0-3123.51,1158.8Z" transform="translate(3332.57 -1049.53)"/>
          <path class="cls-32" d="M-3121.44,1158.86c-.28-.17-.51,0-.51.29v10a1.15,1.15,0,0,0,.51.89c.29.16.51,0,.51-.29v-10A1.1,1.1,0,0,0-3121.44,1158.86Z" transform="translate(3332.57 -1049.53)"/>
          <path class="cls-32" d="M-3119.36,1162.2c-.29-.17-.52,0-.52.29v5.74a1.12,1.12,0,0,0,.52.89c.28.16.51,0,.51-.29v-5.75A1.11,1.11,0,0,0-3119.36,1162.2Z" transform="translate(3332.57 -1049.53)"/>
          <path class="cls-32" d="M-3117.29,1165.39c-.28-.16-.51,0-.51.29v1.75a1.13,1.13,0,0,0,.51.89c.29.16.52,0,.52-.29v-1.75A1.12,1.12,0,0,0-3117.29,1165.39Z" transform="translate(3332.57 -1049.53)"/>
          <path class="cls-32" d="M-3115.21,1165c-.29-.16-.52,0-.52.3v4.92a1.11,1.11,0,0,0,.52.88c.28.17.51,0,.51-.29v-4.92A1.15,1.15,0,0,0-3115.21,1165Z" transform="translate(3332.57 -1049.53)"/>
          <path class="cls-32" d="M-3113.14,1168c-.28-.16-.51,0-.51.29v1.33a1.13,1.13,0,0,0,.51.88c.29.17.52,0,.52-.29v-1.32A1.12,1.12,0,0,0-3113.14,1168Z" transform="translate(3332.57 -1049.53)"/>
          <path class="cls-32" d="M-3111.06,1169c-.29-.16-.52,0-.52.3V1171a1.11,1.11,0,0,0,.52.88c.28.17.51,0,.51-.29v-1.73A1.15,1.15,0,0,0-3111.06,1169Z" transform="translate(3332.57 -1049.53)"/>
        </g>
        <g class="cls-37">
          <path class="cls-38" d="M-3172,1236.52c-.31.18-.55,0-.55-.31v-3.38a1.22,1.22,0,0,1,.55-1c.3-.17.55,0,.55.32v3.38A1.21,1.21,0,0,1-3172,1236.52Z" transform="translate(3332.57 -1049.53)"/>
          <path class="cls-39" d="M-3169.82,1236.58c-.31.17-.55,0-.55-.32v-6.06a1.22,1.22,0,0,1,.55-1c.3-.17.55,0,.55.32v6.07A1.23,1.23,0,0,1-3169.82,1236.58Z" transform="translate(3332.57 -1049.53)"/>
          <path class="cls-40" d="M-3167.59,1234c-.31.18-.55,0-.55-.32v-3.46a1.2,1.2,0,0,1,.55-1c.3-.18.55,0,.55.32V1233A1.23,1.23,0,0,1-3167.59,1234Z" transform="translate(3332.57 -1049.53)"/>
          <path class="cls-41" d="M-3165.36,1235c-.31.18-.55,0-.55-.31v-8.06a1.22,1.22,0,0,1,.55-1c.3-.17.55,0,.55.32v8.06A1.23,1.23,0,0,1-3165.36,1235Z" transform="translate(3332.57 -1049.53)"/>
          <path class="cls-42" d="M-3163.13,1232.4c-.31.18-.55,0-.55-.31v-5.44a1.19,1.19,0,0,1,.55-1c.3-.18.55,0,.55.31v5.44A1.21,1.21,0,0,1-3163.13,1232.4Z" transform="translate(3332.57 -1049.53)"/>
          <path class="cls-43" d="M-3160.9,1230.18c-.3.17-.55,0-.55-.32v-3.56a1.21,1.21,0,0,1,.55-1c.31-.18.55,0,.55.31v3.56A1.22,1.22,0,0,1-3160.9,1230.18Z" transform="translate(3332.57 -1049.53)"/>
          <path class="cls-44" d="M-3158.67,1232.27c-.3.18-.55,0-.55-.31v-10.33a1.25,1.25,0,0,1,.55-1c.31-.17.55,0,.55.32v10.33A1.19,1.19,0,0,1-3158.67,1232.27Z" transform="translate(3332.57 -1049.53)"/>
          <path class="cls-45" d="M-3156.44,1234.47c-.31.18-.55,0-.55-.31v-17.31a1.2,1.2,0,0,1,.55-.95c.3-.17.55,0,.55.32v17.3A1.23,1.23,0,0,1-3156.44,1234.47Z" transform="translate(3332.57 -1049.53)"/>
          <path class="cls-46" d="M-3154.21,1232.53c-.3.17-.55,0-.55-.32v-16a1.23,1.23,0,0,1,.55-1c.31-.18.55,0,.55.31v16A1.22,1.22,0,0,1-3154.21,1232.53Z" transform="translate(3332.57 -1049.53)"/>
          <path class="cls-47" d="M-3152,1234.34c-.3.18-.55,0-.55-.31v-22.2a1.21,1.21,0,0,1,.55-.95c.31-.18.55,0,.55.31v22.2A1.19,1.19,0,0,1-3152,1234.34Z" transform="translate(3332.57 -1049.53)"/>
          <path class="cls-48" d="M-3149.75,1235.14c-.3.18-.55,0-.55-.32v-26.36a1.21,1.21,0,0,1,.55-1c.31-.18.55,0,.55.31v26.37A1.2,1.2,0,0,1-3149.75,1235.14Z" transform="translate(3332.57 -1049.53)"/>
          <path class="cls-49" d="M-3147.52,1230.92c-.3.17-.55,0-.55-.32v-20.5a1.23,1.23,0,0,1,.55-.95c.31-.17.55,0,.55.32V1230A1.2,1.2,0,0,1-3147.52,1230.92Z" transform="translate(3332.57 -1049.53)"/>
          <path class="cls-50" d="M-3145.29,1225c-.3.18-.55,0-.55-.31v-11.28a1.25,1.25,0,0,1,.55-1c.31-.17.55,0,.55.32v11.28A1.19,1.19,0,0,1-3145.29,1225Z" transform="translate(3332.57 -1049.53)"/>
          <path class="cls-51" d="M-3143.06,1226.88c-.3.18-.55,0-.55-.31V1209a1.21,1.21,0,0,1,.55-1c.31-.18.55,0,.55.31v17.58A1.19,1.19,0,0,1-3143.06,1226.88Z" transform="translate(3332.57 -1049.53)"/>
          <path class="cls-52" d="M-3140.83,1222.93c-.3.18-.55,0-.55-.31V1211a1.25,1.25,0,0,1,.55-1c.31-.17.55,0,.55.32V1222A1.2,1.2,0,0,1-3140.83,1222.93Z" transform="translate(3332.57 -1049.53)"/>
          <path class="cls-53" d="M-3138.6,1218.31c-.3.18-.55,0-.55-.31v-4.92a1.21,1.21,0,0,1,.55-.95c.31-.18.56,0,.56.31v4.92A1.21,1.21,0,0,1-3138.6,1218.31Z" transform="translate(3332.57 -1049.53)"/>
          <path class="cls-54" d="M-3136.37,1215.33c-.3.18-.55,0-.55-.31v-1.54a1.21,1.21,0,0,1,.55-1c.31-.18.56,0,.56.31v1.54A1.2,1.2,0,0,1-3136.37,1215.33Z" transform="translate(3332.57 -1049.53)"/>
        </g>
        <g class="cls-55">
          <path class="cls-56" d="M-3165.49,1159.68l1,.61v3.1l1.12.65v-3.11l1,.61v7.62l-1-.6v-3.43l-1.12-.65v3.43l-1-.6Z" transform="translate(3332.57 -1049.53)"/>
          <path class="cls-56" d="M-3161.17,1169.41a3.26,3.26,0,0,1-.41-1.65v-4c0-.61.13-1,.41-1.18s.66-.12,1.17.18a3,3,0,0,1,1.18,1.18,3.36,3.36,0,0,1,.41,1.65v4c0,.61-.14,1-.41,1.18s-.67.12-1.18-.18A3.08,3.08,0,0,1-3161.17,1169.41Zm1.71-.35v-4.16a1.12,1.12,0,0,0-.54-1.06c-.36-.21-.54-.06-.54.44v4.16a1.12,1.12,0,0,0,.54,1.06C-3159.64,1169.71-3159.46,1169.56-3159.46,1169.06Z" transform="translate(3332.57 -1049.53)"/>
          <path class="cls-56" d="M-3158,1164l1,.58.46,6.13h0l.5-5.58,1.14.66.49,6.14h0l.46-5.59.91.52-.68,7.24-1.3-.75-.47-5.42h0l-.48,4.87-1.38-.8Z" transform="translate(3332.57 -1049.53)"/>
          <path class="cls-56" d="M-3150.58,1175.54a3.33,3.33,0,0,1-.39-1.61v-4.1c0-.59.13-1,.39-1.15s.65-.12,1.15.17a2.93,2.93,0,0,1,1.14,1.15,3.31,3.31,0,0,1,.4,1.61v.81l-1-.57V1171a1.09,1.09,0,0,0-.52-1c-.35-.2-.53-.06-.53.41v4.26a1.07,1.07,0,0,0,.53,1c.34.2.52.07.52-.4v-1.16l1,.57v1.07c0,.6-.14,1-.4,1.16s-.64.12-1.14-.17A3,3,0,0,1-3150.58,1175.54Z" transform="translate(3332.57 -1049.53)"/>
          <path class="cls-56" d="M-3146.46,1170.67l1.41.82,1.09,8.25-1.05-.6-.19-1.63v0l-1.19-.68-.19,1.38-1-.56Zm1.14,5.76-.47-4h0l-.45,3.51Z" transform="translate(3332.57 -1049.53)"/>
          <path class="cls-56" d="M-3143.46,1172.4l1.31.76,1,5.15h0v-4.56l.93.53v7.63l-1.07-.62-1.25-6.29h0v5.57l-.93-.54Z" transform="translate(3332.57 -1049.53)"/>
          <path class="cls-56" d="M-3137.89,1175.62l1,.6v7.63l-1-.6Z" transform="translate(3332.57 -1049.53)"/>
          <path class="cls-56" d="M-3134.55,1177.55l1.05.6v3.11l1.12.64v-3.1l1,.6V1187l-1-.61V1183l-1.12-.64v3.43l-1.05-.61Z" transform="translate(3332.57 -1049.53)"/>
          <path class="cls-56" d="M-3130.56,1179.85l2.85,1.65v1.09l-1.81-1v2l1.44.83v1.09l-1.44-.83V1187l1.81,1v1.09l-2.85-1.64Z" transform="translate(3332.57 -1049.53)"/>
          <path class="cls-56" d="M-3127.12,1181.84l1,.6V1189l1.72,1v1.09l-2.77-1.59Z" transform="translate(3332.57 -1049.53)"/>
          <path class="cls-56" d="M-3123.85,1183.73l1.54.88a3,3,0,0,1,1.17,1.16,3.41,3.41,0,0,1,.38,1.63v.75c0,.62-.13,1-.38,1.18s-.65.1-1.17-.2l-.5-.28v3.1l-1-.6Zm1.54,4.32c.17.09.3.11.38,0s.13-.22.13-.48v-.9a1.28,1.28,0,0,0-.13-.63,1,1,0,0,0-.38-.39l-.5-.28v2.34Z" transform="translate(3332.57 -1049.53)"/>
          <path class="cls-56" d="M-3117.71,1191.65l-1.26-5.11,1.11.64.71,3.22h0l.71-2.39,1,.58-1.26,3.65v3.25l-1.05-.6Z" transform="translate(3332.57 -1049.53)"/>
          <path class="cls-56" d="M-3114.77,1196.2a3.36,3.36,0,0,1-.4-1.65v-4c0-.61.13-1,.4-1.18s.67-.11,1.18.18a3.11,3.11,0,0,1,1.18,1.18,3.36,3.36,0,0,1,.41,1.65v4c0,.61-.14,1-.41,1.18s-.67.12-1.18-.18A3,3,0,0,1-3114.77,1196.2Zm1.72-.34v-4.16a1.13,1.13,0,0,0-.54-1.07c-.36-.21-.54-.06-.54.44v4.16a1.14,1.14,0,0,0,.54,1.07C-3113.23,1196.5-3113,1196.36-3113,1195.86Z" transform="translate(3332.57 -1049.53)"/>
          <path class="cls-56" d="M-3110.94,1198.42a3.36,3.36,0,0,1-.4-1.65V1191l1.05.6v5.91a1.35,1.35,0,0,0,.13.64,1,1,0,0,0,.4.4q.26.15.39.06c.09-.07.14-.23.14-.49v-5.9l1,.58v5.81q0,.93-.39,1.2c-.27.17-.66.11-1.16-.18A3,3,0,0,1-3110.94,1198.42Z" transform="translate(3332.57 -1049.53)"/>
          <path class="cls-56" d="M-3106.76,1198.74a1.91,1.91,0,0,1,.11-.7,1.64,1.64,0,0,1,.4-.61,2,2,0,0,0,.46-.69,2.06,2.06,0,0,0,.13-.78,1.39,1.39,0,0,0-.14-.65.87.87,0,0,0-.38-.4c-.18-.1-.31-.12-.39-.05s-.14.23-.14.5v.82l-1-.57v-.75c0-.61.13-1,.39-1.19s.63-.13,1.13.16A3,3,0,0,1-3105,1195a3.41,3.41,0,0,1,.39,1.65,2.14,2.14,0,0,1-.16.87,2.15,2.15,0,0,1-.53.73,2.21,2.21,0,0,0-.42.54,1.18,1.18,0,0,0-.12.53v.42l-.91-.53Zm0,1.29,1,.59v1.15l-1-.58Z" transform="translate(3332.57 -1049.53)"/>
        </g>
        <g class="cls-37">
          <path class="cls-57" d="M-3204.37,1252.11c-.31.18-.56,0-.56-.31v-2a1.21,1.21,0,0,1,.56-1c.3-.17.55,0,.55.32v2A1.21,1.21,0,0,1-3204.37,1252.11Z" transform="translate(3332.57 -1049.53)"/>
          <path class="cls-58" d="M-3202.14,1252.63c-.31.17-.56,0-.56-.32v-5.59a1.21,1.21,0,0,1,.56-1c.3-.18.55,0,.55.32v5.58A1.25,1.25,0,0,1-3202.14,1252.63Z" transform="translate(3332.57 -1049.53)"/>
          <path class="cls-59" d="M-3199.91,1254.82c-.31.18-.56,0-.56-.31V1242a1.2,1.2,0,0,1,.56-1c.3-.18.55,0,.55.31v12.56A1.21,1.21,0,0,1-3199.91,1254.82Z" transform="translate(3332.57 -1049.53)"/>
          <path class="cls-60" d="M-3197.68,1254.46c-.31.18-.56,0-.56-.31v-14.41a1.2,1.2,0,0,1,.56-1c.3-.18.55,0,.55.31v14.41A1.21,1.21,0,0,1-3197.68,1254.46Z" transform="translate(3332.57 -1049.53)"/>
          <path class="cls-61" d="M-3195.45,1257.07c-.31.17-.55,0-.55-.32v-22.2a1.2,1.2,0,0,1,.55-1c.3-.17.55,0,.55.32v22.2A1.23,1.23,0,0,1-3195.45,1257.07Z" transform="translate(3332.57 -1049.53)"/>
          <path class="cls-62" d="M-3193.22,1257.86c-.31.18-.55,0-.55-.31v-26.37a1.2,1.2,0,0,1,.55-1c.3-.18.55,0,.55.32v26.36A1.21,1.21,0,0,1-3193.22,1257.86Z" transform="translate(3332.57 -1049.53)"/>
          <path class="cls-63" d="M-3191,1253.64c-.31.18-.55,0-.55-.31v-20.5a1.19,1.19,0,0,1,.55-.95c.3-.18.55,0,.55.31v20.5A1.21,1.21,0,0,1-3191,1253.64Z" transform="translate(3332.57 -1049.53)"/>
          <path class="cls-64" d="M-3188.76,1247.75c-.31.17-.55,0-.55-.32v-11.28a1.2,1.2,0,0,1,.55-1c.3-.18.55,0,.55.31v11.29A1.23,1.23,0,0,1-3188.76,1247.75Z" transform="translate(3332.57 -1049.53)"/>
          <path class="cls-65" d="M-3186.53,1249.61c-.31.17-.55,0-.55-.32v-17.57a1.22,1.22,0,0,1,.55-1c.3-.17.55,0,.55.32v17.57A1.25,1.25,0,0,1-3186.53,1249.61Z" transform="translate(3332.57 -1049.53)"/>
          <path class="cls-66" d="M-3184.3,1245.65c-.31.18-.55,0-.55-.31v-11.58a1.2,1.2,0,0,1,.55-1c.3-.18.55,0,.55.31v11.58A1.21,1.21,0,0,1-3184.3,1245.65Z" transform="translate(3332.57 -1049.53)"/>
          <path class="cls-67" d="M-3182.07,1241c-.31.17-.55,0-.55-.32v-4.91a1.22,1.22,0,0,1,.55-1c.3-.17.55,0,.55.32v4.91A1.25,1.25,0,0,1-3182.07,1241Z" transform="translate(3332.57 -1049.53)"/>
          <path class="cls-68" d="M-3179.84,1238.06c-.31.18-.55,0-.55-.31v-1.54a1.22,1.22,0,0,1,.55-1c.3-.17.55,0,.55.32v1.54A1.23,1.23,0,0,1-3179.84,1238.06Z" transform="translate(3332.57 -1049.53)"/>
        </g>
      </g>
    </g>
  </g>
</svg>
