<svg xmlns="http://www.w3.org/2000/svg" xmlns:xlink="http://www.w3.org/1999/xlink" viewBox="0 0 286.01 424.45"><defs><style>.cls-1{isolation:isolate;}.cls-2{fill:url(#radial-gradient);}.cls-3{fill:url(#radial-gradient-2);}.cls-4{fill:url(#radial-gradient-3);}.cls-5{opacity:0.2;}.cls-6{opacity:0;}.cls-7{opacity:0.09;}.cls-8{opacity:0.18;}.cls-9{opacity:0.27;}.cls-10{opacity:0.36;}.cls-11{opacity:0.45;}.cls-12{opacity:0.55;}.cls-13{opacity:0.64;}.cls-14{opacity:0.73;}.cls-15{opacity:0.82;}.cls-16{opacity:0.91;}.cls-17{fill:url(#linear-gradient);}.cls-18,.cls-27,.cls-28,.cls-32,.cls-33,.cls-34,.cls-35,.cls-54{mix-blend-mode:color-dodge;}.cls-18{fill:url(#radial-gradient-4);}.cls-19,.cls-36{mix-blend-mode:screen;}.cls-19{opacity:0.6;fill:url(#radial-gradient-5);}.cls-20{fill:#08374f;}.cls-21{fill:url(#linear-gradient-2);}.cls-22{fill:url(#linear-gradient-3);}.cls-23{fill:url(#linear-gradient-4);}.cls-24,.cls-29,.cls-30{fill:#86b3cc;}.cls-24,.cls-29{mix-blend-mode:multiply;}.cls-24,.cls-32,.cls-54{opacity:0.8;}.cls-25{fill:url(#linear-gradient-5);}.cls-26{fill:url(#linear-gradient-6);}.cls-27{fill:url(#radial-gradient-6);}.cls-28{opacity:0.7;fill:url(#radial-gradient-7);}.cls-31{fill:#fff;}.cls-32,.cls-55{fill:#1947ab;}.cls-33{fill:url(#radial-gradient-8);}.cls-34{fill:url(#radial-gradient-9);}.cls-35{fill:url(#radial-gradient-10);}.cls-37{fill:url(#White_Black_Radial);}.cls-38{fill:url(#White_Black_Radial-2);}.cls-39{fill:url(#White_Black_Radial-3);}.cls-40{fill:url(#White_Black_Radial-4);}.cls-41{fill:url(#White_Black_Radial-5);}.cls-42{fill:url(#White_Black_Radial-6);}.cls-43{fill:url(#White_Black_Radial-7);}.cls-44{fill:url(#White_Black_Radial-8);}.cls-45{fill:url(#White_Black_Radial-9);}.cls-46{fill:url(#White_Black_Radial-10);}.cls-47{fill:url(#White_Black_Radial-11);}.cls-48{fill:url(#White_Black_Radial-12);}.cls-49{fill:url(#White_Black_Radial-13);}.cls-50{fill:url(#White_Black_Radial-14);}.cls-51{fill:url(#White_Black_Radial-15);}.cls-52{fill:url(#White_Black_Radial-16);}.cls-53{fill:url(#White_Black_Radial-17);}.cls-56{fill:url(#White_Black_Radial-18);}.cls-57{fill:url(#White_Black_Radial-19);}.cls-58{fill:url(#White_Black_Radial-20);}.cls-59{fill:url(#White_Black_Radial-21);}.cls-60{fill:url(#White_Black_Radial-22);}.cls-61{fill:url(#White_Black_Radial-23);}.cls-62{fill:url(#White_Black_Radial-24);}.cls-63{fill:url(#White_Black_Radial-25);}.cls-64{fill:url(#White_Black_Radial-26);}.cls-65{fill:url(#White_Black_Radial-27);}.cls-66{fill:url(#White_Black_Radial-28);}.cls-67{fill:url(#White_Black_Radial-29);}</style><radialGradient id="radial-gradient" cx="-1418" cy="1420.89" r="145.98" gradientTransform="translate(1469.12 -1853.46) scale(0.93 1.45)" gradientUnits="userSpaceOnUse"><stop offset="0" stop-color="#00a99b"/><stop offset="0.09" stop-color="#00a99b" stop-opacity="0.82"/><stop offset="0.24" stop-color="#00a99b" stop-opacity="0.57"/><stop offset="0.38" stop-color="#00a99b" stop-opacity="0.36"/><stop offset="0.53" stop-color="#00a99b" stop-opacity="0.2"/><stop offset="0.68" stop-color="#00a99b" stop-opacity="0.09"/><stop offset="0.84" stop-color="#00a99b" stop-opacity="0.02"/><stop offset="1" stop-color="#00a99b" stop-opacity="0"/></radialGradient><radialGradient id="radial-gradient-2" cx="-1470.68" cy="1467.14" r="108.85" gradientTransform="translate(1469.12 -1701.45) scale(0.93 1.34)" xlink:href="#radial-gradient"/><radialGradient id="radial-gradient-3" cx="6499.56" cy="-1974.41" r="66.98" gradientTransform="matrix(-1.34, 0, 0, 0.46, 7393.6, 2229.15)" gradientUnits="userSpaceOnUse"><stop offset="0" stop-color="#00a99b" stop-opacity="0.61"/><stop offset="0.07" stop-color="#00a99b" stop-opacity="0.54"/><stop offset="0.35" stop-color="#00a99b" stop-opacity="0.31"/><stop offset="0.61" stop-color="#00a99b" stop-opacity="0.14"/><stop offset="0.84" stop-color="#00a99b" stop-opacity="0.04"/><stop offset="1" stop-color="#00a99b" stop-opacity="0"/></radialGradient><linearGradient id="linear-gradient" x1="-1398.93" y1="1016.89" x2="-1284.55" y2="1215" gradientUnits="userSpaceOnUse"><stop offset="0.06" stop-color="#003641"/><stop offset="0.24" stop-color="#013842"/><stop offset="0.33" stop-color="#064046"/><stop offset="0.41" stop-color="#0e4d4c"/><stop offset="0.47" stop-color="#1a5f55"/><stop offset="0.47" stop-color="#1b6156"/><stop offset="0.48" stop-color="#1f655a"/><stop offset="0.5" stop-color="#2c7268"/><stop offset="0.51" stop-color="#41887d"/><stop offset="0.52" stop-color="#5ea69c"/><stop offset="0.53" stop-color="#70b8ae"/><stop offset="0.54" stop-color="#66aea3"/><stop offset="0.56" stop-color="#458c82"/><stop offset="0.59" stop-color="#2e746a"/><stop offset="0.61" stop-color="#20665b"/><stop offset="0.63" stop-color="#1b6156"/><stop offset="0.69" stop-color="#0c4a4b"/><stop offset="0.76" stop-color="#033b43"/><stop offset="0.81" stop-color="#003641"/><stop offset="1" stop-color="#003641"/></linearGradient><radialGradient id="radial-gradient-4" cx="-1221.18" cy="1097.38" r="214.64" gradientUnits="userSpaceOnUse"><stop offset="0" stop-color="#1f2271"/><stop offset="0.16" stop-color="#1e206c"/><stop offset="0.36" stop-color="#191c5c"/><stop offset="0.58" stop-color="#121443"/><stop offset="0.82" stop-color="#090a20"/><stop offset="1"/></radialGradient><radialGradient id="radial-gradient-5" cx="-1257.09" cy="1082.04" r="126.46" gradientUnits="userSpaceOnUse"><stop offset="0" stop-color="#8afced"/><stop offset="1" stop-color="#054d2d"/></radialGradient><linearGradient id="linear-gradient-2" x1="-1242.34" y1="1334.88" x2="-1419.86" y2="959.76" gradientUnits="userSpaceOnUse"><stop offset="0" stop-color="#1b6156"/><stop offset="0.27" stop-color="#0b4749"/><stop offset="0.49" stop-color="#003641"/><stop offset="1" stop-color="#001a1f"/></linearGradient><linearGradient id="linear-gradient-3" x1="-1372.45" y1="1177.73" x2="-1260.97" y2="1177.73" xlink:href="#linear-gradient-2"/><linearGradient id="linear-gradient-4" x1="-1385.05" y1="1047.41" x2="-1215.43" y2="1370.85" gradientUnits="userSpaceOnUse"><stop offset="0.01" stop-color="#1947ab"/><stop offset="0.43" stop-color="#27bdb6"/><stop offset="0.9" stop-color="#0d405f"/></linearGradient><linearGradient id="linear-gradient-5" x1="-196.1" y1="12144.82" x2="-176.15" y2="12144.82" gradientTransform="matrix(-0.5, 1.44, -0.87, 0.5, 9174.39, -4662.51)" xlink:href="#linear-gradient-2"/><linearGradient id="linear-gradient-6" x1="-1244.83" y1="1141.46" x2="-1258.58" y2="1140.87" gradientUnits="userSpaceOnUse"><stop offset="0" stop-color="#0d405f"/><stop offset="1" stop-color="#27bdb6"/></linearGradient><radialGradient id="radial-gradient-6" cx="-1251.74" cy="1135.6" r="8.08" xlink:href="#radial-gradient-4"/><radialGradient id="radial-gradient-7" cx="6106.3" cy="11915.82" r="32.65" gradientTransform="matrix(0, -0.92, -0.41, 0, 3586.83, 6824.1)" gradientUnits="userSpaceOnUse"><stop offset="0" stop-color="#fff"/><stop offset="0.01" stop-color="#f7f7f7"/><stop offset="0.1" stop-color="#bebebe"/><stop offset="0.19" stop-color="#8b8b8b"/><stop offset="0.29" stop-color="#606060"/><stop offset="0.38" stop-color="#3e3e3e"/><stop offset="0.48" stop-color="#232323"/><stop offset="0.57" stop-color="#0f0f0f"/><stop offset="0.67" stop-color="#040404"/><stop offset="0.77"/></radialGradient><radialGradient id="radial-gradient-8" cx="739.74" cy="-1255.43" r="15.94" gradientTransform="matrix(0.47, 0.88, 0.88, -0.47, 866.8, -1168.05)" gradientUnits="userSpaceOnUse"><stop offset="0.09" stop-color="#fff"/><stop offset="0.1" stop-color="#dee6e7"/><stop offset="0.12" stop-color="#a5bdbf"/><stop offset="0.14" stop-color="#74999c"/><stop offset="0.16" stop-color="#4c7b80"/><stop offset="0.17" stop-color="#2d6469"/><stop offset="0.19" stop-color="#17545a"/><stop offset="0.21" stop-color="#0a4a50"/><stop offset="0.23" stop-color="#05474d"/><stop offset="0.27" stop-color="#04383c"/><stop offset="0.34" stop-color="#022326"/><stop offset="0.42" stop-color="#011315"/><stop offset="0.51" stop-color="#010809"/><stop offset="0.65" stop-color="#000202"/><stop offset="1"/></radialGradient><radialGradient id="radial-gradient-9" cx="728.72" cy="-1262.33" r="12.07" xlink:href="#radial-gradient-8"/><radialGradient id="radial-gradient-10" cx="719.78" cy="-1267.75" r="9.05" gradientTransform="matrix(0.47, 0.88, 0.88, -0.47, -606.5, -211.42)" xlink:href="#radial-gradient-8"/><radialGradient id="White_Black_Radial" cx="-1314.07" cy="-8632.63" r="35.37" gradientTransform="matrix(1, 0, 0, -1, -18.74, -7420.63)" gradientUnits="userSpaceOnUse"><stop offset="0" stop-color="#fff"/><stop offset="1"/></radialGradient><radialGradient id="White_Black_Radial-2" cx="-1314.07" cy="-8632.54" r="35.61" xlink:href="#White_Black_Radial"/><radialGradient id="White_Black_Radial-3" cx="-1314.07" cy="-8632.63" r="35.37" xlink:href="#White_Black_Radial"/><radialGradient id="White_Black_Radial-4" cx="-1314.07" cy="-8635.42" r="37.74" xlink:href="#White_Black_Radial"/><radialGradient id="White_Black_Radial-5" cx="-1314.07" cy="-8632.63" r="35.37" xlink:href="#White_Black_Radial"/><radialGradient id="White_Black_Radial-6" cx="-1314.07" cy="-8629.18" r="31.52" xlink:href="#White_Black_Radial"/><radialGradient id="White_Black_Radial-7" cx="-1314.07" cy="-8632.63" r="35.37" xlink:href="#White_Black_Radial"/><radialGradient id="White_Black_Radial-8" cx="-1314.07" cy="-8635.82" r="42.21" xlink:href="#White_Black_Radial"/><radialGradient id="White_Black_Radial-9" cx="-1314.07" cy="-8632.63" r="35.37" xlink:href="#White_Black_Radial"/><radialGradient id="White_Black_Radial-10" cx="-1314.07" cy="-8635.83" r="42.12" xlink:href="#White_Black_Radial"/><radialGradient id="White_Black_Radial-11" cx="-1314.07" cy="-8638.22" r="46.37" xlink:href="#White_Black_Radial"/><radialGradient id="White_Black_Radial-12" cx="-1314.07" cy="-8632.63" r="35.37" xlink:href="#White_Black_Radial"/><radialGradient id="White_Black_Radial-13" cx="-1314.07" cy="-8623.49" r="20.36" xlink:href="#White_Black_Radial"/><radialGradient id="White_Black_Radial-14" cx="-1314.07" cy="-8629.72" r="31.06" xlink:href="#White_Black_Radial"/><radialGradient id="White_Black_Radial-15" cx="-1314.07" cy="-8623.93" r="23.19" xlink:href="#White_Black_Radial"/><radialGradient id="White_Black_Radial-16" cx="-1314.07" cy="-8615.52" r="15.52" xlink:href="#White_Black_Radial"/><radialGradient id="White_Black_Radial-17" cx="-1314.07" cy="-8609.81" r="14.11" xlink:href="#White_Black_Radial"/><radialGradient id="White_Black_Radial-18" cx="-1380.55" cy="-8662.57" r="30.54" xlink:href="#White_Black_Radial"/><radialGradient id="White_Black_Radial-19" cx="-1380.55" cy="-8663.47" r="29.27" xlink:href="#White_Black_Radial"/><radialGradient id="White_Black_Radial-20" cx="-1380.55" cy="-8666.81" r="34.2" xlink:href="#White_Black_Radial"/><radialGradient id="White_Black_Radial-21" cx="-1380.55" cy="-8666.14" r="32.73" xlink:href="#White_Black_Radial"/><radialGradient id="White_Black_Radial-22" cx="-1380.55" cy="-8670.58" r="42.12" xlink:href="#White_Black_Radial"/><radialGradient id="White_Black_Radial-23" cx="-1380.55" cy="-8672.97" r="46.37" xlink:href="#White_Black_Radial"/><radialGradient id="White_Black_Radial-24" cx="-1380.55" cy="-8667.38" r="35.37" xlink:href="#White_Black_Radial"/><radialGradient id="White_Black_Radial-25" cx="-1380.55" cy="-8658.24" r="20.36" xlink:href="#White_Black_Radial"/><radialGradient id="White_Black_Radial-26" cx="-1380.55" cy="-8664.47" r="31.06" xlink:href="#White_Black_Radial"/><radialGradient id="White_Black_Radial-27" cx="-1380.55" cy="-8658.68" r="23.19" xlink:href="#White_Black_Radial"/><radialGradient id="White_Black_Radial-28" cx="-1380.55" cy="-8650.27" r="15.52" xlink:href="#White_Black_Radial"/><radialGradient id="White_Black_Radial-29" cx="-1380.55" cy="-8644.56" r="14.11" xlink:href="#White_Black_Radial"/></defs><g class="cls-1"><g id="Layer_4" data-name="Layer 4"><ellipse class="cls-2" cx="150.24" cy="212.23" rx="135.78" ry="212.23"/><ellipse class="cls-3" cx="101.24" cy="261.58" rx="101.24" ry="145.65"/><ellipse class="cls-4" cx="-1321.83" cy="1311.69" rx="89.82" ry="31.12" transform="translate(946.94 -1328.68) rotate(-19.93)"/><g class="cls-5"><path class="cls-6" d="M-1257.67,1354.5a18.5,18.5,0,0,1-9.22-2.22l-56-31.86-56-31.86a9.73,9.73,0,0,1-5.28-8.43c0-3.74,2.32-7.22,6.36-9.56l36.64-20.61a22.64,22.64,0,0,1,11.19-2.85,18.47,18.47,0,0,1,9.22,2.22l56,31.86,56,31.86a9.74,9.74,0,0,1,5.28,8.42c0,3.75-2.32,7.23-6.36,9.57l-36.64,20.61A22.64,22.64,0,0,1-1257.67,1354.5Z" transform="translate(1473.3 -956.62)"/><path class="cls-7" d="M-1376.78,1271.36l9.93-5.54c.41-.24,19-10.41,19.4-10.21l6.41-3.13c2.89-1.67,7.13-2.23,10.81-2.23a19,19,0,0,1,8.9,2.32l44.82,25.53,9.56,5.45,54.38,31a11.61,11.61,0,0,1,4.23,4.11,8.73,8.73,0,0,1,1.11,3.92c.11,3.6-2.1,7-6.08,9.3l-9.94,5.55c-.41.23-19,10.4-19.4,10.2l-6.41,3.14c-2.89,1.66-7.13,2.22-10.81,2.22a18.92,18.92,0,0,1-8.89-2.32l-44.83-25.53-9.56-5.45-54.38-31a11.5,11.5,0,0,1-4.22-4.11,8.48,8.48,0,0,1-1.11-3.92C-1383,1277.06-1380.76,1273.66-1376.78,1271.36Z" transform="translate(1473.3 -956.62)"/><path class="cls-8" d="M-1375.79,1272.15l9.67-5.35c.81-.46,18.26-9.64,19-9.24l6.22-2.57c2.6-1.5,7.11-1.59,10.42-1.59a19.63,19.63,0,0,1,8.58,2.41l43.5,24.81,9.28,5.29,52.79,30.1a12.59,12.59,0,0,1,4.17,3.91,8.51,8.51,0,0,1,1.21,3.73c.21,3.45-1.88,6.78-5.8,9l-9.66,5.34c-.81.47-18.26,9.65-19,9.24l-6.21,2.57c-2.6,1.5-7.12,1.6-10.43,1.6a19.63,19.63,0,0,1-8.58-2.42l-43.5-24.8-9.28-5.29-52.79-30.1a12.48,12.48,0,0,1-4.16-3.92,8.38,8.38,0,0,1-1.21-3.72C-1381.8,1277.74-1379.7,1274.4-1375.79,1272.15Z" transform="translate(1473.3 -956.62)"/><path class="cls-9" d="M-1374.8,1272.93l9.4-5.14c1.22-.7,17.48-8.89,18.53-8.28l6-2c2.32-1.33,7.1-1,10-1a20.62,20.62,0,0,1,8.26,2.51l42.19,24.08,9,5.14,51.18,29.22a13.88,13.88,0,0,1,4.12,3.71,8.39,8.39,0,0,1,1.31,3.53c.32,3.31-1.66,6.56-5.51,8.78l-9.4,5.15c-1.21.7-17.47,8.89-18.52,8.28l-6,2c-2.31,1.34-7.1,1-10,1a20.67,20.67,0,0,1-8.26-2.51l-42.19-24.09-9-5.13-51.19-29.22a13.72,13.72,0,0,1-4.11-3.71,8.43,8.43,0,0,1-1.31-3.54C-1380.62,1278.41-1378.64,1275.15-1374.8,1272.93Z" transform="translate(1473.3 -956.62)"/><path class="cls-10" d="M-1373.81,1273.72l9.14-4.94c1.61-.94,16.68-8.14,18.09-7.33l5.83-1.42c2-1.16,7.08-.35,9.65-.35,2.24,0,6.34,1.69,7.94,2.61l40.88,23.36,8.71,5L-1224,1319a15.56,15.56,0,0,1,4.06,3.52,8.49,8.49,0,0,1,1.41,3.34c.43,3.16-1.44,6.34-5.22,8.52l-9.13,4.94c-1.62.94-16.69,8.14-18.09,7.33l-5.84,1.42c-2,1.17-7.08.35-9.65.35-2.23,0-6.34-1.69-7.94-2.61l-40.87-23.36-8.72-5-49.59-28.33a15.67,15.67,0,0,1-4-3.52,8.35,8.35,0,0,1-1.41-3.34C-1379.45,1279.08-1377.59,1275.9-1373.81,1273.72Z" transform="translate(1473.3 -956.62)"/><path class="cls-11" d="M-1372.82,1274.51l8.87-4.74c2-1.17,15.9-7.39,17.65-6.37l5.65-.85c1.73-1,7.06.27,9.27.27,1.91,0,6.24,1.92,7.62,2.71l39.55,22.63,8.44,4.83,48,27.45a18,18,0,0,1,4,3.32,8.47,8.47,0,0,1,1.51,3.15c.54,3-1.22,6.11-4.93,8.25l-8.86,4.75c-2,1.17-15.91,7.38-17.66,6.37l-5.64.84c-1.74,1-7.06-.27-9.27-.27-1.91,0-6.25-1.92-7.62-2.71l-39.55-22.63-8.44-4.82-48-27.46a18.28,18.28,0,0,1-4-3.31,8.39,8.39,0,0,1-1.51-3.15C-1378.28,1279.75-1376.53,1276.65-1372.82,1274.51Z" transform="translate(1473.3 -956.62)"/><path class="cls-12" d="M-1371.82,1275.3l8.59-4.55c2.43-1.4,15.12-6.62,17.22-5.41l5.46-.27c1.44-.83,7,.9,8.88.9,1.59,0,6.15,2.14,7.3,2.8l38.24,21.91,8.15,4.67,46.39,26.57a21.49,21.49,0,0,1,3.95,3.12,8.51,8.51,0,0,1,1.61,3c.65,2.88-1,5.9-4.64,8l-8.6,4.54c-2.42,1.41-15.11,6.63-17.21,5.42l-5.46.27c-1.44.83-7-.9-8.88-.9-1.6,0-6.16-2.14-7.3-2.81l-38.24-21.9-8.15-4.67-46.4-26.57a21.75,21.75,0,0,1-3.94-3.12,8.46,8.46,0,0,1-1.61-3C-1377.11,1280.42-1375.47,1277.4-1371.82,1275.3Z" transform="translate(1473.3 -956.62)"/><path class="cls-13" d="M-1370.83,1276.09l8.33-4.35c2.83-1.63,14.33-5.87,16.78-4.45l5.26.3c1.16-.67,7,1.52,8.5,1.52,1.28,0,6.06,2.37,7,2.9l36.92,21.18,7.87,4.52,44.8,25.69a28,28,0,0,1,3.89,2.92,8.65,8.65,0,0,1,1.71,2.76c.76,2.73-.77,5.67-4.35,7.73l-8.33,4.35c-2.83,1.64-14.33,5.87-16.78,4.45l-5.27-.3c-1.15.67-7-1.52-8.49-1.52-1.28,0-6.07-2.37-7-2.9l-36.92-21.18-7.88-4.52-44.79-25.69a27.19,27.19,0,0,1-3.89-2.91,8.8,8.8,0,0,1-1.71-2.77C-1375.94,1281.09-1374.41,1278.15-1370.83,1276.09Z" transform="translate(1473.3 -956.62)"/><path class="cls-14" d="M-1369.84,1276.88l8.06-4.15c3.24-1.87,13.55-5.12,16.35-3.5l5.07.88c.87-.5,7,2.14,8.11,2.14s6,2.61,6.66,3l35.61,20.46,7.59,4.36,43.2,24.81a25.65,25.65,0,0,1,3.83,2.71,5.8,5.8,0,0,1,1.81,2.58c.88,2.58-.55,5.44-4.06,7.47l-8.06,4.15c-3.24,1.86-13.55,5.11-16.35,3.49l-5.07-.87c-.87.5-7-2.15-8.11-2.15s-6-2.6-6.66-3l-35.61-20.45-7.59-4.36-43.2-24.81a25.69,25.69,0,0,1-3.83-2.72,5.77,5.77,0,0,1-1.81-2.57C-1374.77,1281.76-1373.35,1278.9-1369.84,1276.88Z" transform="translate(1473.3 -956.62)"/><path class="cls-15" d="M-1368.85,1277.66l7.8-3.94c3.64-2.11,12.75-4.36,15.91-2.54l4.88,1.45c.58-.34,7,2.77,7.72,2.77s5.89,2.83,6.35,3.09l34.28,19.73,7.31,4.21,41.6,23.93a35.92,35.92,0,0,1,3.78,2.51,5.7,5.7,0,0,1,1.91,2.38c1,2.44-.33,5.23-3.77,7.21l-7.79,4c-3.65,2.1-12.76,4.36-15.92,2.54l-4.88-1.45c-.58.33-7-2.77-7.72-2.77s-5.89-2.83-6.34-3.1l-34.29-19.72-7.31-4.21-41.6-23.93a34.76,34.76,0,0,1-3.77-2.51,5.62,5.62,0,0,1-1.92-2.39C-1373.61,1282.43-1372.29,1279.65-1368.85,1277.66Z" transform="translate(1473.3 -956.62)"/><path class="cls-16" d="M-1367.85,1278.45l7.52-3.75c4-2.33,12-3.6,15.48-1.58l4.69,2c.29-.17,7,3.39,7.34,3.39s5.79,3.06,6,3.19l33,19,7,4,40,23c.17.1,3.64,2.16,3.72,2.31a5.68,5.68,0,0,1,2,2.19c1.1,2.29-.12,5-3.49,7l-7.53,3.75c-4,2.33-12,3.6-15.47,1.58l-4.69-2c-.29.17-7-3.39-7.34-3.39s-5.8-3.06-6-3.19l-33-19-7-4-40-23.06c-.17-.1-3.63-2.15-3.71-2.31a5.47,5.47,0,0,1-2-2.19C-1372.45,1283.11-1371.23,1280.4-1367.85,1278.45Z" transform="translate(1473.3 -956.62)"/><path d="M-1270.32,1344.29l-48.81-28.19-48.81-28.18c-3.86-2.22-3.37-6.11,1.08-8.68l7.25-3.55c4.46-2.57,11.19-2.85,15-.62l48.82,28.18,48.81,28.18c3.85,2.23,3.37,6.11-1.08,8.68l-7.26,3.55C-1259.73,1346.23-1266.47,1346.51-1270.32,1344.29Z" transform="translate(1473.3 -956.62)"/></g><path class="cls-17" d="M-1264.57,1339.5l-87.56-50.56c-9.88-5.7-17.89-21-17.89-34.17V1021.58c0-6.7-5.5-8.18-2.17-10.59.13-.09,7.82-3.58,8-3.64,3.58-1.37,7.43-2,12.09.71l87.56,50.55c9.88,5.71,17.89,21,17.89,34.17V1326c0,7-2.26,12-5.86,14.27-.22.13-9.48,4.54-9.72,4.62C-1265.45,1345.93-1260.25,1342-1264.57,1339.5Z" transform="translate(1473.3 -956.62)"/><path class="cls-18" d="M-1265.37,1058.88l-87.57-50.55c-4.66-2.7,82.72,52.17,82.72,52.17,9.88,5.7,17.89,21,17.89,34.17,0,0,4.84,238.58,4.84,231.58v-233.2C-1247.49,1079.88-1255.5,1064.58-1265.37,1058.88Z" transform="translate(1473.3 -956.62)"/><path class="cls-19" d="M-1271.37,1342.61l-87.56-50.56c-9.88-5.7-17.89-21-17.89-34.17V1024.69c0-13.17,8-19.23,17.89-13.52l87.56,50.55c9.88,5.71,17.89,21,17.89,34.17v233.2C-1253.48,1342.26-1261.49,1348.31-1271.37,1342.61Z" transform="translate(1473.3 -956.62)"/><path class="cls-20" d="M-1272.93,1343.45l-87.56-50.55c-9.88-5.71-17.89-21-17.89-34.18V1025.53c0-13.17,8-19.22,17.89-13.52l87.56,50.55c9.88,5.71,17.89,21,17.89,34.18v233.19C-1255,1343.1-1263,1349.15-1272.93,1343.45Z" transform="translate(1473.3 -956.62)"/><path class="cls-21" d="M-1375.94,1260.28V1026.79c0-11.54,7-16.85,15.68-11.85l87.1,50.29c8.66,5,15.68,18.41,15.68,30v233.49c0,11.54-7,16.85-15.68,11.85l-87.1-50.29C-1368.92,1285.23-1375.94,1271.82-1375.94,1260.28Z" transform="translate(1473.3 -956.62)"/><path class="cls-22" d="M-1372.45,1261.7V1029.4c0-9.67,5.87-14.11,13.12-9.92l85.24,49.21c7.25,4.18,13.12,15.41,13.12,25.07v232.3c0,9.67-5.87,14.11-13.12,9.92l-85.24-49.21C-1366.58,1282.59-1372.45,1271.36-1372.45,1261.7Z" transform="translate(1473.3 -956.62)"/><path class="cls-23" d="M-1358.34,1022c-6.83-3.94-12.37-.78-12.37,7.06V1264c0,7.84,5.54,17.39,12.37,21.33l83.26,48.08c6.84,3.94,12.37.78,12.37-7.06V1091.45c0-7.84-5.53-17.39-12.37-21.33Z" transform="translate(1473.3 -956.62)"/><path class="cls-24" d="M-1370.71,1247.09V1264c0,7.84,5.54,17.39,12.37,21.33l83.26,48.08c6.84,3.94,12.37.78,12.37-7.06v-16.92Z" transform="translate(1473.3 -956.62)"/><path class="cls-25" d="M-1252.69,1150.69V1135a6.54,6.54,0,0,1,2.73-5.22h0c1.51-.87,2.74,0,2.74,2.06v15.75a6.55,6.55,0,0,1-2.74,5.22h0C-1251.47,1153.63-1252.69,1152.71-1252.69,1150.69Z" transform="translate(1473.3 -956.62)"/><path class="cls-26" d="M-1251,1152.5c-.78,0-1.06-1-1.06-1.81V1135a6,6,0,0,1,2.44-4.71,1.65,1.65,0,0,1,.79-.25c.78,0,1,1,1,1.8v15.75a6,6,0,0,1-2.43,4.71A1.71,1.71,0,0,1-1251,1152.5Z" transform="translate(1473.3 -956.62)"/><path class="cls-27" d="M-1251.29,1151.1v-15.75a6,6,0,0,1,2.43-4.71,1.79,1.79,0,0,1,.7-.23.82.82,0,0,0-.71-.42,1.65,1.65,0,0,0-.79.25,6,6,0,0,0-2.44,4.71v15.74c0,.83.28,1.81,1.06,1.81l.09,0A2.6,2.6,0,0,1-1251.29,1151.1Z" transform="translate(1473.3 -956.62)"/><ellipse class="cls-28" cx="-1337.82" cy="1199.7" rx="13.49" ry="30.07" transform="translate(460.91 -1524.16) rotate(-37.68)"/><path class="cls-29" d="M-1316.35,1155.72c-16.17-9.34-29.32-1.84-29.32,16.71s13.15,41.24,29.32,50.58,29.32,1.83,29.32-16.72S-1300.19,1165.05-1316.35,1155.72Z" transform="translate(1473.3 -956.62)"/><path class="cls-29" d="M-1310.39,1220.69c-16.17-9.34-29.32-32-29.32-50.58,0-8.69,2.89-15,7.62-18.2-8.16,1.27-13.58,8.61-13.58,20.52,0,18.55,13.15,41.24,29.32,50.58,8.59,5,16.33,5.16,21.69,1.48C-1299.21,1225.2-1304.6,1224-1310.39,1220.69Z" transform="translate(1473.3 -956.62)"/><path class="cls-30" d="M-1315.58,1196.11c4,2.3,7.27.44,7.27-4.15v-12.84a16.07,16.07,0,0,0-7.27-12.54c-4-2.31-7.27-.44-7.27,4.15v12.83A16.09,16.09,0,0,0-1315.58,1196.11Z" transform="translate(1473.3 -956.62)"/><path class="cls-30" d="M-1305,1189.3c-.67-.39-1.21-.08-1.21.69v3.21c0,6-4.22,8.36-9.41,5.37s-9.42-10.29-9.42-16.24v-3.21a2.65,2.65,0,0,0-1.21-2.09c-.67-.39-1.21-.08-1.21.69v3.21c0,6.78,4.35,14.91,10,19.19v6.16c-1.43-.16-2.42.69-2.42,2.35l8.48,4.9a8.18,8.18,0,0,0-2.42-5.15v-6.16c5.66,2.26,10-.84,10-7.62v-3.21A2.66,2.66,0,0,0-1305,1189.3Z" transform="translate(1473.3 -956.62)"/><path class="cls-31" d="M-1284.48,1078.61l10.59,6.12c.41.24.74,0,.74-.41a1.59,1.59,0,0,0-.74-1.26l-10.59-6.12c-.41-.24-.74,0-.74.41A1.59,1.59,0,0,0-1284.48,1078.61Zm10.59,8.22-10.59-6.12c-.41-.23-.74,0-.74.42a1.6,1.6,0,0,0,.74,1.26l10.59,6.12c.41.23.74,0,.74-.42A1.6,1.6,0,0,0-1273.89,1086.83Zm0,3.77-10.59-6.11c-.41-.24-.74,0-.74.41a1.59,1.59,0,0,0,.74,1.26l10.59,6.12c.41.24.74,0,.74-.41A1.62,1.62,0,0,0-1273.89,1090.6Z" transform="translate(1473.3 -956.62)"/><path class="cls-31" d="M-1349.42,1042c0,1.12-.79,1.57-1.77,1a3.92,3.92,0,0,1-1.76-3c0-1.12.79-1.57,1.76-1A3.87,3.87,0,0,1-1349.42,1042Z" transform="translate(1473.3 -956.62)"/><path class="cls-31" d="M-1354.75,1038.92c0,1.12-.79,1.57-1.76,1a3.89,3.89,0,0,1-1.77-3c0-1.12.8-1.57,1.77-1A3.92,3.92,0,0,1-1354.75,1038.92Z" transform="translate(1473.3 -956.62)"/><path class="cls-31" d="M-1360.07,1035.82c0,1.12-.79,1.57-1.76,1a3.88,3.88,0,0,1-1.77-3c0-1.12.79-1.57,1.77-1A3.9,3.9,0,0,1-1360.07,1035.82Z" transform="translate(1473.3 -956.62)"/><path class="cls-32" d="M-1318.55,1295.61l1.68,2.9a4.36,4.36,0,0,1-3.91-.55,13.36,13.36,0,0,1-5.76-8.41l-2.13-.78c.86,4.58,4.07,9.47,7.89,11.68,2.1,1.21,4,1.39,5.45.71l1.76,3,1.76-6.76Zm-6.13-11.93a4.39,4.39,0,0,1,3.91.55,13.41,13.41,0,0,1,5.76,8.41l2.13.78c-.86-4.58-4.07-9.47-7.89-11.67-2.1-1.22-4-1.4-5.45-.72l-1.76-3-1.76,6.75,6.74,1.84Z" transform="translate(1473.3 -956.62)"/><polygon class="cls-32" points="188.24 357.35 196.06 361.86 196.06 356.43 188.24 351.92 188.24 348.06 180.8 350.33 188.24 361.21 188.24 357.35"/><path class="cls-32" d="M-1360.54,1272.48l5.27,11.49,9.81-10.29c.34-.36.1-1.28-.47-1.8l-3-2.74c-.39-.36-.82-.39-1-.08l-5.32,9-2.3-5.53a1.61,1.61,0,0,0-1-1l-1.53-.3C-1360.66,1271.1-1360.88,1271.74-1360.54,1272.48Z" transform="translate(1473.3 -956.62)"/><circle class="cls-33" cx="110.19" cy="77.26" r="15.94"/><circle class="cls-34" cx="98.9" cy="70.81" r="12.07"/><path class="cls-35" d="M-1379.13,1030.09a9,9,0,0,0,3.7-12.26,9.06,9.06,0,0,0-12.26-3.7,9.06,9.06,0,0,0-3.69,12.26A9,9,0,0,0-1379.13,1030.09Z" transform="translate(1473.3 -956.62)"/><path class="cls-31" d="M-1352.91,1072.52c-.44-.25-.79,0-.79.45v2.16a1.72,1.72,0,0,0,.79,1.35c.43.25.78,0,.78-.45v-2.15A1.74,1.74,0,0,0-1352.91,1072.52Z" transform="translate(1473.3 -956.62)"/><path class="cls-31" d="M-1349.74,1074.3c-.43-.25-.78,0-.78.45V1077a1.74,1.74,0,0,0,.78,1.36c.43.25.79.05.79-.45v-2.27A1.73,1.73,0,0,0-1349.74,1074.3Z" transform="translate(1473.3 -956.62)"/><path class="cls-31" d="M-1346.57,1074.39c-.43-.25-.78-.05-.78.45v5.74a1.74,1.74,0,0,0,.78,1.36c.44.25.79,0,.79-.45v-5.74A1.72,1.72,0,0,0-1346.57,1074.39Z" transform="translate(1473.3 -956.62)"/><path class="cls-31" d="M-1343.39,1077.89c-.44-.26-.79-.06-.79.44v2.43a1.72,1.72,0,0,0,.79,1.35c.43.25.78.05.78-.45v-2.42A1.72,1.72,0,0,0-1343.39,1077.89Z" transform="translate(1473.3 -956.62)"/><path class="cls-31" d="M-1340.22,1078.19c-.43-.25-.78,0-.78.45v5.47a1.74,1.74,0,0,0,.78,1.36c.44.25.79,0,.79-.45v-5.48A1.72,1.72,0,0,0-1340.22,1078.19Z" transform="translate(1473.3 -956.62)"/><path class="cls-31" d="M-1337,1075.41c-.43-.25-.78-.05-.78.45v14.7a1.72,1.72,0,0,0,.78,1.35c.44.25.79,0,.79-.45v-14.69A1.72,1.72,0,0,0-1337,1075.41Z" transform="translate(1473.3 -956.62)"/><path class="cls-31" d="M-1333.87,1072.49c-.44-.25-.79,0-.79.44v24.22a1.72,1.72,0,0,0,.79,1.35c.43.25.78-2.61.78-3.11v-21.55A1.72,1.72,0,0,0-1333.87,1072.49Z" transform="translate(1473.3 -956.62)"/><path class="cls-31" d="M-1330.7,1077.71c-.43-.25-.79,0-.79.45v17.43a1.73,1.73,0,0,0,.79,1.35c.43.25.78,0,.78-.45v-17.43A1.74,1.74,0,0,0-1330.7,1077.71Z" transform="translate(1473.3 -956.62)"/><path class="cls-31" d="M-1327.53,1078c-.43-.25-.78,0-.78.44V1099a1.74,1.74,0,0,0,.78,1.35c.44.25.79.05.79-.45v-20.54A1.71,1.71,0,0,0-1327.53,1078Z" transform="translate(1473.3 -956.62)"/><path class="cls-31" d="M-1324.35,1076.1c-.44-.25-.79,0-.79.45v28a1.72,1.72,0,0,0,.79,1.36c.43.25.78,0,.78-.45v-28A1.74,1.74,0,0,0-1324.35,1076.1Z" transform="translate(1473.3 -956.62)"/><path class="cls-31" d="M-1321.18,1072c-.44-.25-.79,0-.79.45v39.8a1.71,1.71,0,0,0,.79,1.35c.43.25.78.05.78-.44v-39.81A1.74,1.74,0,0,0-1321.18,1072Z" transform="translate(1473.3 -956.62)"/><path class="cls-31" d="M-1318,1079.05c-.43-.25-.78,0-.78.45v29.4a1.74,1.74,0,0,0,.78,1.36c.44.25.79,0,.79-.45V1080.4A1.71,1.71,0,0,0-1318,1079.05Z" transform="translate(1473.3 -956.62)"/><path class="cls-31" d="M-1314.84,1083.83c-.43-.25-.78,0-.78.45v23.5a1.74,1.74,0,0,0,.78,1.36c.44.25.79,0,.79-.45v-23.5A1.72,1.72,0,0,0-1314.84,1083.83Z" transform="translate(1473.3 -956.62)"/><path class="cls-31" d="M-1311.66,1081.27c-.44-.25-.79,0-.79.45V1114a1.71,1.71,0,0,0,.79,1.35c.43.25.78.05.78-.45v-32.28A1.74,1.74,0,0,0-1311.66,1081.27Z" transform="translate(1473.3 -956.62)"/><path class="cls-31" d="M-1308.49,1087.64c-.43-.25-.78-.05-.78.45v23.21a1.74,1.74,0,0,0,.78,1.36c.44.25.79,0,.79-.45V1089A1.72,1.72,0,0,0-1308.49,1087.64Z" transform="translate(1473.3 -956.62)"/><path class="cls-31" d="M-1305.31,1091.88c-.44-.25-.79-.05-.79.44v18.41a1.72,1.72,0,0,0,.79,1.36c.43.25.78.05.78-.45v-18.41A1.72,1.72,0,0,0-1305.31,1091.88Z" transform="translate(1473.3 -956.62)"/><path class="cls-31" d="M-1302.14,1095.66c-.44-.25-.79-.05-.79.44v14.52a1.72,1.72,0,0,0,.79,1.35c.43.25.78,0,.78-.45V1097A1.72,1.72,0,0,0-1302.14,1095.66Z" transform="translate(1473.3 -956.62)"/><path class="cls-31" d="M-1299,1098.83c-.43-.25-.79,0-.79.45v11.83a1.75,1.75,0,0,0,.79,1.35c.43.25.78,0,.78-.45v-11.83A1.72,1.72,0,0,0-1299,1098.83Z" transform="translate(1473.3 -956.62)"/><path class="cls-31" d="M-1295.8,1098.91c-.43-.25-.78-.05-.78.45v15.33a1.74,1.74,0,0,0,.78,1.35c.44.25.79,0,.79-.45v-15.32A1.72,1.72,0,0,0-1295.8,1098.91Z" transform="translate(1473.3 -956.62)"/><path class="cls-31" d="M-1292.62,1104c-.44-.25-.79,0-.79.45v8.79a1.71,1.71,0,0,0,.79,1.35c.43.25.78.05.78-.44v-8.79A1.76,1.76,0,0,0-1292.62,1104Z" transform="translate(1473.3 -956.62)"/><path class="cls-31" d="M-1289.45,1108.9c-.43-.25-.79-.05-.79.45V1112a1.75,1.75,0,0,0,.79,1.35c.43.25.78,0,.78-.45v-2.67A1.74,1.74,0,0,0-1289.45,1108.9Z" transform="translate(1473.3 -956.62)"/><path class="cls-31" d="M-1286.28,1108.31c-.43-.25-.78,0-.78.45v7.52a1.72,1.72,0,0,0,.78,1.35c.44.25.79,0,.79-.44v-7.53A1.72,1.72,0,0,0-1286.28,1108.31Z" transform="translate(1473.3 -956.62)"/><path class="cls-31" d="M-1283.1,1112.89c-.44-.25-.79-.05-.79.45v2a1.72,1.72,0,0,0,.79,1.35c.43.25.78,0,.78-.45v-2A1.74,1.74,0,0,0-1283.1,1112.89Z" transform="translate(1473.3 -956.62)"/><path class="cls-31" d="M-1279.93,1114.41c-.44-.25-.79-.05-.79.45v2.65a1.71,1.71,0,0,0,.79,1.35c.43.25.78.05.78-.45v-2.64A1.74,1.74,0,0,0-1279.93,1114.41Z" transform="translate(1473.3 -956.62)"/><g class="cls-36"><path class="cls-37" d="M-1373.19,1217.67c-.47.27-.85.06-.85-.48V1212a1.86,1.86,0,0,1,.85-1.46c.47-.27.84,0,.84.48v5.18A1.83,1.83,0,0,1-1373.19,1217.67Z" transform="translate(1473.3 -956.62)"/><path class="cls-38" d="M-1369.78,1217.76c-.47.27-.84,0-.84-.48V1208a1.85,1.85,0,0,1,.84-1.46c.47-.27.84,0,.84.48v9.28A1.85,1.85,0,0,1-1369.78,1217.76Z" transform="translate(1473.3 -956.62)"/><path class="cls-39" d="M-1366.37,1213.8c-.47.27-.84,0-.84-.48V1208a1.84,1.84,0,0,1,.84-1.45c.47-.27.84-.06.84.48v5.29A1.85,1.85,0,0,1-1366.37,1213.8Z" transform="translate(1473.3 -956.62)"/><path class="cls-40" d="M-1363,1215.34c-.47.27-.84.06-.84-.48v-12.32a1.85,1.85,0,0,1,.84-1.46c.47-.27.84,0,.84.48v12.33A1.84,1.84,0,0,1-1363,1215.34Z" transform="translate(1473.3 -956.62)"/><path class="cls-41" d="M-1359.55,1211.37c-.47.27-.84.06-.84-.48v-8.32a1.83,1.83,0,0,1,.84-1.45c.47-.27.84-.06.84.48v8.32A1.84,1.84,0,0,1-1359.55,1211.37Z" transform="translate(1473.3 -956.62)"/><path class="cls-42" d="M-1356.14,1208c-.46.27-.84,0-.84-.48V1202a1.87,1.87,0,0,1,.84-1.46c.47-.27.85,0,.85.48v5.45A1.86,1.86,0,0,1-1356.14,1208Z" transform="translate(1473.3 -956.62)"/><path class="cls-43" d="M-1352.73,1211.17c-.46.27-.84.06-.84-.48v-15.8a1.87,1.87,0,0,1,.84-1.45c.47-.27.85-.06.85.48v15.8A1.85,1.85,0,0,1-1352.73,1211.17Z" transform="translate(1473.3 -956.62)"/><path class="cls-44" d="M-1349.32,1214.53c-.47.27-.84.06-.84-.48v-26.46a1.84,1.84,0,0,1,.84-1.45c.47-.27.84-.06.84.48v26.46A1.84,1.84,0,0,1-1349.32,1214.53Z" transform="translate(1473.3 -956.62)"/><path class="cls-45" d="M-1345.91,1211.56c-.46.27-.84,0-.84-.48v-24.45a1.87,1.87,0,0,1,.84-1.46c.47-.27.85-.05.85.48v24.46A1.85,1.85,0,0,1-1345.91,1211.56Z" transform="translate(1473.3 -956.62)"/><path class="cls-46" d="M-1342.5,1214.34c-.46.27-.84.05-.84-.48v-33.95a1.85,1.85,0,0,1,.84-1.45c.47-.27.85-.06.85.48v33.94A1.86,1.86,0,0,1-1342.5,1214.34Z" transform="translate(1473.3 -956.62)"/><path class="cls-47" d="M-1339.09,1215.56c-.46.26-.84,0-.84-.49v-40.31a1.87,1.87,0,0,1,.84-1.46c.47-.27.85,0,.85.48v40.32A1.86,1.86,0,0,1-1339.09,1215.56Z" transform="translate(1473.3 -956.62)"/><path class="cls-48" d="M-1335.68,1209.1c-.46.27-.84.06-.84-.48v-31.35a1.87,1.87,0,0,1,.84-1.45c.47-.27.85-.06.85.48v31.35A1.85,1.85,0,0,1-1335.68,1209.1Z" transform="translate(1473.3 -956.62)"/><path class="cls-49" d="M-1332.27,1200.08c-.46.27-.84.06-.84-.48v-17.25a1.87,1.87,0,0,1,.84-1.45c.47-.27.85-.06.85.48v17.25A1.84,1.84,0,0,1-1332.27,1200.08Z" transform="translate(1473.3 -956.62)"/><path class="cls-50" d="M-1328.86,1202.93c-.46.27-.84,0-.84-.48v-26.88a1.85,1.85,0,0,1,.84-1.45c.47-.27.85-.06.85.48v26.87A1.86,1.86,0,0,1-1328.86,1202.93Z" transform="translate(1473.3 -956.62)"/><path class="cls-51" d="M-1325.44,1196.89c-.47.27-.85,0-.85-.49v-17.7a1.86,1.86,0,0,1,.85-1.46c.46-.26.84,0,.84.49v17.7A1.87,1.87,0,0,1-1325.44,1196.89Z" transform="translate(1473.3 -956.62)"/><path class="cls-52" d="M-1322,1189.82c-.47.27-.85.06-.85-.48v-7.52a1.85,1.85,0,0,1,.85-1.45c.46-.27.84-.06.84.48v7.52A1.87,1.87,0,0,1-1322,1189.82Z" transform="translate(1473.3 -956.62)"/><path class="cls-53" d="M-1318.62,1185.27c-.47.27-.85.06-.85-.48v-2.35a1.86,1.86,0,0,1,.85-1.46c.46-.27.84,0,.84.48v2.36A1.87,1.87,0,0,1-1318.62,1185.27Z" transform="translate(1473.3 -956.62)"/></g><g class="cls-54"><path class="cls-55" d="M-1363.16,1100.17l1.59.93v4.74l1.72,1v-4.74l1.59.92v11.66l-1.59-.93v-5.24l-1.72-1v5.25l-1.59-.93Z" transform="translate(1473.3 -956.62)"/><path class="cls-55" d="M-1356.56,1115.05a5.21,5.21,0,0,1-.62-2.53v-6.13c0-.93.21-1.53.62-1.8s1-.18,1.8.27a4.54,4.54,0,0,1,1.8,1.81,5.07,5.07,0,0,1,.63,2.52v6.13c0,.93-.21,1.54-.63,1.81s-1,.18-1.8-.28A4.72,4.72,0,0,1-1356.56,1115.05Zm2.63-.53v-6.37a1.71,1.71,0,0,0-.83-1.62c-.55-.32-.83-.1-.83.67v6.36a1.73,1.73,0,0,0,.83,1.63C-1354.21,1115.51-1353.93,1115.28-1353.93,1114.52Z" transform="translate(1473.3 -956.62)"/><path class="cls-55" d="M-1351.64,1106.83l1.54.89.71,9.37,0,0,.76-8.53,1.74,1,.75,9.39,0,0,.71-8.55,1.38.8-1,11.06-2-1.15-.72-8.28,0,0-.73,7.45-2.12-1.23Z" transform="translate(1473.3 -956.62)"/><path class="cls-55" d="M-1340.35,1124.42a5,5,0,0,1-.6-2.46v-6.26c0-.92.2-1.5.6-1.77s1-.18,1.75.26a4.62,4.62,0,0,1,1.75,1.76,5,5,0,0,1,.6,2.46v1.23l-1.51-.87v-1.35a1.64,1.64,0,0,0-.8-1.54c-.53-.31-.8-.1-.8.62V1123a1.64,1.64,0,0,0,.8,1.53c.53.31.8.11.8-.61v-1.78l1.51.87v1.65q0,1.36-.6,1.77c-.41.27-1,.18-1.75-.26A4.48,4.48,0,0,1-1340.35,1124.42Z" transform="translate(1473.3 -956.62)"/><path class="cls-55" d="M-1334.06,1117l2.16,1.25,1.66,12.61-1.6-.92-.29-2.48v0l-1.81-1-.29,2.12-1.48-.86Zm1.74,8.8-.71-6.18h0l-.7,5.36Z" transform="translate(1473.3 -956.62)"/><path class="cls-55" d="M-1329.47,1119.63l2,1.15,1.55,7.88h0v-7l1.42.82v11.66l-1.64-1-1.91-9.62,0,0v8.52l-1.42-.82Z" transform="translate(1473.3 -956.62)"/><path class="cls-55" d="M-1320.95,1124.54l1.59.93v11.66l-1.59-.93Z" transform="translate(1473.3 -956.62)"/><path class="cls-55" d="M-1315.84,1127.49l1.59.93v4.74l1.72,1v-4.74l1.59.92V1142l-1.59-.93v-5.24l-1.72-1v5.25l-1.59-.93Z" transform="translate(1473.3 -956.62)"/><path class="cls-55" d="M-1309.75,1131l4.36,2.52v1.66l-2.76-1.59v3.08l2.19,1.27v1.66l-2.19-1.26v3.58l2.76,1.59v1.67l-4.36-2.52Z" transform="translate(1473.3 -956.62)"/><path class="cls-55" d="M-1304.48,1134.06l1.6.92v10l2.63,1.52v1.66l-4.23-2.43Z" transform="translate(1473.3 -956.62)"/><path class="cls-55" d="M-1299.49,1136.94l2.36,1.36a4.56,4.56,0,0,1,1.78,1.76,5,5,0,0,1,.6,2.49v1.15c0,1-.2,1.55-.6,1.81s-1,.16-1.78-.3l-.76-.44v4.75l-1.6-.92Zm2.36,6.6c.26.15.45.18.58.09s.2-.33.2-.73v-1.39a2,2,0,0,0-.2-1,1.49,1.49,0,0,0-.58-.59l-.76-.43v3.58Z" transform="translate(1473.3 -956.62)"/><path class="cls-55" d="M-1290.09,1149.06l-1.93-7.81,1.69,1,1.09,4.91h0l1.09-3.65,1.55.9-1.93,5.58v5l-1.59-.92Z" transform="translate(1473.3 -956.62)"/><path class="cls-55" d="M-1285.59,1156a5.08,5.08,0,0,1-.63-2.53v-6.13q0-1.39.63-1.8t1.8.27a4.74,4.74,0,0,1,1.8,1.81,5.17,5.17,0,0,1,.62,2.52v6.13c0,.94-.21,1.54-.62,1.81s-1,.18-1.8-.28A4.58,4.58,0,0,1-1285.59,1156Zm2.62-.53v-6.37a1.72,1.72,0,0,0-.82-1.62c-.56-.32-.83-.1-.83.67v6.36a1.71,1.71,0,0,0,.83,1.63C-1283.24,1156.48-1283,1156.25-1283,1155.49Z" transform="translate(1473.3 -956.62)"/><path class="cls-55" d="M-1279.74,1159.4a5.11,5.11,0,0,1-.61-2.52V1148l1.59.93v9a2.07,2.07,0,0,0,.21,1,1.52,1.52,0,0,0,.61.62c.26.15.46.17.6.08s.21-.35.21-.75v-9l1.54.88v8.9c0,.94-.21,1.55-.61,1.82s-1,.18-1.77-.26A4.54,4.54,0,0,1-1279.74,1159.4Z" transform="translate(1473.3 -956.62)"/><path class="cls-55" d="M-1273.36,1159.9a3.22,3.22,0,0,1,.17-1.08,2.84,2.84,0,0,1,.62-.93,3.44,3.44,0,0,0,.71-1.06,3.49,3.49,0,0,0,.19-1.19,2.07,2.07,0,0,0-.21-1,1.53,1.53,0,0,0-.59-.62q-.39-.22-.6-.06c-.13.1-.2.35-.2.75V1156l-1.51-.87V1154q0-1.42.6-1.83c.39-.28,1-.2,1.74.25a4.47,4.47,0,0,1,1.76,1.77,5.21,5.21,0,0,1,.6,2.52,3.45,3.45,0,0,1-.24,1.34,3.37,3.37,0,0,1-.82,1.12,3,3,0,0,0-.64.81,1.86,1.86,0,0,0-.18.82v.64l-1.4-.81Zm-.07,2,1.54.88v1.77l-1.54-.89Z" transform="translate(1473.3 -956.62)"/></g><g class="cls-36"><path class="cls-56" d="M-1422.62,1241.51c-.46.27-.84,0-.84-.48v-3a1.87,1.87,0,0,1,.84-1.45c.47-.27.85,0,.85.48v3A1.86,1.86,0,0,1-1422.62,1241.51Z" transform="translate(1473.3 -956.62)"/><path class="cls-57" d="M-1419.21,1242.3c-.46.26-.84,0-.84-.49v-8.54a1.87,1.87,0,0,1,.84-1.46c.47-.27.85,0,.85.48v8.55A1.86,1.86,0,0,1-1419.21,1242.3Z" transform="translate(1473.3 -956.62)"/><path class="cls-58" d="M-1415.8,1245.66c-.46.27-.84,0-.84-.48V1226a1.87,1.87,0,0,1,.84-1.46c.47-.27.85,0,.85.49v19.2A1.86,1.86,0,0,1-1415.8,1245.66Z" transform="translate(1473.3 -956.62)"/><path class="cls-59" d="M-1412.39,1245.1c-.46.27-.84.06-.84-.48v-22a1.87,1.87,0,0,1,.84-1.46c.47-.27.85-.05.85.48v22A1.85,1.85,0,0,1-1412.39,1245.1Z" transform="translate(1473.3 -956.62)"/><path class="cls-60" d="M-1409,1249.09c-.47.27-.85.05-.85-.48v-33.95a1.84,1.84,0,0,1,.85-1.45c.46-.27.84-.06.84.48v33.94A1.87,1.87,0,0,1-1409,1249.09Z" transform="translate(1473.3 -956.62)"/><path class="cls-61" d="M-1405.56,1250.31c-.47.26-.85,0-.85-.49v-40.31a1.86,1.86,0,0,1,.85-1.46c.46-.27.84,0,.84.48v40.32A1.89,1.89,0,0,1-1405.56,1250.31Z" transform="translate(1473.3 -956.62)"/><path class="cls-62" d="M-1402.15,1243.85c-.47.27-.85.06-.85-.48V1212a1.85,1.85,0,0,1,.85-1.45c.46-.27.84-.06.84.48v31.35A1.87,1.87,0,0,1-1402.15,1243.85Z" transform="translate(1473.3 -956.62)"/><path class="cls-63" d="M-1398.74,1234.83c-.47.27-.85.06-.85-.48V1217.1a1.85,1.85,0,0,1,.85-1.45c.46-.27.84-.06.84.48v17.25A1.85,1.85,0,0,1-1398.74,1234.83Z" transform="translate(1473.3 -956.62)"/><path class="cls-64" d="M-1395.33,1237.68c-.47.27-.85,0-.85-.48v-26.88a1.84,1.84,0,0,1,.85-1.45c.46-.27.84-.06.84.48v26.87A1.87,1.87,0,0,1-1395.33,1237.68Z" transform="translate(1473.3 -956.62)"/><path class="cls-65" d="M-1391.92,1231.64c-.47.26-.85,0-.85-.49v-17.7a1.86,1.86,0,0,1,.85-1.46c.46-.27.84,0,.84.49v17.7A1.87,1.87,0,0,1-1391.92,1231.64Z" transform="translate(1473.3 -956.62)"/><path class="cls-66" d="M-1388.51,1224.57c-.47.27-.85.06-.85-.48v-7.52a1.85,1.85,0,0,1,.85-1.45c.46-.27.84-.06.84.48v7.52A1.87,1.87,0,0,1-1388.51,1224.57Z" transform="translate(1473.3 -956.62)"/><path class="cls-67" d="M-1385.1,1220c-.47.27-.84.06-.84-.48v-2.35a1.85,1.85,0,0,1,.84-1.46c.47-.27.84,0,.84.48v2.36A1.84,1.84,0,0,1-1385.1,1220Z" transform="translate(1473.3 -956.62)"/></g></g></g></svg>