<svg id="Layer_1" data-name="Layer 1" xmlns="http://www.w3.org/2000/svg" viewBox="0 0 100 100"><defs><style>.cls-1{fill:#e3e3e2;}.cls-2{fill:#80c3c9;}.cls-3{fill:#236772;}.cls-4{fill:#2a5f69;}.cls-5{fill:#f3f6fc;}.cls-6{fill:#054853;}.cls-7{fill:#32858f;}.cls-8{fill:#629dae;}.cls-9{fill:#001f27;}.cls-10{fill:#5c8897;}.cls-11{fill:#30818d;}</style></defs><path class="cls-1" d="M-2613.49-980.74a50,50,0,0,0-50,50,49.85,49.85,0,0,0,17.58,38,49.77,49.77,0,0,0,6.4,4.65l.24.14c.33.21.68.41,1,.6l.15.08.51.29,1,.53.52.27,1,.51.47.23c.51.23,1,.46,1.53.68,1.14.49,2.3.93,3.49,1.33h0l.52.17.52.17.52.16.53.16,1,.29a50.08,50.08,0,0,0,12.92,1.69,49.91,49.91,0,0,0,14-2l1.08-.33.46-.14.45-.15q2.34-.79,4.57-1.8l.76-.35.08,0,.42-.2,1-.5.27-.14,1-.55h0l0,0a49.64,49.64,0,0,0,7.45-5,49.92,49.92,0,0,0,18.4-38.75A50,50,0,0,0-2613.49-980.74Z" transform="translate(2663.49 980.74)"/><path class="cls-2" d="M-2584.35-900.92c-1.68-3.66-4.29-6.77-8.2-7.86l-.2-.15-.19-.13-.24-.16-.12-.08-.11-.06-.15-.08-.25-.14-.15-.07-.21-.1-.23-.11,0,0-.06,0-.11-.05-.16-.07-.22-.08h0l-.28-.09-.1,0-.32-.11a32.44,32.44,0,0,0-4-.84l-2-.31a20.42,20.42,0,0,1-2.82-.71c-2.13-.72-4.06-1.89-4.94-3.64h0a5.3,5.3,0,0,1-.39-1.12v0c0-.09,0-.19-.05-.28s0-.2,0-.31a.49.49,0,0,0,0-.12v0a1.94,1.94,0,0,1,0-.24h0a14.93,14.93,0,0,0,7.75-7.06,4.79,4.79,0,0,0,.79-.41,21.7,21.7,0,0,0,5.15-5.57l.06-.1c.19-.1.37-.21.55-.32a20.22,20.22,0,0,0,3.56-2.79,8.77,8.77,0,0,0,2.31-8.58,5.48,5.48,0,0,0-.51-1.31,25.15,25.15,0,0,0-.2-14.26c-1-2.92-3-5.8-5.88-6.72a6.12,6.12,0,0,0-3-1.35l-.36,0a12.3,12.3,0,0,0-.78-1.82h0c-1.52-2.92-4.26-5.63-7.16-5.29-1.59.18-2.95,1.27-4.53,1.58s-3.43-.27-5.16-.46a10.94,10.94,0,0,0-10.57,5.65,24.08,24.08,0,0,0-1.6,4.55,33.79,33.79,0,0,1-3,7.69,15,15,0,0,1-5.69,5.87,8.38,8.38,0,0,0,.92,1,10.75,10.75,0,0,0,6.05,2.56,8.62,8.62,0,0,0,.4,2.12,4.07,4.07,0,0,0-2.13-.27,3.94,3.94,0,0,0-3,2.2c-1.27,2.74.85,6,2.87,7.83,1.27,1.14,3.17,2.06,4.89,1.62a45.18,45.18,0,0,0,.57,4.73c.57,3.1,1.61,6,3.68,7.86a9.65,9.65,0,0,0,5,2.27c0,.1,0,.21-.08.31l0,0-.06.17-.1.27c0,.09-.09.18-.13.26s-.06.11-.08.16l-.13.21-.08.13,0,.06c-.08.11-.15.21-.24.32l0,0c-.11.14-.23.27-.35.4l-.08.07a5.92,5.92,0,0,1-.45.41,9.54,9.54,0,0,1-2.09,1.29,17.42,17.42,0,0,1-4.14,1.23c-1.17.19-2.38.36-3.57.59q-.8.13-1.56.33l-.34.09h0l-.06,0-.24.07h0l-.11,0-.21.06-.29.1-.31.11-.05,0h0l-.16.06-.05,0-.17.07-.2.08h0l-.3.14h0l-.06,0,0,0a3.28,3.28,0,0,0-1.52.12c-4.53,1.35-7,5.14-8.29,9.44a30,30,0,0,0-1.13,7.37,49.77,49.77,0,0,0,6.4,4.65l.24.14c.33.21.68.41,1,.6l.15.08.51.29,1,.53.52.27,1,.51.47.23c.51.23,1,.46,1.53.68,1.14.49,2.3.93,3.49,1.33h0l.52.17.52.17.52.16.53.16,1,.29a50.08,50.08,0,0,0,12.92,1.69,49.91,49.91,0,0,0,14-2l1.08-.33.46-.14.45-.15q2.34-.79,4.57-1.8l.76-.35.08,0,.42-.2,1-.5.27-.14,1-.55h0l0,0a49.64,49.64,0,0,0,7.45-5A31,31,0,0,0-2584.35-900.92Z" transform="translate(2663.49 980.74)"/><path class="cls-3" d="M-2584.35-900.92c-1.68-3.66-4.29-6.77-8.2-7.86h0l-.19-.15-.19-.13-.24-.16-.12-.08-.11-.06-.15-.08-.25-.14-.15-.07-.49-.23-.06,0-.52-.21-.28-.09-.42-.14a29.12,29.12,0,0,0-4-.84h0l-2-.32a17.91,17.91,0,0,1-2.82-.71,9.31,9.31,0,0,1-.73,1.08,12.61,12.61,0,0,1-3.74,3.07,11.63,11.63,0,0,1-5.35,1.41,9.7,9.7,0,0,1-6.11-2,7.35,7.35,0,0,1-2.56-4.09,17.42,17.42,0,0,1-4.14,1.23c-1.17.2-2.38.36-3.57.59h0c-.53.1-1.05.2-1.56.34l-.42.11-.24.07-.11,0-.21.06-.29.1-.31.11-.07,0-.16.06-.22.09-.2.08-.34.16-.06,0,0,0a3.28,3.28,0,0,0-1.52.12c-4.53,1.35-7,5.14-8.29,9.44a30,30,0,0,0-1.13,7.37,49.77,49.77,0,0,0,6.4,4.65l.24.14c.33.21.68.41,1,.6l.15.08.51.29,1,.53.52.27,1,.51.47.23c.51.23,1,.46,1.53.68,1.14.49,2.3.93,3.49,1.33l.52.17.52.17.52.16.53.16,1,.29a50.08,50.08,0,0,0,12.92,1.69,49.91,49.91,0,0,0,14-2l1.08-.33.46-.14c.14-.06.3-.11.45-.16h0q2.34-.79,4.57-1.8l.76-.35.08,0,.42-.2,1-.5.27-.14,1-.55h0l0,0a49.64,49.64,0,0,0,7.45-5A31,31,0,0,0-2584.35-900.92Z" transform="translate(2663.49 980.74)"/><path class="cls-4" d="M-2590.55-958.42c-1-2.92-3-5.8-5.88-6.72a6.12,6.12,0,0,0-3-1.35l-.36,0a12.3,12.3,0,0,0-.78-1.82h0c-1.52-2.92-4.26-5.63-7.16-5.29-1.59.18-2.95,1.27-4.53,1.58s-3.43-.27-5.16-.46a10.94,10.94,0,0,0-10.57,5.65,24.08,24.08,0,0,0-1.6,4.55,33.79,33.79,0,0,1-3,7.69,15,15,0,0,1-5.69,5.87,8.38,8.38,0,0,0,.92,1,10.75,10.75,0,0,0,6.05,2.56,8.62,8.62,0,0,0,.4,2.12,5.08,5.08,0,0,1,.81.4,6.57,6.57,0,0,1,1.16.9c-.05-1.1-.09-2.23-.11-3.36a25,25,0,0,0,9.51-3,24.4,24.4,0,0,0,6.89-4.61c.92-.94,1.75-2,2.71-2.93a12.77,12.77,0,0,1-.9,5.92,12.22,12.22,0,0,1-1.94,3.21,5.94,5.94,0,0,0,2.52,0,11.14,11.14,0,0,0,5.29-2.23l.51-.44v0a17.18,17.18,0,0,1,1.82,5.64,10,10,0,0,1-.91,5.79,4.58,4.58,0,0,0,2.64-.95,19.58,19.58,0,0,0,5.42-5.35,8.34,8.34,0,0,1,2-1.07,3,3,0,0,1,2.15-.1,2.26,2.26,0,0,1,1,1A25.15,25.15,0,0,0-2590.55-958.42Z" transform="translate(2663.49 980.74)"/><path class="cls-5" d="M-2601.73-911.5a17.91,17.91,0,0,1-2.82-.71,9.31,9.31,0,0,1-.73,1.08,12.61,12.61,0,0,1-3.74,3.07,11.63,11.63,0,0,1-5.35,1.41,9.7,9.7,0,0,1-6.11-2,7.35,7.35,0,0,1-2.56-4.09,17.42,17.42,0,0,1-4.14,1.23c-1.17.2-2.38.36-3.57.59.05.46.13.93.21,1.39l.06.28s0,.07,0,.11c.07.3.14.6.22.9a.29.29,0,0,0,0,.09.24.24,0,0,1,0,.08,18.18,18.18,0,0,0,.92,2.56v0c.07.16.15.31.22.47l0,0c.06.14.13.28.2.41a.56.56,0,0,0,0,.08h0c.17.32.35.64.54,1l0,0c.05.09.11.17.16.25s.23.36.35.53l.2.28.06.08.17.23.26.33.14.16,0,.05c.15.18.31.36.47.53l.06.07.17.18.22.22.08.08.17.16.13.12.16.15.22.19.39.32.1.08.2.15.18.13.16.12.38.26.1.06.3.18.2.12.21.12.13.07.33.16.28.14.24.1.16.08.18.07.3.12.19.06.16.06.25.08c4.8,1.5,10.23-.1,14.1-3.32l.2-.17.34-.3.23-.22.39-.37a.94.94,0,0,1,.1-.1c.16-.16.31-.33.46-.5l.15-.16.3-.35.13-.16c.17-.2.33-.41.48-.61l.1-.13.3-.43.15-.21.28-.43.09-.13c.26-.41.5-.83.74-1.25l0,0c.2-.36.4-.74.59-1.11,0,0,0-.1.07-.14.19-.37.37-.73.55-1.1l.08-.17c.19-.39.37-.79.56-1.19s.38-.81.58-1.22h0Z" transform="translate(2663.49 980.74)"/><path class="cls-6" d="M-2593.81-909.58l-.15-.07-.49-.23-.06,0-.52-.21-.28-.09-.42-.14a29.12,29.12,0,0,0-4-.84h0c-.2.41-.39.82-.58,1.22s-.37.8-.56,1.19l-.08.17c-.18.37-.36.73-.55,1.1,0,0-.05.09-.07.14-.2.38-.4.77-.61,1.14s-.48.84-.74,1.25l-.09.13-.28.43-.15.21-.3.43c-.23.3-.46.6-.71.9l-.3.35c-.05,0-.09.11-.15.16s-.3.34-.46.5a.94.94,0,0,0-.1.1l-.39.37-.23.22-.34.3-.2.17c-3.87,3.23-9.3,4.82-14.1,3.32l-.25-.08-.16-.06-.19-.06-.3-.12-.34-.15-.24-.1-.61-.3-.13-.07-.41-.24-.3-.18-.1-.06-.38-.26-.16-.12-.18-.13-.2-.15-.1-.08-.39-.32-.22-.19-.16-.15-.13-.12-.25-.24-.22-.22-.17-.18-.06-.07c-.16-.17-.32-.35-.47-.53l0-.05-.14-.16-.26-.33-.17-.23-.06-.08c-.19-.26-.37-.53-.55-.81,0-.08-.11-.16-.16-.25l0,0c-.19-.31-.37-.63-.54-1l0-.09c-.07-.13-.14-.27-.2-.41l0,0c-.07-.16-.15-.31-.22-.47v0a18.18,18.18,0,0,1-.92-2.56c0-.06,0-.12,0-.17-.08-.3-.15-.6-.22-.9,0-.13-.05-.26-.08-.39-.08-.46-.16-.93-.21-1.39h0c-.53.1-1.05.2-1.56.34l-.42.11-.24.07-.11,0-.21.06-.29.1-.31.11-.07,0-.16.06-.22.09-.2.08-.34.16-.06,0c-.26.13-.5.27-.74.42a26.74,26.74,0,0,0,.74,3.91,28.87,28.87,0,0,0,3.39,8.8,16,16,0,0,0,10.72,7.26,20.49,20.49,0,0,0,4.95.1,24.52,24.52,0,0,0,11.3-3.54,24.73,24.73,0,0,0,4.85-4.23,25.09,25.09,0,0,0,6.43-12.38Z" transform="translate(2663.49 980.74)"/><path class="cls-7" d="M-2633.66-903.74a3.86,3.86,0,0,0,1.18-.86c.41-.37.81-.72,1.2-1.1.22-.2,0-.65-.31-.52a5,5,0,0,0-1.42.86A2.67,2.67,0,0,0-2634-904C-2634-903.87-2633.85-903.67-2633.66-903.74Z" transform="translate(2663.49 980.74)"/><path class="cls-7" d="M-2631.61-900.38a.28.28,0,0,0,.41.16,2.55,2.55,0,0,0,.82-1c.24-.4.45-.8.67-1.21s-.18-.72-.51-.51a3.31,3.31,0,0,0-1.12,1.08A1.81,1.81,0,0,0-2631.61-900.38Z" transform="translate(2663.49 980.74)"/><path class="cls-7" d="M-2628.26-896a.29.29,0,0,0,.51.07,14.51,14.51,0,0,0,1-2.55.49.49,0,0,0-.81-.47A3,3,0,0,0-2628.26-896Z" transform="translate(2663.49 980.74)"/><path class="cls-7" d="M-2623.53-896.41a2.26,2.26,0,0,0-.16,2.68.26.26,0,0,0,.44-.12,5.07,5.07,0,0,0,.19-1.1,7.67,7.67,0,0,1,.27-1.15C-2622.64-896.56-2623.28-896.77-2623.53-896.41Z" transform="translate(2663.49 980.74)"/><path class="cls-7" d="M-2617.67-892.08a.24.24,0,0,0,.35-.2,22.08,22.08,0,0,1-.1-2.7c0-.45-.62-.59-.83-.23A2.33,2.33,0,0,0-2617.67-892.08Z" transform="translate(2663.49 980.74)"/><path class="cls-7" d="M-2612.82-893.13a.34.34,0,0,0,.52-.06,2,2,0,0,0,.13-1.33,2.87,2.87,0,0,0-.48-1.42.43.43,0,0,0-.77.11,2.59,2.59,0,0,0,0,1.46A2,2,0,0,0-2612.82-893.13Z" transform="translate(2663.49 980.74)"/><path class="cls-7" d="M-2608.86-895.72a1.87,1.87,0,0,0,.58,1,.21.21,0,0,0,.25,0,1.12,1.12,0,0,0,.3-1.38,2.16,2.16,0,0,0-1.1-1.29c-.37-.18-.84.21-.6.6A5.5,5.5,0,0,1-2608.86-895.72Z" transform="translate(2663.49 980.74)"/><path class="cls-7" d="M-2605.56-898.79a5.51,5.51,0,0,1,.81.79c.25.32.44.68.67,1a.55.55,0,0,0,1-.28,2.1,2.1,0,0,0-.62-1.63,2.29,2.29,0,0,0-1.52-.75A.51.51,0,0,0-2605.56-898.79Z" transform="translate(2663.49 980.74)"/><path class="cls-7" d="M-2602.52-902.44c.17.46.7.81,1.07,1.14s.66.75,1.15.8c.13,0,.23-.1.27-.21.21-.49-.24-1.09-.52-1.46s-.92-1-1.46-1A.54.54,0,0,0-2602.52-902.44Z" transform="translate(2663.49 980.74)"/><path class="cls-7" d="M-2600-906.6c.38.34.76.67,1.13,1s.63.76,1,1.11a.35.35,0,0,0,.58-.15,2.81,2.81,0,0,0-2.13-2.95C-2599.93-907.67-2600.41-907-2600-906.6Z" transform="translate(2663.49 980.74)"/><path class="cls-8" d="M-2620.95-914c.33.12.64.21.92.3a11.67,11.67,0,0,0,6.7,0,11.49,11.49,0,0,0,3.84-2.09h0a5.3,5.3,0,0,1-.39-1.12v0c0-.09,0-.19-.05-.28s0-.2,0-.31a.49.49,0,0,0,0-.12v0a1.94,1.94,0,0,1,0-.24l-.44.16a18.17,18.17,0,0,1-8.64,1c0,.1,0,.21-.08.31l0,0-.06.17-.1.27c0,.09-.09.18-.13.26s-.06.11-.08.16l-.13.21-.08.13,0,.06c-.08.11-.15.21-.24.32l0,0c-.11.14-.23.27-.35.4l-.08.07Z" transform="translate(2663.49 980.74)"/><path class="cls-8" d="M-2628.63-936.38c-.13-1.69-.27-3.53-.37-5.42a6.57,6.57,0,0,0-1.16-.9,5.08,5.08,0,0,0-.81-.4,4.07,4.07,0,0,0-2.13-.27,3.94,3.94,0,0,0-3,2.2c-1.27,2.74.85,6,2.87,7.83,1.27,1.14,3.17,2.06,4.89,1.62C-2628.44-933.39-2628.52-935-2628.63-936.38Z" transform="translate(2663.49 980.74)"/><path class="cls-4" d="M-2600.16-930.38a32.78,32.78,0,0,1-1.5,4.1q-.28.62-.6,1.2a4.79,4.79,0,0,0,.79-.41,21.7,21.7,0,0,0,5.15-5.57l.06-.1A5,5,0,0,1-2600.16-930.38Z" transform="translate(2663.49 980.74)"/><path class="cls-8" d="M-2599.57-935.68a1.87,1.87,0,0,0,.1,1.36.19.19,0,0,0,.29,0,2.83,2.83,0,0,0,.45-1.17,7.84,7.84,0,0,1,.44-1.23,7.44,7.44,0,0,1,1.54-2.18l.14-.13a.86.86,0,0,1,.23-.06,1.37,1.37,0,0,1,.78.12,2.35,2.35,0,0,1,1.09,1.46c.2.62.33,1.47-.26,1.93a.68.68,0,0,1-.64.12c-.26-.11-.37-.36-.52-.56a.25.25,0,0,0-.43,0,.78.78,0,0,0,.16,1,1.41,1.41,0,0,0,1,.46,1.79,1.79,0,0,0,1.69-1.28,3.52,3.52,0,0,0-.3-2.54,2.71,2.71,0,0,0-1.59-1.52,6.42,6.42,0,0,1,.9-.47,7.51,7.51,0,0,1,1.32-.42,7.33,7.33,0,0,0,1.35-.26c.31-.15.16-.55-.08-.65a3,3,0,0,0-1.51,0,7.34,7.34,0,0,0-1.46.4,7.83,7.83,0,0,0-2.57,1.64,7.46,7.46,0,0,0-1.65,2.5A7,7,0,0,0-2599.57-935.68Z" transform="translate(2663.49 980.74)"/><path class="cls-9" d="M-2616.95-923.35a10,10,0,0,0,2.88-.27,10.54,10.54,0,0,0,2.66-1,9.52,9.52,0,0,0,1.15-.76,3.7,3.7,0,0,0,1.16-1.1.71.71,0,0,0-1-1,6.71,6.71,0,0,0-1,.89,9.6,9.6,0,0,1-1,.66,9,9,0,0,1-2.33,1,9.32,9.32,0,0,1-2.46.31,8.65,8.65,0,0,1-1.25-.08,2.68,2.68,0,0,0-1.4-.08.53.53,0,0,0-.19.72c.28.41.88.49,1.34.59A8.84,8.84,0,0,0-2616.95-923.35Z" transform="translate(2663.49 980.74)"/><path class="cls-8" d="M-2615.69-929.72a.49.49,0,0,0-.55-.71c-.79.12-2.26.67-2.8-.17-.38-.6-.1-1.68,0-2.31.17-.85.32-1.7.48-2.56a10,10,0,0,0,.48-3.5c-.06-.34-.51-.32-.68-.09-.93,1.36-1,3.57-1.45,5.16a8.55,8.55,0,0,0-.51,3.16A2.71,2.71,0,0,0-2615.69-929.72Z" transform="translate(2663.49 980.74)"/><path class="cls-9" d="M-2607.91-941.26a7.88,7.88,0,0,0-2.37.21,8.16,8.16,0,0,0-4.11,2.42.43.43,0,0,0,.61.61,8.34,8.34,0,0,1,1.81-1.25,9.39,9.39,0,0,1,1.92-.7,2.18,2.18,0,0,0-.55,1.46,2,2,0,0,0,1.91,2.07,2,2,0,0,0,1.91-2.07,2.1,2.1,0,0,0-.83-1.7,6.79,6.79,0,0,1,.78,0c.32,0,.73.17,1,0a.27.27,0,0,0,.09-.36c-.14-.34-.66-.43-1-.51A6,6,0,0,0-2607.91-941.26Z" transform="translate(2663.49 980.74)"/><path class="cls-9" d="M-2621.65-939.2a5.39,5.39,0,0,0-.82-.6,5.39,5.39,0,0,0-1.88-.61,5.17,5.17,0,0,0-3.78,1c-.41.3,0,1,.4.69a4.87,4.87,0,0,1,3.26-.75,2.06,2.06,0,0,0-1.29,2,2,2,0,0,0,1.92,2.07,2,2,0,0,0,1.91-2.07,2.08,2.08,0,0,0-.31-1.11c.14.08.27.18.4.27s.51.19.6-.06S-2621.43-939-2621.65-939.2Z" transform="translate(2663.49 980.74)"/><path class="cls-4" d="M-2613.93-940.78a14.06,14.06,0,0,1,3.56-1.54c.94-.21,1.9-.28,2.85-.41a1.32,1.32,0,0,0,.59-.18.49.49,0,0,0,.22-.53.64.64,0,0,0-.22-.27,4.41,4.41,0,0,0-3.49-.6,7.5,7.5,0,0,0-4.35,2C-2615.59-941.42-2615.17-940.12-2613.93-940.78Z" transform="translate(2663.49 980.74)"/><path class="cls-4" d="M-2628.22-942.77a1.36,1.36,0,0,0,.59.18c1,.13,1.91.2,2.85.41a13.91,13.91,0,0,1,3.56,1.54c1.24.66,1.66-.64.84-1.51a7.5,7.5,0,0,0-4.34-2,4.42,4.42,0,0,0-3.5.6.64.64,0,0,0-.22.27A.49.49,0,0,0-2628.22-942.77Z" transform="translate(2663.49 980.74)"/><path class="cls-10" d="M-2631-939.93a5.35,5.35,0,0,0-1.53-.94,5.2,5.2,0,0,0-.85-.26,1.22,1.22,0,0,0-.94.07.22.22,0,0,0,0,.34,1,1,0,0,0,.36.19l.37.07a4.39,4.39,0,0,1,.79.21,4,4,0,0,1,.86.42,2.33,2.33,0,0,0-1.06,1.48,2.42,2.42,0,0,0,.05,1.28c.13.4.35.88.8,1a.18.18,0,0,0,.22-.22c-.07-.34-.3-.61-.4-.94a1.78,1.78,0,0,1,0-1,2.37,2.37,0,0,1,.9-1.29l.09.07a4.62,4.62,0,0,1,1,1.24,15.38,15.38,0,0,1,.58,1.52c.11.24.42.08.45-.12a3.29,3.29,0,0,0-.48-1.72A4.79,4.79,0,0,0-2631-939.93Z" transform="translate(2663.49 980.74)"/><path class="cls-11" d="M-2625.27-956.55c1.25-2.9,1.7-6.21,3.65-8.68a8.79,8.79,0,0,1,9.07-2.92c1.05.29,2.17.8,3.19.41a8.32,8.32,0,0,0,1.87-1.45,5,5,0,0,1,4.77-.5,15.23,15.23,0,0,1,2.11,1.36c-1.52-2.92-4.26-5.63-7.16-5.29-1.59.18-2.95,1.27-4.53,1.58s-3.43-.27-5.16-.46a10.94,10.94,0,0,0-10.57,5.65,24.08,24.08,0,0,0-1.6,4.55,33.79,33.79,0,0,1-3,7.69,15,15,0,0,1-5.69,5.87,8.38,8.38,0,0,0,.92,1,12.16,12.16,0,0,0,3.44-.58A14.72,14.72,0,0,0-2625.27-956.55Z" transform="translate(2663.49 980.74)"/><path class="cls-11" d="M-2592.45-958a13,13,0,0,0-1.18-1.92c-.36-.48-1.2-1.06-1.41-1.57a13.41,13.41,0,0,1,.55,8.53,8.7,8.7,0,0,0-4.37-6.28,20.29,20.29,0,0,1-1.65,16.5,14.1,14.1,0,0,0,5.79-7.76,6.38,6.38,0,0,1,.38,4.32,8.2,8.2,0,0,0,1.73-4.65,10.83,10.83,0,0,1,.35,4.93,15.94,15.94,0,0,0,1.2-3.46,15.15,15.15,0,0,0-.08-4.46A14.23,14.23,0,0,0-2592.45-958Z" transform="translate(2663.49 980.74)"/><path class="cls-11" d="M-2618.25-954.37c1.73-1.8,2.46-4.4,4.29-6.1s4.34-2,6.74-2.49c-2.64-2.6-7.84-2.61-10.56-.15-2.3,2.09-2.53,5.63-4.26,8.22a8.14,8.14,0,0,1-2.83,2.58A7.36,7.36,0,0,0-2618.25-954.37Z" transform="translate(2663.49 980.74)"/><path class="cls-6" d="M-2592-890.62c-.13-1.63.12-3.77-.63-5.25a.21.21,0,0,0-.38,0,6.1,6.1,0,0,0,0,2.48c.12,1.11.21,2.22.31,3.33.14,1.51.25,3,.49,4.52l.08,0,.42-.2C-2591.72-887.36-2591.89-889-2592-890.62Z" transform="translate(2663.49 980.74)"/><path class="cls-6" d="M-2638.11-891.93c.1-1.16.26-2.31.47-3.45a2.29,2.29,0,0,0-.09-1.84.33.33,0,0,0-.52-.07c-1.16,1.11-1,3.86-1,5.36a31.89,31.89,0,0,0,0,4c.33.21.68.41,1,.6C-2638.21-888.84-2638.24-890.39-2638.11-891.93Z" transform="translate(2663.49 980.74)"/></svg>