<svg id="Layer_1" data-name="Layer 1" xmlns="http://www.w3.org/2000/svg" xmlns:xlink="http://www.w3.org/1999/xlink" viewBox="0 0 102.45 102.45"><defs><style>.cls-1{fill:url(#linear-gradient);}.cls-2{fill:none;stroke:#afb0bf;stroke-miterlimit:10;stroke-width:2.45px;}.cls-3{fill:#fff;}</style><linearGradient id="linear-gradient" x1="-748.15" y1="1600.48" x2="-807.31" y2="1541.31" gradientTransform="translate(-443.98 -2362.74)" gradientUnits="userSpaceOnUse"><stop offset="0" stop-color="#1f978e"/><stop offset="1" stop-color="#68c7bf"/></linearGradient></defs><rect class="cls-1" x="-1254.63" y="-824.77" width="65.85" height="65.85" rx="11.41" transform="translate(355.18 1475.02) rotate(45)"/><rect class="cls-2" x="-1261.06" y="-831.2" width="78.7" height="78.7" rx="13.64" transform="translate(355.18 1475.02) rotate(45)"/><path class="cls-3" d="M-1220.9-799.45c-.06.26-.13.52-.19.78-.26,1.22-.53,2.45-.77,3.67a1.46,1.46,0,0,0,0,.72q2.89,8.19,5.8,16.38a1.87,1.87,0,0,1-1.85,2.66,1.82,1.82,0,0,1-1.59-1.24c-1.08-2.68-2.17-5.37-3.25-8.06l-1.41-3.48a.66.66,0,0,0-.25-.29,2.85,2.85,0,0,0,0,.41c0,.85,0,1.69,0,2.53a4.81,4.81,0,0,1-.3,1.46c-1,2.49-2.08,5-3.13,7.45a1.85,1.85,0,0,1-2.43,1.1,1.84,1.84,0,0,1-1-2.43c.86-2.38,1.75-4.75,2.62-7.12a2.38,2.38,0,0,0,.15-.87c0-1.53-.09-3.05-.21-4.57a26.86,26.86,0,0,1,.29-6.46c.15-.9.26-1.81.38-2.71,0-.16,0-.32,0-.56a1.75,1.75,0,0,0-1,1.13q-.81,3.09-1.67,6.18a1.46,1.46,0,0,1-1.31,1.17,1.4,1.4,0,0,1-1.49-.89,1.8,1.8,0,0,1-.08-.92c.5-2.45,1-4.9,1.58-7.34a2.12,2.12,0,0,1,.65-1c1.36-1.19,2.76-2.33,4.15-3.49a3.84,3.84,0,0,1,3-1,20.75,20.75,0,0,1,2.91.56,3,3,0,0,1,1.74,1.45q3.42,5.67,6.82,11.34a3.6,3.6,0,0,1,.24,1.12,2.41,2.41,0,0,0,.14.68c1.89,3.35,3.81,6.69,5.72,10l2.55,4.46c0,.05,0,.1.08.14a.76.76,0,0,1-.26,1.07.74.74,0,0,1-1-.3c-.21-.33-.39-.68-.59-1q-3.86-6.75-7.73-13.49a.83.83,0,0,0-.51-.38,1.74,1.74,0,0,1-1.11-.76c-1.73-2.58-3.48-5.17-5.22-7.75l-.27-.39Z" transform="translate(1272.93 843.07)"/><path class="cls-3" d="M-1222.15-814.27a3.52,3.52,0,0,1,3.56,3.54,3.55,3.55,0,0,1-3.65,3.46,3.57,3.57,0,0,1-3.59-3.57A3.56,3.56,0,0,1-1222.15-814.27Z" transform="translate(1272.93 843.07)"/></svg>