<svg id="Layer_1" data-name="Layer 1" xmlns="http://www.w3.org/2000/svg" xmlns:xlink="http://www.w3.org/1999/xlink" viewBox="0 0 102.45 102.45"><defs><style>.cls-1{fill:url(#linear-gradient);}.cls-2{fill:none;stroke:#afb0bf;stroke-miterlimit:10;stroke-width:2.45px;}.cls-3{fill:#fff;}</style><linearGradient id="linear-gradient" x1="-966.84" y1="1819.17" x2="-1026.01" y2="1760.01" gradientTransform="translate(-534.56 -2581.44)" gradientUnits="userSpaceOnUse"><stop offset="0" stop-color="#1f978e"/><stop offset="1" stop-color="#68c7bf"/></linearGradient></defs><rect class="cls-1" x="-1563.92" y="-824.77" width="65.85" height="65.85" rx="11.41" transform="translate(573.88 1693.72) rotate(45)"/><rect class="cls-2" x="-1570.34" y="-831.2" width="78.7" height="78.7" rx="13.64" transform="translate(573.88 1693.72) rotate(45)"/><path class="cls-3" d="M-1538.22-777.36a31.73,31.73,0,0,1,0-3.38,4.6,4.6,0,0,1,.79-1.47,2.57,2.57,0,0,0,.36-.61,3.91,3.91,0,0,1,3.44-3.31,22.46,22.46,0,0,1,6.7,0,3.84,3.84,0,0,1,3.29,3.15,1.82,1.82,0,0,0,.45.77,2.63,2.63,0,0,1,.82,1.79c0,1,0,2,0,3h-1.48c0-.84,0-1.67,0-2.5,0-1.17-.46-1.64-1.63-1.64h-10a1.37,1.37,0,0,0-1.54,1.54l0,2.6Z" transform="translate(1582.21 843.07)"/><path class="cls-3" d="M-1544.78-792.08a5.24,5.24,0,0,0-1.67,4.25,6.1,6.1,0,0,0,2.41,4c-.31,0-.46,0-.62,0h-3.3a2.74,2.74,0,0,1-2.94-3,38.42,38.42,0,0,0-.27-7.35.71.71,0,0,1,.6-.87.69.69,0,0,1,.83.64c.13,1,.21,1.95.31,2.93,0,.29,0,.58.08.87h.13c.12-.84.22-1.67.38-2.5a10.08,10.08,0,0,1,.55-2,3.14,3.14,0,0,1,2.93-1.91,3.07,3.07,0,0,1,3,1.65,30.17,30.17,0,0,1,1.66,3.61,1.42,1.42,0,0,0,1.57,1.11,13.45,13.45,0,0,1,2,.16c-.13-.4-.22-.69-.31-1s-.07-.61.29-.71.52.12.62.41.19.52.27.79a1.26,1.26,0,0,0,.65.85c.48.26.51.77.47,1.26a1,1,0,0,1-.72,1,2.22,2.22,0,0,1-.76.14h-4.82a1.73,1.73,0,0,1-1.65-1c-.49-.95-1-1.9-1.45-2.85C-1544.57-791.72-1544.65-791.86-1544.78-792.08Z" transform="translate(1582.21 843.07)"/><path class="cls-3" d="M-1516.7-783.85c1.57-1.38,2.62-2.91,2.38-5A4.91,4.91,0,0,0-1516-792c-.09.15-.18.29-.26.44-.43.88-.87,1.76-1.29,2.65a1.93,1.93,0,0,1-1.92,1.19c-1.45,0-2.91,0-4.37,0a4,4,0,0,1-.69-.06,1.18,1.18,0,0,1-1.07-1.25,1.11,1.11,0,0,1,1-1.27c1.21-.16,2.44-.29,3.66-.39a.67.67,0,0,0,.65-.48c.46-1.14.94-2.27,1.43-3.39a3.45,3.45,0,0,1,3.72-2.37,3.32,3.32,0,0,1,2.95,2.65c.24.91.39,1.86.58,2.79a.53.53,0,0,0,.2.35c0-.34.06-.69.1-1,.08-.7.14-1.4.24-2.1.07-.53.42-.82.85-.75a.73.73,0,0,1,.6.95,35.21,35.21,0,0,0-.26,7.11,2.79,2.79,0,0,1-3,3.17h-3.29C-1516.31-783.8-1516.45-783.83-1516.7-783.85Z" transform="translate(1582.21 843.07)"/><path class="cls-3" d="M-1520.52-793.28c-.18.42-.32.78-.5,1.11,0,.06-.23.07-.34,0-1.33-.33-2.66-.67-4-1a.9.9,0,0,1-.47-.37,5,5,0,0,0-8.94,0,.82.82,0,0,1-.47.34c-1.36.37-2.73.7-4.09,1.06a.37.37,0,0,1-.5-.23c-.53-1-.54-1,.53-1.35s2-.55,3-.79c.33-.08.47-.21.49-.55,0-.88.11-1.77.2-2.65a3.2,3.2,0,0,1,3.07-3.19,1.36,1.36,0,0,1,.76.21,9.44,9.44,0,0,1,1.13.87.42.42,0,0,0,.61,0c.34-.28.71-.53,1-.82a1.06,1.06,0,0,1,1-.26,3.13,3.13,0,0,1,2.92,2.9c.14,1,.19,2,.25,2.94,0,.36.16.5.51.59,1.14.28,2.27.61,3.41.94A1.84,1.84,0,0,1-1520.52-793.28Z" transform="translate(1582.21 843.07)"/><path class="cls-3" d="M-1530.27-795.06a3.85,3.85,0,0,1,3.84,3.9,3.86,3.86,0,0,1-3.88,3.82,3.87,3.87,0,0,1-3.85-3.91A3.86,3.86,0,0,1-1530.27-795.06Z" transform="translate(1582.21 843.07)"/><path class="cls-3" d="M-1513.89-800.84a3.24,3.24,0,0,1-3.33,3.22,3.24,3.24,0,0,1-3.18-3.32,3.24,3.24,0,0,1,3.31-3.19A3.23,3.23,0,0,1-1513.89-800.84Z" transform="translate(1582.21 843.07)"/><path class="cls-3" d="M-1543.59-797.62a3.25,3.25,0,0,1-3.28-3.22,3.26,3.26,0,0,1,3.27-3.29,3.25,3.25,0,0,1,3.25,3.2A3.25,3.25,0,0,1-1543.59-797.62Z" transform="translate(1582.21 843.07)"/><path class="cls-3" d="M-1533.13-804.58a2.83,2.83,0,0,1,2.82-2.86,2.85,2.85,0,0,1,2.87,2.82,2.83,2.83,0,0,1-2.83,2.86A2.81,2.81,0,0,1-1533.13-804.58Z" transform="translate(1582.21 843.07)"/><path class="cls-3" d="M-1537.9-784c-.22.43-.37.78-.58,1.11a.48.48,0,0,1-.4.13,11.93,11.93,0,0,1-4.93-2.67,3.68,3.68,0,0,1-1.23-3.81,1.75,1.75,0,0,1,.12-.32,1.07,1.07,0,0,1,.13-.15c.87,1.29,1.26,2.87,2.6,3.81A15.53,15.53,0,0,0-1537.9-784Z" transform="translate(1582.21 843.07)"/><path class="cls-3" d="M-1515.92-789.78a3.47,3.47,0,0,1-.17,3.28,5.33,5.33,0,0,1-2,2c-1.14.62-2.35,1.13-3.53,1.68a.38.38,0,0,1-.59-.22c-.14-.31-.3-.62-.47-1a14.87,14.87,0,0,0,4.2-1.93C-1517.22-786.91-1516.74-788.4-1515.92-789.78Z" transform="translate(1582.21 843.07)"/></svg>