<svg id="Layer_1" data-name="Layer 1" xmlns="http://www.w3.org/2000/svg" xmlns:xlink="http://www.w3.org/1999/xlink" viewBox="0 0 102.45 102.45"><defs><style>.cls-1{fill:url(#linear-gradient);}.cls-2{fill:none;stroke:#afb0bf;stroke-miterlimit:10;stroke-width:2.45px;}.cls-3{fill:#fff;}</style><linearGradient id="linear-gradient" x1="-1185.54" y1="2037.87" x2="-1244.71" y2="1978.71" gradientTransform="translate(-625.15 -2800.13)" gradientUnits="userSpaceOnUse"><stop offset="0" stop-color="#1f978e"/><stop offset="1" stop-color="#68c7bf"/></linearGradient></defs><rect class="cls-1" x="-1873.2" y="-824.77" width="65.85" height="65.85" rx="11.41" transform="translate(792.58 1912.41) rotate(45)"/><rect class="cls-2" x="-1879.63" y="-831.2" width="78.7" height="78.7" rx="13.64" transform="translate(792.58 1912.41) rotate(45)"/><path class="cls-3" d="M-1820.62-794v12.49c0,1-.14,1.17-1,1.53q-5.05,2-10.1,4a1.75,1.75,0,0,1-1.4,0q-4.83-2-9.68-3.87a1.17,1.17,0,0,0-.8,0c-3.2,1.26-6.4,2.55-9.6,3.83l-.37.14a1.05,1.05,0,0,1-1.39-1c0-.28,0-.57,0-.85v-24.68c0-.91.14-1.12,1-1.46l10.1-4.06a1.88,1.88,0,0,1,1.49,0c3.2,1.3,6.4,2.57,9.6,3.84a1.13,1.13,0,0,0,.79,0c3.19-1.25,6.37-2.53,9.56-3.8a2.72,2.72,0,0,1,.61-.2,1,1,0,0,1,1.24.93,4.13,4.13,0,0,1,0,.5Zm-32.23,15.55c.3-.11.5-.17.69-.25,2.77-1.1,5.54-2.2,8.3-3.32a1.65,1.65,0,0,1,1.34,0c3.23,1.31,6.46,2.59,9.69,3.87a1.16,1.16,0,0,0,.8,0c2.92-1.14,5.84-2.33,8.77-3.48a.68.68,0,0,0,.5-.76q0-11.11,0-22.24v-.66l-.63.21c-2.78,1.12-5.56,2.22-8.33,3.35a1.8,1.8,0,0,1-1.44,0q-4.8-1.93-9.6-3.83a1.27,1.27,0,0,0-.84,0c-2.91,1.14-5.81,2.32-8.73,3.46a.73.73,0,0,0-.53.8q0,11.1,0,22.19Z" transform="translate(1891.5 843.07)"/><path class="cls-3" d="M-1837.54-784.33c-2.1,0-4.19,0-6.29,0a.79.79,0,0,0-.84.49,3.16,3.16,0,0,1-3.94,1.46,3.21,3.21,0,0,1-2-3.65,3.22,3.22,0,0,1,3.33-2.58,3.1,3.1,0,0,1,2.7,1.78.57.57,0,0,0,.57.37l12.64,0a2.11,2.11,0,0,0,2.16-1.82,2.12,2.12,0,0,0-1.58-2.39,3.56,3.56,0,0,0-.8-.07h-6.19A4.27,4.27,0,0,1-1842-794a4.19,4.19,0,0,1,2.09-4.84,5,5,0,0,1,2.09-.52c2-.07,4,0,6,0a.74.74,0,0,0,.77-.45,3.16,3.16,0,0,1,3.73-1.59,3.21,3.21,0,0,1,2.3,3.35,3.2,3.2,0,0,1-2.74,2.94,3.2,3.2,0,0,1-3.32-1.72.66.66,0,0,0-.69-.4c-2,0-3.93,0-5.9,0a2.14,2.14,0,0,0-2.37,2.13,2.16,2.16,0,0,0,2.35,2.16h6.2a4.29,4.29,0,0,1,4.31,3.79,4.28,4.28,0,0,1-3.46,4.72c-.31.06-.63,0-.94.08h-6Zm-9.92,0a1.1,1.1,0,0,0,1.06-1.11,1.1,1.1,0,0,0-1.08-1,1.07,1.07,0,0,0-1.07,1.08A1.07,1.07,0,0,0-1847.46-784.33Zm19.35-15a1.06,1.06,0,0,0-1.1,1.05,1.09,1.09,0,0,0,1.07,1.08,1.06,1.06,0,0,0,1.07-1A1,1,0,0,0-1828.11-799.36Z" transform="translate(1891.5 843.07)"/></svg>