<svg id="Layer_1" data-name="Layer 1" xmlns="http://www.w3.org/2000/svg" xmlns:xlink="http://www.w3.org/1999/xlink" viewBox="0 0 102.45 102.45"><defs><style>.cls-1{fill:url(#linear-gradient);}.cls-2{fill:none;stroke:#afb0bf;stroke-miterlimit:10;stroke-width:2.45px;}.cls-3{fill:#fff;}</style><linearGradient id="linear-gradient" x1="-857.49" y1="1709.83" x2="-916.66" y2="1650.66" gradientTransform="translate(-489.27 -2472.09)" gradientUnits="userSpaceOnUse"><stop offset="0" stop-color="#1f978e"/><stop offset="1" stop-color="#68c7bf"/></linearGradient></defs><rect class="cls-1" x="-1409.28" y="-824.77" width="65.85" height="65.85" rx="11.41" transform="translate(464.53 1584.37) rotate(45)"/><rect class="cls-2" x="-1415.7" y="-831.2" width="78.7" height="78.7" rx="13.64" transform="translate(464.53 1584.37) rotate(45)"/><path class="cls-3" d="M-1386.48-781.41c-2-.46-2.29-2-2.4-3.55a3.33,3.33,0,0,0-1.58-2.78,7.23,7.23,0,0,1-.89-.68,2.69,2.69,0,0,1-.91-3.51,5.48,5.48,0,0,1,.23-.56,4.07,4.07,0,0,0,0-4c-1-2.18-.76-3.12,1.21-4.49a4.16,4.16,0,0,0,2-3.33c.2-2.45.87-3.13,3.33-3.38a4.45,4.45,0,0,0,3.49-2.07c1.29-1.86,2.29-2.13,4.34-1.15a4.57,4.57,0,0,0,4.24,0c2-.95,3-.66,4.26,1.14a4.47,4.47,0,0,0,3.46,2.11c2.55.25,3.21,1,3.4,3.54a3.57,3.57,0,0,0,1.74,3,6.7,6.7,0,0,1,1.1.89,2.44,2.44,0,0,1,.69,2.77c-.19.51-.37,1-.6,1.51a3.29,3.29,0,0,0,0,3c.22.45.39.93.57,1.4a2.52,2.52,0,0,1-.69,2.87,1.88,1.88,0,0,1-.3.27,5.2,5.2,0,0,0-2.71,4.75c-.07,1.19-.63,1.65-2.12,2.34.21.6.42,1.23.65,1.84.82,2.22,1.67,4.42,2.47,6.64a3.65,3.65,0,0,1,.07,1,3.91,3.91,0,0,1-1.13,0c-1.58-.47-3.15-1-4.82-1.55-.86,1.42-1.69,2.83-2.57,4.22a5.65,5.65,0,0,1-.89.87,4.62,4.62,0,0,1-.73-1c-1.09-2.83-2.13-5.69-3.22-8.53a4.14,4.14,0,0,0-.77-.93c-.27.3-.66.55-.8.9-1.08,2.8-2.1,5.63-3.18,8.43a5.55,5.55,0,0,1-.75,1.13,6.9,6.9,0,0,1-1-1c-.71-1.11-1.38-2.24-2-3.39-.3-.53-.57-.7-1.2-.46-1.35.51-2.74.94-4.13,1.35a1.23,1.23,0,0,1-1-.06c-.17-.17-.12-.69,0-1C-1388.65-775.66-1387.59-778.46-1386.48-781.41Zm6.89-29a5.54,5.54,0,0,0-1.25,1,5.58,5.58,0,0,1-4.81,2.87c-1.49.07-1.91.54-2,2.06a5.28,5.28,0,0,1-2.62,4.51c-1.29.84-1.43,1.36-.74,2.74a5.52,5.52,0,0,1,0,5.32c-.72,1.41-.58,1.93.76,2.81a5.17,5.17,0,0,1,2.57,4.43c.07,1.62.61,2.08,2.23,2.16a4.9,4.9,0,0,1,4.15,2.3c1.11,1.65,1.58,1.76,3.38.89a4.81,4.81,0,0,1,4.47,0c1.91.91,2.35.81,3.52-.95a4.68,4.68,0,0,1,3.9-2.18c1.88-.12,2.34-.58,2.45-2.5a4.67,4.67,0,0,1,2.14-3.82c1.83-1.25,1.9-1.56,1-3.59a4.77,4.77,0,0,1,0-4.29c1-2.05.88-2.35-1-3.66a4.6,4.6,0,0,1-2.07-3.74c-.11-2-.58-2.44-2.54-2.54a4.64,4.64,0,0,1-3.8-2.15c-1.22-1.79-1.54-1.88-3.5-1a4.78,4.78,0,0,1-4.47,0C-1378.34-810-1378.89-810.14-1379.59-810.41Zm-5.7,29.23-3,8c1.45-.47,2.68-.8,3.86-1.27a1.24,1.24,0,0,1,1.85.7c.59,1.14,1.32,2.22,2.08,3.47l2.91-7.82c-2,1-3.43.45-4.49-1.16a11.17,11.17,0,0,0-.74-1A2.85,2.85,0,0,0-1385.29-781.18Zm14.61,10.93c.79-1.31,1.51-2.37,2.09-3.51.45-.9,1-1,1.87-.66,1.18.47,2.41.8,3.82,1.26l-3-8a5,5,0,0,0-.57,0,3.63,3.63,0,0,0-2.61,1.89c-1.27,1.75-2,2-4.06,1.41a3.18,3.18,0,0,0-.4,0Z" transform="translate(1427.57 843.07)"/><path class="cls-3" d="M-1375.61-782.65a12,12,0,0,1-11.86-11.83,11.94,11.94,0,0,1,11.89-11.89,11.94,11.94,0,0,1,11.87,11.82A12,12,0,0,1-1375.61-782.65Zm0-1.22a10.68,10.68,0,0,0,10.71-10.59,10.75,10.75,0,0,0-10.62-10.72,10.74,10.74,0,0,0-10.7,10.63A10.68,10.68,0,0,0-1375.64-783.87Z" transform="translate(1427.57 843.07)"/><path class="cls-3" d="M-1379.75-789.8c.18-1,.4-2,.47-2.9a2,2,0,0,0-.42-1.29c-.5-.63-1.16-1.13-1.71-1.72a4.57,4.57,0,0,1-.52-.92,4,4,0,0,1,.92-.47,16.18,16.18,0,0,1,2.4-.37,1.27,1.27,0,0,0,1.21-.87,17.54,17.54,0,0,1,1-2.08,1.53,1.53,0,0,1,.81-.74c.17-.05.52.41.71.7a3.45,3.45,0,0,1,.55,1.08c.39,1.57,1.49,2,3,2.11a9.11,9.11,0,0,1,2,.6,7,7,0,0,1-1.27,1.69,2.83,2.83,0,0,0-1.15,3.64,3.73,3.73,0,0,1,.2,1.2,1.32,1.32,0,0,1-.22.89.85.85,0,0,1-.81-.06,4.53,4.53,0,0,0-6.17,0C-1379.29-788.84-1379.77-789.2-1379.75-789.8ZM-1380-796a3.86,3.86,0,0,1,1.68,5.24,3.83,3.83,0,0,1,5.52,0c-1-2.3-.3-3.93,1.76-5.17-1.22-.26-2.35-.21-3.07-.73s-1-1.59-1.63-2.79C-1376.14-796.82-1377.7-796-1380-796Z" transform="translate(1427.57 843.07)"/></svg>