<svg id="Layer_1" data-name="Layer 1" xmlns="http://www.w3.org/2000/svg" xmlns:xlink="http://www.w3.org/1999/xlink" viewBox="0 0 102.45 102.45"><defs><style>.cls-1{fill:url(#linear-gradient);}.cls-2{fill:none;stroke:#afb0bf;stroke-miterlimit:10;stroke-width:2.45px;}.cls-3{fill:#fff;}</style><linearGradient id="linear-gradient" x1="-1294.89" y1="2147.22" x2="-1354.06" y2="2088.05" gradientTransform="translate(-670.45 -2909.48)" gradientUnits="userSpaceOnUse"><stop offset="0" stop-color="#1f978e"/><stop offset="1" stop-color="#68c7bf"/></linearGradient></defs><rect class="cls-1" x="-2027.84" y="-824.77" width="65.85" height="65.85" rx="11.41" transform="translate(901.92 2021.76) rotate(45)"/><rect class="cls-2" x="-2034.27" y="-831.2" width="78.7" height="78.7" rx="13.64" transform="translate(901.92 2021.76) rotate(45)"/><path class="cls-3" d="M-1993.5-777.37h-2.84c0,.84,0,1.63,0,2.42s-.17,1.32-1,1.31-1-.66-1-1.35,0-1.53,0-2.36h-2.83v2.49c0,.68-.22,1.23-1,1.22s-1-.56-1-1.24v-2.55c-.69,0-1.31,0-1.92,0-3.18.25-4.56-1-4.31-4.36,0-.59,0-1.19,0-1.9-.93,0-1.75,0-2.57,0s-1.24-.2-1.22-1,.56-.91,1.19-.91h2.53v-2.91h-2.47c-.66,0-1.25-.16-1.25-1s.6-.94,1.26-.94h2.46v-2.92h-2.34c-.67,0-1.36-.05-1.38-.91s.72-1,1.43-1h2.27v-2.91h-2.49c-.67,0-1.23-.2-1.21-1s.56-.91,1.19-.91h2.59c0-1.09,0-2.08,0-3.07a2.93,2.93,0,0,1,3.17-3.18c1,0,1.92,0,3.05,0a12.7,12.7,0,0,1,0-1.52c.1-.84-.48-2,.95-2.26.78-.12,1,.45,1,2.31v1.42c.34,0,.57,0,.79,0h2c0-.79,0-1.51,0-2.23s0-1.52,1-1.54,1,.76,1,1.5,0,1.44,0,2.22h2.84c0-.81,0-1.59,0-2.38s.12-1.33,1-1.35,1,.6,1,1.31,0,1.53,0,2.38h2.84c0-.8,0-1.62,0-2.44s.19-1.24,1-1.25,1,.53,1,1.21,0,1.6,0,2.58h2.9c2.19,0,3.31,1.13,3.32,3.33V-800h2.55c.67,0,1.24.18,1.23,1s-.61.93-1.27.93h-2.45v2.91h2.45c.66,0,1.26.14,1.27.93s-.57,1-1.24,1h-2.47v2.92h2.51c.62,0,1.18.16,1.2.89s-.53,1-1.2,1h-2.53v2.91h2.5c.67,0,1.25.17,1.23,1s-.61.93-1.27.93-1.59,0-2.51,0v3a2.93,2.93,0,0,1-3.16,3.2h-3.06c0,.88,0,1.69,0,2.51s-.2,1.31-1,1.28-.94-.61-.94-1.28,0-1.58,0-2.44h-2.83c0,.8,0,1.61,0,2.42s-.18,1.32-1,1.3-1-.6-1-1.27S-1993.5-776.49-1993.5-777.37Zm11-14.47c0-3.67,0-7.33,0-11,0-1.26-.25-1.51-1.53-1.52h-21.8c-1.28,0-1.53.26-1.53,1.52q0,11,0,22c0,1.25.27,1.52,1.53,1.52q10.9,0,21.8,0c1.27,0,1.53-.27,1.53-1.52Q-1982.47-786.33-1982.48-791.84Z" transform="translate(2046.14 843.07)"/><path class="cls-3" d="M-1986.29-791.84v7.09c0,1.34-.19,1.52-1.49,1.52h-14.28c-1.3,0-1.48-.18-1.48-1.52q0-7.08,0-14.18c0-1.33.18-1.52,1.48-1.52h14.28c1.3,0,1.48.19,1.49,1.52Zm-15.29-6.62v13.22h13.31v-13.22Z" transform="translate(2046.14 843.07)"/></svg>