<svg id="Layer_1" data-name="Layer 1" xmlns="http://www.w3.org/2000/svg" xmlns:xlink="http://www.w3.org/1999/xlink" viewBox="0 0 102.45 102.45"><defs><style>.cls-1{fill:url(#linear-gradient);}.cls-2{fill:none;stroke:#afb0bf;stroke-miterlimit:10;stroke-width:2.45px;}.cls-3{fill:#fff;}</style><linearGradient id="linear-gradient" x1="-1622.93" y1="2475.27" x2="-1682.1" y2="2416.1" gradientTransform="translate(-806.33 -3237.53)" gradientUnits="userSpaceOnUse"><stop offset="0" stop-color="#1f978e"/><stop offset="1" stop-color="#68c7bf"/></linearGradient></defs><rect class="cls-1" x="-2491.77" y="-824.77" width="65.85" height="65.85" rx="11.41" transform="translate(1229.97 2349.81) rotate(45)"/><rect class="cls-2" x="-2498.2" y="-831.2" width="78.7" height="78.7" rx="13.64" transform="translate(1229.97 2349.81) rotate(45)"/><path class="cls-3" d="M-2467-776.24c-.74,0-1.47,0-2.21.06-.52,0-.73-.17-.74-.7s0-.81,0-1.22.12-.59.55-.67a5.78,5.78,0,0,0,2.58-1.23,6.13,6.13,0,0,0,2.39-4.79.73.73,0,0,0-.5-.8c-.57-.2-1,.15-1.06.81a5.07,5.07,0,0,1-1.38,3.32,4.21,4.21,0,0,1-3.07,1.52,4.56,4.56,0,0,1-4-2.16,5.15,5.15,0,0,1-.88-2.67c0-.71-.42-1-1-.81a1.07,1.07,0,0,0-.32.2c0,.4,0,.8-.06,1.21,0,.16,0,.32,0,.48a6.25,6.25,0,0,0,1.21,2.61,6.28,6.28,0,0,0,3.07,2.14l.24,0c.76.12.95.33.94,1.1,0,.41,0,.81,0,1.22s-.18.34-.42.34h-2.48a.76.76,0,0,0-.71,1.15c.09.17.31.27.47.4h7.69a1.63,1.63,0,0,0,.42-.31.82.82,0,0,0,0-.87A.65.65,0,0,0-2467-776.24Z" transform="translate(2510.07 843.07)"/><path class="cls-3" d="M-2439.9-805v.09c-.15-.41-.26-.49-.77-.49h-15.07c-.47,0-.65.22-.68.68,0,.25,0,.5,0,.75q0,8.71,0,17.43a5.51,5.51,0,0,0,.06.71.52.52,0,0,0,.5.47,3.31,3.31,0,0,0,.44,0h14.7a1.35,1.35,0,0,0,.61-.09,3.18,3.18,0,0,1,.38-.49l0,0q0-9.41,0-18.83A1.56,1.56,0,0,1-2439.9-805Zm-1.11,17.6c0,.79-.17,1-1,1h-12.38c-.76,0-1-.2-1-1,0-5.32,0-10.65,0-16v-.07c0-.68.17-.84.84-.84H-2442c.69,0,.93.23.93.92v8h0Z" transform="translate(2510.07 843.07)"/><path class="cls-3" d="M-2467.23-787.41c0,.84,0,1.68,0,2.52a3.42,3.42,0,0,1-3.36,3.26,3.4,3.4,0,0,1-3.38-3.24q-.08-2.57,0-5.13a3.39,3.39,0,0,1,3.62-3.22,3.41,3.41,0,0,1,3.1,3.13c.05.89,0,1.79,0,2.68Z" transform="translate(2510.07 843.07)"/><path class="cls-3" d="M-2460.64-802.68l-3.24-2.37,0,0-.23-.1-.23-.08c0,.59,0,1.1,0,1.61s-.09.65-.66.69a24.52,24.52,0,0,0-2.57.22,3.79,3.79,0,0,0-3.22,2.42,13.42,13.42,0,0,0-.64,4.62.32.32,0,0,0,.36.36c.3,0,.61,0,.92,0a.39.39,0,0,0,.43-.39c0-.15,0-.31,0-.47a10.33,10.33,0,0,1,.53-3.31,2.59,2.59,0,0,1,1.87-1.81,20.76,20.76,0,0,1,2.62-.26c.26,0,.35.16.35.4,0,.59,0,1.18,0,1.82l.15-.08,3.61-2.73C-2460.33-802.36-2460.34-802.46-2460.64-802.68Z" transform="translate(2510.07 843.07)"/><path class="cls-3" d="M-2454.62-774.7l-2.6-1.93-.93-.68c-.17-.13-.21-.27,0-.42l3.57-2.91c0,.57,0,1.07,0,1.56,0,.67,0,.74.69.7a12.85,12.85,0,0,0,2.15-.22,3,3,0,0,0,2.34-2.58c.17-.85.21-1.73.31-2.59,0-.16,0-.32,0-.48s.23-.39.5-.38l.81,0c.24,0,.4.12.39.37a14,14,0,0,1-.61,4.42,3.9,3.9,0,0,1-3.26,2.6c-.92.15-1.87.17-2.8.25-.54,0-.59.12-.57.65S-2454.62-775.3-2454.62-774.7Z" transform="translate(2510.07 843.07)"/><path class="cls-3" d="M-2448.42-792.81h3.85c.52,0,.6.09.59.61a.71.71,0,0,0,0,.14c0,.46-.07.55-.55.55h-7.82c-.47,0-.58-.11-.57-.58a1.48,1.48,0,0,1,0-.21c0-.41.1-.52.52-.51h4Z" transform="translate(2510.07 843.07)"/><path class="cls-3" d="M-2448.45-795.47h-3.88c-.52,0-.62-.1-.59-.61v-.17c0-.41.08-.51.49-.51h7.85c.21,0,.5,0,.53.23a3,3,0,0,1-.06.95c0,.06-.28.1-.43.11Z" transform="translate(2510.07 843.07)"/><path class="cls-3" d="M-2448.46-799.85h-3.9c-.45,0-.58-.11-.57-.55v-.24c0-.41.11-.52.53-.52l1.7,0c2,0,4,0,6,0,.2,0,.56.07.59.18a2.17,2.17,0,0,1,0,1c0,.08-.33.16-.5.16l-2.68,0h-1.23Z" transform="translate(2510.07 843.07)"/></svg>