<svg id="Layer_1" data-name="Layer 1" xmlns="http://www.w3.org/2000/svg" xmlns:xlink="http://www.w3.org/1999/xlink" viewBox="0 0 102.45 102.45"><defs><style>.cls-1{fill:url(#linear-gradient);}.cls-2{fill:none;stroke:#afb0bf;stroke-miterlimit:10;stroke-width:2.45px;}.cls-3{fill:#fff;}</style><linearGradient id="linear-gradient" x1="-1404.24" y1="2256.57" x2="-1463.4" y2="2197.4" gradientTransform="translate(-715.74 -3018.83)" gradientUnits="userSpaceOnUse"><stop offset="0" stop-color="#1f978e"/><stop offset="1" stop-color="#68c7bf"/></linearGradient></defs><rect class="cls-1" x="-2182.49" y="-824.77" width="65.85" height="65.85" rx="11.41" transform="translate(1011.27 2131.11) rotate(45)"/><rect class="cls-2" x="-2188.91" y="-831.2" width="78.7" height="78.7" rx="13.64" transform="translate(1011.27 2131.11) rotate(45)"/><path class="cls-3" d="M-2140.27-786.25l-1.68,1.41c-2.15-2.62-4.35-5.21-6.43-7.89a1.88,1.88,0,0,0-2.57-.76c-2.89,1.1-5.84,2-8.89,3.08l-.8-2,9.66-3.33-2.44-3.13,1.66-1.37c.81,1,1.62,1.86,2.33,2.84a1.31,1.31,0,0,0,1.84.53c1.14-.48,2.35-.81,3.61-1.24l.72,2-3.9,1.39Z" transform="translate(2200.78 843.07)"/><path class="cls-3" d="M-2156.8-809.91a5.2,5.2,0,0,1,5.28,5.24,5.2,5.2,0,0,1-5.27,5.24,5.2,5.2,0,0,1-5.21-5.17A5.21,5.21,0,0,1-2156.8-809.91Zm0,7.55a2.37,2.37,0,0,0,2.36-2.27,2.32,2.32,0,0,0-2.28-2.33,2.35,2.35,0,0,0-2.36,2.26A2.36,2.36,0,0,0-2156.8-802.36Z" transform="translate(2200.78 843.07)"/><path class="cls-3" d="M-2131.67-780.44a5.33,5.33,0,0,1-5.31,5.23,5.27,5.27,0,0,1-5.23-5.29,5.27,5.27,0,0,1,5.29-5.23A5.31,5.31,0,0,1-2131.67-780.44Zm-5.24,2.62a2.77,2.77,0,0,0,2.65-2.66,2.75,2.75,0,0,0-2.79-2.64,2.7,2.7,0,0,0-2.56,2.72A2.71,2.71,0,0,0-2136.91-777.82Z" transform="translate(2200.78 843.07)"/><path class="cls-3" d="M-2166-784.77a4.75,4.75,0,0,1-4.78-4.74,4.91,4.91,0,0,1,4.86-4.73,4.76,4.76,0,0,1,4.65,4.75A4.62,4.62,0,0,1-2166-784.77Zm1.94-4.71a1.9,1.9,0,0,0-1.91-1.85,1.86,1.86,0,0,0-1.93,1.82,1.94,1.94,0,0,0,2,2A2,2,0,0,0-2164-789.48Z" transform="translate(2200.78 843.07)"/><path class="cls-3" d="M-2142.55-798.93a4.1,4.1,0,0,1,4.12-4.2,4.14,4.14,0,0,1,4.25,4.23,4.18,4.18,0,0,1-4.14,4.22A4.16,4.16,0,0,1-2142.55-798.93Zm6,0a1.9,1.9,0,0,0-1.79-2,2,2,0,0,0-2,1.81,1.91,1.91,0,0,0,1.88,2A1.87,1.87,0,0,0-2136.51-798.88Z" transform="translate(2200.78 843.07)"/><path class="cls-3" d="M-2160.53-786.62l.69-2.1,16.92,5.25-.62,2.1Z" transform="translate(2200.78 843.07)"/><path class="cls-3" d="M-2154.72-776.8a3.63,3.63,0,0,1-3.67,3.69,3.65,3.65,0,0,1-3.61-3.64,3.59,3.59,0,0,1,3.68-3.66A3.57,3.57,0,0,1-2154.72-776.8Zm-2,0a1.59,1.59,0,0,0-1.64-1.6,1.48,1.48,0,0,0-1.56,1.52,1.59,1.59,0,0,0,1.55,1.69A1.64,1.64,0,0,0-2156.74-776.76Z" transform="translate(2200.78 843.07)"/><path class="cls-3" d="M-2153.31-776.53l-.32-2.17,10-1.73.4,2.16Z" transform="translate(2200.78 843.07)"/><path class="cls-3" d="M-2150.12-804l6.83,2.3-.69,2.06-6.74-2.23Z" transform="translate(2200.78 843.07)"/><path class="cls-3" d="M-2136.37-787.18l-2.18.24-.46-6.29,2.14-.28Z" transform="translate(2200.78 843.07)"/><path class="cls-3" d="M-2161.19-799.74l1.82,1.22-2.57,4.4-1.91-1.11Z" transform="translate(2200.78 843.07)"/><path class="cls-3" d="M-2160-781.59l-1.88,1.11-2-3.21,1.86-1.16Z" transform="translate(2200.78 843.07)"/></svg>