<svg id="Layer_1" data-name="Layer 1" xmlns="http://www.w3.org/2000/svg" xmlns:xlink="http://www.w3.org/1999/xlink" viewBox="0 0 102.45 102.45"><defs><style>.cls-1{fill:url(#linear-gradient);}.cls-2{fill:none;stroke:#afb0bf;stroke-miterlimit:10;stroke-width:2.45px;}.cls-3{fill:#fff;}</style><linearGradient id="linear-gradient" x1="-1076.19" y1="1928.52" x2="-1135.36" y2="1869.36" gradientTransform="translate(-579.86 -2690.79)" gradientUnits="userSpaceOnUse"><stop offset="0" stop-color="#1f978e"/><stop offset="1" stop-color="#68c7bf"/></linearGradient></defs><rect class="cls-1" x="-1718.56" y="-824.77" width="65.85" height="65.85" rx="11.41" transform="translate(683.23 1803.07) rotate(45)"/><rect class="cls-2" x="-1724.98" y="-831.2" width="78.7" height="78.7" rx="13.64" transform="translate(683.23 1803.07) rotate(45)"/><path class="cls-3" d="M-1678.64-790h8.67c2.47,0,3.43.95,3.44,3.4,0,1.86,0,3.72,0,5.57a2.73,2.73,0,0,1-3,3h-33.1a2.73,2.73,0,0,1-3.06-3q0-5,0-10a2.76,2.76,0,0,1,3.06-3c2.57,0,5.14,0,7.72,0h1.32v-2.72c0-1.21,0-2.43,0-3.64a2.63,2.63,0,0,1,2.74-2.68q4.71,0,9.42,0a2.63,2.63,0,0,1,2.82,2.81c0,3,0,6,0,9C-1678.63-790.89-1678.64-790.51-1678.64-790Zm-12,9h9V-800h-9Zm-3.08,0v-10h-8.92v10Zm15.18-5.94v5.88h9V-787Z" transform="translate(1736.86 843.07)"/><path class="cls-3" d="M-1686.1-809.11h5.67c1.14,0,1.74.5,1.78,1.4s-.62,1.59-1.74,1.6c-3.82,0-7.64,0-11.45,0-1.14,0-1.8-.62-1.78-1.56s.63-1.43,1.84-1.44Z" transform="translate(1736.86 843.07)"/></svg>