<svg id="Layer_1" data-name="Layer 1" xmlns="http://www.w3.org/2000/svg" xmlns:xlink="http://www.w3.org/1999/xlink" viewBox="0 0 102.45 102.45"><defs><style>.cls-1{fill:url(#linear-gradient);}.cls-2{fill:none;stroke:#afb0bf;stroke-miterlimit:10;stroke-width:2.45px;}.cls-3{fill:#fff;}</style><linearGradient id="linear-gradient" x1="-1513.59" y1="2365.92" x2="-1572.75" y2="2306.75" gradientTransform="translate(-761.03 -3128.18)" gradientUnits="userSpaceOnUse"><stop offset="0" stop-color="#1f978e"/><stop offset="1" stop-color="#68c7bf"/></linearGradient></defs><rect class="cls-1" x="-2337.13" y="-824.77" width="65.85" height="65.85" rx="11.41" transform="translate(1120.62 2240.46) rotate(45)"/><rect class="cls-2" x="-2343.55" y="-831.2" width="78.7" height="78.7" rx="13.64" transform="translate(1120.62 2240.46) rotate(45)"/><path class="cls-3" d="M-2302.52-783.75a1,1,0,0,0-1,1,1,1,0,0,0,1,1,1,1,0,0,0,1-1A1,1,0,0,0-2302.52-783.75Zm2.6,2.23a3.06,3.06,0,0,0-3.06,3.06,3.06,3.06,0,0,0,3.06,3.06,3.06,3.06,0,0,0,3.06-3.06A3.06,3.06,0,0,0-2299.92-781.52Zm0,4a1,1,0,0,1-1-1,1,1,0,0,1,1-1,1,1,0,0,1,1,1A1,1,0,0,1-2299.92-777.48Zm2.88-6.27a1,1,0,0,0-1,1,1,1,0,0,0,1,1,1,1,0,0,0,1-1A1,1,0,0,0-2297-783.75Zm0,0a1,1,0,0,0-1,1,1,1,0,0,0,1,1,1,1,0,0,0,1-1A1,1,0,0,0-2297-783.75Zm-2.88,2.23a3.06,3.06,0,0,0-3.06,3.06,3.06,3.06,0,0,0,3.06,3.06,3.06,3.06,0,0,0,3.06-3.06A3.06,3.06,0,0,0-2299.92-781.52Zm0,4a1,1,0,0,1-1-1,1,1,0,0,1,1-1,1,1,0,0,1,1,1A1,1,0,0,1-2299.92-777.48Zm-1.62-5.29a1,1,0,0,0-1-1,1,1,0,0,0-1,1,1,1,0,0,0,1,1A1,1,0,0,0-2301.54-782.77Zm15.53-19.38c0-1.25-.31-1.57-1.55-1.57H-2321c-1.05,0-1.41.36-1.41,1.42q0,13.51,0,27c0,.53,0,1,.57,1.31a1.23,1.23,0,0,0,1.4-.28c2.06-1.55,4.18-3,6.17-4.66a5.23,5.23,0,0,1,4.12-1.34c.47,0,.65.14.75.64a9.62,9.62,0,0,0,7.56,7.73,9.5,9.5,0,0,0,10-4.32,30.32,30.32,0,0,0,1.72-4h2.39c1.38,0,1.68-.3,1.68-1.66Zm-13.91,28.2a7.35,7.35,0,0,1-7.36-7.36,7.31,7.31,0,0,1,2-5,.9.9,0,0,0,0,.46c.12.41,3.59,2.08,3.59,2.08a1.12,1.12,0,0,0,1.21-1.51,18.18,18.18,0,0,0-3.71-2,7.34,7.34,0,0,1,4.32-1.4,7.34,7.34,0,0,1,4.3,1.39,21.84,21.84,0,0,0-3.65,1.83c-.61.48.14,1.56.54,1.7s3.8-1.7,3.8-1.7a1.1,1.1,0,0,0,.33-.95,7.36,7.36,0,0,1,2,5.09A7.35,7.35,0,0,1-2299.92-773.95Zm11.76-8.45h-2.14c-.87-4.64-3.61-7.5-8.39-8.46l.5,0h5.51c.8,0,1.3-.41,1.33-1s-.49-1.06-1.28-1.06h-22.08c-.8,0-1.28.43-1.26,1.07s.51,1,1.32,1h13.44a11.89,11.89,0,0,0-4.62,2,1.48,1.48,0,0,1-.8.12h-7.73a3.83,3.83,0,0,0-.83.08.86.86,0,0,0-.74,1,1.88,1.88,0,0,0,.75.94c.19.15.54.1.81.1h6.34c-.08.21-.14.35-.19.5-.39,1.06-.85,2.1-1.15,3.18-.14.5-.32.63-.79.61a14,14,0,0,0-2.15,0,2.92,2.92,0,0,0-1.4.47c-1.91,1.36-3.77,2.79-5.65,4.19l-.9.66v-24.54h32.1Zm-8.88-1.35a1,1,0,0,0-1,1,1,1,0,0,0,1,1,1,1,0,0,0,1-1A1,1,0,0,0-2297-783.75Zm-2.88,2.23a3.06,3.06,0,0,0-3.06,3.06,3.06,3.06,0,0,0,3.06,3.06,3.06,3.06,0,0,0,3.06-3.06A3.06,3.06,0,0,0-2299.92-781.52Zm0,4a1,1,0,0,1-1-1,1,1,0,0,1,1-1,1,1,0,0,1,1,1A1,1,0,0,1-2299.92-777.48Zm-1.62-5.29a1,1,0,0,0-1-1,1,1,0,0,0-1,1,1,1,0,0,0,1,1A1,1,0,0,0-2301.54-782.77Z" transform="translate(2355.43 843.07)"/><path class="cls-3" d="M-2309.56-795.21h-5.08c-.86,0-1.35-.41-1.33-1.07s.51-1,1.33-1h10.16c.87,0,1.34.4,1.32,1.09s-.45,1-1.32,1Z" transform="translate(2355.43 843.07)"/><path class="cls-3" d="M-2294.93-785.45s-3.39,1.83-3.8,1.7-1.15-1.22-.54-1.7a21.84,21.84,0,0,1,3.65-1.83.35.35,0,0,1,.18,0,1.39,1.39,0,0,1,.84.91A1.1,1.1,0,0,1-2294.93-785.45Z" transform="translate(2355.43 843.07)"/><path class="cls-3" d="M-2301.74-783.77s-3.47-1.67-3.59-2.08a.9.9,0,0,1,0-.46c.11-.51.49-1.13,1-1h0a18.18,18.18,0,0,1,3.71,2A1.12,1.12,0,0,1-2301.74-783.77Z" transform="translate(2355.43 843.07)"/><path class="cls-3" d="M-2301.54-782.77a1,1,0,0,1-1,1,1,1,0,0,1-1-1,1,1,0,0,1,1-1A1,1,0,0,1-2301.54-782.77Z" transform="translate(2355.43 843.07)"/><path class="cls-3" d="M-2296.06-782.77a1,1,0,0,1-1,1,1,1,0,0,1-1-1,1,1,0,0,1,1-1A1,1,0,0,1-2296.06-782.77Z" transform="translate(2355.43 843.07)"/><path class="cls-3" d="M-2299.92-781.52a3.06,3.06,0,0,0-3.06,3.06,3.06,3.06,0,0,0,3.06,3.06,3.06,3.06,0,0,0,3.06-3.06A3.06,3.06,0,0,0-2299.92-781.52Zm0,4a1,1,0,0,1-1-1,1,1,0,0,1,1-1,1,1,0,0,1,1,1A1,1,0,0,1-2299.92-777.48Z" transform="translate(2355.43 843.07)"/><path class="cls-3" d="M-2302.52-781.79a1,1,0,0,1-1-1,1,1,0,0,1,1-1,1,1,0,0,1,1,1A1,1,0,0,1-2302.52-781.79Z" transform="translate(2355.43 843.07)"/><path class="cls-3" d="M-2301.74-783.77s-3.47-1.67-3.59-2.08a.9.9,0,0,1,0-.46,7.57,7.57,0,0,1,1.08-1,18.18,18.18,0,0,1,3.71,2A1.12,1.12,0,0,1-2301.74-783.77Z" transform="translate(2355.43 843.07)"/><path class="cls-3" d="M-2299.92-781.52a3.06,3.06,0,0,0-3.06,3.06,3.06,3.06,0,0,0,3.06,3.06,3.06,3.06,0,0,0,3.06-3.06A3.06,3.06,0,0,0-2299.92-781.52Zm0,4a1,1,0,0,1-1-1,1,1,0,0,1,1-1,1,1,0,0,1,1,1A1,1,0,0,1-2299.92-777.48Z" transform="translate(2355.43 843.07)"/><path class="cls-3" d="M-2296.06-782.77a1,1,0,0,1-1,1,1,1,0,0,1-1-1,1,1,0,0,1,1-1A1,1,0,0,1-2296.06-782.77Z" transform="translate(2355.43 843.07)"/><path class="cls-3" d="M-2294.93-785.45s-3.39,1.83-3.8,1.7-1.15-1.22-.54-1.7a21.84,21.84,0,0,1,3.65-1.83,7.16,7.16,0,0,1,1,.88A1.1,1.1,0,0,1-2294.93-785.45Z" transform="translate(2355.43 843.07)"/></svg>