<svg id="Layer_1" data-name="Layer 1" xmlns="http://www.w3.org/2000/svg" xmlns:xlink="http://www.w3.org/1999/xlink" viewBox="0 0 102.45 102.45"><defs><style>.cls-1{fill:url(#linear-gradient);}.cls-2{fill:none;stroke:#afb0bf;stroke-miterlimit:10;stroke-width:2.45px;}.cls-3{fill:#fff;}</style><linearGradient id="linear-gradient" x1="-2655.32" y1="-791.85" x2="-2571.65" y2="-791.85" gradientTransform="translate(-205.55 -2079.94) rotate(-45)" gradientUnits="userSpaceOnUse"><stop offset="0" stop-color="#1f978e"/><stop offset="1" stop-color="#68c7bf"/></linearGradient></defs><rect class="cls-1" x="-2646.41" y="-824.77" width="65.85" height="65.85" rx="11.41" transform="translate(1339.32 2459.16) rotate(45)"/><rect class="cls-2" x="-2652.84" y="-831.2" width="78.7" height="78.7" rx="13.64" transform="translate(1339.32 2459.16) rotate(45)"/><path class="cls-3" d="M-2618-775.51c0,1.34,0,2.62,0,3.89,0,.69-.77,1-1.59.71a19.08,19.08,0,0,1-6.47-3.68,21.44,21.44,0,0,1-7.56-19.49,21.1,21.1,0,0,1,20.78-18.83,20,20,0,0,1,16.43,8c8.44,10.6,5.24,26.48-6.57,32.77a25.74,25.74,0,0,1-2.79,1.24c-1.09.43-1.74,0-1.76-1.19,0-1.69,0-3.38,0-5.07a6.44,6.44,0,0,0-1.29-4.51c1.11-.27,2.15-.47,3.16-.78,3.85-1.17,5.73-3.94,6.19-7.8.26-2.18.33-4.42-.94-6.32a4.91,4.91,0,0,1-.76-3.63,12.36,12.36,0,0,0-.4-3.32c-.09-.58-.59-.57-.94-.44a34.18,34.18,0,0,0-4.05,1.68,2.6,2.6,0,0,1-2,.32,19.8,19.8,0,0,0-8.93.06,1.9,1.9,0,0,1-1.09-.18c-1.4-.59-2.77-1.26-4.17-1.83-.67-.28-1.17-.06-1.36.75a9.1,9.1,0,0,0-.12,4.37,1.17,1.17,0,0,1-.09.89c-2,2.47-2.17,5.31-1.66,8.25.76,4.47,3.54,7.09,8.07,7.72.37.05.73.13,1,.17-.34.9-.66,1.77-1,2.62a.92.92,0,0,1-.41.44,4.22,4.22,0,0,1-5.46-1.51,5.15,5.15,0,0,0-2.87-2.54c-.11,0-.22-.11-.31-.09-.41.06-.81.16-1.21.24a3.47,3.47,0,0,0,.69,1,5.64,5.64,0,0,1,2.19,2.81c.93,2.84,3.55,3.92,6.54,3.45Z" transform="translate(2664.71 843.07)"/></svg>