<svg id="Layer_1" data-name="Layer 1" xmlns="http://www.w3.org/2000/svg" viewBox="0 0 69.13 51.82"><defs><style>.cls-1{fill:#aeafbe;}</style></defs><path class="cls-1" d="M-2522.08-619.4h-25.21c-5.76,0-9.35-3.6-9.35-9.35q0-16.69,0-33.39a8.57,8.57,0,0,1,6.72-8.77,11.5,11.5,0,0,1,2.74-.29q25.09,0,50.19,0c4.64,0,8,2.38,9.12,6.45a10.06,10.06,0,0,1,.33,2.62q0,16.86,0,33.71a8.64,8.64,0,0,1-9,9Zm.1-45.37h-25.09a10.8,10.8,0,0,0-1.27.06,1.83,1.83,0,0,0-1.76,1.57c-.13.8-.09,1.62-.18,2.42a1.88,1.88,0,0,0,.8,1.81c7.44,6.06,14.85,12.17,22.29,18.24a8,8,0,0,0,10.52-.11c7.08-5.85,14.13-11.72,21.25-17.51a3.55,3.55,0,0,0,1.56-3.27c-.14-2.54-.7-3.21-3.23-3.21Zm-28.29,13.44v22.43c0,2.39.72,3.13,3.09,3.13H-2497c2.36,0,3.09-.74,3.09-3.13v-22.36c-.46.34-.77.55-1.06.79-5.85,4.83-11.7,9.64-17.54,14.49a14.51,14.51,0,0,1-19.17,0c-4.63-3.86-9.29-7.68-13.93-11.52Z" transform="translate(2556.65 671.22)"/></svg>