<svg id="Layer_1" data-name="Layer 1" xmlns="http://www.w3.org/2000/svg" viewBox="0 0 68.97 69.13"><defs><style>.cls-1{fill:#aeafbe;}</style></defs><path class="cls-1" d="M-1738.56-671.27c-1.1,0-2,0-2.79,0-7.43.13-14.89-.13-22.29.49-10.25.85-18.57,10.82-18.28,21.11a4,4,0,0,0,2.32,3.84c3,1.41,5.76-.54,6-4.21.46-7.59,5.82-12.65,13.44-12.66h21.62c0,1.62,0,3,0,4.34a4.13,4.13,0,0,0,2.74,4,3.78,3.78,0,0,0,4.35-1c2.91-2.81,5.79-5.65,8.58-8.58a4.16,4.16,0,0,0,0-6.05c-2.78-2.94-5.68-5.76-8.57-8.59a3.8,3.8,0,0,0-4.55-.9,4,4,0,0,0-2.6,3.89ZM-1756.28-628c0-1.43,0-2.58,0-3.72a4.45,4.45,0,0,0-2.69-4.53c-2-.89-3.5,0-4.86,1.3-2.62,2.58-5.24,5.18-7.81,7.81-2.2,2.24-2.24,4.66-.08,6.87,2.62,2.69,5.29,5.33,8,8,1.32,1.3,2.79,2,4.69,1.18a4.27,4.27,0,0,0,2.78-4.23c0-1.27,0-2.55,0-4h2.61c6.21,0,12.43,0,18.64,0,12.06-.1,21.16-8.62,22-20.6.13-1.75,0-3.57-1.68-4.35a6.86,6.86,0,0,0-4.22-.4c-1.7.41-2.23,2-2.35,3.76-.5,7-4.86,12.5-11.17,12.86C-1740.25-627.63-1748.13-628-1756.28-628Z" transform="translate(1781.93 679.87)"/><path class="cls-1" d="M-1738.56-671.27v-4.31a4,4,0,0,1,2.6-3.89,3.8,3.8,0,0,1,4.55.9c2.89,2.83,5.79,5.65,8.57,8.59a4.16,4.16,0,0,1,0,6.05c-2.79,2.93-5.67,5.77-8.58,8.58a3.78,3.78,0,0,1-4.35,1,4.13,4.13,0,0,1-2.74-4c0-1.36,0-2.72,0-4.34h-21.62c-7.62,0-13,5.07-13.44,12.66-.22,3.67-3,5.62-6,4.21a4,4,0,0,1-2.32-3.84c-.29-10.29,8-20.26,18.28-21.11,7.4-.62,14.86-.36,22.29-.49C-1740.51-671.28-1739.66-671.27-1738.56-671.27Z" transform="translate(1781.93 679.87)"/><path class="cls-1" d="M-1756.28-628c8.15,0,16,.33,23.87-.11,6.31-.36,10.67-5.83,11.17-12.86.12-1.73.65-3.35,2.35-3.76a6.86,6.86,0,0,1,4.22.4c1.66.78,1.81,2.6,1.68,4.35-.89,12-10,20.5-22,20.6-6.21.05-12.43,0-18.64,0h-2.61c0,1.47,0,2.75,0,4a4.27,4.27,0,0,1-2.78,4.23c-1.9.79-3.37.12-4.69-1.18-2.67-2.64-5.34-5.28-8-8-2.16-2.21-2.12-4.63.08-6.87,2.57-2.63,5.19-5.23,7.81-7.81,1.36-1.34,2.88-2.19,4.86-1.3a4.45,4.45,0,0,1,2.69,4.53C-1756.29-630.54-1756.28-629.39-1756.28-628Z" transform="translate(1781.93 679.87)"/></svg>