<svg id="Layer_1" data-name="Layer 1" xmlns="http://www.w3.org/2000/svg" viewBox="0 0 60.02 47.61"><defs><style>.cls-1{fill:#aeb0be;}</style></defs><path class="cls-1" d="M-168.94-640h13.27c3.78,0,5.25,1.46,5.25,5.22,0,2.84,0,5.68,0,8.52,0,3-1.64,4.65-4.66,4.65h-50.66c-3,0-4.66-1.6-4.67-4.63,0-5.08,0-10.17,0-15.25,0-3,1.64-4.64,4.69-4.67,3.93,0,7.87,0,11.8,0h2v-4.15c0-1.86,0-3.72,0-5.57A4,4,0,0,1-187.7-660q7.22,0,14.43,0a4,4,0,0,1,4.32,4.31c0,4.59,0,9.18,0,13.77Zm-18.4,13.71h13.81v-29h-13.81Zm-4.71,0v-15.24h-13.66v15.24Zm23.23-9.09v9h13.74v-9Z" transform="translate(210.43 669.23)"/><path class="cls-1" d="M-180.37-669.23c2.9,0,5.79,0,8.68,0,1.75,0,2.67.75,2.73,2.14s-.95,2.43-2.67,2.44c-5.84,0-11.68,0-17.52,0-1.74,0-2.75-1-2.73-2.38s1-2.2,2.83-2.2C-186.16-669.24-183.26-669.23-180.37-669.23Z" transform="translate(210.43 669.23)"/></svg>