<svg id="Layer_1" data-name="Layer 1" xmlns="http://www.w3.org/2000/svg" viewBox="0 0 72.69 72.69"><defs><style>.cls-1{fill:#53be92;}.cls-2{fill:#fff;}</style></defs><rect class="cls-1" width="72.69" height="72.69" rx="36.34"/><path class="cls-2" d="M-2644.76-504.95c3.17-3.16,5.85-5.83,8.51-8.51,6.93-6.94,13.8-13.93,20.81-20.78a6.15,6.15,0,0,1,4-1.79c2.89.14,4.27,3.47,2.72,6a9.61,9.61,0,0,1-1.46,1.67l-30.4,30.41c-3,3-4.73,3-7.68.07-4.92-4.93-9.87-9.83-14.76-14.79-2.61-2.64-1.79-6.54,1.59-7a5.43,5.43,0,0,1,3.9,1.43c3.94,3.7,7.68,7.62,11.47,11.48A15.25,15.25,0,0,1-2644.76-504.95Z" transform="translate(2672.65 552.22)"/></svg>