<svg id="Layer_1" data-name="Layer 1" xmlns="http://www.w3.org/2000/svg" viewBox="0 0 71.21 62.51"><defs><style>.cls-1{fill:#aeb0be;}</style></defs><path class="cls-1" d="M-531.62-630.84h-12.25c-5.3,0-7.85-2.53-7.88-7.75,0-2.39,0-4.77,0-7.15,0-4.69,2.65-7.29,7.38-7.35,4,0,8,0,12.06-.07.13,0,.26-.12.68-.31,0-1.33,0-2.8,0-4.27a6.23,6.23,0,0,1,4-5.94c2.54-1.14,4.8-.46,6.72,1.44,5.35,5.29,10.71,10.56,16,15.9a5.83,5.83,0,0,1,0,8.74c-5.3,5.34-10.66,10.62-16,15.9-1.92,1.89-4.19,2.64-6.73,1.51a6.33,6.33,0,0,1-4-6C-531.65-627.63-531.62-629.11-531.62-630.84Zm21.33-10.85-15-14.94c.12-.21,0-.1,0,0,0,1.94,0,3.87,0,5.81-.05,3.13-1.19,4.26-4.37,4.3-1.49,0-3,0-4.47,0h-11.11v9h14.66c4.42,0,5.29.89,5.3,5.39v5.45Z" transform="translate(574.13 673.25)"/><path class="cls-1" d="M-574.11-642c0-6.11,0-12.22,0-18.33,0-7.69,5.23-12.86,12.94-12.91,3.13,0,6.26,0,9.39,0,2.53,0,4,1.25,4.07,3.22s-1.48,3.34-4.14,3.37c-3.35,0-6.71,0-10.06,0s-5.86,2.24-5.87,5.65q-.06,19,0,38a5.46,5.46,0,0,0,5.67,5.62c3.43,0,6.86,0,10.29,0,2.65,0,4.18,1.33,4.1,3.39s-1.54,3.22-4.08,3.19a96.24,96.24,0,0,1-12.26-.41c-6-.83-10-5.7-10-11.84C-574.16-629.32-574.11-635.65-574.11-642Z" transform="translate(574.13 673.25)"/></svg>