<svg id="Layer_1" data-name="Layer 1" xmlns="http://www.w3.org/2000/svg" viewBox="0 0 58.33 68.45"><defs><style>.cls-1{fill:#aeb0be;}</style></defs><path class="cls-1" d="M-34.95-658.83c0-2.18,0-4.14,0-6.09,0-1.76.58-2.35,2.31-2.39s3.36-.05,5,0c.82,0,1.11-.29,1.09-1.09,0-1.68,0-3.36,0-5s.62-2.28,2.26-2.28c8.4,0,16.8,0,25.2,0a3.14,3.14,0,0,1,2,.84q5.62,5.48,11.09,11.1a3.53,3.53,0,0,1,.94,2.25c0,11.67,0,23.33,0,35,0,1.81-.49,2.3-2.29,2.32-1.53,0-3.07.08-4.6,0-1.12-.06-1.56.27-1.5,1.44.08,1.63,0,3.26,0,4.89s-.6,2.1-2.1,2.15c-1.73.05-3.46.07-5.19,0-.9,0-1.17.32-1.15,1.18.05,1.67.05,3.35,0,5s-.64,2.2-2.19,2.2H-41.17c-1.57,0-2.15-.62-2.15-2.2q0-23.46,0-46.93c0-2,.42-2.38,2.35-2.39ZM-1.75-672c-.62,0-1-.09-1.46-.1-6.1,0-12.19,0-18.29,0-1.2,0-1.53.33-1.53,1.53q.06,20.75,0,41.47c0,1.17.28,1.59,1.51,1.58q15.69-.06,31.38,0c1.34,0,1.7-.43,1.7-1.73-.05-8.35,0-16.7,0-25v-4.45H.74c-1.91,0-2.47-.57-2.49-2.51,0-2.35,0-4.7,0-7Zm-29.61,52.75H3.06v-4.91c-.61,0-1.12,0-1.64,0q-12.52,0-25,0c-2.6,0-2.89-.32-2.89-2.91q0-17.07,0-34.13v-2.47h-4.86Zm-8.45,8.4H-8.52c3.3,0,3.24,0,3.28-3.21,0-1.25-.32-1.64-1.61-1.63-8.44.05-16.89,0-25.33,0-2.32,0-2.77-.47-2.77-2.81v-33.83c0-3.08,0-3-3-3.09-1.43,0-1.9.35-1.89,1.85.07,10.55,0,21.11,0,31.67Zm41.62-60v8.35H10Z" transform="translate(43.32 675.74)"/><path class="cls-1" d="M-5.71-650.19c-3.36,0-6.71,0-10.07,0-1.53,0-2.33-.6-2.35-1.72s.77-1.78,2.29-1.78q10.22,0,20.42,0c1.36,0,2.24.73,2.14,1.77-.13,1.3-1,1.73-2.23,1.73H-5.71Z" transform="translate(43.32 675.74)"/><path class="cls-1" d="M-5.63-632.87H-15.84c-1.52,0-2.34-.61-2.29-1.74.07-1.38,1-1.73,2.19-1.73q10.29,0,20.56,0c1.14,0,2,.43,2.08,1.69.08,1.08-.75,1.77-2.12,1.77-3.4,0-6.81,0-10.21,0Z" transform="translate(43.32 675.74)"/><path class="cls-1" d="M-5.74-641.51h-10.2c-1.42,0-2.24-.62-2.19-1.7.06-1.36,1-1.77,2.17-1.77q10.28,0,20.55,0c1.37,0,2.22.74,2.11,1.79-.14,1.32-1,1.69-2.23,1.68-3.4,0-6.81,0-10.21,0Z" transform="translate(43.32 675.74)"/></svg>