<svg id="Layer_1" data-name="Layer 1" xmlns="http://www.w3.org/2000/svg" viewBox="0 0 75.49 64.93"><defs><style>.cls-1{fill:#aeb0be;}</style></defs><path class="cls-1" d="M-635.58-667.08c-10.55,0-21.1,0-31.66,0-3.39,0-5.49-1.61-5.91-4.36-.54-3.55,1.6-6.15,5.29-6.33,1.89-.09,3.78,0,5.68,0,19.21,0,38.42-.05,57.63.08a9.29,9.29,0,0,1,5.35,1.86c1.74,1.37,1.78,3.66.83,5.73-1,2.24-3,3-5.28,3q-13.12,0-26.25,0Z" transform="translate(673.24 677.83)"/><path class="cls-1" d="M-635.74-640q-15.69,0-31.39,0c-3.44,0-5.54-1.54-6-4.26-.64-3.72,1.67-6.41,5.71-6.44,7.66,0,15.33,0,23,0q20.14,0,40.31,0c2.41,0,4.5.58,5.68,2.88,2,3.86-.69,7.81-5.37,7.83C-614.46-640-625.1-640-635.74-640Z" transform="translate(673.24 677.83)"/><path class="cls-1" d="M-635.74-623.63c10.64,0,21.28,0,31.92,0,4.07,0,6.54,2.73,5.89,6.3-.52,2.88-2.6,4.39-6.19,4.4H-651.2c-5.32,0-10.64,0-16,0-3.88,0-6.06-2-6.05-5.36s2.19-5.33,6.08-5.34Q-651.44-623.65-635.74-623.63Z" transform="translate(673.24 677.83)"/></svg>