<svg id="Layer_1" data-name="Layer 1" xmlns="http://www.w3.org/2000/svg" viewBox="0 0 60.55 69.13"><defs><style>.cls-1{fill:#aeafbe;}</style></defs><path class="cls-1" d="M-1313.2-610.77h-21.31a8.65,8.65,0,0,1-8.89-8.89q0-12.69,0-25.37a8.78,8.78,0,0,1,8.85-8.87c1,0,1.91-.06,2.86,0s1.27-.21,1.26-1.21c0-2.86-.06-5.72.15-8.56.56-7.37,4.23-12.6,11.24-15.15a17,17,0,0,1,22.43,11.38,32.55,32.55,0,0,1,.77,6.4,58.65,58.65,0,0,1,0,5.93c0,1,.34,1.2,1.26,1.22a25.85,25.85,0,0,1,5.22.39,7.89,7.89,0,0,1,6.11,6.08,14.5,14.5,0,0,1,.37,3.48c0,8,0,16,0,23.95a8.84,8.84,0,0,1-9.24,9.24C-1299.13-610.87-1306.16-610.77-1313.2-610.77Zm0-6.28h21.09c2.19,0,2.89-.69,2.89-2.89v-24.72c0-2.18-.73-2.92-2.89-2.92h-42.07c-2.12,0-2.91.8-2.91,2.92v24.72c0,2.14.76,2.89,2.91,2.89Zm.12-36.86c3.22,0,6.44,0,9.66,0,.93,0,1.3-.21,1.26-1.22-.08-1.82,0-3.66,0-5.48a22.8,22.8,0,0,0-.33-4.47c-1.14-4.81-4.25-7.62-9.15-8.34a10.57,10.57,0,0,0-12.23,9.42c-.26,3-.11,5.92-.23,8.88,0,1,.37,1.22,1.28,1.21C-1319.6-653.93-1316.34-653.91-1313.09-653.91Z" transform="translate(1343.41 679.87)"/></svg>