<svg id="Layer_1" data-name="Layer 1" xmlns="http://www.w3.org/2000/svg" viewBox="0 0 68.78 69.13"><defs><style>.cls-1{fill:#aeafbe;}</style></defs><path class="cls-1" d="M-1526.4-635.56c.74.7,1.59,1.45,2.38,2.25,6.59,6.64,13.14,13.32,19.78,19.92,3.35,3.34,7.28,3.5,10.12.62s2.6-7-.59-10.21c-5-5.1-10.15-10.11-15.25-15.14-2.36-2.33-4.74-4.63-7.8-7.61a42.3,42.3,0,0,0,4-3c6.44-6.3,12.89-12.59,19.2-19,4.26-4.34,2.63-11-3-11.72-2.19-.28-5.18,1.13-6.92,2.73-7.53,7-14.74,14.3-22.29,21.71-.68-.65-1.51-1.41-2.31-2.21-6.51-6.56-13-13.16-19.52-19.69-3.58-3.57-7.46-3.86-10.38-.92-2.74,2.75-2.46,7.21.8,10.49q7.95,8,16,15.86c2,2,4.13,3.94,6,5.75a5.62,5.62,0,0,1-.52,1.18q-7.61,7.58-15.24,15.14c-2.38,2.36-4.86,4.63-7.1,7.12a7,7,0,0,0,.18,9.72c2.65,2.5,6.36,2.46,9.37-.21,1.47-1.31,2.79-2.77,4.19-4.15Z" transform="translate(1560.95 679.87)"/><path class="cls-1" d="M-1526.4-635.56-1545.35-617c-1.4,1.38-2.72,2.84-4.19,4.15-3,2.67-6.72,2.71-9.37.21a7,7,0,0,1-.18-9.72c2.24-2.49,4.72-4.76,7.1-7.12q7.62-7.57,15.24-15.14a5.62,5.62,0,0,0,.52-1.18c-1.89-1.81-4-3.74-6-5.75q-8-7.9-16-15.86c-3.26-3.28-3.54-7.74-.8-10.49,2.92-2.94,6.8-2.65,10.38.92,6.54,6.53,13,13.13,19.52,19.69.8.8,1.63,1.56,2.31,2.21,7.55-7.41,14.76-14.74,22.29-21.71,1.74-1.6,4.73-3,6.92-2.73,5.67.72,7.3,7.38,3,11.72-6.31,6.44-12.76,12.73-19.2,19a42.3,42.3,0,0,1-4,3c3.06,3,5.44,5.28,7.8,7.61,5.1,5,10.22,10,15.25,15.14,3.19,3.23,3.36,7.4.59,10.21s-6.77,2.72-10.12-.62c-6.64-6.6-13.19-13.28-19.78-19.92C-1524.81-634.11-1525.66-634.86-1526.4-635.56Z" transform="translate(1560.95 679.87)"/></svg>