<svg id="Layer_1" data-name="Layer 1" xmlns="http://www.w3.org/2000/svg" viewBox="0 0 72.69 72.69"><defs><style>.cls-1{fill:#aeafbe;}.cls-2{fill:#606169;}</style></defs><rect class="cls-1" width="72.69" height="72.69" rx="36.34"/><path class="cls-2" d="M-914.45-657.88h1.67c3.76,0,6.53,1.86,7.51,5a7.43,7.43,0,0,1-3.29,8.76c-1.52,1-3.09,2-4.59,3a9.22,9.22,0,0,0-4.17,7.81c0,2.18,1.19,3.64,3.14,3.8a3.39,3.39,0,0,0,3.6-3.36,3.66,3.66,0,0,1,2-3.11,48.79,48.79,0,0,0,5.16-3.45c4.59-3.76,6.18-8.7,4.93-14.44a12.94,12.94,0,0,0-10.12-10.47,27.6,27.6,0,0,0-7.21-.55,13.92,13.92,0,0,0-13.9,13.53c-.07,2.42,1.14,4,3.2,4.1s3.4-1.36,3.58-3.77a7.3,7.3,0,0,1,2.35-5A7.51,7.51,0,0,1-914.45-657.88Zm4.74,38.26a4.36,4.36,0,0,0-4.16-4.43,4.44,4.44,0,0,0-4.38,4.41A4.44,4.44,0,0,0-914-615.3,4.36,4.36,0,0,0-909.71-619.62Z" transform="translate(950.27 676.44)"/><path class="cls-2" d="M-914.45-657.88a7.51,7.51,0,0,0-6.17,1.86,7.3,7.3,0,0,0-2.35,5c-.18,2.41-1.61,3.89-3.58,3.77s-3.27-1.68-3.2-4.1a13.92,13.92,0,0,1,13.9-13.53,27.6,27.6,0,0,1,7.21.55,12.94,12.94,0,0,1,10.12,10.47c1.25,5.74-.34,10.68-4.93,14.44a48.79,48.79,0,0,1-5.16,3.45,3.66,3.66,0,0,0-2,3.11,3.39,3.39,0,0,1-3.6,3.36c-2-.16-3.18-1.62-3.14-3.8a9.22,9.22,0,0,1,4.17-7.81c1.5-1,3.07-2,4.59-3a7.43,7.43,0,0,0,3.29-8.76c-1-3.15-3.75-5-7.51-5Z" transform="translate(950.27 676.44)"/><path class="cls-2" d="M-909.71-619.62A4.36,4.36,0,0,1-914-615.3a4.44,4.44,0,0,1-4.27-4.34,4.44,4.44,0,0,1,4.38-4.41A4.36,4.36,0,0,1-909.71-619.62Z" transform="translate(950.27 676.44)"/></svg>