<svg id="Layer_1" data-name="Layer 1" xmlns="http://www.w3.org/2000/svg" viewBox="0 0 68.91 69.13"><defs><style>.cls-1{fill:#aeafbe;}</style></defs><path class="cls-1" d="M-1620.76-635.31c4,4,7.82,8,11.71,12,1.67,1.69,3.41,3.32,5.06,5,1.94,2,2,4.67.19,6.37s-4.16,1.6-6.16-.4c-5.12-5.09-10.22-10.19-15.23-15.38-1.16-1.2-1.89-1.31-3.39-.43-10.17,6-20.53,6.09-30.35-.42-9.56-6.33-13.74-15.7-12.15-27.06,1.67-11.93,8.65-19.77,20.21-23.15A27.48,27.48,0,0,1-1621-668.43a28.24,28.24,0,0,1,1.16,31.57Zm-22.71-36.06a19.38,19.38,0,0,0-19.67,19.52,19.37,19.37,0,0,0,19.63,19.57,19.49,19.49,0,0,0,19.73-19.52A19.49,19.49,0,0,0-1643.47-671.37Z" transform="translate(1671.41 679.87)"/></svg>