<svg id="Layer_1" data-name="Layer 1" xmlns="http://www.w3.org/2000/svg" viewBox="0 0 69.13 55.51"><defs><style>.cls-1{fill:#aeafbe;}</style></defs><path class="cls-1" d="M-2300.8-617.56c5.73,0,11.46,0,17.19,0,2.4,0,3.57-1.12,3.56-3.27,0-6.67-5.32-13-12-13.64a103.64,103.64,0,0,0-15.76-.27,14.11,14.11,0,0,0-13.56,12.93c-.24,3.16.75,4.25,3.9,4.25ZM-2311-648.8a10.44,10.44,0,0,0,10.19,10.4,10.53,10.53,0,0,0,10.35-10.45,10.55,10.55,0,0,0-10.32-10.32A10.44,10.44,0,0,0-2311-648.8Zm.73,10.4c-3.25-3.34-4.72-7-4.45-11.16.11-1.58-.6-2.15-1.86-2.25a55.12,55.12,0,0,0-7.59-.36c-6.35.32-11.12,5.16-11.13,11.06,0,1.72.75,2.6,2.46,2.69,1.38.08,2.77,0,4.16,0Zm19.07,0c7.85,0,15.3,0,22.74,0a2.24,2.24,0,0,0,2.28-2.69c-.25-4.08-2-7.44-5.6-9.41-4.51-2.45-9.35-2.08-14.16-.93a1.5,1.5,0,0,0-.8,1.2A15,15,0,0,1-2291.2-638.41Zm-37.17-26.07a8.72,8.72,0,0,0,8.54,8.71,8.83,8.83,0,0,0,8.53-8.59,8.81,8.81,0,0,0-8.58-8.7A8.71,8.71,0,0,0-2328.37-664.48Zm57,0a8.81,8.81,0,0,0-8.68-8.61,8.71,8.71,0,0,0-8.39,8.68,8.7,8.7,0,0,0,8.46,8.6A8.8,8.8,0,0,0-2271.35-664.45Z" transform="translate(2335.3 673.06)"/><path class="cls-1" d="M-2300.8-617.56h-16.67c-3.15,0-4.14-1.09-3.9-4.25a14.11,14.11,0,0,1,13.56-12.93,103.64,103.64,0,0,1,15.76.27c6.68.62,12,7,12,13.64,0,2.15-1.16,3.26-3.56,3.27C-2289.34-617.54-2295.07-617.56-2300.8-617.56Z" transform="translate(2335.3 673.06)"/><path class="cls-1" d="M-2311-648.8a10.44,10.44,0,0,1,10.22-10.37,10.55,10.55,0,0,1,10.32,10.32,10.53,10.53,0,0,1-10.35,10.45A10.44,10.44,0,0,1-2311-648.8Z" transform="translate(2335.3 673.06)"/><path class="cls-1" d="M-2310.27-638.4h-18.41c-1.39,0-2.78.06-4.16,0-1.71-.09-2.46-1-2.46-2.69,0-5.9,4.78-10.74,11.13-11.06a55.12,55.12,0,0,1,7.59.36c1.26.1,2,.67,1.86,2.25C-2315-645.37-2313.52-641.74-2310.27-638.4Z" transform="translate(2335.3 673.06)"/><path class="cls-1" d="M-2291.2-638.41a15,15,0,0,0,4.46-11.86,1.5,1.5,0,0,1,.8-1.2c4.81-1.15,9.65-1.52,14.16.93,3.64,2,5.35,5.33,5.6,9.41a2.24,2.24,0,0,1-2.28,2.69C-2275.9-638.38-2283.35-638.41-2291.2-638.41Z" transform="translate(2335.3 673.06)"/><path class="cls-1" d="M-2328.37-664.48a8.71,8.71,0,0,1,8.49-8.58,8.81,8.81,0,0,1,8.58,8.7,8.83,8.83,0,0,1-8.53,8.59A8.72,8.72,0,0,1-2328.37-664.48Z" transform="translate(2335.3 673.06)"/><path class="cls-1" d="M-2271.35-664.45a8.8,8.8,0,0,1-8.61,8.67,8.7,8.7,0,0,1-8.46-8.6,8.71,8.71,0,0,1,8.39-8.68A8.81,8.81,0,0,1-2271.35-664.45Z" transform="translate(2335.3 673.06)"/></svg>