<svg id="Layer_1" data-name="Layer 1" xmlns="http://www.w3.org/2000/svg" viewBox="0 0 60.05 69.13"><defs><style>.cls-1{fill:#aeafbe;}</style></defs><path class="cls-1" d="M-982.38-662.52c-.53,7.14-1,14.09-1.57,21-.57,7.68-1.09,15.36-1.73,23a8.3,8.3,0,0,1-8.51,7.6q-13.38.17-26.78,0c-5-.07-8.21-3.31-8.61-8.45-1-12.63-1.87-25.27-2.8-37.9-.13-1.71-.28-3.43-.43-5.29a18.48,18.48,0,0,1-2.12-.28,3,3,0,0,1-2.64-3.18,2.93,2.93,0,0,1,3-3,62,62,0,0,1,7.34,0,3.32,3.32,0,0,0,3.49-1.83c1.07-1.88,2.39-3.6,3.59-5.4a7.81,7.81,0,0,1,6.75-3.6c3.88,0,7.77-.06,11.66,0a8,8,0,0,1,6.9,3.74,15.74,15.74,0,0,1,1.53,2.35c1.67,4,4.58,5.52,8.82,4.72a13.77,13.77,0,0,1,2.8,0c2.64,0,4.09,1.15,4.14,3.13s-1.26,3-3.78,3.27C-981.59-662.62-981.87-662.58-982.38-662.52Zm-44.27,0c.06.92.1,1.62.15,2.33q.52,7.22,1,14.43.92,12.81,1.8,25.63c.11,1.54.53,2.94,2.43,2.95,9.08,0,18.15.07,27.22-.07.8,0,1.86-1.14,2.29-2a9,9,0,0,0,.37-3.19q1-14.32,2.06-28.64c.27-3.77.49-7.55.74-11.44Zm28.79-6.61c-1.22-3.3-3.14-4.86-6.61-4.36a49.15,49.15,0,0,1-6.87.06c-3.5,0-4.59.82-5.67,4.3Z" transform="translate(1037.58 679.87)"/></svg>