<svg id="Layer_1" data-name="Layer 1" xmlns="http://www.w3.org/2000/svg" viewBox="0 0 69.13 57.34"><defs><style>.cls-1{fill:#aeafbe;}</style></defs><path class="cls-1" d="M-2667.32-633c4.86,0,9.62-.07,14.38.06a5.51,5.51,0,0,1,3.23,1.23c4.82,4.13,9.72,8.19,14.19,12.68,2.62,2.64,5.39,2.6,8.53,2.3v-57.05c-5.34-.36-5.35-.36-9.07,3-4.44,3.94-8.92,7.84-13.29,11.85a5.27,5.27,0,0,1-4,1.52c-4.62-.1-9.24,0-14,0Zm59.42,7.09c12.84-9.1,13.05-29.33,0-38.69l-3.37,4.55c4.69,4,7.35,8.84,7.33,14.9s-2.79,10.83-7.33,14.74Zm-10.6-14.25,3.39,4.51c7.23-6,4.82-16.42-.19-19l-3.21,4.33C-2615.51-646.29-2615.51-644.36-2618.5-640.2Z" transform="translate(2667.32 673.98)"/><path class="cls-1" d="M-2667.32-633v-24.49c4.72,0,9.34-.07,14,0a5.27,5.27,0,0,0,4-1.52c4.37-4,8.85-7.91,13.29-11.85,3.72-3.31,3.73-3.31,9.07-3v57.05c-3.14.3-5.91.34-8.53-2.3-4.47-4.49-9.37-8.55-14.19-12.68a5.51,5.51,0,0,0-3.23-1.23C-2657.7-633.11-2662.46-633-2667.32-633Z" transform="translate(2667.32 673.98)"/><path class="cls-1" d="M-2607.9-625.95l-3.38-4.5c4.54-3.91,7.31-8.69,7.33-14.74s-2.64-10.88-7.33-14.9l3.37-4.55C-2594.85-655.28-2595.06-635-2607.9-625.95Z" transform="translate(2667.32 673.98)"/><path class="cls-1" d="M-2618.5-640.2c3-4.16,3-6.09,0-10.13l3.21-4.33c5,2.55,7.42,12.92.19,19Z" transform="translate(2667.32 673.98)"/></svg>