<svg id="Layer_1" data-name="Layer 1" xmlns="http://www.w3.org/2000/svg" viewBox="0 0 69.13 55.34"><defs><style>.cls-1{fill:#aeafbe;}</style></defs><path class="cls-1" d="M-1844.48-630a15.77,15.77,0,0,1-9.87,5.27,15.05,15.05,0,0,1-16.54-10.47c-.62-2.07-1.53-2.7-3.46-2.41a7.17,7.17,0,0,1-1.39,0c-2.09-.13-3.75,0-5.26,2.14-2.3,3.17-7,2.94-9.76,0a6.8,6.8,0,0,1,.76-10,6.54,6.54,0,0,1,9.7,1.48,2.57,2.57,0,0,0,2.64,1.41c1.61-.1,3.24,0,4.85-.07a1.8,1.8,0,0,0,1.37-.88,16.38,16.38,0,0,1,6.38-9.38c-.89-1.92-1.65-3.87-2.69-5.64-.33-.57-1.41-.8-2.19-1a6.79,6.79,0,0,1-5.1-8.21,6.56,6.56,0,0,1,5.66-5.16,6.29,6.29,0,0,1,6.34,2.72,6.33,6.33,0,0,1,.37,7.48,2.57,2.57,0,0,0-.08,3c.8,1.46,1.45,3,2.2,4.57a15.83,15.83,0,0,1,15.12,4c2.68-2,5.36-3.85,7.94-5.88.4-.3.45-1.2.45-1.83a7,7,0,0,1,6.36-7.2c3.18-.38,6.52,2.31,7.11,5.83a6.36,6.36,0,0,1-2.47,6.3,6.08,6.08,0,0,1-6.63,1.08,2.24,2.24,0,0,0-2.65.34c-2.32,1.8-4.7,3.52-7.1,5.31a16.37,16.37,0,0,1,.79,12.11,1.43,1.43,0,0,0,.59,1.18c1.89,1.24,3.79,2.46,5.78,3.51a2.65,2.65,0,0,0,2-.25,6.93,6.93,0,0,1,9.12,3.25,6.85,6.85,0,0,1-3.09,9,6.72,6.72,0,0,1-9.73-5.83,2.37,2.37,0,0,0-1.4-2.28C-1840.39-627.58-1842.37-628.78-1844.48-630Zm-11.66-20.54a10.43,10.43,0,0,0-10.71,10.38,10.42,10.42,0,0,0,10.38,10.53A10.53,10.53,0,0,0-1845.71-640,10.52,10.52,0,0,0-1856.14-650.55Z" transform="translate(1892.6 672.98)"/></svg>