<svg id="Layer_1" data-name="Layer 1" xmlns="http://www.w3.org/2000/svg" viewBox="0 0 52.31 66.03"><defs><style>.cls-1{fill:#aeb0be;}</style></defs><path class="cls-1" d="M-118.79-640.88v-30.65c0-.31,0-.62,0-.93a1.31,1.31,0,0,1,1.45-1.36h48.57c2,0,2.26.26,2.26,2.28V-610a6,6,0,0,1,0,.85A1.3,1.3,0,0,1-68-607.8h-48.57c-2,0-2.26-.26-2.26-2.27Zm45.52,0V-666c0-1-.06-1.11-1.07-1.12h-7.34c-.47,0-.85.06-1,.59s-.65.81-1.31.81c-5.76,0-11.53,0-17.3,0-.62,0-1.06-.16-1.25-.77s-.5-.63-1-.62h-7.26c-1.15,0-1.18,0-1.18,1.16v50.27c0,1.1,0,1.14,1.12,1.14h36.45c1.12,0,1.16,0,1.16-1.18Zm-42.89.08v29c0,1.35,0,1.39,1.38,1.39h44.31c1.32,0,1.36,0,1.36-1.33v-57.6c0-.33,0-.67,0-1,0-.67-.27-.93-.92-.93H-80.44a1.13,1.13,0,0,0-1.06,1.08c.06.64.59.46,1,.46h8.65c1.26,0,1.3,0,1.3,1.3v55.2c0,1.18-.06,1.24-1.2,1.24h-41.7c-1.12,0-1.19-.08-1.19-1.17v-55.44c0-1,.09-1.13,1.16-1.13,2.93,0,5.86,0,8.8,0a3.09,3.09,0,0,0,.93-.31,3.25,3.25,0,0,0-.44-1c-.16-.18-.56-.2-.85-.2H-115c-1.12,0-1.2.09-1.2,1.26Zm23.5-27.51c1.8,0,3.6,0,5.4,0,2.57,0,2.1.45,3-2,.21-.59.08-.85-.52-.86-1,0-2,0-3,0a1.14,1.14,0,0,0-.83.52,1.43,1.43,0,0,1-1.37.82h-5.32a1.38,1.38,0,0,1-1.35-.85,1,1,0,0,0-.7-.48c-1.07,0-2.15,0-3.23,0-.18,0-.51.4-.48.57a8,8,0,0,0,.48,1.53,1.12,1.12,0,0,0,1.22.8C-97.13-668.34-94.89-668.32-92.66-668.31Z" transform="translate(118.79 673.83)"/><path class="cls-1" d="M-85-624.26c-2,0-4,0-5.93,0a1.33,1.33,0,0,1-1.49-1A1.34,1.34,0,0,1-91.14-627c4.06,0,8.12,0,12.18,0a1.55,1.55,0,0,1,1.47,1.41A1.58,1.58,0,0,1-79-624.27c-2,0-4,0-6,0Z" transform="translate(118.79 673.83)"/><path class="cls-1" d="M-106.51-627.34a10.9,10.9,0,0,1,1.49,1c1.79,1.74,1.33,1.72,3.07,0,1.08-1.06,2.13-2.16,3.23-3.21.89-.85,2.19-.56,2.31.55a1.92,1.92,0,0,1-.5,1.36c-1.77,1.86-3.59,3.67-5.43,5.47a1.39,1.39,0,0,1-2.32,0c-1-.93-1.91-1.86-2.78-2.87a1.44,1.44,0,0,1-.19-1.24C-107.47-626.68-107-626.93-106.51-627.34Z" transform="translate(118.79 673.83)"/><path class="cls-1" d="M-103.45-635.3a2.88,2.88,0,0,1-.88-.37c-1-1-2.1-2-3.09-3.11a1.06,1.06,0,0,1,0-1.69,1.14,1.14,0,0,1,1.77-.11,15.67,15.67,0,0,1,1.5,1.44c.4.4.7.46,1.14,0,1.31-1.37,2.68-2.69,4-4,.68-.68,1.38-.86,1.91-.53a1.39,1.39,0,0,1,.22,2.2c-1.9,1.94-3.84,3.85-5.78,5.76A3.31,3.31,0,0,1-103.45-635.3Z" transform="translate(118.79 673.83)"/><path class="cls-1" d="M-106.4-654.77c.35.18.72.34,1.05.55a4,4,0,0,1,.67.63c1.41,1.52,1.22,1.15,2.39,0s2.25-2.26,3.39-3.37a1.73,1.73,0,0,1,.89-.56,1.73,1.73,0,0,1,1.26.26,2,2,0,0,1,.27,1.34,1.38,1.38,0,0,1-.47.77c-1.74,1.75-3.47,3.51-5.23,5.24-1.06,1-1.61,1-2.67,0-.82-.81-1.65-1.62-2.44-2.46a1.28,1.28,0,0,1-.42-1.46A1.46,1.46,0,0,1-106.4-654.77Z" transform="translate(118.79 673.83)"/><path class="cls-1" d="M-85-654.59h5.85a1.56,1.56,0,0,1,1.68,1.34,1.55,1.55,0,0,1-1.64,1.39H-90.92c-1.08,0-1.59-.45-1.59-1.34s.53-1.38,1.63-1.39Z" transform="translate(118.79 673.83)"/><path class="cls-1" d="M-85.06-638.14h-6c-.64,0-1.18-.16-1.38-.87a1.2,1.2,0,0,1,1.21-1.67c1.21,0,2.42,0,3.63,0,2.83,0,5.66,0,8.49,0a1.87,1.87,0,0,1,1.22.43,1.58,1.58,0,0,1,.3,1.23,1.09,1.09,0,0,1-1.13.87c-1.31,0-2.62,0-3.93,0Z" transform="translate(118.79 673.83)"/></svg>