<svg id="Layer_1" data-name="Layer 1" xmlns="http://www.w3.org/2000/svg" viewBox="0 0 69.13 60.6"><defs><style>.cls-1{fill:#aeafbe;}</style></defs><path class="cls-1" d="M-785.85-615a21.2,21.2,0,0,0,2.71-.8q28.88-12.63,57.72-25.31c1.84-.81,3.29-1.95,3.33-4.14s-1.45-3.49-3.36-4.33L-783-674.82c-2.92-1.27-5.16-1-6.83.77s-1.91,4.11-.49,6.87c2.62,5.1,5.32,10.15,7.93,15.26a4.6,4.6,0,0,0,3.93,2.63c7.33.86,14.66,1.75,22,2.73.71.09,1.33.81,2,1.24-.67.42-1.31,1.12-2,1.21-7.32,1-14.65,1.86-22,2.72a4.6,4.6,0,0,0-3.91,2.67c-2.57,5-5.24,10-7.81,15.07a9.45,9.45,0,0,0-1,2.87A5.24,5.24,0,0,0-785.85-615Z" transform="translate(791.22 675.61)"/><path class="cls-1" d="M-785.85-615a5.24,5.24,0,0,1-5.3-5.78,9.45,9.45,0,0,1,1-2.87c2.57-5,5.24-10,7.81-15.07a4.6,4.6,0,0,1,3.91-2.67c7.33-.86,14.66-1.75,22-2.72.72-.09,1.36-.79,2-1.21-.66-.43-1.28-1.15-2-1.24-7.32-1-14.65-1.87-22-2.73a4.6,4.6,0,0,1-3.93-2.63c-2.61-5.11-5.31-10.16-7.93-15.26-1.42-2.76-1.21-5.08.49-6.87s3.91-2,6.83-.77l57.51,25.24c1.91.84,3.41,2,3.36,4.33s-1.49,3.33-3.33,4.14q-28.86,12.65-57.72,25.31A21.2,21.2,0,0,1-785.85-615Z" transform="translate(791.22 675.61)"/></svg>