<svg id="Layer_1" data-name="Layer 1" xmlns="http://www.w3.org/2000/svg" viewBox="0 0 65.67 66.01"><defs><style>.cls-1{fill:#aeafbe;}</style></defs><path class="cls-1" d="M-1412.93-640.27h3.08c6.36,0,12.72,0,19.08,0,3.61,0,5.78-1.91,5.82-5s-2.15-5-5.73-5.07c-6.19,0-12.37,0-18.56,0h-3.68v-3.08c0-6.45,0-12.89,0-19.33,0-3.39-2.09-5.62-5-5.56s-4.71,2.17-4.73,5.49c0,6.53,0,13.06,0,19.59v2.89h-3.14c-6.36,0-12.72,0-19.08,0-3.68,0-5.73,1.82-5.75,5s2,5.05,5.66,5.07c4.41,0,8.82,0,13.22,0h9.09v3.06c0,6.44,0,12.88,0,19.33,0,2,.45,3.7,2.26,4.79,3.55,2.12,7.42-.24,7.46-4.67C-1412.87-625.13-1412.93-632.49-1412.93-640.27Z" transform="translate(1450.63 678.31)"/><path class="cls-1" d="M-1412.93-640.27c0,7.78.06,15.14,0,22.51,0,4.43-3.91,6.79-7.46,4.67-1.81-1.09-2.27-2.81-2.26-4.79,0-6.45,0-12.89,0-19.33v-3.06h-9.09c-4.4,0-8.81,0-13.22,0-3.63,0-5.68-1.89-5.66-5.07s2.07-5,5.75-5c6.36,0,12.72,0,19.08,0h3.14v-2.89c0-6.53,0-13.06,0-19.59,0-3.32,1.89-5.43,4.73-5.49s5,2.17,5,5.56c0,6.44,0,12.88,0,19.33v3.08h3.68c6.19,0,12.37,0,18.56,0,3.58,0,5.76,2,5.73,5.07s-2.21,5-5.82,5c-6.36,0-12.72,0-19.08,0Z" transform="translate(1450.63 678.31)"/></svg>