<svg id="Layer_1" data-name="Layer 1" xmlns="http://www.w3.org/2000/svg" viewBox="0 0 72.69 72.69"><defs><style>.cls-1{fill:#f37983;}.cls-2{fill:#fff;}</style></defs><rect class="cls-1" width="72.69" height="72.69" rx="36.34"/><path class="cls-2" d="M-2549.32-511.8l-11.1,10.89c-.82.8-1.59,1.66-2.45,2.42a3.9,3.9,0,0,1-5.49.13,4.13,4.13,0,0,1-.1-5.7c1.31-1.45,2.76-2.78,4.15-4.16l8.93-8.87a3.17,3.17,0,0,0,.3-.69c-1.11-1.05-2.34-2.19-3.52-3.36q-4.71-4.62-9.37-9.29c-1.91-1.91-2.07-4.52-.47-6.14s4-1.55,6.07.54c3.83,3.83,7.62,7.69,11.44,11.53.46.47.95.91,1.34,1.29,4.42-4.34,8.64-8.63,13.06-12.71a5.8,5.8,0,0,1,4-1.59c3.32.42,4.27,4.32,1.78,6.86-3.69,3.77-7.47,7.45-11.24,11.14a26.1,26.1,0,0,1-2.32,1.76c1.79,1.74,3.19,3.09,4.57,4.45,3,2.95,6,5.88,8.92,8.86,1.87,1.9,2,4.34.35,6s-4,1.59-5.93-.36c-3.88-3.86-7.71-7.78-11.57-11.66C-2548.4-510.95-2548.89-511.39-2549.32-511.8Z" transform="translate(2585.77 553.85)"/></svg>