<svg id="Layer_1" data-name="Layer 1" xmlns="http://www.w3.org/2000/svg" viewBox="0 0 65.46 66.38">
  <defs>
    <style>
      .cls-1 {
        fill: #adaebd;
      }
    </style>
  </defs>
  <g>
    <path class="cls-1" d="M172.8-621.27c.27-3.61.48-6.88.78-10.14a8.39,8.39,0,0,1,2.61-5.33q15.08-14.94,30.08-30c3.46-3.45,7.46-3.44,10.89,0,2.42,2.41,4.84,4.8,7.24,7.22,3.25,3.27,3.27,7.33,0,10.59l-30.47,30.38a8.24,8.24,0,0,1-5.62,2.42c-3.07.17-6.14.4-9.21.64C175.12-615.16,172.63-617.58,172.8-621.27Zm29.43-35.23a2.75,2.75,0,0,0-.52.32c-7.62,7.58-15.24,15.14-22.81,22.77a4.28,4.28,0,0,0-1.09,2.41c-.34,3.13-.51,6.27-.76,9.4-.13,1.56.55,2.15,2.09,2,3-.29,6-.41,9-.81a5.76,5.76,0,0,0,3.06-1.43c5.36-5.19,10.61-10.51,15.92-15.76,2.36-2.33,4.78-4.61,7.07-6.82Zm3.34-3.77,12.17,12.47c1.3-1.44,2.69-2.91,4-4.44a2.73,2.73,0,0,0-.11-4q-3.84-3.91-7.77-7.76a2.88,2.88,0,0,0-4.22-.06C208.2-662.8,206.8-661.43,205.57-660.27Z" transform="translate(-161.39 669.28)"/>
    <path class="cls-1" d="M189.78-602.91c-6,0-11.92,0-17.88,0-6.46,0-10.5-4.09-10.5-10.59q0-17.68,0-35.38c0-6.74,4-10.72,10.75-10.73,3.66,0,7.33,0,11,0,1.47,0,2.75.32,2.75,2s-1.28,2.21-2.84,2.2q-5.7,0-11.4,0c-3.81,0-6,2.13-6,6q-.06,18.18,0,36.36c0,3.73,2.13,5.91,5.88,5.93q18.38.09,36.75,0c3.84,0,5.82-2.23,5.85-6.13,0-3.67,0-7.34,0-11,0-1.55.37-2.83,2.22-2.78s2,1.32,2,2.77c0,3.86.05,7.73,0,11.59a9.65,9.65,0,0,1-9.91,9.77c-3.14,0-6.28,0-9.43,0Z" transform="translate(-161.39 669.28)"/>
  </g>
</svg>
