<svg id="Layer_1" data-name="Layer 1" xmlns="http://www.w3.org/2000/svg" viewBox="0 0 69.13 68.28"><defs><style>.cls-1{fill:#aeafbe;}</style></defs><path class="cls-1" d="M-2155.49-645.3c-1.64-1.53-2.58-2.91-3.89-3.55-5.49-2.68-11.06-5.21-16.67-7.65a6.27,6.27,0,0,1-3.44-3.49c-2.36-5.39-4.89-10.69-7.29-16.06-.77-1.74-1.71-3.36-3.75-3.39s-3,1.54-3.82,3.29c-2.46,5.51-4.94,11-7.58,16.46a6.85,6.85,0,0,1-2.91,3c-5.5,2.68-11.1,5.15-16.67,7.67-1.64.74-3.06,1.64-3.11,3.67s1.4,3.13,3.13,3.91c5.5,2.49,11,5.07,16.49,7.48a5.94,5.94,0,0,1,3.27,3.33c2.41,5.45,5,10.84,7.39,16.28.78,1.75,1.87,3.58,3.8,3.18a6.21,6.21,0,0,0,3.58-3.14c2.7-5.4,5-11,7.67-16.42a7.23,7.23,0,0,1,3.08-3.11c5.57-2.72,11.28-5.13,16.85-7.84C-2158.06-642.37-2157.12-643.76-2155.49-645.3Z" transform="translate(2224.62 679.44)"/><path class="cls-1" d="M-2155.49-645.3c-1.63,1.54-2.57,2.93-3.87,3.57-5.57,2.71-11.28,5.12-16.85,7.84a7.23,7.23,0,0,0-3.08,3.11c-2.65,5.43-5,11-7.67,16.42a6.21,6.21,0,0,1-3.58,3.14c-1.93.4-3-1.43-3.8-3.18-2.43-5.44-5-10.83-7.39-16.28A5.94,5.94,0,0,0-2205-634c-5.53-2.41-11-5-16.49-7.48-1.73-.78-3.19-1.74-3.13-3.91s1.47-2.93,3.11-3.67c5.57-2.52,11.17-5,16.67-7.67a6.85,6.85,0,0,0,2.91-3c2.64-5.43,5.12-10.95,7.58-16.46.78-1.75,1.77-3.33,3.82-3.29s3,1.65,3.75,3.39c2.4,5.37,4.93,10.67,7.29,16.06a6.27,6.27,0,0,0,3.44,3.49c5.61,2.44,11.18,5,16.67,7.65C-2158.07-648.21-2157.13-646.83-2155.49-645.3Z" transform="translate(2224.62 679.44)"/></svg>