<svg id="Layer_1" data-name="Layer 1" xmlns="http://www.w3.org/2000/svg" viewBox="0 0 51.99 48.72"><defs><style>.cls-1{fill:#aeb0be;}</style></defs><path class="cls-1" d="M-272.12-639.76c0,6.29,0,12.59,0,18.88,0,1.47-.21,1.78-1.56,2.32q-7.63,3-15.27,6.11a2.63,2.63,0,0,1-2.11,0q-7.31-3-14.65-5.86a1.78,1.78,0,0,0-1.2.06q-7.26,2.87-14.51,5.79c-.18.07-.37.16-.56.22a1.6,1.6,0,0,1-2.1-1.44c0-.43,0-.86,0-1.29v-37.31c0-1.37.21-1.7,1.49-2.21,5.09-2,10.18-4.07,15.27-6.13a2.8,2.8,0,0,1,2.25,0q7.25,2.93,14.51,5.79a1.77,1.77,0,0,0,1.2,0q7.23-2.85,14.45-5.76a4.49,4.49,0,0,1,.92-.3,1.55,1.55,0,0,1,1.87,1.41,6.21,6.21,0,0,1,0,.75Q-272.11-649.24-272.12-639.76Zm-48.74,23.52c.45-.16.75-.26,1.05-.38,4.18-1.67,8.37-3.33,12.54-5a2.48,2.48,0,0,1,2,0q7.32,3,14.65,5.84a1.83,1.83,0,0,0,1.2,0c4.43-1.74,8.84-3.53,13.26-5.26a1,1,0,0,0,.77-1.17q0-16.8,0-33.61v-1c-.39.14-.67.22-.94.33q-6.31,2.52-12.61,5.06a2.69,2.69,0,0,1-2.17,0q-7.25-2.94-14.51-5.79a1.94,1.94,0,0,0-1.28,0c-4.4,1.73-8.78,3.5-13.18,5.23a1.1,1.1,0,0,0-.82,1.22q0,16.77,0,33.54Z" transform="translate(324.12 660.91)"/><path class="cls-1" d="M-297.71-625.18c-3.17,0-6.34,0-9.51,0a1.22,1.22,0,0,0-1.28.74,4.8,4.8,0,0,1-5.95,2.22,4.86,4.86,0,0,1-3.07-5.52,4.85,4.85,0,0,1,5-3.9,4.72,4.72,0,0,1,4.09,2.68.84.84,0,0,0,.85.56c6.37,0,12.74,0,19.11,0a3.2,3.2,0,0,0,3.27-2.76,3.21,3.21,0,0,0-2.4-3.61,4.71,4.71,0,0,0-1.19-.11c-3.12,0-6.25,0-9.37,0a6.48,6.48,0,0,1-6.28-4.84,6.33,6.33,0,0,1,3.16-7.31,7.74,7.74,0,0,1,3.17-.8c3-.1,6.09,0,9.14,0a1.11,1.11,0,0,0,1.16-.69,4.8,4.8,0,0,1,5.64-2.39,4.83,4.83,0,0,1,3.48,5.05,4.84,4.84,0,0,1-4.14,4.45,4.81,4.81,0,0,1-5-2.6,1,1,0,0,0-1.05-.6c-3,0-5.94,0-8.91,0-2.13,0-3.58,1.31-3.59,3.23a3.28,3.28,0,0,0,3.56,3.27h9.37a6.5,6.5,0,0,1,6.52,5.73,6.48,6.48,0,0,1-5.23,7.14,11.33,11.33,0,0,1-1.43.12h-9.14Zm-15,0a1.64,1.64,0,0,0,1.6-1.67,1.67,1.67,0,0,0-1.63-1.56,1.61,1.61,0,0,0-1.61,1.64A1.59,1.59,0,0,0-312.71-625.19Zm29.26-22.72a1.61,1.61,0,0,0-1.66,1.59,1.64,1.64,0,0,0,1.62,1.64,1.62,1.62,0,0,0,1.61-1.56A1.58,1.58,0,0,0-283.45-647.91Z" transform="translate(324.12 660.91)"/></svg>