<svg id="Layer_1" data-name="Layer 1" xmlns="http://www.w3.org/2000/svg" viewBox="0 0 60.17 69.13"><defs><style>.cls-1{fill:#aeafbe;}</style></defs><path class="cls-1" d="M-1134.83-662.47c0,1.06,0,1.92,0,2.78.42,7,.87,13.94,1.3,20.9s.84,14.09,1.32,21.13c.28,4.25,2.66,6.84,6.54,6.87q16.41.1,32.83,0c3.63,0,6-2.36,6.48-6,.1-.86.17-1.72.23-2.58q.9-14.45,1.79-28.88c.29-4.72.55-9.43.83-14.25Zm25.68-4.51q12.54,0,25.08,0c3.07,0,4.92-1.62,5-4.23s-1.82-4.29-4.86-4.31c-3.6,0-7.21.07-10.81-.07a3.1,3.1,0,0,1-2.26-1.34,5.23,5.23,0,0,0-5.1-2.93c-4.76,0-9.52,0-14.27,0-2.22,0-4,.79-4.86,2.9a2.24,2.24,0,0,1-2.51,1.45c-3.68-.06-7.36-.07-11,0-3.08.06-4.86,2.19-4.39,5.1.36,2.18,2,3.43,4.77,3.43Q-1121.79-667-1109.15-667Z" transform="translate(1139.29 679.87)"/><path class="cls-1" d="M-1134.83-662.47h51.33c-.28,4.82-.54,9.53-.83,14.25q-.89,14.43-1.79,28.88c-.06.86-.13,1.72-.23,2.58-.44,3.61-2.85,6-6.48,6q-16.41.09-32.83,0c-3.88,0-6.26-2.62-6.54-6.87-.48-7-.88-14.08-1.32-21.13s-.88-13.93-1.3-20.9C-1134.87-660.55-1134.83-661.41-1134.83-662.47Z" transform="translate(1139.29 679.87)"/><path class="cls-1" d="M-1109.15-667q-12.64,0-25.29,0c-2.74,0-4.41-1.25-4.77-3.43-.47-2.91,1.31-5,4.39-5.1,3.67-.07,7.35-.06,11,0a2.24,2.24,0,0,0,2.51-1.45c.88-2.11,2.64-2.91,4.86-2.9,4.75,0,9.51,0,14.27,0a5.23,5.23,0,0,1,5.1,2.93,3.1,3.1,0,0,0,2.26,1.34c3.6.14,7.21,0,10.81.07,3,0,4.89,1.7,4.86,4.31s-1.88,4.22-5,4.23Q-1096.61-667-1109.15-667Z" transform="translate(1139.29 679.87)"/></svg>