<svg id="Layer_1" data-name="Layer 1" xmlns="http://www.w3.org/2000/svg" viewBox="0 0 69.13 49.33"><defs><style>.cls-1{fill:#aeafbe;}</style></defs><path class="cls-1" d="M-1979.06-631.93a17.21,17.21,0,0,0-1.57-2.29c-4.64-4.73-9.21-9.52-14-14a6.69,6.69,0,0,0-4.78-1.76c-4.14.61-5.14,5.38-2,8.62,6,6.06,12,12.06,18.07,18.09,3.6,3.6,5.73,3.58,9.39-.08q18.62-18.6,37.21-37.22a11.9,11.9,0,0,0,1.79-2c1.89-3.07.2-7.14-3.33-7.31a7.54,7.54,0,0,0-4.91,2.18c-8.58,8.39-17,16.95-25.46,25.45Z" transform="translate(2003.27 669.97)"/><path class="cls-1" d="M-1979.06-631.93l10.43-10.41c8.47-8.5,16.88-17.06,25.46-25.45a7.54,7.54,0,0,1,4.91-2.18c3.53.17,5.22,4.24,3.33,7.31a11.9,11.9,0,0,1-1.79,2q-18.6,18.61-37.21,37.22c-3.66,3.66-5.79,3.68-9.39.08-6-6-12.08-12-18.07-18.09-3.19-3.24-2.19-8,2-8.62a6.69,6.69,0,0,1,4.78,1.76c4.82,4.53,9.39,9.32,14,14A17.21,17.21,0,0,1-1979.06-631.93Z" transform="translate(2003.27 669.97)"/></svg>