<svg id="Layer_1" data-name="Layer 1" xmlns="http://www.w3.org/2000/svg" viewBox="0 0 69.13 68.28">
  <defs>
    <style>
      .cls-1 {
        fill: #45d2c9;
      }
    </style>
  </defs>
  <g>
    <path class="cls-1" d="M-2155.49-536c-1.64-1.53-2.58-2.91-3.89-3.55-5.49-2.69-11.06-5.22-16.67-7.66a6.24,6.24,0,0,1-3.44-3.49c-2.36-5.38-4.89-10.69-7.29-16-.77-1.74-1.71-3.36-3.75-3.4s-3,1.55-3.82,3.3c-2.46,5.51-4.94,11-7.58,16.45a6.93,6.93,0,0,1-2.91,3c-5.5,2.67-11.1,5.14-16.67,7.66-1.64.74-3.06,1.64-3.11,3.68s1.4,3.13,3.13,3.91c5.5,2.49,11,5.06,16.49,7.47a6,6,0,0,1,3.27,3.34c2.41,5.45,5,10.84,7.39,16.28.78,1.75,1.87,3.57,3.8,3.17a6.16,6.16,0,0,0,3.58-3.13c2.7-5.4,5-11,7.67-16.42a7.17,7.17,0,0,1,3.08-3.11c5.57-2.72,11.28-5.13,16.85-7.85C-2158.06-533.09-2157.12-534.48-2155.49-536Z" transform="translate(2224.62 570.17)"/>
    <path class="cls-1" d="M-2155.49-536c-1.63,1.54-2.57,2.93-3.87,3.56-5.57,2.72-11.28,5.13-16.85,7.85a7.17,7.17,0,0,0-3.08,3.11c-2.65,5.42-5,11-7.67,16.42a6.16,6.16,0,0,1-3.58,3.13c-1.93.4-3-1.42-3.8-3.17-2.43-5.44-5-10.83-7.39-16.28a6,6,0,0,0-3.27-3.34c-5.53-2.41-11-5-16.49-7.47-1.73-.78-3.19-1.75-3.13-3.91s1.47-2.94,3.11-3.68c5.57-2.52,11.17-5,16.67-7.66a6.93,6.93,0,0,0,2.91-3c2.64-5.43,5.12-10.94,7.58-16.45.78-1.75,1.77-3.33,3.82-3.3s3,1.66,3.75,3.4c2.4,5.36,4.93,10.67,7.29,16a6.24,6.24,0,0,0,3.44,3.49c5.61,2.44,11.18,5,16.67,7.66C-2158.07-538.93-2157.13-537.55-2155.49-536Z" transform="translate(2224.62 570.17)"/>
  </g>
</svg>
