<svg id="Layer_1" data-name="Layer 1" xmlns="http://www.w3.org/2000/svg" viewBox="0 0 81.21 74.25"><defs><style>.cls-1{fill:#aeb0be;}</style></defs><path class="cls-1" d="M-382.1-623.39l-.32,7.27h2.34c2.05,0,4.1,0,6.14.06a5.89,5.89,0,0,1,3.87,1.81c.74.66,1.47,1.33,2.25,2a31.66,31.66,0,0,1-3.05,3,4.52,4.52,0,0,1-2.53.88q-13.2.09-26.41,0a4.56,4.56,0,0,1-2.42-.91A27.47,27.47,0,0,1-405-611.8a24.6,24.6,0,0,1,3.34-3.35,7.19,7.19,0,0,1,3.44-1,45.08,45.08,0,0,1,5.45.12c.8,0,1.32-.11,1.49-1,.21-1.1.56-2.18.74-3.28a1.94,1.94,0,0,0-1.65-2.5,13.91,13.91,0,0,0-2.95-.35c-6.06-.11-12.12,0-18.17-.28-4.52-.18-8.56-1.7-11.32-5.58a11.87,11.87,0,0,1-2.19-6.8c-.15-8.27-.33-16.55-.35-24.82,0-3.7.29-7.41.56-11.11a11.76,11.76,0,0,1,9.22-10.2,29,29,0,0,1,6.11-.52q21.66-.09,43.32-.07c3.34,0,6.69,0,10,.16a12,12,0,0,1,11.47,10.22,76.53,76.53,0,0,1,.46,9.22q.09,9.78,0,19.56a78.64,78.64,0,0,1-.47,9.22,11.61,11.61,0,0,1-10.15,10.32,56.16,56.16,0,0,1-8.11.47c-5.23.06-10.46,0-15.7,0Zm-4.09-51.5c-8.61,0-17.22,0-25.83,0-4.53,0-7.42,2.69-7.44,7q-.07,15,0,30a6.52,6.52,0,0,0,2.87,5.6,8.85,8.85,0,0,0,5.21,1.33l30.8,0c6.49,0,13,0,19.47-.05,5,0,7.9-2.74,7.91-7.55,0-9.54.06-19.08,0-28.61a11.56,11.56,0,0,0-.53-3.41c-.88-2.78-3.38-4.36-6.75-4.37Z" transform="translate(427.14 682.55)"/></svg>