<svg id="Layer_1" data-name="Layer 1" xmlns="http://www.w3.org/2000/svg" viewBox="0 0 69.13 10.62"><defs><style>.cls-1{fill:#aeafbe;}</style></defs><path class="cls-1" d="M-2079.36-650.61c-9.53,0-19,0-28.58,0-4.29,0-6.71,2.83-5.83,6.65.59,2.6,2.65,3.93,6.17,3.93h47c3.39,0,6.77.06,10.15,0,3.69-.08,6-2.64,5.57-6-.4-2.9-2.49-4.58-5.91-4.59Q-2065.07-650.63-2079.36-650.61Z" transform="translate(2113.95 650.61)"/><path class="cls-1" d="M-2079.36-650.61q14.3,0,28.58,0c3.42,0,5.51,1.69,5.91,4.59.45,3.33-1.88,5.89-5.57,6-3.38.08-6.76,0-10.15,0h-47c-3.52,0-5.58-1.33-6.17-3.93-.88-3.82,1.54-6.63,5.83-6.65C-2098.41-650.63-2088.89-650.61-2079.36-650.61Z" transform="translate(2113.95 650.61)"/></svg>