<svg id="Layer_1" data-name="Layer 1" xmlns="http://www.w3.org/2000/svg" viewBox="0 0 60.37 63.66"><defs><style>.cls-1{fill:#aeb0be;}</style></defs><path class="cls-1" d="M100.92-608.54c-2.32-.72-4.38-1.29-6.38-2a2.67,2.67,0,0,0-3.12.44,1.52,1.52,0,0,1-.67.43c-3.75.86-4.21,3.88-4.73,7-.64,3.82-.89,4.13-4.68,4.43a59.21,59.21,0,0,1-8-.1A2.93,2.93,0,0,1,70.49-601c-.06-.33-.13-.66-.2-1-1.14-5.88-1.13-5.91-6.27-8.58a3.09,3.09,0,0,0-2.06,0c-1.74.47-3.45,1.07-5.16,1.65a2.87,2.87,0,0,1-3.7-1.12c-1.68-2.73-3.31-5.5-4.83-8.32a2.8,2.8,0,0,1,.79-3.63,7.14,7.14,0,0,1,1.06-.93c3.79-2.1,4.67-5.47,4.1-9.44a3.07,3.07,0,0,0-.8-1.68c-1.37-1.37-2.84-2.66-4.29-3.95a2.76,2.76,0,0,1-.85-3.6c1.51-2.82,3.1-5.61,4.76-8.34a2.88,2.88,0,0,1,3.86-1.15c.44.17.89.3,1.34.44,5.49,1.77,5.51,1.79,10.19-1.47a3,3,0,0,0,.94-1.63c.42-1.69.75-3.4,1.06-5.12a3,3,0,0,1,2.92-2.83c3.19-.13,6.39-.14,9.59,0a2.76,2.76,0,0,1,2.73,2.51c.06.4.19.78.27,1.17,1.18,5.74,1.17,5.76,6.2,8.48a3.14,3.14,0,0,0,2.06.08,52,52,0,0,0,5-1.59c1.67-.62,3.11-.37,4,1.16q2.49,4.1,4.73,8.35a2.68,2.68,0,0,1-.75,3.45c-.4.36-.79.73-1.18,1.1-4.28,3.91-4.3,3.91-4,9.48a2.53,2.53,0,0,0,.8,1.49c1.39,1.35,2.84,2.65,4.3,3.93a2.77,2.77,0,0,1,.87,3.6c-1.58,2.93-3.28,5.81-5,8.64C102.47-609.28,101.55-609,100.92-608.54ZM78.16-640.19a10.11,10.11,0,0,0-10.27,10.1,10.11,10.11,0,0,0,10,10.11,10.2,10.2,0,0,0,10.42-10A10.2,10.2,0,0,0,78.16-640.19Z" transform="translate(-47.91 661.85)"/></svg>