<svg id="Layer_1" data-name="Layer 1" xmlns="http://www.w3.org/2000/svg" viewBox="0 0 92.02 100"><defs><style>.cls-1{fill:#f47a38;}.cls-2{fill:#f8971d;}.cls-3{fill:#f4bf59;}.cls-4{fill:#433959;}.cls-5{fill:#f3af3e;}.cls-6,.cls-8{fill:#f7f9e1;}.cls-7{fill:none;stroke:#f7f9e1;stroke-miterlimit:10;stroke-width:0.95px;}.cls-8{font-size:28.45px;font-family:Poppins-Italic, Poppins;font-style:italic;}</style></defs><path class="cls-1" d="M-2668.62-376h-7.58a8.3,8.3,0,0,1-8.3-8.3h15.88Z" transform="translate(2684.5 433.06)"/><path class="cls-2" d="M-2668.62-367.67h-5.69a8.31,8.31,0,0,1-8.3-8.3h14Z" transform="translate(2684.5 433.06)"/><path class="cls-3" d="M-2668.62-359.38h-2.84a8.29,8.29,0,0,1-8.3-8.29h11.14Z" transform="translate(2684.5 433.06)"/><polygon class="cls-4" points="14.94 73.69 15.88 73.69 15.88 48.79 12.09 48.79 14.94 73.69"/><path class="cls-1" d="M-2608.37-376h7.58a8.3,8.3,0,0,0,8.3-8.3h-15.88Z" transform="translate(2684.5 433.06)"/><path class="cls-2" d="M-2608.37-367.67h5.69a8.31,8.31,0,0,0,8.3-8.3h-14Z" transform="translate(2684.5 433.06)"/><path class="cls-3" d="M-2608.37-359.38h2.84a8.29,8.29,0,0,0,8.3-8.29h-11.14Z" transform="translate(2684.5 433.06)"/><polygon class="cls-4" points="77.08 73.69 76.13 73.69 76.13 48.79 79.92 48.79 77.08 73.69"/><path class="cls-1" d="M-2622.18-425c0-3.23-3-5.85-6.8-5.85a7.71,7.71,0,0,0-3.18.68,8,8,0,0,0-6.28-2.86,7.94,7.94,0,0,0-6.27,2.86,7.75,7.75,0,0,0-3.19-.68c-3.75,0-6.79,2.62-6.79,5.85,0,5.25,5.76,6.74,5.76,11.65h21C-2627.94-418.63-2622.18-420.06-2622.18-425Z" transform="translate(2684.5 433.06)"/><path class="cls-2" d="M-2632.23-430.28a8,8,0,0,0-6.21-2.78,8,8,0,0,0-6.2,2.78c-3.09,7.43,3.28,16.9,3.28,16.9h5.84S-2629.15-424.07-2632.23-430.28Z" transform="translate(2684.5 433.06)"/><path class="cls-1" d="M-2638.44-417.52c-6.57,0-11.9,1.1-11.9,2.47v9.66h23.8V-415C-2626.54-416.42-2631.86-417.52-2638.44-417.52Z" transform="translate(2684.5 433.06)"/><path class="cls-4" d="M-2626.54-405.39c0,1.36-5.32,2.47-11.9,2.47s-11.9-1.11-11.9-2.47,5.33-2.47,11.9-2.47S-2626.54-406.76-2626.54-405.39Z" transform="translate(2684.5 433.06)"/><path class="cls-5" d="M-2626.13-414a1,1,0,0,1-.67-.24c-.08-.06-2.89-2.23-11.7-2.23s-11.69,2.23-11.72,2.25a1,1,0,0,1-1.45-.18,1,1,0,0,1,.16-1.44c.14-.11,3.47-2.7,13-2.7s12.73,2.45,13.05,2.73a1,1,0,0,1,.09,1.46A1,1,0,0,1-2626.13-414Z" transform="translate(2684.5 433.06)"/><path class="cls-6" d="M-2634.81-416.35a27.16,27.16,0,0,1,5.12.86,1,1,0,0,0,1.32-1v0a1,1,0,0,0-.76-1,28.59,28.59,0,0,0-5.51-.91,1,1,0,0,0-1.12,1h0A1,1,0,0,0-2634.81-416.35Z" transform="translate(2684.5 433.06)"/><path class="cls-5" d="M-2626.13-405.25a1,1,0,0,1-.67-.25c-.08-.05-2.89-2.22-11.7-2.22s-11.69,2.23-11.72,2.25a1,1,0,0,1-1.45-.18,1,1,0,0,1,.16-1.44c.14-.11,3.47-2.7,13-2.7s12.73,2.45,13.05,2.73a1,1,0,0,1,.09,1.46A1,1,0,0,1-2626.13-405.25Z" transform="translate(2684.5 433.06)"/><path class="cls-6" d="M-2634.81-407.58a26.36,26.36,0,0,1,5.12.86,1,1,0,0,0,1.32-1h0a1,1,0,0,0-.76-1,28.59,28.59,0,0,0-5.51-.91,1,1,0,0,0-1.12,1h0A1,1,0,0,0-2634.81-407.58Z" transform="translate(2684.5 433.06)"/><path class="cls-3" d="M-2640.28-412.81a1.79,1.79,0,0,1,1.79-1.78,1.78,1.78,0,0,1,1.78,1.78,1.78,1.78,0,0,1-1.78,1.78A1.78,1.78,0,0,1-2640.28-412.81Z" transform="translate(2684.5 433.06)"/><path class="cls-3" d="M-2652.12-411a1.78,1.78,0,0,1,1.78-1.78,1.78,1.78,0,0,1,1.78,1.78,1.78,1.78,0,0,1-1.78,1.79A1.79,1.79,0,0,1-2652.12-411Z" transform="translate(2684.5 433.06)"/><path class="cls-3" d="M-2628.32-411a1.78,1.78,0,0,1,1.78-1.78,1.79,1.79,0,0,1,1.79,1.78,1.79,1.79,0,0,1-1.79,1.79A1.79,1.79,0,0,1-2628.32-411Z" transform="translate(2684.5 433.06)"/><polygon class="cls-1" points="63.4 100 78.34 100 76.62 93.85 78.34 87.7 63.4 87.7 63.4 100"/><polygon class="cls-4" points="63.4 96.36 71.56 96.36 63.4 100 63.4 96.36"/><polygon class="cls-5" points="73.63 79.03 73.63 47.14 46.01 31.19 18.39 47.14 18.39 79.03 46.01 94.98 73.63 79.03"/><path class="cls-2" d="M-2638.49-334.1-2669.57-352v-35.87l31.08-17.94,31.07,17.94V-352ZM-2662.67-356l24.18,14,24.17-14v-27.91l-24.17-14-24.18,14Z" transform="translate(2684.5 433.06)"/><polygon class="cls-1" points="46.01 27.21 46.01 35.17 21.84 49.13 14.94 45.15 46.01 27.21"/><polygon class="cls-1" points="77.08 81.03 70.18 77.04 46.01 91 46.01 98.97 77.08 81.03"/><circle class="cls-2" cx="46.81" cy="63.09" r="17.12"/><path class="cls-1" d="M-2637.69-387.09a15.25,15.25,0,0,0-1.66.08,17.11,17.11,0,0,1,15.46,17,17.11,17.11,0,0,1-15.46,17,15.25,15.25,0,0,0,1.66.09A17.13,17.13,0,0,0-2620.57-370,17.12,17.12,0,0,0-2637.69-387.09Z" transform="translate(2684.5 433.06)"/><polygon class="cls-3" points="14.94 81.03 21.84 77.04 46.01 91 46.01 98.97 14.94 81.03"/><polygon class="cls-3" points="46.01 27.21 46.01 35.17 70.18 49.13 77.08 45.15 46.01 27.21"/><path class="cls-7" d="M-2662.67-356l24.18,14,24.17-14v-27.91l-24.17-14-24.18,14Z" transform="translate(2684.5 433.06)"/><polygon class="cls-1" points="28.47 100 13.52 100 15.25 93.85 13.52 87.7 28.47 87.7 28.47 100"/><rect class="cls-1" x="20.31" y="84.06" width="51.4" height="12.3"/><polygon class="cls-4" points="28.47 96.36 20.31 96.36 28.47 100 28.47 96.36"/><polygon class="cls-2" points="21.11 21.75 24.77 24.02 29.05 24.36 28.02 28.54 29.02 32.73 24.73 33.04 21.06 35.28 19.44 31.3 16.17 28.5 19.46 25.72 21.11 21.75"/><polygon class="cls-2" points="70.91 21.75 67.25 24.02 62.96 24.36 63.99 28.54 62.99 32.73 67.28 33.04 70.96 35.28 72.58 31.3 75.84 28.5 72.56 25.72 70.91 21.75"/><text class="cls-8" transform="translate(41.51 73.69)">1</text></svg>