<svg id="Layer_1" data-name="Layer 1" xmlns="http://www.w3.org/2000/svg" viewBox="0 0 64.82 93.42">
  <defs>
    <style>
      .cls-1 {
        fill: #00a979;
      }

      .cls-2 {
        fill: #433959;
      }

      .cls-3 {
        fill: #8fc73e;
      }

      .cls-4 {
        fill: #524769;
      }

      .cls-5 {
        fill: #b1ddcf;
      }

      .cls-6 {
        fill: none;
        stroke: #f7f9e1;
        stroke-miterlimit: 10;
        stroke-width: 0.95px;
      }

      .cls-7 {
        font-size: 28.45px;
        fill: #f7f9e1;
        font-family: Poppins-Italic, Poppins;
        font-style: italic;
      }
    </style>
  </defs>
  <g>
    <g>
      <g>
        <polygon class="cls-1" points="49.87 93.42 64.82 93.42 63.1 87.27 64.82 81.12 49.87 81.12 49.87 93.42"/>
        <polygon class="cls-2" points="49.87 89.78 58.04 89.78 49.87 93.42 49.87 89.78"/>
        <polygon class="cls-3" points="60.11 72.46 60.11 40.56 32.49 24.61 4.86 40.56 4.86 72.46 32.49 88.41 60.11 72.46"/>
        <path class="cls-3" d="M-2387.95-334.26-2419-352.2v-35.88l31.08-17.94,31.07,17.94v35.88Zm-24.18-21.92,24.18,13.95,24.17-13.95V-384.1L-2387.95-398l-24.18,13.95Z" transform="translate(2420.44 426.65)"/>
        <polygon class="cls-1" points="32.49 20.63 32.49 28.6 8.31 42.55 1.41 38.57 32.49 20.63"/>
        <polygon class="cls-1" points="63.56 74.45 56.66 70.47 32.49 84.42 32.49 92.39 63.56 74.45"/>
        <circle class="cls-1" cx="-2387.15" cy="-370.14" r="17.12" transform="translate(1982.99 -1369.73) rotate(-45)"/>
        <path class="cls-4" d="M-2387.15-387.26c-.56,0-1.11,0-1.66.08a17.12,17.12,0,0,1,15.46,17,17.12,17.12,0,0,1-15.46,17c.55.05,1.1.08,1.66.08A17.12,17.12,0,0,0-2370-370.14,17.12,17.12,0,0,0-2387.15-387.26Z" transform="translate(2420.44 426.65)"/>
        <polygon class="cls-5" points="1.41 74.45 8.31 70.47 32.49 84.42 32.49 92.39 1.41 74.45"/>
        <polygon class="cls-5" points="32.49 20.63 32.49 28.6 56.66 42.55 63.56 38.57 32.49 20.63"/>
        <path class="cls-6" d="M-2412.13-356.18l24.18,13.95,24.17-13.95V-384.1L-2387.95-398l-24.18,13.95Z" transform="translate(2420.44 426.65)"/>
        <polygon class="cls-1" points="14.95 93.42 0 93.42 1.73 87.27 0 81.12 14.95 81.12 14.95 93.42"/>
        <rect class="cls-1" x="6.78" y="77.48" width="51.4" height="12.3"/>
        <polygon class="cls-2" points="14.95 89.78 6.79 89.78 14.95 93.42 14.95 89.78"/>
      </g>
      <text class="cls-7" transform="translate(24.16 67.11)">3</text>
    </g>
    <polygon class="cls-1" points="37.34 7.47 36.27 2.13 33.65 4.98 31.63 0 29.61 4.98 26.99 2.13 25.92 7.47 23.05 6.05 24.84 16.18 31.63 16.18 38.41 16.18 40.21 6.05 37.34 7.47"/>
  </g>
</svg>
