<svg id="Layer_1" data-name="Layer 1" xmlns="http://www.w3.org/2000/svg" viewBox="0 0 64.82 72.79"><defs><style>.cls-1{fill:#00a979;}.cls-2{fill:#433959;}.cls-3{fill:#8fc73e;}.cls-4{fill:#524769;}.cls-5{fill:#b2ded1;}.cls-6{fill:none;stroke:#f7f9e1;stroke-miterlimit:10;stroke-width:0.95px;}.cls-7{font-size:28.45px;fill:#f7f9e1;font-family:Poppins-Italic, Poppins;font-style:italic;}</style></defs><polygon class="cls-1" points="49.87 72.79 64.82 72.79 63.1 66.64 64.82 60.49 49.87 60.49 49.87 72.79"/><polygon class="cls-2" points="49.87 69.15 58.04 69.15 49.87 72.79 49.87 69.15"/><polygon class="cls-3" points="60.11 51.83 60.11 19.93 32.49 3.98 4.86 19.93 4.86 51.83 32.49 67.77 60.11 51.83"/><path class="cls-3" d="M-2387.95-334.26-2419-352.2v-35.88l31.08-17.94,31.07,17.94v35.88Zm-24.18-21.92,24.18,13.95,24.17-13.95V-384.1L-2387.95-398l-24.18,13.95Z" transform="translate(2420.44 406.02)"/><polygon class="cls-1" points="32.49 0 32.49 7.97 8.31 21.92 1.41 17.94 32.49 0"/><polygon class="cls-1" points="63.56 53.82 56.66 49.84 32.49 63.79 32.49 71.76 63.56 53.82"/><circle class="cls-1" cx="-2387.15" cy="-370.14" r="17.12" transform="translate(1982.99 -1390.36) rotate(-45)"/><path class="cls-4" d="M-2387.15-387.26c-.56,0-1.11,0-1.66.08a17.12,17.12,0,0,1,15.46,17,17.12,17.12,0,0,1-15.46,17c.55.05,1.1.08,1.66.08A17.12,17.12,0,0,0-2370-370.14,17.12,17.12,0,0,0-2387.15-387.26Z" transform="translate(2420.44 406.02)"/><polygon class="cls-5" points="1.41 53.82 8.31 49.84 32.49 63.79 32.49 71.76 1.41 53.82"/><polygon class="cls-5" points="32.49 0 32.49 7.97 56.66 21.92 63.56 17.94 32.49 0"/><path class="cls-6" d="M-2412.13-356.18l24.18,13.95,24.17-13.95V-384.1L-2387.95-398l-24.18,13.95Z" transform="translate(2420.44 406.02)"/><polygon class="cls-1" points="14.95 72.79 0 72.79 1.73 66.64 0 60.49 14.95 60.49 14.95 72.79"/><rect class="cls-1" x="6.78" y="56.85" width="51.4" height="12.3"/><polygon class="cls-2" points="14.95 69.15 6.79 69.15 14.95 72.79 14.95 69.15"/><text class="cls-7" transform="translate(24.16 46.48)">3</text></svg>