<svg id="Layer_1" data-name="Layer 1" xmlns="http://www.w3.org/2000/svg" viewBox="0 0 64.82 95.93"><defs><style>.cls-1{fill:#38759a;}.cls-2{fill:#433959;}.cls-3{fill:#49acd1;}.cls-4,.cls-7{fill:#f7f9e1;}.cls-5{fill:#b2ded1;}.cls-6{fill:none;stroke:#f7f9e1;stroke-miterlimit:10;stroke-width:0.95px;}.cls-7{font-size:28.45px;font-family:Poppins-Italic, Poppins;font-style:italic;}</style></defs><polygon class="cls-1" points="41.86 7.47 40.11 2.13 35.83 4.98 32.54 0 29.25 4.98 24.97 2.13 23.23 7.47 18.55 6.05 21.48 16.18 32.54 16.18 43.6 16.18 46.53 6.05 41.86 7.47"/><path class="cls-1" d="M-2514.61-419.56c-6.57,0-11.9,1.11-11.9,2.47v9.66h23.81v-9.66C-2502.7-418.45-2508-419.56-2514.61-419.56Z" transform="translate(2547.15 431.03)"/><ellipse class="cls-2" cx="32.54" cy="23.6" rx="11.9" ry="2.47"/><path class="cls-3" d="M-2502.3-416a1,1,0,0,1-.67-.25c-.08-.06-2.89-2.22-11.69-2.22s-11.7,2.22-11.73,2.25a1,1,0,0,1-1.44-.18,1,1,0,0,1,.16-1.44c.13-.11,3.47-2.7,13-2.7s12.72,2.45,13,2.73a1,1,0,0,1,.1,1.46A1,1,0,0,1-2502.3-416Z" transform="translate(2547.15 431.03)"/><path class="cls-4" d="M-2511-418.38a26.38,26.38,0,0,1,5.11.86,1,1,0,0,0,1.33-1h0a1,1,0,0,0-.77-1,29.27,29.27,0,0,0-5.51-.92,1,1,0,0,0-1.12,1h0A1,1,0,0,0-2511-418.38Z" transform="translate(2547.15 431.03)"/><path class="cls-3" d="M-2502.3-407.28a1,1,0,0,1-.67-.25c-.08-.06-2.89-2.23-11.69-2.23s-11.7,2.23-11.73,2.26a1,1,0,0,1-1.44-.18,1,1,0,0,1,.16-1.45c.13-.11,3.47-2.7,13-2.7s12.72,2.45,13,2.73a1,1,0,0,1,.1,1.46A1,1,0,0,1-2502.3-407.28Z" transform="translate(2547.15 431.03)"/><path class="cls-4" d="M-2511-409.61a27.31,27.31,0,0,1,5.11.85,1,1,0,0,0,1.33-1h0a1,1,0,0,0-.77-1,28.48,28.48,0,0,0-5.51-.92,1,1,0,0,0-1.12,1h0A1.05,1.05,0,0,0-2511-409.61Z" transform="translate(2547.15 431.03)"/><path class="cls-3" d="M-2516.45-414.84a1.79,1.79,0,0,1,1.79-1.79,1.79,1.79,0,0,1,1.78,1.79,1.78,1.78,0,0,1-1.78,1.78A1.79,1.79,0,0,1-2516.45-414.84Z" transform="translate(2547.15 431.03)"/><path class="cls-3" d="M-2528.29-413.06a1.78,1.78,0,0,1,1.78-1.78,1.78,1.78,0,0,1,1.79,1.78,1.79,1.79,0,0,1-1.79,1.78A1.78,1.78,0,0,1-2528.29-413.06Z" transform="translate(2547.15 431.03)"/><path class="cls-3" d="M-2504.49-413.06a1.78,1.78,0,0,1,1.79-1.78,1.78,1.78,0,0,1,1.78,1.78,1.78,1.78,0,0,1-1.78,1.78A1.79,1.79,0,0,1-2504.49-413.06Z" transform="translate(2547.15 431.03)"/><polygon class="cls-3" points="49.87 95.93 64.82 95.93 63.1 89.78 64.82 83.63 49.87 83.63 49.87 95.93"/><polygon class="cls-2" points="49.87 92.29 58.04 92.29 49.87 95.93 49.87 92.29"/><polygon class="cls-3" points="60.11 74.96 60.11 43.07 32.49 27.12 4.86 43.07 4.86 74.96 32.49 90.91 60.11 74.96"/><path class="cls-3" d="M-2514.66-336.13l-31.07-17.94v-35.88l31.07-17.94,31.07,17.94v35.88ZM-2538.83-358l24.17,13.95,24.17-13.95V-386l-24.17-13.95L-2538.83-386Z" transform="translate(2547.15 431.03)"/><polygon class="cls-1" points="32.49 23.14 32.49 31.1 8.31 45.06 1.41 41.08 32.49 23.14"/><polygon class="cls-1" points="63.56 76.96 56.66 72.97 32.49 86.93 32.49 94.89 63.56 76.96"/><circle class="cls-1" cx="-2513.86" cy="-372.01" r="17.12" transform="translate(807.64 -2361.37) rotate(-80.68)"/><path class="cls-2" d="M-2513.86-389.13c-.56,0-1.11,0-1.66.08a17.12,17.12,0,0,1,15.46,17,17.12,17.12,0,0,1-15.46,17c.55.05,1.1.08,1.66.08A17.11,17.11,0,0,0-2496.74-372,17.11,17.11,0,0,0-2513.86-389.13Z" transform="translate(2547.15 431.03)"/><polygon class="cls-5" points="1.41 76.96 8.31 72.97 32.49 86.93 32.49 94.89 1.41 76.96"/><polygon class="cls-5" points="32.49 23.14 32.49 31.1 56.66 45.06 63.56 41.08 32.49 23.14"/><path class="cls-6" d="M-2538.83-358l24.17,13.95,24.17-13.95V-386l-24.17-13.95L-2538.83-386Z" transform="translate(2547.15 431.03)"/><polygon class="cls-3" points="14.95 95.93 0 95.93 1.73 89.78 0 83.63 14.95 83.63 14.95 95.93"/><rect class="cls-3" x="6.78" y="79.99" width="51.4" height="12.3"/><polygon class="cls-2" points="14.95 92.29 6.79 92.29 14.95 95.93 14.95 92.29"/><text class="cls-7" transform="translate(24.36 69.62)">2</text></svg>